<?xml version="1.0" standalone="no"?>
<!DOCTYPE svg PUBLIC "-//W3C//DTD SVG 20010904//EN"
 "http://www.w3.org/TR/2001/REC-SVG-20010904/DTD/svg10.dtd">
<svg version="1.0" xmlns="http://www.w3.org/2000/svg"
 width="586.000000pt" height="586.000000pt" viewBox="0 0 586.000000 586.000000"
 preserveAspectRatio="xMidYMid meet">
<metadata>
Created by potrace 1.14, written by Peter Selinger 2001-2017
</metadata>
<g transform="translate(0.000000,586.000000) scale(0.100000,-0.100000)"
fill="#000000" stroke="none">
<path d="M3358 4955 c-13 -13 -320 -20 -423 -10 -33 3 -60 0 -77 -9 -47 -25
-108 -28 -188 -12 -41 9 -96 16 -122 16 -42 0 -53 -5 -88 -39 -23 -22 -55 -42
-73 -46 -166 -31 -284 -72 -372 -129 -33 -21 -75 -47 -92 -57 -39 -22 -157
-51 -177 -43 -8 3 -17 0 -21 -5 -3 -6 -21 -17 -39 -25 -22 -9 -37 -25 -45 -47
-7 -19 -17 -44 -22 -56 -5 -14 -17 -23 -30 -23 -34 0 -109 -50 -179 -117 -36
-35 -86 -84 -112 -109 -26 -25 -55 -64 -65 -87 -14 -32 -146 -297 -223 -446
-99 -193 -123 -289 -126 -502 -1 -92 -5 -173 -9 -180 -11 -16 -28 -177 -28
-254 0 -91 21 -309 33 -340 5 -14 10 -42 10 -61 0 -46 45 -151 80 -189 16 -16
54 -59 85 -93 31 -35 65 -72 75 -82 11 -11 24 -38 31 -62 17 -59 98 -249 115
-269 8 -8 14 -18 14 -22 0 -3 10 -17 23 -30 36 -39 51 -60 87 -122 18 -33 44
-73 57 -88 13 -16 23 -35 23 -44 0 -24 108 -130 184 -180 38 -26 71 -55 74
-65 3 -14 12 -17 46 -14 25 2 61 -4 91 -15 28 -10 62 -19 77 -19 15 0 29 -4
33 -9 3 -5 20 -13 38 -16 17 -4 79 -27 137 -51 199 -81 290 -114 320 -114 17
0 40 -4 50 -10 13 -7 28 -6 50 4 27 11 29 14 14 20 -12 5 -14 10 -7 17 8 8 17
8 31 0 15 -8 23 -6 36 8 9 10 14 25 10 35 -7 18 -54 22 -71 5 -18 -18 -46 -3
-38 20 4 14 1 20 -14 23 -15 2 -18 7 -12 17 7 11 13 12 23 3 19 -15 58 11 58
40 0 16 -3 18 -14 9 -10 -9 -15 -8 -19 2 -8 22 7 38 29 31 18 -7 18 -7 -1 15
-13 16 -16 24 -8 29 8 5 9 13 3 22 -5 8 -7 24 -4 36 5 19 2 21 -23 16 -25 -5
-27 -4 -14 11 16 20 3 22 -34 5 -27 -12 -30 -19 -15 -34 7 -7 0 -17 -20 -32
-30 -22 -36 -19 -24 12 3 9 10 13 15 10 5 -3 9 4 9 15 0 11 5 23 12 27 7 5 5
12 -8 22 -10 8 -13 12 -5 10 8 -2 25 6 39 19 27 25 46 22 37 -6 -3 -10 1 -24
10 -31 13 -10 15 -9 15 8 0 24 16 38 23 20 3 -7 11 2 17 21 11 28 14 31 22 17
5 -9 7 -20 3 -25 -3 -5 -1 -12 5 -16 11 -7 3 -52 -12 -72 -5 -7 -7 -17 -3 -23
9 -15 35 -12 35 5 0 22 16 18 33 -9 16 -24 53 -40 62 -26 3 4 -11 20 -30 34
-31 24 -33 29 -23 49 28 54 28 55 2 72 -32 21 -28 43 12 64 45 24 65 47 58 65
-8 20 0 20 31 0 35 -23 31 -11 -7 25 l-32 30 -20 -21 c-18 -19 -20 -19 -31 -4
-17 23 -27 20 -21 -6 6 -23 6 -23 -6 0 -9 18 -9 25 0 31 17 11 41 87 35 111
-5 19 -3 21 16 15 13 -4 21 -2 21 5 0 6 -4 8 -10 5 -6 -3 -7 1 -4 9 8 20 18
20 38 1 19 -19 21 -19 47 8 14 14 20 16 16 6 -4 -13 0 -15 21 -11 26 5 26 5 9
-21 -18 -28 -22 -57 -8 -57 5 0 4 -11 -2 -24 -7 -13 -15 -22 -19 -20 -5 3 -8
0 -8 -5 0 -6 5 -11 10 -11 6 0 10 -7 10 -16 0 -8 5 -12 11 -8 6 3 9 17 6 30
-5 26 6 33 39 26 23 -4 32 -38 30 -117 -1 -33 -4 -40 -21 -40 -11 0 -26 -4
-32 -8 -15 -10 -17 -67 -3 -67 6 0 10 4 10 9 0 5 9 13 20 16 11 3 20 14 20 24
0 9 12 26 28 37 45 33 50 35 48 16 0 -9 -10 -21 -21 -26 -19 -8 -19 -9 5 -20
16 -7 24 -17 22 -28 -4 -22 -32 -24 -32 -3 0 14 -3 13 -25 -2 -35 -26 -32 -45
5 -38 21 4 29 2 28 -7 -2 -8 8 -13 27 -13 23 0 33 -7 45 -30 8 -16 25 -34 36
-39 12 -6 29 -22 38 -36 13 -23 13 -30 2 -45 -7 -10 -17 -15 -22 -12 -6 3 -16
2 -24 -3 -11 -7 -12 -13 -1 -36 10 -22 10 -29 -1 -35 -7 -4 -9 -11 -6 -15 4
-3 14 1 24 10 9 10 24 14 35 11 14 -5 19 -1 19 11 0 14 3 15 12 6 19 -19 26
-15 33 18 4 16 11 32 16 35 15 10 10 45 -11 67 -21 23 -36 75 -25 86 4 4 10 1
12 -5 3 -7 12 -13 21 -13 16 1 16 2 0 14 -14 10 -16 19 -8 46 5 18 7 37 4 41
-3 5 -1 9 5 9 6 0 8 14 6 33 -3 17 -3 26 1 20 3 -7 10 -13 16 -13 16 0 55 45
50 58 -2 7 7 12 20 12 14 0 35 11 48 25 20 22 22 29 12 43 -13 19 -28 48 -35
72 -3 12 -19 15 -64 15 -53 0 -59 2 -55 18 4 14 7 15 13 6 13 -22 41 10 34 39
-5 22 -3 24 18 18 27 -6 37 11 37 70 0 38 -9 49 -25 28 -10 -14 -15 -14 -32
-3 -20 12 -20 13 -4 28 20 18 44 71 33 71 -4 0 -13 -5 -20 -12 -17 -17 -16 22
2 56 16 31 26 23 52 -39 11 -27 12 -40 5 -45 -8 -4 -3 -13 11 -26 13 -10 18
-12 11 -4 -8 11 -8 22 0 40 l11 25 4 -28 c2 -16 -4 -44 -12 -62 -18 -38 -20
-55 -6 -55 6 0 10 5 10 10 0 6 5 10 10 10 6 0 10 -9 10 -20 0 -11 5 -20 10
-20 6 0 10 11 10 24 0 27 26 42 45 26 7 -6 20 -8 29 -4 10 4 16 1 16 -9 0 -8
5 -17 12 -19 9 -3 9 -6 1 -11 -6 -4 -18 0 -27 9 -15 14 -17 13 -28 -13 -6 -15
-10 -35 -9 -43 2 -12 0 -13 -10 -3 -7 7 -16 13 -20 13 -11 0 -19 -44 -9 -50 6
-4 6 -18 0 -40 -6 -22 -6 -38 1 -46 5 -6 7 -29 3 -53 -7 -46 17 -111 41 -111
8 0 17 -11 21 -25 3 -14 12 -25 20 -25 11 0 11 -5 3 -24 -9 -20 -8 -27 10 -45
12 -12 27 -21 34 -21 6 0 1 -9 -12 -19 -27 -21 -21 -41 13 -41 13 0 29 -7 36
-15 7 -8 17 -15 22 -15 5 0 16 -7 24 -15 17 -17 34 -20 34 -5 0 5 -18 20 -40
32 -22 13 -40 29 -40 36 0 7 5 10 11 7 6 -4 13 2 16 14 3 12 9 21 13 21 4 0
10 15 14 33 5 24 9 29 16 17 7 -12 13 -9 34 13 30 32 45 29 38 -8 -3 -20 0
-25 16 -25 12 0 24 5 27 10 9 14 22 12 28 -4 4 -10 -1 -12 -16 -9 -29 7 -11
-12 21 -22 19 -5 22 -3 22 22 0 32 -9 48 -30 56 -13 4 -12 6 1 6 20 1 48 31
29 31 -8 0 -9 6 -5 18 10 22 8 53 -2 61 -4 3 -14 18 -22 33 -8 15 -19 25 -24
21 -6 -4 -3 -11 6 -18 19 -13 4 -37 -18 -29 -7 3 -16 1 -19 -4 -10 -16 22 -22
37 -7 12 12 15 7 16 -35 0 -40 -2 -48 -15 -43 -8 3 -13 12 -10 19 3 9 -2 14
-14 14 -11 0 -20 6 -20 14 0 14 -49 52 -62 48 -12 -3 -9 16 3 24 7 4 16 0 21
-9 10 -18 38 -12 38 8 0 7 -6 15 -12 18 -9 3 -4 12 12 25 14 12 30 26 37 32 7
5 19 10 28 10 19 0 45 23 45 39 0 6 5 11 10 11 6 0 10 4 10 10 0 6 -10 5 -25
-2 -14 -6 -25 -15 -25 -20 0 -5 -20 -17 -44 -28 -24 -10 -47 -24 -51 -30 -5
-8 -12 -7 -25 5 -16 14 -18 14 -23 0 -4 -8 -17 -15 -30 -15 -23 0 -71 -43 -60
-54 4 -3 1 -6 -5 -6 -7 0 -12 7 -12 15 0 9 -9 15 -25 15 -28 0 -31 13 -14 57
9 24 12 26 22 12 20 -26 47 -31 47 -9 0 11 0 23 1 28 0 4 -7 12 -16 17 -11 7
-18 6 -25 -5 -8 -12 -10 -12 -16 4 -4 11 0 24 10 34 15 15 16 15 16 -1 0 -9 5
-17 10 -17 6 0 10 15 10 33 0 32 15 57 33 57 5 0 7 -6 4 -13 -3 -7 4 -19 14
-25 16 -10 21 -10 25 3 4 9 4 19 0 22 -3 3 -1 12 5 19 10 12 -4 28 -25 29 -11
0 -16 75 -4 75 4 0 8 -11 8 -24 0 -23 0 -23 34 -7 30 15 30 36 -1 24 -17 -7
-17 5 1 23 18 18 24 18 28 0 2 -7 10 1 19 19 14 30 14 32 -2 28 -9 -3 -20 0
-23 6 -10 16 -38 1 -73 -37 l-31 -35 -34 16 c-37 18 -50 6 -23 -23 18 -20 17
-51 -1 -57 -6 -2 -10 6 -10 18 1 12 -6 25 -14 29 -40 20 -68 31 -85 34 -17 3
-19 10 -17 45 2 24 -1 41 -7 41 -6 0 -11 -7 -11 -15 0 -26 -19 -16 -26 13 -4
15 -14 35 -22 45 -14 16 -13 19 6 37 12 12 24 31 28 44 3 13 16 29 30 36 23
13 28 29 24 77 -1 13 6 30 14 39 15 14 17 14 22 -1 4 -10 13 -13 26 -9 13 4
24 1 29 -7 6 -10 9 -7 9 10 0 19 4 22 23 17 12 -3 25 -6 30 -6 14 0 7 -20 -8
-20 -22 0 -18 -17 5 -23 17 -4 19 -11 14 -31 -5 -22 -3 -26 16 -26 12 0 30 -5
41 -11 24 -12 30 -6 69 69 14 26 30 53 37 60 7 7 13 21 13 31 0 9 6 23 13 30
10 11 10 14 0 18 -22 8 -14 25 7 18 14 -5 20 -2 20 10 0 23 -19 57 -29 50 -18
-10 -19 46 -1 58 9 7 19 24 22 40 5 27 -6 38 -15 15 -4 -10 -6 -10 -6 0 -1 7
-6 10 -13 6 -7 -5 -9 -2 -5 9 8 21 -19 30 -38 11 -25 -26 -19 -47 12 -39 l26
6 -23 -24 c-14 -14 -30 -22 -39 -19 -9 3 -12 1 -7 -6 8 -14 -14 -52 -31 -52
-7 0 -13 -7 -13 -15 0 -8 -11 -22 -24 -30 -13 -9 -26 -24 -29 -34 -3 -15 -13
-18 -46 -16 -37 2 -41 0 -41 -21 0 -58 -34 -75 -43 -21 -3 20 0 36 9 43 9 7
10 14 3 21 -12 12 5 63 29 82 13 10 14 14 4 18 -15 6 30 33 53 33 8 0 16 9 20
19 3 11 17 26 30 35 16 10 25 26 25 41 0 18 7 28 24 35 21 8 24 14 19 47 -5
40 8 78 48 141 18 28 19 31 4 26 -15 -6 -17 -1 -13 34 2 23 0 42 -4 42 -5 0
-8 7 -8 15 0 9 -9 41 -19 73 -29 85 -34 132 -16 132 8 0 15 -6 15 -12 1 -8 6
-6 14 5 7 9 20 17 28 17 10 0 13 10 10 38 -5 46 -18 62 -48 62 -23 0 -41 15
-25 22 4 1 12 13 15 26 9 27 -18 32 -28 5 -6 -15 -9 -15 -16 -3 -5 8 -6 18 -4
22 3 4 0 8 -5 8 -6 0 -16 -8 -23 -19 -8 -13 -20 -17 -38 -14 -19 2 -30 -1 -33
-12 -10 -24 -40 -19 -32 5 4 11 2 20 -4 20 -6 0 -11 -7 -11 -15 0 -8 -4 -15
-10 -15 -6 0 -6 9 0 25 6 16 6 25 -1 25 -5 0 -12 -7 -15 -15 -5 -12 -10 -13
-20 -4 -19 16 -18 -5 1 -25 8 -8 15 -18 15 -23 0 -9 -48 -33 -66 -33 -6 0 -23
-11 -38 -25 -15 -14 -29 -25 -30 -25 -2 0 -7 16 -10 36 -7 33 -9 35 -39 29
-31 -6 -31 -5 -12 11 15 12 17 18 7 21 -19 7 -35 52 -33 89 3 36 -8 47 -29 33
-12 -7 -12 -9 4 -9 15 0 16 -3 6 -14 -6 -8 -11 -25 -10 -38 4 -39 1 -43 -16
-20 -8 12 -13 31 -9 41 10 32 -10 32 -53 1 -48 -35 -58 -48 -43 -63 8 -8 6
-16 -6 -29 -13 -14 -13 -20 -3 -33 7 -8 19 -15 26 -15 8 0 14 -4 14 -10 0 -5
-9 -10 -20 -10 -11 0 -20 7 -20 15 0 8 -5 15 -11 15 -6 0 -9 -15 -7 -37 2 -25
-2 -38 -12 -41 -8 -3 -18 -10 -22 -16 -8 -12 -4 52 7 106 4 23 11 35 18 31 6
-4 7 -1 2 7 -4 7 -2 16 6 22 11 7 11 11 2 15 -22 8 -14 25 8 18 18 -6 21 -4
17 13 -6 23 26 56 47 48 26 -9 -10 115 -52 182 -22 35 -71 80 -95 88 -23 7
-24 22 -1 20 31 -2 26 30 -7 44 -33 14 -38 25 -15 34 9 3 15 14 13 23 -2 10 4
19 15 21 10 2 17 -3 17 -12 0 -9 -4 -16 -10 -16 -5 0 -10 -11 -10 -24 0 -17 7
-27 23 -31 12 -4 32 -17 44 -28 27 -24 39 -18 24 12 -6 11 -17 18 -25 15 -19
-7 -30 13 -32 57 -1 29 2 38 17 42 23 6 25 30 4 47 -8 7 -15 18 -15 26 0 7 -5
25 -11 41 l-11 28 -14 -33 c-9 -22 -18 -31 -26 -26 -10 6 -11 4 0 -7 18 -20
15 -39 -8 -39 -12 0 -32 -12 -46 -27 -23 -25 -25 -25 -44 -8 -24 21 -29 98 -7
89 8 -3 19 7 28 23 13 27 36 49 52 52 4 0 15 9 26 19 10 9 29 25 41 34 20 15
21 19 9 34 -11 14 -11 18 4 29 21 15 68 141 60 161 -3 8 -2 21 1 29 4 13 10
14 26 5 13 -7 20 -7 20 -1 0 6 7 8 15 5 11 -5 15 1 15 20 0 14 4 26 9 26 11 0
22 55 15 74 -6 16 -55 17 -66 1 -4 -5 -8 -21 -8 -34 0 -16 4 -22 15 -17 20 7
19 -4 -2 -20 -27 -20 -52 -16 -64 10 -10 20 -8 30 10 54 11 17 21 35 21 41 0
6 9 11 20 11 28 0 42 39 24 65 -8 11 -14 33 -14 49 0 28 -1 28 -19 12 -10 -9
-25 -16 -32 -14 -8 2 -14 -3 -13 -9 1 -7 2 -20 3 -28 0 -8 10 -15 22 -15 20 0
20 -1 -6 -31 -14 -18 -24 -37 -21 -44 2 -7 -4 -21 -14 -30 -17 -15 -19 -14
-39 13 -12 17 -21 35 -21 40 0 6 -6 12 -12 15 -7 2 0 4 15 3 24 -1 27 -4 22
-24 -4 -15 -2 -21 5 -17 5 3 10 17 10 29 0 19 -7 25 -35 30 -20 4 -36 13 -36
21 -1 8 -2 21 -3 28 -1 14 -56 18 -73 4 -8 -5 -33 -6 -60 -2 -27 5 -55 9 -63
9 -22 1 -60 29 -60 43 0 7 -9 17 -20 23 -11 6 -18 16 -14 21 7 13 -25 51 -37
43 -5 -3 -2 -19 6 -35 9 -16 13 -34 9 -40 -3 -6 -1 -22 6 -35 16 -29 0 -54
-36 -54 -12 0 -29 -7 -38 -15 -8 -8 -18 -15 -22 -15 -4 0 -15 -7 -25 -16 -16
-15 -20 -15 -34 -1 -8 9 -15 20 -15 26 0 15 -17 14 -23 -1 -3 -7 -6 -1 -6 14
-1 20 3 26 14 22 10 -4 15 0 15 11 0 9 15 31 33 48 17 18 39 42 47 55 8 12 19
22 25 22 6 0 19 10 29 21 14 16 20 19 26 9 6 -9 13 -5 25 14 10 14 24 26 32
26 9 0 13 6 10 14 -8 20 45 29 59 10 13 -16 34 -19 34 -4 0 18 29 10 35 -10 4
-11 11 -17 17 -14 6 4 5 10 -3 15 -8 5 -11 9 -6 10 26 5 33 4 45 -4 6 -5 29
-7 51 -3 21 3 41 2 45 -2 4 -4 22 -7 39 -7 38 0 47 -22 14 -34 -29 -11 -39
-43 -26 -78 5 -13 9 -35 9 -49 0 -13 5 -24 11 -24 14 0 39 25 39 39 0 6 6 11
13 11 15 0 41 56 32 70 -4 6 -16 2 -33 -11 l-27 -21 -3 22 c-5 28 6 39 18 20
7 -11 10 -11 10 -2 0 7 10 16 23 21 20 7 25 3 45 -43 23 -49 23 -52 7 -83 -15
-28 -16 -34 -3 -52 8 -12 18 -18 21 -14 4 3 7 -6 7 -20 0 -22 5 -27 25 -27 18
0 25 -5 25 -20 0 -11 7 -20 15 -20 9 0 27 -12 40 -26 14 -15 25 -22 25 -17 0
6 17 9 43 6 33 -4 47 0 66 16 13 12 31 21 39 21 10 0 13 7 10 23 -4 20 -1 23
24 19 32 -5 33 -1 14 36 -8 15 -17 53 -21 85 -7 55 -7 57 16 58 13 1 28 1 33
0 5 -1 5 4 0 11 -14 17 -16 68 -4 68 5 0 17 16 26 35 17 35 44 48 44 20 0 -9
8 -18 18 -22 9 -3 25 -13 36 -22 10 -9 20 -15 22 -14 10 6 34 -11 34 -24 0
-13 -9 -15 -50 -10 -48 6 -50 5 -39 -14 6 -12 8 -23 5 -27 -4 -3 4 -16 16 -29
18 -19 19 -23 5 -23 -17 0 -22 -15 -18 -61 1 -19 -7 -34 -29 -52 -16 -14 -30
-30 -30 -35 0 -5 27 -10 60 -11 46 -1 62 3 66 14 4 8 12 15 20 15 18 0 33 28
27 51 -3 12 7 32 26 54 40 45 39 55 -3 55 -34 0 -61 20 -38 28 7 2 12 15 12
29 0 16 7 27 20 30 21 6 27 37 9 49 -8 5 -8 8 0 14 7 3 9 14 5 24 -5 13 -14
15 -40 10 -21 -4 -40 -2 -49 6 -8 7 -15 9 -15 5 0 -4 -7 -2 -15 5 -8 7 -12 16
-9 21 3 5 -2 9 -10 9 -21 0 -31 21 -15 31 9 7 5 8 -12 3 -16 -3 -30 -1 -34 6
-5 8 -10 8 -21 -1 -11 -9 -14 -7 -14 10 0 13 6 21 17 21 29 0 1 17 -52 32 -55
16 -147 23 -157 13z m142 -28 c0 4 5 1 10 -7 5 -8 7 -23 4 -32 -3 -12 0 -18
10 -18 9 0 16 -4 16 -9 0 -10 38 -24 58 -22 6 1 12 -4 12 -11 0 -17 -36 -48
-55 -48 -8 0 -15 -9 -15 -20 0 -22 -16 -27 -23 -7 -3 9 -7 9 -20 -2 -14 -11
-20 -11 -32 -1 -8 7 -12 17 -8 23 4 7 8 19 8 29 1 14 -2 15 -18 7 -14 -8 -22
-7 -31 2 -8 9 -7 11 7 6 9 -4 17 -3 17 1 0 4 14 13 30 20 32 15 43 48 12 38
-24 -8 -48 30 -32 50 9 10 17 11 31 3 10 -5 19 -6 19 -2z m-380 -21 c0 -3 -4
-8 -10 -11 -5 -3 -10 -1 -10 4 0 6 5 11 10 11 6 0 10 -2 10 -4z m-56 -31 c7
-27 1 -45 -14 -45 -5 0 -8 16 -7 35 2 41 12 46 21 10z m187 2 c24 5 28 3 23
-11 -8 -20 14 -21 40 -1 21 16 36 12 36 -9 0 -8 -8 -13 -17 -12 -10 0 -17 -5
-15 -11 1 -7 -7 -13 -18 -13 -23 0 -25 -10 -7 -30 10 -12 9 -12 -5 -1 -9 7
-22 11 -30 10 -27 -4 -49 13 -42 33 3 12 1 24 -6 28 -7 5 -9 13 -4 21 5 9 9
10 12 1 2 -7 15 -9 33 -5z m-246 -17 c3 -5 -3 -10 -14 -10 -12 0 -21 -6 -21
-13 0 -9 9 -12 28 -9 17 2 33 -2 40 -11 10 -12 7 -14 -20 -15 -17 0 -34 -6
-38 -12 -7 -11 -40 -3 -40 10 0 5 6 11 13 13 9 4 8 8 -3 16 -13 10 -12 13 4
26 23 17 42 19 51 5z m178 4 c3 -4 2 -15 -4 -25 -8 -16 -5 -21 16 -29 27 -10
32 -24 13 -36 -7 -5 -8 -3 -3 7 5 8 -2 5 -14 -6 -23 -20 -23 -20 -34 0 -7 11
-15 30 -19 43 -5 19 -4 22 9 18 12 -5 14 -1 10 14 -5 19 12 28 26 14z m-330
-35 c-17 -17 -37 -1 -22 17 8 10 15 12 23 4 7 -7 7 -13 -1 -21z m265 -51 c7
-7 12 -18 12 -25 0 -11 -5 -11 -20 -3 -11 6 -20 17 -20 25 0 18 12 19 28 3z
m22 -58 c0 -5 -7 -10 -16 -10 -8 0 -12 5 -9 10 3 6 10 10 16 10 5 0 9 -4 9
-10z m-45 -10 c3 -5 1 -10 -4 -10 -6 0 -11 5 -11 10 0 6 2 10 4 10 3 0 8 -4
11 -10z m395 -21 c0 -6 -4 -7 -10 -4 -5 3 -10 11 -10 16 0 6 5 7 10 4 6 -3 10
-11 10 -16z m-1205 -19 c-3 -5 -11 -10 -16 -10 -6 0 -7 5 -4 10 3 6 11 10 16
10 6 0 7 -4 4 -10z m-81 -102 c-17 -27 -37 32 -26 76 4 15 8 9 18 -24 7 -24
11 -47 8 -52z m-87 37 c9 -24 -1 -27 -15 -5 -8 13 -8 20 -2 20 6 0 13 -7 17
-15z m408 -15 c3 -5 1 -10 -4 -10 -6 0 -11 5 -11 10 0 6 2 10 4 10 3 0 8 -4
11 -10z m-425 -10 c0 -5 -5 -10 -11 -10 -5 0 -7 5 -4 10 3 6 8 10 11 10 2 0 4
-4 4 -10z m-93 -62 c-3 -8 -6 -5 -6 6 -1 11 2 17 5 13 3 -3 4 -12 1 -19z m440
-5 c-7 -35 2 -84 14 -77 15 9 10 -13 -5 -25 -19 -16 -65 -21 -93 -10 -13 5
-25 4 -28 -1 -4 -6 -11 -10 -16 -10 -6 0 -8 4 -5 9 3 5 -1 22 -9 38 -22 44
-23 77 -3 81 13 2 16 -1 12 -12 -3 -9 -2 -16 4 -16 5 0 13 8 16 17 8 19 22 8
29 -22 4 -15 5 -14 6 7 1 34 20 46 37 24 11 -16 13 -16 19 3 10 31 28 26 22
-6z m-271 2 c-3 -8 -1 -15 3 -15 5 0 11 6 14 13 2 6 8 9 12 5 8 -8 -24 -78
-35 -78 -3 0 -12 6 -19 13 -11 10 -13 8 -8 -10 3 -13 1 -23 -4 -23 -13 0 -11
52 4 83 12 28 44 39 33 12z m104 -87 c0 -18 -5 -28 -15 -28 -8 0 -15 -7 -15
-16 0 -11 6 -14 23 -9 21 6 21 5 3 -9 -10 -8 -15 -19 -12 -24 10 -17 -5 -41
-21 -35 -17 7 -16 -6 3 -51 5 -14 4 -17 -6 -11 -8 5 -11 3 -8 -6 5 -15 48 -26
48 -12 0 5 -6 15 -12 22 -11 11 -10 13 2 9 8 -3 16 -13 18 -24 3 -23 52 -47
76 -38 12 5 15 2 10 -11 -6 -13 -2 -16 18 -14 28 4 58 -16 58 -37 0 -8 5 -14
11 -14 5 0 7 5 4 10 -3 6 1 10 10 10 12 0 15 -6 10 -20 -5 -16 -2 -20 14 -20
33 0 24 -40 -11 -53 -27 -10 -38 -40 -25 -67 15 -30 31 -35 51 -15 14 15 18
14 43 -4 31 -21 103 -35 103 -20 0 5 5 9 10 9 13 0 13 -57 1 -65 -6 -3 -4 -20
5 -40 13 -32 13 -35 -2 -35 -11 0 -15 -6 -11 -20 4 -15 0 -19 -17 -17 -15 1
-21 -4 -21 -18 0 -16 6 -20 28 -18 15 1 27 -2 27 -8 0 -5 -9 -9 -19 -9 -23 0
-48 -45 -43 -78 3 -18 8 -23 23 -19 21 6 44 -25 36 -48 -3 -7 0 -18 6 -25 9
-9 4 -11 -23 -5 -46 10 -72 24 -65 36 4 5 -5 9 -19 9 -14 0 -28 -4 -31 -10 -3
-5 -15 -10 -26 -10 -16 0 -19 5 -14 20 4 13 2 20 -7 20 -8 0 -21 -9 -31 -20
-9 -11 -22 -20 -28 -20 -8 0 -8 4 0 14 19 22 -9 26 -31 4 -21 -21 -38 -23 -38
-5 0 6 -7 21 -15 31 -15 20 -15 20 -33 0 -10 -10 -22 -28 -26 -39 -5 -13 -10
-15 -13 -7 -9 23 -23 12 -23 -18 0 -23 -4 -28 -16 -23 -13 5 -15 2 -9 -16 5
-18 2 -24 -14 -28 -22 -6 -27 -18 -12 -27 5 -4 12 0 14 6 4 10 6 10 6 0 1 -7
-10 -17 -24 -22 -28 -11 -31 -26 -11 -53 9 -12 16 -14 21 -8 11 19 31 12 44
-15 9 -20 9 -25 -1 -22 -7 3 -18 -1 -25 -8 -17 -16 -17 -27 0 -21 6 2 18 -3
25 -12 11 -15 13 -14 23 2 5 9 16 17 24 17 15 0 20 -14 30 -83 5 -37 10 -47
21 -43 8 3 22 -3 31 -14 10 -11 24 -20 32 -20 8 0 3 9 -13 21 -28 22 -33 48
-14 67 16 16 28 15 28 -2 0 -13 41 -46 58 -46 4 0 8 11 8 25 0 14 -4 25 -9 25
-4 0 -5 5 -1 11 5 8 9 8 14 -1 10 -16 30 -4 30 18 0 24 37 25 61 3 23 -21 69
-17 69 6 0 8 4 12 8 9 5 -3 17 11 26 32 l18 37 25 -29 c21 -24 24 -36 19 -67
-3 -21 -1 -61 6 -89 9 -40 18 -55 40 -66 34 -18 35 -27 3 -48 -14 -9 -25 -23
-25 -30 0 -8 -9 -16 -21 -19 -15 -4 -19 -11 -15 -25 5 -16 1 -21 -24 -25 -29
-6 -44 -35 -17 -34 45 1 67 -5 67 -18 0 -8 7 -15 15 -15 8 0 15 -5 15 -11 0
-6 12 -1 26 10 15 12 32 21 38 21 6 0 3 -7 -6 -14 -10 -7 -18 -17 -18 -21 0
-4 -7 -13 -17 -20 -11 -8 -14 -18 -8 -31 11 -25 13 -113 4 -139 -4 -11 -11
-29 -15 -40 -9 -26 -13 -85 -4 -85 3 0 12 6 18 12 10 10 15 10 22 -2 14 -21
12 -30 -5 -30 -8 0 -17 -11 -21 -25 -4 -15 -13 -25 -24 -25 -9 0 -25 -9 -35
-20 -14 -16 -20 -17 -26 -8 -7 10 -11 10 -21 0 -9 -9 -9 -12 0 -12 7 0 12 -9
12 -20 0 -22 -4 -24 -28 -11 -10 5 -27 5 -41 0 -19 -8 -21 -12 -11 -24 6 -8 9
-23 5 -34 -8 -26 14 -22 44 8 12 12 24 21 26 19 2 -2 5 -23 6 -46 2 -27 7 -41
14 -38 14 5 14 -36 0 -47 -6 -5 -3 -6 8 -3 21 7 33 -20 41 -84 4 -41 4 -42
-22 -35 -36 9 -54 25 -48 42 8 19 -42 37 -60 22 -18 -15 -18 -30 1 -23 8 3 21
-1 30 -9 14 -14 11 -16 -29 -22 -26 -4 -47 -14 -50 -22 -4 -10 -14 -13 -30 -9
-14 3 -27 2 -30 -3 -3 -5 -15 -7 -25 -4 -11 3 -36 0 -55 -7 -47 -15 -64 -4
-37 24 16 17 18 25 9 34 -9 9 -7 13 5 18 9 3 17 11 17 16 0 6 -7 7 -16 4 -11
-4 -22 1 -31 14 -16 23 -33 26 -33 6 0 -8 -7 -22 -16 -31 -21 -20 -12 -73 16
-92 25 -18 26 -33 1 -33 -11 0 -23 -5 -27 -11 -3 -6 -17 -9 -30 -6 -30 5 -30
0 -2 -23 19 -15 20 -20 9 -34 -16 -19 -31 -12 -31 15 0 10 -5 19 -11 19 -8 0
-10 -16 -5 -50 4 -32 3 -50 -4 -50 -5 0 -10 5 -10 10 0 6 -4 10 -10 10 -5 0
-10 -6 -10 -14 0 -8 -5 -18 -10 -21 -17 -10 -50 5 -50 23 0 20 -16 5 -24 -23
-3 -11 -3 2 0 30 4 31 15 60 30 78 15 18 24 41 24 62 0 19 5 37 10 40 6 4 7
11 4 17 -4 6 -10 6 -16 0 -16 -16 -46 -2 -59 30 -9 22 -9 32 0 41 15 15 14 47
-3 47 -7 0 -19 -7 -26 -15 -7 -8 -19 -15 -26 -15 -8 0 -14 -9 -14 -19 0 -10
-6 -21 -14 -24 -9 -3 -12 -15 -9 -31 6 -27 23 -36 23 -12 0 7 6 19 14 25 16
14 30 -1 40 -43 4 -16 15 -30 27 -33 25 -7 21 -35 -7 -47 -26 -12 -48 -74 -33
-92 9 -11 8 -20 -7 -61 -11 -30 -14 -103 -4 -103 10 0 12 7 14 44 1 24 26 34
26 11 0 -12 5 -15 23 -10 37 12 41 11 51 -12 6 -14 18 -21 31 -20 11 1 19 -3
17 -10 -1 -7 7 -13 18 -13 21 0 27 -15 10 -25 -6 -4 -8 -11 -4 -16 4 -6 10 -6
19 1 13 11 16 5 35 -60 l8 -25 7 24 c8 22 9 23 21 7 9 -13 17 -15 30 -8 13 7
22 5 35 -12 16 -18 18 -19 19 -3 0 24 20 22 20 -3 0 -25 16 -26 29 -3 9 17 11
16 30 -1 11 -10 18 -22 16 -27 -3 -4 -2 -10 2 -12 14 -9 7 -66 -11 -86 -13
-14 -14 -21 -5 -26 7 -5 16 -1 21 9 5 9 17 16 26 16 9 0 24 10 32 22 14 23 16
28 19 48 2 15 31 12 32 -2 0 -7 2 -28 3 -46 3 -24 -2 -36 -18 -47 -12 -9 -22
-11 -24 -5 -5 13 -32 13 -32 0 0 -5 4 -10 10 -10 5 0 8 -6 6 -12 -3 -7 -7 -26
-11 -41 -4 -20 -10 -27 -20 -23 -8 3 -15 0 -15 -5 0 -6 -8 -9 -19 -6 -12 3
-28 -6 -44 -23 -15 -15 -37 -30 -50 -32 -21 -4 -23 -1 -19 16 3 12 12 26 20
32 12 9 9 16 -17 44 -17 19 -31 38 -31 42 0 12 16 17 30 8 9 -6 18 -3 27 8 19
26 16 29 -30 28 -56 -3 -69 -12 -67 -50 3 -50 1 -56 -19 -56 -30 0 -51 -11
-51 -26 0 -8 -4 -14 -10 -14 -12 0 -12 3 -4 24 3 9 12 16 20 16 8 0 14 7 14
15 0 18 -17 20 -23 3 -3 -10 -7 -10 -20 1 -10 7 -32 17 -50 20 -23 5 -33 13
-35 29 -3 20 -32 33 -32 14 0 -14 36 -52 49 -52 6 0 11 -9 11 -19 0 -11 3 -26
6 -35 4 -10 1 -16 -9 -16 -10 0 -17 11 -19 28 -2 20 -9 28 -27 30 -13 2 -27
-2 -32 -9 -6 -10 -13 -10 -31 -1 l-23 11 23 7 c15 4 22 14 22 30 0 13 -4 24
-9 24 -20 0 -2 64 29 106 19 24 37 44 42 44 12 0 39 58 29 64 -4 3 -17 -1 -27
-9 -15 -11 -17 -16 -6 -26 10 -11 5 -16 -23 -30 -19 -10 -45 -16 -57 -14 -13
2 -32 5 -43 7 -11 2 -19 -2 -18 -9 2 -6 -6 -15 -17 -18 -23 -7 -27 -43 -6 -51
8 -3 12 -12 9 -20 -3 -8 -9 -11 -14 -8 -6 3 -17 0 -25 -7 -8 -6 -18 -9 -21 -5
-4 4 -1 11 6 15 22 14 4 29 -54 46 -44 12 -53 19 -48 33 13 35 35 61 48 56 7
-3 22 5 34 17 l20 22 -25 26 c-23 22 -24 27 -10 37 25 18 20 35 -8 28 -19 -4
-26 -1 -31 15 -3 11 -4 24 -1 29 2 4 1 14 -5 22 -6 10 -9 11 -9 3 0 -7 -7 -13
-15 -13 -18 0 -19 11 -2 29 10 11 9 13 -5 8 -22 -8 -23 6 -3 23 9 8 12 22 8
42 -6 28 -5 29 15 17 16 -10 26 -10 44 -1 22 11 21 11 -7 6 -29 -5 -29 -5 -11
10 11 9 16 16 12 16 -4 0 0 7 8 16 14 14 14 17 1 30 -18 18 -37 10 -33 -14 2
-12 -3 -16 -16 -14 -11 2 -26 -4 -33 -14 -10 -13 -16 -15 -24 -7 -15 15 -3 33
22 33 11 0 24 11 31 25 10 22 8 29 -12 50 l-23 24 24 36 c23 33 24 34 30 12 3
-13 12 -21 22 -21 13 1 17 -5 15 -25 -3 -22 1 -25 19 -23 12 2 24 -2 28 -9 6
-8 10 -7 16 2 5 8 9 17 9 20 0 9 -36 49 -45 49 -13 0 -34 33 -35 53 0 13 6 18
23 15 17 -2 22 -10 22 -32 0 -16 6 -31 13 -33 8 -3 12 7 12 31 0 29 -5 38 -29
51 -59 30 -69 67 -29 109 21 23 24 46 5 46 -21 0 -35 20 -30 41 3 10 12 19 20
19 9 0 13 -6 10 -14 -3 -8 5 -24 19 -37 19 -18 24 -19 24 -6 0 9 5 19 12 23 7
4 8 3 4 -4 -4 -7 -3 -12 1 -12 13 0 33 22 33 36 0 14 -42 15 -51 1 -13 -19
-28 5 -24 38 3 21 1 35 -6 35 -5 0 -7 -4 -4 -10 3 -5 1 -10 -4 -10 -12 0 -13
6 -5 38 7 25 24 30 24 7 0 -20 15 -19 35 1 13 14 14 19 3 25 -10 7 -9 9 4 9 9
0 21 -7 26 -16 8 -14 10 -14 15 -1 3 9 -1 21 -9 28 -24 20 -45 67 -34 74 6 3
10 1 10 -4 0 -6 7 -11 15 -11 13 0 13 4 3 23 -7 12 -14 23 -15 25 -1 2 -13 -4
-27 -13 -27 -18 -30 -17 -20 9 3 8 12 12 21 9 12 -5 14 -1 8 15 -8 26 13 89
32 96 25 10 24 -15 -1 -35 -14 -11 -26 -25 -26 -30 0 -15 32 -10 45 7 10 14
15 15 35 4 l24 -13 -22 -8 c-29 -11 -28 -19 1 -19 16 0 28 9 37 28 15 31 25
15 16 -24 -5 -19 -12 -24 -29 -22 -32 5 -33 -27 -1 -57 36 -34 48 -32 41 8 -6
41 4 60 26 51 19 -7 23 6 6 23 -12 12 4 53 20 53 10 0 21 36 14 44 -3 3 -23
-6 -44 -20 -21 -13 -39 -20 -39 -15 0 5 -9 7 -20 4 -15 -4 -20 0 -20 15 0 30
-45 73 -60 58 -8 -8 -9 -4 -1 17 6 16 11 40 11 54 0 18 4 24 15 19 12 -4 15 3
15 32 0 20 4 32 8 26 4 -6 14 -13 23 -16 23 -9 22 79 -1 102 -16 16 -18 16
-27 0 -6 -9 -9 -29 -6 -43 4 -22 2 -26 -11 -21 -10 4 -15 13 -12 21 8 19 -20
46 -36 37 -7 -4 -6 1 3 12 23 27 44 68 30 60 -15 -10 -14 3 3 19 8 9 13 32 11
62 -2 50 -13 57 -46 27 -20 -18 -29 -18 -29 1 0 8 5 15 10 15 6 0 10 7 10 16
0 11 6 14 20 9 21 -7 27 4 11 20 -6 6 -2 28 11 58 13 30 24 44 28 36 6 -9 13
-8 29 3 22 16 18 28 -10 28 -9 0 -20 6 -23 13 -3 8 -8 7 -16 -5 -6 -10 -17
-18 -25 -18 -8 0 -12 -6 -9 -13 7 -20 -56 -111 -69 -98 -32 32 -70 -20 -47
-64 11 -21 10 -33 -9 -88 -11 -35 -21 -72 -22 -83 0 -10 -3 -13 -6 -6 -8 21
-25 13 -18 -8 6 -18 4 -18 -19 5 -14 14 -32 25 -41 25 -8 0 -15 6 -16 13 0 6
-2 22 -3 34 -1 12 1 20 6 17 14 -9 38 29 32 49 -3 10 1 29 10 42 26 39 21 48
-23 42 -34 -4 -39 -2 -39 17 -1 11 -3 30 -6 41 -2 11 -5 23 -5 28 -1 4 -5 7
-11 7 -5 0 -7 -6 -4 -14 3 -9 -3 -17 -15 -21 -24 -7 -27 -23 -7 -31 25 -10 49
-55 37 -67 -15 -15 -14 -54 1 -59 7 -3 9 -12 5 -22 -8 -21 -27 -12 -27 14 0
10 -4 21 -9 25 -6 3 -13 26 -17 50 -6 42 -24 64 -24 30 0 -13 -4 -14 -22 -4
-22 12 -22 12 -3 20 11 4 16 8 12 8 -5 1 -5 6 -1 12 4 8 9 7 15 -2 6 -10 9 -8
9 9 0 12 7 34 16 47 13 20 24 24 60 23 51 -1 78 17 70 46 -3 13 4 29 25 48 29
28 49 30 49 4 0 -8 10 -17 23 -21 26 -8 27 -8 50 0 12 5 17 2 17 -9 0 -9 -4
-16 -10 -16 -15 0 -12 -17 5 -23 11 -5 13 2 9 31 -8 66 -10 73 -32 95 -19 19
-22 19 -22 4 0 -15 -4 -16 -20 -7 -16 8 -22 7 -32 -9 -9 -14 -19 -18 -38 -14
-31 6 -49 -12 -52 -51 -3 -31 -14 -43 -43 -47 -38 -6 -48 11 -20 33 14 11 23
23 20 26 -3 4 -10 0 -15 -8 -7 -11 -11 -8 -20 15 -12 31 -7 55 10 55 6 0 14
-10 19 -22 5 -15 10 -18 15 -9 4 6 0 23 -9 37 -19 29 -13 43 9 25 11 -10 19
-9 35 1 22 13 23 29 3 36 -7 2 -12 -3 -12 -12 0 -20 -16 -21 -24 -1 -3 8 -2
15 3 15 4 0 6 11 3 25 -3 20 0 25 16 25 14 0 25 -13 38 -42 10 -24 18 -49 17
-55 0 -7 7 -13 16 -13 19 0 21 50 3 93 -7 16 -10 32 -7 37 3 5 -1 11 -7 14 -7
3 -2 3 11 0 14 -4 21 -2 17 4 -8 14 21 35 39 28 8 -3 14 -2 14 2 -3 20 2 42
10 42 13 0 23 -31 14 -44 -5 -7 0 -3 10 7 9 11 17 25 17 33 0 8 4 14 9 14 5 0
13 9 16 20 4 11 11 18 16 15 8 -6 11 3 14 50 0 11 -5 26 -12 33 -7 7 -13 19
-13 25 0 8 3 8 9 -1 6 -11 14 -8 36 12 16 15 26 29 22 32 -8 8 -67 -6 -67 -15
0 -4 -18 -7 -40 -7 -25 1 -40 6 -40 14 0 6 4 12 10 12 5 0 7 7 4 15 -5 11 -2
13 10 9 11 -4 16 -1 16 10 0 19 -40 22 -59 4 -11 -11 -13 -10 -9 2 3 8 14 16
26 18 11 2 26 10 32 18 15 17 46 18 54 2 3 -7 4 -4 3 7 -2 15 -9 19 -26 17
-15 -3 -21 0 -16 8 4 6 4 27 1 46 -5 25 -12 34 -26 34 -20 0 -20 0 0 20 11 11
17 26 14 35 -4 10 0 15 10 15 12 0 16 -10 16 -47 0 -34 6 -53 22 -70 12 -13
25 -23 30 -23 15 0 8 33 -9 46 -17 13 -17 13 0 14 13 0 17 5 12 19 -8 25 10
68 34 80 23 13 51 5 51 -14 0 -7 7 -15 15 -19 13 -4 14 -2 5 14 -6 11 -8 20
-5 20 3 0 7 0 10 0 12 1 55 52 50 60 -3 5 0 20 6 32 7 13 12 39 10 57 -2 35
-2 35 19 16 11 -10 20 -31 20 -47z m-246 17 c-17 -13 -17 -14 -1 -15 9 0 17
-4 17 -10 0 -14 -13 -13 -28 2 -19 19 -14 38 10 38 21 0 21 0 2 -15z m146 -35
c0 -5 -5 -10 -11 -10 -5 0 -7 5 -4 10 3 6 8 10 11 10 2 0 4 -4 4 -10z m-150
-30 c0 -5 -4 -10 -10 -10 -5 0 -10 -4 -10 -10 0 -5 7 -10 16 -10 8 0 12 -5 9
-11 -10 -16 -53 -29 -71 -22 -13 5 -10 12 17 38 36 35 49 41 49 25z m968 -62
c1 -31 -1 -39 -8 -28 -12 18 -13 70 -2 70 5 0 9 -19 10 -42z m-1058 -8 c0 -5
-4 -10 -10 -10 -5 0 -10 5 -10 10 0 6 5 10 10 10 6 0 10 -4 10 -10z m-32 -35
c-3 -3 -9 2 -12 12 -6 14 -5 15 5 6 7 -7 10 -15 7 -18z m-34 -36 c-6 -11 -44
2 -44 15 0 7 5 17 12 24 10 10 15 7 24 -10 7 -13 10 -26 8 -29z m-178 -34 c-9
-9 -16 -13 -16 -8 0 12 22 34 28 28 2 -2 -3 -11 -12 -20z m260 -32 c-10 -10
-19 5 -10 18 6 11 8 11 12 0 2 -7 1 -15 -2 -18z m-12 -46 c-7 -18 -24 -23 -24
-7 0 6 4 10 10 10 5 0 7 8 3 18 -4 13 -3 14 6 6 6 -6 9 -18 5 -27z m-207 -2
c-4 -8 -13 -15 -22 -15 -13 0 -12 3 2 20 19 22 29 19 20 -5z m-67 5 c0 -5 -5
-10 -11 -10 -6 0 -8 -8 -4 -20 4 -13 0 -23 -14 -32 -12 -7 -21 -21 -21 -30 0
-11 -5 -15 -15 -12 -11 5 -14 2 -8 -12 3 -11 11 -22 17 -26 6 -4 5 -12 -3 -22
-16 -19 -33 -12 -24 9 3 8 0 15 -7 15 -7 0 -9 8 -5 21 4 11 7 40 7 65 0 24 4
42 9 39 5 -3 21 1 36 9 33 18 43 19 43 6z m-100 -100 c0 -5 -4 -10 -10 -10 -5
0 -10 5 -10 10 0 6 5 10 10 10 6 0 10 -4 10 -10z m1240 -186 c0 -8 5 -14 10
-14 6 0 10 -7 10 -15 0 -8 -4 -15 -8 -15 -4 0 -13 -13 -19 -30 -12 -33 -11
-35 18 -20 15 8 19 7 19 -3 0 -8 -10 -17 -22 -20 -21 -6 -28 0 -60 47 -3 5
-17 -4 -31 -20 -14 -16 -29 -26 -33 -21 -4 4 1 14 12 21 17 13 17 18 6 36 -8
12 -9 19 -3 15 6 -3 11 1 11 9 0 23 30 47 51 41 11 -4 19 -2 19 5 0 6 5 8 10
5 6 -3 10 -13 10 -21z m-1220 -4 c0 -5 -7 -10 -17 -10 -9 0 -14 -3 -10 -6 3
-3 9 -6 14 -6 4 0 14 -5 22 -11 10 -9 19 -5 38 18 16 19 23 23 19 11 -4 -10
-2 -24 4 -31 6 -7 10 -17 8 -21 -3 -13 33 -84 43 -84 5 0 9 -5 9 -11 0 -8 -5
-8 -15 1 -8 7 -15 11 -16 9 -6 -36 -5 -75 2 -79 10 -7 0 -50 -12 -50 -5 0 -9
5 -9 11 0 5 -4 7 -10 4 -5 -3 -10 -15 -10 -26 0 -22 -18 -25 -44 -6 -16 12
-23 10 -50 -15 l-31 -29 -3 45 c-2 25 2 55 8 67 9 15 9 24 1 32 -6 6 -11 16
-11 22 1 5 12 -3 26 -20 l26 -30 -5 28 c-2 15 0 30 4 33 5 3 4 14 -2 26 -6 11
-9 31 -6 44 2 13 -2 29 -9 35 -20 16 -17 47 4 52 29 8 32 7 32 -3z m300 -39
c0 -12 -39 -21 -46 -10 -3 5 2 9 10 9 9 0 16 5 16 11 0 5 5 7 10 4 6 -3 10
-10 10 -14z m-153 -63 c-3 -8 -6 -5 -6 6 -1 11 2 17 5 13 3 -3 4 -12 1 -19z
m-307 -87 c0 -10 7 -24 15 -31 8 -7 15 -19 15 -26 0 -8 4 -14 9 -14 5 0 12 -7
15 -16 3 -8 2 -13 -3 -10 -5 3 -6 -15 -3 -39 2 -25 1 -45 -4 -45 -5 0 -9 -15
-9 -32 0 -26 -4 -32 -17 -30 -14 2 -18 -4 -18 -25 0 -23 -5 -28 -27 -30 -16 0
-21 2 -13 7 9 5 9 9 1 15 -7 3 -9 15 -6 26 4 12 1 21 -9 25 -22 9 -20 31 4 39
11 3 22 18 26 33 8 41 20 57 38 54 9 -2 16 4 16 13 0 24 -67 16 -76 -10 -6
-19 -6 -20 -11 -1 -5 19 7 33 47 56 12 7 13 11 3 21 -15 16 -17 39 -3 39 6 0
10 -8 10 -19z m310 -6 c-6 -7 -8 -20 -4 -29 10 -27 -10 -18 -23 10 -15 32 -10
44 17 37 15 -4 18 -9 10 -18z m1195 15 c3 -6 -5 -10 -19 -10 -14 0 -28 5 -31
10 -3 6 5 10 19 10 14 0 28 -4 31 -10z m-221 -34 c-6 -16 -24 -23 -24 -8 0 10
22 33 27 28 2 -2 1 -11 -3 -20z m-1467 -63 c-3 -10 -5 -4 -5 12 0 17 2 24 5
18 2 -7 2 -21 0 -30z m353 -23 c0 -5 -2 -10 -4 -10 -3 0 -8 5 -11 10 -3 6 -1
10 4 10 6 0 11 -4 11 -10z m-227 -46 c-5 -15 -25 -15 -24 -1 1 4 1 14 1 23 0
13 3 14 14 4 8 -6 12 -18 9 -26z m147 -34 c0 -5 -5 -10 -11 -10 -5 0 -7 5 -4
10 3 6 8 10 11 10 2 0 4 -4 4 -10z m-193 -45 c-26 -20 -28 -45 -4 -54 12 -5
26 -6 31 -3 5 2 6 -1 2 -9 -3 -8 -9 -22 -12 -31 -4 -10 -11 -18 -16 -18 -15 0
-73 -62 -70 -74 2 -6 -6 -1 -17 11 -13 13 -21 35 -21 55 l1 33 15 -27 c17 -32
22 -33 52 -12 20 14 22 42 3 29 -5 -2 -13 7 -20 21 -10 22 -8 33 11 73 21 43
24 45 41 31 14 -12 15 -17 4 -25z m1659 -9 c16 -17 19 -30 4 -21 -5 3 -11 3
-12 -2 -2 -10 -8 -63 -9 -83 -1 -8 -9 -23 -18 -34 -15 -18 -15 -18 7 -12 27 9
28 2 3 -25 -19 -20 -19 -20 -25 7 -5 20 -10 24 -19 15 -16 -16 -30 -14 -23 5
3 9 -1 25 -9 37 -17 24 -19 37 -7 37 5 0 14 -10 21 -22 11 -22 11 -22 8 5 -3
21 2 32 25 49 20 14 28 27 25 39 -6 22 9 25 29 5z m-66 -33 c0 -7 -4 -13 -9
-13 -5 0 -11 6 -14 13 -3 8 1 14 9 14 8 0 14 -6 14 -14z m-1275 -2 c3 -5 1
-12 -5 -16 -5 -3 -10 1 -10 9 0 18 6 21 15 7z m-410 -21 c-3 -5 -12 -10 -18
-10 -7 0 -6 4 3 10 19 12 23 12 15 0z m1324 -4 c9 -10 8 -16 -3 -26 -19 -15
-36 -5 -36 21 0 22 22 25 39 5z m-1169 -120 c-8 -26 -9 -45 -2 -66 12 -33 -4
-55 -32 -44 -13 5 -16 -1 -16 -30 0 -40 -12 -50 -77 -61 -43 -7 -67 -25 -45
-33 7 -2 12 -11 12 -19 0 -12 7 -14 28 -9 83 19 94 19 104 3 5 -10 13 -17 18
-17 18 0 10 27 -12 42 -20 13 -18 14 25 14 26 -1 47 -4 47 -8 0 -5 -5 -8 -11
-8 -6 0 -9 -6 -6 -12 4 -12 12 -14 65 -17 13 -1 22 -7 22 -17 0 -12 -7 -14
-30 -9 -19 4 -30 3 -30 -4 0 -6 -6 -11 -14 -11 -7 0 -19 -6 -25 -14 -10 -11
-8 -16 5 -24 15 -8 15 -12 2 -31 -8 -11 -17 -18 -21 -15 -3 3 -11 3 -17 -1 -9
-6 -9 -10 1 -16 11 -7 9 -9 -7 -9 -11 0 -29 6 -39 14 -16 11 -17 17 -7 29 7 8
24 18 37 21 14 4 25 11 25 16 0 13 -17 13 -26 -1 -3 -6 -15 -9 -25 -6 -14 4
-19 0 -19 -14 0 -10 -4 -19 -9 -19 -6 0 -16 -12 -23 -27 -7 -16 -20 -28 -28
-28 -20 0 -90 -57 -90 -72 0 -7 -7 -13 -15 -13 -8 0 -23 -20 -34 -44 -15 -31
-28 -45 -45 -48 l-25 -5 20 26 21 26 -21 3 c-18 3 -19 7 -10 23 7 14 7 29 1
49 -6 16 -8 30 -6 33 9 9 44 -5 43 -17 -3 -23 1 -36 11 -36 6 0 10 11 10 25 0
14 -3 25 -8 25 -10 0 -34 81 -26 89 4 3 9 0 11 -6 3 -7 12 -13 21 -12 14 0 12
3 -5 16 -25 17 -31 38 -9 30 30 -12 43 69 14 84 -22 12 -24 29 -2 29 8 0 12 5
8 11 -4 8 0 9 15 4 16 -5 20 -3 15 8 -3 10 6 24 25 38 19 14 27 25 20 29 -16
10 18 41 37 33 8 -3 12 -8 10 -11 -3 -3 -1 -11 4 -17 8 -10 16 -10 35 -1 28
13 40 35 26 49 -5 5 -7 16 -4 24 4 11 8 12 13 2 5 -8 15 2 29 29 12 23 21 45
20 49 -1 5 -1 17 0 28 1 18 2 18 17 3 14 -14 14 -21 4 -52z m1769 32 c0 -13 1
-32 3 -43 2 -12 -4 -21 -14 -23 -14 -3 -18 3 -18 30 0 19 5 39 12 46 16 16 18
15 17 -10z m-279 -3 c0 -8 -4 -15 -10 -15 -5 0 -10 7 -10 15 0 8 5 15 10 15 6
0 10 -7 10 -15z m385 -15 c3 -6 -4 -10 -17 -10 -18 0 -20 2 -8 10 19 12 18 12
25 0z m-2041 -16 c4 -11 1 -14 -11 -12 -9 2 -18 9 -21 16 -6 18 25 15 32 -4z
m794 -1 c-2 -9 -8 -18 -15 -20 -7 -3 -9 3 -6 16 6 25 26 28 21 4z m831 -2 c8
-14 7 -22 -3 -30 -10 -9 -13 -5 -12 19 1 35 2 36 15 11z m-1772 -13 c-3 -8 -6
-5 -6 6 -1 11 2 17 5 13 3 -3 4 -12 1 -19z m33 12 c0 -5 -4 -10 -10 -10 -5 0
-10 5 -10 10 0 6 5 10 10 10 6 0 10 -4 10 -10z m1795 0 c-4 -6 -1 -17 5 -25 8
-10 9 -15 2 -15 -6 0 -14 5 -17 10 -7 12 0 40 10 40 4 0 3 -5 0 -10z m-1595
-4 c0 -3 -4 -8 -10 -11 -5 -3 -10 -1 -10 4 0 6 5 11 10 11 6 0 10 -2 10 -4z
m-120 -39 c0 -4 -12 -4 -26 -1 -25 6 -26 5 -22 -31 2 -24 -2 -40 -10 -43 -7
-2 -12 6 -12 23 0 34 17 65 35 65 8 0 15 6 15 13 0 13 20 -12 20 -26z m782 -9
c-3 -13 -11 -27 -19 -31 -7 -4 -13 -16 -13 -26 0 -10 -6 -24 -14 -30 -11 -9
-11 -17 -3 -35 7 -14 15 -22 19 -20 3 2 9 0 13 -6 14 -22 -28 -8 -55 19 l-29
28 25 11 c26 13 33 49 12 71 -11 10 -10 11 5 6 10 -5 17 -2 17 5 0 9 4 9 17
-1 11 -10 14 -10 9 -1 -8 13 0 32 14 32 4 0 6 -10 2 -22z m1028 12 c0 -5 -7
-10 -15 -10 -8 0 -15 -9 -15 -20 0 -11 -4 -20 -10 -20 -13 0 -1 32 18 48 19
15 22 15 22 2z m250 -4 c0 -8 -4 -18 -10 -21 -16 -10 -12 -72 5 -79 8 -3 15
-14 15 -25 0 -10 -7 -21 -15 -25 -8 -3 -15 0 -15 7 0 8 -4 6 -10 -3 -7 -11 -5
-18 5 -26 19 -15 19 -25 0 -18 -11 5 -13 2 -8 -12 6 -16 4 -16 -20 2 -14 10
-27 22 -27 27 0 14 -20 7 -20 -8 0 -8 5 -15 10 -15 6 0 10 -6 10 -14 0 -19 26
-40 35 -26 9 15 25 12 25 -4 0 -21 31 -29 44 -10 8 11 23 14 51 11 34 -3 37
-5 18 -12 -13 -4 -23 -11 -23 -15 0 -14 31 -40 41 -35 5 4 14 3 20 -1 8 -5 8
-9 -1 -14 -18 -11 -2 -31 22 -28 16 2 22 -3 23 -20 3 -34 38 -65 74 -64 34 1
34 1 25 -22 -3 -9 -11 -13 -16 -10 -6 4 -6 -2 1 -14 10 -18 8 -20 -21 -18 -24
1 -33 -4 -36 -18 -4 -17 0 -18 32 -13 31 5 36 3 36 -14 0 -10 -4 -19 -10 -19
-5 0 -10 -5 -10 -12 0 -6 3 -8 7 -5 9 9 33 -12 33 -30 0 -18 -43 -34 -52 -19
-5 7 -8 5 -8 -6 0 -10 -4 -18 -10 -18 -5 0 -10 5 -10 11 0 6 -6 9 -14 6 -9 -4
-12 0 -9 12 3 12 -2 20 -16 24 -14 3 -21 0 -21 -9 0 -8 -7 -14 -15 -14 -8 0
-15 -7 -15 -15 0 -8 -6 -12 -13 -9 -8 3 -11 17 -9 41 3 26 1 34 -7 28 -17 -10
-61 33 -61 59 -1 22 -39 99 -40 81 0 -5 -6 -2 -14 7 -19 26 -65 41 -82 27 -11
-9 -14 -7 -14 8 0 11 -9 49 -20 83 -16 49 -17 66 -8 77 9 11 7 19 -12 36 l-22
22 6 -32 c3 -19 1 -33 -4 -33 -6 0 -10 5 -10 11 0 5 -5 7 -11 4 -6 -4 -13 2
-16 14 -9 34 -26 24 -21 -11 5 -33 -6 -64 -31 -84 -16 -12 -7 -34 14 -34 8 0
18 8 23 17 7 12 10 1 11 -40 0 -44 -3 -57 -14 -57 -15 0 -55 -34 -55 -46 0 -3
11 -3 24 0 15 4 26 1 29 -7 3 -9 10 -7 23 6 11 10 13 17 6 17 -20 0 -13 29 11
42 12 7 26 11 31 10 4 -2 15 3 24 10 14 12 14 10 3 -11 -7 -12 -11 -32 -8 -42
3 -12 0 -19 -9 -19 -8 0 -14 -7 -14 -15 0 -16 -42 -31 -59 -21 -5 3 -11 0 -14
-6 -4 -10 -7 -11 -18 0 -7 6 -23 12 -36 12 -17 0 -23 6 -23 21 0 16 -5 20 -20
16 -22 -6 -37 8 -20 18 5 3 10 15 10 26 0 10 6 19 13 19 8 0 8 3 1 8 -14 9
-24 38 -17 46 3 3 12 -2 18 -11 11 -15 13 -15 24 5 8 15 8 27 0 45 -12 27 4
73 21 62 12 -8 30 25 30 55 0 6 11 10 25 10 14 0 37 12 52 26 18 18 29 22 36
15 17 -17 47 -13 47 5 0 9 14 32 30 51 17 18 30 39 30 46 0 14 20 37 32 37 4
0 8 -6 8 -14z m-1206 -5 c3 -5 -1 -11 -9 -14 -9 -4 -12 -1 -8 9 6 16 10 17 17
5z m1254 -7 c-4 -3 -9 -4 -12 -2 -3 2 -12 -6 -20 -17 -12 -16 -15 -17 -16 -4
0 21 9 29 33 29 11 0 18 -3 15 -6z m-1288 -23 c0 -6 -4 -13 -10 -16 -5 -3 -10
1 -10 9 0 9 5 16 10 16 6 0 10 -4 10 -9z m-720 -5 c0 -3 -4 -8 -10 -11 -5 -3
-10 -1 -10 4 0 6 5 11 10 11 6 0 10 -2 10 -4z m695 -34 c-8 -8 -25 10 -19 20
4 6 9 5 15 -3 4 -7 6 -15 4 -17z m929 13 c-6 -16 -24 -21 -24 -7 0 11 11 22
21 22 5 0 6 -7 3 -15z m475 -54 c-28 -38 -48 -41 -41 -6 2 14 7 24 10 21 2 -3
14 1 25 9 30 21 32 11 6 -24z m-1927 -3 c-6 -6 -15 -8 -19 -4 -4 4 -1 11 7 16
19 12 27 3 12 -12z m531 -9 c-5 -16 -8 -18 -14 -7 -13 20 -11 38 5 32 8 -3 12
-13 9 -25z m927 -4 c0 -8 -7 -15 -15 -15 -8 0 -15 7 -15 15 0 8 7 15 15 15 8
0 15 -7 15 -15z m-1036 -36 c-6 -11 -24 -2 -24 11 0 5 7 7 15 4 8 -4 12 -10 9
-15z m-54 -28 c0 -10 -7 -24 -15 -31 -8 -7 -15 -21 -15 -32 0 -27 -23 -17 -34
15 -11 30 -3 45 17 29 8 -7 18 -7 27 -2 10 6 11 10 3 10 -7 0 -10 7 -7 15 8
21 24 19 24 -4z m30 -2 c0 -6 -4 -7 -10 -4 -5 3 -10 11 -10 16 0 6 5 7 10 4 6
-3 10 -11 10 -16z m136 -14 c-6 -23 -9 -24 -29 -14 l-22 12 23 10 c12 6 22 15
22 20 0 6 3 8 6 4 4 -3 4 -18 0 -32z m1578 19 c19 -50 2 -74 -55 -74 -25 0
-29 4 -29 28 0 41 15 59 34 43 13 -11 16 -11 16 3 0 21 26 21 34 0z m-644 -19
c-7 -9 -15 -13 -17 -11 -7 7 7 26 19 26 6 0 6 -6 -2 -15z m-50 -15 c0 -5 -5
-10 -11 -10 -5 0 -7 5 -4 10 3 6 8 10 11 10 2 0 4 -4 4 -10z m-1016 -30 c8
-16 11 -30 7 -30 -12 0 -42 41 -36 50 9 15 12 13 29 -20z m1213 -25 c-13 -9
-17 -20 -12 -34 4 -12 2 -21 -4 -21 -18 0 -12 48 7 59 25 15 30 13 9 -4z
m-1392 -5 c3 -5 2 -10 -4 -10 -5 0 -13 5 -16 10 -3 6 -2 10 4 10 5 0 13 -4 16
-10z m79 -26 c-4 -15 0 -25 12 -32 19 -11 11 -32 -13 -32 -9 0 -13 -6 -9 -15
3 -8 -3 -20 -13 -27 -10 -7 -21 -23 -25 -35 -10 -33 -26 -28 -26 7 0 20 5 30
15 30 8 0 15 6 15 14 0 8 6 17 13 19 9 4 8 8 -3 16 -13 9 -13 11 3 11 9 0 17
7 17 15 0 8 -4 15 -10 15 -5 0 -10 9 -10 19 0 13 6 19 20 18 15 -1 18 -6 14
-23z m-56 -12 c2 -7 -4 -12 -13 -12 -15 0 -17 -6 -12 -36 5 -27 2 -36 -11 -41
-9 -4 -21 -11 -25 -17 -5 -6 -6 4 -3 24 4 18 11 37 18 41 6 4 8 15 4 25 -4 10
-1 21 6 26 16 10 30 6 36 -10z m242 -82 c6 0 10 -10 10 -22 0 -17 -3 -19 -12
-10 -18 18 -28 15 -28 -8 0 -11 -3 -20 -7 -20 -5 0 -8 23 -9 50 -1 50 -1 50
18 30 10 -11 23 -20 28 -20z m926 15 c-1 -28 -26 -35 -26 -7 0 10 3 22 7 25
13 14 21 6 19 -18z m304 -25 c0 -5 -5 -10 -11 -10 -5 0 -7 5 -4 10 3 6 8 10
11 10 2 0 4 -4 4 -10z m-1391 -71 c-10 -6 -5 -11 19 -20 39 -13 41 -26 5 -41
-27 -11 -27 -12 -5 -15 12 -3 22 -11 22 -20 0 -9 6 -13 15 -9 10 3 15 -1 15
-11 0 -9 6 -24 14 -32 18 -21 29 -71 16 -71 -6 0 -30 18 -53 40 -33 30 -49 38
-68 34 -21 -5 -22 -4 -9 8 21 18 23 78 3 78 -8 0 -17 -9 -20 -20 -3 -12 -11
-19 -17 -17 -18 6 -18 33 -2 50 9 9 13 23 10 31 -4 10 1 18 12 22 11 3 26 9
34 13 19 11 27 -8 9 -20z m-83 -20 c4 -7 -2 -9 -17 -7 -13 2 -25 11 -27 21 -3
16 -1 17 17 8 11 -6 23 -16 27 -22z m1530 4 c0 -10 -7 -24 -14 -32 -12 -12
-18 -12 -48 2 -32 16 -34 16 -54 -5 l-20 -22 0 25 c0 16 6 25 18 26 9 1 35 6
57 11 59 14 63 14 61 -5z m-1330 -63 c21 0 16 -13 -13 -34 -24 -18 -26 -18
-20 -2 4 10 7 27 8 39 0 12 3 16 6 10 2 -7 11 -13 19 -13z m-259 -35 c8 -22
-6 -33 -17 -15 -13 20 -12 30 0 30 6 0 13 -7 17 -15z m1268 -4 c3 -5 1 -12 -4
-16 -6 -3 -8 -12 -5 -19 9 -23 -16 -29 -37 -10 -18 16 -18 18 -3 36 19 20 39
23 49 9z m-1211 -36 c3 -9 12 -12 22 -8 11 4 15 3 10 -5 -4 -6 5 -17 22 -26
16 -8 34 -21 41 -29 6 -8 20 -13 29 -10 13 3 24 -6 37 -31 21 -39 25 -42 42
-25 6 6 16 8 22 4 8 -4 6 -11 -4 -21 -8 -9 -19 -13 -24 -9 -5 3 -12 1 -16 -4
-3 -5 3 -14 12 -20 14 -8 15 -12 6 -22 -10 -10 -15 -9 -28 1 -13 11 -14 9 -9
-19 6 -27 4 -31 -15 -31 -12 0 -24 6 -27 14 -4 11 -13 12 -37 5 -18 -5 -33 -9
-34 -9 -9 0 7 133 17 145 10 13 9 15 -9 15 -25 0 -80 57 -81 83 0 21 16 23 24
2z m1160 -25 c18 -6 27 -19 31 -44 4 -19 17 -48 29 -64 l22 -30 22 23 c15 16
19 26 11 30 -24 16 10 95 42 95 7 0 9 -3 6 -7 -4 -3 -1 -13 5 -21 10 -11 8
-17 -10 -30 -24 -19 -18 -35 15 -40 17 -2 21 1 17 12 -3 9 -3 28 0 42 l7 25
19 -23 c17 -20 21 -22 41 -10 18 12 23 12 30 0 14 -22 10 -36 -19 -70 -24 -27
-28 -40 -25 -73 5 -49 -17 -69 -55 -49 -15 7 -20 14 -13 18 6 4 11 15 11 24 0
10 -9 3 -25 -19 -14 -19 -30 -34 -35 -33 -6 1 -17 2 -26 3 -10 0 -14 7 -10 16
9 25 -10 17 -22 -10 -15 -33 -34 -33 -26 0 5 21 3 24 -12 18 -20 -7 -14 8 18
43 19 22 19 22 -14 45 -44 31 -49 39 -43 69 l6 25 -20 -24 -19 -24 -11 22 c-9
17 -10 26 -1 36 7 8 9 19 5 25 -8 13 16 13 49 0z m696 -10 c0 -5 -13 -11 -29
-15 -15 -3 -34 -17 -41 -31 -10 -18 -16 -21 -22 -12 -4 7 -5 -1 -2 -19 7 -35
-5 -43 -26 -18 -7 8 -21 15 -31 15 -10 0 -20 4 -24 10 -3 5 -12 7 -20 4 -15
-6 -62 32 -52 42 9 9 69 -16 83 -35 16 -21 48 -6 41 20 -4 15 -2 19 9 15 17
-6 66 13 77 31 8 13 37 7 37 -7z m-1620 6 c0 -2 -8 -10 -17 -17 -16 -13 -17
-12 -4 4 13 16 21 21 21 13z m-237 -101 c1 -30 4 -35 19 -32 19 5 26 -17 8
-28 -5 -3 -10 -18 -10 -32 0 -15 -6 -42 -12 -61 -10 -28 -10 -36 0 -39 14 -5
17 -33 3 -33 -5 0 -11 6 -14 13 -8 22 -27 -6 -29 -46 -3 -40 -11 -46 -27 -19
-9 15 -12 15 -21 2 -5 -8 -10 -23 -10 -32 0 -10 -4 -18 -10 -18 -13 0 -13 47
-1 54 5 4 12 24 16 46 4 22 12 38 18 37 7 -1 13 13 15 31 2 18 7 30 12 27 5
-3 18 2 28 11 21 18 19 49 -5 73 -8 7 -12 20 -8 29 3 8 0 21 -6 28 -9 11 -8
18 1 29 18 22 32 5 33 -40z m1737 -25 c12 -12 18 -25 15 -30 -9 -15 -22 -12
-29 8 -3 9 -9 23 -12 30 -9 18 3 15 26 -8z m-556 -19 c9 -14 -20 -32 -39 -25
-17 7 -17 8 1 21 21 15 31 16 38 4z m-1534 -63 c66 -28 77 -34 98 -58 24 -27
46 -70 43 -84 -1 -5 4 -16 12 -25 15 -19 15 -87 -2 -104 -6 -6 -11 -7 -11 -2
0 4 -9 0 -19 -9 -19 -17 -20 -17 -33 3 -7 12 -18 21 -25 21 -17 0 -89 74 -107
112 -16 30 -16 31 3 14 18 -16 20 -16 34 13 12 24 12 29 1 24 -8 -3 -14 1 -14
11 0 19 -11 21 -28 4 -9 -9 -13 -7 -18 6 -4 11 -9 13 -13 7 -4 -6 -7 7 -8 29
-3 58 18 67 87 38z m575 -8 c3 -5 1 -10 -4 -10 -6 0 -11 5 -11 10 0 6 2 10 4
10 3 0 8 -4 11 -10z m-138 -25 c-4 -8 -11 -15 -17 -15 -7 0 -7 6 0 21 13 23
26 19 17 -6z m103 -5 c0 -5 -2 -10 -4 -10 -3 0 -8 5 -11 10 -3 6 -1 10 4 10 6
0 11 -4 11 -10z m1543 -15 c-5 -13 -23 -22 -23 -11 0 15 14 35 21 31 4 -3 6
-12 2 -20z m-2150 -60 c-5 -13 -23 -22 -23 -11 0 15 14 35 21 31 4 -3 6 -12 2
-20z m537 -4 c0 -6 -5 -13 -10 -16 -6 -4 -8 -21 -4 -41 5 -26 2 -35 -10 -40
-9 -3 -16 -15 -16 -25 0 -22 4 -23 31 -9 10 6 19 8 19 5 0 -11 -28 -35 -39
-35 -7 0 -9 -10 -5 -26 5 -19 4 -25 -5 -20 -6 4 -11 2 -11 -3 0 -6 -5 -11 -11
-11 -7 0 -9 11 -5 30 3 19 1 30 -5 30 -15 0 -3 61 13 71 7 5 9 11 4 16 -4 4
-12 0 -17 -10 -10 -18 -49 -24 -49 -7 0 5 12 21 26 35 14 14 23 32 20 40 -5
14 11 22 52 24 12 0 22 -3 22 -8z m1494 -56 c-4 -8 -10 -15 -15 -15 -17 0 -21
28 -8 51 l12 23 8 -22 c5 -12 6 -29 3 -37z m-364 26 c0 -6 -4 -13 -10 -16 -5
-3 -10 1 -10 9 0 9 5 16 10 16 6 0 10 -4 10 -9z m490 -5 c0 -3 -4 -8 -10 -11
-5 -3 -10 -1 -10 4 0 6 5 11 10 11 6 0 10 -2 10 -4z m245 -16 c-3 -5 -11 -10
-16 -10 -6 0 -7 5 -4 10 3 6 11 10 16 10 6 0 7 -4 4 -10z m-404 -54 c-14 -16
-4 -26 17 -19 10 4 13 2 8 -6 -4 -6 -15 -10 -23 -9 -9 2 -18 -3 -21 -11 -3
-10 0 -12 12 -8 22 9 20 -6 -4 -28 -15 -14 -23 -15 -34 -6 -11 9 -15 7 -19 -9
-3 -11 -13 -20 -24 -19 -10 0 -13 3 -5 6 6 2 12 9 12 14 0 6 -4 8 -9 5 -5 -3
-11 4 -15 17 -9 32 -8 37 8 37 8 0 21 6 28 14 8 7 24 17 36 20 12 4 22 12 22
17 0 6 5 7 10 4 8 -5 8 -11 1 -19z m-1714 -16 c12 0 14 -7 10 -29 -7 -32 8
-52 31 -44 9 4 13 2 9 -4 -9 -14 -46 -23 -52 -13 -3 5 -7 21 -9 37 -2 15 -6
39 -8 53 -3 14 -3 19 -1 13 3 -7 11 -13 20 -13z m120 -31 c-15 -23 -16 -20
-10 14 4 19 8 25 13 16 5 -7 3 -20 -3 -30z m1446 -55 c-4 -10 1 -22 12 -30 16
-12 17 -14 2 -20 -10 -3 -17 -17 -17 -31 0 -17 -4 -23 -14 -20 -7 3 -19 0 -25
-6 -8 -8 -14 -8 -23 1 -9 9 -10 15 -2 20 6 4 15 23 19 42 7 31 29 59 47 60 4
0 5 -7 1 -16z m-1465 -23 c1 -1 2 -8 2 -17 0 -14 -3 -14 -15 -4 -19 16 -46 -3
-29 -20 5 -5 8 -28 6 -50 -4 -36 -7 -40 -26 -35 -21 6 -21 6 -2 -9 17 -14 18
-16 3 -16 -9 0 -17 -6 -17 -14 0 -8 -6 -18 -12 -22 -7 -4 -10 -4 -6 0 3 4 2
21 -3 38 -7 24 -4 37 11 58 24 33 25 44 5 37 -17 -7 -30 9 -15 18 5 3 10 15
10 27 0 18 5 19 43 14 23 -3 43 -5 45 -5z m1382 -6 c0 -8 -4 -15 -10 -15 -5 0
-10 7 -10 15 0 8 5 15 10 15 6 0 10 -7 10 -15z m-1520 -9 c0 -3 -4 -8 -10 -11
-5 -3 -10 -1 -10 4 0 6 5 11 10 11 6 0 10 -2 10 -4z m1546 -111 c4 -16 13 -25
25 -25 20 0 23 -8 13 -34 -9 -23 -24 -20 -24 5 0 29 -24 19 -28 -12 -5 -35
-19 -44 -31 -20 -9 16 -8 26 4 45 17 25 17 46 0 58 -5 4 0 8 12 8 16 0 25 -8
29 -25z m-1446 -41 c0 -13 -35 -64 -44 -64 -5 0 -2 8 7 18 10 10 17 26 17 35
0 9 5 17 10 17 6 0 10 -3 10 -6z m1990 -19 c0 -15 -6 -25 -14 -25 -8 0 -16 -6
-19 -12 -2 -7 -8 -10 -12 -6 -4 4 -2 14 5 23 7 8 10 22 6 30 -4 10 1 15 14 15
15 0 20 -7 20 -25z m-1956 -20 c-8 -20 5 -19 28 2 16 14 18 14 18 1 0 -9 -7
-19 -16 -22 -9 -3 -14 -13 -11 -21 4 -9 -2 -16 -16 -20 -12 -4 -32 -19 -44
-33 -18 -21 -23 -23 -23 -10 0 9 5 20 10 23 8 5 8 11 0 20 -9 10 -7 16 9 25
17 9 20 8 15 -5 -5 -11 -2 -13 10 -9 20 8 21 23 1 30 -12 5 -13 10 -4 20 15
19 30 18 23 -1z m1366 -49 c0 -14 -5 -28 -11 -31 -15 -10 -18 -4 -12 28 7 34
23 36 23 3z m-110 -6 c0 -5 -5 -10 -11 -10 -5 0 -7 5 -4 10 3 6 8 10 11 10 2
0 4 -4 4 -10z m174 -5 c-4 -8 -11 -15 -16 -15 -6 0 -5 6 2 15 7 8 14 15 16 15
2 0 1 -7 -2 -15z m-1274 -15 c0 -5 -4 -10 -10 -10 -5 0 -10 5 -10 10 0 6 5 10
10 10 6 0 10 -4 10 -10z m1377 -52 c-3 -8 -6 -5 -6 6 -1 11 2 17 5 13 3 -3 4
-12 1 -19z m-1727 -25 c0 -21 -3 -24 -9 -14 -5 8 -7 20 -4 28 8 21 13 15 13
-14z m322 -55 c-7 -7 -12 -20 -12 -30 0 -17 -1 -17 -19 0 -16 15 -17 18 -3 30
21 16 51 17 34 0z m284 -25 c-10 -10 -19 5 -10 18 6 11 8 11 12 0 2 -7 1 -15
-2 -18z m-156 -41 c0 -39 -10 -45 -31 -20 -18 20 -18 22 -1 34 26 20 32 17 32
-14z m187 13 c9 -24 -1 -27 -15 -5 -8 13 -8 20 -2 20 6 0 13 -7 17 -15z m946
-26 c-4 -13 -9 -17 -15 -11 -11 11 -3 32 12 32 4 0 6 -9 3 -21z m-363 -20 c0
-10 -6 -19 -13 -19 -22 0 -27 11 -16 32 12 22 29 15 29 -13z m316 -6 c-11 -11
-19 6 -11 24 8 17 8 17 12 0 3 -10 2 -21 -1 -24z m693 9 c-11 -2 -15 -10 -12
-23 3 -10 0 -19 -6 -19 -6 0 -11 11 -11 24 0 25 17 38 35 27 6 -3 3 -7 -6 -9z
m-1742 -9 c3 -9 -8 -10 -35 -4 -2 1 0 6 3 12 8 12 27 7 32 -8z m-88 -37 c19
-20 22 -30 15 -58 -4 -19 -9 -27 -12 -18 -21 65 -23 66 -38 46 -13 -19 -14
-18 -14 10 0 50 15 56 49 20z m291 -2 c0 -8 -5 -12 -10 -9 -6 4 -8 11 -5 16 9
14 15 11 15 -7z m500 -3 c0 -26 -16 -35 -24 -15 -10 25 -7 34 9 34 8 0 15 -9
15 -19z m-236 -73 c-5 -17 -3 -20 10 -15 10 4 16 1 16 -8 0 -22 -22 -30 -35
-12 -10 14 -12 14 -23 -1 -7 -9 -10 -11 -6 -4 3 7 -2 20 -12 28 -17 14 -17 15
-1 10 10 -3 22 2 29 14 15 24 31 15 22 -12z m-169 2 c-3 -5 -12 -7 -20 -3 -21
7 -19 13 6 13 11 0 18 -4 14 -10z m55 -22 c0 -10 2 -10 8 -1 5 7 13 9 21 4 11
-7 9 -11 -7 -20 -11 -6 -28 -11 -36 -11 -16 0 -21 -15 -18 -55 l2 -20 -15 20
c-8 11 -19 26 -25 33 -8 9 -5 14 13 21 13 5 27 17 30 25 8 19 27 21 27 4z
m130 -62 c0 -3 -4 -8 -10 -11 -5 -3 -10 -1 -10 4 0 6 5 11 10 11 6 0 10 -2 10
-4z m-50 -62 c0 -8 -4 -12 -10 -9 -5 3 -10 10 -10 16 0 5 5 9 10 9 6 0 10 -7
10 -16z m75 -41 c-2 -10 -4 -20 -4 -22 -1 -3 -7 1 -13 7 -10 10 -10 15 2 22
19 12 19 13 15 -7z m75 -43 c0 -13 -1 -13 -10 0 -5 8 -10 22 -10 30 0 13 1 13
10 0 5 -8 10 -22 10 -30z m628 -29 c-15 -5 -21 7 -13 26 7 17 8 17 15 -2 4
-11 3 -22 -2 -24z m-680 -3 c-6 -18 -28 -21 -28 -4 0 9 7 16 16 16 9 0 14 -5
12 -12z"/>
<path d="M3520 4830 c0 -5 5 -10 11 -10 5 0 7 5 4 10 -3 6 -8 10 -11 10 -2 0
-4 -4 -4 -10z"/>
<path d="M3510 4800 c-12 -7 -12 -12 -2 -22 9 -9 15 -9 24 0 16 16 -2 34 -22
22z"/>
<path d="M2380 4496 c0 -8 5 -18 10 -21 6 -3 10 3 10 14 0 12 -4 21 -10 21 -5
0 -10 -6 -10 -14z"/>
<path d="M2202 4286 c7 -8 15 -12 17 -11 5 6 -10 25 -20 25 -5 0 -4 -6 3 -14z"/>
<path d="M2117 4221 c-16 -17 -16 -18 8 -29 14 -6 25 -18 25 -27 0 -8 5 -15
10 -15 6 0 10 6 10 14 0 8 5 16 12 18 8 3 6 13 -8 31 -22 31 -33 32 -57 8z"/>
<path d="M2289 4124 c-10 -13 -10 -17 0 -23 17 -11 -4 -52 -23 -45 -7 3 -20
-6 -30 -20 -17 -28 -22 -66 -7 -66 15 0 23 18 11 25 -15 9 -1 27 17 21 8 -3
11 -2 8 3 -11 19 17 23 30 5 8 -11 15 -14 15 -8 0 5 -5 15 -11 21 -7 7 0 12
25 17 44 8 45 19 7 57 -26 25 -30 27 -42 13z"/>
<path d="M2142 4117 c-12 -14 -7 -47 7 -47 22 1 29 16 17 38 -11 20 -14 21
-24 9z"/>
<path d="M2395 4100 c-3 -6 1 -7 9 -4 18 7 21 14 7 14 -6 0 -13 -4 -16 -10z"/>
<path d="M2458 4083 c7 -3 16 -2 19 1 4 3 -2 6 -13 5 -11 0 -14 -3 -6 -6z"/>
<path d="M2316 3999 c-7 -17 8 -68 16 -53 2 5 1 23 -2 39 -5 22 -9 26 -14 14z"/>
<path d="M2125 3979 c-10 -15 3 -25 16 -12 7 7 7 13 1 17 -6 3 -14 1 -17 -5z"/>
<path d="M2175 3980 c-3 -5 1 -10 9 -10 9 0 16 5 16 10 0 6 -4 10 -9 10 -6 0
-13 -4 -16 -10z"/>
<path d="M2450 3923 c0 -7 74 -73 83 -73 4 0 10 6 13 14 3 8 11 13 19 10 8 -3
13 4 13 20 0 14 -4 26 -9 26 -5 0 -9 -7 -9 -16 0 -8 -4 -13 -9 -9 -5 3 -12 1
-16 -5 -10 -16 -23 -12 -37 13 -11 18 -48 35 -48 20z"/>
<path d="M2187 3913 c-4 -3 -7 -11 -7 -17 0 -6 5 -5 12 2 6 6 9 14 7 17 -3 3
-9 2 -12 -2z"/>
<path d="M2420 3909 c0 -5 5 -7 10 -4 6 3 10 8 10 11 0 2 -4 4 -10 4 -5 0 -10
-5 -10 -11z"/>
<path d="M2657 3913 c-4 -3 -7 -11 -7 -17 0 -6 5 -5 12 2 6 6 9 14 7 17 -3 3
-9 2 -12 -2z"/>
<path d="M2353 3884 c-15 -16 -16 -24 -4 -24 8 0 24 30 19 35 -2 2 -9 -3 -15
-11z"/>
<path d="M2212 3878 c5 -15 28 -23 28 -10 0 5 -7 13 -16 16 -10 4 -14 1 -12
-6z"/>
<path d="M2090 3869 c0 -5 5 -7 10 -4 6 3 10 8 10 11 0 2 -4 4 -10 4 -5 0 -10
-5 -10 -11z"/>
<path d="M2550 3839 c0 -5 5 -7 10 -4 6 3 10 8 10 11 0 2 -4 4 -10 4 -5 0 -10
-5 -10 -11z"/>
<path d="M2248 3819 c-16 -11 -28 -28 -28 -37 1 -15 3 -15 15 2 13 17 15 17
21 3 5 -14 8 -14 20 -2 15 14 19 55 7 55 -5 0 -20 -10 -35 -21z"/>
<path d="M2120 3796 c0 -8 5 -18 10 -21 6 -3 10 3 10 14 0 12 -4 21 -10 21 -5
0 -10 -6 -10 -14z"/>
<path d="M2340 3798 c0 -7 -3 -22 -6 -34 -4 -15 1 -23 18 -31 22 -10 23 -9 23
31 0 31 -5 42 -18 44 -9 2 -17 -2 -17 -10z"/>
<path d="M2513 3776 c-15 -7 -21 -17 -17 -28 4 -13 -3 -18 -28 -23 -41 -8 -72
-30 -63 -44 4 -8 12 -8 25 -1 33 18 48 12 42 -15 -2 -15 0 -25 7 -25 11 0 15
13 12 37 -1 6 4 15 11 20 13 8 18 9 38 12 16 2 11 29 -7 40 -17 9 -17 11 2 25
23 18 11 19 -22 2z"/>
<path d="M1970 3750 c0 -5 5 -10 10 -10 6 0 10 5 10 10 0 6 -4 10 -10 10 -5 0
-10 -4 -10 -10z"/>
<path d="M2020 3750 c-13 -8 -12 -10 3 -10 9 0 17 5 17 10 0 12 -1 12 -20 0z"/>
<path d="M2130 3750 c0 -5 5 -10 10 -10 6 0 10 5 10 10 0 6 -4 10 -10 10 -5 0
-10 -4 -10 -10z"/>
<path d="M2170 3725 c0 -8 0 -17 0 -20 0 -14 15 -4 22 14 5 15 3 21 -7 21 -8
0 -15 -7 -15 -15z"/>
<path d="M2013 3695 c4 -9 7 -23 7 -31 0 -20 13 -17 28 7 15 24 15 24 -17 34
-20 6 -23 4 -18 -10z"/>
<path d="M2362 3680 c-10 -17 -10 -20 3 -20 8 0 15 9 15 20 0 11 -1 20 -3 20
-1 0 -8 -9 -15 -20z"/>
<path d="M2205 3670 c5 -15 3 -18 -9 -14 -9 3 -16 1 -16 -5 0 -6 4 -11 8 -11
5 0 7 -24 5 -52 -4 -58 -6 -59 45 19 23 35 22 53 -4 53 -8 0 -14 7 -14 15 0 8
-5 15 -11 15 -6 0 -8 -9 -4 -20z"/>
<path d="M1940 3660 c0 -13 12 -26 35 -37 36 -17 58 -12 37 9 -7 7 -12 20 -12
30 0 13 -8 18 -30 18 -23 0 -30 -4 -30 -20z"/>
<path d="M1917 3663 c-11 -11 -8 -31 6 -36 10 -4 13 2 9 19 -5 26 -6 27 -15
17z"/>
<path d="M2050 3614 c0 -33 33 -30 38 4 3 17 -2 22 -17 22 -16 0 -21 -6 -21
-26z"/>
<path d="M2030 3565 c7 -8 17 -15 22 -15 6 0 5 7 -2 15 -7 8 -17 15 -22 15 -6
0 -5 -7 2 -15z"/>
<path d="M2080 3560 c0 -5 5 -10 10 -10 6 0 10 5 10 10 0 6 -4 10 -10 10 -5 0
-10 -4 -10 -10z"/>
<path d="M2040 3525 c0 -8 5 -15 10 -15 6 0 10 7 10 15 0 8 -4 15 -10 15 -5 0
-10 -7 -10 -15z"/>
<path d="M1880 3510 c0 -28 3 -35 16 -34 7 1 9 -7 6 -19 -4 -16 -1 -19 11 -14
9 3 18 0 21 -9 3 -8 10 -14 16 -14 8 0 8 6 0 20 -9 16 -8 22 4 26 8 3 19 3 25
0 5 -3 7 3 4 14 -6 21 -28 27 -38 10 -9 -15 -25 -12 -25 5 0 8 -9 19 -20 25
-17 9 -20 8 -20 -10z"/>
<path d="M1827 3433 c-13 -12 -7 -23 13 -23 13 0 18 5 14 15 -7 16 -17 19 -27
8z"/>
<path d="M2140 3419 c0 -5 5 -7 10 -4 6 3 10 8 10 11 0 2 -4 4 -10 4 -5 0 -10
-5 -10 -11z"/>
<path d="M1887 3413 c-10 -16 11 -39 23 -27 8 8 7 14 -4 23 -8 7 -17 8 -19 4z"/>
<path d="M2105 3381 c-28 -6 -29 -7 -10 -18 18 -11 19 -12 3 -18 -13 -5 -15
-12 -9 -22 5 -9 6 -25 3 -36 -3 -12 -1 -18 5 -14 6 4 13 25 17 47 5 34 10 40
31 40 28 0 33 15 9 24 -9 3 -16 5 -17 5 -1 -1 -15 -4 -32 -8z"/>
<path d="M2144 3306 c-3 -13 -17 -34 -31 -46 -14 -12 -22 -24 -19 -28 6 -5 96
83 96 94 0 2 -9 4 -20 4 -12 0 -22 -9 -26 -24z"/>
<path d="M2180 3255 c0 -8 -4 -15 -10 -15 -5 0 -10 -5 -10 -12 0 -6 9 -3 20 7
11 10 20 13 20 7 0 -7 5 -12 10 -12 6 0 5 8 -2 20 -15 24 -28 26 -28 5z"/>
<path d="M2232 3260 c3 -8 -3 -24 -13 -36 -19 -20 -19 -21 1 -42 12 -12 25
-22 31 -22 13 0 1 91 -13 105 -7 7 -9 5 -6 -5z"/>
<path d="M2525 3241 c-6 -11 9 -23 19 -14 9 9 7 23 -3 23 -6 0 -12 -4 -16 -9z"/>
<path d="M2274 3216 c-8 -22 3 -33 18 -18 9 9 9 15 0 24 -9 9 -13 7 -18 -6z"/>
<path d="M2515 3191 c-3 -6 -15 -11 -26 -11 -11 0 -17 -4 -14 -10 3 -5 9 -10
13 -10 13 1 46 30 40 36 -3 3 -9 1 -13 -5z"/>
<path d="M2157 3166 c-15 -22 -15 -25 0 -30 9 -4 21 -2 27 4 7 7 7 10 -1 10
-6 0 -9 9 -6 20 7 27 -1 25 -20 -4z"/>
<path d="M2200 3156 c0 -9 30 -14 35 -6 4 6 -3 10 -14 10 -12 0 -21 -2 -21 -4z"/>
<path d="M2529 3123 c-2 -33 3 -58 12 -61 5 -2 9 -17 9 -33 0 -19 5 -29 15
-29 20 0 19 15 -2 47 -17 25 -17 27 5 41 24 16 30 37 8 29 -8 -3 -17 1 -20 9
-8 20 -26 18 -27 -3z"/>
<path d="M2460 3121 c0 -17 18 -21 24 -6 3 9 0 15 -9 15 -8 0 -15 -4 -15 -9z"/>
<path d="M2239 3093 c-1 -10 0 -26 0 -36 1 -9 -5 -20 -13 -23 -18 -7 -22 -34
-6 -34 6 0 10 4 10 9 0 5 6 8 13 7 20 -3 38 -17 32 -26 -3 -5 -1 -11 5 -15 5
-3 10 2 10 12 0 11 5 24 11 30 13 13 -9 53 -28 53 -7 0 -13 9 -13 20 0 25 -20
27 -21 3z"/>
<path d="M2683 3074 c-7 -19 11 -39 26 -30 16 10 13 33 -4 40 -9 3 -18 -1 -22
-10z"/>
<path d="M2605 3031 c-10 -18 17 -23 33 -7 15 15 15 16 -5 16 -12 0 -24 -4
-28 -9z"/>
<path d="M2459 2991 l-24 -20 27 -1 c30 0 40 10 29 28 -6 10 -14 8 -32 -7z"/>
<path d="M2144 2967 c3 -10 6 -23 6 -28 0 -5 5 -9 10 -9 14 0 12 13 -6 36 -14
17 -15 17 -10 1z"/>
<path d="M2082 2940 c-12 -20 -6 -25 22 -14 19 7 21 34 3 34 -7 0 -18 -9 -25
-20z"/>
<path d="M2540 2940 c-8 -5 -12 -12 -9 -15 4 -3 12 1 19 10 14 17 11 19 -10 5z"/>
<path d="M2240 2924 c0 -9 -8 -23 -18 -32 -10 -10 -16 -16 -13 -15 2 2 10 -2
18 -8 10 -9 13 -8 13 5 0 9 5 16 10 16 6 0 10 11 10 25 0 14 -4 25 -10 25 -5
0 -10 -7 -10 -16z"/>
<path d="M2457 2923 c-4 -3 -7 -11 -7 -17 0 -6 5 -5 12 2 6 6 9 14 7 17 -3 3
-9 2 -12 -2z"/>
<path d="M2155 2891 c-8 -15 3 -31 21 -31 9 0 14 7 12 17 -4 20 -24 28 -33 14z"/>
<path d="M2642 2883 c-9 -16 -8 -23 2 -32 19 -16 28 1 18 30 l-9 23 -11 -21z"/>
<path d="M2750 2870 c15 -28 1 -49 -16 -25 -18 24 -32 10 -16 -15 11 -17 10
-20 -9 -20 -17 0 -19 -4 -13 -22 9 -29 28 -42 32 -23 2 8 13 15 25 15 17 0 19
2 8 9 -12 8 -12 13 1 33 16 24 8 68 -12 68 -8 0 -8 -6 0 -20z"/>
<path d="M2460 2835 c10 -12 7 -16 -16 -25 -32 -13 -54 -39 -47 -57 4 -10 11
-9 34 4 24 14 32 15 52 4 17 -9 30 -10 43 -3 18 9 26 12 39 12 3 0 -4 9 -15
20 -11 11 -24 20 -30 20 -5 0 -10 4 -10 8 0 8 -43 32 -57 32 -3 0 0 -7 7 -15z"/>
<path d="M2610 2824 c-11 -12 -11 -18 1 -29 12 -12 14 -10 16 15 2 34 0 36
-17 14z"/>
<path d="M2030 2740 c0 -5 5 -10 10 -10 6 0 10 5 10 10 0 6 -4 10 -10 10 -5 0
-10 -4 -10 -10z"/>
<path d="M2560 2740 c0 -5 5 -10 10 -10 6 0 10 5 10 10 0 6 -4 10 -10 10 -5 0
-10 -4 -10 -10z"/>
<path d="M2240 2694 c0 -7 -9 -14 -20 -17 -27 -7 -25 -21 4 -37 21 -11 27 -10
40 3 9 8 20 26 25 40 9 22 7 24 -20 23 -16 -1 -29 -6 -29 -12z"/>
<path d="M2062 2660 c-7 -12 -8 -20 -2 -20 5 0 10 4 10 10 0 5 7 7 16 3 11 -4
15 -2 12 7 -7 22 -22 22 -36 0z"/>
<path d="M2476 2663 c6 -20 42 -48 51 -39 5 5 -7 19 -39 44 -14 11 -16 11 -12
-5z"/>
<path d="M2350 2655 c0 -8 5 -15 10 -15 6 0 10 7 10 15 0 8 -4 15 -10 15 -5 0
-10 -7 -10 -15z"/>
<path d="M2080 2631 c0 -10 30 -24 37 -17 3 2 -5 9 -16 16 -12 6 -21 7 -21 1z"/>
<path d="M2430 2620 c0 -5 5 -10 10 -10 6 0 10 5 10 10 0 6 -4 10 -10 10 -5 0
-10 -4 -10 -10z"/>
<path d="M2701 2614 c0 -11 3 -14 6 -6 3 7 2 16 -1 19 -3 4 -6 -2 -5 -13z"/>
<path d="M2180 2610 c0 -5 5 -10 10 -10 6 0 10 5 10 10 0 6 -4 10 -10 10 -5 0
-10 -4 -10 -10z"/>
<path d="M2242 2593 c2 -9 8 -18 15 -20 7 -3 9 3 6 16 -6 25 -26 28 -21 4z"/>
<path d="M2190 2570 c0 -5 5 -10 10 -10 6 0 10 5 10 10 0 6 -4 10 -10 10 -5 0
-10 -4 -10 -10z"/>
<path d="M2378 2563 c7 -3 16 -2 19 1 4 3 -2 6 -13 5 -11 0 -14 -3 -6 -6z"/>
<path d="M2706 2543 c9 -36 12 -39 25 -26 8 8 7 17 -3 32 -18 29 -30 26 -22
-6z"/>
<path d="M2100 2544 c0 -8 5 -12 10 -9 6 3 10 10 10 16 0 5 -4 9 -10 9 -5 0
-10 -7 -10 -16z"/>
<path d="M2056 2541 c-4 -7 -5 -15 -2 -18 9 -9 19 4 14 18 -4 11 -6 11 -12 0z"/>
<path d="M2624 2526 c-10 -8 -17 -17 -14 -19 3 -3 14 1 24 9 11 7 17 16 15 19
-3 3 -14 -2 -25 -9z"/>
<path d="M2260 2506 c0 -13 -3 -32 -6 -40 -5 -12 1 -10 18 5 16 14 23 30 20
41 -7 27 -32 22 -32 -6z"/>
<path d="M2450 2499 c0 -5 5 -7 10 -4 6 3 10 8 10 11 0 2 -4 4 -10 4 -5 0 -10
-5 -10 -11z"/>
<path d="M2130 2460 c-15 -35 -26 -38 -33 -8 -5 18 -8 19 -21 8 -9 -7 -16 -25
-16 -40 0 -15 -9 -38 -20 -51 l-20 -24 -6 23 c-3 12 -13 22 -20 22 -16 0 -19
-17 -4 -22 6 -2 2 -13 -9 -25 -19 -20 -19 -22 -3 -29 24 -10 53 -5 71 14 15
14 16 14 19 -10 3 -26 42 -48 42 -25 0 7 7 4 14 -5 16 -22 46 -24 46 -3 0 19
-36 55 -55 55 -17 0 -30 42 -21 66 3 8 10 12 16 9 5 -3 10 -1 10 4 0 19 22 12
27 -9 7 -26 19 -26 26 0 3 13 10 18 21 14 12 -5 15 -2 10 10 -4 11 -13 14 -30
10 -26 -7 -33 13 -12 34 9 9 8 12 -4 12 -8 0 -21 -13 -28 -30z"/>
<path d="M2400 2470 c0 -5 5 -10 10 -10 6 0 10 5 10 10 0 6 -4 10 -10 10 -5 0
-10 -4 -10 -10z"/>
<path d="M2340 2460 c-13 -8 -12 -10 3 -10 9 0 17 5 17 10 0 12 -1 12 -20 0z"/>
<path d="M2370 2440 c0 -5 5 -10 10 -10 6 0 10 5 10 10 0 6 -4 10 -10 10 -5 0
-10 -4 -10 -10z"/>
<path d="M2195 2380 c3 -5 13 -10 21 -10 8 0 12 5 9 10 -3 6 -13 10 -21 10 -8
0 -12 -4 -9 -10z"/>
<path d="M2297 2355 c-9 -20 -17 -44 -17 -55 0 -24 10 -50 19 -50 13 0 53 96
49 116 -6 33 -33 27 -51 -11z"/>
<path d="M2510 2360 c-12 -8 -12 -10 3 -16 21 -8 35 2 21 16 -5 5 -15 6 -24 0z"/>
<path d="M2590 2335 c0 -11 30 -37 39 -33 5 2 -2 11 -15 21 -13 10 -24 15 -24
12z"/>
<path d="M2570 2300 c0 -5 5 -10 10 -10 6 0 10 5 10 10 0 6 -4 10 -10 10 -5 0
-10 -4 -10 -10z"/>
<path d="M2226 2275 c-3 -8 -15 -15 -26 -15 -11 0 -20 -5 -20 -10 0 -6 11 -8
25 -4 20 5 25 2 25 -12 0 -9 -7 -26 -17 -36 -15 -17 -15 -18 0 -18 10 0 17 6
17 14 0 7 7 19 15 26 8 7 15 16 15 21 0 5 -7 9 -15 9 -18 0 -19 12 -3 28 8 8
8 12 1 12 -6 0 -13 -7 -17 -15z"/>
<path d="M2511 2271 c-14 -10 -19 -21 -13 -24 9 -6 20 3 36 31 10 16 6 15 -23
-7z"/>
<path d="M2020 2270 c-12 -8 -11 -10 8 -10 12 0 22 5 22 10 0 13 -11 13 -30 0z"/>
<path d="M2440 2265 c7 -9 15 -13 17 -11 7 7 -7 26 -19 26 -6 0 -6 -6 2 -15z"/>
<path d="M2545 2200 c-3 -5 -1 -10 4 -10 6 0 11 5 11 10 0 6 -2 10 -4 10 -3 0
-8 -4 -11 -10z"/>
<path d="M2025 2170 c3 -5 8 -10 11 -10 2 0 4 5 4 10 0 6 -5 10 -11 10 -5 0
-7 -4 -4 -10z"/>
<path d="M1910 2100 c0 -5 7 -10 15 -10 8 0 15 5 15 10 0 6 -7 10 -15 10 -8 0
-15 -4 -15 -10z"/>
<path d="M2064 2095 c4 -11 -3 -15 -27 -16 -48 -1 -86 -15 -67 -23 19 -8 23
-45 9 -63 -12 -14 -2 -36 12 -28 5 4 9 1 9 -6 0 -8 4 -8 15 1 13 11 14 10 9
-4 -3 -9 -1 -16 5 -16 6 0 11 -6 11 -14 0 -27 17 -25 39 5 20 27 20 31 6 45
-8 8 -15 24 -15 34 0 10 -4 21 -10 25 -5 3 -1 14 10 25 24 24 26 50 4 50 -10
0 -14 -6 -10 -15z"/>
<path d="M1960 2010 c0 -5 5 -10 10 -10 6 0 10 5 10 10 0 6 -4 10 -10 10 -5 0
-10 -4 -10 -10z"/>
<path d="M1951 1928 c11 -20 25 -23 34 -8 3 6 1 10 -5 10 -6 0 -9 4 -6 8 2 4
-4 8 -14 8 -15 0 -16 -4 -9 -18z"/>
<path d="M1916 1914 c-8 -21 -4 -25 14 -14 11 7 12 12 4 20 -8 8 -13 7 -18 -6z"/>
<path d="M1960 1880 c0 -5 5 -10 10 -10 6 0 10 5 10 10 0 6 -4 10 -10 10 -5 0
-10 -4 -10 -10z"/>
<path d="M2142 1741 c-8 -24 -8 -29 3 -25 18 7 28 35 17 46 -6 6 -14 -3 -20
-21z"/>
<path d="M2247 1729 c6 -22 23 -26 23 -5 0 8 -6 16 -14 19 -10 4 -12 0 -9 -14z"/>
<path d="M2266 1642 c-3 -6 -1 -14 5 -17 14 -9 20 -2 10 14 -6 8 -11 9 -15 3z"/>
<path d="M2455 1630 c-3 -5 -1 -10 4 -10 6 0 11 5 11 10 0 6 -2 10 -4 10 -3 0
-8 -4 -11 -10z"/>
<path d="M2220 1621 c0 -8 -6 -11 -15 -7 -8 3 -15 1 -15 -5 0 -15 30 -23 43
-10 8 8 8 14 -1 23 -9 9 -12 9 -12 -1z"/>
<path d="M2350 1597 c0 -15 4 -27 10 -27 5 0 9 9 7 20 -5 31 -17 36 -17 7z"/>
<path d="M2320 1599 c0 -5 5 -7 10 -4 6 3 10 8 10 11 0 2 -4 4 -10 4 -5 0 -10
-5 -10 -11z"/>
<path d="M2223 1559 c-1 -31 32 -57 41 -33 7 19 -1 34 -19 34 -7 0 -15 6 -18
13 -2 6 -4 0 -4 -14z"/>
<path d="M2330 1492 c0 -6 4 -12 9 -12 5 0 11 -12 13 -27 4 -24 5 -25 12 -10
6 13 3 25 -13 40 -11 12 -21 16 -21 9z"/>
<path d="M1985 4340 c-3 -5 -1 -10 4 -10 6 0 11 5 11 10 0 6 -2 10 -4 10 -3 0
-8 -4 -11 -10z"/>
<path d="M1555 3590 c3 -5 8 -10 11 -10 2 0 4 5 4 10 0 6 -5 10 -11 10 -5 0
-7 -4 -4 -10z"/>
<path d="M1414 3443 c-2 -19 1 -22 12 -12 17 14 18 25 2 32 -8 3 -14 -5 -14
-20z"/>
<path d="M2931 3298 c-1 -16 4 -28 9 -28 12 0 12 8 0 35 -8 18 -9 17 -9 -7z"/>
<path d="M1290 3060 c0 -5 5 -10 10 -10 6 0 10 5 10 10 0 6 -4 10 -10 10 -5 0
-10 -4 -10 -10z"/>
<path d="M1170 2950 c0 -5 6 -10 14 -10 8 0 18 5 21 10 3 6 -3 10 -14 10 -12
0 -21 -4 -21 -10z"/>
<path d="M1322 2924 c2 -11 11 -20 22 -22 13 -3 17 1 14 14 -2 11 -11 20 -22
22 -13 3 -17 -1 -14 -14z"/>
<path d="M1138 2893 c7 -3 16 -2 19 1 4 3 -2 6 -13 5 -11 0 -14 -3 -6 -6z"/>
<path d="M1151 2850 c-12 -35 0 -39 29 -8 25 27 25 38 1 38 -12 0 -23 -11 -30
-30z"/>
<path d="M1150 2769 c0 -5 5 -7 10 -4 6 3 10 8 10 11 0 2 -4 4 -10 4 -5 0 -10
-5 -10 -11z"/>
<path d="M3194 3062 c-18 -12 -25 -42 -10 -42 8 0 16 10 19 22 7 26 5 30 -9
20z"/>
<path d="M3136 2934 c-10 -25 -7 -52 6 -60 8 -5 9 0 6 14 -4 12 -2 25 3 28 12
7 12 34 0 34 -5 0 -12 -7 -15 -16z"/>
<path d="M3267 2904 c-8 -8 1 -24 14 -24 5 0 9 7 9 15 0 15 -12 20 -23 9z"/>
<path d="M3228 2843 c-12 -3 -18 -14 -18 -33 0 -22 6 -29 26 -34 30 -8 46 0
21 10 -13 5 -14 10 -6 26 12 23 2 36 -23 31z"/>
<path d="M3290 2714 c0 -8 5 -12 10 -9 6 3 10 10 10 16 0 5 -4 9 -10 9 -5 0
-10 -7 -10 -16z"/>
<path d="M1815 2340 c-3 -5 1 -10 9 -10 8 0 18 5 21 10 3 6 -1 10 -9 10 -8 0
-18 -4 -21 -10z"/>
<path d="M3025 2380 c-4 -7 -1 -16 6 -21 17 -10 26 8 11 23 -6 6 -12 6 -17 -2z"/>
<path d="M3060 2330 c0 -5 7 -10 15 -10 8 0 15 5 15 10 0 6 -7 10 -15 10 -8 0
-15 -4 -15 -10z"/>
<path d="M1665 2237 c-4 -10 -5 -21 -1 -24 10 -10 18 4 13 24 -4 17 -4 17 -12
0z"/>
<path d="M1640 2190 c0 -5 5 -10 11 -10 5 0 7 5 4 10 -3 6 -8 10 -11 10 -2 0
-4 -4 -4 -10z"/>
<path d="M1767 2153 c-4 -3 -7 -13 -7 -22 1 -13 3 -13 11 2 11 19 8 33 -4 20z"/>
<path d="M3675 4852 c-7 -7 14 -42 25 -42 6 0 10 11 10 23 0 21 -21 33 -35 19z"/>
<path d="M2735 4730 c-3 -5 -1 -10 6 -10 8 0 8 -4 -1 -15 -7 -8 -9 -16 -4 -17
5 0 14 -2 19 -3 6 -2 15 -3 20 -4 6 -1 -5 -7 -24 -14 -19 -7 -36 -17 -38 -24
-6 -17 55 -13 61 4 3 7 12 13 21 13 22 0 19 13 -10 38 -14 12 -25 26 -25 32 0
13 -17 13 -25 0z"/>
<path d="M2950 4685 c-7 -9 -10 -19 -6 -22 8 -9 38 9 44 25 5 17 -23 15 -38
-3z"/>
<path d="M2690 4675 c-8 -9 -8 -15 -2 -15 12 0 26 19 19 26 -2 2 -10 -2 -17
-11z"/>
<path d="M3766 4652 c-2 -4 -1 -14 5 -22 7 -12 9 -10 9 8 0 23 -5 28 -14 14z"/>
<path d="M3580 4630 c0 -5 5 -10 10 -10 6 0 10 5 10 10 0 6 -4 10 -10 10 -5 0
-10 -4 -10 -10z"/>
<path d="M2585 4565 c0 -50 1 -51 33 -29 35 24 28 61 -10 55 -5 0 -8 4 -8 9 0
6 -3 10 -8 10 -4 0 -7 -20 -7 -45z"/>
<path d="M3510 4589 c0 -5 5 -7 10 -4 6 3 10 8 10 11 0 2 -4 4 -10 4 -5 0 -10
-5 -10 -11z"/>
<path d="M3000 4494 c0 -8 5 -12 10 -9 6 3 10 10 10 16 0 5 -4 9 -10 9 -5 0
-10 -7 -10 -16z"/>
<path d="M3495 4380 c-3 -5 -2 -10 4 -10 5 0 13 5 16 10 3 6 2 10 -4 10 -5 0
-13 -4 -16 -10z"/>
<path d="M3440 4360 c0 -5 5 -10 10 -10 6 0 10 5 10 10 0 6 -4 10 -10 10 -5 0
-10 -4 -10 -10z"/>
<path d="M3350 4330 c0 -5 4 -10 9 -10 6 0 13 5 16 10 3 6 -1 10 -9 10 -9 0
-16 -4 -16 -10z"/>
<path d="M3330 4310 c0 -5 5 -10 11 -10 5 0 7 5 4 10 -3 6 -8 10 -11 10 -2 0
-4 -4 -4 -10z"/>
<path d="M3496 4311 c-3 -5 -3 -17 1 -27 4 -11 3 -15 -4 -11 -11 7 -26 -7 -35
-33 -4 -11 3 -16 23 -17 30 -2 37 9 37 64 1 24 -13 39 -22 24z"/>
<path d="M3200 4284 c0 -8 5 -12 10 -9 6 3 10 10 10 16 0 5 -4 9 -10 9 -5 0
-10 -7 -10 -16z"/>
<path d="M3368 4213 c7 -3 16 -2 19 1 4 3 -2 6 -13 5 -11 0 -14 -3 -6 -6z"/>
<path d="M3447 4193 c-4 -3 -7 -11 -7 -17 0 -6 5 -5 12 2 6 6 9 14 7 17 -3 3
-9 2 -12 -2z"/>
<path d="M3150 4181 c0 -5 5 -13 10 -16 6 -3 10 -2 10 4 0 5 -4 13 -10 16 -5
3 -10 2 -10 -4z"/>
<path d="M3193 4178 c3 -9 0 -21 -6 -27 -9 -9 -8 -11 6 -6 19 8 23 30 5 41 -7
5 -9 2 -5 -8z"/>
<path d="M3305 4179 c-12 -19 5 -23 22 -6 16 16 16 17 1 17 -9 0 -20 -5 -23
-11z"/>
<path d="M3260 4155 c6 -8 9 -19 5 -25 -3 -5 -2 -10 4 -10 15 0 19 24 5 37
-17 18 -29 16 -14 -2z"/>
<path d="M3535 4151 c-8 -15 3 -31 21 -31 9 0 14 7 12 17 -4 20 -24 28 -33 14z"/>
<path d="M3507 4129 c6 -6 9 -18 6 -25 -3 -8 0 -14 6 -14 6 0 11 4 11 9 0 19
-12 41 -23 41 -8 0 -8 -3 0 -11z"/>
<path d="M3228 4095 c-3 -14 -2 -25 2 -25 4 0 10 11 12 25 3 14 2 25 -2 25 -4
0 -10 -11 -12 -25z"/>
<path d="M3342 4111 c2 -7 -3 -16 -9 -18 -7 -3 -13 0 -13 6 0 17 -27 13 -34
-4 -3 -8 -3 -22 0 -30 5 -12 0 -15 -22 -14 -16 2 -39 -1 -51 -5 -14 -5 -23 -3
-23 3 0 24 -16 9 -34 -32 -11 -23 -27 -59 -38 -80 -10 -21 -18 -42 -18 -47 0
-18 29 -10 35 10 3 11 11 20 16 20 20 0 49 -21 43 -31 -3 -6 1 -18 10 -28 9
-10 14 -25 10 -34 -8 -22 6 -44 17 -26 6 10 13 10 34 1 24 -11 32 -36 11 -32
-12 2 -26 -21 -26 -42 0 -10 7 -18 15 -18 8 0 15 7 15 15 0 21 38 61 47 50 5
-4 2 -10 -4 -12 -7 -3 -13 -9 -13 -14 0 -6 6 -9 13 -8 26 3 37 -2 37 -18 0 -9
3 -13 7 -10 3 4 6 20 5 36 0 17 7 36 19 47 18 17 18 18 -11 46 -33 31 -36 41
-17 60 21 21 28 50 16 64 -9 11 -7 14 10 14 11 0 21 -6 21 -12 0 -9 2 -10 8
-2 4 6 17 14 30 18 12 4 22 12 22 18 0 5 -7 8 -15 4 -14 -5 -16 -1 -19 37 -1
6 -5 15 -9 18 -5 4 -3 16 4 27 18 29 6 37 -35 25 -25 -8 -38 -7 -46 1 -9 8
-11 8 -8 -3z"/>
<path d="M3511 4054 c0 -11 3 -14 6 -6 3 7 2 16 -1 19 -3 4 -6 -2 -5 -13z"/>
<path d="M3720 4030 c0 -5 5 -10 10 -10 6 0 10 5 10 10 0 6 -4 10 -10 10 -5 0
-10 -4 -10 -10z"/>
<path d="M3626 3995 c-3 -8 -1 -15 4 -15 6 0 10 7 10 15 0 8 -2 15 -4 15 -2 0
-6 -7 -10 -15z"/>
<path d="M3532 3938 c-7 -7 -12 -16 -12 -20 0 -12 28 -10 36 3 10 17 -10 31
-24 17z"/>
<path d="M2970 3921 c0 -5 5 -13 10 -16 6 -3 10 -2 10 4 0 5 -4 13 -10 16 -5
3 -10 2 -10 -4z"/>
<path d="M2910 3860 c0 -5 4 -10 9 -10 6 0 13 5 16 10 3 6 -1 10 -9 10 -9 0
-16 -4 -16 -10z"/>
<path d="M3533 3830 c-3 -11 -11 -20 -18 -20 -8 0 -21 -14 -29 -32 -20 -38
-20 -38 -1 -38 15 0 19 -10 16 -42 -2 -20 15 -32 32 -21 6 4 21 6 31 4 14 -2
17 2 12 14 -3 9 -6 19 -6 21 0 2 -9 4 -21 4 -15 0 -19 4 -15 16 3 8 1 24 -4
34 -8 15 -6 21 12 31 41 21 50 49 17 49 -12 0 -23 -8 -26 -20z"/>
<path d="M3580 3780 c0 -5 7 -10 16 -10 8 0 12 5 9 10 -3 6 -10 10 -16 10 -5
0 -9 -4 -9 -10z"/>
<path d="M3065 3750 c3 -5 8 -10 11 -10 2 0 4 5 4 10 0 6 -5 10 -11 10 -5 0
-7 -4 -4 -10z"/>
<path d="M3826 3726 c-10 -19 -24 -37 -31 -40 -8 -3 -11 -13 -8 -25 3 -12 1
-21 -5 -21 -5 0 -12 -9 -15 -20 -3 -11 -12 -20 -21 -20 -9 0 -16 -4 -16 -10 0
-5 5 -10 11 -10 8 0 10 -12 6 -35 -6 -36 1 -43 20 -24 8 8 16 4 29 -15 10 -16
23 -25 31 -22 18 7 64 -44 57 -65 -2 -9 2 -22 11 -29 13 -11 15 -9 15 14 0 16
6 26 14 26 22 0 28 -31 10 -51 -10 -11 -14 -19 -11 -19 4 0 2 -11 -3 -25 -8
-20 -6 -27 5 -31 8 -3 21 -19 29 -35 13 -27 13 -29 -5 -29 -23 0 -26 -32 -4
-50 8 -7 12 -17 8 -22 -3 -6 0 -9 8 -6 20 7 24 38 5 38 -9 0 -16 4 -16 9 0 16
51 42 70 36 15 -5 17 -2 12 17 -5 23 -38 58 -54 58 -4 0 -8 7 -8 15 0 8 -4 15
-9 15 -5 0 -7 9 -4 20 4 16 7 17 19 5 8 -7 14 -18 14 -23 0 -15 20 -20 65 -17
53 4 75 -3 75 -23 0 -22 34 -52 60 -52 19 0 21 -5 35 -72 2 -10 -1 -21 -7 -24
-5 -3 -7 -12 -4 -19 8 -22 -43 -14 -63 10 -11 15 -22 20 -31 15 -10 -6 -7 -14
13 -33 15 -13 27 -32 27 -41 0 -20 26 -21 34 -1 3 8 16 15 30 15 19 0 25 6 28
28 l4 27 14 -30 c17 -35 23 -41 71 -77 26 -19 39 -24 52 -16 24 13 59 0 55
-20 -2 -10 -21 -26 -43 -37 l-40 -20 35 -5 c31 -5 36 -2 44 20 12 33 33 57 68
74 26 14 41 5 17 -9 -18 -12 42 -36 73 -30 15 4 28 2 28 -3 0 -19 75 -2 97 23
18 20 26 23 46 16 31 -12 41 -49 21 -79 -10 -16 -21 -21 -34 -17 -18 6 -18 4
2 -37 19 -39 21 -41 29 -21 4 12 29 31 58 44 49 23 61 39 61 86 0 26 -58 94
-103 121 -35 21 -137 37 -137 22 0 -6 4 -10 9 -10 5 0 11 -9 14 -20 3 -12 14
-20 26 -20 12 0 21 -4 21 -9 0 -5 -11 -8 -23 -8 -27 0 -61 51 -55 83 4 27 -53
32 -77 7 -17 -17 -19 -16 -33 5 -16 25 -50 29 -58 8 -10 -27 -34 -26 -87 4
-96 54 -288 150 -300 150 -28 -1 -106 46 -109 65 -2 13 -12 21 -31 23 -22 3
-29 10 -34 33 -3 16 -10 32 -14 35 -18 11 -9 53 14 65 33 18 38 31 19 53 -16
18 -16 19 1 13 27 -10 21 21 -10 48 -16 13 -40 29 -55 36 -16 6 -28 15 -28 20
0 20 -16 7 -34 -25z m794 -606 c13 -8 13 -10 -2 -10 -9 0 -20 5 -23 10 -8 13
5 13 25 0z"/>
<path d="M3092 3725 c-2 -30 12 -40 28 -20 10 12 10 18 0 30 -18 21 -25 19
-28 -10z"/>
<path d="M3560 3740 c0 -5 7 -10 16 -10 8 0 12 5 9 10 -3 6 -10 10 -16 10 -5
0 -9 -4 -9 -10z"/>
<path d="M3120 3686 c0 -9 5 -16 10 -16 6 0 10 4 10 9 0 6 -4 13 -10 16 -5 3
-10 -1 -10 -9z"/>
<path d="M3606 3685 c-16 -12 -18 -17 -7 -28 11 -9 14 -9 18 0 2 7 4 15 3 19
-1 4 4 11 12 15 7 5 9 9 3 9 -5 -1 -19 -7 -29 -15z"/>
<path d="M3175 3680 c3 -5 8 -10 11 -10 2 0 4 5 4 10 0 6 -5 10 -11 10 -5 0
-7 -4 -4 -10z"/>
<path d="M3439 3671 c12 -8 12 -12 2 -25 -11 -13 -10 -18 3 -31 20 -21 50 -16
54 9 3 11 0 16 -7 12 -7 -4 -11 1 -11 12 0 19 -18 32 -43 32 -7 0 -6 -4 2 -9z"/>
<path d="M3385 3620 c-3 -5 1 -10 9 -10 9 0 16 5 16 10 0 6 -4 10 -9 10 -6 0
-13 -4 -16 -10z"/>
<path d="M3606 3595 c-17 -26 -14 -65 5 -65 8 0 11 22 8 47 0 3 6 10 15 15 20
11 21 28 2 28 -7 0 -21 -11 -30 -25z"/>
<path d="M3560 3595 c7 -9 15 -13 17 -11 7 7 -7 26 -19 26 -6 0 -6 -6 2 -15z"/>
<path d="M3322 3588 c-19 -19 -14 -28 12 -28 19 0 24 5 23 20 -1 22 -17 26
-35 8z"/>
<path d="M3372 3559 c-16 -25 -15 -26 18 -31 16 -2 25 2 24 10 -3 37 -5 42
-17 42 -7 0 -18 -9 -25 -21z"/>
<path d="M3490 3535 c0 -9 6 -12 15 -9 8 4 15 10 15 15 0 5 -7 9 -15 9 -8 0
-15 -7 -15 -15z"/>
<path d="M3448 3532 c-10 -2 -18 -12 -18 -23 0 -10 -5 -19 -12 -19 -9 0 -9 -3
0 -12 7 -7 15 -8 24 -1 7 5 21 13 32 17 14 5 17 2 12 -9 -3 -10 1 -15 13 -15
11 0 21 -5 23 -12 3 -8 9 -8 24 1 13 8 14 11 3 8 -13 -4 -15 -1 -11 15 4 17 2
20 -13 15 -12 -5 -24 0 -39 16 -11 12 -29 21 -38 19z"/>
<path d="M3545 3530 c4 -6 11 -8 16 -5 14 9 11 15 -7 15 -8 0 -12 -5 -9 -10z"/>
<path d="M3383 3461 c0 -11 5 -17 9 -15 11 7 10 34 -1 34 -6 0 -9 -9 -8 -19z"/>
<path d="M3410 3452 c0 -11 37 -32 44 -25 3 3 -2 12 -12 19 -19 15 -32 18 -32
6z"/>
<path d="M3200 3436 c0 -9 7 -16 16 -16 9 0 14 5 12 12 -6 18 -28 21 -28 4z"/>
<path d="M3346 3421 c-4 -7 -5 -15 -2 -18 9 -9 19 4 14 18 -4 11 -6 11 -12 0z"/>
<path d="M3570 3420 c0 -5 4 -10 9 -10 6 0 13 5 16 10 3 6 -1 10 -9 10 -9 0
-16 -4 -16 -10z"/>
<path d="M3680 3395 c0 -18 7 -26 25 -31 14 -4 28 -5 30 -2 8 7 -7 48 -15 43
-5 -3 -11 -1 -15 5 -11 18 -25 10 -25 -15z"/>
<path d="M3815 3391 c-16 -9 -32 -17 -34 -19 -3 -1 2 -8 11 -15 24 -19 29 -45
12 -62 -13 -12 -14 -23 -6 -53 9 -33 10 -34 11 -9 1 15 6 27 11 27 6 0 10 7
10 15 0 10 6 12 18 8 14 -5 15 -4 6 8 -18 23 -26 97 -11 102 6 2 10 6 7 9 -3
3 -18 -2 -35 -11z"/>
<path d="M3191 3384 c0 -11 3 -14 6 -6 3 7 2 16 -1 19 -3 4 -6 -2 -5 -13z"/>
<path d="M3470 3393 c0 -5 5 -15 10 -23 8 -12 10 -11 10 8 0 12 -4 22 -10 22
-5 0 -10 -3 -10 -7z"/>
<path d="M3540 3390 c0 -5 5 -10 11 -10 5 0 7 5 4 10 -3 6 -8 10 -11 10 -2 0
-4 -4 -4 -10z"/>
<path d="M3651 3364 c0 -11 3 -14 6 -6 3 7 2 16 -1 19 -3 4 -6 -2 -5 -13z"/>
<path d="M3283 3355 c-9 -24 1 -27 15 -5 8 13 8 20 2 20 -6 0 -13 -7 -17 -15z"/>
<path d="M3520 3343 c-20 -21 -21 -25 -6 -20 10 4 25 2 33 -4 18 -16 29 -3 14
15 -7 8 -10 20 -6 26 12 20 -10 9 -35 -17z"/>
<path d="M3416 3351 c-3 -5 3 -11 13 -14 14 -3 18 -1 14 9 -6 16 -19 18 -27 5z"/>
<path d="M3625 3340 c3 -5 8 -10 11 -10 2 0 4 5 4 10 0 6 -5 10 -11 10 -5 0
-7 -4 -4 -10z"/>
<path d="M4100 3260 c0 -5 5 -10 11 -10 5 0 7 5 4 10 -3 6 -8 10 -11 10 -2 0
-4 -4 -4 -10z"/>
<path d="M3725 3250 c3 -5 8 -10 11 -10 2 0 4 5 4 10 0 6 -5 10 -11 10 -5 0
-7 -4 -4 -10z"/>
<path d="M3860 3250 c0 -5 5 -10 10 -10 6 0 10 5 10 10 0 6 -4 10 -10 10 -5 0
-10 -4 -10 -10z"/>
<path d="M4050 3231 c0 -6 10 -17 22 -25 25 -18 44 -7 35 18 -7 17 -57 23 -57
7z"/>
<path d="M3995 3210 c-3 -5 1 -10 9 -10 9 0 16 5 16 10 0 6 -4 10 -9 10 -6 0
-13 -4 -16 -10z"/>
<path d="M3844 3180 c4 -34 24 -80 35 -80 5 0 8 -7 7 -16 0 -9 5 -19 13 -22 8
-3 12 1 9 9 -3 8 -1 24 3 36 5 13 4 25 -1 28 -5 3 -7 12 -4 19 3 8 0 17 -5 21
-6 3 -9 11 -5 16 3 6 -4 5 -15 -3 -18 -11 -23 -11 -31 2 -7 11 -8 9 -6 -10z"/>
<path d="M4075 3076 c-16 -13 -40 -26 -52 -30 -19 -6 -23 -4 -23 13 0 23 -7
26 -29 12 -11 -7 -10 -14 5 -37 11 -15 13 -25 7 -21 -8 5 -13 3 -13 -6 0 -14
19 -27 47 -33 6 -1 19 7 29 17 9 10 24 19 32 19 10 0 12 7 8 24 -5 21 -1 26
31 37 33 10 35 13 18 20 -28 11 -27 11 -60 -15z"/>
<path d="M3836 3058 c-14 -46 -13 -62 4 -81 l19 -20 11 27 c15 40 12 73 -6 80
-22 8 -24 8 -28 -6z"/>
<path d="M3891 3030 c1 -8 4 -26 8 -40 l7 -25 8 24 c6 16 3 28 -8 39 -13 14
-16 14 -15 2z"/>
<path d="M4251 3024 c0 -11 3 -14 6 -6 3 7 2 16 -1 19 -3 4 -6 -2 -5 -13z"/>
<path d="M4500 2990 c0 -14 49 -44 58 -36 4 4 -4 16 -18 26 -28 22 -40 25 -40
10z"/>
<path d="M3770 2972 c0 -10 -5 -23 -12 -30 -15 -15 -6 -24 16 -16 17 7 23 64
6 64 -5 0 -10 -8 -10 -18z"/>
<path d="M3821 2944 c0 -11 3 -14 6 -6 3 7 2 16 -1 19 -3 4 -6 -2 -5 -13z"/>
<path d="M4520 2931 c0 -25 6 -27 13 -6 4 8 2 17 -3 20 -6 4 -10 -3 -10 -14z"/>
<path d="M4600 2935 c0 -12 33 -55 41 -55 13 0 11 34 -3 48 -12 12 -38 17 -38
7z"/>
<path d="M4663 2924 c-7 -19 0 -26 21 -18 20 8 21 20 1 28 -9 3 -18 -1 -22
-10z"/>
<path d="M4440 2899 c0 -11 -4 -18 -9 -15 -13 8 -108 -22 -114 -37 -3 -6 -19
-20 -36 -30 l-30 -18 -7 26 c-8 33 -39 33 -40 0 -1 -14 2 -23 6 -20 5 3 12 1
15 -5 10 -16 -57 -71 -78 -64 -12 4 -26 -3 -41 -19 -12 -13 -28 -26 -34 -28
-11 -4 -18 -52 -11 -78 2 -7 -1 -15 -7 -18 -14 -5 -38 52 -30 72 4 10 -1 15
-15 15 -18 0 -20 -5 -18 -43 2 -24 -1 -49 -5 -56 -4 -7 -5 -15 -1 -19 4 -4 10
-1 12 6 6 16 33 16 33 -1 0 -15 82 -102 111 -117 25 -14 24 -27 -1 -35 -12 -4
-20 -15 -20 -28 -1 -20 -2 -20 -11 -4 -14 24 -69 23 -69 -1 0 -11 8 -26 18
-34 33 -29 107 -65 125 -61 19 5 23 18 7 28 -6 4 -5 14 3 28 35 64 63 73 99
32 12 -14 28 -25 35 -25 16 0 17 -34 2 -61 -7 -14 -7 -30 1 -54 10 -31 13 -33
27 -20 8 8 23 20 33 25 10 5 33 32 51 60 18 27 37 51 43 52 6 0 16 2 21 2 24
3 36 19 31 41 -7 26 11 85 26 85 6 0 8 9 5 20 -4 15 0 20 14 20 10 0 19 7 19
15 0 9 -6 12 -15 9 -21 -9 -19 22 3 36 13 8 14 13 4 17 -10 4 -9 8 5 18 15 11
16 15 3 31 -9 11 -10 15 -2 10 7 -4 12 -2 12 4 0 6 5 8 12 4 7 -5 8 -3 4 5 -5
7 -14 10 -20 8 -9 -4 -12 6 -11 30 0 19 -3 37 -7 39 -4 3 -8 23 -8 44 0 30 3
38 14 34 8 -3 19 3 26 15 9 17 8 21 -5 21 -8 0 -15 -5 -15 -11 0 -7 -7 -8 -17
-4 -10 4 -24 8 -30 8 -7 0 -13 11 -13 24 0 23 -15 32 -22 13 -2 -6 -13 -2 -25
10 -29 26 -53 26 -53 -1z"/>
<path d="M3998 2856 c-19 -14 -23 -26 -10 -26 4 0 13 9 20 20 14 23 13 24 -10
6z"/>
<path d="M3840 2820 c0 -5 5 -10 10 -10 6 0 10 5 10 10 0 6 -4 10 -10 10 -5 0
-10 -4 -10 -10z"/>
<path d="M3931 2786 c-37 -13 -53 -36 -26 -36 23 0 52 17 59 35 3 8 4 15 3 14
-1 0 -17 -6 -36 -13z"/>
<path d="M4640 2756 c0 -9 5 -16 10 -16 6 0 10 4 10 9 0 6 -4 13 -10 16 -5 3
-10 -1 -10 -9z"/>
<path d="M3833 2745 c2 -5 8 -10 13 -10 5 0 14 -3 19 -7 6 -4 17 -3 23 1 10 6
10 10 0 19 -17 14 -60 12 -55 -3z"/>
<path d="M3920 2609 c0 -5 5 -7 10 -4 6 3 10 8 10 11 0 2 -4 4 -10 4 -5 0 -10
-5 -10 -11z"/>
<path d="M3766 2585 c-3 -8 -12 -15 -21 -15 -8 0 -15 -4 -15 -10 0 -13 3 -13
35 2 14 6 25 17 25 25 0 18 -16 17 -24 -2z"/>
<path d="M3695 2541 c4 -13 0 -20 -15 -24 -30 -8 -41 -47 -21 -73 20 -27 24
-24 28 24 1 20 9 42 18 48 9 7 13 18 9 28 -9 22 -27 20 -19 -3z"/>
<path d="M3574 2429 c-3 -6 -1 -16 5 -22 8 -8 11 -7 11 4 0 12 2 12 9 0 13
-21 2 -41 -22 -41 -14 0 -18 -3 -11 -10 13 -13 64 9 64 28 0 6 -4 12 -9 12 -5
0 -13 9 -16 20 -7 22 -20 26 -31 9z"/>
<path d="M3626 2421 c-3 -5 0 -11 8 -14 15 -6 26 1 26 15 0 11 -27 10 -34 -1z"/>
<path d="M4580 2411 c0 -5 -3 -16 -6 -25 -4 -12 0 -16 15 -16 22 0 25 8 15 34
-7 17 -24 22 -24 7z"/>
<path d="M4220 2340 c0 -6 7 -10 15 -10 8 0 15 2 15 4 0 2 -7 6 -15 10 -8 3
-15 1 -15 -4z"/>
<path d="M4510 2312 c0 -4 9 -13 20 -20 22 -13 27 -3 8 16 -14 14 -28 16 -28
4z"/>
<path d="M3920 2285 c-7 -9 -10 -18 -7 -21 3 -3 10 4 17 15 13 25 8 27 -10 6z"/>
<path d="M4591 2246 c-9 -11 -7 -15 9 -19 13 -3 20 0 20 8 0 21 -16 27 -29 11z"/>
<path d="M4387 2223 c-11 -20 -17 -83 -7 -83 5 0 10 9 10 20 0 11 5 20 10 20
13 0 13 37 1 45 -5 3 -12 2 -14 -2z"/>
<path d="M4134 2176 c-10 -20 -24 -36 -31 -36 -7 0 -13 -4 -13 -10 0 -5 -5
-10 -12 -10 -6 0 -19 -7 -29 -16 -10 -9 -33 -19 -51 -23 -30 -7 -34 -5 -44 23
-14 39 -56 52 -102 30 -18 -8 -30 -20 -26 -25 3 -6 -2 -19 -11 -29 -15 -16
-16 -22 -5 -35 7 -9 19 -14 25 -11 16 6 68 -51 60 -64 -4 -6 -15 -8 -26 -5
-10 4 -19 2 -19 -3 0 -20 -32 -21 -52 -3 -11 11 -26 17 -34 14 -18 -7 -18 -8
9 -36 24 -26 40 -25 75 6 20 18 22 19 22 3 0 -10 -14 -23 -33 -31 -25 -10 -33
-19 -32 -39 0 -14 5 -25 10 -24 6 2 9 6 7 11 -1 4 5 7 13 7 8 0 12 6 9 14 -3
8 3 19 15 25 27 15 34 14 27 -4 -4 -12 1 -15 22 -13 25 3 27 0 27 -35 0 -21 5
-37 12 -37 6 0 16 -22 23 -50 7 -31 17 -50 26 -50 11 0 13 -7 8 -27 -7 -28 -7
-28 13 -8 13 13 16 22 9 27 -5 4 -11 23 -13 43 -2 29 1 36 13 31 9 -3 20 -6
25 -6 4 0 6 -6 3 -13 -3 -10 6 -13 38 -11 48 2 63 25 29 43 -17 9 -22 8 -31
-9 -6 -11 -15 -18 -20 -15 -15 9 -24 95 -11 108 8 8 11 6 11 -7 0 -10 6 -16
13 -13 6 2 11 17 10 33 -4 46 7 94 20 91 11 -2 15 15 19 86 2 32 5 37 22 35
23 -3 27 2 25 35 -1 16 -2 18 -6 5 -5 -19 -23 -25 -23 -8 0 6 6 19 12 30 10
15 10 22 1 31 -9 9 -16 3 -29 -25z"/>
<path d="M3730 2140 c0 -5 5 -10 10 -10 6 0 10 5 10 10 0 6 -4 10 -10 10 -5 0
-10 -4 -10 -10z"/>
<path d="M3530 2129 c0 -5 9 -9 20 -9 11 0 20 2 20 4 0 2 -9 6 -20 9 -11 3
-20 1 -20 -4z"/>
<path d="M4430 2109 c0 -5 5 -7 10 -4 6 3 10 8 10 11 0 2 -4 4 -10 4 -5 0 -10
-5 -10 -11z"/>
<path d="M3493 2095 c-7 -8 -13 -33 -13 -56 0 -32 -3 -40 -15 -35 -8 3 -15 2
-15 -3 0 -13 45 -61 57 -61 6 0 14 -6 17 -12 3 -7 3 -2 -1 12 -3 14 -14 31
-24 38 -14 10 -16 18 -9 43 5 16 7 36 4 43 -3 8 2 16 10 19 9 4 16 11 16 17 0
14 -13 12 -27 -5z"/>
<path d="M4377 2104 c-8 -8 3 -34 14 -34 5 0 9 9 9 20 0 19 -11 26 -23 14z"/>
<path d="M3710 2090 c-8 -5 -12 -12 -9 -15 4 -3 12 1 19 10 14 17 11 19 -10 5z"/>
<path d="M4220 2089 c0 -5 5 -7 10 -4 6 3 10 8 10 11 0 2 -4 4 -10 4 -5 0 -10
-5 -10 -11z"/>
<path d="M3560 2049 c0 -5 -4 -7 -10 -4 -5 3 -10 0 -10 -9 0 -8 -3 -23 -6 -33
-4 -11 -3 -14 3 -6 5 6 21 17 37 23 23 9 26 13 16 25 -14 17 -30 20 -30 4z"/>
<path d="M3710 2024 c0 -8 5 -12 10 -9 6 3 10 10 10 16 0 5 -4 9 -10 9 -5 0
-10 -7 -10 -16z"/>
<path d="M3820 1985 c0 -9 5 -15 11 -13 6 2 11 8 11 13 0 5 -5 11 -11 13 -6 2
-11 -4 -11 -13z"/>
<path d="M3630 1940 c0 -5 4 -10 9 -10 6 0 13 5 16 10 3 6 -1 10 -9 10 -9 0
-16 -4 -16 -10z"/>
<path d="M4120 1940 c0 -5 5 -10 10 -10 6 0 10 5 10 10 0 6 -4 10 -10 10 -5 0
-10 -4 -10 -10z"/>
<path d="M3580 1920 c0 -5 5 -10 10 -10 6 0 10 5 10 10 0 6 -4 10 -10 10 -5 0
-10 -4 -10 -10z"/>
<path d="M4615 1907 c-4 -10 -5 -21 -1 -24 10 -10 18 4 13 24 -4 17 -4 17 -12
0z"/>
<path d="M3600 1880 c0 -5 5 -10 11 -10 5 0 7 5 4 10 -3 6 -8 10 -11 10 -2 0
-4 -4 -4 -10z"/>
<path d="M3755 1859 c-4 -6 -5 -13 -2 -16 7 -7 27 6 27 18 0 12 -17 12 -25 -2z"/>
<path d="M3885 1860 c-3 -5 -1 -10 4 -10 6 0 11 5 11 10 0 6 -2 10 -4 10 -3 0
-8 -4 -11 -10z"/>
<path d="M3716 1801 c-10 -16 3 -51 19 -51 23 0 25 14 6 39 -12 16 -20 20 -25
12z"/>
<path d="M3822 1768 c-13 -21 -29 -38 -36 -38 -27 0 -40 -28 -27 -58 11 -24
14 -25 22 -9 6 9 19 17 30 17 12 0 37 16 56 35 19 19 39 35 44 35 29 0 -10 51
-42 54 -20 2 -30 -5 -47 -36z"/>
<path d="M4437 1804 c-11 -12 -8 -39 7 -59 13 -18 14 -18 26 4 10 20 9 26 -7
42 -11 11 -22 16 -26 13z"/>
<path d="M3380 1731 c0 -5 -3 -16 -6 -25 -3 -9 -2 -16 4 -16 5 0 12 11 14 25
3 14 1 25 -3 25 -5 0 -9 -4 -9 -9z"/>
<path d="M4130 1690 c0 -5 7 -10 16 -10 8 0 12 5 9 10 -3 6 -10 10 -16 10 -5
0 -9 -4 -9 -10z"/>
<path d="M3950 1686 c0 -2 9 -6 20 -9 11 -3 20 -1 20 4 0 5 -9 9 -20 9 -11 0
-20 -2 -20 -4z"/>
<path d="M3332 1668 c3 -7 15 -15 28 -16 21 -3 22 -2 11 12 -16 19 -44 21 -39
4z"/>
<path d="M3689 1668 c-6 -25 -6 -39 1 -43 4 -3 10 4 13 15 3 11 1 23 -4 26 -5
3 -9 4 -10 2z"/>
<path d="M4280 1659 c0 -5 5 -7 10 -4 6 3 10 8 10 11 0 2 -4 4 -10 4 -5 0 -10
-5 -10 -11z"/>
<path d="M3970 1643 c0 -4 7 -17 15 -27 17 -23 34 -13 19 11 -12 19 -34 29
-34 16z"/>
<path d="M3730 1636 c0 -9 40 -13 46 -5 3 5 -6 9 -20 9 -14 0 -26 -2 -26 -4z"/>
<path d="M2765 1570 c-3 -5 -1 -10 4 -10 6 0 11 5 11 10 0 6 -2 10 -4 10 -3 0
-8 -4 -11 -10z"/>
<path d="M3865 1570 c-3 -5 -1 -10 4 -10 6 0 11 5 11 10 0 6 -2 10 -4 10 -3 0
-8 -4 -11 -10z"/>
<path d="M3895 1510 c-3 -5 1 -10 10 -10 9 0 13 5 10 10 -3 6 -8 10 -10 10 -2
0 -7 -4 -10 -10z"/>
<path d="M2840 1491 c0 -6 5 -13 10 -16 6 -3 10 1 10 9 0 9 -4 16 -10 16 -5 0
-10 -4 -10 -9z"/>
<path d="M2920 1489 c0 -5 5 -7 10 -4 6 3 10 8 10 11 0 2 -4 4 -10 4 -5 0 -10
-5 -10 -11z"/>
<path d="M3840 1490 c0 -5 4 -10 9 -10 6 0 13 5 16 10 3 6 -1 10 -9 10 -9 0
-16 -4 -16 -10z"/>
<path d="M3990 1480 c0 -5 5 -10 10 -10 6 0 10 5 10 10 0 6 -4 10 -10 10 -5 0
-10 -4 -10 -10z"/>
<path d="M2935 1460 c-3 -5 -1 -10 4 -10 6 0 11 5 11 10 0 6 -2 10 -4 10 -3 0
-8 -4 -11 -10z"/>
<path d="M2810 1371 c0 -12 5 -21 10 -21 6 0 10 6 10 14 0 8 -4 18 -10 21 -5
3 -10 -3 -10 -14z"/>
<path d="M3905 1379 c-4 -6 -5 -13 -2 -16 7 -7 27 6 27 18 0 12 -17 12 -25 -2z"/>
<path d="M2772 1318 c-7 -7 -12 -19 -12 -28 0 -9 -3 -20 -7 -23 -3 -4 -8 -19
-9 -33 -3 -26 -3 -26 18 -8 28 26 49 70 42 88 -7 19 -16 20 -32 4z"/>
<path d="M2846 1295 c-4 -10 1 -15 14 -15 11 0 20 7 20 15 0 8 -6 15 -14 15
-8 0 -16 -7 -20 -15z"/>
<path d="M3867 1280 c-3 -11 -2 -20 3 -20 12 0 21 28 11 35 -5 2 -11 -4 -14
-15z"/>
<path d="M3675 1270 c3 -5 8 -10 11 -10 2 0 4 5 4 10 0 6 -5 10 -11 10 -5 0
-7 -4 -4 -10z"/>
<path d="M2900 1215 c0 -8 -4 -15 -10 -15 -5 0 -10 -4 -10 -10 0 -5 11 -10 25
-10 23 0 25 -4 25 -44 0 -48 28 -95 49 -82 8 6 9 12 2 20 -13 15 -4 26 21 26
10 0 18 4 18 10 0 5 -7 7 -15 4 -11 -5 -15 1 -15 18 0 13 -7 34 -16 46 -9 14
-11 22 -4 22 7 0 5 6 -4 15 -8 8 -26 15 -40 15 -16 0 -26 -6 -26 -15z"/>
<path d="M3043 1193 c-18 -7 -16 -33 2 -33 8 0 15 2 15 4 0 2 3 11 6 20 6 16
0 19 -23 9z"/>
<path d="M3120 1180 c0 -5 5 -10 11 -10 5 0 7 5 4 10 -3 6 -8 10 -11 10 -2 0
-4 -4 -4 -10z"/>
<path d="M3440 1174 c0 -9 5 -14 12 -12 18 6 21 28 4 28 -9 0 -16 -7 -16 -16z"/>
<path d="M3780 1180 c0 -5 5 -10 10 -10 6 0 10 5 10 10 0 6 -4 10 -10 10 -5 0
-10 -4 -10 -10z"/>
<path d="M2680 1135 c0 -8 5 -15 10 -15 6 0 10 7 10 15 0 8 -4 15 -10 15 -5 0
-10 -7 -10 -15z"/>
<path d="M2780 1140 c0 -6 -12 -15 -26 -21 -25 -9 -26 -11 -10 -27 12 -14 13
-21 4 -30 -19 -19 1 -14 21 6 19 18 34 82 19 82 -4 0 -8 -5 -8 -10z"/>
<path d="M3427 1143 c-4 -3 -7 -15 -7 -25 0 -15 -8 -18 -43 -18 -55 0 -74 -15
-82 -66 -7 -44 3 -61 32 -50 12 5 13 9 2 22 -18 21 6 42 55 49 39 4 56 17 56
43 0 11 7 14 28 11 4 -1 6 -5 5 -10 -2 -5 6 -9 16 -9 25 0 36 29 13 36 -9 3
-25 10 -34 15 -21 11 -32 11 -41 2z"/>
<path d="M3575 1130 c-4 -7 -2 -16 6 -21 18 -11 23 -4 11 17 -7 12 -11 13 -17
4z"/>
<path d="M2837 1114 c-8 -8 3 -34 14 -34 5 0 9 9 9 20 0 19 -11 26 -23 14z"/>
<path d="M2618 1056 c-2 -22 0 -32 7 -29 7 2 11 14 11 26 -1 13 4 21 12 20 6
-2 12 2 12 7 0 6 -9 10 -19 10 -14 0 -20 -9 -23 -34z"/>
<path d="M3027 1060 c-16 -13 -24 -27 -20 -36 4 -10 9 -11 17 -5 14 12 30 -10
41 -57 7 -36 8 -36 36 -22 25 14 24 26 -7 63 -17 20 -24 39 -21 54 5 29 -12
30 -46 3z"/>
<path d="M2848 1062 c-23 -5 -23 -28 -1 -36 23 -9 49 17 31 31 -7 5 -21 8 -30
5z"/>
<path d="M3427 1033 c-4 -3 -7 -13 -7 -22 1 -13 3 -13 11 2 11 19 8 33 -4 20z"/>
<path d="M3456 993 c-6 -14 -5 -15 5 -6 7 7 10 15 7 18 -3 3 -9 -2 -12 -12z"/>
<path d="M2871 986 c-7 -8 -10 -20 -6 -26 4 -6 -2 -20 -14 -31 -22 -21 -27
-39 -11 -39 30 0 67 72 51 98 -6 10 -10 10 -20 -2z"/>
<path d="M3170 986 c0 -20 19 -31 32 -18 7 7 3 14 -11 21 -17 10 -21 9 -21 -3z"/>
<path d="M2820 966 c0 -8 -4 -16 -8 -18 -5 -1 -12 -16 -16 -31 -4 -19 -3 -26
4 -22 5 3 10 12 10 18 0 7 9 20 20 30 12 10 18 22 15 27 -9 15 -25 12 -25 -4z"/>
<path d="M3450 956 c0 -9 5 -16 10 -16 6 0 10 4 10 9 0 6 -4 13 -10 16 -5 3
-10 -1 -10 -9z"/>
<path d="M2917 946 c-4 -10 -5 -21 -2 -24 9 -9 17 6 13 25 -3 17 -4 17 -11 -1z"/>
<path d="M3230 951 c0 -5 7 -11 15 -15 9 -3 15 0 15 9 0 8 -7 15 -15 15 -8 0
-15 -4 -15 -9z"/>
<path d="M2698 921 c-20 -20 -23 -37 -8 -46 8 -5 40 43 40 60 0 10 -15 4 -32
-14z"/>
<path d="M2996 915 c-4 -14 -4 -30 -1 -35 7 -12 26 -13 24 -2 -4 25 3 42 19
42 14 0 15 2 2 10 -25 16 -37 11 -44 -15z"/>
<path d="M3165 910 c3 -5 8 -10 11 -10 2 0 4 5 4 10 0 6 -5 10 -11 10 -5 0 -7
-4 -4 -10z"/>
<path d="M2746 901 c-4 -5 3 -15 15 -21 28 -15 34 -7 10 14 -12 11 -21 13 -25
7z"/>
<path d="M2941 901 c-19 -12 -6 -41 19 -41 15 0 20 7 20 25 0 26 -14 31 -39
16z"/>
</g>
</svg>
