<svg width="39" height="39" viewBox="0 0 39 39" fill="none" xmlns="http://www.w3.org/2000/svg">
<path d="M19.3497 0.484131C8.79889 0.484131 0.245728 9.03729 0.245728 19.5881C0.245728 30.1389 8.79889 38.6921 19.3497 38.6921C19.9091 38.6921 20.4596 38.6555 21.0069 38.6084C20.7097 37.8992 20.5437 37.1211 20.5437 36.3041C20.5437 34.6258 21.241 33.1148 22.3559 32.0302C21.9643 31.1448 21.7377 30.1706 21.7377 29.1401C21.7377 25.1835 24.9451 21.9761 28.9017 21.9761C29.9322 21.9761 30.9063 22.2026 31.7918 22.5943C32.8765 21.4794 34.3874 20.7821 36.0657 20.7821C36.8827 20.7821 37.6608 20.948 38.37 21.2452C38.4171 20.6979 38.4537 20.1475 38.4537 19.5881C38.4536 9.03729 29.9004 0.484131 19.3497 0.484131ZM6.21573 19.5881C5.55637 19.5881 5.02175 19.0535 5.02175 18.3941C5.02175 17.7346 5.55637 17.2002 6.21573 17.2002C6.87508 17.2002 7.4097 17.7346 7.4097 18.3941C7.4097 19.0535 6.87508 19.5881 6.21573 19.5881ZM12.1857 29.14C10.8667 29.14 9.79765 28.0708 9.79765 26.752C9.79765 25.4331 10.8667 24.364 12.1857 24.364C13.5046 24.364 14.5737 25.4331 14.5737 26.752C14.5737 28.0708 13.5046 29.14 12.1857 29.14ZM14.5737 12.4241C13.2548 12.4241 12.1857 11.3548 12.1857 10.036C12.1857 8.71713 13.2548 7.64803 14.5737 7.64803C15.8926 7.64803 16.9617 8.71713 16.9617 10.036C16.9617 11.3548 15.8926 12.4241 14.5737 12.4241ZM18.1557 21.976C17.4963 21.976 16.9617 21.4414 16.9617 20.7821C16.9617 20.1226 17.4963 19.5881 18.1557 19.5881C18.815 19.5881 19.3496 20.1226 19.3496 20.7821C19.3497 21.4414 18.8151 21.976 18.1557 21.976ZM25.3196 5.26009C25.979 5.26009 26.5136 5.79457 26.5136 6.45406C26.5136 7.11342 25.979 7.64803 25.3196 7.64803C24.6603 7.64803 24.1257 7.11342 24.1257 6.45406C24.1257 5.79457 24.6603 5.26009 25.3196 5.26009ZM26.5137 17.2001C25.1948 17.2001 24.1257 16.1309 24.1257 14.8121C24.1257 13.4932 25.1948 12.4241 26.5137 12.4241C27.8326 12.4241 28.9017 13.4932 28.9017 14.8121C28.9016 16.1309 27.8325 17.2001 26.5137 17.2001Z" fill="#E39A3B"/>
</svg>
