<svg version="1.1" id="Uploaded to svgrepo.com" xmlns="http://www.w3.org/2000/svg" xmlns:xlink="http://www.w3.org/1999/xlink" x="0px" y="0px"
	 width="32px" height="32px" viewBox="0 0 32 32" style="enable-background:new 0 0 32 32;" xml:space="preserve">
<style type="text/css">
	.open_een{fill:#0B1719;}
</style>
<g>
	<g>
		<path class="open_een" d="M25.277,21H10.77c-0.68,0-1.276-0.459-1.45-1.116L5.741,6.372C5.683,6.153,5.484,6,5.258,6h-3.23
			c-0.276,0-0.5-0.224-0.5-0.5S1.751,5,2.028,5h3.23c0.679,0,1.275,0.459,1.45,1.116l3.578,13.512C10.344,19.847,10.543,20,10.77,20
			h14.508c0.221,0,0.419-0.148,0.48-0.361l2.893-10c0.044-0.152,0.015-0.312-0.081-0.439C28.474,9.073,28.329,9,28.17,9H11
			c-0.276,0-0.5,0.224-0.5,0.5c0,0.276-0.224,0.5-0.5,0.5S9.5,9.776,9.5,9.5C9.5,8.673,10.173,8,11,8h17.17
			c0.476,0,0.913,0.218,1.199,0.599c0.286,0.38,0.375,0.861,0.242,1.318l-2.893,10C26.534,20.555,25.941,21,25.277,21z"/>
		<path class="open_een" d="M12,27c-1.103,0-2-0.897-2-2s0.897-2,2-2s2,0.897,2,2S13.103,27,12,27z M12,24c-0.551,0-1,0.449-1,1
			s0.449,1,1,1s1-0.449,1-1S12.551,24,12,24z"/>
		<path class="open_een" d="M24,27c-1.103,0-2-0.897-2-2s0.897-2,2-2s2,0.897,2,2S25.103,27,24,27z M24,24c-0.551,0-1,0.449-1,1
			s0.449,1,1,1s1-0.449,1-1S24.551,24,24,24z"/>
		<path class="open_een" d="M14.5,18c-0.276,0-0.5-0.224-0.5-0.5v-6c0-0.276,0.224-0.5,0.5-0.5s0.5,0.224,0.5,0.5v6
			C15,17.776,14.776,18,14.5,18z"/>
		<path class="open_een" d="M17.5,18c-0.276,0-0.5-0.224-0.5-0.5v-6c0-0.276,0.224-0.5,0.5-0.5s0.5,0.224,0.5,0.5v6
			C18,17.776,17.776,18,17.5,18z"/>
		<path class="open_een" d="M20.5,18c-0.276,0-0.5-0.224-0.5-0.5v-6c0-0.276,0.224-0.5,0.5-0.5s0.5,0.224,0.5,0.5v6
			C21,17.776,20.776,18,20.5,18z"/>
		<path class="open_een" d="M23.5,18c-0.276,0-0.5-0.224-0.5-0.5v-6c0-0.276,0.224-0.5,0.5-0.5s0.5,0.224,0.5,0.5v6
			C24,17.776,23.776,18,23.5,18z"/>
	</g>
	<g>
		<path class="open_een" d="M25.277,21H10.77c-0.68,0-1.276-0.459-1.45-1.116L5.741,6.372C5.683,6.153,5.484,6,5.258,6h-3.23
			c-0.276,0-0.5-0.224-0.5-0.5S1.751,5,2.028,5h3.23c0.679,0,1.275,0.459,1.45,1.116l3.578,13.512C10.344,19.847,10.543,20,10.77,20
			h14.508c0.221,0,0.419-0.148,0.48-0.361l2.893-10c0.044-0.152,0.015-0.312-0.081-0.439C28.474,9.073,28.329,9,28.17,9H11
			c-0.276,0-0.5,0.224-0.5,0.5c0,0.276-0.224,0.5-0.5,0.5S9.5,9.776,9.5,9.5C9.5,8.673,10.173,8,11,8h17.17
			c0.476,0,0.913,0.218,1.199,0.599c0.286,0.38,0.375,0.861,0.242,1.318l-2.893,10C26.534,20.555,25.941,21,25.277,21z"/>
		<path class="open_een" d="M12,27c-1.103,0-2-0.897-2-2s0.897-2,2-2s2,0.897,2,2S13.103,27,12,27z M12,24c-0.551,0-1,0.449-1,1
			s0.449,1,1,1s1-0.449,1-1S12.551,24,12,24z"/>
		<path class="open_een" d="M24,27c-1.103,0-2-0.897-2-2s0.897-2,2-2s2,0.897,2,2S25.103,27,24,27z M24,24c-0.551,0-1,0.449-1,1
			s0.449,1,1,1s1-0.449,1-1S24.551,24,24,24z"/>
		<path class="open_een" d="M14.5,18c-0.276,0-0.5-0.224-0.5-0.5v-6c0-0.276,0.224-0.5,0.5-0.5s0.5,0.224,0.5,0.5v6
			C15,17.776,14.776,18,14.5,18z"/>
		<path class="open_een" d="M17.5,18c-0.276,0-0.5-0.224-0.5-0.5v-6c0-0.276,0.224-0.5,0.5-0.5s0.5,0.224,0.5,0.5v6
			C18,17.776,17.776,18,17.5,18z"/>
		<path class="open_een" d="M20.5,18c-0.276,0-0.5-0.224-0.5-0.5v-6c0-0.276,0.224-0.5,0.5-0.5s0.5,0.224,0.5,0.5v6
			C21,17.776,20.776,18,20.5,18z"/>
		<path class="open_een" d="M23.5,18c-0.276,0-0.5-0.224-0.5-0.5v-6c0-0.276,0.224-0.5,0.5-0.5s0.5,0.224,0.5,0.5v6
			C24,17.776,23.776,18,23.5,18z"/>
	</g>
</g>
</svg>