<svg width="24.000000" height="24.000000" viewBox="0 0 24 24" fill="none" xmlns="http://www.w3.org/2000/svg" xmlns:xlink="http://www.w3.org/1999/xlink">
	<desc>
			Created with Pixso.
	</desc>
	<defs>
		<clipPath id="clip11342_1416">
			<rect id="Icon-instagram" width="24.000000" height="24.000000" fill="white" fill-opacity="0"/>
		</clipPath>
	</defs>
	<rect id="Icon-instagram" width="24.000000" height="24.000000" fill="#FFFFFF" fill-opacity="0"/>
	<g clip-path="url(#clip11342_1416)">
		<path id="Vector" d="M12 2C14.71 2 15.05 2.01 16.12 2.06C17.18 2.1 17.91 2.27 18.54 2.52C19.2 2.77 19.76 3.12 20.32 3.67C20.83 4.17 21.22 4.78 21.47 5.44C21.72 6.08 21.89 6.81 21.93 7.87C21.98 8.94 22 9.28 22 12C22 14.71 21.99 15.05 21.93 16.12C21.89 17.18 21.72 17.91 21.47 18.54C21.22 19.21 20.83 19.82 20.32 20.32C19.82 20.83 19.21 21.22 18.54 21.47C17.91 21.72 17.18 21.89 16.12 21.93C15.05 21.98 14.71 22 12 22C9.28 22 8.94 21.99 7.87 21.93C6.81 21.89 6.08 21.72 5.45 21.47C4.78 21.22 4.17 20.83 3.67 20.32C3.16 19.82 2.77 19.21 2.52 18.54C2.27 17.91 2.1 17.18 2.06 16.12C2.01 15.05 2 14.71 2 12C2 9.28 2 8.94 2.06 7.87C2.1 6.81 2.27 6.08 2.52 5.44C2.77 4.78 3.16 4.17 3.67 3.67C4.17 3.16 4.78 2.77 5.45 2.52C6.08 2.27 6.81 2.1 7.87 2.06C8.94 2.01 9.28 2 12 2ZM12 7C10.67 7 9.4 7.52 8.46 8.46C7.52 9.4 7 10.67 7 12C7 13.32 7.52 14.59 8.46 15.53C9.4 16.47 10.67 17 12 17C13.32 17 14.59 16.47 15.53 15.53C16.47 14.59 17 13.32 17 12C17 10.67 16.47 9.4 15.53 8.46C14.59 7.52 13.32 7 12 7ZM18.5 6.75C18.5 6.41 18.36 6.1 18.13 5.86C17.89 5.63 17.58 5.5 17.25 5.5C16.91 5.5 16.6 5.63 16.36 5.86C16.13 6.1 16 6.41 16 6.75C16 7.08 16.13 7.39 16.36 7.63C16.6 7.86 16.91 8 17.25 8C17.58 8 17.89 7.86 18.13 7.63C18.36 7.39 18.5 7.08 18.5 6.75ZM12 9C12.79 9 13.55 9.31 14.12 9.87C14.68 10.44 15 11.2 15 12C15 12.79 14.68 13.55 14.12 14.12C13.55 14.68 12.79 15 12 15C11.2 15 10.44 14.68 9.87 14.12C9.31 13.55 9 12.79 9 12C9 11.2 9.31 10.44 9.87 9.87C10.44 9.31 11.2 9 12 9Z" fill="#F9512E" fill-opacity="1.000000" fill-rule="nonzero"/>
	</g>
</svg>
