<svg width="24.000000" height="24.000000" viewBox="0 0 24 24" fill="none" xmlns="http://www.w3.org/2000/svg" xmlns:xlink="http://www.w3.org/1999/xlink">
	<desc>
			Created with Pixso.
	</desc>
	<defs>
		<clipPath id="clip11342_1459">
			<rect id="Icon-cookie" width="24.000000" height="24.000000" transform="translate(-0.500000 0.000000)" fill="white" fill-opacity="0"/>
		</clipPath>
	</defs>
	<g clip-path="url(#clip11342_1459)">
		<path id="Vector" d="M21.44 11.99C18.7 11.95 16.5 9.73 16.5 6.99C13.76 6.99 11.54 4.79 11.5 2.05C10.44 1.89 9.35 2.07 8.39 2.55L5.69 3.93C4.72 4.43 3.93 5.22 3.43 6.19L2.06 8.88C1.56 9.85 1.39 10.96 1.56 12.04L2.03 15.02C2.2 16.1 2.71 17.1 3.48 17.87L5.62 20.01C6.39 20.78 7.39 21.29 8.46 21.46L11.46 21.93C12.53 22.1 13.63 21.93 14.6 21.43L17.3 20.06C18.28 19.56 19.07 18.77 19.56 17.8L20.93 15.11C21.42 14.15 21.6 13.06 21.44 11.99ZM8.37 16.37C7.68 16.37 7.12 15.81 7.12 15.12C7.12 14.43 7.68 13.87 8.37 13.87C9.06 13.87 9.62 14.43 9.62 15.12C9.62 15.81 9.06 16.37 8.37 16.37ZM9.62 10.12C8.93 10.12 8.37 9.56 8.37 8.87C8.37 8.18 8.93 7.62 9.62 7.62C10.31 7.62 10.87 8.18 10.87 8.87C10.87 9.56 10.31 10.12 9.62 10.12ZM15.87 15.12C15.18 15.12 14.62 14.56 14.62 13.87C14.62 13.18 15.18 12.62 15.87 12.62C16.56 12.62 17.12 13.18 17.12 13.87C17.12 14.56 16.56 15.12 15.87 15.12Z" fill="#FFFFFF" fill-opacity="1.000000" fill-rule="nonzero"/>
	</g>
</svg>
