<svg width="24.000000" height="24.000000" viewBox="0 0 24 24" fill="none" xmlns="http://www.w3.org/2000/svg" xmlns:xlink="http://www.w3.org/1999/xlink">
	<desc>
			Created with Pixso.
	</desc>
	<defs>
		<clipPath id="clip11342_1438">
			<rect id="Icon-cookie" width="24.000000" height="24.000000" fill="white" fill-opacity="0"/>
		</clipPath>
	</defs>
	<g clip-path="url(#clip11342_1438)">
		<path id="Vector" d="M21.94 11.99C19.2 11.95 17 9.73 17 6.99C14.26 6.99 12.04 4.79 12 2.05C10.94 1.89 9.85 2.07 8.89 2.55L6.19 3.93C5.22 4.43 4.43 5.22 3.93 6.19L2.56 8.88C2.06 9.85 1.89 10.96 2.06 12.04L2.53 15.02C2.7 16.1 3.21 17.1 3.98 17.87L6.12 20.01C6.89 20.78 7.89 21.29 8.96 21.46L11.96 21.93C13.03 22.1 14.13 21.93 15.1 21.43L17.8 20.06C18.78 19.56 19.57 18.77 20.06 17.8L21.43 15.11C21.92 14.15 22.1 13.06 21.94 11.99ZM8.87 16.37C8.18 16.37 7.62 15.81 7.62 15.12C7.62 14.43 8.18 13.87 8.87 13.87C9.56 13.87 10.12 14.43 10.12 15.12C10.12 15.81 9.56 16.37 8.87 16.37ZM10.12 10.12C9.43 10.12 8.87 9.56 8.87 8.87C8.87 8.18 9.43 7.62 10.12 7.62C10.81 7.62 11.37 8.18 11.37 8.87C11.37 9.56 10.81 10.12 10.12 10.12ZM16.37 15.12C15.68 15.12 15.12 14.56 15.12 13.87C15.12 13.18 15.68 12.62 16.37 12.62C17.06 12.62 17.62 13.18 17.62 13.87C17.62 14.56 17.06 15.12 16.37 15.12Z" fill="#F9512E" fill-opacity="1.000000" fill-rule="nonzero"/>
	</g>
</svg>
