<svg width="24.000000" height="24.000000" viewBox="0 0 24 24" fill="none" xmlns="http://www.w3.org/2000/svg" xmlns:xlink="http://www.w3.org/1999/xlink">
	<desc>
			Created with Pixso.
	</desc>
	<defs>
		<clipPath id="clip11342_1412">
			<rect id="Icon-phone" width="24.000000" height="24.000000" fill="white" fill-opacity="0"/>
		</clipPath>
	</defs>
	<rect id="Icon-phone" width="24.000000" height="24.000000" fill="#FFFFFF" fill-opacity="0"/>
	<g clip-path="url(#clip11342_1412)">
		<path id="Vector" d="M21 16.42L21 19.95C21 20.2 20.9 20.45 20.73 20.63C20.55 20.82 20.32 20.93 20.06 20.95C19.63 20.98 19.27 21 19 21C10.16 21 3 13.83 3 5C3 4.72 3.01 4.36 3.04 3.93C3.06 3.67 3.17 3.44 3.36 3.26C3.54 3.09 3.79 2.99 4.04 3L7.58 3C7.7 2.99 7.82 3.04 7.91 3.12C8 3.21 8.06 3.32 8.07 3.44C8.1 3.68 8.12 3.86 8.14 4C8.34 5.38 8.74 6.73 9.35 8C9.44 8.2 9.38 8.44 9.2 8.56L7.04 10.11C8.36 13.18 10.81 15.63 13.88 16.95L15.42 14.8C15.49 14.71 15.58 14.65 15.68 14.62C15.79 14.59 15.9 14.6 16 14.65C17.26 15.25 18.61 15.66 20 15.85C20.14 15.87 20.32 15.9 20.55 15.92C20.67 15.93 20.78 15.99 20.87 16.08C20.95 16.17 21 16.29 21 16.42L21 16.42Z" fill="#F9512E" fill-opacity="1.000000" fill-rule="nonzero"/>
	</g>
</svg>
