<svg width="24.000000" height="24.000000" viewBox="0 0 24 24" fill="none" xmlns="http://www.w3.org/2000/svg" xmlns:xlink="http://www.w3.org/1999/xlink">
	<desc>
			Created with Pixso.
	</desc>
	<defs>
		<clipPath id="clip11342_1420">
			<rect id="Icon-twitter" width="24.000000" height="24.000000" fill="white" fill-opacity="0"/>
		</clipPath>
	</defs>
	<rect id="Icon-twitter" width="24.000000" height="24.000000" fill="#FFFFFF" fill-opacity="0"/>
	<g clip-path="url(#clip11342_1420)">
		<path id="Vector" d="M22.16 5.65C21.39 5.99 20.58 6.21 19.75 6.31C20.63 5.79 21.28 4.96 21.59 4C20.77 4.48 19.88 4.83 18.94 5.01C18.31 4.34 17.48 3.89 16.57 3.74C15.66 3.59 14.72 3.74 13.91 4.18C13.1 4.61 12.45 5.3 12.07 6.14C11.69 6.98 11.6 7.93 11.81 8.82C10.15 8.74 8.52 8.31 7.04 7.56C5.55 6.8 4.24 5.75 3.19 4.45C2.82 5.09 2.63 5.82 2.63 6.56C2.63 8.01 3.36 9.29 4.49 10.04C3.82 10.02 3.17 9.84 2.59 9.52L2.59 9.57C2.59 10.53 2.93 11.47 3.54 12.22C4.15 12.96 5 13.48 5.95 13.67C5.33 13.84 4.68 13.86 4.06 13.74C4.32 14.57 4.84 15.3 5.55 15.82C6.25 16.34 7.09 16.63 7.96 16.65C7.1 17.33 6.1 17.83 5.04 18.13C3.98 18.42 2.87 18.51 1.77 18.38C3.69 19.61 5.91 20.26 8.18 20.26C15.88 20.26 20.08 13.88 20.08 8.36C20.08 8.18 20.08 8 20.07 7.82C20.89 7.23 21.6 6.49 22.16 5.65L22.16 5.65Z" fill="#F9512E" fill-opacity="1.000000" fill-rule="nonzero"/>
	</g>
</svg>
