<svg width="125" height="13" viewBox="0 0 125 13" fill="none" xmlns="http://www.w3.org/2000/svg">
<path d="M6.31818 12.1818C9.64205 12.1818 12.3295 9.49432 12.3182 6.18182C12.3068 2.86932 9.64205 0.181818 6.31818 0.181818C3.01705 0.181818 0.329545 2.86932 0.318182 6.18182C0.306818 9.49432 3.01705 12.1818 6.31818 12.1818ZM6.31818 10.8636C3.73295 10.8636 1.625 8.75568 1.63636 6.1875C1.64773 3.60227 3.74432 1.5 6.31818 1.5C8.90341 1.5 10.9886 3.59091 11 6.1875C11.0114 8.76705 8.91477 10.8636 6.31818 10.8636ZM3 6.18182C3 8.04545 4.51136 9.55682 6.375 9.55682C7.98864 9.55682 9.22727 8.42045 9.44318 6.90909H8.06818C7.90909 7.6875 7.25 8.23864 6.375 8.23864C5.23864 8.23864 4.31818 7.31818 4.31818 6.18182C4.31818 5.04545 5.23864 4.125 6.375 4.125C7.25 4.125 8.02841 4.67614 8.18182 5.45455H9.55682C9.34091 3.94318 7.98864 2.80682 6.375 2.80682C4.51136 2.80682 3 4.31818 3 6.18182ZM19.2297 12H23.4343C26.1843 12 27.3206 10.6591 27.3206 8.90909C27.3206 7.06818 26.0479 6.06818 24.9797 6V5.88636C25.9797 5.61364 26.8661 4.95455 26.8661 3.45455C26.8661 1.75 25.7297 0.363636 23.2979 0.363636H19.2297V12ZM20.6388 10.75V6.70455H23.5024C25.0252 6.70455 25.9797 7.72727 25.9797 8.90909C25.9797 9.93182 25.2752 10.75 23.4343 10.75H20.6388ZM20.6388 5.47727V1.61364H23.2979C24.8434 1.61364 25.5252 2.43182 25.5252 3.45455C25.5252 4.68182 24.5252 5.47727 23.2524 5.47727H20.6388ZM31.8623 12.2045C33.3851 12.2045 34.1805 11.3864 34.4532 10.8182H34.5214V12H35.8623V6.25C35.8623 3.47727 33.7487 3.15909 32.6351 3.15909C31.3169 3.15909 29.8169 3.61364 29.1351 5.20455L30.4078 5.65909C30.7032 5.02273 31.4021 4.34091 32.6805 4.34091C33.9135 4.34091 34.5214 4.99432 34.5214 6.11364V6.15909C34.5214 6.80682 33.8623 6.75 32.2714 6.95455C30.6521 7.16477 28.8851 7.52273 28.8851 9.52273C28.8851 11.2273 30.2032 12.2045 31.8623 12.2045ZM32.0669 11C30.9987 11 30.226 10.5227 30.226 9.59091C30.226 8.56818 31.1578 8.25 32.2032 8.11364C32.7714 8.04545 34.2941 7.88636 34.5214 7.61364V8.84091C34.5214 9.93182 33.6578 11 32.0669 11ZM38.1498 12H39.4907V8.73295L40.4282 7.86364L43.6952 12H45.3998L41.4395 7L45.127 3.27273H43.468L39.6498 7.15909H39.4907V0.363636H38.1498V12ZM49.9926 12.1818C51.7653 12.1818 53.0608 11.2955 53.4699 9.97727L52.1744 9.61364C51.8335 10.5227 51.0438 10.9773 49.9926 10.9773C48.4188 10.9773 47.3335 9.96023 47.271 8.09091H53.6063V7.52273C53.6063 4.27273 51.6744 3.15909 49.8563 3.15909C47.4926 3.15909 45.9244 5.02273 45.9244 7.70455C45.9244 10.3864 47.4699 12.1818 49.9926 12.1818ZM47.271 6.93182C47.3619 5.57386 48.3222 4.36364 49.8563 4.36364C51.3108 4.36364 52.2426 5.45455 52.2426 6.93182H47.271ZM55.486 12H56.8269V6.47727C56.8269 5.29545 57.7588 4.43182 59.0315 4.43182C59.3894 4.43182 59.7588 4.5 59.8497 4.52273V3.15909C59.6963 3.14773 59.344 3.13636 59.1451 3.13636C58.0997 3.13636 57.1906 3.72727 56.8724 4.59091H56.7815V3.27273H55.486V12ZM62.6201 0.363636H61.2791V12H62.6201V0.363636ZM67.4842 12.2045C69.0069 12.2045 69.8024 11.3864 70.0751 10.8182H70.1433V12H71.4842V6.25C71.4842 3.47727 69.3706 3.15909 68.2569 3.15909C66.9388 3.15909 65.4388 3.61364 64.7569 5.20455L66.0297 5.65909C66.3251 5.02273 67.024 4.34091 68.3024 4.34091C69.5353 4.34091 70.1433 4.99432 70.1433 6.11364V6.15909C70.1433 6.80682 69.4842 6.75 67.8933 6.95455C66.274 7.16477 64.5069 7.52273 64.5069 9.52273C64.5069 11.2273 65.8251 12.2045 67.4842 12.2045ZM67.6888 11C66.6206 11 65.8478 10.5227 65.8478 9.59091C65.8478 8.56818 66.7797 8.25 67.8251 8.11364C68.3933 8.04545 69.916 7.88636 70.1433 7.61364V8.84091C70.1433 9.93182 69.2797 11 67.6888 11ZM73.9535 12H75.2489V10.6591H75.408C75.7035 11.1364 76.2716 12.1818 77.9535 12.1818C80.1353 12.1818 81.658 10.4318 81.658 7.65909C81.658 4.90909 80.1353 3.15909 77.9307 3.15909C76.2262 3.15909 75.7035 4.20455 75.408 4.65909H75.2944V0.363636H73.9535V12ZM75.2716 7.63636C75.2716 5.68182 76.1353 4.36364 77.7716 4.36364C79.4762 4.36364 80.3171 5.79545 80.3171 7.63636C80.3171 9.5 79.4535 10.9773 77.7716 10.9773C76.158 10.9773 75.2716 9.61364 75.2716 7.63636ZM87.8664 12H95.2073V10.75H89.7982V10.6591L92.4119 7.86364C94.4119 5.72159 95.0028 4.72159 95.0028 3.43182C95.0028 1.63636 93.5482 0.204545 91.5028 0.204545C89.463 0.204545 87.9119 1.59091 87.9119 3.63636H89.2528C89.2528 2.3125 90.1107 1.43182 91.4573 1.43182C92.7187 1.43182 93.6846 2.20455 93.6846 3.43182C93.6846 4.50568 93.0539 5.30114 91.7073 6.77273L87.8664 10.9773V12ZM101.189 12.1591C103.758 12.1591 105.235 9.98295 105.235 6.18182C105.235 2.40909 103.735 0.204545 101.189 0.204545C98.6439 0.204545 97.1439 2.40909 97.1439 6.18182C97.1439 9.98295 98.6212 12.1591 101.189 12.1591ZM101.189 10.9091C99.4962 10.9091 98.5076 9.21023 98.5076 6.18182C98.5076 3.15909 99.5076 1.43182 101.189 1.43182C102.871 1.43182 103.871 3.15909 103.871 6.18182C103.871 9.21023 102.883 10.9091 101.189 10.9091ZM107.234 12H114.575V10.75H109.166V10.6591L111.779 7.86364C113.779 5.72159 114.37 4.72159 114.37 3.43182C114.37 1.63636 112.916 0.204545 110.87 0.204545C108.831 0.204545 107.279 1.59091 107.279 3.63636H108.62C108.62 2.3125 109.478 1.43182 110.825 1.43182C112.086 1.43182 113.052 2.20455 113.052 3.43182C113.052 4.50568 112.421 5.30114 111.075 6.77273L107.234 10.9773V12ZM116.761 12H124.102V10.75H118.693V10.6591L121.307 7.86364C123.307 5.72159 123.898 4.72159 123.898 3.43182C123.898 1.63636 122.443 0.204545 120.398 0.204545C118.358 0.204545 116.807 1.59091 116.807 3.63636H118.148C118.148 2.3125 119.006 1.43182 120.352 1.43182C121.614 1.43182 122.58 2.20455 122.58 3.43182C122.58 4.50568 121.949 5.30114 120.602 6.77273L116.761 10.9773V12Z" fill="#7F8096"/>
</svg>
