<svg width="128" height="25" viewBox="0 0 128 25" fill="none" xmlns="http://www.w3.org/2000/svg">
<path d="M10.7829 12.32C11.4305 12.32 16.579 11.552 16.579 6.784C16.579 1.152 12.3695 1.344 7.86857 1.344H0V1.6C1.42476 1.6 1.8781 3.776 1.8781 5.76V19.488C1.8781 21.664 1.39238 23.584 0 23.584V23.872H7.86857C13.4705 23.872 18.101 23.744 18.101 18.144C18.101 12.672 12.8876 12.32 10.7829 12.32ZM7.86857 1.888C9.39048 1.888 12.0781 1.952 12.0781 6.72C12.0781 11.456 9.61714 12.192 7.86857 12.192H6.60571V1.888H7.86857ZM7.86857 23.328H6.60571V12.736H7.86857C10.0381 12.736 13.341 12.896 13.341 17.984C13.341 23.392 10.6857 23.328 7.86857 23.328Z" fill="#1C1A26"/>
<path d="M29.2919 20.576C29.0004 21.344 28.2557 22.208 27.1547 22.208C25.05 22.208 25.05 20.096 25.05 20.096C25.05 18.464 26.1185 16.96 29.2919 16.256C29.2919 16.256 29.2919 20.512 29.2919 20.576ZM34.9261 22.208C33.3395 22.208 33.3719 19.968 33.3719 19.968V15.2C33.3719 11.424 32.2061 8.8 27.9642 8.8C27.9642 8.8 26.2804 8.672 24.8233 9.44C23.0423 10.368 22.6214 11.232 22.2976 11.776C21.9738 12.32 22.0061 13.088 22.3947 13.696C22.9776 14.528 24.1109 14.72 24.9528 14.176C25.7947 13.6 26.0214 12.48 25.4385 11.648C25.1471 11.232 24.7261 11.008 24.2404 10.944C24.0138 10.912 24.1433 10.368 25.1795 9.856C27.4138 8.704 29.2919 10.368 29.2919 13.696V15.68C23.6252 17.088 20.9052 17.408 20.9052 20.896C20.9052 24.16 24.629 24.16 24.629 24.16C26.9281 24.16 28.8385 22.976 29.3242 21.568C29.6804 24.16 32.5623 24.16 32.5623 24.16C34.6023 24.16 36.0919 22.912 36.3509 21.888L35.8004 21.664C35.6061 22.208 34.9261 22.208 34.9261 22.208Z" fill="#1C1A26"/>
<path d="M42.6439 20V0L36.9773 1.184V1.728C38.2725 2.208 38.5963 2.688 38.5963 3.808V20C38.5963 21.632 38.5316 22.976 37.3011 23.328V23.872H43.9716V23.328C42.8059 23.04 42.6439 21.76 42.6439 20ZM51.2897 21.728C51.2897 21.728 51.2249 21.728 46.4325 15.04C50.7392 9.792 54.042 9.696 54.6249 9.632V9.088H46.7563V9.632C50.9659 9.504 46.3354 14.144 46.3354 14.144L43.2916 17.408C43.2916 17.408 44.1335 18.688 45.1049 20.096C47.2744 23.296 47.5658 23.872 49.8001 23.872H54.3658V23.328C53.8154 23.296 52.3582 23.2 51.2897 21.728Z" fill="#1C1A26"/>
<path d="M58.7876 15.648C58.7876 12.576 60.1152 9.344 62.0257 9.344C63.8067 9.344 65.1343 11.616 65.1343 15.648H58.7876ZM62.1876 8.8C57.719 8.8 54.6105 12.032 54.6105 16.544C54.6105 20.288 57.5248 24.16 61.7667 24.16C66.1057 24.16 68.0162 21.632 68.5343 19.968L67.9838 19.68C67.1743 21.184 64.5838 21.824 62.8352 21.44C60.6657 20.96 59.0467 19.328 58.7876 16.192H69.0848C69.0848 11.2 66.8829 8.8 62.1876 8.8Z" fill="#1C1A26"/>
<path d="M80.3991 8.96C79.622 9.28 78.2944 9.76 76.5782 12.416V8.8L70.8791 10.08V10.624C72.2067 11.296 72.4982 11.776 72.4982 12.864V19.968C72.4982 21.632 72.4658 22.944 71.2029 23.328V23.872H77.9058V23.328C76.7401 23.008 76.5782 21.76 76.5782 19.968V13.312C77.7763 11.392 79.1039 11.072 79.1039 11.424C79.1039 12 79.3629 12.544 79.8486 12.992C80.8848 13.856 82.3744 13.728 83.2486 12.736C84.1229 11.776 84.0258 10.24 83.022 9.376C82.3096 8.8 81.0791 8.672 80.3991 8.96Z" fill="#1C1A26"/>
<path d="M90.5928 20V0L84.9261 1.184V1.728C86.2214 2.208 86.5452 2.688 86.5452 3.808V20C86.5452 21.632 86.4804 22.976 85.2499 23.328V23.872H91.888V23.328C90.7547 23.04 90.5928 21.76 90.5928 20Z" fill="#1C1A26"/>
<path d="M102.465 20.576C102.174 21.344 101.429 22.208 100.328 22.208C98.2233 22.208 98.2233 20.096 98.2233 20.096C98.2233 18.464 99.2919 16.96 102.465 16.256C102.465 16.256 102.465 20.512 102.465 20.576ZM108.1 22.208C106.513 22.208 106.545 19.968 106.545 19.968V15.2C106.545 11.424 105.38 8.8 101.138 8.8C101.138 8.8 99.4538 8.672 97.9967 9.44C96.2157 10.368 95.7947 11.232 95.4709 11.776C95.1471 12.32 95.1795 13.088 95.5681 13.696C96.1509 14.528 97.2843 14.72 98.1262 14.176C98.9681 13.6 99.1947 12.48 98.6119 11.648C98.3205 11.232 97.8995 11.008 97.4138 10.944C97.1871 10.912 97.3167 10.368 98.3528 9.856C100.587 8.704 102.465 10.368 102.465 13.696V15.68C96.7986 17.088 94.0786 17.408 94.0786 20.896C94.0786 24.16 97.8024 24.16 97.8024 24.16C100.101 24.16 102.012 22.976 102.498 21.568C102.854 24.16 105.736 24.16 105.736 24.16C107.776 24.16 109.265 22.912 109.524 21.888L108.974 21.664C108.78 22.208 108.1 22.208 108.1 22.208Z" fill="#1C1A26"/>
<path d="M119.8 23.616C117.954 23.616 115.947 22.304 115.947 18.272V14.208C115.947 11.936 117.113 10.144 119.314 10.144C121.97 10.144 123.168 11.808 123.168 16.928C123.168 21.824 122.164 23.616 119.8 23.616ZM120.934 8.8C119.379 8.8 116.983 9.6 115.947 11.52V0L110.28 1.184V1.728C111.608 2.208 111.932 2.688 111.932 3.776V23.712C111.932 24.224 113.939 23.52 115.105 22.528C116.174 23.584 117.89 24.16 119.833 24.16C124.366 24.16 127.798 21.824 127.798 16.672C127.798 11.616 124.56 8.8 120.934 8.8Z" fill="#1C1A26"/>
</svg>
