<svg width="212" height="69" viewBox="0 0 212 69" fill="none" xmlns="http://www.w3.org/2000/svg">
<path d="M109.328 36.6V41H107.52V29.8H111.864C113.139 29.8 114.117 30.1013 114.8 30.704C115.488 31.3067 115.832 32.1387 115.832 33.2C115.832 34.2613 115.488 35.0933 114.8 35.696C114.117 36.2987 113.139 36.6 111.864 36.6H109.328ZM109.328 31.504V34.896H111.816C112.552 34.896 113.091 34.76 113.432 34.488C113.779 34.2107 113.952 33.7813 113.952 33.2C113.952 32.6187 113.779 32.192 113.432 31.92C113.091 31.6427 112.552 31.504 111.816 31.504H109.328ZM119.586 41H117.906V29.48H119.586V41ZM129.563 41H127.891V40.08C127.304 40.8267 126.501 41.2 125.483 41.2C124.4 41.2 123.491 40.8187 122.755 40.056C122.019 39.2933 121.651 38.3307 121.651 37.168C121.651 36.0053 122.019 35.0427 122.755 34.28C123.491 33.5173 124.4 33.136 125.483 33.136C126.496 33.136 127.299 33.512 127.891 34.264V33.336H129.563V41ZM125.683 34.712C124.984 34.712 124.424 34.9493 124.003 35.424C123.581 35.8933 123.371 36.4747 123.371 37.168C123.371 37.8613 123.581 38.4453 124.003 38.92C124.424 39.3893 124.984 39.624 125.683 39.624C126.365 39.624 126.92 39.392 127.347 38.928C127.779 38.464 127.995 37.8773 127.995 37.168C127.995 36.4587 127.779 35.872 127.347 35.408C126.92 34.944 126.365 34.712 125.683 34.712ZM133.515 44.248H131.659L134.403 39.424L131.003 33.336H132.883L135.347 37.736L137.723 33.336H139.563L133.515 44.248ZM150.221 41H147.965L143.693 29.8H145.621L149.109 39.168L152.621 29.8H154.493L150.221 41ZM157.726 41H156.046V33.336H157.726V41ZM156.878 29.504C157.209 29.504 157.489 29.6187 157.718 29.848C157.948 30.0773 158.062 30.3573 158.062 30.688C158.062 31.024 157.948 31.304 157.718 31.528C157.494 31.7467 157.214 31.856 156.878 31.856C156.542 31.856 156.262 31.7467 156.038 31.528C155.82 31.304 155.71 31.024 155.71 30.688C155.71 30.352 155.82 30.072 156.038 29.848C156.262 29.6187 156.542 29.504 156.878 29.504ZM163.623 33.136C164.637 33.136 165.439 33.512 166.031 34.264V29.48H167.703V41H166.031V40.08C165.445 40.8267 164.642 41.2 163.623 41.2C162.541 41.2 161.631 40.8187 160.895 40.056C160.159 39.2933 159.791 38.3307 159.791 37.168C159.791 36.0053 160.159 35.0427 160.895 34.28C161.631 33.5173 162.541 33.136 163.623 33.136ZM163.823 34.712C163.125 34.712 162.565 34.9493 162.143 35.424C161.722 35.8933 161.511 36.4747 161.511 37.168C161.511 37.8613 161.722 38.4453 162.143 38.92C162.565 39.3893 163.125 39.624 163.823 39.624C164.506 39.624 165.061 39.392 165.487 38.928C165.919 38.464 166.135 37.8773 166.135 37.168C166.135 36.4587 165.919 35.872 165.487 35.408C165.061 34.944 164.506 34.712 163.823 34.712ZM173.592 33.136C174.664 33.136 175.536 33.5093 176.208 34.256C176.88 34.9973 177.216 35.9653 177.216 37.16C177.216 37.4053 177.205 37.6133 177.184 37.784H171.52C171.621 38.4347 171.88 38.9227 172.296 39.248C172.717 39.5733 173.218 39.736 173.8 39.736C174.605 39.736 175.344 39.4667 176.016 38.928L176.848 40.12C176.005 40.84 174.954 41.2 173.696 41.2C172.538 41.2 171.594 40.832 170.864 40.096C170.138 39.3547 169.776 38.3787 169.776 37.168C169.776 35.968 170.128 34.9973 170.832 34.256C171.541 33.5093 172.461 33.136 173.592 33.136ZM173.56 34.624C172.984 34.624 172.522 34.7947 172.176 35.136C171.829 35.472 171.613 35.9307 171.528 36.512H175.504C175.413 35.9147 175.197 35.4507 174.856 35.12C174.52 34.7893 174.088 34.624 173.56 34.624ZM180.737 33.664C181.366 33.312 182.07 33.136 182.849 33.136C183.627 33.136 184.331 33.312 184.961 33.664C185.59 34.0107 186.083 34.4933 186.441 35.112C186.798 35.7253 186.977 36.4107 186.977 37.168C186.977 37.9253 186.798 38.6133 186.441 39.232C186.083 39.8453 185.59 40.328 184.961 40.68C184.331 41.0267 183.627 41.2 182.849 41.2C182.07 41.2 181.366 41.024 180.737 40.672C180.107 40.32 179.614 39.8373 179.257 39.224C178.905 38.6107 178.729 37.9253 178.729 37.168C178.729 36.4107 178.905 35.7253 179.257 35.112C179.614 34.4987 180.107 34.016 180.737 33.664ZM184.569 35.4C184.11 34.9413 183.537 34.712 182.849 34.712C182.161 34.712 181.587 34.9413 181.129 35.4C180.675 35.8587 180.449 36.448 180.449 37.168C180.449 37.888 180.675 38.4773 181.129 38.936C181.587 39.3947 182.161 39.624 182.849 39.624C183.537 39.624 184.11 39.3947 184.569 38.936C185.027 38.4773 185.257 37.888 185.257 37.168C185.257 36.448 185.027 35.8587 184.569 35.4Z" fill="white"/>
<path opacity="0.45" d="M51 7C46.1191 3.58873 40.9135 2.35207 35 2.00004C29.0865 1.648 23.5605 3.00323 18.3211 5.81203C13.0817 8.62084 8.69816 12.8327 5.64507 17.9917C2.59199 23.1507 0.985693 29.0602 1.0001 35.0803C1.0145 41.1005 2.64905 47.002 5.72678 52.1458C8.80452 57.2896 13.2082 61.4798 18.4609 64.2627C23.7137 67.0456 29.6155 68.3151 35.5272 67.9339C41.439 67.5526 47.1355 65.4354 52 62" stroke="#05C2DF" stroke-width="2" stroke-miterlimit="1.51696"/>
<path d="M34.0306 61.1555C48.6177 61.1555 60.4429 49.3649 60.4429 34.8204C60.4429 20.276 48.6177 8.48535 34.0306 8.48535C19.4434 8.48535 7.61816 20.276 7.61816 34.8204C7.61816 49.3649 19.4434 61.1555 34.0306 61.1555Z" stroke="#05C2DF" stroke-miterlimit="10"/>
<path opacity="0.45" d="M86 12H56V14H86V12Z" fill="#05C2DF"/>
<path opacity="0.45" d="M86 56H56V58H86V56Z" fill="#05C2DF"/>
<path d="M45 35L27.75 45.3923L27.75 24.6077L45 35Z" fill="#05C2DF"/>
</svg>
