<svg width="24.000000" height="24.000000" viewBox="0 0 24 24" fill="none" xmlns="http://www.w3.org/2000/svg" xmlns:xlink="http://www.w3.org/1999/xlink">
	<desc>
			Created with Pixso.
	</desc>
	<defs>
		<clipPath id="clip11342_1412">
			<rect id="Icon-phone" width="24.000000" height="24.000000" fill="white" fill-opacity="0"/>
		</clipPath>
	</defs>
	<rect id="Icon-phone" width="24.000000" height="24.000000" fill="#FFFFFF" fill-opacity="0"/>
	<g clip-path="url(#clip11342_1412)">
		<path id="Vector" d="M21 16.42L21 19.9561C21 20.2092 20.9043 20.453 20.7314 20.6382C20.5591 20.8234 20.3228 20.9363 20.0698 20.954C19.6328 20.984 19.2759 21 19 21C10.1631 21 3 13.837 3 5C3 4.724 3.01514 4.36694 3.0459 3.93005C3.06396 3.67749 3.17676 3.44104 3.36182 3.26843C3.54688 3.09583 3.79102 2.99988 4.04395 3L7.58008 3C7.7041 2.99988 7.82373 3.0459 7.91553 3.12903C8.00781 3.21216 8.06543 3.32654 8.07812 3.44995C8.10107 3.68005 8.12207 3.86304 8.14209 4.00195C8.34082 5.38892 8.74805 6.73779 9.3501 8.00305C9.44482 8.203 9.38281 8.44202 9.20312 8.56995L7.04492 10.1121C8.36426 13.1864 10.8145 15.6366 13.8892 16.9561L15.4292 14.802C15.4922 14.714 15.584 14.6509 15.6885 14.6237C15.793 14.5964 15.9043 14.6068 16.002 14.653C17.2671 15.2539 18.6157 15.6602 20.002 15.858C20.1411 15.8781 20.3242 15.9 20.5518 15.922C20.6753 15.9347 20.7896 15.9926 20.8726 16.0846C20.9551 16.1766 21.001 16.2961 21.001 16.42L21 16.42Z" fill="#F9512E" fill-opacity="1.000000" fill-rule="nonzero"/>
	</g>
</svg>
