<svg width="136.000000" height="32.000000" viewBox="0 0 136 32" fill="none" xmlns="http://www.w3.org/2000/svg" xmlns:xlink="http://www.w3.org/1999/xlink">
	<desc>
			Created with Pixso.
	</desc>
	<defs>
		<clipPath id="clip11342_1739">
			<rect id="Logo" width="136.000000" height="32.000000" fill="white" fill-opacity="0"/>
		</clipPath>
	</defs>
	<g clip-path="url(#clip11342_1739)">
		<path id="Bakerlab" d="M46.6919 4L46.6919 24C46.6919 25.76 46.8535 27.04 48.0195 27.3281L48.0195 27.8721L41.3491 27.8721L41.3491 27.3281C42.5796 26.9761 42.644 25.6321 42.644 24L42.644 7.80811C42.644 6.68799 42.3203 6.20801 41.0249 5.72803L41.0249 5.18408L46.6919 4ZM94.6406 4L94.6406 24C94.6406 25.76 94.8027 27.04 95.936 27.3281L95.936 27.8721L89.2979 27.8721L89.2979 27.3281C90.5283 26.9761 90.5933 25.6321 90.5933 24L90.5933 7.80811C90.5933 6.68799 90.269 6.20801 88.9741 5.72803L88.9741 5.18408L94.6406 4ZM119.995 15.52C121.031 13.6001 123.427 12.8 124.981 12.8C128.608 12.8 131.846 15.616 131.846 20.6721C131.846 25.824 128.414 28.1599 123.88 28.1599C121.938 28.1599 120.221 27.584 119.153 26.5281C117.987 27.52 115.979 28.2241 115.979 27.7119L115.979 7.77588C115.979 6.68799 115.656 6.20801 114.328 5.72803L114.328 5.18408L119.995 4L119.995 15.52ZM20.627 10.7839C20.627 15.552 15.4785 16.3201 14.8306 16.3201C16.9355 16.3201 22.1489 16.6721 22.1489 22.144C22.1489 27.7439 17.5186 27.8721 11.9165 27.8721L4.04785 27.8721L4.04785 27.584C5.44043 27.584 5.92578 25.6641 5.92578 23.488L5.92578 9.76001C5.92578 7.77588 5.47266 5.6001 4.04785 5.6001L4.04785 5.34399L11.9165 5.34399C12.0605 5.34399 12.2041 5.34375 12.3477 5.34351C16.6826 5.33765 20.627 5.33228 20.627 10.7839ZM16.126 10.72C16.126 5.9519 13.4385 5.88794 11.9165 5.88794L10.6538 5.88794L10.6538 16.1919L11.9165 16.1919C13.665 16.1919 16.126 15.4561 16.126 10.72ZM37.4194 23.978C37.4194 24.1401 37.4497 26.208 38.9741 26.208C38.9741 26.208 39.6538 26.208 39.8481 25.6641L40.3989 25.8879C40.1396 26.9121 38.6504 28.1599 36.6104 28.1599C36.6104 28.1599 33.7285 28.1599 33.3721 25.5681C32.8862 26.9761 30.9761 28.1599 28.6768 28.1599C28.6768 28.1599 24.9531 28.1599 24.9531 24.896C24.9531 21.408 27.6729 21.0879 33.3398 19.6799L33.3398 17.696C33.3398 14.3679 31.4614 12.7041 29.2275 13.856C28.4648 14.2327 28.1934 14.6267 28.1934 14.8215C28.1934 14.8914 28.2285 14.9355 28.2881 14.9441C28.7739 15.0081 29.1948 15.2319 29.4863 15.6479C29.7061 15.9617 29.811 16.3164 29.811 16.6675C29.811 17.2473 29.5249 17.8171 29.0005 18.176C28.1587 18.72 27.0254 18.5281 26.4424 17.696C26.2305 17.3643 26.1245 16.9851 26.1245 16.6206C26.1245 16.3169 26.1982 16.0232 26.3452 15.7761C26.6694 15.2319 27.0903 14.3679 28.8711 13.4399C30.3281 12.6721 32.0122 12.8 32.0122 12.8C36.2539 12.8 37.4199 15.4241 37.4199 19.2L37.4199 23.968L37.4194 23.978ZM110.593 23.978C110.593 24.1404 110.623 26.208 112.147 26.208C112.147 26.208 112.827 26.208 113.021 25.6641L113.572 25.8879C113.313 26.9121 111.824 28.1599 109.784 28.1599C109.784 28.1599 106.902 28.1599 106.545 25.5681C106.06 26.9761 104.149 28.1599 101.85 28.1599C101.85 28.1599 98.1265 28.1599 98.1265 24.896C98.1265 21.408 100.846 21.0879 106.513 19.6799L106.513 17.696C106.513 14.3679 104.635 12.7041 102.401 13.856C101.638 14.2327 101.367 14.6267 101.367 14.8215C101.367 14.8914 101.402 14.9355 101.461 14.9441C101.947 15.0081 102.368 15.2319 102.66 15.6479C102.879 15.9617 102.984 16.3164 102.984 16.6675C102.984 17.2473 102.698 17.8171 102.174 18.176C101.332 18.72 100.199 18.5281 99.6157 17.696C99.4038 17.3643 99.2979 16.9851 99.2979 16.6206C99.2979 16.3169 99.3716 16.0232 99.5186 15.7761C99.8428 15.2319 100.264 14.3679 102.044 13.4399C103.501 12.6721 105.186 12.8 105.186 12.8C109.427 12.8 110.593 15.4241 110.593 19.2L110.593 23.968L110.593 23.978ZM58.6582 20.5439C58.6582 16.032 61.7671 12.8 66.2354 12.8C70.9307 12.8 73.1328 15.2 73.1328 20.1919L62.8354 20.1919C63.0947 23.3281 64.7134 24.96 66.8833 25.4399C68.6318 25.824 71.2222 25.1841 72.0317 23.6799L72.582 23.968C72.064 25.6321 70.1533 28.1599 65.8145 28.1599C61.5728 28.1599 58.6582 24.2881 58.6582 20.5439ZM80.626 16.416C82.3423 13.76 83.6699 13.28 84.4468 12.96C85.127 12.6721 86.3574 12.8 87.0698 13.376C87.6147 13.8452 87.8926 14.5125 87.8926 15.1782C87.8926 15.7383 87.6958 16.2974 87.2964 16.7361C86.4224 17.728 84.9326 17.856 83.8965 16.9919C83.4106 16.5439 83.1519 16 83.1519 15.4241C83.1519 15.072 81.8242 15.3921 80.626 17.312L80.626 23.968C80.626 25.76 80.7881 27.0081 81.9536 27.3281L81.9536 27.8721L75.251 27.8721L75.251 27.3281C76.5137 26.9441 76.5459 25.6321 76.5459 23.968L76.5459 16.864C76.5459 15.7761 76.2544 15.2959 74.9268 14.624L74.9268 14.0801L80.626 12.8L80.626 16.416ZM50.4805 19.04C55.2729 25.728 55.3374 25.728 55.3374 25.728C56.4062 27.2 57.8633 27.2959 58.4136 27.3281L58.4136 27.8721L53.8481 27.8721C51.6138 27.8721 51.3223 27.2959 49.1528 24.0959C48.1812 22.688 47.3394 21.408 47.3394 21.408L50.3833 18.144C50.3833 18.144 52.5718 15.9509 52.5718 14.6218C52.5718 14.0176 52.1196 13.592 50.8042 13.6321L50.8042 13.0879L58.6729 13.0879L58.6729 13.6321C58.0898 13.696 54.7871 13.792 50.4805 19.04ZM66.0737 13.344C64.1631 13.344 62.8354 16.5759 62.8354 19.6479L69.1821 19.6479C69.1821 15.616 67.8545 13.344 66.0737 13.344ZM119.995 22.272C119.995 26.304 122.002 27.616 123.848 27.616C126.212 27.616 127.216 25.824 127.216 20.928C127.216 15.8081 126.018 14.144 123.362 14.144C121.16 14.144 119.995 15.936 119.995 18.208L119.995 22.272ZM10.6538 27.3281L11.9165 27.3281L12.0142 27.3281C14.7944 27.3289 17.3887 27.3293 17.3887 21.9839C17.3887 16.896 14.0859 16.7361 11.9165 16.7361L10.6538 16.7361L10.6538 27.3281ZM31.2026 26.208C32.3037 26.208 33.0483 25.344 33.3398 24.5759L33.3398 20.2561C30.1665 20.96 29.0977 22.4641 29.0977 24.0959C29.0977 24.0959 29.0977 26.208 31.2026 26.208ZM104.376 26.208C105.477 26.208 106.222 25.344 106.513 24.5759L106.513 20.2561C103.34 20.96 102.271 22.4641 102.271 24.0959C102.271 24.0959 102.271 26.208 104.376 26.208Z" fill="#1C1A26" fill-opacity="1.000000" fill-rule="evenodd"/>
	</g>
</svg>
