<svg width="31" height="31" viewBox="0 0 31 31" fill="none" xmlns="http://www.w3.org/2000/svg">
<rect width="31" height="31" fill="#E5E5E5"/>
<g clip-path="url(#clip0)">
<rect width="1440" height="5790" transform="translate(-1350 -5709)" fill="white"/>
<rect x="-1350" y="-76" width="1440" height="157" fill="#412D22"/>
<path d="M15.5 31.001C24.0604 31.001 31 24.0614 31 15.501C31 6.94056 24.0604 0.000976562 15.5 0.000976562C6.93959 0.000976562 0 6.94056 0 15.501C0 24.0614 6.93959 31.001 15.5 31.001Z" fill="white"/>
<path d="M24.7612 16.749V23.1393H21.0562V17.1773C21.0562 15.6803 20.5213 14.658 19.1798 14.658C18.1561 14.658 17.548 15.3462 17.2794 16.0127C17.1819 16.2508 17.1568 16.5816 17.1568 16.9156V23.1391H13.4516C13.4516 23.1391 13.5013 13.0413 13.4516 11.9961H17.157V13.5751C17.1496 13.5876 17.1391 13.5997 17.1324 13.6116H17.157V13.5751C17.6494 12.8175 18.5275 11.7344 20.4962 11.7344C22.9337 11.7344 24.7612 13.327 24.7612 16.749ZM9.57558 6.62476C8.30819 6.62476 7.479 7.4567 7.479 8.54975C7.479 9.6196 8.28415 10.4756 9.52696 10.4756H9.55099C10.8433 10.4756 11.6467 9.6196 11.6467 8.54975C11.6222 7.4567 10.8433 6.62476 9.57558 6.62476ZM7.69922 23.1393H11.403V11.9961H7.69922V23.1393Z" fill="#412D22"/>
</g>
<defs>
<clipPath id="clip0">
<rect width="1440" height="5790" fill="white" transform="translate(-1350 -5709)"/>
</clipPath>
</defs>
</svg>
