<svg width="128" height="25" viewBox="0 0 128 25" fill="none" xmlns="http://www.w3.org/2000/svg">
<path d="M10.8305 12.32C11.4781 12.32 16.6267 11.552 16.6267 6.784C16.6267 1.152 12.4171 1.344 7.91618 1.344H0.0476074V1.6C1.47237 1.6 1.9257 3.776 1.9257 5.76V19.488C1.9257 21.664 1.43999 23.584 0.0476074 23.584V23.872H7.91618C13.5181 23.872 18.1486 23.744 18.1486 18.144C18.1486 12.672 12.9352 12.32 10.8305 12.32ZM7.91618 1.888C9.43808 1.888 12.1257 1.952 12.1257 6.72C12.1257 11.456 9.66475 12.192 7.91618 12.192H6.65332V1.888H7.91618ZM7.91618 23.328H6.65332V12.736H7.91618C10.0857 12.736 13.3886 12.896 13.3886 17.984C13.3886 23.392 10.7333 23.328 7.91618 23.328Z" fill="#1C1A26"/>
<path d="M29.3395 20.576C29.048 21.344 28.3033 22.208 27.2023 22.208C25.0976 22.208 25.0976 20.096 25.0976 20.096C25.0976 18.464 26.1661 16.96 29.3395 16.256C29.3395 16.256 29.3395 20.512 29.3395 20.576ZM34.9738 22.208C33.3871 22.208 33.4195 19.968 33.4195 19.968V15.2C33.4195 11.424 32.2538 8.8 28.0119 8.8C28.0119 8.8 26.328 8.672 24.8709 9.44C23.0899 10.368 22.669 11.232 22.3452 11.776C22.0214 12.32 22.0538 13.088 22.4423 13.696C23.0252 14.528 24.1585 14.72 25.0004 14.176C25.8423 13.6 26.069 12.48 25.4861 11.648C25.1947 11.232 24.7738 11.008 24.288 10.944C24.0614 10.912 24.1909 10.368 25.2271 9.856C27.4614 8.704 29.3395 10.368 29.3395 13.696V15.68C23.6728 17.088 20.9528 17.408 20.9528 20.896C20.9528 24.16 24.6766 24.16 24.6766 24.16C26.9757 24.16 28.8861 22.976 29.3719 21.568C29.728 24.16 32.6099 24.16 32.6099 24.16C34.6499 24.16 36.1395 22.912 36.3985 21.888L35.848 21.664C35.6538 22.208 34.9738 22.208 34.9738 22.208Z" fill="#1C1A26"/>
<path d="M42.6916 20V0L37.0249 1.184V1.728C38.3201 2.208 38.6439 2.688 38.6439 3.808V20C38.6439 21.632 38.5792 22.976 37.3487 23.328V23.872H44.0192V23.328C42.8535 23.04 42.6916 21.76 42.6916 20ZM51.3373 21.728C51.3373 21.728 51.2725 21.728 46.4801 15.04C50.7868 9.792 54.0896 9.696 54.6725 9.632V9.088H46.8039V9.632C51.0135 9.504 46.383 14.144 46.383 14.144L43.3392 17.408C43.3392 17.408 44.1811 18.688 45.1525 20.096C47.322 23.296 47.6135 23.872 49.8477 23.872H54.4135V23.328C53.863 23.296 52.4058 23.2 51.3373 21.728Z" fill="#1C1A26"/>
<path d="M58.8352 15.648C58.8352 12.576 60.1628 9.344 62.0733 9.344C63.8543 9.344 65.1819 11.616 65.1819 15.648H58.8352ZM62.2352 8.8C57.7667 8.8 54.6581 12.032 54.6581 16.544C54.6581 20.288 57.5724 24.16 61.8143 24.16C66.1533 24.16 68.0638 21.632 68.5819 19.968L68.0314 19.68C67.2219 21.184 64.6314 21.824 62.8828 21.44C60.7133 20.96 59.0943 19.328 58.8352 16.192H69.1324C69.1324 11.2 66.9305 8.8 62.2352 8.8Z" fill="#1C1A26"/>
<path d="M80.4467 8.96C79.6696 9.28 78.342 9.76 76.6258 12.416V8.8L70.9267 10.08V10.624C72.2543 11.296 72.5458 11.776 72.5458 12.864V19.968C72.5458 21.632 72.5134 22.944 71.2505 23.328V23.872H77.9534V23.328C76.7877 23.008 76.6258 21.76 76.6258 19.968V13.312C77.8239 11.392 79.1515 11.072 79.1515 11.424C79.1515 12 79.4105 12.544 79.8962 12.992C80.9324 13.856 82.422 13.728 83.2963 12.736C84.1705 11.776 84.0734 10.24 83.0696 9.376C82.3572 8.8 81.1267 8.672 80.4467 8.96Z" fill="#1C1A26"/>
<path d="M90.6404 20V0L84.9737 1.184V1.728C86.269 2.208 86.5928 2.688 86.5928 3.808V20C86.5928 21.632 86.528 22.976 85.2975 23.328V23.872H91.9356V23.328C90.8023 23.04 90.6404 21.76 90.6404 20Z" fill="#1C1A26"/>
<path d="M102.513 20.576C102.221 21.344 101.477 22.208 100.376 22.208C98.2709 22.208 98.2709 20.096 98.2709 20.096C98.2709 18.464 99.3395 16.96 102.513 16.256C102.513 16.256 102.513 20.512 102.513 20.576ZM108.147 22.208C106.56 22.208 106.593 19.968 106.593 19.968V15.2C106.593 11.424 105.427 8.8 101.185 8.8C101.185 8.8 99.5014 8.672 98.0443 9.44C96.2633 10.368 95.8424 11.232 95.5185 11.776C95.1947 12.32 95.2271 13.088 95.6157 13.696C96.1985 14.528 97.3319 14.72 98.1738 14.176C99.0157 13.6 99.2424 12.48 98.6595 11.648C98.3681 11.232 97.9471 11.008 97.4614 10.944C97.2347 10.912 97.3643 10.368 98.4004 9.856C100.635 8.704 102.513 10.368 102.513 13.696V15.68C96.8462 17.088 94.1262 17.408 94.1262 20.896C94.1262 24.16 97.85 24.16 97.85 24.16C100.149 24.16 102.06 22.976 102.545 21.568C102.901 24.16 105.783 24.16 105.783 24.16C107.823 24.16 109.313 22.912 109.572 21.888L109.021 21.664C108.827 22.208 108.147 22.208 108.147 22.208Z" fill="#1C1A26"/>
<path d="M119.848 23.616C118.002 23.616 115.994 22.304 115.994 18.272V14.208C115.994 11.936 117.16 10.144 119.362 10.144C122.017 10.144 123.215 11.808 123.215 16.928C123.215 21.824 122.212 23.616 119.848 23.616ZM120.981 8.8C119.427 8.8 117.031 9.6 115.994 11.52V0L110.328 1.184V1.728C111.655 2.208 111.979 2.688 111.979 3.776V23.712C111.979 24.224 113.987 23.52 115.153 22.528C116.221 23.584 117.937 24.16 119.88 24.16C124.413 24.16 127.846 21.824 127.846 16.672C127.846 11.616 124.608 8.8 120.981 8.8Z" fill="#1C1A26"/>
</svg>
