<svg width="158" height="31" viewBox="0 0 158 31" fill="none" xmlns="http://www.w3.org/2000/svg">
<path d="M13.32 15.4C14.12 15.4 20.48 14.44 20.48 8.48C20.48 1.44 15.28 1.68 9.72 1.68H0V2C1.76 2 2.32 4.72 2.32 7.2V24.36C2.32 27.08 1.72 29.48 0 29.48V29.84H9.72C16.64 29.84 22.36 29.68 22.36 22.68C22.36 15.84 15.92 15.4 13.32 15.4ZM9.72 2.36C11.6 2.36 14.92 2.44 14.92 8.4C14.92 14.32 11.88 15.24 9.72 15.24H8.16V2.36H9.72ZM9.72 29.16H8.16V15.92H9.72C12.4 15.92 16.48 16.12 16.48 22.48C16.48 29.24 13.2 29.16 9.72 29.16Z" fill="#fff"/>
<path d="M36.1841 25.72C35.8241 26.68 34.9041 27.76 33.5441 27.76C30.9441 27.76 30.9441 25.12 30.9441 25.12C30.9441 23.08 32.2641 21.2 36.1841 20.32C36.1841 20.32 36.1841 25.64 36.1841 25.72ZM43.1441 27.76C41.1841 27.76 41.2241 24.96 41.2241 24.96V19C41.2241 14.28 39.7841 11 34.5441 11C34.5441 11 32.4641 10.84 30.6641 11.8C28.4641 12.96 27.9441 14.04 27.5441 14.72C27.1441 15.4 27.1841 16.36 27.6641 17.12C28.3841 18.16 29.7841 18.4 30.8241 17.72C31.8641 17 32.1441 15.6 31.4241 14.56C31.0641 14.04 30.5441 13.76 29.9441 13.68C29.6641 13.64 29.8241 12.96 31.1041 12.32C33.8641 10.88 36.1841 12.96 36.1841 17.12V19.6C29.1841 21.36 25.8241 21.76 25.8241 26.12C25.8241 30.2 30.4241 30.2 30.4241 30.2C33.2641 30.2 35.6241 28.72 36.2241 26.96C36.6641 30.2 40.2241 30.2 40.2241 30.2C42.7441 30.2 44.5841 28.64 44.9041 27.36L44.2241 27.08C43.9841 27.76 43.1441 27.76 43.1441 27.76Z" fill="#fff"/>
<path d="M52.6778 25V0L45.6778 1.48V2.16C47.2778 2.76 47.6778 3.36 47.6778 4.76V25C47.6778 27.04 47.5978 28.72 46.0778 29.16V29.84H54.3178V29.16C52.8778 28.8 52.6778 27.2 52.6778 25ZM63.3578 27.16C63.3578 27.16 63.2778 27.16 57.3578 18.8C62.6778 12.24 66.7578 12.12 67.4778 12.04V11.36H57.7578V12.04C62.9578 11.88 57.2378 17.68 57.2378 17.68L53.4778 21.76C53.4778 21.76 54.5178 23.36 55.7178 25.12C58.3978 29.12 58.7578 29.84 61.5178 29.84H67.1578V29.16C66.4778 29.12 64.6778 29 63.3578 27.16Z" fill="#fff"/>
<path d="M72.62 19.56C72.62 15.72 74.26 11.68 76.62 11.68C78.82 11.68 80.46 14.52 80.46 19.56H72.62ZM76.82 11C71.3 11 67.46 15.04 67.46 20.68C67.46 25.36 71.06 30.2 76.3 30.2C81.66 30.2 84.02 27.04 84.66 24.96L83.98 24.6C82.98 26.48 79.78 27.28 77.62 26.8C74.94 26.2 72.94 24.16 72.62 20.24H85.34C85.34 14 82.62 11 76.82 11Z" fill="#fff"/>
<path d="M99.3166 11.2C98.3566 11.6 96.7166 12.2 94.5966 15.52V11L87.5566 12.6V13.28C89.1966 14.12 89.5566 14.72 89.5566 16.08V24.96C89.5566 27.04 89.5166 28.68 87.9566 29.16V29.84H96.2366V29.16C94.7966 28.76 94.5966 27.2 94.5966 24.96V16.64C96.0766 14.24 97.7166 13.84 97.7166 14.28C97.7166 15 98.0366 15.68 98.6366 16.24C99.9166 17.32 101.757 17.16 102.837 15.92C103.917 14.72 103.797 12.8 102.557 11.72C101.677 11 100.157 10.84 99.3166 11.2Z" fill="#fff"/>
<path d="M111.909 25V0L104.909 1.48V2.16C106.509 2.76 106.909 3.36 106.909 4.76V25C106.909 27.04 106.829 28.72 105.309 29.16V29.84H113.509V29.16C112.109 28.8 111.909 27.2 111.909 25Z" fill="#fff"/>
<path d="M126.575 25.72C126.215 26.68 125.295 27.76 123.935 27.76C121.335 27.76 121.335 25.12 121.335 25.12C121.335 23.08 122.655 21.2 126.575 20.32C126.575 20.32 126.575 25.64 126.575 25.72ZM133.535 27.76C131.575 27.76 131.615 24.96 131.615 24.96V19C131.615 14.28 130.175 11 124.935 11C124.935 11 122.855 10.84 121.055 11.8C118.855 12.96 118.335 14.04 117.935 14.72C117.535 15.4 117.575 16.36 118.055 17.12C118.775 18.16 120.175 18.4 121.215 17.72C122.255 17 122.535 15.6 121.815 14.56C121.455 14.04 120.935 13.76 120.335 13.68C120.055 13.64 120.215 12.96 121.495 12.32C124.255 10.88 126.575 12.96 126.575 17.12V19.6C119.575 21.36 116.215 21.76 116.215 26.12C116.215 30.2 120.815 30.2 120.815 30.2C123.655 30.2 126.015 28.72 126.615 26.96C127.055 30.2 130.615 30.2 130.615 30.2C133.135 30.2 134.975 28.64 135.295 27.36L134.615 27.08C134.375 27.76 133.535 27.76 133.535 27.76Z" fill="#fff"/>
<path d="M147.988 29.52C145.708 29.52 143.228 27.88 143.228 22.84V17.76C143.228 14.92 144.668 12.68 147.388 12.68C150.668 12.68 152.148 14.76 152.148 21.16C152.148 27.28 150.908 29.52 147.988 29.52ZM149.388 11C147.468 11 144.508 12 143.228 14.4V0L136.228 1.48V2.16C137.868 2.76 138.268 3.36 138.268 4.72V29.64C138.268 30.28 140.748 29.4 142.188 28.16C143.508 29.48 145.628 30.2 148.028 30.2C153.628 30.2 157.868 27.28 157.868 20.84C157.868 14.52 153.868 11 149.388 11Z" fill="#fff"/>
</svg>
