<svg width="83" height="22" viewBox="0 0 83 22" fill="none" xmlns="http://www.w3.org/2000/svg">
<path d="M7.65 18.23C8.73 18.23 9.68 17.85 10.5 17.09C11.34 16.33 11.76 15.46 11.76 14.48C11.76 13.48 11.45 12.56 10.83 11.72C10.15 12.06 9.48 12.23 8.82 12.23C7.28 12.23 6.51 11.75 6.51 10.79C6.51 10.51 6.7 10.26 7.08 10.04C7.46 9.80001 8 9.68001 8.7 9.68001C9.42 9.68001 10.2 9.89001 11.04 10.31C11.84 9.45001 12.24 8.48001 12.24 7.40001C12.24 6.06001 11.65 5.00001 10.47 4.22001C9.31 3.42001 8.06 3.02001 6.72 3.02001C6.44 3.02001 6.23 3.03001 6.09 3.05001C6.07 3.63001 6.02 4.56001 5.94 5.84001C5.82 7.76001 5.76 10.69 5.76 14.63C5.76 16.15 5.65 16.91 5.43 16.91C4.57 16.91 4.02 16.79 3.78 16.55C3.54 16.31 3.42 15.62 3.42 14.48C3.42 14.2 3.47 13.05 3.57 11.03C3.69 9.01001 3.75 7.38001 3.75 6.14001C3.75 4.90001 3.79 3.99001 3.87 3.41001C2.81 3.77001 2.24 4.35001 2.16 5.15001C2.08 5.81001 1.93 6.27001 1.71 6.53001C1.51 6.79001 1.23 6.92001 0.87 6.92001C0.53 6.92001 0.3 6.83001 0.18 6.65001C0.06 6.45001 0 6.25001 0 6.05001C0 4.31001 1.35 3.11001 4.05 2.45001C4.39 1.09001 4.93 0.41001 5.67 0.41001C5.97 0.41001 6.12 0.97001 6.12 2.09001C6.64 2.03001 7.28 2.00001 8.04 2.00001C8.82 2.00001 9.71 2.15001 10.71 2.45001C11.71 2.73001 12.58 3.24001 13.32 3.98001C14.06 4.70001 14.43 5.51001 14.43 6.41001C14.43 8.09001 13.62 9.60001 12 10.94C13.12 11.82 13.68 12.87 13.68 14.09C13.68 15.31 13.3 16.32 12.54 17.12C11.12 18.58 9.22 19.31 6.84 19.31C5.22 19.31 4.06 19.2 3.36 18.98C3.22 18.94 3.07 18.84 2.91 18.68C2.77 18.5 2.7 18.28 2.7 18.02C2.7 17.6 3.11 17.39 3.93 17.39C4.19 17.39 4.76 17.53 5.64 17.81C6.52 18.09 7.19 18.23 7.65 18.23ZM10.2 11.06C9.6 10.56 9.03 10.31 8.49 10.31C7.97 10.31 7.71 10.42 7.71 10.64C7.71 11.1 8.2 11.33 9.18 11.33C9.54 11.33 9.88 11.24 10.2 11.06ZM23.6058 19.16C22.8258 19.16 22.2358 19 21.8358 18.68C21.6958 18.54 21.6258 18.19 21.6258 17.63C21.6258 17.05 21.6458 16.28 21.6858 15.32C21.1658 16.62 20.6458 17.59 20.1258 18.23C19.6258 18.85 18.9758 19.16 18.1758 19.16C17.3758 19.16 16.6758 18.79 16.0758 18.05C15.4758 17.29 15.1758 16.11 15.1758 14.51C15.1758 12.89 15.6258 11.46 16.5258 10.22C17.4458 8.98001 18.6458 8.36001 20.1258 8.36001C20.7658 8.36001 21.4858 8.78001 22.2858 9.62001C22.4458 9.40001 22.7258 9.14001 23.1258 8.84001C23.5458 8.52001 23.8958 8.36001 24.1758 8.36001C24.4758 8.36001 24.6258 8.74001 24.6258 9.50001C24.6258 9.70001 24.5658 10.09 24.4458 10.67C24.3458 11.25 24.2258 11.67 24.0858 11.93C23.9058 12.39 23.8158 14.02 23.8158 16.82C23.8158 17.36 23.8758 17.63 23.9958 17.63C24.3358 17.61 24.8058 17.19 25.4058 16.37C26.0058 15.53 26.5958 14.46 27.1758 13.16C27.7758 11.86 28.1358 11.21 28.2558 11.21C28.3958 11.21 28.4658 11.29 28.4658 11.45C28.4658 12.01 28.1758 12.9 27.5958 14.12C26.0158 17.48 24.6858 19.16 23.6058 19.16ZM19.9458 9.56001C19.3858 9.56001 18.7858 9.98001 18.1458 10.82C17.5258 11.64 17.2158 12.61 17.2158 13.73C17.2158 14.85 17.3758 15.77 17.6958 16.49C18.0358 17.21 18.4758 17.57 19.0158 17.57C19.6758 17.57 20.6458 15.92 21.9258 12.62C21.9458 12.46 21.9658 12.19 21.9858 11.81C22.0258 11.41 22.0558 11.11 22.0758 10.91C21.8958 10.59 21.5758 10.29 21.1158 10.01C20.6758 9.71001 20.2858 9.56001 19.9458 9.56001ZM36.3202 20.06L37.1302 19.97C37.2902 19.97 37.3702 20.05 37.3702 20.21C37.3702 20.49 37.1802 20.7 36.8002 20.84C36.4202 20.98 35.9902 21.05 35.5102 21.05C34.6102 21.05 33.8502 20.69 33.2302 19.97C32.6302 19.25 31.7902 17.92 30.7102 15.98C30.4502 15.56 30.3202 15.24 30.3202 15.02C30.3202 14.72 30.7402 14.37 31.5802 13.97C32.9402 13.27 33.6202 12.39 33.6202 11.33C33.6202 11.03 33.5102 10.78 33.2902 10.58C33.0902 10.36 32.8202 10.25 32.4802 10.25C32.0002 10.25 31.4302 10.82 30.7702 11.96C30.1102 13.08 29.6602 14.14 29.4202 15.14C29.2002 16.12 29.0902 17.18 29.0902 18.32C29.0902 18.88 28.9302 19.16 28.6102 19.16C28.1502 19.16 27.7102 19.1 27.2902 18.98C26.8702 18.84 26.6602 18.67 26.6602 18.47C26.6602 18.25 26.7402 17.3 26.9002 15.62C27.0602 13.92 27.1502 12.7 27.1702 11.96C27.2502 7.88001 27.4902 4.76001 27.8902 2.60001C27.9502 2.42001 28.2202 2.11001 28.7002 1.67001C29.2002 1.23001 29.6002 1.01001 29.9002 1.01001C30.2002 1.01001 30.3402 1.39001 30.3202 2.15001C30.3202 2.89001 30.1602 4.49001 29.8402 6.95001C29.5202 9.41001 29.3202 11.66 29.2402 13.7C29.6002 12.42 30.1702 11.21 30.9502 10.07C31.7502 8.93001 32.5502 8.36001 33.3502 8.36001C34.7102 8.36001 35.3902 9.02001 35.3902 10.34C35.3902 11.22 35.1302 12.02 34.6102 12.74C34.0902 13.44 33.3902 14.01 32.5102 14.45C32.3302 14.53 32.2402 14.62 32.2402 14.72C32.2402 14.82 32.2702 14.92 32.3302 15.02C33.5902 17.24 34.6602 18.8 35.5402 19.7C35.7802 19.94 36.0402 20.06 36.3202 20.06ZM40.6034 19.16C39.4834 19.16 38.5934 18.74 37.9334 17.9C37.2734 17.04 36.9434 16.07 36.9434 14.99C36.9434 12.81 37.4034 11.16 38.3234 10.04C39.2434 8.92001 40.4334 8.36001 41.8934 8.36001C42.5734 8.36001 43.1334 8.55001 43.5734 8.93001C44.0134 9.29001 44.2334 9.79001 44.2334 10.43C44.2334 11.63 43.7234 12.64 42.7034 13.46C41.7034 14.26 40.4734 14.68 39.0134 14.72C39.0934 15.5 39.3534 16.18 39.7934 16.76C40.2534 17.32 40.7834 17.6 41.3834 17.6C41.9834 17.6 42.5234 17.46 43.0034 17.18C43.4834 16.9 43.9234 16.5 44.3234 15.98C45.1634 14.88 45.8834 13.63 46.4834 12.23C46.6434 11.87 46.7634 11.61 46.8434 11.45C46.9434 11.29 47.0434 11.21 47.1434 11.21C47.2634 11.21 47.3234 11.29 47.3234 11.45C47.3234 12.45 46.7134 13.95 45.4934 15.95C44.1734 18.09 42.5434 19.16 40.6034 19.16ZM39.0134 14C40.1934 13.8 41.0534 13.42 41.5934 12.86C42.1534 12.3 42.4334 11.57 42.4334 10.67C42.4334 9.77001 42.1434 9.32001 41.5634 9.32001C40.8634 9.32001 40.2734 9.81001 39.7934 10.79C39.3134 11.75 39.0534 12.82 39.0134 14ZM48.3424 11.18L49.9924 11C50.1524 11 50.2924 11.09 50.4124 11.27C50.5324 11.45 50.5924 11.64 50.5924 11.84C50.5924 12.04 50.5224 12.72 50.3824 13.88C50.2624 15.04 50.2024 15.96 50.2024 16.64C50.2024 17.3 50.2624 17.63 50.3824 17.63C50.7224 17.61 51.1924 17.19 51.7924 16.37C52.3924 15.53 52.9824 14.46 53.5624 13.16C54.1624 11.86 54.5224 11.21 54.6424 11.21C54.7824 11.21 54.8524 11.29 54.8524 11.45C54.8524 12.01 54.5624 12.9 53.9824 14.12C52.4024 17.48 51.0724 19.16 49.9924 19.16C49.2124 19.16 48.6224 19 48.2224 18.68C48.0824 18.54 48.0124 17.67 48.0124 16.07C48.0124 14.47 48.1824 13.1 48.5224 11.96C47.3624 11.96 46.5524 11.59 46.0924 10.85C45.8524 10.47 45.7324 10.04 45.7324 9.56001C45.7324 9.08001 45.8324 8.66001 46.0324 8.30001C46.2324 7.94001 46.5124 7.76001 46.8724 7.76001C47.2524 7.76001 47.5924 7.96001 47.8924 8.36001C48.2124 8.74001 48.3724 9.17001 48.3724 9.65001C48.3724 10.13 48.2324 10.61 47.9524 11.09C48.0324 11.15 48.1624 11.18 48.3424 11.18ZM55.5689 19.16C55.1289 19.16 54.7189 19.11 54.3389 19.01C53.9789 18.89 53.7589 18.78 53.6789 18.68C53.4789 18.44 53.3789 17.2 53.3789 14.96C53.3789 12.7 53.6289 9.64001 54.1289 5.78001C54.5489 2.60001 55.5289 1.01001 57.0689 1.01001C57.4289 1.01001 57.6889 1.21001 57.8489 1.61001C58.0089 1.99001 58.0889 2.36001 58.0889 2.72001C58.0889 5.32001 57.2989 8.23001 55.7189 11.45C55.6589 13.11 55.6289 14.56 55.6289 15.8C55.6289 17.02 55.7389 17.63 55.9589 17.63C56.2989 17.61 56.7689 17.19 57.3689 16.37C57.9689 15.53 58.5589 14.46 59.1389 13.16C59.7389 11.86 60.0989 11.21 60.2189 11.21C60.3589 11.21 60.4289 11.29 60.4289 11.45C60.4289 12.01 60.1389 12.9 59.5589 14.12C57.9789 17.48 56.6489 19.16 55.5689 19.16ZM57.3389 2.99001C57.3389 2.35001 57.2589 2.03001 57.0989 2.03001C56.4989 2.03001 56.0589 4.52001 55.7789 9.50001C56.8189 6.76001 57.3389 4.59001 57.3389 2.99001ZM67.053 19.16C66.273 19.16 65.683 19 65.283 18.68C65.143 18.54 65.073 18.19 65.073 17.63C65.073 17.05 65.093 16.28 65.133 15.32C64.613 16.62 64.093 17.59 63.573 18.23C63.073 18.85 62.423 19.16 61.623 19.16C60.823 19.16 60.123 18.79 59.523 18.05C58.923 17.29 58.623 16.11 58.623 14.51C58.623 12.89 59.073 11.46 59.973 10.22C60.893 8.98001 62.093 8.36001 63.573 8.36001C64.213 8.36001 64.933 8.78001 65.733 9.62001C65.893 9.40001 66.173 9.14001 66.573 8.84001C66.993 8.52001 67.343 8.36001 67.623 8.36001C67.923 8.36001 68.073 8.74001 68.073 9.50001C68.073 9.70001 68.013 10.09 67.893 10.67C67.793 11.25 67.673 11.67 67.533 11.93C67.353 12.39 67.263 14.02 67.263 16.82C67.263 17.36 67.323 17.63 67.443 17.63C67.783 17.61 68.253 17.19 68.853 16.37C69.453 15.53 70.043 14.46 70.623 13.16C71.223 11.86 71.583 11.21 71.703 11.21C71.843 11.21 71.913 11.29 71.913 11.45C71.913 12.01 71.623 12.9 71.043 14.12C69.463 17.48 68.133 19.16 67.053 19.16ZM63.393 9.56001C62.833 9.56001 62.233 9.98001 61.593 10.82C60.973 11.64 60.663 12.61 60.663 13.73C60.663 14.85 60.823 15.77 61.143 16.49C61.483 17.21 61.923 17.57 62.463 17.57C63.123 17.57 64.093 15.92 65.373 12.62C65.393 12.46 65.413 12.19 65.433 11.81C65.473 11.41 65.503 11.11 65.523 10.91C65.343 10.59 65.023 10.29 64.563 10.01C64.123 9.71001 63.733 9.56001 63.393 9.56001ZM75.7174 8.66001C76.6374 8.66001 77.3974 9.00001 77.9974 9.68001C78.5974 10.34 78.9074 11.27 78.9274 12.47C79.7474 12.23 80.4674 11.94 81.0874 11.6C81.7274 11.26 82.0674 11.09 82.1074 11.09C82.2274 11.09 82.2874 11.19 82.2874 11.39C82.2874 11.59 81.9974 11.9 81.4174 12.32C80.8574 12.74 80.0074 13.16 78.8674 13.58C78.6274 15.36 77.9074 16.74 76.7074 17.72C75.5074 18.68 74.3074 19.16 73.1074 19.16C71.9074 19.16 71.1074 18.72 70.7074 17.84C70.3074 16.94 70.1074 15.53 70.1074 13.61C70.1074 11.69 70.2474 9.87001 70.5274 8.15001C70.8074 6.43001 71.1674 5.08001 71.6074 4.10001C72.0474 3.10001 72.4974 2.34001 72.9574 1.82001C73.4374 1.28001 73.8874 1.01001 74.3074 1.01001C74.5074 1.01001 74.6874 1.25001 74.8474 1.73001C75.0274 2.21001 75.1174 2.80001 75.1174 3.50001C75.1174 5.04001 74.8374 6.84001 74.2774 8.90001C74.6574 8.74001 75.1374 8.66001 75.7174 8.66001ZM77.0674 14.06C76.9074 14.08 76.5674 14.09 76.0474 14.09C75.5474 14.09 74.9874 13.92 74.3674 13.58C73.7674 13.22 73.3574 12.73 73.1374 12.11C72.9374 12.61 72.7074 13.09 72.4474 13.55C72.4874 15.07 72.6074 16.16 72.8074 16.82C73.0074 17.48 73.3274 17.81 73.7674 17.81C74.4674 17.81 75.1474 17.52 75.8074 16.94C76.4874 16.34 76.9074 15.38 77.0674 14.06ZM74.3974 4.04001C74.3974 3.20001 74.2874 2.78001 74.0674 2.78001C73.8874 2.78001 73.6674 3.22001 73.4074 4.10001C73.1674 4.96001 72.9374 6.14001 72.7174 7.64001C72.5174 9.12001 72.4174 10.59 72.4174 12.05C73.7374 8.31001 74.3974 5.64001 74.3974 4.04001ZM75.2374 9.74001C74.9574 9.74001 74.7274 9.83001 74.5474 10.01C74.3874 10.17 74.3074 10.39 74.3074 10.67C74.3074 11.29 74.5774 11.81 75.1174 12.23C75.6774 12.63 76.3474 12.83 77.1274 12.83C77.1074 12.01 76.9474 11.29 76.6474 10.67C76.3474 10.05 75.8774 9.74001 75.2374 9.74001Z" fill="#412D22"/>
</svg>
