<svg width="511" height="417" viewBox="0 0 511 417" fill="none" xmlns="http://www.w3.org/2000/svg">
<path d="M13.9914 238.481C-0.156973 247.919 -8.18658 294.604 19.1836 295.55C38.0416 296.206 45.4729 279.203 38.4856 273.934C20.6891 260.656 -0.118367 307.341 20.6891 316.779C30.4752 321.237 40.4158 314.135 51.1284 305.489C67.5157 292.269 85.7174 275.44 107.973 290.84" stroke="#D8171C" stroke-width="2" stroke-miterlimit="10"/>
<g style="mix-blend-mode:multiply">
<path d="M357.026 383.844C357.026 387.549 344.692 390.56 329.482 390.56C314.272 390.56 301.919 387.549 301.919 383.844C301.919 380.138 314.253 377.147 329.482 377.147C344.711 377.147 357.026 380.138 357.026 383.844Z" fill="#E5EBF4"/>
</g>
<g style="mix-blend-mode:multiply">
<path d="M199.927 410.284C199.927 413.989 187.593 416.981 172.383 416.981C157.173 416.981 144.82 413.989 144.82 410.284C144.82 406.578 157.154 403.568 172.383 403.568C187.612 403.568 199.927 406.578 199.927 410.284Z" fill="#E5EBF4"/>
</g>
<g style="mix-blend-mode:multiply">
<path d="M411.689 369.331H98.2831C87.3346 369.329 76.4465 367.71 65.9716 364.525L17.2534 349.665H497.525L441.356 365.278C431.697 367.972 421.716 369.335 411.689 369.331Z" fill="#E5EBF4"/>
</g>
<path d="M473.996 85.5924C464.603 85.0449 455.179 85.6934 445.95 87.5223C442.461 88.1276 439.143 89.4746 436.219 91.4722C433.295 93.4699 430.835 96.0717 429.003 99.1019C422.421 109.967 412.249 127.202 410.106 133.223C410.106 133.223 392.02 130.405 381.81 124.21L377.312 133.223C377.312 133.223 387.697 140.441 418.31 150.457C423.864 141.947 428.54 132.894 432.265 123.438C432.265 123.438 431.242 130.83 434.716 143.934C437.476 154.298 431.01 194.73 431.01 194.73L497.602 192.337L492.14 152.136L500.208 141.753C501.334 140.299 502.148 138.628 502.599 136.845C503.051 135.062 503.131 133.205 502.833 131.39C500.969 119.421 497.147 107.841 491.522 97.1141C489.782 93.8935 487.27 91.155 484.212 89.1441C481.153 87.1332 477.643 85.9128 473.996 85.5924Z" fill="#D85C1C"/>
<path d="M485.77 134.786L483.357 117.784C483.357 117.784 480.076 140.132 478.628 142.873L485.77 134.786Z" fill="#B14800"/>
<path d="M460.735 156.633C457.338 157.81 448.614 160.589 449.424 162.423C449.887 163.446 456.045 161.014 456.72 161.844C457.396 162.674 455.041 165.704 451.103 167.827C448.054 169.429 445.931 169.1 445.795 170.567C445.641 172.497 454.674 172.227 456.991 171.937C459.211 171.61 461.311 170.72 463.09 169.351C464.569 168.033 465.95 166.607 467.221 165.086C468.951 163.467 470.839 162.025 472.857 160.782L468.359 153.372C468.359 153.372 462.685 155.958 460.735 156.633Z" fill="#E7D1AD"/>
<path d="M451.509 74.2444L452.918 90.4558C452.918 90.4558 461.7 97.944 469.344 89.4909L465.097 69.8828L451.509 74.2444Z" fill="#E0BD82"/>
<path d="M475.327 30.821C477.767 33.2403 479.684 36.1348 480.959 39.3251C482.234 42.5154 482.84 45.9335 482.739 49.3676C482.739 61.8929 467.954 79.571 454.385 79.571C442.437 79.571 432.747 67.2774 432.747 52.1467C432.747 40.5672 438.538 30.7245 446.49 26.6138C451.163 24.3336 456.414 23.5154 461.558 24.266C466.703 25.0166 471.502 27.301 475.327 30.821Z" fill="#E7CB9E"/>
<path d="M446.876 57.3575C446.876 57.3575 446.76 57.8786 446.548 58.5733C446.3 59.409 446.106 60.2599 445.969 61.1208C445.881 61.5213 445.881 61.9362 445.969 62.3367C446.049 62.6718 446.248 62.9665 446.529 63.1666L446.915 63.4367L447.282 63.5719L447.59 63.7263H447.243C446.917 63.765 446.586 63.7253 446.278 63.6105C446.055 63.5282 445.846 63.4109 445.66 63.2631C445.454 63.0811 445.29 62.8574 445.178 62.6069C445.048 62.3555 444.976 62.0788 444.965 61.7963C444.936 61.5205 444.936 61.2423 444.965 60.9664C445.112 60.0154 445.475 59.1107 446.027 58.3224C446.271 57.9682 446.556 57.6442 446.876 57.3575Z" fill="#E0B695"/>
<path d="M440.661 60.0594C440.661 61.2753 439.31 62.2595 437.631 62.2595C435.951 62.2595 434.6 61.2753 434.6 60.0594C434.6 58.8435 435.951 57.8786 437.631 57.8786C439.31 57.8786 440.661 58.8049 440.661 60.0594Z" fill="#E0AB82"/>
<path d="M463.669 60.1752C463.669 61.5069 462.028 62.5876 459.982 62.5876C457.936 62.5876 456.315 61.5069 456.315 60.1752C456.315 58.8435 457.956 57.7435 459.982 57.7435C462.009 57.7435 463.669 58.8049 463.669 60.1752Z" fill="#E0AB82"/>
<g style="mix-blend-mode:multiply">
<path d="M455.852 366.069C485.807 366.069 510.09 361.844 510.09 356.632C510.09 351.42 485.807 347.194 455.852 347.194C425.897 347.194 401.613 351.42 401.613 356.632C401.613 361.844 425.897 366.069 455.852 366.069Z" fill="#E5EBF4"/>
</g>
<path d="M494.938 338.857C494.938 338.857 498.065 339.494 497.621 344.203C497.336 347.888 497.239 351.586 497.332 355.281L496.019 355.802C495.827 353.838 495.439 351.899 494.861 350.012C494.475 350.012 491.831 355.802 488.723 357.037C485.615 358.272 477.74 360.897 475.501 358.6C473.262 356.304 478.532 353.814 481.292 352.154C484.052 350.495 494.938 338.857 494.938 338.857Z" fill="#393939"/>
<path d="M483.704 323.688C483.704 323.688 486.986 336.638 485.384 342.196C483.782 347.754 479.593 352.521 479.072 353.64C478.551 354.76 484.862 354.007 487.179 352.077C489.495 350.147 495.363 340.054 494.899 338.703C494.041 333.046 493.718 327.321 493.934 321.604L483.704 323.688Z" fill="#E7CB9E"/>
<path d="M442.958 340.227C442.958 340.227 445.989 341.289 444.888 345.901C443.788 350.514 443.113 356.844 443.113 356.844L441.742 357.172C441.806 355.235 441.683 353.296 441.375 351.382C440.989 351.267 437.747 356.728 434.485 357.616C431.223 358.504 422.903 359.874 420.973 357.307C419.043 354.74 424.602 352.965 427.613 351.691C430.624 350.417 442.958 340.227 442.958 340.227Z" fill="#393939"/>
<path d="M433.906 323.707C433.906 323.707 435.43 336.985 433.095 342.292C430.759 347.6 425.915 351.73 425.374 352.772C424.834 353.814 431.165 353.93 433.616 352.309C436.067 350.688 443.267 341.482 443.151 340.092C443.049 334.376 443.495 328.663 444.483 323.032L433.906 323.707Z" fill="#E7CB9E"/>
<path d="M431.01 194.614C431.01 194.614 425.374 251.026 424.602 269.881C423.907 286.498 431.666 337.989 431.666 337.989L445.178 336.831C445.178 336.831 446.761 287.463 450.563 271.02C453.478 258.475 462.144 220.842 462.144 220.842C462.144 220.842 466.622 256.526 468.108 268.415C470.232 285.321 481.504 337.661 481.504 337.661L497.351 336.966C497.351 336.966 493.143 284.144 493.375 266.543C493.626 247.957 497.641 192.202 497.641 192.202L431.01 194.614Z" fill="#412D22"/>
<path d="M431.01 194.614C431.01 194.614 425.374 251.026 424.602 269.881C423.907 286.498 431.666 337.989 431.666 337.989L445.178 336.831C445.178 336.831 446.761 287.463 450.563 271.02C453.478 258.476 462.144 220.842 462.144 220.842C462.144 220.842 454.423 211.443 452.011 193.823L431.01 194.614Z" fill="#563C30"/>
<path d="M484.631 50.7765C484.631 50.7765 481.658 59.9437 467.259 51.6257C458.563 46.636 450.605 40.4587 443.614 33.2721C443.614 33.2721 438.905 45.4113 431.473 50.2747C431.665 45.9421 432.273 41.6379 433.288 37.4214C434.832 32.5387 439.233 22.3679 454.52 21.7504C489.148 20.3608 484.631 50.7765 484.631 50.7765Z" fill="#424242"/>
<path d="M482.296 44.1568C484.577 42.8467 486.321 40.7714 487.218 38.2986C488.116 35.8259 488.109 33.1153 487.198 30.6473C484.11 21.5959 472.085 16.6939 465.966 24.8575" fill="#424242"/>
<path d="M452.744 51.6256C452.744 52.7064 453.304 53.5555 453.999 53.5555C454.694 53.5555 455.273 52.6678 455.273 51.6256C455.273 50.5834 454.694 49.6957 453.999 49.6957C453.304 49.6957 452.744 50.5448 452.744 51.6256Z" fill="#424242"/>
<path d="M439.657 52.359C439.657 53.4398 440.236 54.2889 440.97 54.2889C441.703 54.2889 442.282 53.4012 442.282 52.359C442.282 51.3168 441.703 50.4291 440.97 50.4291C440.236 50.4291 439.657 51.2782 439.657 52.359Z" fill="#424242"/>
<path d="M454.057 66.5247C454.057 66.5247 447.861 69.4582 442.919 66.9879C442.823 69.6319 449.192 74.7269 454.057 66.5247Z" fill="#E5F1FF"/>
<path d="M472.664 58.4383C471.023 63.4947 472.857 68.5511 476.775 69.6898C480.693 70.8284 485.21 67.644 486.87 62.5683C488.53 57.4926 486.658 52.4555 482.739 51.3168C478.821 50.1782 474.304 53.3626 472.664 58.4383Z" fill="black"/>
<path d="M477.566 66.3124C475.035 69.598 471.617 72.0908 467.714 73.4963C463.812 74.9018 459.588 75.1614 455.543 74.2444" stroke="black" stroke-miterlimit="10" stroke-linecap="round"/>
<path d="M455.89 72.7391C455.703 72.7049 455.51 72.7079 455.324 72.7481C455.138 72.7883 454.961 72.8647 454.804 72.9731C454.647 73.0816 454.513 73.2198 454.41 73.38C454.307 73.5402 454.236 73.7191 454.202 73.9067C454.167 74.0942 454.17 74.2867 454.211 74.4731C454.251 74.6594 454.327 74.836 454.436 74.9929C454.544 75.1497 454.682 75.2836 454.843 75.387C455.003 75.4903 455.182 75.5612 455.369 75.5954C455.557 75.6287 455.749 75.6246 455.935 75.5834C456.121 75.5422 456.297 75.4647 456.453 75.3554C456.609 75.246 456.742 75.1069 456.844 74.9461C456.947 74.7852 457.016 74.6058 457.049 74.4181C457.085 74.2317 457.083 74.0399 457.044 73.854C457.006 73.6681 456.93 73.4918 456.822 73.3354C456.714 73.1791 456.576 73.0458 456.416 72.9434C456.256 72.841 456.078 72.7715 455.89 72.7391Z" fill="black"/>
<path d="M483.203 57.1453C483.203 57.1453 487.372 18.9519 457.126 18.7203C450.216 18.7203 437.824 21.2485 434.214 33.3492" stroke="black" stroke-miterlimit="10" stroke-linecap="round"/>
<path d="M424.93 126.738L278.505 45.6814C271.04 41.552 262.649 39.3857 254.117 39.3857C245.586 39.3857 237.194 41.552 229.729 45.6814L83.2855 126.738C80.0081 128.52 77.2723 131.153 75.3665 134.359C73.4607 137.566 72.4555 141.227 72.457 144.957V348.758C72.4545 351.487 72.9906 354.19 74.0346 356.712C75.0787 359.234 76.6101 361.525 78.5413 363.454C80.4724 365.383 82.7652 366.912 85.2884 367.954C87.8116 368.995 90.5155 369.529 93.2453 369.524H415.028C417.753 369.524 420.451 368.987 422.969 367.944C425.486 366.902 427.774 365.374 429.7 363.447C431.627 361.521 433.156 359.234 434.198 356.716C435.241 354.199 435.778 351.501 435.778 348.777V144.976C435.781 141.241 434.775 137.575 432.865 134.364C430.956 131.154 428.214 128.519 424.93 126.738Z" fill="#B27934"/>
<path d="M137.813 32.7123H370.46C376.772 32.7123 382.825 35.2194 387.289 39.682C391.752 44.1447 394.259 50.1973 394.259 56.5084V318.593H114.014V56.5084C114.014 50.1973 116.522 44.1447 120.985 39.682C125.448 35.2194 131.501 32.7123 137.813 32.7123Z" fill="url(#paint0_linear)"/>
<g style="mix-blend-mode:multiply">
<g style="mix-blend-mode:multiply">
<path d="M358.724 74.9392H149.568V76.5796H358.724V74.9392Z" fill="#E1E3E6"/>
</g>
<g style="mix-blend-mode:multiply">
<path d="M358.724 98.0405H149.568V99.6809H358.724V98.0405Z" fill="#E1E3E6"/>
</g>
<g style="mix-blend-mode:multiply">
<path d="M358.724 121.161H149.568V122.801H358.724V121.161Z" fill="#E1E3E6"/>
</g>
<g style="mix-blend-mode:multiply">
<path d="M358.724 144.262H149.568V145.903H358.724V144.262Z" fill="#E1E3E6"/>
</g>
<g style="mix-blend-mode:multiply">
<path d="M358.724 167.383H149.568V169.023H358.724V167.383Z" fill="#E1E3E6"/>
</g>
<g style="mix-blend-mode:multiply">
<path d="M358.724 190.484H149.568V192.125H358.724V190.484Z" fill="#E1E3E6"/>
</g>
<g style="mix-blend-mode:multiply">
<path d="M358.724 213.605H149.568V215.245H358.724V213.605Z" fill="#E1E3E6"/>
</g>
<g style="mix-blend-mode:multiply">
<path d="M358.724 236.706H149.568V238.346H358.724V236.706Z" fill="#E1E3E6"/>
</g>
</g>
<path d="M405.3 166.978L252.37 319.867C252.211 320.025 251.996 320.113 251.772 320.113C251.548 320.113 251.333 320.025 251.174 319.867L98.2637 166.978C91.4296 160.144 82.1606 156.305 72.4956 156.305V348.777C72.4956 351.501 73.0323 354.199 74.075 356.716C75.1178 359.234 76.6462 361.521 78.573 363.447C80.4998 365.374 82.7872 366.902 85.3047 367.944C87.8221 368.987 90.5203 369.524 93.2452 369.524H415.028C417.753 369.524 420.451 368.987 422.969 367.944C425.486 366.902 427.774 365.374 429.7 363.447C431.627 361.521 433.155 359.234 434.198 356.716C435.241 354.199 435.778 351.501 435.778 348.777V156.305H431.068C421.403 156.307 412.135 160.146 405.3 166.978Z" fill="#E39A3B"/>
<g style="mix-blend-mode:multiply">
<path d="M305.779 266.408L252.293 319.867C252.134 320.025 251.919 320.113 251.695 320.113C251.471 320.113 251.256 320.025 251.097 319.867L198.537 267.237L72.4763 341.482V348.796C72.4789 351.521 73.0181 354.218 74.0632 356.734C75.1083 359.25 76.6388 361.536 78.5674 363.461C80.496 365.386 82.7848 366.912 85.3032 367.952C87.8216 368.992 90.5204 369.526 93.2452 369.524H415.028C417.753 369.524 420.451 368.987 422.969 367.944C425.486 366.902 427.774 365.374 429.7 363.447C431.627 361.521 433.155 359.234 434.198 356.716C435.241 354.199 435.778 351.501 435.778 348.777V342.234L305.779 266.408Z" fill="#E7E7E6"/>
</g>
<path d="M435.778 348.777V342.601L278.525 255.658C271.06 251.528 262.668 249.362 254.137 249.362C245.605 249.362 237.214 251.528 229.749 255.658L72.4956 342.62V348.796C72.5007 354.295 74.6891 359.567 78.5798 363.454C82.4706 367.341 87.7454 369.524 93.2452 369.524H415.028C417.753 369.524 420.451 368.987 422.969 367.944C425.486 366.902 427.774 365.374 429.7 363.447C431.627 361.521 433.155 359.234 434.198 356.716C435.241 354.199 435.778 351.501 435.778 348.777Z" fill="#E39A3B"/>
<path d="M355.964 344.936C355.964 348.796 356.582 342.485 368.472 342.485C377.505 342.485 369.302 366.05 354.96 366.88C354.024 367.263 353.259 367.974 352.808 368.879C352.357 369.784 352.251 370.823 352.509 371.801C353.127 375.661 378.547 366.667 378.547 345.554C378.47 331.408 355.964 334.283 355.964 344.936Z" fill="#FEFEFE"/>
<path d="M295.105 330.925C295.105 330.925 296.765 385.793 331.315 385.793C362.565 385.793 366.059 330.925 366.059 330.925H295.105Z" fill="#FEFEFE"/>
<path d="M305.779 337.082C303.156 336.831 300.568 336.3 298.058 335.499C299.409 348.796 305.528 385.967 331.296 385.812C332.911 385.798 334.52 385.63 336.103 385.311C313.191 381.103 307.227 350.398 305.779 337.082Z" fill="#EAF4FF"/>
<path d="M366.098 330.925C366.098 334.052 350.212 336.58 330.601 336.58C310.991 336.58 295.105 334.052 295.105 330.925C295.105 327.799 310.991 325.27 330.601 325.27C350.212 325.27 366.098 327.818 366.098 330.925Z" fill="#EAF4FF"/>
<path d="M330.601 335.383C348.105 335.383 362.295 333.396 362.295 330.944C362.295 328.493 348.105 326.506 330.601 326.506C313.097 326.506 298.907 328.493 298.907 330.944C298.907 333.396 313.097 335.383 330.601 335.383Z" fill="#FEFEFE"/>
<path d="M306.03 333.743C322.338 335.93 338.865 335.93 355.173 333.743C338.865 331.556 322.338 331.556 306.03 333.743Z" fill="#606060"/>
<path d="M113.281 94.7017C80.7375 97.2685 49.1402 129.653 43.0022 136.253C36.8642 142.853 5.86526 175.836 4.88086 208.432C4.3211 227.462 17.4465 246.027 25.4375 252.203L62.2077 206.039C62.2077 206.039 56.2627 200.134 43.2918 196.506C43.2918 196.506 46.4959 179.927 66.4541 159.065C85.2157 139.38 103.263 133.648 103.263 133.648C107.509 146.424 113.705 152.059 113.705 152.059L158.1 113.133C151.363 105.432 132.254 93.2157 113.281 94.7017Z" fill="#D8171C"/>
<path d="M61.7444 205.673L55.1817 200.751C50.8581 197.374 39.2383 205.055 29.2012 217.908C19.1642 230.762 14.551 243.905 18.8747 247.282L25.4374 252.203L61.7444 205.673Z" fill="#A60006"/>
<path d="M51.418 235.046C41.3424 247.938 29.7612 255.658 25.4376 252.203C21.1139 248.749 25.7464 235.683 35.7641 222.83C45.7818 209.976 57.4209 202.295 61.7446 205.673C66.0682 209.05 61.455 222.193 51.418 235.046Z" fill="#A60006"/>
<g style="mix-blend-mode:screen">
<path style="mix-blend-mode:screen" d="M25.4375 252.203L24.897 251.702C24.6702 251.503 24.4863 251.26 24.3566 250.987C24.1599 250.641 24.0289 250.262 23.9705 249.868C23.6715 248.795 23.5604 247.679 23.6423 246.568C23.7279 245.137 23.9674 243.72 24.3566 242.341C24.7909 240.71 25.3391 239.11 25.9972 237.555C26.7014 235.811 27.5071 234.11 28.4099 232.46C29.3364 230.742 30.3401 229.005 31.4983 227.307C32.6564 225.609 33.8338 223.93 35.1077 222.251C36.3816 220.572 37.7328 219.066 39.1226 217.522C40.5123 215.978 41.9406 214.608 43.3689 213.277C44.7516 212.002 46.2083 210.81 47.7312 209.706C49.0796 208.697 50.4915 207.775 51.9583 206.946C53.1843 206.246 54.4776 205.67 55.8187 205.229C56.8771 204.882 57.9868 204.719 59.1001 204.746C59.5144 204.726 59.9285 204.791 60.3161 204.939C60.6149 204.993 60.8983 205.111 61.1461 205.287L61.7637 205.692L61.1074 205.383C60.8414 205.253 60.5533 205.175 60.2582 205.152C59.8745 205.091 59.4838 205.091 59.1001 205.152C58.0529 205.244 57.0286 205.512 56.0697 205.943C54.8122 206.492 53.599 207.137 52.4409 207.873C51.0847 208.749 49.7945 209.723 48.5805 210.787C47.2294 211.906 45.8975 213.18 44.5271 214.492C43.1566 215.805 41.8248 217.272 40.4737 218.758C39.1225 220.244 37.8679 221.807 36.6133 223.447C35.3586 225.088 34.162 226.67 33.0424 228.311C31.9229 229.951 30.842 231.63 29.8769 233.271C28.9118 234.911 27.9467 236.532 27.2711 238.095C26.5246 239.561 25.8797 241.077 25.3409 242.631C24.8867 243.926 24.5382 245.255 24.2987 246.606C24.1266 247.648 24.1266 248.711 24.2987 249.752C24.3384 250.14 24.4428 250.518 24.6074 250.872C24.6964 251.149 24.8409 251.405 25.0321 251.624L25.4375 252.203Z" fill="url(#paint1_linear)"/>
</g>
<path d="M158.177 113.171L152.657 107.053C149.028 102.942 136.173 108.327 123.935 119.077C111.698 129.826 104.633 141.888 108.301 146.096L113.84 152.156L158.177 113.171Z" fill="#A60006"/>
<path d="M142.562 140.113C130.305 150.863 117.469 156.247 113.84 152.117C110.212 147.987 117.218 135.944 129.456 125.195C141.693 114.445 154.548 109.06 158.177 113.171C161.806 117.282 154.799 129.344 142.562 140.113Z" fill="#A60006"/>
<g style="mix-blend-mode:screen">
<path style="mix-blend-mode:screen" d="M113.84 152.117L113.396 151.519C113.215 151.281 113.078 151.013 112.991 150.728C112.849 150.337 112.771 149.927 112.759 149.512C112.684 148.402 112.789 147.288 113.068 146.211C113.417 144.824 113.916 143.478 114.555 142.197C115.286 140.673 116.124 139.202 117.064 137.797C118.075 136.216 119.177 134.695 120.364 133.242C121.619 131.737 122.932 130.212 124.36 128.746C125.788 127.279 127.313 125.851 128.857 124.461C130.401 123.072 132.023 121.817 133.683 120.601C135.343 119.385 137.003 118.247 138.663 117.224C140.251 116.22 141.902 115.318 143.604 114.522C145.116 113.775 146.677 113.131 148.275 112.592C149.632 112.12 151.037 111.797 152.464 111.627C153.57 111.49 154.692 111.536 155.784 111.762C156.193 111.829 156.586 111.973 156.942 112.187C157.216 112.297 157.466 112.461 157.675 112.669L158.216 113.19L157.617 112.766C157.386 112.595 157.124 112.47 156.845 112.399C156.483 112.248 156.098 112.157 155.706 112.129C154.659 112.026 153.603 112.098 152.579 112.341C151.263 112.669 149.972 113.094 148.719 113.615C147.208 114.234 145.738 114.949 144.318 115.757C142.793 116.587 141.249 117.591 139.647 118.633C138.045 119.675 136.482 120.871 134.879 122.068C133.277 123.265 131.733 124.596 130.208 125.928C128.684 127.26 127.197 128.668 125.769 130.077C124.341 131.486 122.99 132.914 121.754 134.362C120.519 135.809 119.322 137.199 118.28 138.608C117.303 139.915 116.407 141.282 115.597 142.699C114.917 143.897 114.324 145.142 113.821 146.424C113.454 147.413 113.252 148.457 113.223 149.512C113.192 149.9 113.225 150.291 113.319 150.67C113.365 150.959 113.457 151.239 113.589 151.499L113.84 152.117Z" fill="url(#paint2_linear)"/>
</g>
<path d="M9.59058 191.97C9.59058 191.97 31.4597 131.274 92.7048 102.576C92.7048 102.537 43.7743 124.963 9.59058 191.97Z" fill="#FFA1A1"/>
<path d="M102.819 131.737C102.819 131.737 85.447 133.783 59.8912 156.942C41.8439 173.346 33.3704 196.293 33.3704 196.293C35.7199 195.806 38.1359 195.727 40.5121 196.062C46.1524 181.767 54.5598 168.727 65.2518 157.689C75.9439 146.65 88.7103 137.831 102.819 131.737Z" fill="#A60006"/>
<path d="M75.1012 50.68C75.3052 51.8532 75.6021 53.0084 75.9892 54.1346C76.1952 54.8448 76.5505 55.5028 77.0314 56.0645C77.1834 56.2425 77.3691 56.3887 77.5778 56.4947C77.7865 56.6007 78.0141 56.6643 78.2475 56.6821C78.7415 56.6695 79.2251 56.537 79.6565 56.2961C80.1271 56.0486 80.5414 55.7065 80.8736 55.2914C81.2057 54.8763 81.4485 54.397 81.5867 53.8837C81.972 52.5563 82.1094 51.1694 81.9921 49.7922C81.8537 48.0295 81.517 46.288 80.9884 44.6007C80.364 42.6007 79.5563 40.6625 78.5756 38.8109C77.5183 36.7352 76.1223 34.8502 74.445 33.2334C73.016 31.8614 71.3027 30.8204 69.4265 30.1841C67.5566 29.5913 65.5762 29.4329 63.6359 29.7209C61.4414 30.0505 59.3235 30.7694 57.3821 31.8439C54.5927 33.2955 52.1855 35.3851 50.3562 37.9425C48.584 40.4845 47.3672 43.3713 46.7853 46.4149C46.2048 49.683 46.2048 53.0279 46.7853 56.2961C47.4066 59.9089 48.6127 63.3964 50.3562 66.6212C51.6987 69.2643 53.4732 71.6646 55.6063 73.7234C57.3974 75.4435 59.5365 76.7597 61.8794 77.5832C64.1215 78.3308 66.5035 78.5617 68.8474 78.2587C71.442 77.9175 73.9496 77.0927 76.24 75.827C77.7311 75.0551 79.1691 74.1847 80.5444 73.2216C81.6631 72.4231 82.7391 71.5663 83.7679 70.6548C84.5756 69.9314 85.3303 69.151 86.0261 68.3195C86.5343 67.723 86.9805 67.0763 87.358 66.3896C87.7146 65.8617 88.1584 65.3984 88.6705 65.0194C89.0271 64.7725 89.4373 64.6137 89.8673 64.5562C90.2406 64.5205 90.6162 64.5942 90.9482 64.7685C91.2776 64.9472 91.5826 65.1677 91.8554 65.4247L94.0172 67.7213C91.5323 72.2023 88.1005 76.088 83.9608 79.1079C82.3242 80.3168 80.5945 81.3945 78.7879 82.3309C75.5819 84.1047 72.0615 85.2387 68.4228 85.6696C65.1723 86.0194 61.8847 85.6841 58.7718 84.6854C55.5997 83.606 52.6876 81.8773 50.221 79.6097C47.4453 77.0714 45.1445 74.0586 43.4267 70.7127C41.9975 68.0209 40.9083 65.162 40.184 62.2017C39.4963 59.3316 39.1464 56.3911 39.1417 53.4398C39.1353 50.5503 39.492 47.6715 40.2033 44.8709C40.8783 42.1297 41.9101 39.4889 43.2723 37.0161C44.6114 34.5681 46.2877 32.3203 48.2522 30.3385C50.25 28.3129 52.5482 26.6074 55.0658 25.2821C57.6979 23.8537 60.5822 22.9493 63.5587 22.6188C66.4064 22.3018 69.2887 22.5644 72.0322 23.3908C74.8285 24.2433 77.4224 25.6549 79.6565 27.5401C82.1234 29.6295 84.1507 32.1879 85.6208 35.0669C87.044 37.7048 88.0407 40.5512 88.574 43.5007C89.0361 46.1828 89.0361 48.9242 88.574 51.6064C88.1729 54.0596 87.2729 56.4045 85.9297 58.4962C84.6258 60.519 82.8248 62.1736 80.6989 63.3018C80.0857 63.6242 79.4382 63.8766 78.7687 64.0544C78.1379 64.21 77.486 64.2621 76.8385 64.2088C76.1654 64.1338 75.5115 63.9376 74.9083 63.6298C74.1804 63.2969 73.5247 62.8249 72.9781 62.2403C72.4824 64.1738 71.61 65.9905 70.4109 67.5862C69.3526 68.9129 68.0402 70.0152 66.5505 70.8285C65.5017 71.4157 64.3339 71.7587 63.1341 71.832C62.0739 71.8773 61.0175 71.6793 60.0457 71.2531C59.0413 70.7882 58.1367 70.1327 57.3821 69.3231C56.5233 68.4191 55.7957 67.3992 55.2202 66.2931C54.4826 64.8803 53.9187 63.3834 53.541 61.835C53.1405 60.2118 52.9331 58.5469 52.9233 56.8751C52.931 55.1394 53.1382 53.4104 53.541 51.7222C53.9375 49.9587 54.5877 48.262 55.4712 46.685C56.4472 44.9937 57.6557 43.4475 59.0613 42.0918C60.6421 40.5556 62.4364 39.2556 64.3887 38.2319C65.3152 37.7495 66.1644 37.3442 66.9172 37.0161C67.6361 36.7135 68.3707 36.4494 69.1177 36.2248C69.7844 36.039 70.461 35.8908 71.1444 35.781C71.7813 35.781 72.4569 35.6073 73.1904 35.5687L75.1012 50.68ZM66.4347 44.8902C65.9355 45.0625 65.4513 45.2755 64.987 45.5271C63.8816 46.1324 62.961 47.0262 62.3234 48.1132C61.5983 49.3013 61.0887 50.6079 60.8178 51.9731C60.5459 53.4894 60.5068 55.0382 60.702 56.5663C60.913 58.1639 61.4029 59.7121 62.1496 61.1402C63.2305 63.0702 64.4659 63.8228 65.8363 63.0702C66.2655 62.8195 66.6557 62.5074 66.9944 62.1438C67.3694 61.7174 67.652 61.218 67.8244 60.677C68.0519 59.9917 68.1755 59.2761 68.1912 58.5541C68.2012 57.5769 68.1172 56.601 67.9402 55.6399L66.4347 44.8902Z" fill="#F1CC9D"/>
<path d="M174.873 412.001C199.498 412.001 219.461 392.042 219.461 367.42C219.461 342.798 199.498 322.839 174.873 322.839C150.248 322.839 130.286 342.798 130.286 367.42C130.286 392.042 150.248 412.001 174.873 412.001Z" fill="#F1CC9D"/>
<path d="M181.783 349.009C183.78 349.009 185.732 348.417 187.392 347.307C189.052 346.198 190.346 344.622 191.11 342.778C191.874 340.933 192.074 338.904 191.684 336.946C191.295 334.988 190.333 333.189 188.921 331.778C187.51 330.366 185.711 329.405 183.753 329.015C181.794 328.626 179.765 328.826 177.92 329.59C176.075 330.354 174.499 331.647 173.39 333.307C172.28 334.967 171.688 336.919 171.688 338.915C171.688 341.592 172.752 344.159 174.645 346.052C176.538 347.945 179.106 349.009 181.783 349.009ZM177.923 396.292C174.41 393.069 190.971 365.413 188.79 356.439C187.207 349.877 160.821 354.181 160.551 356.111C160.551 356.111 168.156 355.146 169.507 358.677C170.858 362.209 160.551 383.438 158.659 391.486C156.768 399.534 165.705 402.101 171.688 402.101C178.753 402.101 190.16 397.276 189.89 395.018C189.62 392.76 181.494 399.495 177.961 396.292H177.923Z" fill="#F7FBFC"/>
<path d="M428.154 13.9727V13.0077C428.148 9.5561 426.773 6.24758 424.331 3.80871C421.888 1.36984 418.577 -3.7878e-06 415.125 0H400.861C397.408 -3.7878e-06 394.097 1.36984 391.655 3.80871C389.212 6.24758 387.837 9.5561 387.832 13.0077V13.9727C387.832 17.4277 389.204 20.7411 391.648 23.1842C394.091 25.6272 397.405 26.9997 400.861 26.9997H415.125H415.646C416.89 28.962 418.597 30.5896 420.615 31.7402C422.634 32.8908 424.904 33.5294 427.227 33.6001C425.703 32.7511 424.391 31.5691 423.389 30.1421C422.386 28.7152 421.719 27.0802 421.436 25.3593C423.473 24.2363 425.171 22.5873 426.352 20.5844C427.534 18.5814 428.156 16.2981 428.154 13.9727Z" fill="#E39A3B"/>
<path d="M402.385 13.5868C402.385 14.0181 402.258 14.4397 402.018 14.7984C401.778 15.157 401.438 15.4365 401.039 15.6016C400.64 15.7666 400.202 15.8098 399.779 15.7257C399.356 15.6415 398.967 15.4338 398.662 15.1288C398.357 14.8238 398.149 14.4353 398.065 14.0122C397.981 13.5892 398.024 13.1507 398.189 12.7522C398.354 12.3537 398.634 12.0131 398.992 11.7735C399.351 11.5338 399.773 11.4059 400.204 11.4059C400.783 11.4059 401.338 11.6357 401.747 12.0447C402.156 12.4537 402.385 13.0084 402.385 13.5868Z" fill="#FEFEFE"/>
<path d="M410.338 13.5868C410.338 14.1652 410.108 14.7199 409.699 15.1288C409.29 15.5378 408.735 15.7676 408.156 15.7676C407.578 15.7676 407.023 15.5378 406.614 15.1288C406.205 14.7199 405.975 14.1652 405.975 13.5868C405.975 13.0084 406.205 12.4537 406.614 12.0447C407.023 11.6357 407.578 11.4059 408.156 11.4059C408.735 11.4059 409.29 11.6357 409.699 12.0447C410.108 12.4537 410.338 13.0084 410.338 13.5868Z" fill="#FEFEFE"/>
<path d="M418.271 13.5868C418.271 14.0181 418.143 14.4397 417.903 14.7984C417.664 15.157 417.323 15.4365 416.925 15.6016C416.526 15.7666 416.087 15.8098 415.664 15.7257C415.241 15.6415 414.853 15.4338 414.548 15.1288C414.242 14.8238 414.035 14.4353 413.951 14.0122C413.866 13.5892 413.91 13.1507 414.075 12.7522C414.24 12.3537 414.519 12.0131 414.878 11.7735C415.237 11.5338 415.659 11.4059 416.09 11.4059C416.668 11.4059 417.223 11.6357 417.632 12.0447C418.041 12.4537 418.271 13.0084 418.271 13.5868Z" fill="#FEFEFE"/>
<defs>
<linearGradient id="paint0_linear" x1="254.146" y1="318.593" x2="254.146" y2="32.7123" gradientUnits="userSpaceOnUse">
<stop stop-color="#CAC7C2"/>
<stop offset="0.22" stop-color="#DEDCD9"/>
<stop offset="0.47" stop-color="#EEEDEC"/>
<stop offset="0.73" stop-color="#F8F8F7"/>
<stop offset="1" stop-color="#FBFBFB"/>
</linearGradient>
<linearGradient id="paint1_linear" x1="22.851" y1="228.446" x2="62.3428" y2="228.446" gradientUnits="userSpaceOnUse">
<stop/>
<stop offset="0.49" stop-color="#C4171C"/>
<stop offset="1"/>
</linearGradient>
<linearGradient id="paint2_linear" x1="19421.6" y1="9476.1" x2="20529" y2="9476.1" gradientUnits="userSpaceOnUse">
<stop/>
<stop offset="0.49" stop-color="#C4171C"/>
<stop offset="1"/>
</linearGradient>
</defs>
</svg>
