<svg width="84" height="32" viewBox="0 0 84 32" fill="none" xmlns="http://www.w3.org/2000/svg">
<path d="M16.172 15L10.808 9.63605L12.222 8.22205L20 16L12.222 23.778L10.808 22.364L16.172 17H4V15H16.172Z" fill="#F9512E"/>
<path d="M39.3864 16.1818C39.3864 12.4602 37.1591 10.2045 34.1477 10.2045C31.125 10.2045 28.9034 12.4602 28.9034 16.1818C28.9034 19.8977 31.125 22.1591 34.1477 22.1591C37.1591 22.1591 39.3864 19.9034 39.3864 16.1818ZM37.6477 16.1818C37.6477 19.017 36.1477 20.5568 34.1477 20.5568C32.142 20.5568 30.6477 19.017 30.6477 16.1818C30.6477 13.3466 32.142 11.8068 34.1477 11.8068C36.1477 11.8068 37.6477 13.3466 37.6477 16.1818ZM41.8953 22H43.651V17.5966H46.0373C46.0771 17.5966 46.1112 17.5966 46.151 17.5966L48.5146 22H50.5146L47.9351 17.2898C49.3612 16.7614 50.0714 15.5739 50.0714 14.0114C50.0714 11.8693 48.7419 10.3636 46.043 10.3636H41.8953V22ZM43.651 16.0852V11.8693H45.8555C47.5885 11.8693 48.3044 12.6932 48.3044 14.0114C48.3044 15.3239 47.5885 16.0852 45.8782 16.0852H43.651ZM56.2948 22C59.8403 22 61.8914 19.8011 61.8914 16.1648C61.8914 12.5455 59.8403 10.3636 56.4141 10.3636H52.5278V22H56.2948ZM54.2835 20.4659V11.8977H56.3062C58.8516 11.8977 60.1641 13.4205 60.1641 16.1648C60.1641 18.9205 58.8516 20.4659 56.1982 20.4659H54.2835ZM64.3947 22H71.7583V20.4886H66.1503V16.9261H71.3094V15.4205H66.1503V11.875H71.6901V10.3636H64.3947V22ZM74.3553 22H76.111V17.5966H78.4973C78.5371 17.5966 78.5712 17.5966 78.611 17.5966L80.9746 22H82.9746L80.3951 17.2898C81.8212 16.7614 82.5314 15.5739 82.5314 14.0114C82.5314 11.8693 81.2019 10.3636 78.503 10.3636H74.3553V22ZM76.111 16.0852V11.8693H78.3155C80.0485 11.8693 80.7644 12.6932 80.7644 14.0114C80.7644 15.3239 80.0485 16.0852 78.3382 16.0852H76.111Z" fill="#F9512E"/>
</svg>
