<svg width="288" height="56" viewBox="0 0 288 56" fill="none" xmlns="http://www.w3.org/2000/svg">
<rect x="1" y="1" width="286" height="54" rx="27" stroke="#F9512E" stroke-width="2"/>
<path d="M98.9422 27.9926C96.209 27.9594 94.002 25.7391 94.002 22.9982C91.261 22.9982 89.041 20.7916 89.0074 18.0588C87.9426 17.8971 86.8539 18.0705 85.8934 18.5596L83.193 19.9353C82.2209 20.4307 81.4307 21.2212 80.9356 22.1935L79.5645 24.8841C79.068 25.8588 78.8927 26.9657 79.0637 28.0461L79.5356 31.0253C79.7065 32.1047 80.2146 33.1023 80.9872 33.8753L83.1266 36.0143C83.8967 36.7847 84.891 37.2914 85.9668 37.4619L88.9633 37.9365C90.0379 38.1069 91.1391 37.9322 92.109 37.4381L94.8094 36.0627C95.7814 35.5672 96.5716 34.7768 97.0668 33.8046L98.4379 31.114C98.9285 30.1515 99.1023 29.0602 98.9422 27.9926ZM85.875 32.3745C85.1848 32.3745 84.625 31.8148 84.625 31.1246C84.625 30.4343 85.1848 29.8746 85.875 29.8746C86.5653 29.8746 87.125 30.4343 87.125 31.1246C87.125 31.8148 86.5653 32.3745 85.875 32.3745ZM87.125 26.1247C86.4348 26.1247 85.875 25.5649 85.875 24.8747C85.875 24.1845 86.4348 23.6247 87.125 23.6247C87.8153 23.6247 88.375 24.1845 88.375 24.8747C88.375 25.5649 87.8153 26.1247 87.125 26.1247ZM93.375 31.1246C92.6848 31.1246 92.125 30.5648 92.125 29.8746C92.125 29.1844 92.6848 28.6246 93.375 28.6246C94.0652 28.6246 94.625 29.1844 94.625 29.8746C94.625 30.5648 94.0652 31.1246 93.375 31.1246Z" fill="#F9512E"/>
<path d="M106.278 34H113.307V32.4886H108.034V22.3636H106.278V34ZM115.63 34H122.993V32.4886H117.385V28.9261H122.544V27.4205H117.385V23.875H122.925V22.3636H115.63V34ZM126.573 34L127.641 30.9205H132.187L133.249 34H135.113L130.926 22.3636H128.897L124.71 34H126.573ZM128.153 29.4432L129.869 24.4773H129.96L131.676 29.4432H128.153ZM137.113 34H138.869V29.5966H141.255C141.295 29.5966 141.329 29.5966 141.369 29.5966L143.733 34H145.733L143.153 29.2898C144.579 28.7614 145.29 27.5739 145.29 26.0114C145.29 23.8693 143.96 22.3636 141.261 22.3636H137.113V34ZM138.869 28.0852V23.8693H141.074C142.807 23.8693 143.522 24.6932 143.522 26.0114C143.522 27.3239 142.807 28.0852 141.096 28.0852H138.869ZM157.138 22.3636H155.399V30.9091H155.291L149.371 22.3636H147.746V34H149.502V25.4659H149.61L155.524 34H157.138V22.3636ZM164.573 22.3636V34H166.244V25.5739H166.352L169.784 33.983H171.17L174.602 25.5795H174.71V34H176.38V22.3636H174.25L170.545 31.4091H170.409L166.704 22.3636H164.573ZM189.361 28.1818C189.361 24.4602 187.133 22.2045 184.122 22.2045C181.099 22.2045 178.878 24.4602 178.878 28.1818C178.878 31.8977 181.099 34.1591 184.122 34.1591C187.133 34.1591 189.361 31.9034 189.361 28.1818ZM187.622 28.1818C187.622 31.017 186.122 32.5568 184.122 32.5568C182.116 32.5568 180.622 31.017 180.622 28.1818C180.622 25.3466 182.116 23.8068 184.122 23.8068C186.122 23.8068 187.622 25.3466 187.622 28.1818ZM191.87 34H193.625V29.5966H196.012C196.051 29.5966 196.086 29.5966 196.125 29.5966L198.489 34H200.489L197.909 29.2898C199.336 28.7614 200.046 27.5739 200.046 26.0114C200.046 23.8693 198.716 22.3636 196.017 22.3636H191.87V34ZM193.625 28.0852V23.8693H195.83C197.563 23.8693 198.279 24.6932 198.279 26.0114C198.279 27.3239 197.563 28.0852 195.853 28.0852H193.625ZM202.502 34H209.866V32.4886H204.258V28.9261H209.417V27.4205H204.258V23.875H209.798V22.3636H202.502V34Z" fill="#F9512E"/>
</svg>
