<svg width="510" height="417" viewBox="0 0 510 417" fill="none" xmlns="http://www.w3.org/2000/svg">
<path d="M13.9891 238.492C-0.156768 247.93 -8.18495 294.617 19.1804 295.563C38.035 296.219 45.465 279.216 38.4789 273.947C20.6857 260.668 -0.118168 307.355 20.6857 316.793C30.47 321.251 40.4088 314.149 51.1195 305.502C67.5039 292.282 85.7024 275.452 107.954 290.854" stroke="#D8171C" stroke-width="2" stroke-miterlimit="10"/>
<g style="mix-blend-mode:multiply">
<path d="M356.963 383.861C356.963 387.566 344.631 390.577 329.424 390.577C314.216 390.577 301.865 387.566 301.865 383.861C301.865 380.155 314.197 377.164 329.424 377.164C344.65 377.164 356.963 380.155 356.963 383.861Z" fill="#E5EBF4"/>
</g>
<g style="mix-blend-mode:multiply">
<path d="M199.892 410.303C199.892 414.008 187.56 416.999 172.353 416.999C157.146 416.999 144.794 414.008 144.794 410.303C144.794 406.597 157.126 403.586 172.353 403.586C187.579 403.586 199.892 406.597 199.892 410.303Z" fill="#E5EBF4"/>
</g>
<g style="mix-blend-mode:multiply">
<path d="M411.616 369.347H98.2658C87.3193 369.345 76.4331 367.726 65.96 364.541L17.2505 349.681H497.437L441.278 365.294C431.621 367.988 421.642 369.351 411.616 369.347Z" fill="#E5EBF4"/>
</g>
<path d="M473.912 85.5964C464.521 85.0489 455.098 85.6974 445.871 87.5264C442.383 88.1317 439.065 89.4787 436.142 91.4765C433.219 93.4742 430.758 96.0762 428.927 99.1065C422.346 109.972 412.176 127.208 410.034 133.229C410.034 133.229 391.951 130.411 381.742 124.216L377.245 133.229C377.245 133.229 387.628 140.447 418.236 150.464C423.789 141.953 428.464 132.9 432.188 123.444C432.188 123.444 431.166 130.836 434.639 143.941C437.399 154.305 430.934 194.739 430.934 194.739L497.514 192.346L492.052 152.143L500.119 141.76C501.245 140.305 502.059 138.634 502.51 136.851C502.962 135.068 503.041 133.211 502.744 131.396C500.88 119.427 497.059 107.846 491.435 97.1186C489.696 93.8979 487.184 91.1592 484.126 89.1482C481.068 87.1372 477.558 85.9168 473.912 85.5964Z" fill="#D85C1C"/>
<path d="M485.684 134.793L483.272 117.789C483.272 117.789 479.991 140.139 478.543 142.879L485.684 134.793Z" fill="#B14800"/>
<path d="M460.654 156.64C457.257 157.817 448.534 160.596 449.345 162.43C449.808 163.453 455.964 161.021 456.639 161.851C457.315 162.681 454.96 165.711 451.024 167.834C447.974 169.435 445.852 169.107 445.716 170.574C445.562 172.504 454.594 172.234 456.91 171.944C459.13 171.617 461.229 170.727 463.008 169.358C464.487 168.039 465.867 166.614 467.138 165.093C468.868 163.474 470.755 162.032 472.773 160.789L468.276 153.378C468.276 153.378 462.603 155.965 460.654 156.64Z" fill="#E7D1AD"/>
<path d="M451.429 74.2481L452.838 90.4602C452.838 90.4602 461.619 97.9487 469.261 89.4952L465.015 69.8862L451.429 74.2481Z" fill="#E0BD82"/>
<path d="M475.243 30.8222C477.683 33.2416 479.599 36.1362 480.874 39.3267C482.149 42.5171 482.754 45.9354 482.654 49.3697C482.654 61.8955 467.871 79.5745 454.304 79.5745C442.359 79.5745 432.671 67.2803 432.671 52.1489C432.671 40.5688 438.46 30.7257 446.411 26.6148C451.083 24.3346 456.333 23.5163 461.477 24.2669C466.621 25.0175 471.418 27.3021 475.243 30.8222Z" fill="#E7CB9E"/>
<path d="M446.798 57.3599C446.798 57.3599 446.682 57.881 446.469 58.5757C446.221 59.4114 446.028 60.2623 445.89 61.1232C445.802 61.5237 445.802 61.9386 445.89 62.3391C445.971 62.6742 446.17 62.9689 446.45 63.1689L446.836 63.4391L447.203 63.5742L447.512 63.7286H447.164C446.838 63.7674 446.507 63.7277 446.199 63.6128C445.976 63.5306 445.768 63.4133 445.582 63.2654C445.376 63.0835 445.211 62.8598 445.099 62.6093C444.97 62.3579 444.897 62.0812 444.887 61.7987C444.858 61.5228 444.858 61.2447 444.887 60.9688C445.033 60.0177 445.396 59.1131 445.948 58.3248C446.192 57.9705 446.477 57.6466 446.798 57.3599Z" fill="#E0B695"/>
<path d="M440.583 60.0617C440.583 61.2775 439.232 62.2618 437.553 62.2618C435.874 62.2618 434.523 61.2775 434.523 60.0617C434.523 58.8458 435.874 57.8809 437.553 57.8809C439.232 57.8809 440.583 58.8072 440.583 60.0617Z" fill="#E0AB82"/>
<path d="M463.587 60.1778C463.587 61.5095 461.947 62.5902 459.901 62.5902C457.856 62.5902 456.234 61.5095 456.234 60.1778C456.234 58.8462 457.875 57.7461 459.901 57.7461C461.928 57.7461 463.587 58.8076 463.587 60.1778Z" fill="#E0AB82"/>
<g style="mix-blend-mode:multiply">
<path d="M455.771 366.085C485.721 366.085 510 361.86 510 356.648C510 351.436 485.721 347.21 455.771 347.21C425.821 347.21 401.542 351.436 401.542 356.648C401.542 361.86 425.821 366.085 455.771 366.085Z" fill="#E5EBF4"/>
</g>
<path d="M494.851 338.873C494.851 338.873 497.977 339.509 497.533 344.219C497.248 347.904 497.151 351.601 497.244 355.296L495.931 355.817C495.739 353.854 495.352 351.914 494.774 350.028C494.388 350.028 491.744 355.817 488.637 357.053C485.53 358.288 477.656 360.912 475.417 358.616C473.178 356.319 478.447 353.83 481.207 352.17C483.966 350.51 494.851 338.873 494.851 338.873Z" fill="#393939"/>
<path d="M483.619 323.703C483.619 323.703 486.9 336.653 485.298 342.211C483.696 347.77 479.508 352.537 478.987 353.656C478.466 354.776 484.777 354.023 487.092 352.093C489.408 350.163 495.275 340.069 494.812 338.718C493.954 333.061 493.631 327.336 493.847 321.618L483.619 323.703Z" fill="#E7CB9E"/>
<path d="M442.88 340.243C442.88 340.243 445.91 341.305 444.81 345.917C443.71 350.53 443.034 356.86 443.034 356.86L441.664 357.188C441.728 355.251 441.605 353.312 441.297 351.398C440.911 351.282 437.669 356.744 434.408 357.632C431.146 358.52 422.828 359.89 420.899 357.323C418.969 354.756 424.527 352.981 427.537 351.707C430.548 350.433 442.88 340.243 442.88 340.243Z" fill="#393939"/>
<path d="M433.829 323.722C433.829 323.722 435.353 337 433.018 342.308C430.683 347.616 425.839 351.746 425.299 352.788C424.759 353.83 431.088 353.946 433.539 352.325C435.99 350.704 443.189 341.497 443.073 340.108C442.971 334.391 443.416 328.678 444.404 323.046L433.829 323.722Z" fill="#E7CB9E"/>
<path d="M430.934 194.623C430.934 194.623 425.299 251.037 424.527 269.894C423.832 286.511 431.59 338.004 431.59 338.004L445.099 336.846C445.099 336.846 446.682 287.476 450.483 271.032C453.397 258.487 462.062 220.852 462.062 220.852C462.062 220.852 466.54 256.538 468.026 268.427C470.149 285.334 481.419 337.676 481.419 337.676L497.263 336.981C497.263 336.981 493.056 284.157 493.288 266.555C493.538 247.969 497.553 192.21 497.553 192.21L430.934 194.623Z" fill="#412D22"/>
<path d="M430.934 194.623C430.934 194.623 425.299 251.037 424.527 269.894C423.832 286.511 431.59 338.004 431.59 338.004L445.099 336.846C445.099 336.846 446.682 287.476 450.483 271.032C453.397 258.487 462.062 220.852 462.062 220.852C462.062 220.852 454.343 211.453 451.931 193.832L430.934 194.623Z" fill="#563C30"/>
<path d="M484.545 50.7778C484.545 50.7778 481.573 59.9454 467.177 51.627C458.482 46.637 450.525 40.4595 443.536 33.2725C443.536 33.2725 438.827 45.4123 431.397 50.276C431.589 45.9432 432.197 41.6388 433.211 37.4221C434.755 32.5391 439.155 22.3679 454.44 21.7503C489.061 20.3607 484.545 50.7778 484.545 50.7778Z" fill="#424242"/>
<path d="M482.21 44.1578C484.491 42.8477 486.235 40.7723 487.132 38.2994C488.029 35.8266 488.022 33.1159 487.112 30.6477C484.024 21.5959 472.001 16.6937 465.884 24.8577" fill="#424242"/>
<path d="M452.664 51.6282C452.664 52.7089 453.224 53.5581 453.919 53.5581C454.613 53.5581 455.193 52.6703 455.193 51.6282C455.193 50.586 454.613 49.6982 453.919 49.6982C453.224 49.6982 452.664 50.5474 452.664 51.6282Z" fill="#424242"/>
<path d="M439.58 52.3616C439.58 53.4423 440.159 54.2915 440.892 54.2915C441.626 54.2915 442.205 53.4037 442.205 52.3616C442.205 51.3194 441.626 50.4316 440.892 50.4316C440.159 50.4316 439.58 51.2808 439.58 52.3616Z" fill="#424242"/>
<path d="M453.976 66.5273C453.976 66.5273 447.781 69.4609 442.841 66.9905C442.745 69.6345 449.113 74.7296 453.976 66.5273Z" fill="#E5F1FF"/>
<path d="M472.58 58.4407C470.94 63.4971 472.773 68.5535 476.691 69.6922C480.608 70.8308 485.124 67.6464 486.784 62.5707C488.444 57.495 486.572 52.4579 482.654 51.3192C478.736 50.1805 474.221 53.3649 472.58 58.4407Z" fill="black"/>
<path d="M477.482 66.3154C474.951 69.6011 471.533 72.0938 467.631 73.4993C463.73 74.9049 459.507 75.1644 455.463 74.2474" stroke="black" stroke-miterlimit="10" stroke-linecap="round"/>
<path d="M455.81 72.7423C455.623 72.7081 455.43 72.7112 455.244 72.7513C455.057 72.7915 454.881 72.868 454.724 72.9764C454.567 73.0848 454.433 73.2231 454.33 73.3832C454.226 73.5434 454.155 73.7224 454.121 73.9099C454.087 74.0975 454.09 74.2899 454.13 74.4763C454.17 74.6627 454.247 74.8393 454.355 74.9961C454.464 75.1529 454.602 75.2868 454.762 75.3902C454.922 75.4936 455.101 75.5644 455.289 75.5986C455.477 75.6319 455.669 75.6278 455.855 75.5866C456.041 75.5455 456.217 75.468 456.373 75.3586C456.529 75.2492 456.662 75.1101 456.764 74.9493C456.866 74.7885 456.936 74.609 456.968 74.4213C457.004 74.2349 457.003 74.0431 456.964 73.8572C456.925 73.6713 456.85 73.495 456.742 73.3386C456.634 73.1823 456.496 73.049 456.336 72.9466C456.176 72.8442 455.997 72.7748 455.81 72.7423Z" fill="black"/>
<path d="M483.117 57.1469C483.117 57.1469 487.286 18.9518 457.045 18.7202C450.136 18.7202 437.746 21.2485 434.138 33.3498" stroke="black" stroke-miterlimit="10" stroke-linecap="round"/>
<path d="M424.855 126.745L278.456 45.6837C270.992 41.5541 262.602 39.3877 254.072 39.3877C245.543 39.3877 237.152 41.5541 229.689 45.6837L83.2707 126.745C79.9939 128.526 77.2586 131.159 75.3531 134.366C73.4477 137.572 72.4427 141.234 72.4442 144.964V348.774C72.4417 351.503 72.9777 354.207 74.0215 356.729C75.0654 359.25 76.5966 361.542 78.5274 363.471C80.4582 365.4 82.7506 366.929 85.2733 367.971C87.796 369.012 90.4995 369.546 93.2288 369.541H414.955C417.679 369.541 420.377 369.004 422.894 367.962C425.411 366.919 427.698 365.391 429.624 363.464C431.551 361.537 433.079 359.25 434.121 356.733C435.164 354.216 435.701 351.518 435.701 348.793V144.983C435.704 141.248 434.697 137.581 432.788 134.371C430.879 131.16 428.138 128.525 424.855 126.745Z" fill="#B27934"/>
<path d="M137.789 32.7139H370.394C376.705 32.7139 382.758 35.2211 387.22 39.6839C391.682 44.1467 394.189 50.1996 394.189 56.511V318.608H113.994V56.511C113.994 50.1996 116.501 44.1467 120.963 39.6839C125.426 35.2211 131.478 32.7139 137.789 32.7139Z" fill="url(#paint0_linear)"/>
<g style="mix-blend-mode:multiply">
<g style="mix-blend-mode:multiply">
<path d="M358.661 74.9424H149.542V76.5828H358.661V74.9424Z" fill="#E1E3E6"/>
</g>
<g style="mix-blend-mode:multiply">
<path d="M358.661 98.0449H149.542V99.6854H358.661V98.0449Z" fill="#E1E3E6"/>
</g>
<g style="mix-blend-mode:multiply">
<path d="M358.661 121.167H149.542V122.807H358.661V121.167Z" fill="#E1E3E6"/>
</g>
<g style="mix-blend-mode:multiply">
<path d="M358.661 144.269H149.542V145.909H358.661V144.269Z" fill="#E1E3E6"/>
</g>
<g style="mix-blend-mode:multiply">
<path d="M358.661 167.391H149.542V169.031H358.661V167.391Z" fill="#E1E3E6"/>
</g>
<g style="mix-blend-mode:multiply">
<path d="M358.661 190.493H149.542V192.133H358.661V190.493Z" fill="#E1E3E6"/>
</g>
<g style="mix-blend-mode:multiply">
<path d="M358.661 213.614H149.542V215.255H358.661V213.614Z" fill="#E1E3E6"/>
</g>
<g style="mix-blend-mode:multiply">
<path d="M358.661 236.717H149.542V238.357H358.661V236.717Z" fill="#E1E3E6"/>
</g>
</g>
<path d="M405.228 166.986L252.326 319.882C252.167 320.039 251.952 320.128 251.728 320.128C251.503 320.128 251.288 320.039 251.129 319.882L98.2464 166.986C91.4135 160.152 82.1462 156.313 72.4829 156.312V348.793C72.4829 351.518 73.0195 354.216 74.062 356.733C75.1046 359.25 76.6328 361.538 78.5592 363.464C80.4857 365.391 82.7727 366.919 85.2897 367.962C87.8067 369.004 90.5044 369.541 93.2288 369.541H414.955C417.679 369.541 420.377 369.004 422.894 367.962C425.411 366.919 427.698 365.391 429.624 363.464C431.551 361.538 433.079 359.25 434.121 356.733C435.164 354.216 435.701 351.518 435.701 348.793V156.312H430.992C421.329 156.315 412.062 160.154 405.228 166.986Z" fill="#E39A3B"/>
<g style="mix-blend-mode:multiply">
<path d="M305.725 266.42L252.249 319.881C252.09 320.039 251.875 320.128 251.65 320.128C251.426 320.128 251.211 320.039 251.052 319.881L198.502 267.25L72.4635 341.498V348.812C72.466 351.537 73.0051 354.234 74.0501 356.751C75.095 359.267 76.6253 361.553 78.5535 363.478C80.4817 365.402 82.7701 366.929 85.2881 367.969C87.8061 369.009 90.5043 369.543 93.2287 369.541H414.955C417.679 369.541 420.377 369.004 422.894 367.961C425.411 366.919 427.698 365.391 429.624 363.464C431.551 361.537 433.079 359.25 434.121 356.733C435.164 354.216 435.7 351.518 435.7 348.793V342.25L305.725 266.42Z" fill="#E7E7E6"/>
</g>
<path d="M435.701 348.793V342.617L278.475 255.67C271.012 251.54 262.622 249.374 254.092 249.374C245.562 249.374 237.172 251.54 229.708 255.67L72.4829 342.636V348.812C72.488 354.312 74.676 359.584 78.5661 363.471C82.4561 367.357 87.73 369.541 93.2288 369.541H414.955C417.679 369.541 420.377 369.004 422.894 367.961C425.411 366.919 427.698 365.39 429.624 363.464C431.551 361.537 433.079 359.25 434.121 356.733C435.164 354.216 435.701 351.518 435.701 348.793Z" fill="#E39A3B"/>
<path d="M355.901 344.953C355.901 348.813 356.519 342.501 368.407 342.501C377.438 342.501 369.236 366.067 354.898 366.897C353.962 367.28 353.197 367.991 352.746 368.896C352.295 369.802 352.189 370.84 352.447 371.818C353.064 375.678 378.48 366.685 378.48 345.57C378.403 331.423 355.901 334.299 355.901 344.953Z" fill="#FEFEFE"/>
<path d="M295.053 330.94C295.053 330.94 296.713 385.811 331.257 385.811C362.501 385.811 365.994 330.94 365.994 330.94H295.053Z" fill="#FEFEFE"/>
<path d="M305.725 337.097C303.103 336.847 300.515 336.316 298.006 335.515C299.357 348.812 305.474 385.985 331.238 385.83C332.852 385.816 334.461 385.648 336.043 385.328C313.136 381.121 307.172 350.414 305.725 337.097Z" fill="#EAF4FF"/>
<path d="M366.033 330.94C366.033 334.067 350.15 336.595 330.543 336.595C310.936 336.595 295.053 334.067 295.053 330.94C295.053 327.814 310.936 325.286 330.543 325.286C350.15 325.286 366.033 327.833 366.033 330.94Z" fill="#EAF4FF"/>
<path d="M330.543 335.398C348.044 335.398 362.231 333.411 362.231 330.959C362.231 328.508 348.044 326.521 330.543 326.521C313.042 326.521 298.855 328.508 298.855 330.959C298.855 333.411 313.042 335.398 330.543 335.398Z" fill="#FEFEFE"/>
<path d="M305.976 333.758C322.281 335.945 338.805 335.945 355.11 333.758C338.805 331.571 322.281 331.571 305.976 333.758Z" fill="#606060"/>
<path d="M113.262 94.706C80.7242 97.2729 49.1325 129.659 42.9956 136.259C36.8587 142.86 5.86521 175.844 4.88098 208.442C4.32132 227.472 17.4444 246.039 25.434 252.215L62.1976 206.049C62.1976 206.049 56.2537 200.143 43.2851 196.514C43.2851 196.514 46.4887 179.936 66.4433 159.072C85.2015 139.386 103.246 133.654 103.246 133.654C107.491 146.43 113.686 152.066 113.686 152.066L158.073 113.138C151.338 105.437 132.232 93.2199 113.262 94.706Z" fill="#D8171C"/>
<path d="M61.7336 205.682L55.1721 200.76C50.8492 197.383 39.2314 205.064 29.1962 217.918C19.161 230.772 14.5486 243.916 18.8715 247.293L25.433 252.215L61.7336 205.682Z" fill="#A60006"/>
<path d="M51.4091 235.057C41.3352 247.949 29.7561 255.669 25.4333 252.214C21.1104 248.76 25.742 235.694 35.7579 222.84C45.7739 209.986 57.4109 202.304 61.7338 205.682C66.0567 209.059 61.4443 222.203 51.4091 235.057Z" fill="#A60006"/>
<g style="mix-blend-mode:screen">
<path style="mix-blend-mode:screen" d="M25.4331 252.215L24.8928 251.713C24.666 251.514 24.4821 251.271 24.3524 250.999C24.1557 250.653 24.0248 250.273 23.9664 249.88C23.6674 248.807 23.5564 247.69 23.6383 246.579C23.7239 245.149 23.9633 243.732 24.3524 242.352C24.7867 240.721 25.3348 239.121 25.9927 237.566C26.6969 235.822 27.5023 234.121 28.4051 232.471C29.3314 230.753 30.3349 229.016 31.4928 227.318C32.6507 225.619 33.8279 223.94 35.1016 222.261C36.3753 220.582 37.7263 219.076 39.1158 217.532C40.5053 215.988 41.9333 214.618 43.3614 213.286C44.7439 212.012 46.2002 210.819 47.7229 209.716C49.071 208.706 50.4827 207.784 51.9493 206.956C53.175 206.255 54.4681 205.68 55.809 205.238C56.8672 204.892 57.9767 204.729 59.0898 204.756C59.504 204.735 59.918 204.801 60.3055 204.949C60.6043 205.002 60.8877 205.121 61.1354 205.296L61.7529 205.701L61.0968 205.393C60.8308 205.263 60.5427 205.184 60.2476 205.161C59.864 205.101 59.4734 205.101 59.0898 205.161C58.0427 205.254 57.0186 205.521 56.0599 205.952C54.8027 206.501 53.5897 207.147 52.4318 207.882C51.0758 208.758 49.7858 209.732 48.572 210.797C47.2211 211.916 45.8895 213.19 44.5193 214.502C43.1491 215.815 41.8175 217.282 40.4666 218.768C39.1157 220.254 37.8613 221.817 36.6069 223.458C35.3525 225.098 34.1561 226.681 33.0367 228.321C31.9174 229.962 30.8367 231.641 29.8718 233.281C28.9068 234.922 27.9419 236.543 27.2664 238.106C26.5201 239.572 25.8753 241.088 25.3366 242.642C24.8825 243.937 24.534 245.267 24.2945 246.618C24.1224 247.659 24.1224 248.722 24.2945 249.764C24.3343 250.151 24.4386 250.53 24.6032 250.883C24.6922 251.16 24.8366 251.416 25.0278 251.636L25.4331 252.215Z" fill="url(#paint1_linear)"/>
</g>
<path d="M158.149 113.176L152.63 107.058C149.002 102.947 136.149 108.332 123.913 119.082C111.678 129.832 104.615 141.895 108.282 146.102L113.82 152.163L158.149 113.176Z" fill="#A60006"/>
<path d="M142.537 140.119C130.282 150.87 117.449 156.254 113.82 152.124C110.192 147.994 117.198 135.951 129.433 125.2C141.668 114.45 154.521 109.065 158.149 113.176C161.777 117.287 154.772 129.35 142.537 140.119Z" fill="#A60006"/>
<g style="mix-blend-mode:screen">
<path style="mix-blend-mode:screen" d="M113.821 152.124L113.377 151.525C113.196 151.288 113.058 151.02 112.971 150.734C112.829 150.344 112.751 149.933 112.74 149.518C112.665 148.409 112.769 147.294 113.049 146.218C113.398 144.83 113.896 143.484 114.535 142.204C115.266 140.679 116.104 139.209 117.043 137.803C118.054 136.222 119.156 134.701 120.343 133.248C121.598 131.743 122.91 130.218 124.338 128.751C125.766 127.284 127.291 125.856 128.835 124.467C130.379 123.077 132 121.823 133.659 120.607C135.319 119.391 136.979 118.252 138.638 117.229C140.227 116.225 141.877 115.323 143.579 114.527C145.091 113.78 146.651 113.136 148.249 112.597C149.606 112.125 151.01 111.802 152.437 111.632C153.543 111.495 154.665 111.54 155.756 111.767C156.166 111.834 156.559 111.978 156.914 112.192C157.189 112.302 157.438 112.466 157.647 112.674L158.188 113.195L157.59 112.771C157.358 112.6 157.096 112.475 156.818 112.404C156.455 112.253 156.071 112.162 155.679 112.134C154.632 112.031 153.576 112.103 152.553 112.346C151.236 112.674 149.946 113.099 148.693 113.62C147.182 114.239 145.712 114.955 144.293 115.762C142.768 116.592 141.224 117.596 139.623 118.638C138.021 119.68 136.458 120.877 134.856 122.073C133.254 123.27 131.71 124.602 130.186 125.933C128.661 127.265 127.175 128.674 125.747 130.083C124.319 131.492 122.968 132.92 121.733 134.368C120.498 135.815 119.301 137.205 118.259 138.614C117.282 139.921 116.386 141.288 115.577 142.705C114.897 143.903 114.304 145.148 113.801 146.43C113.434 147.42 113.232 148.463 113.203 149.518C113.172 149.907 113.205 150.298 113.299 150.676C113.346 150.965 113.437 151.245 113.57 151.506L113.821 152.124Z" fill="url(#paint2_linear)"/>
</g>
<path d="M9.58911 191.979C9.58911 191.979 31.4543 131.28 92.6886 102.581C92.6886 102.542 43.7668 124.969 9.58911 191.979Z" fill="#FFA1A1"/>
<path d="M102.801 131.743C102.801 131.743 85.4322 133.789 59.8809 156.949C41.8368 173.354 33.3647 196.302 33.3647 196.302C35.7138 195.814 38.1295 195.736 40.5052 196.07C46.1446 181.775 54.5504 168.734 65.2405 157.695C75.9307 146.657 88.6949 137.837 102.801 131.743Z" fill="#A60006"/>
<path d="M75.0883 50.6821C75.2922 51.8554 75.589 53.0106 75.976 54.1368C76.182 54.847 76.5373 55.5051 77.0181 56.0668C77.1701 56.2449 77.3557 56.3911 77.5644 56.4971C77.773 56.603 78.0006 56.6667 78.2339 56.6844C78.7279 56.6718 79.2114 56.5394 79.6428 56.2984C80.1132 56.0509 80.5275 55.7088 80.8596 55.2937C81.1917 54.8786 81.4344 54.3993 81.5726 53.8859C81.9578 52.5585 82.0952 51.1715 81.9779 49.7943C81.8395 48.0315 81.5029 46.2899 80.9744 44.6025C80.3501 42.6024 79.5426 40.6641 78.562 38.8125C77.5049 36.7366 76.1091 34.8515 74.4321 33.2347C73.0034 31.8626 71.2904 30.8216 69.4145 30.1853C67.545 29.5925 65.5649 29.434 63.6249 29.7221C61.4309 30.0516 59.3134 30.7706 57.3722 31.8451C54.5833 33.2968 52.1766 35.3864 50.3476 37.944C48.5757 40.4861 47.3592 43.3731 46.7774 46.4168C46.1969 49.6851 46.1969 53.0301 46.7774 56.2984C47.3986 59.9114 48.6045 63.399 50.3476 66.6241C51.6899 69.2672 53.464 71.6677 55.5968 73.7265C57.3875 75.4468 59.5263 76.763 61.8688 77.5865C64.1104 78.3342 66.4921 78.5651 68.8356 78.2621C71.4297 77.9209 73.9368 77.096 76.2269 75.8303C77.7177 75.0583 79.1554 74.1878 80.5305 73.2247C81.649 72.4262 82.7248 71.5693 83.7533 70.6578C84.5609 69.9344 85.3155 69.154 86.0112 68.3224C86.5193 67.7258 86.9654 67.0792 87.3428 66.3924C87.6994 65.8645 88.1432 65.4012 88.6551 65.0221C89.0117 64.7752 89.4218 64.6165 89.8517 64.5589C90.2249 64.5232 90.6004 64.597 90.9324 64.7712C91.2618 64.9499 91.5667 65.1705 91.8394 65.4274L94.0009 67.7241C91.5164 72.2054 88.0853 76.0912 83.9463 79.1113C82.3099 80.3203 80.5805 81.398 78.7743 82.3344C75.5688 84.1084 72.0491 85.2424 68.411 85.6733C65.1611 86.0231 61.874 85.6878 58.7617 84.689C55.5902 83.6096 52.6786 81.8808 50.2125 79.6131C47.4372 77.0747 45.1368 74.0618 43.4194 70.7157C41.9905 68.0237 40.9014 65.1647 40.1772 62.2043C39.4896 59.3341 39.1398 56.3934 39.1351 53.442C39.1288 50.5524 39.4854 47.6735 40.1965 44.8727C40.8714 42.1314 41.903 39.4905 43.265 37.0176C44.6039 34.5695 46.2799 32.3215 48.244 30.3397C50.2414 28.314 52.5392 26.6084 55.0564 25.2831C57.688 23.8546 60.5718 22.9501 63.5478 22.6196C66.395 22.3026 69.2768 22.5652 72.0198 23.3916C74.8156 24.2441 77.4091 25.6559 79.6428 27.5412C82.1092 29.6306 84.1361 32.1891 85.606 35.0682C87.0289 37.7062 88.0255 40.5529 88.5587 43.5024C89.0207 46.1847 89.0207 48.9262 88.5587 51.6085C88.1576 54.0618 87.2578 56.4069 85.9148 58.4987C84.6111 60.5215 82.8105 62.1762 80.6849 63.3044C80.0718 63.6268 79.4245 63.8793 78.755 64.0571C78.1243 64.2127 77.4726 64.2648 76.8252 64.2115C76.1523 64.1365 75.4985 63.9403 74.8953 63.6325C74.1676 63.2996 73.512 62.8275 72.9655 62.2429C72.4699 64.1765 71.5977 65.9932 70.3987 67.5891C69.3406 68.9159 68.0284 70.0182 66.539 70.8315C65.4904 71.4187 64.3228 71.7618 63.1232 71.8351C62.0633 71.8804 61.007 71.6823 60.0354 71.2561C59.0312 70.7912 58.1267 70.1357 57.3722 69.3261C56.5137 68.422 55.7861 67.4021 55.2108 66.296C54.4733 64.8831 53.9095 63.3861 53.5318 61.8376C53.1314 60.2143 52.9241 58.5494 52.9143 56.8775C52.9219 55.1417 53.1291 53.4127 53.5318 51.7243C53.9283 49.9607 54.5784 48.264 55.4617 46.687C56.4376 44.9955 57.6458 43.4493 59.0512 42.0935C60.6317 40.5573 62.4257 39.2572 64.3776 38.2335C65.3039 37.751 66.1531 37.3457 66.9057 37.0176C67.6245 36.715 68.3589 36.4508 69.1058 36.2263C69.7724 36.0404 70.4489 35.8922 71.1321 35.7824C71.7689 35.7824 72.4444 35.6087 73.1777 35.5701L75.0883 50.6821ZM66.4232 44.892C65.9242 45.0644 65.4401 45.2774 64.9759 45.5289C63.8706 46.1343 62.9502 47.0281 62.3126 48.1152C61.5878 49.3033 61.0782 50.61 60.8074 51.9752C60.5355 53.4916 60.4964 55.0405 60.6916 56.5686C60.9025 58.1664 61.3924 59.7146 62.139 61.1428C63.2197 63.0728 64.4548 63.8255 65.825 63.0728C66.2541 62.8222 66.6442 62.51 66.9829 62.1464C67.3579 61.72 67.6404 61.2206 67.8127 60.6796C68.0402 59.9942 68.1638 59.2786 68.1794 58.5566C68.1895 57.5793 68.1055 56.6034 67.9285 55.6422L66.4232 44.892Z" fill="#F1CC9D"/>
<path d="M174.842 412.02C199.463 412.02 219.422 392.06 219.422 367.437C219.422 342.814 199.463 322.854 174.842 322.854C150.222 322.854 130.263 342.814 130.263 367.437C130.263 392.06 150.222 412.02 174.842 412.02Z" fill="#F1CC9D"/>
<path d="M181.751 349.024C183.747 349.024 185.699 348.432 187.359 347.323C189.018 346.214 190.312 344.638 191.076 342.793C191.84 340.949 192.04 338.919 191.65 336.961C191.261 335.003 190.3 333.205 188.888 331.793C187.476 330.381 185.678 329.42 183.72 329.03C181.762 328.641 179.733 328.841 177.889 329.605C176.044 330.369 174.468 331.663 173.359 333.323C172.25 334.982 171.658 336.934 171.658 338.93C171.658 341.608 172.721 344.175 174.614 346.068C176.507 347.961 179.074 349.024 181.751 349.024ZM177.891 396.31C174.379 393.087 190.937 365.43 188.757 356.455C187.174 349.893 160.793 354.197 160.523 356.127C160.523 356.127 168.126 355.162 169.477 358.694C170.828 362.226 160.523 383.456 158.631 391.504C156.74 399.552 165.675 402.119 171.658 402.119C178.721 402.119 190.127 397.294 189.856 395.036C189.586 392.778 181.462 399.514 177.93 396.31H177.891Z" fill="#F7FBFC"/>
<path d="M428.078 13.9733V13.0083C428.073 9.55654 426.698 6.24786 424.256 3.80888C421.813 1.3699 418.503 -3.78798e-06 415.051 0H400.79C397.338 -3.78798e-06 394.028 1.3699 391.585 3.80888C389.143 6.24786 387.768 9.55654 387.763 13.0083V13.9733C387.763 17.4285 389.136 20.7421 391.578 23.1853C394.021 25.6284 397.335 27.001 400.79 27.001H415.051H415.572C416.816 28.9633 418.522 30.591 420.541 31.7417C422.56 32.8923 424.829 33.5309 427.151 33.6016C425.628 32.7526 424.316 31.5705 423.314 30.1435C422.311 28.7165 421.644 27.0814 421.362 25.3604C423.398 24.2374 425.096 22.5883 426.277 20.5853C427.458 18.5823 428.08 16.2988 428.078 13.9733Z" fill="#E39A3B"/>
<path d="M402.315 13.5866C402.315 14.0179 402.187 14.4396 401.947 14.7982C401.708 15.1568 401.367 15.4363 400.969 15.6014C400.57 15.7665 400.131 15.8096 399.708 15.7255C399.285 15.6413 398.897 15.4337 398.592 15.1287C398.287 14.8237 398.079 14.4351 397.995 14.012C397.91 13.589 397.954 13.1505 398.119 12.752C398.284 12.3535 398.563 12.0129 398.922 11.7733C399.281 11.5336 399.702 11.4058 400.134 11.4058C400.712 11.4058 401.267 11.6355 401.676 12.0445C402.085 12.4535 402.315 13.0082 402.315 13.5866Z" fill="#FEFEFE"/>
<path d="M410.266 13.5866C410.266 14.165 410.036 14.7197 409.627 15.1287C409.218 15.5376 408.663 15.7674 408.085 15.7674C407.506 15.7674 406.952 15.5376 406.543 15.1287C406.134 14.7197 405.904 14.165 405.904 13.5866C405.904 13.0082 406.134 12.4535 406.543 12.0445C406.952 11.6355 407.506 11.4058 408.085 11.4058C408.663 11.4058 409.218 11.6355 409.627 12.0445C410.036 12.4535 410.266 13.0082 410.266 13.5866Z" fill="#FEFEFE"/>
<path d="M418.198 13.5866C418.198 14.0179 418.07 14.4396 417.83 14.7982C417.59 15.1568 417.25 15.4363 416.851 15.6014C416.453 15.7665 416.014 15.8096 415.591 15.7255C415.168 15.6413 414.779 15.4337 414.474 15.1287C414.169 14.8237 413.962 14.4351 413.877 14.012C413.793 13.589 413.836 13.1505 414.002 12.752C414.167 12.3535 414.446 12.0129 414.805 11.7733C415.164 11.5336 415.585 11.4058 416.017 11.4058C416.595 11.4058 417.15 11.6355 417.559 12.0445C417.968 12.4535 418.198 13.0082 418.198 13.5866Z" fill="#FEFEFE"/>
<defs>
<linearGradient id="paint0_linear" x1="254.101" y1="318.608" x2="254.101" y2="32.7139" gradientUnits="userSpaceOnUse">
<stop stop-color="#CAC7C2"/>
<stop offset="0.22" stop-color="#DEDCD9"/>
<stop offset="0.47" stop-color="#EEEDEC"/>
<stop offset="0.73" stop-color="#F8F8F7"/>
<stop offset="1" stop-color="#FBFBFB"/>
</linearGradient>
<linearGradient id="paint1_linear" x1="22.8471" y1="228.456" x2="62.3319" y2="228.456" gradientUnits="userSpaceOnUse">
<stop/>
<stop offset="0.49" stop-color="#C4171C"/>
<stop offset="1"/>
</linearGradient>
<linearGradient id="paint2_linear" x1="19418.2" y1="9476.53" x2="20525.4" y2="9476.53" gradientUnits="userSpaceOnUse">
<stop/>
<stop offset="0.49" stop-color="#C4171C"/>
<stop offset="1"/>
</linearGradient>
</defs>
</svg>
