<svg width="426" height="55" viewBox="0 0 426 55" fill="none" xmlns="http://www.w3.org/2000/svg">
<path d="M44.4773 18C42.5341 7.26136 33.9432 0.920453 23.4091 0.920453C10.0114 0.920453 0.295455 11.25 0.295455 27.8182C0.295455 44.3864 10.0114 54.7159 23.4091 54.7159C33.9432 54.7159 42.5341 48.375 44.4773 37.6364H38.1364C36.6023 44.8977 30.3636 48.7841 23.4091 48.7841C13.8977 48.7841 6.43182 41.4205 6.43182 27.8182C6.43182 14.2159 13.8977 6.85227 23.4091 6.85227C30.3636 6.85227 36.6023 10.7386 38.1364 18H44.4773ZM95.3055 27.8182C95.3055 11.25 85.5896 0.920453 72.1919 0.920453C58.7942 0.920453 49.0783 11.25 49.0783 27.8182C49.0783 44.3864 58.7942 54.7159 72.1919 54.7159C85.5896 54.7159 95.3055 44.3864 95.3055 27.8182ZM89.1692 27.8182C89.1692 41.4205 81.7033 48.7841 72.1919 48.7841C62.6805 48.7841 55.2146 41.4205 55.2146 27.8182C55.2146 14.2159 62.6805 6.85227 72.1919 6.85227C81.7033 6.85227 89.1692 14.2159 89.1692 27.8182ZM143.89 1.63636H137.652V42.8523H137.14L108.504 1.63636H102.367V54H108.708V12.8864H109.22L137.754 54H143.89V1.63636ZM150.115 7.26136H166.581V54H172.922V7.26136H189.387V1.63636H150.115V7.26136ZM191.604 54L196.871 39.1705H218.042L223.309 54H229.957L210.729 1.63636H204.184L184.957 54H191.604ZM198.866 33.5455L207.252 9.92045H207.661L216.047 33.5455H198.866ZM274.188 18C272.245 7.26136 263.654 0.920453 253.12 0.920453C239.722 0.920453 230.006 11.25 230.006 27.8182C230.006 44.3864 239.722 54.7159 253.12 54.7159C263.654 54.7159 272.245 48.375 274.188 37.6364H267.847C266.313 44.8977 260.075 48.7841 253.12 48.7841C243.609 48.7841 236.143 41.4205 236.143 27.8182C236.143 14.2159 243.609 6.85227 253.12 6.85227C260.075 6.85227 266.313 10.7386 267.847 18H274.188ZM277.971 7.26136H294.437V54H300.778V7.26136H317.244V1.63636H277.971V7.26136ZM374.444 1.63636V35.7955C374.444 43.4659 369.177 48.9886 360.432 48.9886C351.688 48.9886 346.421 43.4659 346.421 35.7955V1.63636H340.08V36.3068C340.08 47.0455 348.108 54.9205 360.432 54.9205C372.756 54.9205 380.785 47.0455 380.785 36.3068V1.63636H374.444ZM418.484 14.7273H424.62C424.339 6.8267 417.052 0.920453 406.927 0.920453C396.904 0.920453 389.029 6.75 389.029 15.5455C389.029 22.6023 394.143 26.7955 402.324 29.1477L408.768 30.9886C414.29 32.5227 419.199 34.4659 419.199 39.6818C419.199 45.4091 413.677 49.1932 406.415 49.1932C400.177 49.1932 394.654 46.4318 394.143 40.5H387.597C388.211 49.0909 395.165 54.9205 406.415 54.9205C418.484 54.9205 425.336 48.2727 425.336 39.7841C425.336 29.9659 416.029 26.7955 410.609 25.3636L405.29 23.9318C401.404 22.9091 395.165 20.8636 395.165 15.2386C395.165 10.2273 399.768 6.54545 406.722 6.54545C413.063 6.54545 417.87 9.5625 418.484 14.7273Z" fill="white"/>
</svg>
