<svg width="789" height="462" viewBox="0 0 789 462" fill="none" xmlns="http://www.w3.org/2000/svg">
<path d="M378.382 116.936C378.382 94.1326 396.868 75.6467 419.671 75.6467C442.474 75.6467 460.96 94.1326 460.96 116.936C460.96 118.145 460.881 119.334 460.78 120.517C459.247 119.875 457.565 119.517 455.799 119.517C452.172 119.517 448.907 121.024 446.562 123.433C444.648 122.587 442.543 122.097 440.316 122.097C431.765 122.097 424.832 129.029 424.832 137.581C424.832 139.808 425.322 141.913 426.168 143.827C423.759 146.171 422.252 149.437 422.252 153.064C422.252 154.83 422.611 156.512 423.253 158.044C422.07 158.146 420.88 158.225 419.671 158.225C396.868 158.225 378.382 139.739 378.382 116.936Z" fill="#412D22"/>
<path d="M419.671 75.6467C396.868 75.6467 378.382 94.1326 378.382 116.936C378.382 139.739 396.868 158.225 419.671 158.225C420.88 158.225 422.07 158.146 423.253 158.044C422.611 156.512 422.252 154.83 422.252 153.064C422.252 149.437 423.759 146.171 426.168 143.827C425.322 141.913 424.832 139.808 424.832 137.581C424.832 129.029 431.765 122.097 440.316 122.097C442.543 122.097 444.648 122.587 446.562 123.433C448.907 121.024 452.172 119.517 455.799 119.517C457.565 119.517 459.247 119.875 460.78 120.517C460.881 119.334 460.96 118.145 460.96 116.936C460.96 94.1326 442.474 75.6467 419.671 75.6467ZM391.285 116.936C389.86 116.936 388.704 115.781 388.704 114.355C388.704 112.93 389.86 111.775 391.285 111.775C392.71 111.775 393.865 112.93 393.865 114.355C393.865 115.781 392.71 116.936 391.285 116.936ZM404.188 137.58C401.337 137.58 399.026 135.27 399.026 132.419C399.026 129.569 401.337 127.258 404.188 127.258C407.038 127.258 409.349 129.569 409.349 132.419C409.349 135.27 407.038 137.58 404.188 137.58ZM409.349 101.452C406.498 101.452 404.188 99.1415 404.188 96.2912C404.188 93.4406 406.498 91.13 409.349 91.13C412.199 91.13 414.51 93.4406 414.51 96.2912C414.51 99.1415 412.199 101.452 409.349 101.452ZM417.091 122.097C415.665 122.097 414.51 120.942 414.51 119.516C414.51 118.091 415.665 116.936 417.091 116.936C418.516 116.936 419.671 118.091 419.671 119.516C419.671 120.942 418.516 122.097 417.091 122.097ZM432.574 85.969C433.999 85.969 435.154 87.1241 435.154 88.5495C435.154 89.9745 433.999 91.13 432.574 91.13C431.149 91.13 429.993 89.9745 429.993 88.5495C429.993 87.1241 431.149 85.969 432.574 85.969ZM435.155 111.775C432.304 111.775 429.993 109.464 429.993 106.614C429.993 103.763 432.304 101.452 435.155 101.452C438.005 101.452 440.316 103.763 440.316 106.614C440.316 109.464 438.005 111.775 435.155 111.775Z" fill="#E39A3B"/>
<path d="M581.747 156.375C581.747 147.866 588.644 140.969 597.153 140.969C605.662 140.969 612.559 147.866 612.559 156.375C612.559 156.826 612.53 157.27 612.492 157.711C611.92 157.472 611.293 157.338 610.634 157.338C609.28 157.338 608.062 157.9 607.187 158.799C606.473 158.483 605.687 158.301 604.856 158.301C601.665 158.301 599.079 160.887 599.079 164.078C599.079 164.909 599.262 165.695 599.577 166.409C598.678 167.284 598.116 168.502 598.116 169.856C598.116 170.514 598.25 171.142 598.489 171.714C598.048 171.752 597.604 171.781 597.153 171.781C588.644 171.781 581.747 164.884 581.747 156.375Z" fill="#412D22"/>
<path d="M597.153 140.969C588.644 140.969 581.747 147.866 581.747 156.375C581.747 164.884 588.644 171.781 597.153 171.781C597.604 171.781 598.048 171.752 598.489 171.714C598.25 171.142 598.116 170.514 598.116 169.856C598.116 168.502 598.678 167.284 599.577 166.409C599.262 165.695 599.079 164.909 599.079 164.078C599.079 160.887 601.665 158.301 604.856 158.301C605.687 158.301 606.473 158.483 607.187 158.799C608.062 157.9 609.28 157.338 610.634 157.338C611.293 157.338 611.92 157.472 612.492 157.711C612.53 157.27 612.559 156.826 612.559 156.375C612.559 147.866 605.662 140.969 597.153 140.969ZM586.561 156.375C586.029 156.375 585.598 155.944 585.598 155.412C585.598 154.88 586.029 154.449 586.561 154.449C587.093 154.449 587.524 154.88 587.524 155.412C587.524 155.944 587.093 156.375 586.561 156.375ZM591.376 164.078C590.312 164.078 589.45 163.216 589.45 162.152C589.45 161.089 590.312 160.226 591.376 160.226C592.439 160.226 593.301 161.089 593.301 162.152C593.301 163.216 592.439 164.078 591.376 164.078ZM593.301 150.597C592.238 150.597 591.376 149.735 591.376 148.672C591.376 147.608 592.238 146.746 593.301 146.746C594.365 146.746 595.227 147.608 595.227 148.672C595.227 149.735 594.365 150.597 593.301 150.597ZM596.19 158.301C595.658 158.301 595.227 157.87 595.227 157.338C595.227 156.806 595.658 156.375 596.19 156.375C596.722 156.375 597.153 156.806 597.153 157.338C597.153 157.87 596.722 158.301 596.19 158.301ZM601.967 144.82C602.499 144.82 602.93 145.251 602.93 145.783C602.93 146.315 602.499 146.746 601.967 146.746C601.436 146.746 601.005 146.315 601.005 145.783C601.005 145.251 601.436 144.82 601.967 144.82ZM602.93 154.449C601.867 154.449 601.005 153.587 601.005 152.523C601.005 151.46 601.867 150.597 602.93 150.597C603.994 150.597 604.856 151.46 604.856 152.523C604.856 153.587 603.994 154.449 602.93 154.449Z" fill="#E39A3B"/>
<path d="M581.747 420.135C581.747 411.626 588.644 404.728 597.153 404.728C605.662 404.728 612.559 411.626 612.559 420.135C612.559 420.586 612.53 421.03 612.492 421.471C611.92 421.231 611.293 421.098 610.634 421.098C609.28 421.098 608.062 421.66 607.187 422.559C606.473 422.243 605.687 422.061 604.856 422.061C601.665 422.061 599.079 424.647 599.079 427.838C599.079 428.669 599.262 429.455 599.577 430.169C598.678 431.043 598.116 432.262 598.116 433.615C598.116 434.274 598.25 434.902 598.489 435.474C598.048 435.512 597.604 435.541 597.153 435.541C588.644 435.541 581.747 428.643 581.747 420.135Z" fill="#412D22"/>
<path d="M597.153 404.728C588.644 404.728 581.747 411.626 581.747 420.135C581.747 428.643 588.644 435.541 597.153 435.541C597.604 435.541 598.048 435.512 598.489 435.474C598.25 434.902 598.116 434.274 598.116 433.615C598.116 432.262 598.678 431.043 599.577 430.169C599.262 429.455 599.079 428.669 599.079 427.838C599.079 424.647 601.665 422.061 604.856 422.061C605.687 422.061 606.473 422.243 607.187 422.559C608.062 421.66 609.28 421.098 610.634 421.098C611.293 421.098 611.92 421.231 612.492 421.471C612.53 421.03 612.559 420.586 612.559 420.135C612.559 411.626 605.662 404.728 597.153 404.728ZM586.561 420.135C586.029 420.135 585.598 419.704 585.598 419.172C585.598 418.64 586.029 418.209 586.561 418.209C587.093 418.209 587.524 418.64 587.524 419.172C587.524 419.704 587.093 420.135 586.561 420.135ZM591.376 427.838C590.312 427.838 589.45 426.976 589.45 425.912C589.45 424.848 590.312 423.986 591.376 423.986C592.439 423.986 593.301 424.848 593.301 425.912C593.301 426.976 592.439 427.838 591.376 427.838ZM593.301 414.357C592.238 414.357 591.376 413.495 591.376 412.431C591.376 411.368 592.238 410.506 593.301 410.506C594.365 410.506 595.227 411.368 595.227 412.431C595.227 413.495 594.365 414.357 593.301 414.357ZM596.19 422.06C595.658 422.06 595.227 421.629 595.227 421.098C595.227 420.566 595.658 420.135 596.19 420.135C596.722 420.135 597.153 420.566 597.153 421.098C597.153 421.629 596.722 422.06 596.19 422.06ZM601.967 408.58C602.499 408.58 602.93 409.011 602.93 409.543C602.93 410.074 602.499 410.506 601.967 410.506C601.436 410.506 601.005 410.074 601.005 409.543C601.005 409.011 601.436 408.58 601.967 408.58ZM602.93 418.209C601.867 418.209 601.005 417.347 601.005 416.283C601.005 415.219 601.867 414.357 602.93 414.357C603.994 414.357 604.856 415.219 604.856 416.283C604.856 417.347 603.994 418.209 602.93 418.209Z" fill="#E39A3B"/>
<path d="M723.486 156.377C723.486 139.699 737.005 126.18 753.683 126.18C770.36 126.18 783.879 139.699 783.879 156.377C783.879 157.261 783.821 158.131 783.747 158.996C782.626 158.526 781.396 158.264 780.105 158.264C777.452 158.264 775.064 159.366 773.349 161.128C771.95 160.509 770.41 160.151 768.781 160.151C762.527 160.151 757.457 165.221 757.457 171.475C757.457 173.104 757.815 174.644 758.434 176.043C756.672 177.758 755.57 180.146 755.57 182.799C755.57 184.09 755.832 185.32 756.302 186.441C755.437 186.515 754.567 186.573 753.683 186.573C737.005 186.573 723.486 173.054 723.486 156.377Z" fill="#412D22"/>
<path d="M753.683 126.18C737.005 126.18 723.486 139.699 723.486 156.377C723.486 173.054 737.005 186.573 753.683 186.573C754.567 186.573 755.437 186.515 756.302 186.441C755.832 185.32 755.57 184.09 755.57 182.799C755.57 180.146 756.672 177.758 758.434 176.043C757.815 174.644 757.457 173.104 757.457 171.475C757.457 165.221 762.527 160.151 768.781 160.151C770.41 160.151 771.95 160.509 773.349 161.128C775.064 159.366 777.452 158.264 780.105 158.264C781.396 158.264 782.626 158.526 783.747 158.996C783.821 158.131 783.879 157.261 783.879 156.377C783.879 139.699 770.36 126.18 753.683 126.18ZM732.922 156.377C731.88 156.377 731.035 155.531 731.035 154.489C731.035 153.447 731.88 152.602 732.922 152.602C733.965 152.602 734.81 153.447 734.81 154.489C734.81 155.531 733.965 156.377 732.922 156.377ZM742.359 171.475C740.274 171.475 738.584 169.785 738.584 167.7C738.584 165.615 740.274 163.926 742.359 163.926C744.444 163.926 746.133 165.615 746.133 167.7C746.133 169.785 744.444 171.475 742.359 171.475ZM746.133 145.053C744.049 145.053 742.359 143.363 742.359 141.278C742.359 139.193 744.049 137.504 746.133 137.504C748.218 137.504 749.908 139.193 749.908 141.278C749.908 143.363 748.218 145.053 746.133 145.053ZM751.795 160.151C750.753 160.151 749.908 159.306 749.908 158.264C749.908 157.221 750.753 156.377 751.795 156.377C752.837 156.377 753.682 157.221 753.682 158.264C753.683 159.306 752.838 160.151 751.795 160.151ZM763.119 133.729C764.161 133.729 765.006 134.574 765.006 135.616C765.006 136.658 764.161 137.504 763.119 137.504C762.077 137.504 761.232 136.658 761.232 135.616C761.232 134.574 762.077 133.729 763.119 133.729ZM765.006 152.602C762.922 152.602 761.232 150.912 761.232 148.827C761.232 146.743 762.922 145.053 765.006 145.053C767.091 145.053 768.781 146.743 768.781 148.827C768.781 150.912 767.091 152.602 765.006 152.602Z" fill="#E39A3B"/>
<path d="M85.0437 30.6586C85.0437 16.7043 96.3559 5.39209 110.31 5.39209C124.264 5.39209 135.577 16.7043 135.577 30.6586C135.577 31.3985 135.528 32.1264 135.466 32.8503C134.528 32.4572 133.499 32.2378 132.418 32.2378C130.199 32.2378 128.201 33.16 126.766 34.6345C125.595 34.1165 124.306 33.817 122.944 33.817C117.711 33.817 113.469 38.059 113.469 43.2919C113.469 44.6548 113.768 45.9433 114.286 47.1143C112.812 48.5488 111.889 50.5471 111.889 52.7668C111.889 53.8475 112.109 54.8765 112.502 55.8145C111.778 55.8768 111.05 55.9252 110.31 55.9252C96.3559 55.9252 85.0437 44.6129 85.0437 30.6586Z" fill="#412D22"/>
<path d="M110.31 5.39209C96.3559 5.39209 85.0437 16.7043 85.0437 30.6586C85.0437 44.6129 96.3559 55.9252 110.31 55.9252C111.05 55.9252 111.778 55.8768 112.502 55.8145C112.109 54.8765 111.889 53.8475 111.889 52.7668C111.889 50.5471 112.812 48.5488 114.286 47.1143C113.768 45.9433 113.469 44.6548 113.469 43.2919C113.469 38.059 117.711 33.817 122.944 33.817C124.306 33.817 125.595 34.1165 126.766 34.6345C128.201 33.16 130.199 32.2378 132.418 32.2378C133.499 32.2378 134.528 32.4572 135.466 32.8503C135.528 32.1264 135.577 31.3985 135.577 30.6586C135.577 16.7043 124.264 5.39209 110.31 5.39209ZM92.9395 30.6586C92.0675 30.6586 91.3604 29.9516 91.3604 29.0795C91.3604 28.2073 92.0675 27.5004 92.9395 27.5004C93.8116 27.5004 94.5186 28.2073 94.5186 29.0795C94.5186 29.9516 93.8116 30.6586 92.9395 30.6586ZM100.835 43.2918C99.0908 43.2918 97.6769 41.8777 97.6769 40.1335C97.6769 38.3891 99.0908 36.9751 100.835 36.9751C102.58 36.9751 103.994 38.3891 103.994 40.1335C103.994 41.8777 102.58 43.2918 100.835 43.2918ZM103.994 21.1836C102.249 21.1836 100.835 19.7695 100.835 18.0253C100.835 16.2809 102.249 14.8669 103.994 14.8669C105.738 14.8669 107.152 16.2809 107.152 18.0253C107.152 19.7695 105.738 21.1836 103.994 21.1836ZM108.731 33.8169C107.859 33.8169 107.152 33.1098 107.152 32.2378C107.152 31.3655 107.859 30.6586 108.731 30.6586C109.603 30.6586 110.31 31.3655 110.31 32.2378C110.31 33.1098 109.603 33.8169 108.731 33.8169ZM118.206 11.7087C119.078 11.7087 119.785 12.4156 119.785 13.2878C119.785 14.1599 119.078 14.8669 118.206 14.8669C117.334 14.8669 116.627 14.1599 116.627 13.2878C116.627 12.4156 117.334 11.7087 118.206 11.7087ZM119.785 27.5003C118.041 27.5003 116.627 26.0861 116.627 24.342C116.627 22.5976 118.041 21.1836 119.785 21.1836C121.53 21.1836 122.944 22.5976 122.944 24.342C122.943 26.0861 121.529 27.5003 119.785 27.5003Z" fill="#E39A3B"/>
<path d="M468.355 25.7299C468.355 11.7756 479.668 0.463379 493.622 0.463379C507.576 0.463379 518.888 11.7756 518.889 25.7299C518.889 26.4698 518.84 27.1977 518.778 27.9215C517.84 27.5285 516.811 27.3091 515.73 27.3091C513.511 27.3091 511.512 28.2313 510.078 29.7058C508.907 29.1878 507.618 28.8883 506.255 28.8883C501.022 28.8883 496.78 33.1303 496.78 38.3632C496.78 39.7261 497.08 41.0146 497.598 42.1856C496.123 43.6201 495.201 45.6184 495.201 47.8381C495.201 48.9188 495.421 49.9478 495.814 50.8858C495.09 50.948 494.362 50.9965 493.622 50.9965C479.668 50.9965 468.355 39.6842 468.355 25.7299Z" fill="#412D22"/>
<path d="M493.622 0.463379C479.668 0.463379 468.355 11.7756 468.355 25.7299C468.355 39.6842 479.668 50.9965 493.622 50.9965C494.362 50.9965 495.09 50.948 495.814 50.8858C495.421 49.9478 495.201 48.9188 495.201 47.8381C495.201 45.6184 496.123 43.6201 497.598 42.1856C497.08 41.0146 496.78 39.7261 496.78 38.3632C496.78 33.1303 501.022 28.8883 506.255 28.8883C507.618 28.8883 508.907 29.1878 510.078 29.7058C511.512 28.2313 513.511 27.3091 515.73 27.3091C516.811 27.3091 517.84 27.5285 518.778 27.9215C518.84 27.1977 518.889 26.4698 518.889 25.7299C518.888 11.7756 507.576 0.463379 493.622 0.463379ZM476.251 25.7299C475.379 25.7299 474.672 25.0229 474.672 24.1508C474.672 23.2786 475.379 22.5717 476.251 22.5717C477.123 22.5717 477.83 23.2786 477.83 24.1508C477.83 25.0229 477.123 25.7299 476.251 25.7299ZM484.147 38.3631C482.403 38.3631 480.989 36.949 480.989 35.2048C480.989 33.4604 482.403 32.0464 484.147 32.0464C485.891 32.0464 487.305 33.4604 487.305 35.2048C487.305 36.949 485.891 38.3631 484.147 38.3631ZM487.305 16.2549C485.561 16.2549 484.147 14.8408 484.147 13.0966C484.147 11.3522 485.561 9.93822 487.305 9.93822C489.05 9.93822 490.464 11.3522 490.464 13.0966C490.464 14.8408 489.05 16.2549 487.305 16.2549ZM492.043 28.8882C491.171 28.8882 490.464 28.1811 490.464 27.309C490.464 26.4368 491.171 25.7299 492.043 25.7299C492.915 25.7299 493.622 26.4368 493.622 27.309C493.622 28.1811 492.915 28.8882 492.043 28.8882ZM501.518 6.77997C502.39 6.77997 503.097 7.48686 503.097 8.35909C503.097 9.23115 502.39 9.93822 501.518 9.93822C500.646 9.93822 499.939 9.23115 499.939 8.35909C499.939 7.48686 500.646 6.77997 501.518 6.77997ZM503.097 22.5716C501.353 22.5716 499.939 21.1574 499.939 19.4132C499.939 17.6689 501.353 16.2549 503.097 16.2549C504.841 16.2549 506.255 17.6689 506.255 19.4132C506.255 21.1574 504.841 22.5716 503.097 22.5716Z" fill="#E39A3B"/>
<path d="M276.083 229.093C276.083 215.139 287.395 203.827 301.35 203.827C315.304 203.827 326.616 215.139 326.616 229.093C326.616 229.833 326.568 230.561 326.506 231.285C325.568 230.892 324.539 230.673 323.458 230.673C321.238 230.673 319.24 231.595 317.805 233.069C316.634 232.551 315.346 232.252 313.983 232.252C308.75 232.252 304.508 236.494 304.508 241.727C304.508 243.09 304.808 244.378 305.326 245.549C303.851 246.984 302.929 248.982 302.929 251.202C302.929 252.282 303.148 253.311 303.541 254.249C302.818 254.312 302.09 254.36 301.35 254.36C287.395 254.36 276.083 243.048 276.083 229.093Z" fill="#412D22"/>
<path d="M301.35 203.827C287.395 203.827 276.083 215.139 276.083 229.093C276.083 243.048 287.395 254.36 301.35 254.36C302.09 254.36 302.818 254.312 303.541 254.249C303.148 253.311 302.929 252.282 302.929 251.202C302.929 248.982 303.851 246.984 305.326 245.549C304.808 244.378 304.508 243.09 304.508 241.727C304.508 236.494 308.75 232.252 313.983 232.252C315.346 232.252 316.634 232.551 317.805 233.069C319.24 231.595 321.238 230.673 323.458 230.673C324.539 230.673 325.568 230.892 326.506 231.285C326.568 230.561 326.616 229.833 326.616 229.093C326.616 215.139 315.304 203.827 301.35 203.827ZM283.979 229.093C283.107 229.093 282.4 228.386 282.4 227.514C282.4 226.642 283.107 225.935 283.979 225.935C284.851 225.935 285.558 226.642 285.558 227.514C285.558 228.386 284.851 229.093 283.979 229.093ZM291.875 241.727C290.13 241.727 288.716 240.312 288.716 238.568C288.716 236.824 290.13 235.41 291.875 235.41C293.619 235.41 295.033 236.824 295.033 238.568C295.033 240.312 293.619 241.727 291.875 241.727ZM295.033 219.618C293.289 219.618 291.875 218.204 291.875 216.46C291.875 214.716 293.289 213.302 295.033 213.302C296.777 213.302 298.191 214.716 298.191 216.46C298.191 218.204 296.777 219.618 295.033 219.618ZM299.77 232.252C298.898 232.252 298.191 231.545 298.191 230.673C298.191 229.8 298.898 229.093 299.77 229.093C300.643 229.093 301.35 229.8 301.35 230.673C301.35 231.545 300.643 232.252 299.77 232.252ZM309.245 210.143C310.117 210.143 310.825 210.85 310.825 211.723C310.825 212.595 310.117 213.302 309.245 213.302C308.373 213.302 307.666 212.595 307.666 211.723C307.666 210.85 308.373 210.143 309.245 210.143ZM310.825 225.935C309.08 225.935 307.666 224.521 307.666 222.777C307.666 221.032 309.08 219.618 310.825 219.618C312.569 219.618 313.983 221.032 313.983 222.777C313.983 224.521 312.569 225.935 310.825 225.935Z" fill="#E39A3B"/>
<path d="M622.42 274.696C622.42 260.742 633.732 249.43 647.686 249.43C661.64 249.43 672.953 260.742 672.953 274.696C672.953 275.436 672.904 276.164 672.842 276.888C671.904 276.495 670.875 276.276 669.794 276.276C667.575 276.276 665.577 277.198 664.142 278.672C662.971 278.154 661.682 277.855 660.319 277.855C655.087 277.855 650.845 282.097 650.845 287.33C650.845 288.693 651.144 289.981 651.662 291.152C650.188 292.587 649.265 294.585 649.265 296.805C649.265 297.885 649.485 298.914 649.878 299.852C649.154 299.915 648.426 299.963 647.686 299.963C633.732 299.963 622.42 288.651 622.42 274.696Z" fill="#412D22"/>
<path d="M647.686 249.43C633.732 249.43 622.42 260.742 622.42 274.696C622.42 288.651 633.732 299.963 647.686 299.963C648.426 299.963 649.154 299.915 649.878 299.852C649.485 298.914 649.265 297.885 649.265 296.805C649.265 294.585 650.188 292.587 651.662 291.152C651.144 289.981 650.845 288.693 650.845 287.33C650.845 282.097 655.087 277.855 660.319 277.855C661.682 277.855 662.971 278.154 664.142 278.672C665.577 277.198 667.575 276.276 669.794 276.276C670.875 276.276 671.904 276.495 672.842 276.888C672.904 276.164 672.953 275.436 672.953 274.696C672.953 260.742 661.64 249.43 647.686 249.43ZM630.315 274.696C629.443 274.696 628.736 273.989 628.736 273.117C628.736 272.245 629.443 271.538 630.315 271.538C631.188 271.538 631.895 272.245 631.895 273.117C631.895 273.989 631.188 274.696 630.315 274.696ZM638.211 287.33C636.467 287.33 635.053 285.916 635.053 284.171C635.053 282.427 636.467 281.013 638.211 281.013C639.956 281.013 641.37 282.427 641.37 284.171C641.37 285.916 639.956 287.33 638.211 287.33ZM641.37 265.221C639.625 265.221 638.211 263.807 638.211 262.063C638.211 260.319 639.625 258.905 641.37 258.905C643.114 258.905 644.528 260.319 644.528 262.063C644.528 263.807 643.114 265.221 641.37 265.221ZM646.107 277.855C645.235 277.855 644.528 277.148 644.528 276.276C644.528 275.403 645.235 274.696 646.107 274.696C646.979 274.696 647.686 275.403 647.686 276.276C647.686 277.148 646.979 277.855 646.107 277.855ZM655.582 255.747C656.454 255.747 657.161 256.453 657.161 257.326C657.161 258.198 656.454 258.905 655.582 258.905C654.71 258.905 654.003 258.198 654.003 257.326C654.003 256.453 654.71 255.747 655.582 255.747ZM657.161 271.538C655.417 271.538 654.003 270.124 654.003 268.38C654.003 266.635 655.417 265.221 657.161 265.221C658.906 265.221 660.319 266.635 660.319 268.38C660.319 270.124 658.905 271.538 657.161 271.538Z" fill="#E39A3B"/>
<path d="M0 137.592C0 116.83 16.8304 100 37.5917 100C58.3528 100 75.1832 116.83 75.1834 137.592C75.1834 138.692 75.1113 139.775 75.0188 140.852C73.6232 140.268 72.0922 139.941 70.4844 139.941C67.1819 139.941 64.209 141.313 62.0746 143.507C60.3322 142.736 58.4153 142.291 56.3875 142.291C48.6021 142.291 42.2907 148.602 42.2907 156.388C42.2907 158.415 42.7365 160.332 43.507 162.075C41.3133 164.209 39.9413 167.182 39.9413 170.484C39.9413 172.092 40.2678 173.623 40.8527 175.019C39.7757 175.111 38.6925 175.183 37.5917 175.183C16.8304 175.183 0 158.353 0 137.592Z" fill="#412D22"/>
<path d="M37.5917 100C16.8304 100 0 116.83 0 137.592C0 158.353 16.8304 175.183 37.5917 175.183C38.6925 175.183 39.7757 175.111 40.8527 175.019C40.2678 173.623 39.9413 172.092 39.9413 170.484C39.9413 167.182 41.3133 164.209 43.507 162.075C42.7365 160.332 42.2907 158.415 42.2907 156.388C42.2907 148.602 48.6021 142.291 56.3875 142.291C58.4153 142.291 60.3322 142.736 62.0746 143.507C64.209 141.313 67.1819 139.941 70.4844 139.941C72.0922 139.941 73.6232 140.268 75.0188 140.852C75.1113 139.775 75.1834 138.692 75.1834 137.592C75.1832 116.83 58.3528 100 37.5917 100ZM11.7474 137.592C10.45 137.592 9.39799 136.54 9.39799 135.242C9.39799 133.945 10.45 132.893 11.7474 132.893C13.0449 132.893 14.0968 133.945 14.0968 135.242C14.0968 136.54 13.0449 137.592 11.7474 137.592ZM23.4947 156.387C20.8994 156.387 18.7957 154.283 18.7957 151.688C18.7957 149.093 20.8994 146.989 23.4947 146.989C26.09 146.989 28.1937 149.093 28.1937 151.688C28.1937 154.283 26.09 156.387 23.4947 156.387ZM28.1937 123.495C25.5984 123.495 23.4947 121.391 23.4947 118.796C23.4947 116.2 25.5984 114.097 28.1937 114.097C30.789 114.097 32.8927 116.2 32.8927 118.796C32.8927 121.391 30.789 123.495 28.1937 123.495ZM35.2421 142.291C33.9447 142.291 32.8927 141.239 32.8927 139.941C32.8927 138.643 33.9447 137.592 35.2421 137.592C36.5396 137.592 37.5916 138.643 37.5916 139.941C37.5917 141.239 36.5397 142.291 35.2421 142.291ZM49.339 109.398C50.6364 109.398 51.6884 110.45 51.6884 111.747C51.6884 113.045 50.6364 114.097 49.339 114.097C48.0415 114.097 46.9895 113.045 46.9895 111.747C46.9895 110.45 48.0415 109.398 49.339 109.398ZM51.6885 132.893C49.0932 132.893 46.9895 130.789 46.9895 128.194C46.9895 125.598 49.0932 123.495 51.6885 123.495C54.2838 123.495 56.3875 125.598 56.3875 128.194C56.3874 130.789 54.2837 132.893 51.6885 132.893Z" fill="#E39A3B"/>
<path d="M282.246 88.5881C282.246 78.0373 290.799 69.4841 301.35 69.4841C311.9 69.4841 320.454 78.0373 320.454 88.5881C320.454 89.1475 320.417 89.6979 320.37 90.2452C319.661 89.948 318.883 89.7821 318.066 89.7821C316.387 89.7821 314.877 90.4794 313.792 91.5943C312.906 91.2026 311.932 90.9761 310.902 90.9761C306.945 90.9761 303.738 94.1835 303.738 98.1401C303.738 99.1706 303.964 100.145 304.356 101.03C303.241 102.115 302.544 103.626 302.544 105.304C302.544 106.121 302.71 106.899 303.007 107.608C302.46 107.655 301.909 107.692 301.35 107.692C290.799 107.692 282.246 99.1389 282.246 88.5881Z" fill="#412D22"/>
<path d="M301.35 69.4841C290.799 69.4841 282.246 78.0373 282.246 88.5881C282.246 99.1389 290.799 107.692 301.35 107.692C301.909 107.692 302.46 107.655 303.007 107.608C302.71 106.899 302.544 106.121 302.544 105.304C302.544 103.626 303.241 102.115 304.356 101.03C303.964 100.145 303.738 99.1706 303.738 98.1401C303.738 94.1835 306.945 90.9761 310.902 90.9761C311.932 90.9761 312.906 91.2026 313.792 91.5943C314.877 90.4794 316.387 89.7821 318.066 89.7821C318.883 89.7821 319.661 89.948 320.37 90.2452C320.417 89.6979 320.454 89.1475 320.454 88.5881C320.454 78.0373 311.9 69.4841 301.35 69.4841ZM288.216 88.5881C287.556 88.5881 287.022 88.0535 287.022 87.3941C287.022 86.7346 287.556 86.2002 288.216 86.2002C288.875 86.2002 289.41 86.7346 289.41 87.3941C289.41 88.0535 288.875 88.5881 288.216 88.5881ZM294.186 98.14C292.867 98.14 291.798 97.0708 291.798 95.752C291.798 94.4331 292.867 93.364 294.186 93.364C295.505 93.364 296.574 94.4331 296.574 95.752C296.574 97.0708 295.505 98.14 294.186 98.14ZM296.574 81.4241C295.255 81.4241 294.186 80.3548 294.186 79.036C294.186 77.7171 295.255 76.648 296.574 76.648C297.893 76.648 298.962 77.7171 298.962 79.036C298.962 80.3548 297.893 81.4241 296.574 81.4241ZM300.156 90.976C299.496 90.976 298.962 90.4414 298.962 89.7821C298.962 89.1226 299.496 88.5881 300.156 88.5881C300.815 88.5881 301.35 89.1226 301.35 89.7821C301.35 90.4414 300.815 90.976 300.156 90.976ZM307.32 74.2601C307.979 74.2601 308.514 74.7946 308.514 75.4541C308.514 76.1134 307.979 76.648 307.32 76.648C306.66 76.648 306.126 76.1134 306.126 75.4541C306.126 74.7946 306.66 74.2601 307.32 74.2601ZM308.514 86.2001C307.195 86.2001 306.126 85.1309 306.126 83.8121C306.126 82.4932 307.195 81.4241 308.514 81.4241C309.833 81.4241 310.902 82.4932 310.902 83.8121C310.902 85.1309 309.833 86.2001 308.514 86.2001Z" fill="#E39A3B"/>
<path d="M402.327 178.923C402.22 178.923 402.13 178.891 402.055 178.827C401.991 178.752 401.959 178.661 401.959 178.555V168.107C401.959 167.989 401.991 167.899 402.055 167.835C402.13 167.76 402.22 167.723 402.327 167.723H403.127C403.244 167.723 403.335 167.76 403.399 167.835C403.474 167.899 403.511 167.989 403.511 168.107V172.075L407.783 167.979C407.954 167.808 408.162 167.723 408.407 167.723H409.271C409.356 167.723 409.431 167.755 409.495 167.819C409.559 167.883 409.591 167.957 409.591 168.043C409.591 168.128 409.57 168.197 409.527 168.251L404.583 173.083L409.847 178.379C409.9 178.443 409.927 178.517 409.927 178.603C409.927 178.688 409.895 178.763 409.831 178.827C409.767 178.891 409.692 178.923 409.607 178.923H408.711C408.476 178.923 408.268 178.832 408.087 178.651L403.511 174.155V178.555C403.511 178.661 403.474 178.752 403.399 178.827C403.324 178.891 403.234 178.923 403.127 178.923H402.327ZM412.019 181.963C411.934 181.963 411.859 181.931 411.795 181.867C411.731 181.803 411.699 181.728 411.699 181.643C411.699 181.568 411.726 181.472 411.779 181.355L413.011 178.427L409.955 171.211C409.902 171.072 409.875 170.981 409.875 170.939C409.875 170.843 409.907 170.763 409.971 170.699C410.035 170.635 410.115 170.603 410.211 170.603H410.995C411.166 170.603 411.294 170.693 411.379 170.875L413.811 176.699L416.307 170.875C416.393 170.693 416.526 170.603 416.707 170.603H417.459C417.555 170.603 417.635 170.635 417.699 170.699C417.763 170.763 417.795 170.837 417.795 170.923C417.795 170.955 417.769 171.051 417.715 171.211L413.171 181.691C413.086 181.872 412.953 181.963 412.771 181.963H412.019ZM419.632 169.051C419.525 169.051 419.434 169.019 419.36 168.955C419.296 168.88 419.264 168.789 419.264 168.683V167.819C419.264 167.712 419.296 167.621 419.36 167.547C419.434 167.472 419.525 167.435 419.632 167.435H420.64C420.746 167.435 420.837 167.472 420.912 167.547C420.986 167.621 421.024 167.712 421.024 167.819V168.683C421.024 168.789 420.986 168.88 420.912 168.955C420.837 169.019 420.746 169.051 420.64 169.051H419.632ZM419.76 178.923C419.653 178.923 419.562 178.891 419.488 178.827C419.424 178.752 419.392 178.661 419.392 178.555V170.971C419.392 170.864 419.424 170.779 419.488 170.715C419.562 170.64 419.653 170.603 419.76 170.603H420.528C420.634 170.603 420.72 170.64 420.784 170.715C420.858 170.779 420.896 170.864 420.896 170.971V178.555C420.896 178.661 420.858 178.752 420.784 178.827C420.72 178.891 420.634 178.923 420.528 178.923H419.76ZM426.163 178.923C425.885 178.923 425.688 178.789 425.571 178.523L422.611 171.099L422.579 170.939C422.579 170.843 422.611 170.763 422.675 170.699C422.739 170.635 422.819 170.603 422.915 170.603H423.683C423.864 170.603 423.997 170.693 424.083 170.875L426.515 177.179L428.947 170.875C429.043 170.693 429.171 170.603 429.331 170.603H430.115C430.2 170.603 430.275 170.635 430.339 170.699C430.413 170.763 430.451 170.843 430.451 170.939L430.419 171.099L427.443 178.523C427.325 178.789 427.128 178.923 426.851 178.923H426.163Z" fill="#412D22"/>
<path d="M455.292 68.1561C453.862 68.1561 452.774 67.7721 452.028 67.0041C451.292 66.2361 450.897 65.1748 450.844 63.8201C450.833 63.5321 450.828 63.0628 450.828 62.4121C450.828 61.7508 450.833 61.2708 450.844 60.9721C450.897 59.6281 451.297 58.5721 452.044 57.8041C452.79 57.0254 453.873 56.6361 455.292 56.6361C456.241 56.6361 457.046 56.8068 457.708 57.1481C458.369 57.4788 458.87 57.9161 459.212 58.4601C459.553 59.0041 459.74 59.5854 459.772 60.2041V60.2361C459.772 60.3214 459.734 60.3961 459.66 60.4601C459.596 60.5134 459.521 60.5401 459.436 60.5401H458.556C458.342 60.5401 458.209 60.4174 458.156 60.1721C457.974 59.3721 457.649 58.8121 457.18 58.4921C456.71 58.1614 456.081 57.9961 455.292 57.9961C453.457 57.9961 452.508 59.0148 452.444 61.0521C452.433 61.3401 452.428 61.7828 452.428 62.3801C452.428 62.9774 452.433 63.4308 452.444 63.7401C452.508 65.7774 453.457 66.7961 455.292 66.7961C456.081 66.7961 456.71 66.6361 457.18 66.3161C457.66 65.9854 457.985 65.4201 458.156 64.6201C458.188 64.4814 458.236 64.3854 458.3 64.3321C458.364 64.2788 458.449 64.2521 458.556 64.2521H459.436C459.532 64.2521 459.612 64.2841 459.676 64.3481C459.75 64.4014 459.782 64.4761 459.772 64.5721C459.74 65.2014 459.553 65.7881 459.212 66.3321C458.87 66.8761 458.369 67.3188 457.708 67.6601C457.046 67.9908 456.241 68.1561 455.292 68.1561ZM462.092 67.9961C461.985 67.9961 461.895 67.9641 461.82 67.9001C461.756 67.8254 461.724 67.7348 461.724 67.6281V57.0041C461.724 56.8974 461.756 56.8121 461.82 56.7481C461.895 56.6734 461.985 56.6361 462.092 56.6361H462.892C462.999 56.6361 463.084 56.6734 463.148 56.7481C463.223 56.8121 463.26 56.8974 463.26 57.0041V60.7321C463.569 60.3374 463.932 60.0388 464.348 59.8361C464.764 59.6228 465.281 59.5161 465.9 59.5161C466.924 59.5161 467.719 59.8468 468.284 60.5081C468.86 61.1588 469.148 62.0281 469.148 63.1161V67.6281C469.148 67.7348 469.111 67.8254 469.036 67.9001C468.972 67.9641 468.887 67.9961 468.78 67.9961H467.98C467.873 67.9961 467.783 67.9641 467.708 67.9001C467.644 67.8254 467.612 67.7348 467.612 67.6281V63.1961C467.612 62.4388 467.425 61.8521 467.052 61.4361C466.689 61.0201 466.161 60.8121 465.468 60.8121C464.796 60.8121 464.257 61.0254 463.852 61.4521C463.457 61.8681 463.26 62.4494 463.26 63.1961V67.6281C463.26 67.7348 463.223 67.8254 463.148 67.9001C463.084 67.9641 462.999 67.9961 462.892 67.9961H462.092ZM474.786 68.1561C473.687 68.1561 472.807 67.8201 472.146 67.1481C471.495 66.4654 471.138 65.5374 471.074 64.3641L471.058 63.8201L471.074 63.2921C471.149 62.1401 471.511 61.2228 472.162 60.5401C472.823 59.8574 473.693 59.5161 474.77 59.5161C475.954 59.5161 476.871 59.8948 477.522 60.6521C478.173 61.3988 478.498 62.4121 478.498 63.6921V63.9641C478.498 64.0708 478.461 64.1614 478.386 64.2361C478.322 64.3001 478.237 64.3321 478.13 64.3321H472.594V64.4761C472.626 65.1694 472.834 65.7614 473.218 66.2521C473.613 66.7321 474.13 66.9721 474.77 66.9721C475.261 66.9721 475.661 66.8761 475.97 66.6841C476.29 66.4814 476.525 66.2734 476.674 66.0601C476.77 65.9321 476.839 65.8574 476.882 65.8361C476.935 65.8041 477.026 65.7881 477.154 65.7881H477.938C478.034 65.7881 478.114 65.8148 478.178 65.8681C478.242 65.9214 478.274 65.9961 478.274 66.0921C478.274 66.3268 478.125 66.6094 477.826 66.9401C477.538 67.2708 477.127 67.5588 476.594 67.8041C476.071 68.0388 475.469 68.1561 474.786 68.1561ZM476.978 63.2281V63.1801C476.978 62.4441 476.775 61.8468 476.37 61.3881C475.975 60.9188 475.442 60.6841 474.77 60.6841C474.098 60.6841 473.565 60.9188 473.17 61.3881C472.786 61.8468 472.594 62.4441 472.594 63.1801V63.2281H476.978ZM480.779 67.9961C480.672 67.9961 480.582 67.9641 480.507 67.9001C480.443 67.8254 480.411 67.7348 480.411 67.6281V60.0601C480.411 59.9534 480.443 59.8628 480.507 59.7881C480.582 59.7134 480.672 59.6761 480.779 59.6761H481.515C481.622 59.6761 481.712 59.7134 481.787 59.7881C481.862 59.8628 481.899 59.9534 481.899 60.0601V60.7641C482.336 60.0388 483.083 59.6761 484.139 59.6761H484.763C484.87 59.6761 484.955 59.7134 485.019 59.7881C485.094 59.8521 485.131 59.9374 485.131 60.0441V60.7001C485.131 60.8068 485.094 60.8921 485.019 60.9561C484.955 61.0201 484.87 61.0521 484.763 61.0521H483.803C483.227 61.0521 482.774 61.2228 482.443 61.5641C482.112 61.8948 481.947 62.3481 481.947 62.9241V67.6281C481.947 67.7348 481.91 67.8254 481.835 67.9001C481.76 67.9641 481.67 67.9961 481.563 67.9961H480.779ZM486.857 67.9961C486.751 67.9961 486.66 67.9641 486.585 67.9001C486.521 67.8254 486.489 67.7348 486.489 67.6281V60.0441C486.489 59.9374 486.521 59.8521 486.585 59.7881C486.66 59.7134 486.751 59.6761 486.857 59.6761H487.609C487.716 59.6761 487.801 59.7134 487.865 59.7881C487.94 59.8521 487.977 59.9374 487.977 60.0441V60.7481C488.287 60.3534 488.649 60.0494 489.065 59.8361C489.492 59.6228 490.02 59.5161 490.649 59.5161C491.673 59.5161 492.468 59.8468 493.033 60.5081C493.609 61.1588 493.897 62.0281 493.897 63.1161V67.6281C493.897 67.7348 493.86 67.8254 493.785 67.9001C493.721 67.9641 493.636 67.9961 493.529 67.9961H492.729C492.623 67.9961 492.532 67.9641 492.457 67.9001C492.393 67.8254 492.361 67.7348 492.361 67.6281V63.1961C492.361 62.4388 492.175 61.8521 491.801 61.4361C491.439 61.0201 490.911 60.8121 490.217 60.8121C489.545 60.8121 489.012 61.0254 488.617 61.4521C488.223 61.8681 488.025 62.4494 488.025 63.1961V67.6281C488.025 67.7348 487.988 67.8254 487.913 67.9001C487.849 67.9641 487.764 67.9961 487.657 67.9961H486.857ZM496.432 58.1241C496.326 58.1241 496.235 58.0921 496.16 58.0281C496.096 57.9534 496.064 57.8628 496.064 57.7561V56.8921C496.064 56.7854 496.096 56.6948 496.16 56.6201C496.235 56.5454 496.326 56.5081 496.432 56.5081H497.44C497.547 56.5081 497.638 56.5454 497.712 56.6201C497.787 56.6948 497.824 56.7854 497.824 56.8921V57.7561C497.824 57.8628 497.787 57.9534 497.712 58.0281C497.638 58.0921 497.547 58.1241 497.44 58.1241H496.432ZM496.56 67.9961C496.454 67.9961 496.363 67.9641 496.288 67.9001C496.224 67.8254 496.192 67.7348 496.192 67.6281V60.0441C496.192 59.9374 496.224 59.8521 496.288 59.7881C496.363 59.7134 496.454 59.6761 496.56 59.6761H497.328C497.435 59.6761 497.52 59.7134 497.584 59.7881C497.659 59.8521 497.696 59.9374 497.696 60.0441V67.6281C497.696 67.7348 497.659 67.8254 497.584 67.9001C497.52 67.9641 497.435 67.9961 497.328 67.9961H496.56ZM500.451 67.9961C500.345 67.9961 500.254 67.9641 500.179 67.9001C500.115 67.8254 500.083 67.7348 500.083 67.6281V57.0041C500.083 56.8974 500.115 56.8121 500.179 56.7481C500.254 56.6734 500.345 56.6361 500.451 56.6361H501.251C501.358 56.6361 501.443 56.6734 501.507 56.7481C501.582 56.8121 501.619 56.8974 501.619 57.0041V60.7321C501.929 60.3374 502.291 60.0388 502.707 59.8361C503.123 59.6228 503.641 59.5161 504.259 59.5161C505.283 59.5161 506.078 59.8468 506.643 60.5081C507.219 61.1588 507.507 62.0281 507.507 63.1161V67.6281C507.507 67.7348 507.47 67.8254 507.395 67.9001C507.331 67.9641 507.246 67.9961 507.139 67.9961H506.339C506.233 67.9961 506.142 67.9641 506.067 67.9001C506.003 67.8254 505.971 67.7348 505.971 67.6281V63.1961C505.971 62.4388 505.785 61.8521 505.411 61.4361C505.049 61.0201 504.521 60.8121 503.827 60.8121C503.155 60.8121 502.617 61.0254 502.211 61.4521C501.817 61.8681 501.619 62.4494 501.619 63.1961V67.6281C501.619 67.7348 501.582 67.8254 501.507 67.9001C501.443 67.9641 501.358 67.9961 501.251 67.9961H500.451ZM510.057 58.1241C509.951 58.1241 509.86 58.0921 509.785 58.0281C509.721 57.9534 509.689 57.8628 509.689 57.7561V56.8921C509.689 56.7854 509.721 56.6948 509.785 56.6201C509.86 56.5454 509.951 56.5081 510.057 56.5081H511.065C511.172 56.5081 511.263 56.5454 511.337 56.6201C511.412 56.6948 511.449 56.7854 511.449 56.8921V57.7561C511.449 57.8628 511.412 57.9534 511.337 58.0281C511.263 58.0921 511.172 58.1241 511.065 58.1241H510.057ZM510.185 67.9961C510.079 67.9961 509.988 67.9641 509.913 67.9001C509.849 67.8254 509.817 67.7348 509.817 67.6281V60.0441C509.817 59.9374 509.849 59.8521 509.913 59.7881C509.988 59.7134 510.079 59.6761 510.185 59.6761H510.953C511.06 59.6761 511.145 59.7134 511.209 59.7881C511.284 59.8521 511.321 59.9374 511.321 60.0441V67.6281C511.321 67.7348 511.284 67.8254 511.209 67.9001C511.145 67.9641 511.06 67.9961 510.953 67.9961H510.185ZM516.588 67.9961C516.311 67.9961 516.114 67.8628 515.996 67.5961L513.036 60.1721L513.004 60.0121C513.004 59.9161 513.036 59.8361 513.1 59.7721C513.164 59.7081 513.244 59.6761 513.34 59.6761H514.108C514.29 59.6761 514.423 59.7668 514.508 59.9481L516.94 66.2521L519.372 59.9481C519.468 59.7668 519.596 59.6761 519.756 59.6761H520.54C520.626 59.6761 520.7 59.7081 520.764 59.7721C520.839 59.8361 520.876 59.9161 520.876 60.0121L520.844 60.1721L517.868 67.5961C517.751 67.8628 517.554 67.9961 517.276 67.9961H516.588Z" fill="#412D22"/>
<path d="M721.548 204.805C721.442 204.805 721.351 204.773 721.276 204.709C721.212 204.635 721.18 204.544 721.18 204.437V193.989C721.18 193.872 721.212 193.781 721.276 193.717C721.351 193.643 721.442 193.605 721.548 193.605H722.348C722.466 193.605 722.556 193.643 722.62 193.717C722.695 193.781 722.732 193.872 722.732 193.989V197.957L727.004 193.861C727.175 193.691 727.383 193.605 727.628 193.605H728.492C728.578 193.605 728.652 193.637 728.716 193.701C728.78 193.765 728.812 193.84 728.812 193.925C728.812 194.011 728.791 194.08 728.748 194.133L723.804 198.965L729.068 204.261C729.122 204.325 729.148 204.4 729.148 204.485C729.148 204.571 729.116 204.645 729.052 204.709C728.988 204.773 728.914 204.805 728.828 204.805H727.932C727.698 204.805 727.49 204.715 727.308 204.533L722.732 200.037V204.437C722.732 204.544 722.695 204.635 722.62 204.709C722.546 204.773 722.455 204.805 722.348 204.805H721.548ZM730.966 204.805C730.859 204.805 730.768 204.773 730.694 204.709C730.63 204.635 730.598 204.544 730.598 204.437V193.813C730.598 193.707 730.63 193.621 730.694 193.557C730.768 193.483 730.859 193.445 730.966 193.445H731.766C731.872 193.445 731.958 193.483 732.022 193.557C732.096 193.621 732.134 193.707 732.134 193.813V197.541C732.443 197.147 732.806 196.848 733.222 196.645C733.638 196.432 734.155 196.325 734.774 196.325C735.798 196.325 736.592 196.656 737.158 197.317C737.734 197.968 738.022 198.837 738.022 199.925V204.437C738.022 204.544 737.984 204.635 737.91 204.709C737.846 204.773 737.76 204.805 737.654 204.805H736.854C736.747 204.805 736.656 204.773 736.582 204.709C736.518 204.635 736.486 204.544 736.486 204.437V200.005C736.486 199.248 736.299 198.661 735.926 198.245C735.563 197.829 735.035 197.621 734.342 197.621C733.67 197.621 733.131 197.835 732.726 198.261C732.331 198.677 732.134 199.259 732.134 200.005V204.437C732.134 204.544 732.096 204.635 732.022 204.709C731.958 204.773 731.872 204.805 731.766 204.805H730.966ZM742.652 204.965C742.129 204.965 741.644 204.859 741.196 204.645C740.748 204.432 740.39 204.144 740.124 203.781C739.868 203.408 739.74 202.997 739.74 202.549C739.74 201.845 740.028 201.269 740.604 200.821C741.19 200.363 741.98 200.064 742.972 199.925L745.356 199.589V199.125C745.356 198.037 744.732 197.493 743.484 197.493C743.014 197.493 742.63 197.595 742.332 197.797C742.033 197.989 741.809 198.219 741.66 198.485C741.628 198.581 741.585 198.651 741.532 198.693C741.489 198.736 741.425 198.757 741.34 198.757H740.652C740.556 198.757 740.47 198.725 740.396 198.661C740.332 198.587 740.3 198.501 740.3 198.405C740.31 198.149 740.428 197.861 740.652 197.541C740.886 197.211 741.244 196.928 741.724 196.693C742.204 196.448 742.796 196.325 743.5 196.325C744.694 196.325 745.553 196.608 746.076 197.173C746.598 197.728 746.86 198.421 746.86 199.253V204.437C746.86 204.544 746.822 204.635 746.748 204.709C746.684 204.773 746.598 204.805 746.492 204.805H745.756C745.649 204.805 745.558 204.773 745.484 204.709C745.42 204.635 745.388 204.544 745.388 204.437V203.749C745.153 204.091 744.812 204.379 744.364 204.613C743.916 204.848 743.345 204.965 742.652 204.965ZM742.988 203.765C743.681 203.765 744.246 203.541 744.684 203.093C745.132 202.635 745.356 201.979 745.356 201.125V200.677L743.5 200.949C742.742 201.056 742.172 201.237 741.788 201.493C741.404 201.739 741.212 202.053 741.212 202.437C741.212 202.864 741.388 203.195 741.74 203.429C742.092 203.653 742.508 203.765 742.988 203.765ZM749.528 204.805C749.421 204.805 749.33 204.773 749.256 204.709C749.192 204.635 749.16 204.544 749.16 204.437V196.869C749.16 196.763 749.192 196.672 749.256 196.597C749.33 196.523 749.421 196.485 749.528 196.485H750.264C750.37 196.485 750.461 196.523 750.536 196.597C750.61 196.672 750.648 196.763 750.648 196.869V197.573C751.085 196.848 751.832 196.485 752.888 196.485H753.512C753.618 196.485 753.704 196.523 753.768 196.597C753.842 196.661 753.88 196.747 753.88 196.853V197.509C753.88 197.616 753.842 197.701 753.768 197.765C753.704 197.829 753.618 197.861 753.512 197.861H752.552C751.976 197.861 751.522 198.032 751.192 198.373C750.861 198.704 750.696 199.157 750.696 199.733V204.437C750.696 204.544 750.658 204.635 750.584 204.709C750.509 204.773 750.418 204.805 750.312 204.805H749.528ZM755.622 204.805C755.515 204.805 755.425 204.773 755.35 204.709C755.286 204.635 755.254 204.544 755.254 204.437V193.813C755.254 193.707 755.286 193.621 755.35 193.557C755.425 193.483 755.515 193.445 755.622 193.445H756.374C756.481 193.445 756.566 193.483 756.63 193.557C756.705 193.621 756.742 193.707 756.742 193.813V199.381L759.894 196.757C759.926 196.736 759.979 196.693 760.054 196.629C760.129 196.576 760.198 196.539 760.262 196.517C760.337 196.496 760.427 196.485 760.534 196.485H761.382C761.478 196.485 761.558 196.517 761.622 196.581C761.686 196.645 761.718 196.725 761.718 196.821C761.718 196.939 761.654 197.04 761.526 197.125L757.83 200.197L761.926 204.181C762.054 204.288 762.118 204.384 762.118 204.469C762.118 204.565 762.086 204.645 762.022 204.709C761.958 204.773 761.878 204.805 761.782 204.805H760.95C760.79 204.805 760.673 204.789 760.598 204.757C760.534 204.725 760.438 204.651 760.31 204.533L756.742 201.125V204.437C756.742 204.544 756.705 204.635 756.63 204.709C756.566 204.773 756.481 204.805 756.374 204.805H755.622ZM763.728 194.933C763.621 194.933 763.531 194.901 763.456 194.837C763.392 194.763 763.36 194.672 763.36 194.565V193.701C763.36 193.595 763.392 193.504 763.456 193.429C763.531 193.355 763.621 193.317 763.728 193.317H764.736C764.843 193.317 764.933 193.355 765.008 193.429C765.083 193.504 765.12 193.595 765.12 193.701V194.565C765.12 194.672 765.083 194.763 765.008 194.837C764.933 194.901 764.843 194.933 764.736 194.933H763.728ZM763.856 204.805C763.749 204.805 763.659 204.773 763.584 204.709C763.52 204.635 763.488 204.544 763.488 204.437V196.853C763.488 196.747 763.52 196.661 763.584 196.597C763.659 196.523 763.749 196.485 763.856 196.485H764.624C764.731 196.485 764.816 196.523 764.88 196.597C764.955 196.661 764.992 196.747 764.992 196.853V204.437C764.992 204.544 764.955 204.635 764.88 204.709C764.816 204.773 764.731 204.805 764.624 204.805H763.856ZM770.259 204.805C769.982 204.805 769.784 204.672 769.667 204.405L766.707 196.981L766.675 196.821C766.675 196.725 766.707 196.645 766.771 196.581C766.835 196.517 766.915 196.485 767.011 196.485H767.779C767.96 196.485 768.094 196.576 768.179 196.757L770.611 203.061L773.043 196.757C773.139 196.576 773.267 196.485 773.427 196.485H774.211C774.296 196.485 774.371 196.517 774.435 196.581C774.51 196.645 774.547 196.725 774.547 196.821L774.515 196.981L771.539 204.405C771.422 204.672 771.224 204.805 770.947 204.805H770.259Z" fill="#412D22"/>
<path d="M613.087 316.964C612.98 316.964 612.89 316.932 612.815 316.868C612.751 316.793 612.719 316.703 612.719 316.596V306.148C612.719 306.031 612.751 305.94 612.815 305.876C612.89 305.801 612.98 305.764 613.087 305.764H616.719C618.33 305.764 619.492 306.127 620.207 306.852C620.922 307.567 621.295 308.649 621.327 310.1C621.338 310.409 621.343 310.825 621.343 311.348C621.343 311.871 621.338 312.292 621.327 312.612C621.295 313.625 621.124 314.452 620.815 315.092C620.516 315.721 620.042 316.191 619.391 316.5C618.74 316.809 617.876 316.964 616.799 316.964H613.087ZM616.719 315.604C617.455 315.604 618.036 315.503 618.463 315.3C618.9 315.097 619.215 314.777 619.407 314.34C619.61 313.892 619.722 313.295 619.743 312.548C619.764 311.908 619.775 311.508 619.775 311.348C619.775 311.177 619.764 310.783 619.743 310.164C619.722 309.108 619.471 308.34 618.991 307.86C618.511 307.369 617.727 307.124 616.639 307.124H614.287V315.604H616.719ZM623.91 316.964C623.804 316.964 623.713 316.932 623.638 316.868C623.574 316.793 623.542 316.703 623.542 316.596V309.012C623.542 308.905 623.574 308.82 623.638 308.756C623.713 308.681 623.804 308.644 623.91 308.644H624.662C624.769 308.644 624.854 308.681 624.918 308.756C624.993 308.82 625.03 308.905 625.03 309.012V309.716C625.34 309.321 625.702 309.017 626.118 308.804C626.545 308.591 627.073 308.484 627.702 308.484C628.726 308.484 629.521 308.815 630.086 309.476C630.662 310.127 630.95 310.996 630.95 312.084V316.596C630.95 316.703 630.913 316.793 630.838 316.868C630.774 316.932 630.689 316.964 630.582 316.964H629.782C629.676 316.964 629.585 316.932 629.51 316.868C629.446 316.793 629.414 316.703 629.414 316.596V312.164C629.414 311.407 629.228 310.82 628.854 310.404C628.492 309.988 627.964 309.78 627.27 309.78C626.598 309.78 626.065 309.993 625.67 310.42C625.276 310.836 625.078 311.417 625.078 312.164V316.596C625.078 316.703 625.041 316.793 624.966 316.868C624.902 316.932 624.817 316.964 624.71 316.964H623.91ZM633.486 307.092C633.379 307.092 633.288 307.06 633.214 306.996C633.15 306.921 633.118 306.831 633.118 306.724V305.86C633.118 305.753 633.15 305.663 633.214 305.588C633.288 305.513 633.379 305.476 633.486 305.476H634.494C634.6 305.476 634.691 305.513 634.766 305.588C634.84 305.663 634.878 305.753 634.878 305.86V306.724C634.878 306.831 634.84 306.921 634.766 306.996C634.691 307.06 634.6 307.092 634.494 307.092H633.486ZM633.614 316.964C633.507 316.964 633.416 316.932 633.342 316.868C633.278 316.793 633.246 316.703 633.246 316.596V309.012C633.246 308.905 633.278 308.82 633.342 308.756C633.416 308.681 633.507 308.644 633.614 308.644H634.382C634.488 308.644 634.574 308.681 634.638 308.756C634.712 308.82 634.75 308.905 634.75 309.012V316.596C634.75 316.703 634.712 316.793 634.638 316.868C634.574 316.932 634.488 316.964 634.382 316.964H633.614ZM637.505 320.004C637.398 320.004 637.307 319.967 637.233 319.892C637.169 319.828 637.137 319.743 637.137 319.636V309.012C637.137 308.905 637.169 308.82 637.233 308.756C637.307 308.681 637.398 308.644 637.505 308.644H638.241C638.347 308.644 638.433 308.681 638.497 308.756C638.571 308.82 638.609 308.905 638.609 309.012V309.716C639.206 308.895 640.081 308.484 641.233 308.484C642.353 308.484 643.19 308.836 643.745 309.54C644.31 310.244 644.614 311.151 644.657 312.26C644.667 312.377 644.673 312.559 644.673 312.804C644.673 313.049 644.667 313.231 644.657 313.348C644.614 314.447 644.31 315.353 643.745 316.068C643.179 316.772 642.342 317.124 641.233 317.124C640.123 317.124 639.259 316.724 638.641 315.924V319.636C638.641 319.743 638.609 319.828 638.545 319.892C638.481 319.967 638.395 320.004 638.289 320.004H637.505ZM640.897 315.828C641.654 315.828 642.203 315.593 642.545 315.124C642.897 314.655 643.089 314.036 643.121 313.268C643.131 313.161 643.137 313.007 643.137 312.804C643.137 310.788 642.39 309.78 640.897 309.78C640.161 309.78 639.606 310.025 639.233 310.516C638.87 310.996 638.673 311.572 638.641 312.244L638.625 312.852L638.641 313.476C638.662 314.105 638.865 314.655 639.249 315.124C639.633 315.593 640.182 315.828 640.897 315.828ZM647.02 316.964C646.913 316.964 646.822 316.932 646.748 316.868C646.684 316.793 646.652 316.703 646.652 316.596V309.028C646.652 308.921 646.684 308.831 646.748 308.756C646.822 308.681 646.913 308.644 647.02 308.644H647.756C647.862 308.644 647.953 308.681 648.028 308.756C648.102 308.831 648.14 308.921 648.14 309.028V309.732C648.577 309.007 649.324 308.644 650.38 308.644H651.004C651.11 308.644 651.196 308.681 651.26 308.756C651.334 308.82 651.372 308.905 651.372 309.012V309.668C651.372 309.775 651.334 309.86 651.26 309.924C651.196 309.988 651.11 310.02 651.004 310.02H650.044C649.468 310.02 649.014 310.191 648.684 310.532C648.353 310.863 648.188 311.316 648.188 311.892V316.596C648.188 316.703 648.15 316.793 648.076 316.868C648.001 316.932 647.91 316.964 647.804 316.964H647.02ZM655.982 317.124C654.808 317.124 653.896 316.793 653.246 316.132C652.606 315.471 652.264 314.591 652.222 313.492L652.206 312.804L652.222 312.116C652.264 311.028 652.611 310.153 653.262 309.492C653.912 308.82 654.819 308.484 655.982 308.484C657.144 308.484 658.051 308.82 658.702 309.492C659.352 310.153 659.699 311.028 659.742 312.116C659.752 312.233 659.758 312.463 659.758 312.804C659.758 313.145 659.752 313.375 659.742 313.492C659.699 314.591 659.352 315.471 658.702 316.132C658.062 316.793 657.155 317.124 655.982 317.124ZM655.982 315.892C656.654 315.892 657.182 315.679 657.566 315.252C657.96 314.825 658.174 314.212 658.206 313.412C658.216 313.305 658.222 313.103 658.222 312.804C658.222 312.505 658.216 312.303 658.206 312.196C658.174 311.396 657.96 310.783 657.566 310.356C657.182 309.929 656.654 309.716 655.982 309.716C655.31 309.716 654.776 309.929 654.382 310.356C653.987 310.783 653.779 311.396 653.758 312.196L653.742 312.804L653.758 313.412C653.779 314.212 653.987 314.825 654.382 315.252C654.776 315.679 655.31 315.892 655.982 315.892Z" fill="#412D22"/>
<path d="M562.554 192.48C562.447 192.48 562.357 192.448 562.282 192.384C562.218 192.31 562.186 192.219 562.186 192.112V181.664C562.186 181.547 562.218 181.456 562.282 181.392C562.357 181.318 562.447 181.28 562.554 181.28H566.618C567.823 181.28 568.773 181.574 569.466 182.16C570.159 182.747 570.506 183.595 570.506 184.704C570.506 185.814 570.159 186.662 569.466 187.248C568.783 187.824 567.834 188.112 566.618 188.112H563.786V192.112C563.786 192.219 563.749 192.31 563.674 192.384C563.599 192.448 563.509 192.48 563.402 192.48H562.554ZM566.538 186.768C567.317 186.768 567.903 186.592 568.298 186.24C568.703 185.888 568.906 185.376 568.906 184.704C568.906 184.032 568.709 183.52 568.314 183.168C567.919 182.806 567.327 182.624 566.538 182.624H563.77V186.768H566.538ZM575.542 192.64C574.369 192.64 573.457 192.31 572.806 191.648C572.166 190.987 571.825 190.107 571.782 189.008L571.766 188.32L571.782 187.632C571.825 186.544 572.172 185.67 572.822 185.008C573.473 184.336 574.38 184 575.542 184C576.705 184 577.612 184.336 578.262 185.008C578.913 185.67 579.26 186.544 579.302 187.632C579.313 187.75 579.318 187.979 579.318 188.32C579.318 188.662 579.313 188.891 579.302 189.008C579.26 190.107 578.913 190.987 578.262 191.648C577.622 192.31 576.716 192.64 575.542 192.64ZM575.542 191.408C576.214 191.408 576.742 191.195 577.126 190.768C577.521 190.342 577.734 189.728 577.766 188.928C577.777 188.822 577.782 188.619 577.782 188.32C577.782 188.022 577.777 187.819 577.766 187.712C577.734 186.912 577.521 186.299 577.126 185.872C576.742 185.446 576.214 185.232 575.542 185.232C574.87 185.232 574.337 185.446 573.942 185.872C573.548 186.299 573.34 186.912 573.318 187.712L573.302 188.32L573.318 188.928C573.34 189.728 573.548 190.342 573.942 190.768C574.337 191.195 574.87 191.408 575.542 191.408ZM581.706 192.48C581.599 192.48 581.508 192.448 581.434 192.384C581.37 192.31 581.338 192.219 581.338 192.112V181.488C581.338 181.382 581.37 181.296 581.434 181.232C581.508 181.158 581.599 181.12 581.706 181.12H582.458C582.564 181.12 582.65 181.158 582.714 181.232C582.788 181.296 582.826 181.382 582.826 181.488V192.112C582.826 192.219 582.788 192.31 582.714 192.384C582.65 192.448 582.564 192.48 582.458 192.48H581.706ZM588.46 192.48C586.775 192.48 585.932 191.542 585.932 189.664V185.44H584.684C584.578 185.44 584.487 185.408 584.412 185.344C584.348 185.27 584.316 185.179 584.316 185.072V184.528C584.316 184.422 584.348 184.336 584.412 184.272C584.487 184.198 584.578 184.16 584.684 184.16H585.932V181.488C585.932 181.382 585.964 181.296 586.028 181.232C586.103 181.158 586.194 181.12 586.3 181.12H587.052C587.159 181.12 587.244 181.158 587.308 181.232C587.383 181.296 587.42 181.382 587.42 181.488V184.16H589.404C589.511 184.16 589.596 184.198 589.66 184.272C589.735 184.336 589.772 184.422 589.772 184.528V185.072C589.772 185.179 589.735 185.27 589.66 185.344C589.596 185.408 589.511 185.44 589.404 185.44H587.42V189.552C587.42 190.086 587.511 190.491 587.692 190.768C587.874 191.035 588.172 191.168 588.588 191.168H589.564C589.671 191.168 589.756 191.206 589.82 191.28C589.895 191.344 589.932 191.43 589.932 191.536V192.112C589.932 192.219 589.895 192.31 589.82 192.384C589.756 192.448 589.671 192.48 589.564 192.48H588.46ZM593.782 192.64C593.26 192.64 592.774 192.534 592.326 192.32C591.878 192.107 591.521 191.819 591.254 191.456C590.998 191.083 590.87 190.672 590.87 190.224C590.87 189.52 591.158 188.944 591.734 188.496C592.321 188.038 593.11 187.739 594.102 187.6L596.486 187.264V186.8C596.486 185.712 595.862 185.168 594.614 185.168C594.145 185.168 593.761 185.27 593.462 185.472C593.164 185.664 592.94 185.894 592.79 186.16C592.758 186.256 592.716 186.326 592.662 186.368C592.62 186.411 592.556 186.432 592.47 186.432H591.782C591.686 186.432 591.601 186.4 591.526 186.336C591.462 186.262 591.43 186.176 591.43 186.08C591.441 185.824 591.558 185.536 591.782 185.216C592.017 184.886 592.374 184.603 592.854 184.368C593.334 184.123 593.926 184 594.63 184C595.825 184 596.684 184.283 597.206 184.848C597.729 185.403 597.99 186.096 597.99 186.928V192.112C597.99 192.219 597.953 192.31 597.878 192.384C597.814 192.448 597.729 192.48 597.622 192.48H596.886C596.78 192.48 596.689 192.448 596.614 192.384C596.55 192.31 596.518 192.219 596.518 192.112V191.424C596.284 191.766 595.942 192.054 595.494 192.288C595.046 192.523 594.476 192.64 593.782 192.64ZM594.118 191.44C594.812 191.44 595.377 191.216 595.814 190.768C596.262 190.31 596.486 189.654 596.486 188.8V188.352L594.63 188.624C593.873 188.731 593.302 188.912 592.918 189.168C592.534 189.414 592.342 189.728 592.342 190.112C592.342 190.539 592.518 190.87 592.87 191.104C593.222 191.328 593.638 191.44 594.118 191.44ZM603.03 192.48C602.753 192.48 602.556 192.347 602.438 192.08L599.478 184.656L599.446 184.496C599.446 184.4 599.478 184.32 599.542 184.256C599.606 184.192 599.686 184.16 599.782 184.16H600.55C600.732 184.16 600.865 184.251 600.95 184.432L603.382 190.736L605.814 184.432C605.91 184.251 606.038 184.16 606.198 184.16H606.982C607.068 184.16 607.142 184.192 607.206 184.256C607.281 184.32 607.318 184.4 607.318 184.496L607.286 184.656L604.31 192.08C604.193 192.347 603.996 192.48 603.718 192.48H603.03ZM611.001 192.64C610.478 192.64 609.993 192.534 609.545 192.32C609.097 192.107 608.74 191.819 608.473 191.456C608.217 191.083 608.089 190.672 608.089 190.224C608.089 189.52 608.377 188.944 608.953 188.496C609.54 188.038 610.329 187.739 611.321 187.6L613.705 187.264V186.8C613.705 185.712 613.081 185.168 611.833 185.168C611.364 185.168 610.98 185.27 610.681 185.472C610.382 185.664 610.158 185.894 610.009 186.16C609.977 186.256 609.934 186.326 609.881 186.368C609.838 186.411 609.774 186.432 609.689 186.432H609.001C608.905 186.432 608.82 186.4 608.745 186.336C608.681 186.262 608.649 186.176 608.649 186.08C608.66 185.824 608.777 185.536 609.001 185.216C609.236 184.886 609.593 184.603 610.073 184.368C610.553 184.123 611.145 184 611.849 184C613.044 184 613.902 184.283 614.425 184.848C614.948 185.403 615.209 186.096 615.209 186.928V192.112C615.209 192.219 615.172 192.31 615.097 192.384C615.033 192.448 614.948 192.48 614.841 192.48H614.105C613.998 192.48 613.908 192.448 613.833 192.384C613.769 192.31 613.737 192.219 613.737 192.112V191.424C613.502 191.766 613.161 192.054 612.713 192.288C612.265 192.523 611.694 192.64 611.001 192.64ZM611.337 191.44C612.03 191.44 612.596 191.216 613.033 190.768C613.481 190.31 613.705 189.654 613.705 188.8V188.352L611.849 188.624C611.092 188.731 610.521 188.912 610.137 189.168C609.753 189.414 609.561 189.728 609.561 190.112C609.561 190.539 609.737 190.87 610.089 191.104C610.441 191.328 610.857 191.44 611.337 191.44Z" fill="#412D22"/>
<path d="M561.322 452.541C561.215 452.541 561.124 452.509 561.05 452.445C560.986 452.37 560.954 452.279 560.954 452.173V441.725C560.954 441.607 560.986 441.517 561.05 441.453C561.124 441.378 561.215 441.341 561.322 441.341H562.122C562.239 441.341 562.33 441.378 562.394 441.453C562.468 441.517 562.506 441.607 562.506 441.725V445.693L566.778 441.597C566.948 441.426 567.156 441.341 567.402 441.341H568.266C568.351 441.341 568.426 441.373 568.49 441.437C568.554 441.501 568.586 441.575 568.586 441.661C568.586 441.746 568.564 441.815 568.522 441.869L563.578 446.701L568.842 451.997C568.895 452.061 568.922 452.135 568.922 452.221C568.922 452.306 568.89 452.381 568.826 452.445C568.762 452.509 568.687 452.541 568.602 452.541H567.706C567.471 452.541 567.263 452.45 567.082 452.269L562.506 447.773V452.173C562.506 452.279 562.468 452.37 562.394 452.445C562.319 452.509 562.228 452.541 562.122 452.541H561.322ZM570.739 452.541C570.632 452.541 570.542 452.509 570.467 452.445C570.403 452.37 570.371 452.279 570.371 452.173V441.549C570.371 441.442 570.403 441.357 570.467 441.293C570.542 441.218 570.632 441.181 570.739 441.181H571.539C571.646 441.181 571.731 441.218 571.795 441.293C571.87 441.357 571.907 441.442 571.907 441.549V445.277C572.216 444.882 572.579 444.583 572.995 444.381C573.411 444.167 573.928 444.061 574.547 444.061C575.571 444.061 576.366 444.391 576.931 445.053C577.507 445.703 577.795 446.573 577.795 447.661V452.173C577.795 452.279 577.758 452.37 577.683 452.445C577.619 452.509 577.534 452.541 577.427 452.541H576.627C576.52 452.541 576.43 452.509 576.355 452.445C576.291 452.37 576.259 452.279 576.259 452.173V447.741C576.259 446.983 576.072 446.397 575.699 445.981C575.336 445.565 574.808 445.357 574.115 445.357C573.443 445.357 572.904 445.57 572.499 445.997C572.104 446.413 571.907 446.994 571.907 447.741V452.173C571.907 452.279 571.87 452.37 571.795 452.445C571.731 452.509 571.646 452.541 571.539 452.541H570.739ZM583.433 452.701C582.334 452.701 581.454 452.365 580.793 451.693C580.142 451.01 579.785 450.082 579.721 448.909L579.705 448.365L579.721 447.837C579.796 446.685 580.158 445.767 580.809 445.085C581.47 444.402 582.34 444.061 583.417 444.061C584.601 444.061 585.518 444.439 586.169 445.197C586.82 445.943 587.145 446.957 587.145 448.237V448.509C587.145 448.615 587.108 448.706 587.033 448.781C586.969 448.845 586.884 448.877 586.777 448.877H581.241V449.021C581.273 449.714 581.481 450.306 581.865 450.797C582.26 451.277 582.777 451.517 583.417 451.517C583.908 451.517 584.308 451.421 584.617 451.229C584.937 451.026 585.172 450.818 585.321 450.605C585.417 450.477 585.486 450.402 585.529 450.381C585.582 450.349 585.673 450.333 585.801 450.333H586.585C586.681 450.333 586.761 450.359 586.825 450.413C586.889 450.466 586.921 450.541 586.921 450.637C586.921 450.871 586.772 451.154 586.473 451.485C586.185 451.815 585.774 452.103 585.241 452.349C584.718 452.583 584.116 452.701 583.433 452.701ZM585.625 447.773V447.725C585.625 446.989 585.422 446.391 585.017 445.933C584.622 445.463 584.089 445.229 583.417 445.229C582.745 445.229 582.212 445.463 581.817 445.933C581.433 446.391 581.241 446.989 581.241 447.725V447.773H585.625ZM589.426 452.541C589.319 452.541 589.229 452.509 589.154 452.445C589.09 452.37 589.058 452.279 589.058 452.173V444.605C589.058 444.498 589.09 444.407 589.154 444.333C589.229 444.258 589.319 444.221 589.426 444.221H590.162C590.269 444.221 590.359 444.258 590.434 444.333C590.509 444.407 590.546 444.498 590.546 444.605V445.309C590.983 444.583 591.73 444.221 592.786 444.221H593.41C593.517 444.221 593.602 444.258 593.666 444.333C593.741 444.397 593.778 444.482 593.778 444.589V445.245C593.778 445.351 593.741 445.437 593.666 445.501C593.602 445.565 593.517 445.597 593.41 445.597H592.45C591.874 445.597 591.421 445.767 591.09 446.109C590.759 446.439 590.594 446.893 590.594 447.469V452.173C590.594 452.279 590.557 452.37 590.482 452.445C590.407 452.509 590.317 452.541 590.21 452.541H589.426ZM598.016 452.701C597.27 452.701 596.64 452.583 596.128 452.349C595.627 452.103 595.248 451.826 594.992 451.517C594.747 451.207 594.624 450.951 594.624 450.749C594.624 450.642 594.662 450.562 594.736 450.509C594.822 450.445 594.907 450.413 594.992 450.413H595.712C595.819 450.413 595.915 450.466 596 450.573C596.256 450.871 596.534 451.106 596.832 451.277C597.131 451.447 597.531 451.533 598.032 451.533C598.587 451.533 599.035 451.426 599.376 451.213C599.728 450.989 599.904 450.685 599.904 450.301C599.904 450.045 599.83 449.837 599.68 449.677C599.542 449.506 599.296 449.362 598.944 449.245C598.603 449.117 598.091 448.978 597.408 448.829C596.48 448.626 595.819 448.333 595.424 447.949C595.04 447.565 594.848 447.069 594.848 446.461C594.848 446.055 594.966 445.671 595.2 445.309C595.446 444.935 595.798 444.637 596.256 444.413C596.726 444.178 597.286 444.061 597.936 444.061C598.619 444.061 599.2 444.173 599.68 444.397C600.16 444.621 600.518 444.887 600.752 445.197C600.998 445.495 601.12 445.746 601.12 445.949C601.12 446.045 601.083 446.125 601.008 446.189C600.944 446.253 600.864 446.285 600.768 446.285H600.096C599.968 446.285 599.862 446.231 599.776 446.125C599.606 445.922 599.456 445.767 599.328 445.661C599.211 445.543 599.035 445.442 598.8 445.357C598.576 445.271 598.288 445.229 597.936 445.229C597.424 445.229 597.03 445.341 596.752 445.565C596.475 445.778 596.336 446.061 596.336 446.413C596.336 446.637 596.395 446.829 596.512 446.989C596.63 447.138 596.854 447.277 597.184 447.405C597.526 447.533 598.016 447.666 598.656 447.805C599.67 448.018 600.384 448.327 600.8 448.733C601.227 449.127 601.44 449.634 601.44 450.253C601.44 450.711 601.307 451.127 601.04 451.501C600.774 451.874 600.379 452.167 599.856 452.381C599.344 452.594 598.731 452.701 598.016 452.701ZM606.701 452.701C605.527 452.701 604.615 452.37 603.965 451.709C603.325 451.047 602.983 450.167 602.941 449.069L602.925 448.381L602.941 447.693C602.983 446.605 603.33 445.73 603.981 445.069C604.631 444.397 605.538 444.061 606.701 444.061C607.863 444.061 608.77 444.397 609.421 445.069C610.071 445.73 610.418 446.605 610.461 447.693C610.471 447.81 610.477 448.039 610.477 448.381C610.477 448.722 610.471 448.951 610.461 449.069C610.418 450.167 610.071 451.047 609.421 451.709C608.781 452.37 607.874 452.701 606.701 452.701ZM606.701 451.469C607.373 451.469 607.901 451.255 608.285 450.829C608.679 450.402 608.893 449.789 608.925 448.989C608.935 448.882 608.941 448.679 608.941 448.381C608.941 448.082 608.935 447.879 608.925 447.773C608.893 446.973 608.679 446.359 608.285 445.933C607.901 445.506 607.373 445.293 606.701 445.293C606.029 445.293 605.495 445.506 605.101 445.933C604.706 446.359 604.498 446.973 604.477 447.773L604.461 448.381L604.477 448.989C604.498 449.789 604.706 450.402 605.101 450.829C605.495 451.255 606.029 451.469 606.701 451.469ZM612.848 452.541C612.741 452.541 612.651 452.509 612.576 452.445C612.512 452.37 612.48 452.279 612.48 452.173V444.589C612.48 444.482 612.512 444.397 612.576 444.333C612.651 444.258 612.741 444.221 612.848 444.221H613.6C613.707 444.221 613.792 444.258 613.856 444.333C613.931 444.397 613.968 444.482 613.968 444.589V445.293C614.277 444.898 614.64 444.594 615.056 444.381C615.483 444.167 616.011 444.061 616.64 444.061C617.664 444.061 618.459 444.391 619.024 445.053C619.6 445.703 619.888 446.573 619.888 447.661V452.173C619.888 452.279 619.851 452.37 619.776 452.445C619.712 452.509 619.627 452.541 619.52 452.541H618.72C618.613 452.541 618.523 452.509 618.448 452.445C618.384 452.37 618.352 452.279 618.352 452.173V447.741C618.352 446.983 618.165 446.397 617.792 445.981C617.429 445.565 616.901 445.357 616.208 445.357C615.536 445.357 615.003 445.57 614.608 445.997C614.213 446.413 614.016 446.994 614.016 447.741V452.173C614.016 452.279 613.979 452.37 613.904 452.445C613.84 452.509 613.755 452.541 613.648 452.541H612.848Z" fill="#412D22"/>
<path d="M258.619 129.622C258.513 129.622 258.422 129.59 258.347 129.526C258.283 129.452 258.251 129.356 258.251 129.238V128.55C258.251 128.412 258.273 128.3 258.315 128.214C258.369 128.129 258.427 128.044 258.491 127.958L264.443 119.814H258.763C258.657 119.814 258.566 119.782 258.491 119.718C258.427 119.644 258.395 119.553 258.395 119.446V118.806C258.395 118.689 258.427 118.598 258.491 118.534C258.566 118.46 258.657 118.422 258.763 118.422H266.011C266.129 118.422 266.219 118.46 266.283 118.534C266.358 118.598 266.395 118.689 266.395 118.806V119.494C266.395 119.612 266.374 119.708 266.331 119.782C266.299 119.857 266.251 119.948 266.187 120.054L260.283 128.23H266.171C266.289 128.23 266.379 128.268 266.443 128.342C266.518 128.406 266.555 128.497 266.555 128.614V129.254C266.555 129.361 266.518 129.452 266.443 129.526C266.379 129.59 266.289 129.622 266.171 129.622H258.619ZM268.757 129.622C268.651 129.622 268.56 129.59 268.485 129.526C268.421 129.452 268.389 129.361 268.389 129.254V118.63C268.389 118.524 268.421 118.438 268.485 118.374C268.56 118.3 268.651 118.262 268.757 118.262H269.557C269.664 118.262 269.749 118.3 269.813 118.374C269.888 118.438 269.925 118.524 269.925 118.63V122.358C270.235 121.964 270.597 121.665 271.013 121.462C271.429 121.249 271.947 121.142 272.565 121.142C273.589 121.142 274.384 121.473 274.949 122.134C275.525 122.785 275.813 123.654 275.813 124.742V129.254C275.813 129.361 275.776 129.452 275.701 129.526C275.637 129.59 275.552 129.622 275.445 129.622H274.645C274.539 129.622 274.448 129.59 274.373 129.526C274.309 129.452 274.277 129.361 274.277 129.254V124.822C274.277 124.065 274.091 123.478 273.717 123.062C273.355 122.646 272.827 122.438 272.133 122.438C271.461 122.438 270.923 122.652 270.517 123.078C270.123 123.494 269.925 124.076 269.925 124.822V129.254C269.925 129.361 269.888 129.452 269.813 129.526C269.749 129.59 269.664 129.622 269.557 129.622H268.757ZM279.329 132.662C279.244 132.662 279.169 132.63 279.105 132.566C279.041 132.502 279.009 132.428 279.009 132.342C279.009 132.268 279.036 132.172 279.089 132.054L280.321 129.126L277.265 121.91C277.212 121.772 277.185 121.681 277.185 121.638C277.185 121.542 277.217 121.462 277.281 121.398C277.345 121.334 277.425 121.302 277.521 121.302H278.305C278.476 121.302 278.604 121.393 278.689 121.574L281.121 127.398L283.617 121.574C283.703 121.393 283.836 121.302 284.017 121.302H284.769C284.865 121.302 284.945 121.334 285.009 121.398C285.073 121.462 285.105 121.537 285.105 121.622C285.105 121.654 285.079 121.75 285.025 121.91L280.481 132.39C280.396 132.572 280.263 132.662 280.081 132.662H279.329ZM289.949 129.622C288.264 129.622 287.421 128.684 287.421 126.806V122.582H286.173C286.067 122.582 285.976 122.55 285.901 122.486C285.837 122.412 285.805 122.321 285.805 122.214V121.67C285.805 121.564 285.837 121.478 285.901 121.414C285.976 121.34 286.067 121.302 286.173 121.302H287.421V118.63C287.421 118.524 287.453 118.438 287.517 118.374C287.592 118.3 287.683 118.262 287.789 118.262H288.541C288.648 118.262 288.733 118.3 288.797 118.374C288.872 118.438 288.909 118.524 288.909 118.63V121.302H290.893C291 121.302 291.085 121.34 291.149 121.414C291.224 121.478 291.261 121.564 291.261 121.67V122.214C291.261 122.321 291.224 122.412 291.149 122.486C291.085 122.55 291 122.582 290.893 122.582H288.909V126.694C288.909 127.228 289 127.633 289.181 127.91C289.363 128.177 289.661 128.31 290.077 128.31H291.053C291.16 128.31 291.245 128.348 291.309 128.422C291.384 128.486 291.421 128.572 291.421 128.678V129.254C291.421 129.361 291.384 129.452 291.309 129.526C291.245 129.59 291.16 129.622 291.053 129.622H289.949ZM296.359 129.782C295.186 129.782 294.274 129.452 293.623 128.79C292.983 128.129 292.642 127.249 292.599 126.15L292.583 125.462L292.599 124.774C292.642 123.686 292.989 122.812 293.639 122.15C294.29 121.478 295.197 121.142 296.359 121.142C297.522 121.142 298.429 121.478 299.079 122.15C299.73 122.812 300.077 123.686 300.119 124.774C300.13 124.892 300.135 125.121 300.135 125.462C300.135 125.804 300.13 126.033 300.119 126.15C300.077 127.249 299.73 128.129 299.079 128.79C298.439 129.452 297.533 129.782 296.359 129.782ZM296.359 128.55C297.031 128.55 297.559 128.337 297.943 127.91C298.338 127.484 298.551 126.87 298.583 126.07C298.594 125.964 298.599 125.761 298.599 125.462C298.599 125.164 298.594 124.961 298.583 124.854C298.551 124.054 298.338 123.441 297.943 123.014C297.559 122.588 297.031 122.374 296.359 122.374C295.687 122.374 295.154 122.588 294.759 123.014C294.365 123.441 294.157 124.054 294.135 124.854L294.119 125.462L294.135 126.07C294.157 126.87 294.365 127.484 294.759 127.91C295.154 128.337 295.687 128.55 296.359 128.55ZM302.507 129.622C302.4 129.622 302.31 129.59 302.235 129.526C302.171 129.452 302.139 129.361 302.139 129.254V121.67C302.139 121.564 302.171 121.478 302.235 121.414C302.31 121.34 302.4 121.302 302.507 121.302H303.227C303.334 121.302 303.419 121.34 303.483 121.414C303.558 121.478 303.595 121.564 303.595 121.67V122.23C304.15 121.505 304.923 121.142 305.915 121.142C307.099 121.142 307.936 121.633 308.427 122.614C308.683 122.166 309.046 121.809 309.515 121.542C309.984 121.276 310.512 121.142 311.099 121.142C311.974 121.142 312.688 121.441 313.243 122.038C313.798 122.636 314.075 123.5 314.075 124.63V129.254C314.075 129.361 314.038 129.452 313.963 129.526C313.899 129.59 313.814 129.622 313.707 129.622H312.955C312.848 129.622 312.758 129.59 312.683 129.526C312.619 129.452 312.587 129.361 312.587 129.254V124.774C312.587 123.942 312.411 123.345 312.059 122.982C311.718 122.62 311.264 122.438 310.699 122.438C310.198 122.438 309.766 122.625 309.403 122.998C309.04 123.361 308.859 123.953 308.859 124.774V129.254C308.859 129.361 308.822 129.452 308.747 129.526C308.683 129.59 308.598 129.622 308.491 129.622H307.739C307.632 129.622 307.542 129.59 307.467 129.526C307.403 129.452 307.371 129.361 307.371 129.254V124.774C307.371 123.942 307.19 123.345 306.827 122.982C306.475 122.62 306.027 122.438 305.483 122.438C304.982 122.438 304.55 122.625 304.187 122.998C303.824 123.361 303.643 123.948 303.643 124.758V129.254C303.643 129.361 303.606 129.452 303.531 129.526C303.467 129.59 303.382 129.622 303.275 129.622H302.507ZM317.564 132.662C317.478 132.662 317.404 132.63 317.34 132.566C317.276 132.502 317.244 132.428 317.244 132.342C317.244 132.268 317.27 132.172 317.324 132.054L318.556 129.126L315.5 121.91C315.446 121.772 315.42 121.681 315.42 121.638C315.42 121.542 315.452 121.462 315.516 121.398C315.58 121.334 315.66 121.302 315.756 121.302H316.54C316.71 121.302 316.838 121.393 316.924 121.574L319.356 127.398L321.852 121.574C321.937 121.393 322.07 121.302 322.252 121.302H323.004C323.1 121.302 323.18 121.334 323.244 121.398C323.308 121.462 323.34 121.537 323.34 121.622C323.34 121.654 323.313 121.75 323.26 121.91L318.716 132.39C318.63 132.572 318.497 132.662 318.316 132.662H317.564ZM325.304 129.622C325.197 129.622 325.106 129.59 325.032 129.526C324.968 129.452 324.936 129.361 324.936 129.254V121.686C324.936 121.58 324.968 121.489 325.032 121.414C325.106 121.34 325.197 121.302 325.304 121.302H326.04C326.146 121.302 326.237 121.34 326.312 121.414C326.386 121.489 326.424 121.58 326.424 121.686V122.39C326.861 121.665 327.608 121.302 328.664 121.302H329.288C329.394 121.302 329.48 121.34 329.544 121.414C329.618 121.478 329.656 121.564 329.656 121.67V122.326C329.656 122.433 329.618 122.518 329.544 122.582C329.48 122.646 329.394 122.678 329.288 122.678H328.328C327.752 122.678 327.298 122.849 326.968 123.19C326.637 123.521 326.472 123.974 326.472 124.55V129.254C326.472 129.361 326.434 129.452 326.36 129.526C326.285 129.59 326.194 129.622 326.088 129.622H325.304Z" fill="#412D22"/>
<path d="M262.315 276.291C262.027 276.291 261.83 276.153 261.723 275.875L258.155 265.587L258.123 265.411C258.123 265.326 258.155 265.251 258.219 265.187C258.283 265.123 258.358 265.091 258.443 265.091H259.275C259.478 265.091 259.622 265.187 259.707 265.379L262.827 274.451L265.963 265.379C265.985 265.315 266.033 265.251 266.107 265.187C266.182 265.123 266.273 265.091 266.379 265.091H267.211C267.297 265.091 267.371 265.123 267.435 265.187C267.51 265.251 267.547 265.326 267.547 265.411L267.515 265.587L263.931 275.875C263.825 276.153 263.633 276.291 263.355 276.291H262.315ZM269.504 266.419C269.397 266.419 269.307 266.387 269.232 266.323C269.168 266.249 269.136 266.158 269.136 266.051V265.187C269.136 265.081 269.168 264.99 269.232 264.915C269.307 264.841 269.397 264.803 269.504 264.803H270.512C270.619 264.803 270.709 264.841 270.784 264.915C270.859 264.99 270.896 265.081 270.896 265.187V266.051C270.896 266.158 270.859 266.249 270.784 266.323C270.709 266.387 270.619 266.419 270.512 266.419H269.504ZM269.632 276.291C269.525 276.291 269.435 276.259 269.36 276.195C269.296 276.121 269.264 276.03 269.264 275.923V268.339C269.264 268.233 269.296 268.147 269.36 268.083C269.435 268.009 269.525 267.971 269.632 267.971H270.4C270.507 267.971 270.592 268.009 270.656 268.083C270.731 268.147 270.768 268.233 270.768 268.339V275.923C270.768 276.03 270.731 276.121 270.656 276.195C270.592 276.259 270.507 276.291 270.4 276.291H269.632ZM273.507 276.291C273.4 276.291 273.31 276.259 273.235 276.195C273.171 276.121 273.139 276.03 273.139 275.923V268.339C273.139 268.233 273.171 268.147 273.235 268.083C273.31 268.009 273.4 267.971 273.507 267.971H274.259C274.366 267.971 274.451 268.009 274.515 268.083C274.59 268.147 274.627 268.233 274.627 268.339V269.043C274.936 268.649 275.299 268.345 275.715 268.131C276.142 267.918 276.67 267.811 277.299 267.811C278.323 267.811 279.118 268.142 279.683 268.803C280.259 269.454 280.547 270.323 280.547 271.411V275.923C280.547 276.03 280.51 276.121 280.435 276.195C280.371 276.259 280.286 276.291 280.179 276.291H279.379C279.272 276.291 279.182 276.259 279.107 276.195C279.043 276.121 279.011 276.03 279.011 275.923V271.491C279.011 270.734 278.824 270.147 278.451 269.731C278.088 269.315 277.56 269.107 276.867 269.107C276.195 269.107 275.662 269.321 275.267 269.747C274.872 270.163 274.675 270.745 274.675 271.491V275.923C274.675 276.03 274.638 276.121 274.563 276.195C274.499 276.259 274.414 276.291 274.307 276.291H273.507ZM283.21 276.291C283.103 276.291 283.013 276.259 282.938 276.195C282.874 276.121 282.842 276.03 282.842 275.923V268.339C282.842 268.233 282.874 268.147 282.938 268.083C283.013 268.009 283.103 267.971 283.21 267.971H283.962C284.069 267.971 284.154 268.009 284.218 268.083C284.293 268.147 284.33 268.233 284.33 268.339V269.043C284.639 268.649 285.002 268.345 285.418 268.131C285.845 267.918 286.373 267.811 287.002 267.811C288.026 267.811 288.821 268.142 289.386 268.803C289.962 269.454 290.25 270.323 290.25 271.411V275.923C290.25 276.03 290.213 276.121 290.138 276.195C290.074 276.259 289.989 276.291 289.882 276.291H289.082C288.975 276.291 288.885 276.259 288.81 276.195C288.746 276.121 288.714 276.03 288.714 275.923V271.491C288.714 270.734 288.527 270.147 288.154 269.731C287.791 269.315 287.263 269.107 286.57 269.107C285.898 269.107 285.365 269.321 284.97 269.747C284.575 270.163 284.378 270.745 284.378 271.491V275.923C284.378 276.03 284.341 276.121 284.266 276.195C284.202 276.259 284.117 276.291 284.01 276.291H283.21ZM293.751 279.331C293.666 279.331 293.591 279.299 293.527 279.235C293.463 279.171 293.431 279.097 293.431 279.011C293.431 278.937 293.458 278.841 293.511 278.723L294.743 275.795L291.687 268.579C291.634 268.441 291.607 268.35 291.607 268.307C291.607 268.211 291.639 268.131 291.703 268.067C291.767 268.003 291.847 267.971 291.943 267.971H292.727C292.898 267.971 293.026 268.062 293.111 268.243L295.543 274.067L298.039 268.243C298.124 268.062 298.258 267.971 298.439 267.971H299.191C299.287 267.971 299.367 268.003 299.431 268.067C299.495 268.131 299.527 268.206 299.527 268.291C299.527 268.323 299.5 268.419 299.447 268.579L294.903 279.059C294.818 279.241 294.684 279.331 294.503 279.331H293.751ZM304.371 276.291C302.686 276.291 301.843 275.353 301.843 273.475V269.251H300.595C300.489 269.251 300.398 269.219 300.323 269.155C300.259 269.081 300.227 268.99 300.227 268.883V268.339C300.227 268.233 300.259 268.147 300.323 268.083C300.398 268.009 300.489 267.971 300.595 267.971H301.843V265.299C301.843 265.193 301.875 265.107 301.939 265.043C302.014 264.969 302.105 264.931 302.211 264.931H302.963C303.07 264.931 303.155 264.969 303.219 265.043C303.294 265.107 303.331 265.193 303.331 265.299V267.971H305.315C305.422 267.971 305.507 268.009 305.571 268.083C305.646 268.147 305.683 268.233 305.683 268.339V268.883C305.683 268.99 305.646 269.081 305.571 269.155C305.507 269.219 305.422 269.251 305.315 269.251H303.331V273.363C303.331 273.897 303.422 274.302 303.603 274.579C303.785 274.846 304.083 274.979 304.499 274.979H305.475C305.582 274.979 305.667 275.017 305.731 275.091C305.806 275.155 305.843 275.241 305.843 275.347V275.923C305.843 276.03 305.806 276.121 305.731 276.195C305.667 276.259 305.582 276.291 305.475 276.291H304.371ZM310.253 276.451C309.507 276.451 308.877 276.334 308.365 276.099C307.864 275.854 307.485 275.577 307.229 275.267C306.984 274.958 306.861 274.702 306.861 274.499C306.861 274.393 306.899 274.313 306.973 274.259C307.059 274.195 307.144 274.163 307.229 274.163H307.949C308.056 274.163 308.152 274.217 308.237 274.323C308.493 274.622 308.771 274.857 309.069 275.027C309.368 275.198 309.768 275.283 310.269 275.283C310.824 275.283 311.272 275.177 311.613 274.963C311.965 274.739 312.141 274.435 312.141 274.051C312.141 273.795 312.067 273.587 311.917 273.427C311.779 273.257 311.533 273.113 311.181 272.995C310.84 272.867 310.328 272.729 309.645 272.579C308.717 272.377 308.056 272.083 307.661 271.699C307.277 271.315 307.085 270.819 307.085 270.211C307.085 269.806 307.203 269.422 307.437 269.059C307.683 268.686 308.035 268.387 308.493 268.163C308.963 267.929 309.523 267.811 310.173 267.811C310.856 267.811 311.437 267.923 311.917 268.147C312.397 268.371 312.755 268.638 312.989 268.947C313.235 269.246 313.357 269.497 313.357 269.699C313.357 269.795 313.32 269.875 313.245 269.939C313.181 270.003 313.101 270.035 313.005 270.035H312.333C312.205 270.035 312.099 269.982 312.013 269.875C311.843 269.673 311.693 269.518 311.565 269.411C311.448 269.294 311.272 269.193 311.037 269.107C310.813 269.022 310.525 268.979 310.173 268.979C309.661 268.979 309.267 269.091 308.989 269.315C308.712 269.529 308.573 269.811 308.573 270.163C308.573 270.387 308.632 270.579 308.749 270.739C308.867 270.889 309.091 271.027 309.421 271.155C309.763 271.283 310.253 271.417 310.893 271.555C311.907 271.769 312.621 272.078 313.037 272.483C313.464 272.878 313.677 273.385 313.677 274.003C313.677 274.462 313.544 274.878 313.277 275.251C313.011 275.625 312.616 275.918 312.093 276.131C311.581 276.345 310.968 276.451 310.253 276.451ZM316.704 279.331C316.619 279.331 316.544 279.299 316.48 279.235C316.416 279.171 316.384 279.097 316.384 279.011C316.384 278.937 316.411 278.841 316.464 278.723L317.696 275.795L314.64 268.579C314.587 268.441 314.56 268.35 314.56 268.307C314.56 268.211 314.592 268.131 314.656 268.067C314.72 268.003 314.8 267.971 314.896 267.971H315.68C315.851 267.971 315.979 268.062 316.064 268.243L318.496 274.067L320.992 268.243C321.078 268.062 321.211 267.971 321.392 267.971H322.144C322.24 267.971 322.32 268.003 322.384 268.067C322.448 268.131 322.48 268.206 322.48 268.291C322.48 268.323 322.454 268.419 322.4 268.579L317.856 279.059C317.771 279.241 317.638 279.331 317.456 279.331H316.704ZM326.099 276.451C325.577 276.451 325.091 276.345 324.643 276.131C324.195 275.918 323.838 275.63 323.571 275.267C323.315 274.894 323.187 274.483 323.187 274.035C323.187 273.331 323.475 272.755 324.051 272.307C324.638 271.849 325.427 271.55 326.419 271.411L328.803 271.075V270.611C328.803 269.523 328.179 268.979 326.931 268.979C326.462 268.979 326.078 269.081 325.779 269.283C325.481 269.475 325.257 269.705 325.107 269.971C325.075 270.067 325.033 270.137 324.979 270.179C324.937 270.222 324.873 270.243 324.787 270.243H324.099C324.003 270.243 323.918 270.211 323.843 270.147C323.779 270.073 323.747 269.987 323.747 269.891C323.758 269.635 323.875 269.347 324.099 269.027C324.334 268.697 324.691 268.414 325.171 268.179C325.651 267.934 326.243 267.811 326.947 267.811C328.142 267.811 329.001 268.094 329.523 268.659C330.046 269.214 330.307 269.907 330.307 270.739V275.923C330.307 276.03 330.27 276.121 330.195 276.195C330.131 276.259 330.046 276.291 329.939 276.291H329.203C329.097 276.291 329.006 276.259 328.931 276.195C328.867 276.121 328.835 276.03 328.835 275.923V275.235C328.601 275.577 328.259 275.865 327.811 276.099C327.363 276.334 326.793 276.451 326.099 276.451ZM326.435 275.251C327.129 275.251 327.694 275.027 328.131 274.579C328.579 274.121 328.803 273.465 328.803 272.611V272.163L326.947 272.435C326.19 272.542 325.619 272.723 325.235 272.979C324.851 273.225 324.659 273.539 324.659 273.923C324.659 274.35 324.835 274.681 325.187 274.915C325.539 275.139 325.955 275.251 326.435 275.251Z" fill="#412D22"/>
<path d="M21.4802 196.177C21.3735 196.177 21.2829 196.145 21.2082 196.081C21.1442 196.007 21.1122 195.916 21.1122 195.809V185.345C21.1122 185.239 21.1442 185.153 21.2082 185.089C21.2829 185.015 21.3735 184.977 21.4802 184.977H22.3282C22.4349 184.977 22.5202 185.015 22.5842 185.089C22.6589 185.153 22.6962 185.239 22.6962 185.345V194.785H28.0082C28.1255 194.785 28.2162 194.823 28.2802 194.897C28.3549 194.961 28.3922 195.052 28.3922 195.169V195.809C28.3922 195.916 28.3549 196.007 28.2802 196.081C28.2055 196.145 28.1149 196.177 28.0082 196.177H21.4802ZM31.3783 196.177C31.101 196.177 30.9037 196.044 30.7863 195.777L27.8263 188.353L27.7943 188.193C27.7943 188.097 27.8263 188.017 27.8903 187.953C27.9543 187.889 28.0343 187.857 28.1303 187.857H28.8983C29.0797 187.857 29.213 187.948 29.2983 188.129L31.7303 194.433L34.1623 188.129C34.2583 187.948 34.3863 187.857 34.5463 187.857H35.3303C35.4157 187.857 35.4903 187.889 35.5543 187.953C35.629 188.017 35.6663 188.097 35.6663 188.193L35.6343 188.353L32.6583 195.777C32.541 196.044 32.3437 196.177 32.0663 196.177H31.3783ZM37.5817 186.305C37.475 186.305 37.3844 186.273 37.3097 186.209C37.2457 186.135 37.2137 186.044 37.2137 185.937V185.073C37.2137 184.967 37.2457 184.876 37.3097 184.801C37.3844 184.727 37.475 184.689 37.5817 184.689H38.5897C38.6964 184.689 38.787 184.727 38.8617 184.801C38.9364 184.876 38.9737 184.967 38.9737 185.073V185.937C38.9737 186.044 38.9364 186.135 38.8617 186.209C38.787 186.273 38.6964 186.305 38.5897 186.305H37.5817ZM37.7097 196.177C37.603 196.177 37.5124 196.145 37.4377 196.081C37.3737 196.007 37.3417 195.916 37.3417 195.809V188.225C37.3417 188.119 37.3737 188.033 37.4377 187.969C37.5124 187.895 37.603 187.857 37.7097 187.857H38.4777C38.5844 187.857 38.6697 187.895 38.7337 187.969C38.8084 188.033 38.8457 188.119 38.8457 188.225V195.809C38.8457 195.916 38.8084 196.007 38.7337 196.081C38.6697 196.145 38.5844 196.177 38.4777 196.177H37.7097ZM44.1127 196.177C43.8354 196.177 43.638 196.044 43.5207 195.777L40.5607 188.353L40.5287 188.193C40.5287 188.097 40.5607 188.017 40.6247 187.953C40.6887 187.889 40.7687 187.857 40.8647 187.857H41.6327C41.814 187.857 41.9474 187.948 42.0327 188.129L44.4647 194.433L46.8967 188.129C46.9927 187.948 47.1207 187.857 47.2807 187.857H48.0647C48.15 187.857 48.2247 187.889 48.2887 187.953C48.3634 188.017 48.4007 188.097 48.4007 188.193L48.3687 188.353L45.3927 195.777C45.2754 196.044 45.078 196.177 44.8007 196.177H44.1127Z" fill="#412D22"/>
<path d="M85.5709 72.926C85.4642 72.926 85.3736 72.894 85.2989 72.83C85.2349 72.7554 85.2029 72.6647 85.2029 72.558V62.094C85.2029 61.9874 85.2349 61.902 85.2989 61.838C85.3736 61.7634 85.4642 61.726 85.5709 61.726H86.4189C86.5256 61.726 86.6109 61.7634 86.6749 61.838C86.7496 61.902 86.7869 61.9874 86.7869 62.094V71.534H92.0989C92.2162 71.534 92.3069 71.5714 92.3709 71.646C92.4456 71.71 92.4829 71.8007 92.4829 71.918V72.558C92.4829 72.6647 92.4456 72.7554 92.3709 72.83C92.2962 72.894 92.2056 72.926 92.0989 72.926H85.5709ZM96.8645 73.086C95.8512 73.086 95.0672 72.7607 94.5125 72.11C93.9579 71.4487 93.6805 70.574 93.6805 69.486V64.974C93.6805 64.8674 93.7125 64.782 93.7765 64.718C93.8512 64.6434 93.9419 64.606 94.0485 64.606H94.8485C94.9552 64.606 95.0405 64.6434 95.1045 64.718C95.1792 64.782 95.2165 64.8674 95.2165 64.974V69.406C95.2165 70.9954 95.9099 71.79 97.2965 71.79C97.9685 71.79 98.5019 71.582 98.8965 71.166C99.2912 70.7394 99.4885 70.1527 99.4885 69.406V64.974C99.4885 64.8674 99.5205 64.782 99.5845 64.718C99.6592 64.6434 99.7499 64.606 99.8565 64.606H100.657C100.763 64.606 100.849 64.6434 100.913 64.718C100.977 64.782 101.009 64.8674 101.009 64.974V72.558C101.009 72.6647 100.977 72.7554 100.913 72.83C100.849 72.894 100.763 72.926 100.657 72.926H99.9045C99.7979 72.926 99.7072 72.894 99.6325 72.83C99.5685 72.7554 99.5365 72.6647 99.5365 72.558V71.854C99.2379 72.2594 98.8752 72.5687 98.4485 72.782C98.0219 72.9847 97.4939 73.086 96.8645 73.086ZM106.634 72.926C104.948 72.926 104.106 71.9874 104.106 70.11V65.886H102.858C102.751 65.886 102.66 65.854 102.586 65.79C102.522 65.7154 102.49 65.6247 102.49 65.518V64.974C102.49 64.8674 102.522 64.782 102.586 64.718C102.66 64.6434 102.751 64.606 102.858 64.606H104.106V61.934C104.106 61.8274 104.138 61.742 104.202 61.678C104.276 61.6034 104.367 61.566 104.474 61.566H105.226C105.332 61.566 105.418 61.6034 105.482 61.678C105.556 61.742 105.594 61.8274 105.594 61.934V64.606H107.578C107.684 64.606 107.77 64.6434 107.834 64.718C107.908 64.782 107.946 64.8674 107.946 64.974V65.518C107.946 65.6247 107.908 65.7154 107.834 65.79C107.77 65.854 107.684 65.886 107.578 65.886H105.594V69.998C105.594 70.5314 105.684 70.9367 105.866 71.214C106.047 71.4807 106.346 71.614 106.762 71.614H107.738C107.844 71.614 107.93 71.6514 107.994 71.726C108.068 71.79 108.106 71.8754 108.106 71.982V72.558C108.106 72.6647 108.068 72.7554 107.994 72.83C107.93 72.894 107.844 72.926 107.738 72.926H106.634ZM112.516 73.086C111.769 73.086 111.14 72.9687 110.628 72.734C110.126 72.4887 109.748 72.2114 109.492 71.902C109.246 71.5927 109.124 71.3367 109.124 71.134C109.124 71.0274 109.161 70.9474 109.236 70.894C109.321 70.83 109.406 70.798 109.492 70.798H110.212C110.318 70.798 110.414 70.8514 110.5 70.958C110.756 71.2567 111.033 71.4914 111.332 71.662C111.63 71.8327 112.03 71.918 112.532 71.918C113.086 71.918 113.534 71.8114 113.876 71.598C114.228 71.374 114.404 71.07 114.404 70.686C114.404 70.43 114.329 70.222 114.18 70.062C114.041 69.8914 113.796 69.7474 113.444 69.63C113.102 69.502 112.59 69.3634 111.908 69.214C110.98 69.0114 110.318 68.718 109.924 68.334C109.54 67.95 109.348 67.454 109.348 66.846C109.348 66.4407 109.465 66.0567 109.7 65.694C109.945 65.3207 110.297 65.022 110.756 64.798C111.225 64.5634 111.785 64.446 112.436 64.446C113.118 64.446 113.7 64.558 114.18 64.782C114.66 65.006 115.017 65.2727 115.252 65.582C115.497 65.8807 115.62 66.1314 115.62 66.334C115.62 66.43 115.582 66.51 115.508 66.574C115.444 66.638 115.364 66.67 115.268 66.67H114.596C114.468 66.67 114.361 66.6167 114.276 66.51C114.105 66.3074 113.956 66.1527 113.828 66.046C113.71 65.9287 113.534 65.8274 113.3 65.742C113.076 65.6567 112.788 65.614 112.436 65.614C111.924 65.614 111.529 65.726 111.252 65.95C110.974 66.1634 110.836 66.446 110.836 66.798C110.836 67.022 110.894 67.214 111.012 67.374C111.129 67.5234 111.353 67.662 111.684 67.79C112.025 67.918 112.516 68.0514 113.156 68.19C114.169 68.4034 114.884 68.7127 115.3 69.118C115.726 69.5127 115.94 70.0194 115.94 70.638C115.94 71.0967 115.806 71.5127 115.54 71.886C115.273 72.2594 114.878 72.5527 114.356 72.766C113.844 72.9794 113.23 73.086 112.516 73.086ZM118.176 72.926C118.069 72.926 117.978 72.894 117.904 72.83C117.84 72.7554 117.808 72.6647 117.808 72.558V61.934C117.808 61.8274 117.84 61.742 117.904 61.678C117.978 61.6034 118.069 61.566 118.176 61.566H118.928C119.034 61.566 119.12 61.6034 119.184 61.678C119.258 61.742 119.296 61.8274 119.296 61.934V67.502L122.448 64.878C122.48 64.8567 122.533 64.814 122.608 64.75C122.682 64.6967 122.752 64.6594 122.816 64.638C122.89 64.6167 122.981 64.606 123.088 64.606H123.936C124.032 64.606 124.112 64.638 124.176 64.702C124.24 64.766 124.272 64.846 124.272 64.942C124.272 65.0594 124.208 65.1607 124.08 65.246L120.384 68.318L124.48 72.302C124.608 72.4087 124.672 72.5047 124.672 72.59C124.672 72.686 124.64 72.766 124.576 72.83C124.512 72.894 124.432 72.926 124.336 72.926H123.504C123.344 72.926 123.226 72.91 123.152 72.878C123.088 72.846 122.992 72.7714 122.864 72.654L119.296 69.246V72.558C119.296 72.6647 119.258 72.7554 119.184 72.83C119.12 72.894 119.034 72.926 118.928 72.926H118.176Z" fill="#412D22"/>
</svg>
