<svg width="21" height="20" viewBox="0 0 21 20" fill="none" xmlns="http://www.w3.org/2000/svg">
<path d="M20.4422 9.99259C17.709 9.95939 15.502 7.73912 15.502 4.99816C12.761 4.99816 10.541 2.79156 10.5074 0.0588002C9.44261 -0.102915 8.35394 0.0705187 7.3934 0.559572L4.69302 1.93533C3.72092 2.43072 2.93068 3.22123 2.43561 4.19349L1.06452 6.88406C0.567984 7.85879 0.392688 8.96566 0.563744 10.0461L1.03562 13.0253C1.2065 14.1047 1.71462 15.1023 2.48717 15.8753L4.62662 18.0143C5.39673 18.7847 6.39098 19.2914 7.46684 19.4619L10.4633 19.9365C11.5379 20.1069 12.6391 19.9322 13.609 19.4381L16.3094 18.0627C17.2814 17.5672 18.0716 16.7768 18.5668 15.8046L19.9379 13.114C20.4285 12.1515 20.6023 11.0602 20.4422 9.99259ZM7.37504 14.3745C6.68481 14.3745 6.12505 13.8148 6.12505 13.1246C6.12505 12.4343 6.68481 11.8746 7.37504 11.8746C8.06527 11.8746 8.62503 12.4343 8.62503 13.1246C8.62503 13.8148 8.06527 14.3745 7.37504 14.3745ZM8.62503 8.12466C7.9348 8.12466 7.37504 7.56491 7.37504 6.87468C7.37504 6.18446 7.9348 5.62471 8.62503 5.62471C9.31526 5.62471 9.87503 6.18446 9.87503 6.87468C9.87503 7.56491 9.31526 8.12466 8.62503 8.12466ZM14.875 13.1246C14.1848 13.1246 13.625 12.5648 13.625 11.8746C13.625 11.1844 14.1848 10.6246 14.875 10.6246C15.5652 10.6246 16.125 11.1844 16.125 11.8746C16.125 12.5648 15.5652 13.1246 14.875 13.1246Z" fill="white"/>
</svg>
