<svg width="235" height="141" viewBox="0 0 235 141" fill="none" xmlns="http://www.w3.org/2000/svg">
<path d="M108.293 42.0822C108.293 34.6411 114.326 28.6089 121.767 28.6089C129.208 28.6089 135.24 34.6411 135.24 42.0822C135.24 42.4767 135.214 42.8649 135.181 43.2509C134.681 43.0413 134.132 42.9243 133.556 42.9243C132.372 42.9243 131.307 43.4161 130.542 44.2023C129.917 43.9261 129.23 43.7664 128.503 43.7664C125.713 43.7664 123.451 46.0285 123.451 48.8189C123.451 49.5456 123.611 50.2327 123.887 50.8572C123.101 51.6221 122.609 52.6877 122.609 53.8714C122.609 54.4476 122.726 54.9963 122.936 55.4965C122.55 55.5297 122.161 55.5555 121.767 55.5555C114.326 55.5555 108.293 49.5233 108.293 42.0822Z" fill="#412D22"/>
<path d="M121.767 28.6089C114.326 28.6089 108.293 34.6411 108.293 42.0822C108.293 49.5233 114.326 55.5555 121.767 55.5555C122.161 55.5555 122.55 55.5297 122.936 55.4965C122.726 54.9963 122.609 54.4476 122.609 53.8714C122.609 52.6877 123.101 51.6221 123.887 50.8572C123.611 50.2327 123.451 49.5456 123.451 48.8189C123.451 46.0285 125.713 43.7664 128.503 43.7664C129.23 43.7664 129.917 43.9261 130.542 44.2023C131.307 43.4161 132.372 42.9243 133.556 42.9243C134.132 42.9243 134.681 43.0413 135.181 43.2509C135.214 42.8649 135.24 42.4767 135.24 42.0822C135.24 34.6411 129.208 28.6089 121.767 28.6089ZM112.504 42.0822C112.039 42.0822 111.662 41.7052 111.662 41.2401C111.662 40.775 112.039 40.3981 112.504 40.3981C112.969 40.3981 113.346 40.775 113.346 41.2401C113.346 41.7052 112.969 42.0822 112.504 42.0822ZM116.714 48.8188C115.784 48.8188 115.03 48.0647 115.03 47.1347C115.03 46.2045 115.784 45.4505 116.714 45.4505C117.644 45.4505 118.398 46.2045 118.398 47.1347C118.398 48.0647 117.644 48.8188 116.714 48.8188ZM118.398 37.0297C117.468 37.0297 116.714 36.2756 116.714 35.3455C116.714 34.4153 117.468 33.6613 118.398 33.6613C119.329 33.6613 120.083 34.4153 120.083 35.3455C120.083 36.2756 119.329 37.0297 118.398 37.0297ZM120.925 43.7663C120.46 43.7663 120.083 43.3893 120.083 42.9243C120.083 42.4592 120.46 42.0822 120.925 42.0822C121.39 42.0822 121.767 42.4592 121.767 42.9243C121.767 43.3893 121.39 43.7663 120.925 43.7663ZM125.977 31.9772C126.442 31.9772 126.819 32.3541 126.819 32.8193C126.819 33.2843 126.442 33.6613 125.977 33.6613C125.512 33.6613 125.135 33.2843 125.135 32.8193C125.135 32.3541 125.512 31.9772 125.977 31.9772ZM126.819 40.398C125.889 40.398 125.135 39.6439 125.135 38.7139C125.135 37.7837 125.889 37.0297 126.819 37.0297C127.749 37.0297 128.503 37.7837 128.503 38.7139C128.503 39.6439 127.749 40.398 126.819 40.398Z" fill="#E39A3B"/>
<path d="M169.654 46.8893C169.654 44.1128 171.905 41.8619 174.682 41.8619C177.458 41.8619 179.709 44.1128 179.709 46.8893C179.709 47.0365 179.699 47.1813 179.687 47.3254C179.5 47.2472 179.296 47.2035 179.081 47.2035C178.639 47.2035 178.241 47.387 177.956 47.6804C177.723 47.5773 177.467 47.5177 177.195 47.5177C176.154 47.5177 175.31 48.3618 175.31 49.403C175.31 49.6742 175.37 49.9305 175.473 50.1635C175.179 50.449 174.996 50.8466 174.996 51.2882C174.996 51.5033 175.04 51.708 175.118 51.8946C174.974 51.907 174.829 51.9167 174.682 51.9167C171.905 51.9167 169.654 49.6658 169.654 46.8893Z" fill="#412D22"/>
<path d="M174.682 41.8619C171.905 41.8619 169.654 44.1128 169.654 46.8893C169.654 49.6658 171.905 51.9167 174.682 51.9167C174.829 51.9167 174.974 51.907 175.118 51.8946C175.04 51.708 174.996 51.5033 174.996 51.2882C174.996 50.8466 175.179 50.449 175.473 50.1635C175.37 49.9305 175.31 49.6742 175.31 49.403C175.31 48.3618 176.154 47.5177 177.195 47.5177C177.467 47.5177 177.723 47.5773 177.956 47.6804C178.241 47.387 178.639 47.2035 179.081 47.2035C179.296 47.2035 179.5 47.2472 179.687 47.3254C179.699 47.1813 179.709 47.0365 179.709 46.8893C179.709 44.1128 177.458 41.8619 174.682 41.8619ZM171.225 46.8893C171.052 46.8893 170.911 46.7486 170.911 46.5751C170.911 46.4015 171.052 46.2609 171.225 46.2609C171.399 46.2609 171.54 46.4015 171.54 46.5751C171.54 46.7486 171.399 46.8893 171.225 46.8893ZM172.796 49.403C172.449 49.403 172.168 49.1216 172.168 48.7745C172.168 48.4275 172.449 48.1461 172.796 48.1461C173.143 48.1461 173.425 48.4275 173.425 48.7745C173.425 49.1216 173.143 49.403 172.796 49.403ZM173.425 45.004C173.078 45.004 172.796 44.7226 172.796 44.3756C172.796 44.0285 173.078 43.7472 173.425 43.7472C173.772 43.7472 174.053 44.0285 174.053 44.3756C174.053 44.7226 173.772 45.004 173.425 45.004ZM174.367 47.5177C174.194 47.5177 174.053 47.377 174.053 47.2035C174.053 47.03 174.194 46.8893 174.367 46.8893C174.541 46.8893 174.682 47.03 174.682 47.2035C174.682 47.377 174.541 47.5177 174.367 47.5177ZM176.253 43.1188C176.426 43.1188 176.567 43.2594 176.567 43.433C176.567 43.6065 176.426 43.7472 176.253 43.7472C176.079 43.7472 175.938 43.6065 175.938 43.433C175.938 43.2594 176.079 43.1188 176.253 43.1188ZM176.567 46.2609C176.22 46.2609 175.938 45.9795 175.938 45.6324C175.938 45.2854 176.22 45.004 176.567 45.004C176.914 45.004 177.195 45.2854 177.195 45.6324C177.195 45.9795 176.914 46.2609 176.567 46.2609Z" fill="#E39A3B"/>
<path d="M172.654 125.636C172.654 122.86 174.905 120.609 177.682 120.609C180.458 120.609 182.709 122.86 182.709 125.636C182.709 125.783 182.699 125.928 182.687 126.072C182.5 125.994 182.296 125.95 182.081 125.95C181.639 125.95 181.241 126.134 180.956 126.427C180.723 126.324 180.467 126.265 180.195 126.265C179.154 126.265 178.31 127.109 178.31 128.15C178.31 128.421 178.37 128.677 178.473 128.91C178.179 129.196 177.996 129.594 177.996 130.035C177.996 130.25 178.04 130.455 178.118 130.642C177.974 130.654 177.829 130.664 177.682 130.664C174.905 130.664 172.654 128.413 172.654 125.636Z" fill="#412D22"/>
<path d="M177.682 120.609C174.905 120.609 172.654 122.86 172.654 125.636C172.654 128.413 174.905 130.664 177.682 130.664C177.829 130.664 177.974 130.654 178.118 130.642C178.04 130.455 177.996 130.25 177.996 130.035C177.996 129.594 178.179 129.196 178.473 128.91C178.37 128.677 178.31 128.421 178.31 128.15C178.31 127.109 179.154 126.265 180.195 126.265C180.467 126.265 180.723 126.324 180.956 126.427C181.241 126.134 181.639 125.95 182.081 125.95C182.296 125.95 182.5 125.994 182.687 126.072C182.699 125.928 182.709 125.783 182.709 125.636C182.709 122.86 180.458 120.609 177.682 120.609ZM174.225 125.636C174.052 125.636 173.911 125.496 173.911 125.322C173.911 125.148 174.052 125.008 174.225 125.008C174.399 125.008 174.54 125.148 174.54 125.322C174.54 125.496 174.399 125.636 174.225 125.636ZM175.796 128.15C175.449 128.15 175.168 127.869 175.168 127.521C175.168 127.174 175.449 126.893 175.796 126.893C176.143 126.893 176.425 127.174 176.425 127.521C176.425 127.869 176.143 128.15 175.796 128.15ZM176.425 123.751C176.078 123.751 175.796 123.47 175.796 123.123C175.796 122.775 176.078 122.494 176.425 122.494C176.772 122.494 177.053 122.775 177.053 123.123C177.053 123.47 176.772 123.751 176.425 123.751ZM177.367 126.265C177.194 126.265 177.053 126.124 177.053 125.95C177.053 125.777 177.194 125.636 177.367 125.636C177.541 125.636 177.682 125.777 177.682 125.95C177.682 126.124 177.541 126.265 177.367 126.265ZM179.253 121.866C179.426 121.866 179.567 122.006 179.567 122.18C179.567 122.353 179.426 122.494 179.253 122.494C179.079 122.494 178.938 122.353 178.938 122.18C178.938 122.006 179.079 121.866 179.253 121.866ZM179.567 125.008C179.22 125.008 178.938 124.726 178.938 124.379C178.938 124.032 179.22 123.751 179.567 123.751C179.914 123.751 180.195 124.032 180.195 124.379C180.195 124.726 179.914 125.008 179.567 125.008Z" fill="#E39A3B"/>
<path d="M214.906 50.4625C214.906 45.0205 219.318 40.6089 224.76 40.6089C230.202 40.6089 234.613 45.0205 234.614 50.4625C234.614 50.7511 234.595 51.0349 234.57 51.3172C234.205 51.1639 233.803 51.0784 233.382 51.0784C232.516 51.0784 231.737 51.438 231.177 52.0131C230.721 51.811 230.218 51.6942 229.687 51.6942C227.646 51.6942 225.992 53.3486 225.992 55.3893C225.992 55.9208 226.108 56.4233 226.31 56.88C225.735 57.4395 225.376 58.2188 225.376 59.0844C225.376 59.5059 225.461 59.9072 225.615 60.273C225.332 60.2973 225.048 60.3161 224.76 60.3161C219.318 60.3161 214.906 55.9045 214.906 50.4625Z" fill="#412D22"/>
<path d="M224.76 40.6089C219.318 40.6089 214.906 45.0205 214.906 50.4625C214.906 55.9045 219.318 60.3161 224.76 60.3161C225.048 60.3161 225.332 60.2973 225.615 60.273C225.461 59.9072 225.376 59.5059 225.376 59.0844C225.376 58.2188 225.735 57.4395 226.31 56.88C226.108 56.4233 225.992 55.9208 225.992 55.3893C225.992 53.3486 227.646 51.6942 229.687 51.6942C230.218 51.6942 230.721 51.811 231.177 52.0131C231.737 51.438 232.516 51.0784 233.382 51.0784C233.803 51.0784 234.205 51.1639 234.57 51.3172C234.595 51.0349 234.614 50.7511 234.614 50.4625C234.613 45.0205 230.202 40.6089 224.76 40.6089ZM217.986 50.4625C217.645 50.4625 217.37 50.1868 217.37 49.8467C217.37 49.5065 217.645 49.2308 217.986 49.2308C218.326 49.2308 218.601 49.5065 218.601 49.8467C218.601 50.1868 218.326 50.4625 217.986 50.4625ZM221.065 55.3893C220.384 55.3893 219.833 54.8378 219.833 54.1576C219.833 53.4773 220.384 52.9259 221.065 52.9259C221.745 52.9259 222.296 53.4773 222.296 54.1576C222.296 54.8378 221.745 55.3893 221.065 55.3893ZM222.296 46.7674C221.616 46.7674 221.065 46.2159 221.065 45.5357C221.065 44.8554 221.616 44.304 222.296 44.304C222.977 44.304 223.528 44.8554 223.528 45.5357C223.528 46.2159 222.977 46.7674 222.296 46.7674ZM224.144 51.6942C223.804 51.6942 223.528 51.4184 223.528 51.0784C223.528 50.7382 223.804 50.4625 224.144 50.4625C224.484 50.4625 224.76 50.7382 224.76 51.0784C224.76 51.4184 224.484 51.6942 224.144 51.6942ZM227.839 43.0723C228.179 43.0723 228.455 43.348 228.455 43.6881C228.455 44.0282 228.179 44.304 227.839 44.304C227.499 44.304 227.223 44.0282 227.223 43.6881C227.223 43.348 227.499 43.0723 227.839 43.0723ZM228.455 49.2308C227.775 49.2308 227.223 48.6793 227.223 47.9991C227.223 47.3188 227.775 46.7674 228.455 46.7674C229.135 46.7674 229.687 47.3188 229.687 47.9991C229.687 48.6793 229.135 49.2308 228.455 49.2308Z" fill="#E39A3B"/>
<path d="M27.5825 10.9821C27.5825 6.42855 31.2739 2.73718 35.8274 2.73718C40.3809 2.73718 44.0722 6.42855 44.0723 10.9821C44.0723 11.2235 44.0565 11.461 44.0361 11.6972C43.7301 11.569 43.3943 11.4974 43.0416 11.4974C42.3173 11.4974 41.6653 11.7983 41.1971 12.2794C40.815 12.1104 40.3946 12.0127 39.9498 12.0127C38.2423 12.0127 36.858 13.3969 36.858 15.1045C36.858 15.5492 36.9558 15.9697 37.1248 16.3518C36.6436 16.8199 36.3427 17.472 36.3427 18.1963C36.3427 18.5489 36.4143 18.8847 36.5426 19.1908C36.3064 19.2111 36.0688 19.2269 35.8274 19.2269C31.2739 19.2269 27.5825 15.5356 27.5825 10.9821Z" fill="#412D22"/>
<path d="M35.8274 2.73718C31.2739 2.73718 27.5825 6.42855 27.5825 10.9821C27.5825 15.5356 31.2739 19.2269 35.8274 19.2269C36.0688 19.2269 36.3064 19.2111 36.5426 19.1908C36.4143 18.8847 36.3427 18.5489 36.3427 18.1963C36.3427 17.472 36.6436 16.8199 37.1248 16.3518C36.9558 15.9697 36.858 15.5492 36.858 15.1045C36.858 13.3969 38.2423 12.0127 39.9498 12.0127C40.3946 12.0127 40.815 12.1104 41.1971 12.2794C41.6653 11.7983 42.3173 11.4974 43.0416 11.4974C43.3943 11.4974 43.7301 11.569 44.0361 11.6972C44.0565 11.461 44.0723 11.2235 44.0723 10.9821C44.0722 6.42855 40.3809 2.73718 35.8274 2.73718ZM30.159 10.9821C29.8745 10.9821 29.6438 10.7513 29.6438 10.4668C29.6438 10.1821 29.8745 9.95147 30.159 9.95147C30.4436 9.95147 30.6743 10.1821 30.6743 10.4668C30.6743 10.7513 30.4436 10.9821 30.159 10.9821ZM32.7355 15.1045C32.1663 15.1045 31.7049 14.643 31.7049 14.0738C31.7049 13.5046 32.1663 13.0432 32.7355 13.0432C33.3048 13.0432 33.7662 13.5046 33.7662 14.0738C33.7662 14.643 33.3048 15.1045 32.7355 15.1045ZM33.7662 7.8902C33.1969 7.8902 32.7355 7.42875 32.7355 6.85959C32.7355 6.29037 33.1969 5.82897 33.7662 5.82897C34.3354 5.82897 34.7968 6.29037 34.7968 6.85959C34.7968 7.42875 34.3354 7.8902 33.7662 7.8902ZM35.3121 12.0126C35.0275 12.0126 34.7968 11.7819 34.7968 11.4973C34.7968 11.2127 35.0275 10.9821 35.3121 10.9821C35.5966 10.9821 35.8274 11.2127 35.8274 11.4973C35.8274 11.7819 35.5967 12.0126 35.3121 12.0126ZM38.4039 4.79838C38.6884 4.79838 38.9192 5.02905 38.9192 5.31368C38.9192 5.59824 38.6884 5.82897 38.4039 5.82897C38.1193 5.82897 37.8886 5.59824 37.8886 5.31368C37.8886 5.02905 38.1193 4.79838 38.4039 4.79838ZM38.9192 9.95144C38.35 9.95144 37.8886 9.48998 37.8886 8.92082C37.8886 8.3516 38.35 7.8902 38.9192 7.8902C39.4884 7.8902 39.9498 8.3516 39.9498 8.92082C39.9498 9.48998 39.4884 9.95144 38.9192 9.95144Z" fill="#E39A3B"/>
<path d="M134.653 8.25781C134.653 3.7043 138.344 0.0129395 142.898 0.0129395C147.451 0.0129395 151.143 3.7043 151.143 8.25781C151.143 8.49924 151.127 8.73676 151.106 8.97297C150.8 8.84472 150.465 8.77313 150.112 8.77313C149.388 8.77313 148.736 9.07406 148.267 9.5552C147.885 9.38616 147.465 9.28842 147.02 9.28842C145.313 9.28842 143.928 10.6727 143.928 12.3802C143.928 12.825 144.026 13.2454 144.195 13.6276C143.714 14.0957 143.413 14.7477 143.413 15.4721C143.413 15.8247 143.485 16.1605 143.613 16.4666C143.377 16.4869 143.139 16.5027 142.898 16.5027C138.344 16.5027 134.653 12.8113 134.653 8.25781Z" fill="#412D22"/>
<path d="M142.898 0.0129395C138.344 0.0129395 134.653 3.7043 134.653 8.25781C134.653 12.8113 138.344 16.5027 142.898 16.5027C143.139 16.5027 143.377 16.4869 143.613 16.4666C143.485 16.1605 143.413 15.8247 143.413 15.4721C143.413 14.7477 143.714 14.0957 144.195 13.6276C144.026 13.2454 143.928 12.825 143.928 12.3802C143.928 10.6727 145.313 9.28842 147.02 9.28842C147.465 9.28842 147.885 9.38616 148.267 9.5552C148.736 9.07406 149.388 8.77313 150.112 8.77313C150.465 8.77313 150.8 8.84472 151.106 8.97297C151.127 8.73676 151.143 8.49924 151.143 8.25781C151.143 3.7043 147.451 0.0129395 142.898 0.0129395ZM137.229 8.25781C136.945 8.25781 136.714 8.02708 136.714 7.74252C136.714 7.45789 136.945 7.22722 137.229 7.22722C137.514 7.22722 137.745 7.45789 137.745 7.74252C137.745 8.02708 137.514 8.25781 137.229 8.25781ZM139.806 12.3802C139.237 12.3802 138.775 11.9188 138.775 11.3496C138.775 10.7804 139.237 10.319 139.806 10.319C140.375 10.319 140.836 10.7804 140.836 11.3496C140.836 11.9188 140.375 12.3802 139.806 12.3802ZM140.836 5.16596C140.267 5.16596 139.806 4.7045 139.806 4.13534C139.806 3.56613 140.267 3.10473 140.836 3.10473C141.406 3.10473 141.867 3.56613 141.867 4.13534C141.867 4.7045 141.406 5.16596 140.836 5.16596ZM142.382 9.28839C142.098 9.28839 141.867 9.05767 141.867 8.7731C141.867 8.48848 142.098 8.25781 142.382 8.25781C142.667 8.25781 142.898 8.48848 142.898 8.7731C142.898 9.05767 142.667 9.28839 142.382 9.28839ZM145.474 2.07414C145.759 2.07414 145.989 2.30481 145.989 2.58944C145.989 2.874 145.759 3.10473 145.474 3.10473C145.19 3.10473 144.959 2.874 144.959 2.58944C144.959 2.30481 145.19 2.07414 145.474 2.07414ZM145.99 7.22719C145.42 7.22719 144.959 6.76573 144.959 6.19658C144.959 5.62736 145.42 5.16596 145.99 5.16596C146.559 5.16596 147.02 5.62736 147.02 6.19658C147.02 6.76573 146.559 7.22719 145.99 7.22719Z" fill="#E39A3B"/>
<path d="M81.9116 71.8538C81.9116 67.3003 85.603 63.6089 90.1565 63.6089C94.71 63.6089 98.4013 67.3003 98.4014 71.8538C98.4014 72.0952 98.3856 72.3327 98.3653 72.5689C98.0592 72.4407 97.7234 72.3691 97.3707 72.3691C96.6464 72.3691 95.9944 72.67 95.5262 73.1511C95.1441 72.9821 94.7237 72.8844 94.2789 72.8844C92.5714 72.8844 91.1871 74.2686 91.1871 75.9762C91.1871 76.4209 91.2849 76.8414 91.4539 77.2235C90.9727 77.6916 90.6718 78.3437 90.6718 79.068C90.6718 79.4206 90.7434 79.7564 90.8717 80.0625C90.6355 80.0828 90.3979 80.0986 90.1565 80.0986C85.603 80.0986 81.9116 76.4073 81.9116 71.8538Z" fill="#412D22"/>
<path d="M90.1565 63.6089C85.603 63.6089 81.9116 67.3003 81.9116 71.8538C81.9116 76.4073 85.603 80.0986 90.1565 80.0986C90.3979 80.0986 90.6355 80.0828 90.8717 80.0625C90.7434 79.7564 90.6718 79.4206 90.6718 79.068C90.6718 78.3437 90.9727 77.6916 91.4539 77.2235C91.2849 76.8414 91.1871 76.4209 91.1871 75.9762C91.1871 74.2686 92.5714 72.8844 94.2789 72.8844C94.7237 72.8844 95.1441 72.9821 95.5262 73.1511C95.9944 72.67 96.6464 72.3691 97.3707 72.3691C97.7234 72.3691 98.0592 72.4407 98.3653 72.5689C98.3856 72.3327 98.4014 72.0952 98.4014 71.8538C98.4013 67.3003 94.71 63.6089 90.1565 63.6089ZM84.4881 71.8538C84.2036 71.8538 83.9729 71.623 83.9729 71.3385C83.9729 71.0538 84.2036 70.8232 84.4881 70.8232C84.7727 70.8232 85.0034 71.0538 85.0034 71.3385C85.0034 71.623 84.7727 71.8538 84.4881 71.8538ZM87.0646 75.9762C86.4954 75.9762 86.034 75.5147 86.034 74.9455C86.034 74.3763 86.4954 73.9149 87.0646 73.9149C87.6339 73.9149 88.0953 74.3763 88.0953 74.9455C88.0953 75.5147 87.6339 75.9762 87.0646 75.9762ZM88.0953 68.7619C87.526 68.7619 87.0646 68.3004 87.0646 67.7313C87.0646 67.1621 87.526 66.7007 88.0953 66.7007C88.6645 66.7007 89.1259 67.1621 89.1259 67.7313C89.1259 68.3004 88.6645 68.7619 88.0953 68.7619ZM89.6412 72.8843C89.3566 72.8843 89.1259 72.6536 89.1259 72.369C89.1259 72.0844 89.3566 71.8538 89.6412 71.8538C89.9257 71.8538 90.1565 72.0844 90.1565 72.369C90.1565 72.6536 89.9258 72.8843 89.6412 72.8843ZM92.733 65.6701C93.0175 65.6701 93.2483 65.9008 93.2483 66.1854C93.2483 66.4699 93.0175 66.7007 92.733 66.7007C92.4484 66.7007 92.2177 66.4699 92.2177 66.1854C92.2177 65.9008 92.4484 65.6701 92.733 65.6701ZM93.2483 70.8231C92.6791 70.8231 92.2177 70.3617 92.2177 69.7925C92.2177 69.2233 92.6791 68.7619 93.2483 68.7619C93.8175 68.7619 94.2789 69.2233 94.2789 69.7925C94.2789 70.3617 93.8175 70.8231 93.2483 70.8231Z" fill="#E39A3B"/>
<path d="M183.927 83.8538C183.927 79.3003 187.618 75.6089 192.172 75.6089C196.725 75.6089 200.416 79.3003 200.416 83.8538C200.416 84.0952 200.401 84.3327 200.38 84.5689C200.074 84.4407 199.739 84.3691 199.386 84.3691C198.662 84.3691 198.01 84.67 197.541 85.1511C197.159 84.9821 196.739 84.8844 196.294 84.8844C194.586 84.8844 193.202 86.2686 193.202 87.9762C193.202 88.4209 193.3 88.8414 193.469 89.2235C192.988 89.6916 192.687 90.3437 192.687 91.068C192.687 91.4206 192.759 91.7564 192.887 92.0625C192.651 92.0828 192.413 92.0986 192.172 92.0986C187.618 92.0986 183.927 88.4073 183.927 83.8538Z" fill="#412D22"/>
<path d="M192.172 75.6089C187.618 75.6089 183.927 79.3003 183.927 83.8538C183.927 88.4073 187.618 92.0986 192.172 92.0986C192.413 92.0986 192.651 92.0828 192.887 92.0625C192.759 91.7564 192.687 91.4206 192.687 91.068C192.687 90.3437 192.988 89.6916 193.469 89.2235C193.3 88.8414 193.202 88.4209 193.202 87.9762C193.202 86.2686 194.586 84.8844 196.294 84.8844C196.739 84.8844 197.159 84.9821 197.541 85.1511C198.01 84.67 198.662 84.3691 199.386 84.3691C199.739 84.3691 200.074 84.4407 200.38 84.5689C200.401 84.3327 200.416 84.0952 200.416 83.8538C200.416 79.3003 196.725 75.6089 192.172 75.6089ZM186.503 83.8538C186.219 83.8538 185.988 83.623 185.988 83.3385C185.988 83.0538 186.219 82.8232 186.503 82.8232C186.788 82.8232 187.019 83.0538 187.019 83.3385C187.019 83.623 186.788 83.8538 186.503 83.8538ZM189.08 87.9762C188.511 87.9762 188.049 87.5147 188.049 86.9455C188.049 86.3763 188.511 85.9149 189.08 85.9149C189.649 85.9149 190.11 86.3763 190.11 86.9455C190.11 87.5147 189.649 87.9762 189.08 87.9762ZM190.11 80.7619C189.541 80.7619 189.08 80.3004 189.08 79.7313C189.08 79.1621 189.541 78.7007 190.11 78.7007C190.68 78.7007 191.141 79.1621 191.141 79.7313C191.141 80.3004 190.68 80.7619 190.11 80.7619ZM191.656 84.8843C191.372 84.8843 191.141 84.6536 191.141 84.369C191.141 84.0844 191.372 83.8538 191.656 83.8538C191.941 83.8538 192.172 84.0844 192.172 84.369C192.172 84.6536 191.941 84.8843 191.656 84.8843ZM194.748 77.6701C195.033 77.6701 195.263 77.9008 195.263 78.1854C195.263 78.4699 195.033 78.7007 194.748 78.7007C194.464 78.7007 194.233 78.4699 194.233 78.1854C194.233 77.9008 194.464 77.6701 194.748 77.6701ZM195.263 82.8231C194.694 82.8231 194.233 82.3617 194.233 81.7925C194.233 81.2233 194.694 80.7619 195.263 80.7619C195.833 80.7619 196.294 81.2233 196.294 81.7925C196.294 82.3617 195.833 82.8231 195.263 82.8231Z" fill="#E39A3B"/>
<path d="M3.82129 49.76C3.82129 42.9853 9.31332 37.4933 16.088 37.4933C22.8627 37.4933 28.3548 42.9853 28.3548 49.76C28.3548 50.1192 28.3313 50.4726 28.3011 50.8241C27.8457 50.6333 27.3461 50.5267 26.8214 50.5267C25.7438 50.5267 24.7737 50.9745 24.0772 51.6903C23.5086 51.4388 22.8831 51.2934 22.2214 51.2934C19.6809 51.2934 17.6214 53.3529 17.6214 55.8934C17.6214 56.5551 17.7669 57.1807 18.0183 57.7492C17.3025 58.4456 16.8547 59.4158 16.8547 60.4934C16.8547 61.0181 16.9613 61.5177 17.1522 61.9731C16.8007 62.0033 16.4472 62.0268 16.088 62.0268C9.31332 62.0268 3.82129 56.5348 3.82129 49.76Z" fill="#412D22"/>
<path d="M16.088 37.4933C9.31332 37.4933 3.82129 42.9853 3.82129 49.76C3.82129 56.5348 9.31332 62.0268 16.088 62.0268C16.4472 62.0268 16.8007 62.0033 17.1522 61.9731C16.9613 61.5177 16.8547 61.0181 16.8547 60.4934C16.8547 59.4158 17.3025 58.4456 18.0183 57.7492C17.7669 57.1807 17.6214 56.5551 17.6214 55.8934C17.6214 53.3529 19.6809 51.2934 22.2214 51.2934C22.8831 51.2934 23.5086 51.4388 24.0772 51.6903C24.7737 50.9745 25.7438 50.5267 26.8214 50.5267C27.3461 50.5267 27.8457 50.6333 28.3011 50.8241C28.3313 50.4726 28.3548 50.1192 28.3548 49.76C28.3548 42.9853 22.8627 37.4933 16.088 37.4933ZM7.65466 49.76C7.23128 49.76 6.888 49.4168 6.888 48.9934C6.888 48.5699 7.23128 48.2267 7.65466 48.2267C8.07803 48.2267 8.42131 48.5699 8.42131 48.9934C8.42131 49.4168 8.07803 49.76 7.65466 49.76ZM11.488 55.8934C10.6411 55.8934 9.95462 55.2068 9.95462 54.36C9.95462 53.5131 10.6411 52.8267 11.488 52.8267C12.3349 52.8267 13.0213 53.5131 13.0213 54.36C13.0213 55.2068 12.3349 55.8934 11.488 55.8934ZM13.0213 45.16C12.1744 45.16 11.488 44.4734 11.488 43.6266C11.488 42.7797 12.1744 42.0933 13.0213 42.0933C13.8682 42.0933 14.5547 42.7797 14.5547 43.6266C14.5547 44.4734 13.8682 45.16 13.0213 45.16ZM15.3213 51.2934C14.898 51.2934 14.5547 50.9501 14.5547 50.5267C14.5547 50.1032 14.898 49.76 15.3213 49.76C15.7447 49.76 16.088 50.1032 16.088 50.5267C16.088 50.9501 15.7448 51.2934 15.3213 51.2934ZM19.9214 40.56C20.3447 40.56 20.688 40.9031 20.688 41.3266C20.688 41.75 20.3447 42.0933 19.9214 42.0933C19.498 42.0933 19.1547 41.75 19.1547 41.3266C19.1547 40.9031 19.498 40.56 19.9214 40.56ZM20.6881 48.2267C19.8412 48.2267 19.1547 47.5401 19.1547 46.6933C19.1547 45.8464 19.8412 45.16 20.6881 45.16C21.535 45.16 22.2214 45.8464 22.2214 46.6933C22.2214 47.5401 21.5349 48.2267 20.6881 48.2267Z" fill="#E39A3B"/>
<path d="M79.9219 29.0011C79.9219 25.5582 82.7129 22.7672 86.1558 22.7672C89.5987 22.7672 92.3897 25.5582 92.3897 29.0011C92.3897 29.1837 92.3778 29.3633 92.3624 29.5419C92.131 29.4449 91.8771 29.3908 91.6105 29.3908C91.0628 29.3908 90.5698 29.6183 90.2159 29.9821C89.9269 29.8543 89.609 29.7804 89.2728 29.7804C87.9817 29.7804 86.935 30.827 86.935 32.1181C86.935 32.4544 87.009 32.7723 87.1368 33.0612C86.773 33.4151 86.5454 33.9082 86.5454 34.4558C86.5454 34.7224 86.5996 34.9763 86.6966 35.2078C86.518 35.2231 86.3383 35.2351 86.1558 35.2351C82.7129 35.2351 79.9219 32.444 79.9219 29.0011Z" fill="#412D22"/>
<path d="M86.1558 22.7672C82.7129 22.7672 79.9219 25.5582 79.9219 29.0011C79.9219 32.444 82.7129 35.2351 86.1558 35.2351C86.3383 35.2351 86.518 35.2231 86.6966 35.2078C86.5996 34.9763 86.5454 34.7224 86.5454 34.4558C86.5454 33.9082 86.773 33.4151 87.1368 33.0612C87.009 32.7723 86.935 32.4544 86.935 32.1181C86.935 30.827 87.9817 29.7804 89.2728 29.7804C89.609 29.7804 89.9269 29.8543 90.2159 29.9821C90.5698 29.6183 91.0628 29.3908 91.6105 29.3908C91.8771 29.3908 92.131 29.4449 92.3624 29.5419C92.3778 29.3633 92.3897 29.1837 92.3897 29.0011C92.3897 25.5582 89.5987 22.7672 86.1558 22.7672ZM81.87 29.0011C81.6548 29.0011 81.4804 28.8267 81.4804 28.6115C81.4804 28.3963 81.6548 28.2219 81.87 28.2219C82.0851 28.2219 82.2596 28.3963 82.2596 28.6115C82.2596 28.8267 82.0851 29.0011 81.87 29.0011ZM83.8181 32.1181C83.3877 32.1181 83.0388 31.7692 83.0388 31.3388C83.0388 30.9084 83.3877 30.5596 83.8181 30.5596C84.2484 30.5596 84.5973 30.9084 84.5973 31.3388C84.5973 31.7692 84.2484 32.1181 83.8181 32.1181ZM84.5973 26.6634C84.1669 26.6634 83.8181 26.3145 83.8181 25.8842C83.8181 25.4538 84.1669 25.1049 84.5973 25.1049C85.0277 25.1049 85.3766 25.4538 85.3766 25.8842C85.3766 26.3145 85.0277 26.6634 84.5973 26.6634ZM85.7662 29.7804C85.551 29.7804 85.3766 29.6059 85.3766 29.3907C85.3766 29.1755 85.551 29.0011 85.7662 29.0011C85.9813 29.0011 86.1558 29.1755 86.1558 29.3907C86.1558 29.6059 85.9813 29.7804 85.7662 29.7804ZM88.1039 24.3257C88.319 24.3257 88.4935 24.5001 88.4935 24.7153C88.4935 24.9305 88.319 25.1049 88.1039 25.1049C87.8887 25.1049 87.7143 24.9305 87.7143 24.7153C87.7143 24.5001 87.8887 24.3257 88.1039 24.3257ZM88.4935 28.2219C88.0631 28.2219 87.7143 27.873 87.7143 27.4426C87.7143 27.0123 88.0631 26.6634 88.4935 26.6634C88.9239 26.6634 89.2728 27.0123 89.2728 27.4426C89.2727 27.873 88.9239 28.2219 88.4935 28.2219Z" fill="#E39A3B"/>
<path d="M107.88 63.6714C107.827 63.6714 107.781 63.6554 107.744 63.6234C107.712 63.5861 107.696 63.5407 107.696 63.4874V58.2634C107.696 58.2047 107.712 58.1594 107.744 58.1274C107.781 58.0901 107.827 58.0714 107.88 58.0714H108.28C108.339 58.0714 108.384 58.0901 108.416 58.1274C108.453 58.1594 108.472 58.2047 108.472 58.2634V60.2474L110.608 58.1994C110.693 58.1141 110.797 58.0714 110.92 58.0714H111.352C111.395 58.0714 111.432 58.0874 111.464 58.1194C111.496 58.1514 111.512 58.1887 111.512 58.2314C111.512 58.2741 111.501 58.3087 111.48 58.3354L109.008 60.7514L111.64 63.3994C111.667 63.4314 111.68 63.4687 111.68 63.5114C111.68 63.5541 111.664 63.5914 111.632 63.6234C111.6 63.6554 111.563 63.6714 111.52 63.6714H111.072C110.955 63.6714 110.851 63.6261 110.76 63.5354L108.472 61.2874V63.4874C108.472 63.5407 108.453 63.5861 108.416 63.6234C108.379 63.6554 108.333 63.6714 108.28 63.6714H107.88ZM112.726 65.1914C112.684 65.1914 112.646 65.1754 112.614 65.1434C112.582 65.1114 112.566 65.0741 112.566 65.0314C112.566 64.9941 112.58 64.9461 112.606 64.8874L113.222 63.4234L111.694 59.8154C111.668 59.7461 111.654 59.7007 111.654 59.6794C111.654 59.6314 111.67 59.5914 111.702 59.5594C111.734 59.5274 111.774 59.5114 111.822 59.5114H112.214C112.3 59.5114 112.364 59.5567 112.406 59.6474L113.622 62.5594L114.87 59.6474C114.913 59.5567 114.98 59.5114 115.07 59.5114H115.446C115.494 59.5114 115.534 59.5274 115.566 59.5594C115.598 59.5914 115.614 59.6287 115.614 59.6714C115.614 59.6874 115.601 59.7354 115.574 59.8154L113.302 65.0554C113.26 65.1461 113.193 65.1914 113.102 65.1914H112.726ZM116.532 58.7354C116.479 58.7354 116.434 58.7194 116.396 58.6874C116.364 58.6501 116.348 58.6047 116.348 58.5514V58.1194C116.348 58.0661 116.364 58.0207 116.396 57.9834C116.434 57.9461 116.479 57.9274 116.532 57.9274H117.036C117.09 57.9274 117.135 57.9461 117.172 57.9834C117.21 58.0207 117.228 58.0661 117.228 58.1194V58.5514C117.228 58.6047 117.21 58.6501 117.172 58.6874C117.135 58.7194 117.09 58.7354 117.036 58.7354H116.532ZM116.596 63.6714C116.543 63.6714 116.498 63.6554 116.46 63.6234C116.428 63.5861 116.412 63.5407 116.412 63.4874V59.6954C116.412 59.6421 116.428 59.5994 116.46 59.5674C116.498 59.5301 116.543 59.5114 116.596 59.5114H116.98C117.034 59.5114 117.076 59.5301 117.108 59.5674C117.146 59.5994 117.164 59.6421 117.164 59.6954V63.4874C117.164 63.5407 117.146 63.5861 117.108 63.6234C117.076 63.6554 117.034 63.6714 116.98 63.6714H116.596ZM119.798 63.6714C119.659 63.6714 119.56 63.6047 119.502 63.4714L118.022 59.7594L118.006 59.6794C118.006 59.6314 118.022 59.5914 118.054 59.5594C118.086 59.5274 118.126 59.5114 118.174 59.5114H118.558C118.648 59.5114 118.715 59.5567 118.758 59.6474L119.974 62.7994L121.19 59.6474C121.238 59.5567 121.302 59.5114 121.382 59.5114H121.774C121.816 59.5114 121.854 59.5274 121.886 59.5594C121.923 59.5914 121.942 59.6314 121.942 59.6794L121.926 59.7594L120.438 63.4714C120.379 63.6047 120.28 63.6714 120.142 63.6714H119.798Z" fill="#412D22"/>
<path d="M124.712 22.6889C123.997 22.6889 123.453 22.4969 123.08 22.1129C122.712 21.7289 122.515 21.1982 122.488 20.5209C122.483 20.3769 122.48 20.1422 122.48 19.8169C122.48 19.4862 122.483 19.2462 122.488 19.0969C122.515 18.4249 122.715 17.8969 123.088 17.5129C123.461 17.1236 124.003 16.9289 124.712 16.9289C125.187 16.9289 125.589 17.0142 125.92 17.1849C126.251 17.3502 126.501 17.5689 126.672 17.8409C126.843 18.1129 126.936 18.4036 126.952 18.7129V18.7289C126.952 18.7716 126.933 18.8089 126.896 18.8409C126.864 18.8676 126.827 18.8809 126.784 18.8809H126.344C126.237 18.8809 126.171 18.8196 126.144 18.6969C126.053 18.2969 125.891 18.0169 125.656 17.8569C125.421 17.6916 125.107 17.6089 124.712 17.6089C123.795 17.6089 123.32 18.1182 123.288 19.1369C123.283 19.2809 123.28 19.5022 123.28 19.8009C123.28 20.0996 123.283 20.3262 123.288 20.4809C123.32 21.4996 123.795 22.0089 124.712 22.0089C125.107 22.0089 125.421 21.9289 125.656 21.7689C125.896 21.6036 126.059 21.3209 126.144 20.9209C126.16 20.8516 126.184 20.8036 126.216 20.7769C126.248 20.7502 126.291 20.7369 126.344 20.7369H126.784C126.832 20.7369 126.872 20.7529 126.904 20.7849C126.941 20.8116 126.957 20.8489 126.952 20.8969C126.936 21.2116 126.843 21.5049 126.672 21.7769C126.501 22.0489 126.251 22.2702 125.92 22.4409C125.589 22.6062 125.187 22.6889 124.712 22.6889ZM128.112 22.6089C128.059 22.6089 128.013 22.5929 127.976 22.5609C127.944 22.5236 127.928 22.4782 127.928 22.4249V17.1129C127.928 17.0596 127.944 17.0169 127.976 16.9849C128.013 16.9476 128.059 16.9289 128.112 16.9289H128.512C128.565 16.9289 128.608 16.9476 128.64 16.9849C128.677 17.0169 128.696 17.0596 128.696 17.1129V18.9769C128.851 18.7796 129.032 18.6302 129.24 18.5289C129.448 18.4222 129.707 18.3689 130.016 18.3689C130.528 18.3689 130.925 18.5342 131.208 18.8649C131.496 19.1902 131.64 19.6249 131.64 20.1689V22.4249C131.64 22.4782 131.621 22.5236 131.584 22.5609C131.552 22.5929 131.509 22.6089 131.456 22.6089H131.056C131.003 22.6089 130.957 22.5929 130.92 22.5609C130.888 22.5236 130.872 22.4782 130.872 22.4249V20.2089C130.872 19.8302 130.779 19.5369 130.592 19.3289C130.411 19.1209 130.147 19.0169 129.8 19.0169C129.464 19.0169 129.195 19.1236 128.992 19.3369C128.795 19.5449 128.696 19.8356 128.696 20.2089V22.4249C128.696 22.4782 128.677 22.5236 128.64 22.5609C128.608 22.5929 128.565 22.6089 128.512 22.6089H128.112ZM134.459 22.6889C133.91 22.6889 133.47 22.5209 133.139 22.1849C132.814 21.8436 132.635 21.3796 132.603 20.7929L132.595 20.5209L132.603 20.2569C132.64 19.6809 132.822 19.2222 133.147 18.8809C133.478 18.5396 133.912 18.3689 134.451 18.3689C135.043 18.3689 135.502 18.5582 135.827 18.9369C136.152 19.3102 136.315 19.8169 136.315 20.4569V20.5929C136.315 20.6462 136.296 20.6916 136.259 20.7289C136.227 20.7609 136.184 20.7769 136.131 20.7769H133.363V20.8489C133.379 21.1956 133.483 21.4916 133.675 21.7369C133.872 21.9769 134.131 22.0969 134.451 22.0969C134.696 22.0969 134.896 22.0489 135.051 21.9529C135.211 21.8516 135.328 21.7476 135.403 21.6409C135.451 21.5769 135.486 21.5396 135.507 21.5289C135.534 21.5129 135.579 21.5049 135.643 21.5049H136.035C136.083 21.5049 136.123 21.5182 136.155 21.5449C136.187 21.5716 136.203 21.6089 136.203 21.6569C136.203 21.7742 136.128 21.9156 135.979 22.0809C135.835 22.2462 135.63 22.3902 135.363 22.5129C135.102 22.6302 134.8 22.6889 134.459 22.6889ZM135.555 20.2249V20.2009C135.555 19.8329 135.454 19.5342 135.251 19.3049C135.054 19.0702 134.787 18.9529 134.451 18.9529C134.115 18.9529 133.848 19.0702 133.651 19.3049C133.459 19.5342 133.363 19.8329 133.363 20.2009V20.2249H135.555ZM137.456 22.6089C137.402 22.6089 137.357 22.5929 137.32 22.5609C137.288 22.5236 137.272 22.4782 137.272 22.4249V18.6409C137.272 18.5876 137.288 18.5422 137.32 18.5049C137.357 18.4676 137.402 18.4489 137.456 18.4489H137.824C137.877 18.4489 137.922 18.4676 137.96 18.5049C137.997 18.5422 138.016 18.5876 138.016 18.6409V18.9929C138.234 18.6302 138.608 18.4489 139.136 18.4489H139.448C139.501 18.4489 139.544 18.4676 139.576 18.5049C139.613 18.5369 139.632 18.5796 139.632 18.6329V18.9609C139.632 19.0142 139.613 19.0569 139.576 19.0889C139.544 19.1209 139.501 19.1369 139.448 19.1369H138.968C138.68 19.1369 138.453 19.2222 138.288 19.3929C138.122 19.5582 138.04 19.7849 138.04 20.0729V22.4249C138.04 22.4782 138.021 22.5236 137.984 22.5609C137.946 22.5929 137.901 22.6089 137.848 22.6089H137.456ZM140.495 22.6089C140.441 22.6089 140.396 22.5929 140.359 22.5609C140.327 22.5236 140.311 22.4782 140.311 22.4249V18.6329C140.311 18.5796 140.327 18.5369 140.359 18.5049C140.396 18.4676 140.441 18.4489 140.495 18.4489H140.871C140.924 18.4489 140.967 18.4676 140.999 18.5049C141.036 18.5369 141.055 18.5796 141.055 18.6329V18.9849C141.209 18.7876 141.391 18.6356 141.599 18.5289C141.812 18.4222 142.076 18.3689 142.391 18.3689C142.903 18.3689 143.3 18.5342 143.583 18.8649C143.871 19.1902 144.015 19.6249 144.015 20.1689V22.4249C144.015 22.4782 143.996 22.5236 143.959 22.5609C143.927 22.5929 143.884 22.6089 143.831 22.6089H143.431C143.377 22.6089 143.332 22.5929 143.295 22.5609C143.263 22.5236 143.247 22.4782 143.247 22.4249V20.2089C143.247 19.8302 143.153 19.5369 142.967 19.3289C142.785 19.1209 142.521 19.0169 142.175 19.0169C141.839 19.0169 141.572 19.1236 141.375 19.3369C141.177 19.5449 141.079 19.8356 141.079 20.2089V22.4249C141.079 22.4782 141.06 22.5236 141.023 22.5609C140.991 22.5929 140.948 22.6089 140.895 22.6089H140.495ZM145.282 17.6729C145.229 17.6729 145.184 17.6569 145.146 17.6249C145.114 17.5876 145.098 17.5422 145.098 17.4889V17.0569C145.098 17.0036 145.114 16.9582 145.146 16.9209C145.184 16.8836 145.229 16.8649 145.282 16.8649H145.786C145.84 16.8649 145.885 16.8836 145.922 16.9209C145.96 16.9582 145.978 17.0036 145.978 17.0569V17.4889C145.978 17.5422 145.96 17.5876 145.922 17.6249C145.885 17.6569 145.84 17.6729 145.786 17.6729H145.282ZM145.346 22.6089C145.293 22.6089 145.248 22.5929 145.21 22.5609C145.178 22.5236 145.162 22.4782 145.162 22.4249V18.6329C145.162 18.5796 145.178 18.5369 145.21 18.5049C145.248 18.4676 145.293 18.4489 145.346 18.4489H145.73C145.784 18.4489 145.826 18.4676 145.858 18.5049C145.896 18.5369 145.914 18.5796 145.914 18.6329V22.4249C145.914 22.4782 145.896 22.5236 145.858 22.5609C145.826 22.5929 145.784 22.6089 145.73 22.6089H145.346ZM147.292 22.6089C147.238 22.6089 147.193 22.5929 147.156 22.5609C147.124 22.5236 147.108 22.4782 147.108 22.4249V17.1129C147.108 17.0596 147.124 17.0169 147.156 16.9849C147.193 16.9476 147.238 16.9289 147.292 16.9289H147.692C147.745 16.9289 147.788 16.9476 147.82 16.9849C147.857 17.0169 147.876 17.0596 147.876 17.1129V18.9769C148.03 18.7796 148.212 18.6302 148.42 18.5289C148.628 18.4222 148.886 18.3689 149.196 18.3689C149.708 18.3689 150.105 18.5342 150.388 18.8649C150.676 19.1902 150.82 19.6249 150.82 20.1689V22.4249C150.82 22.4782 150.801 22.5236 150.764 22.5609C150.732 22.5929 150.689 22.6089 150.636 22.6089H150.236C150.182 22.6089 150.137 22.5929 150.1 22.5609C150.068 22.5236 150.052 22.4782 150.052 22.4249V20.2089C150.052 19.8302 149.958 19.5369 149.772 19.3289C149.59 19.1209 149.326 19.0169 148.98 19.0169C148.644 19.0169 148.374 19.1236 148.172 19.3369C147.974 19.5449 147.876 19.8356 147.876 20.2089V22.4249C147.876 22.4782 147.857 22.5236 147.82 22.5609C147.788 22.5929 147.745 22.6089 147.692 22.6089H147.292ZM152.095 17.6729C152.041 17.6729 151.996 17.6569 151.959 17.6249C151.927 17.5876 151.911 17.5422 151.911 17.4889V17.0569C151.911 17.0036 151.927 16.9582 151.959 16.9209C151.996 16.8836 152.041 16.8649 152.095 16.8649H152.599C152.652 16.8649 152.697 16.8836 152.735 16.9209C152.772 16.9582 152.791 17.0036 152.791 17.0569V17.4889C152.791 17.5422 152.772 17.5876 152.735 17.6249C152.697 17.6569 152.652 17.6729 152.599 17.6729H152.095ZM152.159 22.6089C152.105 22.6089 152.06 22.5929 152.023 22.5609C151.991 22.5236 151.975 22.4782 151.975 22.4249V18.6329C151.975 18.5796 151.991 18.5369 152.023 18.5049C152.06 18.4676 152.105 18.4489 152.159 18.4489H152.543C152.596 18.4489 152.639 18.4676 152.671 18.5049C152.708 18.5369 152.727 18.5796 152.727 18.6329V22.4249C152.727 22.4782 152.708 22.5236 152.671 22.5609C152.639 22.5929 152.596 22.6089 152.543 22.6089H152.159ZM155.36 22.6089C155.222 22.6089 155.123 22.5422 155.064 22.4089L153.584 18.6969L153.568 18.6169C153.568 18.5689 153.584 18.5289 153.616 18.4969C153.648 18.4649 153.688 18.4489 153.736 18.4489H154.12C154.211 18.4489 154.278 18.4942 154.32 18.5849L155.536 21.7369L156.752 18.5849C156.8 18.4942 156.864 18.4489 156.944 18.4489H157.336C157.379 18.4489 157.416 18.4649 157.448 18.4969C157.486 18.5289 157.504 18.5689 157.504 18.6169L157.488 18.6969L156 22.4089C155.942 22.5422 155.843 22.6089 155.704 22.6089H155.36Z" fill="#412D22"/>
<path d="M204.88 67.1815C204.827 67.1815 204.781 67.1655 204.744 67.1335C204.712 67.0962 204.696 67.0509 204.696 66.9975V61.7735C204.696 61.7149 204.712 61.6695 204.744 61.6375C204.781 61.6002 204.827 61.5815 204.88 61.5815H205.28C205.339 61.5815 205.384 61.6002 205.416 61.6375C205.453 61.6695 205.472 61.7149 205.472 61.7735V63.7575L207.608 61.7095C207.693 61.6242 207.797 61.5815 207.92 61.5815H208.352C208.395 61.5815 208.432 61.5975 208.464 61.6295C208.496 61.6615 208.512 61.6989 208.512 61.7415C208.512 61.7842 208.501 61.8189 208.48 61.8455L206.008 64.2615L208.64 66.9095C208.667 66.9415 208.68 66.9789 208.68 67.0215C208.68 67.0642 208.664 67.1015 208.632 67.1335C208.6 67.1655 208.563 67.1815 208.52 67.1815H208.072C207.955 67.1815 207.851 67.1362 207.76 67.0455L205.472 64.7975V66.9975C205.472 67.0509 205.453 67.0962 205.416 67.1335C205.379 67.1655 205.333 67.1815 205.28 67.1815H204.88ZM209.589 67.1815C209.535 67.1815 209.49 67.1655 209.453 67.1335C209.421 67.0962 209.405 67.0509 209.405 66.9975V61.6855C209.405 61.6322 209.421 61.5895 209.453 61.5575C209.49 61.5202 209.535 61.5015 209.589 61.5015H209.989C210.042 61.5015 210.085 61.5202 210.117 61.5575C210.154 61.5895 210.173 61.6322 210.173 61.6855V63.5495C210.327 63.3522 210.509 63.2029 210.717 63.1015C210.925 62.9949 211.183 62.9415 211.493 62.9415C212.005 62.9415 212.402 63.1069 212.685 63.4375C212.973 63.7629 213.117 64.1975 213.117 64.7415V66.9975C213.117 67.0509 213.098 67.0962 213.061 67.1335C213.029 67.1655 212.986 67.1815 212.933 67.1815H212.533C212.479 67.1815 212.434 67.1655 212.397 67.1335C212.365 67.0962 212.349 67.0509 212.349 66.9975V64.7815C212.349 64.4029 212.255 64.1095 212.069 63.9015C211.887 63.6935 211.623 63.5895 211.277 63.5895C210.941 63.5895 210.671 63.6962 210.469 63.9095C210.271 64.1175 210.173 64.4082 210.173 64.7815V66.9975C210.173 67.0509 210.154 67.0962 210.117 67.1335C210.085 67.1655 210.042 67.1815 209.989 67.1815H209.589ZM215.432 67.2615C215.17 67.2615 214.928 67.2082 214.704 67.1015C214.48 66.9949 214.301 66.8509 214.168 66.6695C214.04 66.4829 213.976 66.2775 213.976 66.0535C213.976 65.7015 214.12 65.4135 214.408 65.1895C214.701 64.9602 215.096 64.8109 215.592 64.7415L216.784 64.5735V64.3415C216.784 63.7975 216.472 63.5255 215.848 63.5255C215.613 63.5255 215.421 63.5762 215.272 63.6775C215.122 63.7735 215.01 63.8882 214.936 64.0215C214.92 64.0695 214.898 64.1042 214.872 64.1255C214.85 64.1469 214.818 64.1575 214.776 64.1575H214.432C214.384 64.1575 214.341 64.1415 214.304 64.1095C214.272 64.0722 214.256 64.0295 214.256 63.9815C214.261 63.8535 214.32 63.7095 214.432 63.5495C214.549 63.3842 214.728 63.2429 214.968 63.1255C215.208 63.0029 215.504 62.9415 215.856 62.9415C216.453 62.9415 216.882 63.0829 217.144 63.3655C217.405 63.6429 217.536 63.9895 217.536 64.4055V66.9975C217.536 67.0509 217.517 67.0962 217.48 67.1335C217.448 67.1655 217.405 67.1815 217.352 67.1815H216.984C216.93 67.1815 216.885 67.1655 216.848 67.1335C216.816 67.0962 216.8 67.0509 216.8 66.9975V66.6535C216.682 66.8242 216.512 66.9682 216.288 67.0855C216.064 67.2029 215.778 67.2615 215.432 67.2615ZM215.6 66.6615C215.946 66.6615 216.229 66.5495 216.448 66.3255C216.672 66.0962 216.784 65.7682 216.784 65.3415V65.1175L215.856 65.2535C215.477 65.3069 215.192 65.3975 215 65.5255C214.808 65.6482 214.712 65.8055 214.712 65.9975C214.712 66.2109 214.8 66.3762 214.976 66.4935C215.152 66.6055 215.36 66.6615 215.6 66.6615ZM218.87 67.1815C218.816 67.1815 218.771 67.1655 218.734 67.1335C218.702 67.0962 218.686 67.0509 218.686 66.9975V63.2135C218.686 63.1602 218.702 63.1149 218.734 63.0775C218.771 63.0402 218.816 63.0215 218.87 63.0215H219.238C219.291 63.0215 219.336 63.0402 219.374 63.0775C219.411 63.1149 219.43 63.1602 219.43 63.2135V63.5655C219.648 63.2029 220.022 63.0215 220.55 63.0215H220.862C220.915 63.0215 220.958 63.0402 220.99 63.0775C221.027 63.1095 221.046 63.1522 221.046 63.2055V63.5335C221.046 63.5869 221.027 63.6295 220.99 63.6615C220.958 63.6935 220.915 63.7095 220.862 63.7095H220.382C220.094 63.7095 219.867 63.7949 219.702 63.9655C219.536 64.1309 219.454 64.3575 219.454 64.6455V66.9975C219.454 67.0509 219.435 67.0962 219.398 67.1335C219.36 67.1655 219.315 67.1815 219.262 67.1815H218.87ZM221.917 67.1815C221.863 67.1815 221.818 67.1655 221.781 67.1335C221.749 67.0962 221.733 67.0509 221.733 66.9975V61.6855C221.733 61.6322 221.749 61.5895 221.781 61.5575C221.818 61.5202 221.863 61.5015 221.917 61.5015H222.293C222.346 61.5015 222.389 61.5202 222.421 61.5575C222.458 61.5895 222.477 61.6322 222.477 61.6855V64.4695L224.053 63.1575C224.069 63.1469 224.095 63.1255 224.133 63.0935C224.17 63.0669 224.205 63.0482 224.237 63.0375C224.274 63.0269 224.319 63.0215 224.373 63.0215H224.797C224.845 63.0215 224.885 63.0375 224.917 63.0695C224.949 63.1015 224.965 63.1415 224.965 63.1895C224.965 63.2482 224.933 63.2989 224.869 63.3415L223.021 64.8775L225.069 66.8695C225.133 66.9229 225.165 66.9709 225.165 67.0135C225.165 67.0615 225.149 67.1015 225.117 67.1335C225.085 67.1655 225.045 67.1815 224.997 67.1815H224.581C224.501 67.1815 224.442 67.1735 224.405 67.1575C224.373 67.1415 224.325 67.1042 224.261 67.0455L222.477 65.3415V66.9975C222.477 67.0509 222.458 67.0962 222.421 67.1335C222.389 67.1655 222.346 67.1815 222.293 67.1815H221.917ZM225.97 62.2455C225.916 62.2455 225.871 62.2295 225.834 62.1975C225.802 62.1602 225.786 62.1149 225.786 62.0615V61.6295C225.786 61.5762 225.802 61.5309 225.834 61.4935C225.871 61.4562 225.916 61.4375 225.97 61.4375H226.474C226.527 61.4375 226.572 61.4562 226.61 61.4935C226.647 61.5309 226.666 61.5762 226.666 61.6295V62.0615C226.666 62.1149 226.647 62.1602 226.61 62.1975C226.572 62.2295 226.527 62.2455 226.474 62.2455H225.97ZM226.034 67.1815C225.98 67.1815 225.935 67.1655 225.898 67.1335C225.866 67.0962 225.85 67.0509 225.85 66.9975V63.2055C225.85 63.1522 225.866 63.1095 225.898 63.0775C225.935 63.0402 225.98 63.0215 226.034 63.0215H226.418C226.471 63.0215 226.514 63.0402 226.546 63.0775C226.583 63.1095 226.602 63.1522 226.602 63.2055V66.9975C226.602 67.0509 226.583 67.0962 226.546 67.1335C226.514 67.1655 226.471 67.1815 226.418 67.1815H226.034ZM229.235 67.1815C229.097 67.1815 228.998 67.1149 228.939 66.9815L227.459 63.2695L227.443 63.1895C227.443 63.1415 227.459 63.1015 227.491 63.0695C227.523 63.0375 227.563 63.0215 227.611 63.0215H227.995C228.086 63.0215 228.153 63.0669 228.195 63.1575L229.411 66.3095L230.627 63.1575C230.675 63.0669 230.739 63.0215 230.819 63.0215H231.211C231.254 63.0215 231.291 63.0375 231.323 63.0695C231.361 63.1015 231.379 63.1415 231.379 63.1895L231.363 63.2695L229.875 66.9815C229.817 67.1149 229.718 67.1815 229.579 67.1815H229.235Z" fill="#412D22"/>
<path d="M168.88 100.963C168.827 100.963 168.781 100.947 168.744 100.915C168.712 100.878 168.696 100.833 168.696 100.779V95.5553C168.696 95.4966 168.712 95.4513 168.744 95.4193C168.781 95.3819 168.827 95.3633 168.88 95.3633H170.696C171.501 95.3633 172.083 95.5446 172.44 95.9073C172.797 96.2646 172.984 96.8059 173 97.5313C173.005 97.6859 173.008 97.8939 173.008 98.1553C173.008 98.4166 173.005 98.6273 173 98.7873C172.984 99.2939 172.899 99.7073 172.744 100.027C172.595 100.342 172.357 100.577 172.032 100.731C171.707 100.886 171.275 100.963 170.736 100.963H168.88ZM170.696 100.283C171.064 100.283 171.355 100.233 171.568 100.131C171.787 100.03 171.944 99.8699 172.04 99.6513C172.141 99.4273 172.197 99.1286 172.208 98.7553C172.219 98.4353 172.224 98.2353 172.224 98.1553C172.224 98.0699 172.219 97.8726 172.208 97.5633C172.197 97.0353 172.072 96.6513 171.832 96.4113C171.592 96.1659 171.2 96.0433 170.656 96.0433H169.48V100.283H170.696ZM174.292 100.963C174.238 100.963 174.193 100.947 174.156 100.915C174.124 100.878 174.108 100.833 174.108 100.779V96.9873C174.108 96.9339 174.124 96.8913 174.156 96.8593C174.193 96.8219 174.238 96.8033 174.292 96.8033H174.668C174.721 96.8033 174.764 96.8219 174.796 96.8593C174.833 96.8913 174.852 96.9339 174.852 96.9873V97.3393C175.006 97.1419 175.188 96.9899 175.396 96.8833C175.609 96.7766 175.873 96.7233 176.188 96.7233C176.7 96.7233 177.097 96.8886 177.38 97.2193C177.668 97.5446 177.812 97.9793 177.812 98.5233V100.779C177.812 100.833 177.793 100.878 177.756 100.915C177.724 100.947 177.681 100.963 177.628 100.963H177.228C177.174 100.963 177.129 100.947 177.092 100.915C177.06 100.878 177.044 100.833 177.044 100.779V98.5633C177.044 98.1846 176.95 97.8913 176.764 97.6833C176.582 97.4753 176.318 97.3713 175.972 97.3713C175.636 97.3713 175.369 97.4779 175.172 97.6913C174.974 97.8993 174.876 98.1899 174.876 98.5633V100.779C174.876 100.833 174.857 100.878 174.82 100.915C174.788 100.947 174.745 100.963 174.692 100.963H174.292ZM179.079 96.0273C179.026 96.0273 178.981 96.0113 178.943 95.9793C178.911 95.9419 178.895 95.8966 178.895 95.8433V95.4113C178.895 95.3579 178.911 95.3126 178.943 95.2753C178.981 95.2379 179.026 95.2193 179.079 95.2193H179.583C179.637 95.2193 179.682 95.2379 179.719 95.2753C179.757 95.3126 179.775 95.3579 179.775 95.4113V95.8433C179.775 95.8966 179.757 95.9419 179.719 95.9793C179.682 96.0113 179.637 96.0273 179.583 96.0273H179.079ZM179.143 100.963C179.09 100.963 179.045 100.947 179.007 100.915C178.975 100.878 178.959 100.833 178.959 100.779V96.9873C178.959 96.9339 178.975 96.8913 179.007 96.8593C179.045 96.8219 179.09 96.8033 179.143 96.8033H179.527C179.581 96.8033 179.623 96.8219 179.655 96.8593C179.693 96.8913 179.711 96.9339 179.711 96.9873V100.779C179.711 100.833 179.693 100.878 179.655 100.915C179.623 100.947 179.581 100.963 179.527 100.963H179.143ZM181.089 102.483C181.035 102.483 180.99 102.465 180.953 102.427C180.921 102.395 180.905 102.353 180.905 102.299V96.9873C180.905 96.9339 180.921 96.8913 180.953 96.8593C180.99 96.8219 181.035 96.8033 181.089 96.8033H181.457C181.51 96.8033 181.553 96.8219 181.585 96.8593C181.622 96.8913 181.641 96.9339 181.641 96.9873V97.3393C181.939 96.9286 182.377 96.7233 182.953 96.7233C183.513 96.7233 183.931 96.8993 184.209 97.2513C184.491 97.6033 184.643 98.0566 184.665 98.6113C184.67 98.6699 184.673 98.7606 184.673 98.8833C184.673 99.0059 184.67 99.0966 184.665 99.1553C184.643 99.7046 184.491 100.158 184.209 100.515C183.926 100.867 183.507 101.043 182.953 101.043C182.398 101.043 181.966 100.843 181.657 100.443V102.299C181.657 102.353 181.641 102.395 181.609 102.427C181.577 102.465 181.534 102.483 181.481 102.483H181.089ZM182.785 100.395C183.163 100.395 183.438 100.278 183.609 100.043C183.785 99.8086 183.881 99.4993 183.897 99.1153C183.902 99.0619 183.905 98.9846 183.905 98.8833C183.905 97.8753 183.531 97.3713 182.785 97.3713C182.417 97.3713 182.139 97.4939 181.953 97.7393C181.771 97.9793 181.673 98.2673 181.657 98.6033L181.649 98.9073L181.657 99.2193C181.667 99.5339 181.769 99.8086 181.961 100.043C182.153 100.278 182.427 100.395 182.785 100.395ZM185.846 100.963C185.793 100.963 185.748 100.947 185.71 100.915C185.678 100.878 185.662 100.833 185.662 100.779V96.9953C185.662 96.9419 185.678 96.8966 185.71 96.8593C185.748 96.8219 185.793 96.8033 185.846 96.8033H186.214C186.268 96.8033 186.313 96.8219 186.35 96.8593C186.388 96.8966 186.406 96.9419 186.406 96.9953V97.3473C186.625 96.9846 186.998 96.8033 187.526 96.8033H187.838C187.892 96.8033 187.934 96.8219 187.966 96.8593C188.004 96.8913 188.022 96.9339 188.022 96.9873V97.3153C188.022 97.3686 188.004 97.4113 187.966 97.4433C187.934 97.4753 187.892 97.4913 187.838 97.4913H187.358C187.07 97.4913 186.844 97.5766 186.678 97.7473C186.513 97.9126 186.43 98.1393 186.43 98.4273V100.779C186.43 100.833 186.412 100.878 186.374 100.915C186.337 100.947 186.292 100.963 186.238 100.963H185.846ZM190.327 101.043C189.741 101.043 189.285 100.878 188.959 100.547C188.639 100.217 188.469 99.7766 188.447 99.2273L188.439 98.8833L188.447 98.5393C188.469 97.9953 188.642 97.5579 188.967 97.2273C189.293 96.8913 189.746 96.7233 190.327 96.7233C190.909 96.7233 191.362 96.8913 191.687 97.2273C192.013 97.5579 192.186 97.9953 192.207 98.5393C192.213 98.5979 192.215 98.7126 192.215 98.8833C192.215 99.0539 192.213 99.1686 192.207 99.2273C192.186 99.7766 192.013 100.217 191.687 100.547C191.367 100.878 190.914 101.043 190.327 101.043ZM190.327 100.427C190.663 100.427 190.927 100.321 191.119 100.107C191.317 99.8939 191.423 99.5873 191.439 99.1873C191.445 99.1339 191.447 99.0326 191.447 98.8833C191.447 98.7339 191.445 98.6326 191.439 98.5793C191.423 98.1793 191.317 97.8726 191.119 97.6593C190.927 97.4459 190.663 97.3393 190.327 97.3393C189.991 97.3393 189.725 97.4459 189.527 97.6593C189.33 97.8726 189.226 98.1793 189.215 98.5793L189.207 98.8833L189.215 99.1873C189.226 99.5873 189.33 99.8939 189.527 100.107C189.725 100.321 189.991 100.427 190.327 100.427Z" fill="#412D22"/>
<path d="M160.88 61.6089C160.827 61.6089 160.781 61.5929 160.744 61.5609C160.712 61.5236 160.696 61.4782 160.696 61.4249V56.2009C160.696 56.1422 160.712 56.0969 160.744 56.0649C160.781 56.0276 160.827 56.0089 160.88 56.0089H162.912C163.515 56.0089 163.989 56.1556 164.336 56.4489C164.683 56.7422 164.856 57.1662 164.856 57.7209C164.856 58.2756 164.683 58.6996 164.336 58.9929C163.995 59.2809 163.52 59.4249 162.912 59.4249H161.496V61.4249C161.496 61.4782 161.477 61.5236 161.44 61.5609C161.403 61.5929 161.357 61.6089 161.304 61.6089H160.88ZM162.872 58.7529C163.261 58.7529 163.555 58.6649 163.752 58.4889C163.955 58.3129 164.056 58.0569 164.056 57.7209C164.056 57.3849 163.957 57.1289 163.76 56.9529C163.563 56.7716 163.267 56.6809 162.872 56.6809H161.488V58.7529H162.872ZM167.374 61.6889C166.787 61.6889 166.331 61.5236 166.006 61.1929C165.686 60.8622 165.515 60.4222 165.494 59.8729L165.486 59.5289L165.494 59.1849C165.515 58.6409 165.689 58.2036 166.014 57.8729C166.339 57.5369 166.793 57.3689 167.374 57.3689C167.955 57.3689 168.409 57.5369 168.734 57.8729C169.059 58.2036 169.233 58.6409 169.254 59.1849C169.259 59.2436 169.262 59.3582 169.262 59.5289C169.262 59.6996 169.259 59.8142 169.254 59.8729C169.233 60.4222 169.059 60.8622 168.734 61.1929C168.414 61.5236 167.961 61.6889 167.374 61.6889ZM167.374 61.0729C167.71 61.0729 167.974 60.9662 168.166 60.7529C168.363 60.5396 168.47 60.2329 168.486 59.8329C168.491 59.7796 168.494 59.6782 168.494 59.5289C168.494 59.3796 168.491 59.2782 168.486 59.2249C168.47 58.8249 168.363 58.5182 168.166 58.3049C167.974 58.0916 167.71 57.9849 167.374 57.9849C167.038 57.9849 166.771 58.0916 166.574 58.3049C166.377 58.5182 166.273 58.8249 166.262 59.2249L166.254 59.5289L166.262 59.8329C166.273 60.2329 166.377 60.5396 166.574 60.7529C166.771 60.9662 167.038 61.0729 167.374 61.0729ZM170.456 61.6089C170.403 61.6089 170.357 61.5929 170.32 61.5609C170.288 61.5236 170.272 61.4782 170.272 61.4249V56.1129C170.272 56.0596 170.288 56.0169 170.32 55.9849C170.357 55.9476 170.403 55.9289 170.456 55.9289H170.832C170.885 55.9289 170.928 55.9476 170.96 55.9849C170.997 56.0169 171.016 56.0596 171.016 56.1129V61.4249C171.016 61.4782 170.997 61.5236 170.96 61.5609C170.928 61.5929 170.885 61.6089 170.832 61.6089H170.456ZM173.833 61.6089C172.991 61.6089 172.569 61.1396 172.569 60.2009V58.0889H171.945C171.892 58.0889 171.847 58.0729 171.809 58.0409C171.777 58.0036 171.761 57.9582 171.761 57.9049V57.6329C171.761 57.5796 171.777 57.5369 171.809 57.5049C171.847 57.4676 171.892 57.4489 171.945 57.4489H172.569V56.1129C172.569 56.0596 172.585 56.0169 172.617 55.9849C172.655 55.9476 172.7 55.9289 172.753 55.9289H173.129C173.183 55.9289 173.225 55.9476 173.257 55.9849C173.295 56.0169 173.313 56.0596 173.313 56.1129V57.4489H174.305C174.359 57.4489 174.401 57.4676 174.433 57.5049C174.471 57.5369 174.489 57.5796 174.489 57.6329V57.9049C174.489 57.9582 174.471 58.0036 174.433 58.0409C174.401 58.0729 174.359 58.0889 174.305 58.0889H173.313V60.1449C173.313 60.4116 173.359 60.6142 173.449 60.7529C173.54 60.8862 173.689 60.9529 173.897 60.9529H174.385C174.439 60.9529 174.481 60.9716 174.513 61.0089C174.551 61.0409 174.569 61.0836 174.569 61.1369V61.4249C174.569 61.4782 174.551 61.5236 174.513 61.5609C174.481 61.5929 174.439 61.6089 174.385 61.6089H173.833ZM176.494 61.6889C176.233 61.6889 175.99 61.6356 175.766 61.5289C175.542 61.4222 175.364 61.2782 175.23 61.0969C175.102 60.9102 175.038 60.7049 175.038 60.4809C175.038 60.1289 175.182 59.8409 175.47 59.6169C175.764 59.3876 176.158 59.2382 176.654 59.1689L177.846 59.0009V58.7689C177.846 58.2249 177.534 57.9529 176.91 57.9529C176.676 57.9529 176.484 58.0036 176.334 58.1049C176.185 58.2009 176.073 58.3156 175.998 58.4489C175.982 58.4969 175.961 58.5316 175.934 58.5529C175.913 58.5742 175.881 58.5849 175.838 58.5849H175.494C175.446 58.5849 175.404 58.5689 175.366 58.5369C175.334 58.4996 175.318 58.4569 175.318 58.4089C175.324 58.2809 175.382 58.1369 175.494 57.9769C175.612 57.8116 175.79 57.6702 176.03 57.5529C176.27 57.4302 176.566 57.3689 176.918 57.3689C177.516 57.3689 177.945 57.5102 178.206 57.7929C178.468 58.0702 178.598 58.4169 178.598 58.8329V61.4249C178.598 61.4782 178.58 61.5236 178.542 61.5609C178.51 61.5929 178.468 61.6089 178.414 61.6089H178.046C177.993 61.6089 177.948 61.5929 177.91 61.5609C177.878 61.5236 177.862 61.4782 177.862 61.4249V61.0809C177.745 61.2516 177.574 61.3956 177.35 61.5129C177.126 61.6302 176.841 61.6889 176.494 61.6889ZM176.662 61.0889C177.009 61.0889 177.292 60.9769 177.51 60.7529C177.734 60.5236 177.846 60.1956 177.846 59.7689V59.5449L176.918 59.6809C176.54 59.7342 176.254 59.8249 176.062 59.9529C175.87 60.0756 175.774 60.2329 175.774 60.4249C175.774 60.6382 175.862 60.8036 176.038 60.9209C176.214 61.0329 176.422 61.0889 176.662 61.0889ZM181.118 61.6089C180.979 61.6089 180.881 61.5422 180.822 61.4089L179.342 57.6969L179.326 57.6169C179.326 57.5689 179.342 57.5289 179.374 57.4969C179.406 57.4649 179.446 57.4489 179.494 57.4489H179.878C179.969 57.4489 180.035 57.4942 180.078 57.5849L181.294 60.7369L182.51 57.5849C182.558 57.4942 182.622 57.4489 182.702 57.4489H183.094C183.137 57.4489 183.174 57.4649 183.206 57.4969C183.243 57.5289 183.262 57.5689 183.262 57.6169L183.246 57.6969L181.758 61.4089C181.699 61.5422 181.601 61.6089 181.462 61.6089H181.118ZM185.104 61.6889C184.842 61.6889 184.6 61.6356 184.376 61.5289C184.152 61.4222 183.973 61.2782 183.84 61.0969C183.712 60.9102 183.648 60.7049 183.648 60.4809C183.648 60.1289 183.792 59.8409 184.08 59.6169C184.373 59.3876 184.768 59.2382 185.264 59.1689L186.456 59.0009V58.7689C186.456 58.2249 186.144 57.9529 185.52 57.9529C185.285 57.9529 185.093 58.0036 184.944 58.1049C184.794 58.2009 184.682 58.3156 184.608 58.4489C184.592 58.4969 184.57 58.5316 184.544 58.5529C184.522 58.5742 184.49 58.5849 184.448 58.5849H184.104C184.056 58.5849 184.013 58.5689 183.976 58.5369C183.944 58.4996 183.928 58.4569 183.928 58.4089C183.933 58.2809 183.992 58.1369 184.104 57.9769C184.221 57.8116 184.4 57.6702 184.64 57.5529C184.88 57.4302 185.176 57.3689 185.528 57.3689C186.125 57.3689 186.554 57.5102 186.816 57.7929C187.077 58.0702 187.208 58.4169 187.208 58.8329V61.4249C187.208 61.4782 187.189 61.5236 187.152 61.5609C187.12 61.5929 187.077 61.6089 187.024 61.6089H186.656C186.602 61.6089 186.557 61.5929 186.52 61.5609C186.488 61.5236 186.472 61.4782 186.472 61.4249V61.0809C186.354 61.2516 186.184 61.3956 185.96 61.5129C185.736 61.6302 185.45 61.6889 185.104 61.6889ZM185.272 61.0889C185.618 61.0889 185.901 60.9769 186.12 60.7529C186.344 60.5236 186.456 60.1956 186.456 59.7689V59.5449L185.528 59.6809C185.149 59.7342 184.864 59.8249 184.672 59.9529C184.48 60.0756 184.384 60.2329 184.384 60.4249C184.384 60.6382 184.472 60.8036 184.648 60.9209C184.824 61.0329 185.032 61.0889 185.272 61.0889Z" fill="#412D22"/>
<path d="M158.88 139.287C158.827 139.287 158.781 139.271 158.744 139.239C158.712 139.201 158.696 139.156 158.696 139.103V133.879C158.696 133.82 158.712 133.775 158.744 133.743C158.781 133.705 158.827 133.687 158.88 133.687H159.28C159.339 133.687 159.384 133.705 159.416 133.743C159.453 133.775 159.472 133.82 159.472 133.879V135.863L161.608 133.815C161.693 133.729 161.797 133.687 161.92 133.687H162.352C162.395 133.687 162.432 133.703 162.464 133.735C162.496 133.767 162.512 133.804 162.512 133.847C162.512 133.889 162.501 133.924 162.48 133.951L160.008 136.367L162.64 139.015C162.667 139.047 162.68 139.084 162.68 139.127C162.68 139.169 162.664 139.207 162.632 139.239C162.6 139.271 162.563 139.287 162.52 139.287H162.072C161.955 139.287 161.851 139.241 161.76 139.151L159.472 136.903V139.103C159.472 139.156 159.453 139.201 159.416 139.239C159.379 139.271 159.333 139.287 159.28 139.287H158.88ZM163.589 139.287C163.535 139.287 163.49 139.271 163.453 139.239C163.421 139.201 163.405 139.156 163.405 139.103V133.791C163.405 133.737 163.421 133.695 163.453 133.663C163.49 133.625 163.535 133.607 163.589 133.607H163.989C164.042 133.607 164.085 133.625 164.117 133.663C164.154 133.695 164.173 133.737 164.173 133.791V135.655C164.327 135.457 164.509 135.308 164.717 135.207C164.925 135.1 165.183 135.047 165.493 135.047C166.005 135.047 166.402 135.212 166.685 135.543C166.973 135.868 167.117 136.303 167.117 136.847V139.103C167.117 139.156 167.098 139.201 167.061 139.239C167.029 139.271 166.986 139.287 166.933 139.287H166.533C166.479 139.287 166.434 139.271 166.397 139.239C166.365 139.201 166.349 139.156 166.349 139.103V136.887C166.349 136.508 166.255 136.215 166.069 136.007C165.887 135.799 165.623 135.695 165.277 135.695C164.941 135.695 164.671 135.801 164.469 136.015C164.271 136.223 164.173 136.513 164.173 136.887V139.103C164.173 139.156 164.154 139.201 164.117 139.239C164.085 139.271 164.042 139.287 163.989 139.287H163.589ZM169.936 139.367C169.386 139.367 168.946 139.199 168.616 138.863C168.29 138.521 168.112 138.057 168.08 137.471L168.072 137.199L168.08 136.935C168.117 136.359 168.298 135.9 168.624 135.559C168.954 135.217 169.389 135.047 169.928 135.047C170.52 135.047 170.978 135.236 171.304 135.615C171.629 135.988 171.792 136.495 171.792 137.135V137.271C171.792 137.324 171.773 137.369 171.736 137.407C171.704 137.439 171.661 137.455 171.608 137.455H168.84V137.527C168.856 137.873 168.96 138.169 169.152 138.415C169.349 138.655 169.608 138.775 169.928 138.775C170.173 138.775 170.373 138.727 170.528 138.631C170.688 138.529 170.805 138.425 170.88 138.319C170.928 138.255 170.962 138.217 170.984 138.207C171.01 138.191 171.056 138.183 171.12 138.183H171.512C171.56 138.183 171.6 138.196 171.632 138.223C171.664 138.249 171.68 138.287 171.68 138.335C171.68 138.452 171.605 138.593 171.456 138.759C171.312 138.924 171.106 139.068 170.84 139.191C170.578 139.308 170.277 139.367 169.936 139.367ZM171.032 136.903V136.879C171.032 136.511 170.93 136.212 170.728 135.983C170.53 135.748 170.264 135.631 169.928 135.631C169.592 135.631 169.325 135.748 169.128 135.983C168.936 136.212 168.84 136.511 168.84 136.879V136.903H171.032ZM172.932 139.287C172.879 139.287 172.834 139.271 172.796 139.239C172.764 139.201 172.748 139.156 172.748 139.103V135.319C172.748 135.265 172.764 135.22 172.796 135.183C172.834 135.145 172.879 135.127 172.932 135.127H173.3C173.354 135.127 173.399 135.145 173.436 135.183C173.474 135.22 173.492 135.265 173.492 135.319V135.671C173.711 135.308 174.084 135.127 174.612 135.127H174.924C174.978 135.127 175.02 135.145 175.052 135.183C175.09 135.215 175.108 135.257 175.108 135.311V135.639C175.108 135.692 175.09 135.735 175.052 135.767C175.02 135.799 174.978 135.815 174.924 135.815H174.444C174.156 135.815 173.93 135.9 173.764 136.071C173.599 136.236 173.516 136.463 173.516 136.751V139.103C173.516 139.156 173.498 139.201 173.46 139.239C173.423 139.271 173.378 139.287 173.324 139.287H172.932ZM177.227 139.367C176.854 139.367 176.539 139.308 176.283 139.191C176.033 139.068 175.843 138.929 175.715 138.775C175.593 138.62 175.531 138.492 175.531 138.391C175.531 138.337 175.55 138.297 175.587 138.271C175.63 138.239 175.673 138.223 175.715 138.223H176.075C176.129 138.223 176.177 138.249 176.219 138.303C176.347 138.452 176.486 138.569 176.635 138.655C176.785 138.74 176.985 138.783 177.235 138.783C177.513 138.783 177.737 138.729 177.907 138.623C178.083 138.511 178.171 138.359 178.171 138.167C178.171 138.039 178.134 137.935 178.059 137.855C177.99 137.769 177.867 137.697 177.691 137.639C177.521 137.575 177.265 137.505 176.923 137.431C176.459 137.329 176.129 137.183 175.931 136.991C175.739 136.799 175.643 136.551 175.643 136.247C175.643 136.044 175.702 135.852 175.819 135.671C175.942 135.484 176.118 135.335 176.347 135.223C176.582 135.105 176.862 135.047 177.187 135.047C177.529 135.047 177.819 135.103 178.059 135.215C178.299 135.327 178.478 135.46 178.595 135.615C178.718 135.764 178.779 135.889 178.779 135.991C178.779 136.039 178.761 136.079 178.723 136.111C178.691 136.143 178.651 136.159 178.603 136.159H178.267C178.203 136.159 178.15 136.132 178.107 136.079C178.022 135.977 177.947 135.9 177.883 135.847C177.825 135.788 177.737 135.737 177.619 135.695C177.507 135.652 177.363 135.631 177.187 135.631C176.931 135.631 176.734 135.687 176.595 135.799C176.457 135.905 176.387 136.047 176.387 136.223C176.387 136.335 176.417 136.431 176.475 136.511C176.534 136.585 176.646 136.655 176.811 136.719C176.982 136.783 177.227 136.849 177.547 136.919C178.054 137.025 178.411 137.18 178.619 137.383C178.833 137.58 178.939 137.833 178.939 138.143C178.939 138.372 178.873 138.58 178.739 138.767C178.606 138.953 178.409 139.1 178.147 139.207C177.891 139.313 177.585 139.367 177.227 139.367ZM181.569 139.367C180.983 139.367 180.527 139.201 180.201 138.871C179.881 138.54 179.711 138.1 179.689 137.551L179.681 137.207L179.689 136.863C179.711 136.319 179.884 135.881 180.209 135.551C180.535 135.215 180.988 135.047 181.569 135.047C182.151 135.047 182.604 135.215 182.929 135.551C183.255 135.881 183.428 136.319 183.449 136.863C183.455 136.921 183.457 137.036 183.457 137.207C183.457 137.377 183.455 137.492 183.449 137.551C183.428 138.1 183.255 138.54 182.929 138.871C182.609 139.201 182.156 139.367 181.569 139.367ZM181.569 138.751C181.905 138.751 182.169 138.644 182.361 138.431C182.559 138.217 182.665 137.911 182.681 137.511C182.687 137.457 182.689 137.356 182.689 137.207C182.689 137.057 182.687 136.956 182.681 136.903C182.665 136.503 182.559 136.196 182.361 135.983C182.169 135.769 181.905 135.663 181.569 135.663C181.233 135.663 180.967 135.769 180.769 135.983C180.572 136.196 180.468 136.503 180.457 136.903L180.449 137.207L180.457 137.511C180.468 137.911 180.572 138.217 180.769 138.431C180.967 138.644 181.233 138.751 181.569 138.751ZM184.643 139.287C184.59 139.287 184.545 139.271 184.507 139.239C184.475 139.201 184.459 139.156 184.459 139.103V135.311C184.459 135.257 184.475 135.215 184.507 135.183C184.545 135.145 184.59 135.127 184.643 135.127H185.019C185.073 135.127 185.115 135.145 185.147 135.183C185.185 135.215 185.203 135.257 185.203 135.311V135.663C185.358 135.465 185.539 135.313 185.747 135.207C185.961 135.1 186.225 135.047 186.539 135.047C187.051 135.047 187.449 135.212 187.731 135.543C188.019 135.868 188.163 136.303 188.163 136.847V139.103C188.163 139.156 188.145 139.201 188.107 139.239C188.075 139.271 188.033 139.287 187.979 139.287H187.579C187.526 139.287 187.481 139.271 187.443 139.239C187.411 139.201 187.395 139.156 187.395 139.103V136.887C187.395 136.508 187.302 136.215 187.115 136.007C186.934 135.799 186.67 135.695 186.323 135.695C185.987 135.695 185.721 135.801 185.523 136.015C185.326 136.223 185.227 136.513 185.227 136.887V139.103C185.227 139.156 185.209 139.201 185.171 139.239C185.139 139.271 185.097 139.287 185.043 139.287H184.643Z" fill="#412D22"/>
<path d="M67.512 44.8406C67.4587 44.8406 67.4133 44.8246 67.376 44.7926C67.344 44.7552 67.328 44.7072 67.328 44.6486V44.3046C67.328 44.2352 67.3387 44.1792 67.36 44.1366C67.3867 44.0939 67.416 44.0512 67.448 44.0086L70.424 39.9366H67.584C67.5307 39.9366 67.4853 39.9206 67.448 39.8886C67.416 39.8512 67.4 39.8059 67.4 39.7526V39.4326C67.4 39.3739 67.416 39.3286 67.448 39.2966C67.4853 39.2592 67.5307 39.2406 67.584 39.2406H71.208C71.2667 39.2406 71.312 39.2592 71.344 39.2966C71.3813 39.3286 71.4 39.3739 71.4 39.4326V39.7766C71.4 39.8352 71.3893 39.8832 71.368 39.9206C71.352 39.9579 71.328 40.0032 71.296 40.0566L68.344 44.1446H71.288C71.3467 44.1446 71.392 44.1632 71.424 44.2006C71.4613 44.2326 71.48 44.2779 71.48 44.3366V44.6566C71.48 44.7099 71.4613 44.7552 71.424 44.7926C71.392 44.8246 71.3467 44.8406 71.288 44.8406H67.512ZM72.5809 44.8406C72.5275 44.8406 72.4822 44.8246 72.4449 44.7926C72.4129 44.7552 72.3969 44.7099 72.3969 44.6566V39.3446C72.3969 39.2912 72.4129 39.2486 72.4449 39.2166C72.4822 39.1792 72.5275 39.1606 72.5809 39.1606H72.9809C73.0342 39.1606 73.0769 39.1792 73.1089 39.2166C73.1462 39.2486 73.1649 39.2912 73.1649 39.3446V41.2086C73.3195 41.0112 73.5009 40.8619 73.7089 40.7606C73.9169 40.6539 74.1755 40.6006 74.4849 40.6006C74.9969 40.6006 75.3942 40.7659 75.6769 41.0966C75.9649 41.4219 76.1089 41.8566 76.1089 42.4006V44.6566C76.1089 44.7099 76.0902 44.7552 76.0529 44.7926C76.0209 44.8246 75.9782 44.8406 75.9249 44.8406H75.5249C75.4715 44.8406 75.4262 44.8246 75.3889 44.7926C75.3569 44.7552 75.3409 44.7099 75.3409 44.6566V42.4406C75.3409 42.0619 75.2475 41.7686 75.0609 41.5606C74.8795 41.3526 74.6155 41.2486 74.2689 41.2486C73.9329 41.2486 73.6635 41.3552 73.4609 41.5686C73.2635 41.7766 73.1649 42.0672 73.1649 42.4406V44.6566C73.1649 44.7099 73.1462 44.7552 73.1089 44.7926C73.0769 44.8246 73.0342 44.8406 72.9809 44.8406H72.5809ZM77.8669 46.3606C77.8242 46.3606 77.7869 46.3446 77.7549 46.3126C77.7229 46.2806 77.7069 46.2432 77.7069 46.2006C77.7069 46.1632 77.7202 46.1152 77.7469 46.0566L78.3629 44.5926L76.8349 40.9846C76.8082 40.9152 76.7949 40.8699 76.7949 40.8486C76.7949 40.8006 76.8109 40.7606 76.8429 40.7286C76.8749 40.6966 76.9149 40.6806 76.9629 40.6806H77.3549C77.4402 40.6806 77.5042 40.7259 77.5469 40.8166L78.7629 43.7286L80.0109 40.8166C80.0535 40.7259 80.1202 40.6806 80.2109 40.6806H80.5869C80.6349 40.6806 80.6749 40.6966 80.7069 40.7286C80.7389 40.7606 80.7549 40.7979 80.7549 40.8406C80.7549 40.8566 80.7415 40.9046 80.7149 40.9846L78.4429 46.2246C78.4002 46.3152 78.3335 46.3606 78.2429 46.3606H77.8669ZM83.1769 44.8406C82.3343 44.8406 81.9129 44.3712 81.9129 43.4326V41.3206H81.2889C81.2356 41.3206 81.1903 41.3046 81.1529 41.2726C81.1209 41.2352 81.1049 41.1899 81.1049 41.1366V40.8646C81.1049 40.8112 81.1209 40.7686 81.1529 40.7366C81.1903 40.6992 81.2356 40.6806 81.2889 40.6806H81.9129V39.3446C81.9129 39.2912 81.9289 39.2486 81.9609 39.2166C81.9983 39.1792 82.0436 39.1606 82.0969 39.1606H82.4729C82.5263 39.1606 82.5689 39.1792 82.6009 39.2166C82.6383 39.2486 82.6569 39.2912 82.6569 39.3446V40.6806H83.6489C83.7023 40.6806 83.7449 40.6992 83.7769 40.7366C83.8143 40.7686 83.8329 40.8112 83.8329 40.8646V41.1366C83.8329 41.1899 83.8143 41.2352 83.7769 41.2726C83.7449 41.3046 83.7023 41.3206 83.6489 41.3206H82.6569V43.3766C82.6569 43.6432 82.7023 43.8459 82.7929 43.9846C82.8836 44.1179 83.0329 44.1846 83.2409 44.1846H83.7289C83.7823 44.1846 83.8249 44.2032 83.8569 44.2406C83.8943 44.2726 83.9129 44.3152 83.9129 44.3686V44.6566C83.9129 44.7099 83.8943 44.7552 83.8569 44.7926C83.8249 44.8246 83.7823 44.8406 83.7289 44.8406H83.1769ZM86.3819 44.9206C85.7953 44.9206 85.3393 44.7552 85.0139 44.4246C84.6939 44.0939 84.5233 43.6539 84.5019 43.1046L84.4939 42.7606L84.5019 42.4166C84.5233 41.8726 84.6966 41.4352 85.0219 41.1046C85.3473 40.7686 85.8006 40.6006 86.3819 40.6006C86.9633 40.6006 87.4166 40.7686 87.7419 41.1046C88.0673 41.4352 88.2406 41.8726 88.2619 42.4166C88.2673 42.4752 88.2699 42.5899 88.2699 42.7606C88.2699 42.9312 88.2673 43.0459 88.2619 43.1046C88.2406 43.6539 88.0673 44.0939 87.7419 44.4246C87.4219 44.7552 86.9686 44.9206 86.3819 44.9206ZM86.3819 44.3046C86.7179 44.3046 86.9819 44.1979 87.1739 43.9846C87.3713 43.7712 87.4779 43.4646 87.4939 43.0646C87.4993 43.0112 87.5019 42.9099 87.5019 42.7606C87.5019 42.6112 87.4993 42.5099 87.4939 42.4566C87.4779 42.0566 87.3713 41.7499 87.1739 41.5366C86.9819 41.3232 86.7179 41.2166 86.3819 41.2166C86.0459 41.2166 85.7793 41.3232 85.5819 41.5366C85.3846 41.7499 85.2806 42.0566 85.2699 42.4566L85.2619 42.7606L85.2699 43.0646C85.2806 43.4646 85.3846 43.7712 85.5819 43.9846C85.7793 44.1979 86.0459 44.3046 86.3819 44.3046ZM89.4557 44.8406C89.4024 44.8406 89.357 44.8246 89.3197 44.7926C89.2877 44.7552 89.2717 44.7099 89.2717 44.6566V40.8646C89.2717 40.8112 89.2877 40.7686 89.3197 40.7366C89.357 40.6992 89.4024 40.6806 89.4557 40.6806H89.8157C89.869 40.6806 89.9117 40.6992 89.9437 40.7366C89.981 40.7686 89.9997 40.8112 89.9997 40.8646V41.1446C90.277 40.7819 90.6637 40.6006 91.1597 40.6006C91.7517 40.6006 92.1704 40.8459 92.4157 41.3366C92.5437 41.1126 92.725 40.9339 92.9597 40.8006C93.1944 40.6672 93.4584 40.6006 93.7517 40.6006C94.189 40.6006 94.5464 40.7499 94.8237 41.0486C95.101 41.3472 95.2397 41.7792 95.2397 42.3446V44.6566C95.2397 44.7099 95.221 44.7552 95.1837 44.7926C95.1517 44.8246 95.109 44.8406 95.0557 44.8406H94.6797C94.6264 44.8406 94.581 44.8246 94.5437 44.7926C94.5117 44.7552 94.4957 44.7099 94.4957 44.6566V42.4166C94.4957 42.0006 94.4077 41.7019 94.2317 41.5206C94.061 41.3392 93.8344 41.2486 93.5517 41.2486C93.301 41.2486 93.085 41.3419 92.9037 41.5286C92.7224 41.7099 92.6317 42.0059 92.6317 42.4166V44.6566C92.6317 44.7099 92.613 44.7552 92.5757 44.7926C92.5437 44.8246 92.501 44.8406 92.4477 44.8406H92.0717C92.0184 44.8406 91.973 44.8246 91.9357 44.7926C91.9037 44.7552 91.8877 44.7099 91.8877 44.6566V42.4166C91.8877 42.0006 91.797 41.7019 91.6157 41.5206C91.4397 41.3392 91.2157 41.2486 90.9437 41.2486C90.693 41.2486 90.477 41.3419 90.2957 41.5286C90.1144 41.7099 90.0237 42.0032 90.0237 42.4086V44.6566C90.0237 44.7099 90.005 44.7552 89.9677 44.7926C89.9357 44.8246 89.893 44.8406 89.8397 44.8406H89.4557ZM96.9841 46.3606C96.9414 46.3606 96.9041 46.3446 96.8721 46.3126C96.8401 46.2806 96.8241 46.2432 96.8241 46.2006C96.8241 46.1632 96.8374 46.1152 96.8641 46.0566L97.4801 44.5926L95.9521 40.9846C95.9254 40.9152 95.9121 40.8699 95.9121 40.8486C95.9121 40.8006 95.9281 40.7606 95.9601 40.7286C95.9921 40.6966 96.0321 40.6806 96.0801 40.6806H96.4721C96.5574 40.6806 96.6214 40.7259 96.6641 40.8166L97.8801 43.7286L99.1281 40.8166C99.1707 40.7259 99.2374 40.6806 99.3281 40.6806H99.7041C99.7521 40.6806 99.7921 40.6966 99.8241 40.7286C99.8561 40.7606 99.8721 40.7979 99.8721 40.8406C99.8721 40.8566 99.8587 40.9046 99.8321 40.9846L97.5601 46.2246C97.5174 46.3152 97.4507 46.3606 97.3601 46.3606H96.9841ZM100.854 44.8406C100.801 44.8406 100.755 44.8246 100.718 44.7926C100.686 44.7552 100.67 44.7099 100.67 44.6566V40.8726C100.67 40.8192 100.686 40.7739 100.718 40.7366C100.755 40.6992 100.801 40.6806 100.854 40.6806H101.222C101.275 40.6806 101.321 40.6992 101.358 40.7366C101.395 40.7739 101.414 40.8192 101.414 40.8726V41.2246C101.633 40.8619 102.006 40.6806 102.534 40.6806H102.846C102.899 40.6806 102.942 40.6992 102.974 40.7366C103.011 40.7686 103.03 40.8112 103.03 40.8646V41.1926C103.03 41.2459 103.011 41.2886 102.974 41.3206C102.942 41.3526 102.899 41.3686 102.846 41.3686H102.366C102.078 41.3686 101.851 41.4539 101.686 41.6246C101.521 41.7899 101.438 42.0166 101.438 42.3046V44.6566C101.438 44.7099 101.419 44.7552 101.382 44.7926C101.345 44.8246 101.299 44.8406 101.246 44.8406H100.854Z" fill="#412D22"/>
<path d="M73.36 86.8442C73.216 86.8442 73.1173 86.7749 73.064 86.6362L71.28 81.4922L71.264 81.4042C71.264 81.3616 71.28 81.3242 71.312 81.2922C71.344 81.2602 71.3813 81.2442 71.424 81.2442H71.84C71.9413 81.2442 72.0133 81.2922 72.056 81.3882L73.616 85.9242L75.184 81.3882C75.1947 81.3562 75.2187 81.3242 75.256 81.2922C75.2933 81.2602 75.3387 81.2442 75.392 81.2442H75.808C75.8507 81.2442 75.888 81.2602 75.92 81.2922C75.9573 81.3242 75.976 81.3616 75.976 81.4042L75.96 81.4922L74.168 86.6362C74.1147 86.7749 74.0187 86.8442 73.88 86.8442H73.36ZM76.9542 81.9082C76.9009 81.9082 76.8555 81.8922 76.8182 81.8602C76.7862 81.8229 76.7702 81.7776 76.7702 81.7242V81.2922C76.7702 81.2389 76.7862 81.1936 76.8182 81.1562C76.8555 81.1189 76.9009 81.1002 76.9542 81.1002H77.4582C77.5115 81.1002 77.5569 81.1189 77.5942 81.1562C77.6315 81.1936 77.6502 81.2389 77.6502 81.2922V81.7242C77.6502 81.7776 77.6315 81.8229 77.5942 81.8602C77.5569 81.8922 77.5115 81.9082 77.4582 81.9082H76.9542ZM77.0182 86.8442C76.9649 86.8442 76.9195 86.8282 76.8822 86.7962C76.8502 86.7589 76.8342 86.7136 76.8342 86.6602V82.8682C76.8342 82.8149 76.8502 82.7722 76.8822 82.7402C76.9195 82.7029 76.9649 82.6842 77.0182 82.6842H77.4022C77.4555 82.6842 77.4982 82.7029 77.5302 82.7402C77.5675 82.7722 77.5862 82.8149 77.5862 82.8682V86.6602C77.5862 86.7136 77.5675 86.7589 77.5302 86.7962C77.4982 86.8282 77.4555 86.8442 77.4022 86.8442H77.0182ZM78.9557 86.8442C78.9024 86.8442 78.857 86.8282 78.8197 86.7962C78.7877 86.7589 78.7717 86.7136 78.7717 86.6602V82.8682C78.7717 82.8149 78.7877 82.7722 78.8197 82.7402C78.857 82.7029 78.9024 82.6842 78.9557 82.6842H79.3317C79.385 82.6842 79.4277 82.7029 79.4597 82.7402C79.497 82.7722 79.5157 82.8149 79.5157 82.8682V83.2202C79.6704 83.0229 79.8517 82.8709 80.0597 82.7642C80.273 82.6576 80.537 82.6042 80.8517 82.6042C81.3637 82.6042 81.761 82.7696 82.0437 83.1002C82.3317 83.4256 82.4757 83.8602 82.4757 84.4042V86.6602C82.4757 86.7136 82.457 86.7589 82.4197 86.7962C82.3877 86.8282 82.345 86.8442 82.2917 86.8442H81.8917C81.8384 86.8442 81.793 86.8282 81.7557 86.7962C81.7237 86.7589 81.7077 86.7136 81.7077 86.6602V84.4442C81.7077 84.0656 81.6144 83.7722 81.4277 83.5642C81.2464 83.3562 80.9824 83.2522 80.6357 83.2522C80.2997 83.2522 80.033 83.3589 79.8357 83.5722C79.6384 83.7802 79.5397 84.0709 79.5397 84.4442V86.6602C79.5397 86.7136 79.521 86.7589 79.4837 86.7962C79.4517 86.8282 79.409 86.8442 79.3557 86.8442H78.9557ZM83.8073 86.8442C83.7539 86.8442 83.7086 86.8282 83.6713 86.7962C83.6393 86.7589 83.6233 86.7136 83.6233 86.6602V82.8682C83.6233 82.8149 83.6393 82.7722 83.6713 82.7402C83.7086 82.7029 83.7539 82.6842 83.8073 82.6842H84.1833C84.2366 82.6842 84.2793 82.7029 84.3113 82.7402C84.3486 82.7722 84.3673 82.8149 84.3673 82.8682V83.2202C84.5219 83.0229 84.7033 82.8709 84.9113 82.7642C85.1246 82.6576 85.3886 82.6042 85.7033 82.6042C86.2153 82.6042 86.6126 82.7696 86.8953 83.1002C87.1833 83.4256 87.3273 83.8602 87.3273 84.4042V86.6602C87.3273 86.7136 87.3086 86.7589 87.2713 86.7962C87.2393 86.8282 87.1966 86.8442 87.1432 86.8442H86.7433C86.6899 86.8442 86.6446 86.8282 86.6073 86.7962C86.5753 86.7589 86.5593 86.7136 86.5593 86.6602V84.4442C86.5593 84.0656 86.4659 83.7722 86.2793 83.5642C86.0979 83.3562 85.8339 83.2522 85.4873 83.2522C85.1513 83.2522 84.8846 83.3589 84.6873 83.5722C84.4899 83.7802 84.3913 84.0709 84.3913 84.4442V86.6602C84.3913 86.7136 84.3726 86.7589 84.3353 86.7962C84.3033 86.8282 84.2606 86.8442 84.2072 86.8442H83.8073ZM89.0778 88.3642C89.0351 88.3642 88.9978 88.3482 88.9658 88.3162C88.9338 88.2842 88.9178 88.2469 88.9178 88.2042C88.9178 88.1669 88.9311 88.1189 88.9578 88.0602L89.5738 86.5962L88.0458 82.9882C88.0191 82.9189 88.0058 82.8736 88.0058 82.8522C88.0058 82.8042 88.0218 82.7642 88.0538 82.7322C88.0858 82.7002 88.1258 82.6842 88.1738 82.6842H88.5658C88.6511 82.6842 88.7151 82.7296 88.7578 82.8202L89.9738 85.7322L91.2218 82.8202C91.2645 82.7296 91.3311 82.6842 91.4218 82.6842H91.7978C91.8458 82.6842 91.8858 82.7002 91.9178 82.7322C91.9498 82.7642 91.9658 82.8016 91.9658 82.8442C91.9658 82.8602 91.9525 82.9082 91.9258 82.9882L89.6538 88.2282C89.6111 88.3189 89.5445 88.3642 89.4538 88.3642H89.0778ZM94.3879 86.8442C93.5452 86.8442 93.1239 86.3749 93.1239 85.4362V83.3242H92.4999C92.4465 83.3242 92.4012 83.3082 92.3639 83.2762C92.3319 83.2389 92.3159 83.1936 92.3159 83.1402V82.8682C92.3159 82.8149 92.3319 82.7722 92.3639 82.7402C92.4012 82.7029 92.4465 82.6842 92.4999 82.6842H93.1239V81.3482C93.1239 81.2949 93.1399 81.2522 93.1719 81.2202C93.2092 81.1829 93.2545 81.1642 93.3079 81.1642H93.6839C93.7372 81.1642 93.7799 81.1829 93.8119 81.2202C93.8492 81.2522 93.8679 81.2949 93.8679 81.3482V82.6842H94.8599C94.9132 82.6842 94.9559 82.7029 94.9879 82.7402C95.0252 82.7722 95.0439 82.8149 95.0439 82.8682V83.1402C95.0439 83.1936 95.0252 83.2389 94.9879 83.2762C94.9559 83.3082 94.9132 83.3242 94.8599 83.3242H93.8679V85.3802C93.8679 85.6469 93.9132 85.8496 94.0039 85.9882C94.0945 86.1216 94.2439 86.1882 94.4519 86.1882H94.9399C94.9932 86.1882 95.0359 86.2069 95.0679 86.2442C95.1052 86.2762 95.1239 86.3189 95.1239 86.3722V86.6602C95.1239 86.7136 95.1052 86.7589 95.0679 86.7962C95.0359 86.8282 94.9932 86.8442 94.9399 86.8442H94.3879ZM97.3289 86.9242C96.9555 86.9242 96.6409 86.8656 96.3849 86.7482C96.1342 86.6256 95.9449 86.4869 95.8169 86.3322C95.6942 86.1776 95.6329 86.0496 95.6329 85.9482C95.6329 85.8949 95.6515 85.8549 95.6889 85.8282C95.7315 85.7962 95.7742 85.7802 95.8169 85.7802H96.1769C96.2302 85.7802 96.2782 85.8069 96.3209 85.8602C96.4489 86.0096 96.5875 86.1269 96.7369 86.2122C96.8862 86.2976 97.0862 86.3402 97.3369 86.3402C97.6142 86.3402 97.8382 86.2869 98.0089 86.1802C98.1849 86.0682 98.2729 85.9162 98.2729 85.7242C98.2729 85.5962 98.2355 85.4922 98.1609 85.4122C98.0915 85.3269 97.9689 85.2549 97.7929 85.1962C97.6222 85.1322 97.3662 85.0629 97.0249 84.9882C96.5609 84.8869 96.2302 84.7402 96.0329 84.5482C95.8409 84.3562 95.7449 84.1082 95.7449 83.8042C95.7449 83.6016 95.8035 83.4096 95.9209 83.2282C96.0435 83.0416 96.2195 82.8922 96.4489 82.7802C96.6835 82.6629 96.9635 82.6042 97.2889 82.6042C97.6302 82.6042 97.9209 82.6602 98.1609 82.7722C98.4009 82.8842 98.5795 83.0176 98.6969 83.1722C98.8195 83.3216 98.8809 83.4469 98.8809 83.5482C98.8809 83.5962 98.8622 83.6362 98.8249 83.6682C98.7929 83.7002 98.7529 83.7162 98.7049 83.7162H98.3689C98.3049 83.7162 98.2515 83.6896 98.2089 83.6362C98.1235 83.5349 98.0489 83.4576 97.9849 83.4042C97.9262 83.3456 97.8382 83.2949 97.7209 83.2522C97.6089 83.2096 97.4649 83.1882 97.2889 83.1882C97.0329 83.1882 96.8355 83.2442 96.6969 83.3562C96.5582 83.4629 96.4889 83.6042 96.4889 83.7802C96.4889 83.8922 96.5182 83.9882 96.5769 84.0682C96.6355 84.1429 96.7475 84.2122 96.9129 84.2762C97.0835 84.3402 97.3289 84.4069 97.6489 84.4762C98.1555 84.5829 98.5129 84.7376 98.7209 84.9402C98.9342 85.1376 99.0409 85.3909 99.0409 85.7002C99.0409 85.9296 98.9742 86.1376 98.8409 86.3242C98.7075 86.5109 98.5102 86.6576 98.2489 86.7642C97.9929 86.8709 97.6862 86.9242 97.3289 86.9242ZM100.554 88.3642C100.512 88.3642 100.474 88.3482 100.442 88.3162C100.41 88.2842 100.394 88.2469 100.394 88.2042C100.394 88.1669 100.408 88.1189 100.434 88.0602L101.05 86.5962L99.5224 82.9882C99.4957 82.9189 99.4824 82.8736 99.4824 82.8522C99.4824 82.8042 99.4984 82.7642 99.5304 82.7322C99.5624 82.7002 99.6024 82.6842 99.6504 82.6842H100.042C100.128 82.6842 100.192 82.7296 100.234 82.8202L101.45 85.7322L102.698 82.8202C102.741 82.7296 102.808 82.6842 102.898 82.6842H103.274C103.322 82.6842 103.362 82.7002 103.394 82.7322C103.426 82.7642 103.442 82.8016 103.442 82.8442C103.442 82.8602 103.429 82.9082 103.402 82.9882L101.13 88.2282C101.088 88.3189 101.021 88.3642 100.93 88.3642H100.554ZM105.252 86.9242C104.991 86.9242 104.748 86.8709 104.524 86.7642C104.3 86.6576 104.121 86.5136 103.988 86.3322C103.86 86.1456 103.796 85.9402 103.796 85.7162C103.796 85.3642 103.94 85.0762 104.228 84.8522C104.521 84.6229 104.916 84.4736 105.412 84.4042L106.604 84.2362V84.0042C106.604 83.4602 106.292 83.1882 105.668 83.1882C105.433 83.1882 105.241 83.2389 105.092 83.3402C104.943 83.4362 104.831 83.5509 104.756 83.6842C104.74 83.7322 104.719 83.7669 104.692 83.7882C104.671 83.8096 104.639 83.8202 104.596 83.8202H104.252C104.204 83.8202 104.161 83.8042 104.124 83.7722C104.092 83.7349 104.076 83.6922 104.076 83.6442C104.081 83.5162 104.14 83.3722 104.252 83.2122C104.369 83.0469 104.548 82.9056 104.788 82.7882C105.028 82.6656 105.324 82.6042 105.676 82.6042C106.273 82.6042 106.703 82.7456 106.964 83.0282C107.225 83.3056 107.356 83.6522 107.356 84.0682V86.6602C107.356 86.7136 107.337 86.7589 107.3 86.7962C107.268 86.8282 107.225 86.8442 107.172 86.8442H106.804C106.751 86.8442 106.705 86.8282 106.668 86.7962C106.636 86.7589 106.62 86.7136 106.62 86.6602V86.3162C106.503 86.4869 106.332 86.6309 106.108 86.7482C105.884 86.8656 105.599 86.9242 105.252 86.9242ZM105.42 86.3242C105.767 86.3242 106.049 86.2122 106.268 85.9882C106.492 85.7589 106.604 85.4309 106.604 85.0042V84.7802L105.676 84.9162C105.297 84.9696 105.012 85.0602 104.82 85.1882C104.628 85.3109 104.532 85.4682 104.532 85.6602C104.532 85.8736 104.62 86.0389 104.796 86.1562C104.972 86.2682 105.18 86.3242 105.42 86.3242Z" fill="#412D22"/>
<path d="M0.88 69.6089C0.826667 69.6089 0.781333 69.5929 0.744 69.5609C0.712 69.5236 0.696 69.4782 0.696 69.4249V64.1929C0.696 64.1396 0.712 64.0969 0.744 64.0649C0.781333 64.0276 0.826667 64.0089 0.88 64.0089H1.304C1.35733 64.0089 1.4 64.0276 1.432 64.0649C1.46933 64.0969 1.488 64.1396 1.488 64.1929V68.9129H4.144C4.20267 68.9129 4.248 68.9316 4.28 68.9689C4.31733 69.0009 4.336 69.0462 4.336 69.1049V69.4249C4.336 69.4782 4.31733 69.5236 4.28 69.5609C4.24267 69.5929 4.19733 69.6089 4.144 69.6089H0.88ZM5.82906 69.6089C5.6904 69.6089 5.59173 69.5422 5.53306 69.4089L4.05306 65.6969L4.03706 65.6169C4.03706 65.5689 4.05306 65.5289 4.08506 65.4969C4.11706 65.4649 4.15706 65.4489 4.20506 65.4489H4.58906C4.67973 65.4489 4.7464 65.4942 4.78906 65.5849L6.00506 68.7369L7.22106 65.5849C7.26906 65.4942 7.33306 65.4489 7.41306 65.4489H7.80506C7.84773 65.4489 7.88506 65.4649 7.91706 65.4969C7.9544 65.5289 7.97306 65.5689 7.97306 65.6169L7.95706 65.6969L6.46906 69.4089C6.4104 69.5422 6.31173 69.6089 6.17306 69.6089H5.82906ZM8.93075 64.6729C8.87742 64.6729 8.83208 64.6569 8.79475 64.6249C8.76275 64.5876 8.74675 64.5422 8.74675 64.4889V64.0569C8.74675 64.0036 8.76275 63.9582 8.79475 63.9209C8.83208 63.8836 8.87742 63.8649 8.93075 63.8649H9.43475C9.48808 63.8649 9.53342 63.8836 9.57075 63.9209C9.60808 63.9582 9.62675 64.0036 9.62675 64.0569V64.4889C9.62675 64.5422 9.60808 64.5876 9.57075 64.6249C9.53342 64.6569 9.48808 64.6729 9.43475 64.6729H8.93075ZM8.99475 69.6089C8.94142 69.6089 8.89608 69.5929 8.85875 69.5609C8.82675 69.5236 8.81075 69.4782 8.81075 69.4249V65.6329C8.81075 65.5796 8.82675 65.5369 8.85875 65.5049C8.89608 65.4676 8.94142 65.4489 8.99475 65.4489H9.37875C9.43208 65.4489 9.47475 65.4676 9.50675 65.5049C9.54408 65.5369 9.56275 65.5796 9.56275 65.6329V69.4249C9.56275 69.4782 9.54408 69.5236 9.50675 69.5609C9.47475 69.5929 9.43208 69.6089 9.37875 69.6089H8.99475ZM12.1963 69.6089C12.0576 69.6089 11.9589 69.5422 11.9003 69.4089L10.4202 65.6969L10.4043 65.6169C10.4043 65.5689 10.4203 65.5289 10.4523 65.4969C10.4843 65.4649 10.5243 65.4489 10.5723 65.4489H10.9563C11.0469 65.4489 11.1136 65.4942 11.1562 65.5849L12.3723 68.7369L13.5883 65.5849C13.6363 65.4942 13.7003 65.4489 13.7803 65.4489H14.1723C14.2149 65.4489 14.2523 65.4649 14.2843 65.4969C14.3216 65.5289 14.3403 65.5689 14.3403 65.6169L14.3243 65.6969L12.8363 69.4089C12.7776 69.5422 12.6789 69.6089 12.5403 69.6089H12.1963Z" fill="#412D22"/>
<path d="M19.88 26.6089C19.8267 26.6089 19.7813 26.5929 19.744 26.5609C19.712 26.5236 19.696 26.4782 19.696 26.4249V21.1929C19.696 21.1396 19.712 21.0969 19.744 21.0649C19.7813 21.0276 19.8267 21.0089 19.88 21.0089H20.304C20.3573 21.0089 20.4 21.0276 20.432 21.0649C20.4693 21.0969 20.488 21.1396 20.488 21.1929V25.9129H23.144C23.2027 25.9129 23.248 25.9316 23.28 25.9689C23.3173 26.0009 23.336 26.0462 23.336 26.1049V26.4249C23.336 26.4782 23.3173 26.5236 23.28 26.5609C23.2427 26.5929 23.1973 26.6089 23.144 26.6089H19.88ZM25.5268 26.6889C25.0201 26.6889 24.6281 26.5262 24.3508 26.2009C24.0735 25.8702 23.9348 25.4329 23.9348 24.8889V22.6329C23.9348 22.5796 23.9508 22.5369 23.9828 22.5049C24.0201 22.4676 24.0655 22.4489 24.1188 22.4489H24.5188C24.5721 22.4489 24.6148 22.4676 24.6468 22.5049C24.6841 22.5369 24.7028 22.5796 24.7028 22.6329V24.8489C24.7028 25.6436 25.0495 26.0409 25.7428 26.0409C26.0788 26.0409 26.3455 25.9369 26.5428 25.7289C26.7401 25.5156 26.8388 25.2222 26.8388 24.8489V22.6329C26.8388 22.5796 26.8548 22.5369 26.8868 22.5049C26.9241 22.4676 26.9695 22.4489 27.0228 22.4489H27.4228C27.4761 22.4489 27.5188 22.4676 27.5508 22.5049C27.5828 22.5369 27.5988 22.5796 27.5988 22.6329V26.4249C27.5988 26.4782 27.5828 26.5236 27.5508 26.5609C27.5188 26.5929 27.4761 26.6089 27.4228 26.6089H27.0468C26.9935 26.6089 26.9481 26.5929 26.9108 26.5609C26.8788 26.5236 26.8628 26.4782 26.8628 26.4249V26.0729C26.7135 26.2756 26.5321 26.4302 26.3188 26.5369C26.1055 26.6382 25.8415 26.6889 25.5268 26.6889ZM30.4113 26.6089C29.5686 26.6089 29.1473 26.1396 29.1473 25.2009V23.0889H28.5233C28.47 23.0889 28.4246 23.0729 28.3873 23.0409C28.3553 23.0036 28.3393 22.9582 28.3393 22.9049V22.6329C28.3393 22.5796 28.3553 22.5369 28.3873 22.5049C28.4246 22.4676 28.47 22.4489 28.5233 22.4489H29.1473V21.1129C29.1473 21.0596 29.1633 21.0169 29.1953 20.9849C29.2326 20.9476 29.278 20.9289 29.3313 20.9289H29.7073C29.7606 20.9289 29.8033 20.9476 29.8353 20.9849C29.8726 21.0169 29.8913 21.0596 29.8913 21.1129V22.4489H30.8833C30.9366 22.4489 30.9793 22.4676 31.0113 22.5049C31.0486 22.5369 31.0673 22.5796 31.0673 22.6329V22.9049C31.0673 22.9582 31.0486 23.0036 31.0113 23.0409C30.9793 23.0729 30.9366 23.0889 30.8833 23.0889H29.8913V25.1449C29.8913 25.4116 29.9366 25.6142 30.0273 25.7529C30.118 25.8862 30.2673 25.9529 30.4753 25.9529H30.9633C31.0166 25.9529 31.0593 25.9716 31.0913 26.0089C31.1286 26.0409 31.1473 26.0836 31.1473 26.1369V26.4249C31.1473 26.4782 31.1286 26.5236 31.0913 26.5609C31.0593 26.5929 31.0166 26.6089 30.9633 26.6089H30.4113ZM33.3523 26.6889C32.979 26.6889 32.6643 26.6302 32.4083 26.5129C32.1576 26.3902 31.9683 26.2516 31.8403 26.0969C31.7176 25.9422 31.6563 25.8142 31.6563 25.7129C31.6563 25.6596 31.675 25.6196 31.7123 25.5929C31.755 25.5609 31.7976 25.5449 31.8403 25.5449H32.2003C32.2536 25.5449 32.3016 25.5716 32.3443 25.6249C32.4723 25.7742 32.611 25.8916 32.7603 25.9769C32.9096 26.0622 33.1096 26.1049 33.3603 26.1049C33.6376 26.1049 33.8616 26.0516 34.0323 25.9449C34.2083 25.8329 34.2963 25.6809 34.2963 25.4889C34.2963 25.3609 34.259 25.2569 34.1843 25.1769C34.115 25.0916 33.9923 25.0196 33.8163 24.9609C33.6456 24.8969 33.3896 24.8276 33.0483 24.7529C32.5843 24.6516 32.2536 24.5049 32.0563 24.3129C31.8643 24.1209 31.7683 23.8729 31.7683 23.5689C31.7683 23.3662 31.827 23.1742 31.9443 22.9929C32.067 22.8062 32.243 22.6569 32.4723 22.5449C32.707 22.4276 32.987 22.3689 33.3123 22.3689C33.6536 22.3689 33.9443 22.4249 34.1843 22.5369C34.4243 22.6489 34.603 22.7822 34.7203 22.9369C34.843 23.0862 34.9043 23.2116 34.9043 23.3129C34.9043 23.3609 34.8856 23.4009 34.8483 23.4329C34.8163 23.4649 34.7763 23.4809 34.7283 23.4809H34.3923C34.3283 23.4809 34.275 23.4542 34.2323 23.4009C34.147 23.2996 34.0723 23.2222 34.0083 23.1689C33.9496 23.1102 33.8616 23.0596 33.7443 23.0169C33.6323 22.9742 33.4883 22.9529 33.3123 22.9529C33.0563 22.9529 32.859 23.0089 32.7203 23.1209C32.5816 23.2276 32.5123 23.3689 32.5123 23.5449C32.5123 23.6569 32.5416 23.7529 32.6003 23.8329C32.659 23.9076 32.771 23.9769 32.9363 24.0409C33.107 24.1049 33.3523 24.1716 33.6723 24.2409C34.179 24.3476 34.5363 24.5022 34.7443 24.7049C34.9576 24.9022 35.0643 25.1556 35.0643 25.4649C35.0643 25.6942 34.9976 25.9022 34.8643 26.0889C34.731 26.2756 34.5336 26.4222 34.2723 26.5289C34.0163 26.6356 33.7096 26.6889 33.3523 26.6889ZM36.1824 26.6089C36.1291 26.6089 36.0838 26.5929 36.0464 26.5609C36.0144 26.5236 35.9984 26.4782 35.9984 26.4249V21.1129C35.9984 21.0596 36.0144 21.0169 36.0464 20.9849C36.0838 20.9476 36.1291 20.9289 36.1824 20.9289H36.5584C36.6118 20.9289 36.6544 20.9476 36.6864 20.9849C36.7238 21.0169 36.7424 21.0596 36.7424 21.1129V23.8969L38.3184 22.5849C38.3344 22.5742 38.3611 22.5529 38.3984 22.5209C38.4358 22.4942 38.4704 22.4756 38.5024 22.4649C38.5398 22.4542 38.5851 22.4489 38.6384 22.4489H39.0624C39.1104 22.4489 39.1504 22.4649 39.1824 22.4969C39.2144 22.5289 39.2304 22.5689 39.2304 22.6169C39.2304 22.6756 39.1984 22.7262 39.1344 22.7689L37.2864 24.3049L39.3344 26.2969C39.3984 26.3502 39.4304 26.3982 39.4304 26.4409C39.4304 26.4889 39.4144 26.5289 39.3824 26.5609C39.3504 26.5929 39.3104 26.6089 39.2624 26.6089H38.8464C38.7664 26.6089 38.7078 26.6009 38.6704 26.5849C38.6384 26.5689 38.5904 26.5316 38.5264 26.4729L36.7424 24.7689V26.4249C36.7424 26.4782 36.7238 26.5236 36.6864 26.5609C36.6544 26.5929 36.6118 26.6089 36.5584 26.6089H36.1824Z" fill="#412D22"/>
</svg>
