<svg width="26" height="26" viewBox="0 0 26 26" fill="none" xmlns="http://www.w3.org/2000/svg">
<path d="M13.088 0.493286C6.31332 0.493286 0.821289 5.98531 0.821289 12.76C0.821289 19.5348 6.31332 25.0268 13.088 25.0268C13.4472 25.0268 13.8007 25.0033 14.1522 24.9731C13.9613 24.5177 13.8547 24.0181 13.8547 23.4934C13.8547 22.4158 14.3025 21.4456 15.0183 20.7492C14.7669 20.1807 14.6214 19.5551 14.6214 18.8934C14.6214 16.3529 16.6809 14.2934 19.2214 14.2934C19.8831 14.2934 20.5086 14.4388 21.0772 14.6903C21.7737 13.9745 22.7438 13.5267 23.8214 13.5267C24.3461 13.5267 24.8457 13.6333 25.3011 13.8241C25.3313 13.4726 25.3548 13.1192 25.3548 12.76C25.3548 5.98531 19.8627 0.493286 13.088 0.493286ZM4.65466 12.76C4.23128 12.76 3.888 12.4168 3.888 11.9934C3.888 11.5699 4.23128 11.2267 4.65466 11.2267C5.07803 11.2267 5.42131 11.5699 5.42131 11.9934C5.42131 12.4168 5.07803 12.76 4.65466 12.76ZM8.48798 18.8934C7.64109 18.8934 6.95462 18.2068 6.95462 17.36C6.95462 16.5131 7.64109 15.8267 8.48798 15.8267C9.33486 15.8267 10.0213 16.5131 10.0213 17.36C10.0213 18.2068 9.33486 18.8934 8.48798 18.8934ZM10.0213 8.15998C9.17445 8.15998 8.48798 7.47342 8.48798 6.62662C8.48798 5.77973 9.17445 5.09326 10.0213 5.09326C10.8682 5.09326 11.5547 5.77973 11.5547 6.62662C11.5547 7.47342 10.8682 8.15998 10.0213 8.15998ZM12.3213 14.2934C11.898 14.2934 11.5547 13.9501 11.5547 13.5267C11.5547 13.1032 11.898 12.76 12.3213 12.76C12.7447 12.76 13.088 13.1032 13.088 13.5267C13.088 13.9501 12.7448 14.2934 12.3213 14.2934ZM16.9214 3.55995C17.3447 3.55995 17.688 3.90314 17.688 4.32661C17.688 4.74998 17.3447 5.09326 16.9214 5.09326C16.498 5.09326 16.1547 4.74998 16.1547 4.32661C16.1547 3.90314 16.498 3.55995 16.9214 3.55995ZM17.6881 11.2267C16.8412 11.2267 16.1547 10.5401 16.1547 9.69333C16.1547 8.84645 16.8412 8.15998 17.6881 8.15998C18.535 8.15998 19.2214 8.84645 19.2214 9.69333C19.2214 10.5401 18.5349 11.2267 17.6881 11.2267Z" fill="#E39A3B"/>
</svg>
