<svg width="51" height="51" viewBox="0 0 51 51" fill="none" xmlns="http://www.w3.org/2000/svg">
<path d="M25.6862 0.429932C11.7319 0.429932 0.419678 11.7422 0.419678 25.6965C0.419678 39.6508 11.7319 50.963 25.6862 50.963C26.4261 50.963 27.1541 50.9146 27.878 50.8524C27.4849 49.9144 27.2654 48.8853 27.2654 47.8047C27.2654 45.585 28.1876 43.5867 29.6621 42.1522C29.1442 40.9812 28.8446 39.6927 28.8446 38.3297C28.8446 33.0969 33.0866 28.8548 38.3195 28.8548C39.6824 28.8548 40.9708 29.1543 42.1419 29.6724C43.5765 28.1979 45.5747 27.2757 47.7944 27.2757C48.8751 27.2757 49.9041 27.4951 50.8421 27.8881C50.9043 27.1642 50.9528 26.4363 50.9528 25.6965C50.9527 11.7422 39.6404 0.429932 25.6862 0.429932ZM8.31548 25.6965C7.44343 25.6965 6.73636 24.9894 6.73636 24.1173C6.73636 23.2451 7.44343 22.5382 8.31548 22.5382C9.18754 22.5382 9.89461 23.2451 9.89461 24.1173C9.89461 24.9894 9.18754 25.6965 8.31548 25.6965ZM16.2112 38.3297C14.4668 38.3297 13.0529 36.9155 13.0529 35.1713C13.0529 33.4269 14.4668 32.013 16.2112 32.013C17.9556 32.013 19.3695 33.4269 19.3695 35.1713C19.3695 36.9155 17.9556 38.3297 16.2112 38.3297ZM19.3695 16.2215C17.6252 16.2215 16.2112 14.8073 16.2112 13.0631C16.2112 11.3187 17.6252 9.90477 19.3695 9.90477C21.1139 9.90477 22.5279 11.3187 22.5279 13.0631C22.5279 14.8073 21.1139 16.2215 19.3695 16.2215ZM24.107 28.8547C23.235 28.8547 22.5279 28.1477 22.5279 27.2756C22.5279 26.4034 23.235 25.6965 24.107 25.6965C24.9791 25.6965 25.6861 26.4034 25.6861 27.2756C25.6862 28.1477 24.9791 28.8547 24.107 28.8547ZM33.5819 6.74652C34.454 6.74652 35.1611 7.45341 35.1611 8.32565C35.1611 9.1977 34.454 9.90477 33.5819 9.90477C32.7099 9.90477 32.0028 9.1977 32.0028 8.32565C32.0028 7.45341 32.7099 6.74652 33.5819 6.74652ZM35.1612 22.5381C33.4168 22.5381 32.0028 21.124 32.0028 19.3798C32.0028 17.6354 33.4168 16.2215 35.1612 16.2215C36.9055 16.2215 38.3195 17.6354 38.3195 19.3798C38.3194 21.124 36.9054 22.5381 35.1612 22.5381Z" fill="#E39A3B"/>
</svg>
