<svg width="83" height="84" viewBox="0 0 83 84" fill="none" xmlns="http://www.w3.org/2000/svg">
<path d="M0.381958 41.936C0.381958 19.1326 18.8678 0.646729 41.6712 0.646729C64.4744 0.646729 82.9603 19.1326 82.9604 41.936C82.9604 43.145 82.8813 44.3345 82.7796 45.5174C81.2468 44.8752 79.5652 44.5166 77.7992 44.5166C74.1719 44.5166 70.9066 46.0236 68.5622 48.4331C66.6485 47.5866 64.543 47.0972 62.3158 47.0972C53.7646 47.0972 46.8324 54.0293 46.8324 62.5806C46.8324 64.8078 47.322 66.9134 48.1684 68.827C45.7589 71.1712 44.2519 74.4367 44.2519 78.064C44.2519 79.8299 44.6105 81.5115 45.2529 83.0444C44.07 83.1461 42.8802 83.2252 41.6712 83.2252C18.8678 83.2252 0.381958 64.7393 0.381958 41.936Z" fill="#412D22"/>
<path d="M41.6712 0.646729C18.8678 0.646729 0.381958 19.1326 0.381958 41.936C0.381958 64.7393 18.8678 83.2252 41.6712 83.2252C42.8802 83.2252 44.07 83.1461 45.2529 83.0444C44.6105 81.5115 44.2519 79.8299 44.2519 78.064C44.2519 74.4367 45.7589 71.1712 48.1684 68.827C47.322 66.9134 46.8324 64.8078 46.8324 62.5806C46.8324 54.0293 53.7646 47.0972 62.3158 47.0972C64.543 47.0972 66.6485 47.5866 68.5622 48.4331C70.9066 46.0236 74.1719 44.5166 77.7992 44.5166C79.5652 44.5166 81.2468 44.8752 82.7796 45.5174C82.8813 44.3345 82.9604 43.145 82.9604 41.936C82.9603 19.1326 64.4744 0.646729 41.6712 0.646729ZM13.2849 41.936C11.8598 41.936 10.7043 40.7805 10.7043 39.3554C10.7043 37.9301 11.8598 36.7749 13.2849 36.7749C14.7099 36.7749 15.8654 37.9301 15.8654 39.3554C15.8654 40.7805 14.7099 41.936 13.2849 41.936ZM26.1876 62.5804C23.337 62.5804 21.0264 60.2695 21.0264 57.4192C21.0264 54.5687 23.337 52.2581 26.1876 52.2581C29.0382 52.2581 31.3488 54.5687 31.3488 57.4192C31.3488 60.2695 29.0382 62.5804 26.1876 62.5804ZM31.3488 26.4524C28.4982 26.4524 26.1876 24.1415 26.1876 21.2912C26.1876 18.4406 28.4982 16.13 31.3488 16.13C34.1994 16.13 36.51 18.4406 36.51 21.2912C36.51 24.1415 34.1994 26.4524 31.3488 26.4524ZM39.0905 47.097C37.6655 47.097 36.51 45.9415 36.51 44.5165C36.51 43.0911 37.6655 41.936 39.0905 41.936C40.5156 41.936 41.671 43.0911 41.671 44.5165C41.6712 45.9415 40.5157 47.097 39.0905 47.097ZM54.574 10.969C55.999 10.969 57.1545 12.1241 57.1545 13.5495C57.1545 14.9745 55.999 16.13 54.574 16.13C53.1489 16.13 51.9934 14.9745 51.9934 13.5495C51.9934 12.1241 53.1489 10.969 54.574 10.969ZM57.1546 36.7748C54.3041 36.7748 51.9934 34.4639 51.9934 31.6136C51.9934 28.763 54.3041 26.4524 57.1546 26.4524C60.0052 26.4524 62.3158 28.763 62.3158 31.6136C62.3157 34.4639 60.005 36.7748 57.1546 36.7748Z" fill="#E39A3B"/>
</svg>
