<svg width="1165" height="109" viewBox="0 0 1165 109" fill="none" xmlns="http://www.w3.org/2000/svg">
<path d="M88.4952 35C84.6088 13.5227 67.427 0.840905 46.3588 0.840905C19.5634 0.840905 0.131559 21.5 0.131559 54.6364C0.131559 87.7727 19.5634 108.432 46.3588 108.432C67.427 108.432 84.6088 95.75 88.4952 74.2727H75.8134C72.7452 88.7955 60.2679 96.5682 46.3588 96.5682C27.3361 96.5682 12.4043 81.8409 12.4043 54.6364C12.4043 27.4318 27.3361 12.7045 46.3588 12.7045C60.2679 12.7045 72.7452 20.4773 75.8134 35H88.4952ZM101.788 107H114.47V66.0909H137.379C138.299 66.0909 139.169 66.0909 140.038 66.0398L162.129 107H176.856L153.18 63.7386C166.527 59.1875 172.765 48.2955 172.765 34.3864C172.765 15.875 161.72 2.27272 137.174 2.27272H101.788V107ZM114.47 54.6364V13.5227H136.765C153.743 13.5227 160.288 21.8068 160.288 34.3864C160.288 46.9659 153.743 54.6364 136.97 54.6364H114.47ZM186.697 107H250.72V95.75H199.379V60.1591H246.629V48.9091H199.379V13.5227H249.902V2.27272H186.697V107ZM269.855 107L280.39 77.3409H322.73L333.265 107H346.56L308.105 2.27272H295.015L256.56 107H269.855ZM284.378 66.0909L301.151 18.8409H301.969L318.742 66.0909H284.378ZM337.711 13.5227H370.643V107H383.324V13.5227H416.256V2.27272H337.711V13.5227ZM441.311 2.27272H428.629V107H441.311V2.27272ZM463.834 2.27272H450.538L488.993 107H502.084L540.538 2.27272H527.243L496.152 90.4318H494.924L463.834 2.27272ZM549.651 107H613.673V95.75H562.332V60.1591H609.582V48.9091H562.332V13.5227H612.855V2.27272H549.651V107ZM661.813 107H699.654C724.404 107 734.631 94.9318 734.631 79.1818C734.631 62.6136 723.177 53.6136 713.563 53V51.9773C722.563 49.5227 730.54 43.5909 730.54 30.0909C730.54 14.75 720.313 2.27272 698.427 2.27272H661.813V107ZM674.495 95.75V59.3409H700.268C713.972 59.3409 722.563 68.5455 722.563 79.1818C722.563 88.3864 716.222 95.75 699.654 95.75H674.495ZM674.495 48.2955V13.5227H698.427C712.336 13.5227 718.472 20.8864 718.472 30.0909C718.472 41.1364 709.472 48.2955 698.018 48.2955H674.495ZM752.565 107L763.099 77.3409H805.44L815.974 107H829.269L790.815 2.27272H777.724L739.269 107H752.565ZM767.088 66.0909L783.86 18.8409H784.678L801.451 66.0909H767.088ZM838.382 107H851.064V73.0455L864.155 58.3182L900.564 107H915.905L871.927 49.5227L915.905 2.27272H899.336L852.291 54.2273H851.064V2.27272H838.382V107ZM925.119 107H989.142V95.75H937.801V60.1591H985.051V48.9091H937.801V13.5227H988.324V2.27272H925.119V107ZM1003.98 107H1016.66V66.0909H1039.57C1040.49 66.0909 1041.36 66.0909 1042.23 66.0398L1064.32 107H1079.05L1055.37 63.7386C1068.72 59.1875 1074.96 48.2955 1074.96 34.3864C1074.96 15.875 1063.91 2.27272 1039.37 2.27272H1003.98V107ZM1016.66 54.6364V13.5227H1038.96C1055.94 13.5227 1062.48 21.8068 1062.48 34.3864C1062.48 46.9659 1055.94 54.6364 1039.16 54.6364H1016.66ZM1076.38 2.27272L1114.22 63.8409V107H1126.9V63.8409L1164.74 2.27272H1150.22L1121.17 51.1591H1119.94L1090.9 2.27272H1076.38Z" fill="#1C1A26"/>
</svg>
