<?xml version="1.0" encoding="iso-8859-1"?>
<!-- Uploaded to: SVG Repo, www.svgrepo.com, Generator: SVG Repo Mixer Tools -->
<!DOCTYPE svg PUBLIC "-//W3C//DTD SVG 1.1//EN" "http://www.w3.org/Graphics/SVG/1.1/DTD/svg11.dtd">
<svg fill="#000000" height="800px" width="800px" version="1.1" id="Capa_1" xmlns="http://www.w3.org/2000/svg" xmlns:xlink="http://www.w3.org/1999/xlink" 
	 viewBox="0 0 297 297" xml:space="preserve">
<g>
	<path d="M140.675,11.992c0-2.2-1.8-4-4-4h-25.74c-2.2,0-4.282,1.777-4.627,3.95L93.401,93.308c-0.345,2.172,1.173,3.95,3.373,3.95
		h39.901c2.2,0,4-1.8,4-4V11.992z"/>
	<path d="M113.73,183.13c6.413-6.73,12.471-13.087,15.214-18.155c2.547-4.705,1.396-6.35-0.505-8.159
		c-2.581-2.456-6.114-3.7-10.497-3.7c-3.848,0-8.01,0.995-12.166,2.803c1.073,0.712,2.161,1.563,3.248,2.598
		c2.541,2.417,2.641,6.436,0.224,8.977c-2.417,2.541-6.437,2.641-8.978,0.224c-4.447-4.231-8.323-1.662-10.268,0.286
		c-1.844,2.074-4.189,6.129,0.285,10.386c2.54,2.417,2.641,6.437,0.223,8.978c-1.247,1.312-2.923,1.973-4.601,1.973
		c-1.572,0-3.147-0.58-4.376-1.75c-1.049-0.997-1.945-2.017-2.716-3.049c-3.37,9.166-2.901,17.873,2.16,22.688
		c1.869,1.778,3.05,1.778,3.494,1.778c5.033,0,13.547-9.124,21.779-17.946L113.73,183.13z"/>
	<path d="M190.673,11.942c-0.345-2.173-2.427-3.95-4.627-3.95h-25.739c-2.2,0-4,1.8-4,4v81.267c0,2.2,1.8,4,4,4h39.9
		c2.2,0,3.718-1.778,3.373-3.95L190.673,11.942z"/>
	<path d="M9.768,97.259h63.18c2.2,0,4.282-1.778,4.627-3.95l12.906-81.366c0.345-2.173-1.173-3.95-3.373-3.95H44.452
		c-3.707,0-7.096,2.1-8.746,5.419L1.022,83.139c-1.506,3.028-1.339,6.62,0.441,9.494C3.245,95.51,6.386,97.259,9.768,97.259z"/>
	<path d="M287.212,97.259c0.004,0.001,0.007,0.001,0.011,0.001c0.003,0,0.007,0,0.008-0.001c5.397,0,9.77-4.374,9.77-9.769
		c0-1.781-0.476-3.452-1.309-4.89l-34.413-69.189c-1.651-3.319-5.04-5.419-8.748-5.419h-42.657c-2.2,0-3.718,1.777-3.373,3.95
		l12.906,81.366c0.345,2.172,2.427,3.95,4.627,3.95H287.212z"/>
	<path d="M275.64,110.935H21.342c-2.2,0-4,1.8-4,4v119.929c0,2.2,1.8,4,4,4H275.64c2.2,0,4-1.8,4-4V114.935
		C279.64,112.735,277.84,110.935,275.64,110.935z M112.808,202.646c0,0-17.784,19.059-28.336,19.059
		c-4.447,0-8.567-1.775-12.247-5.277c-13.665-12.997-10.117-38.291,8.078-57.583c10.88-11.54,24.951-18.43,37.639-18.43
		c7.643,0,14.3,2.489,19.251,7.2c4.694,4.467,9.012,12.152,2.92,23.404c-3.55,6.559-14.43,17.976-14.43,17.976L112.808,202.646z
		 M187.455,213.906c-1.556,1.557-4.326,3.826-6.158,5.045c0,0-7.621,5.073-14.269,5.073c-6.647,0-12.897-2.589-17.599-7.289
		c-9.702-9.702-9.702-25.491,0.002-35.194c3.585-3.585,9.173-5.535,9.173-5.535c2.077-0.726,4.37-3.018,5.096-5.095
		c0,0,1.954-5.594,5.502-9.143c3.46-3.461,8.4-5.286,8.4-5.286c2.064-0.763,4.387-3.071,5.162-5.13c0,0,1.875-4.993,5.236-8.353
		c2.636-2.636,5.441-4.05,5.441-4.05c1.977-0.966,4.729-3.057,5.851-4.95c0.808-1.365,2.813-4.063,4.688-5.938
		c4.784-4.784,8.857-6.241,15.479-6.241c6.647,0,12.896,2.588,17.597,7.289c4.701,4.7,7.289,10.949,7.289,17.597
		c0,6.648-5.072,14.268-5.072,14.268c-1.22,1.832-3.489,4.604-5.045,6.158L187.455,213.906z"/>
	<path d="M212.582,136.655c3.898,1.128,7.572,3.223,10.64,6.29c2.479,2.48,2.479,6.5,0,8.98c-2.48,2.48-6.501,2.48-8.982,0
		c-4.751-4.751-12.482-4.751-17.233,0c-1.095,1.096-1.956,2.376-2.561,3.769c3.642,1.17,7.066,3.189,9.951,6.074
		c2.479,2.48,2.479,6.501,0,8.98c-2.48,2.48-6.5,2.48-8.98,0c-4.751-4.751-12.482-4.751-17.233,0
		c-1.381,1.38-2.389,3.056-2.977,4.877c3.505,1.216,6.718,3.216,9.419,5.916c2.48,2.48,2.48,6.5,0,8.98
		c-2.479,2.479-6.5,2.479-8.981,0c-2.301-2.302-5.361-3.57-8.616-3.57c-3.256,0-6.316,1.268-8.617,3.569
		c-4.752,4.752-4.753,12.483-0.001,17.234c2.301,2.302,5.361,3.57,8.617,3.57c3.256,0,6.316-1.269,8.617-3.57l52.429-52.43
		c4.752-4.752,4.752-12.483,0-17.234C223.866,133.881,217.324,133.407,212.582,136.655z"/>
	<path d="M17.342,251.564v27.674c0,5.395,4.374,9.77,9.77,9.77h242.76c5.395,0,9.768-4.375,9.768-9.77v-27.674H17.342z"/>
</g>
</svg>