<svg width="24.000000" height="24.000000" viewBox="0 0 24 24" fill="none" xmlns="http://www.w3.org/2000/svg" xmlns:xlink="http://www.w3.org/1999/xlink">
	<desc>
			Created with Pixso.
	</desc>
	<defs>
		<clipPath id="clip11342_1410">
			<rect id="Icon-cookie" width="24.000000" height="24.000000" fill="white" fill-opacity="0"/>
		</clipPath>
	</defs>
	<g clip-path="url(#clip11342_1410)">
		<path id="Vector" d="M21.9424 11.9926C19.209 11.9594 17.002 9.73914 17.002 6.99817C14.2607 6.99817 12.041 4.7915 12.0073 2.05884C10.9424 1.89709 9.854 2.07056 8.89355 2.55957L6.19287 3.9353C5.2207 4.43066 4.43066 5.22119 3.93555 6.19348L2.56445 8.88403C2.06787 9.85876 1.89258 10.9657 2.06396 12.0461L2.53564 15.0254C2.70654 16.1047 3.21484 17.1023 3.9873 17.8752L6.12646 20.0143C6.89697 20.7847 7.89111 21.2914 8.9668 21.4619L11.9634 21.9365C13.0381 22.1068 14.1392 21.9323 15.1089 21.4381L17.8096 20.0627C18.7812 19.5673 19.5718 18.7767 20.0669 17.8046L21.438 15.114C21.9287 14.1515 22.1025 13.0602 21.9424 11.9926ZM8.875 16.3745C8.18457 16.3745 7.625 15.8148 7.625 15.1245C7.625 14.4343 8.18457 13.8746 8.875 13.8746C9.56543 13.8746 10.125 14.4343 10.125 15.1245C10.125 15.8148 9.56543 16.3745 8.875 16.3745ZM10.125 10.1246C9.43457 10.1246 8.875 9.56494 8.875 8.87463C8.875 8.18445 9.43457 7.62476 10.125 7.62476C10.8154 7.62476 11.375 8.18445 11.375 8.87463C11.375 9.56494 10.8154 10.1246 10.125 10.1246ZM16.375 15.1245C15.6846 15.1245 15.125 14.5648 15.125 13.8746C15.125 13.1843 15.6846 12.6246 16.375 12.6246C17.0654 12.6246 17.625 13.1843 17.625 13.8746C17.625 14.5648 17.0654 15.1245 16.375 15.1245Z" fill="#F9512E" fill-opacity="1.000000" fill-rule="nonzero"/>
	</g>
</svg>
