<svg width="251" height="205" viewBox="0 0 251 205" fill="none" xmlns="http://www.w3.org/2000/svg">
<path d="M7.3797 117.245C0.431842 121.884 -3.51128 144.836 9.92946 145.301C19.1901 145.624 22.8394 137.265 19.4081 134.674C10.6688 128.146 0.450801 151.098 10.6688 155.738C15.4745 157.93 20.356 154.438 25.6167 150.187C33.664 143.688 42.6024 135.414 53.5313 142.986" stroke="#D8171C" stroke-width="2" stroke-miterlimit="10"/>
<g style="mix-blend-mode:multiply">
<path d="M175.834 188.709C175.834 190.53 169.777 192.01 162.308 192.01C154.839 192.01 148.772 190.53 148.772 188.709C148.772 186.887 154.829 185.417 162.308 185.417C169.787 185.417 175.834 186.887 175.834 188.709Z" fill="#E5EBF4"/>
</g>
<g style="mix-blend-mode:multiply">
<path d="M98.6876 201.708C98.6876 203.53 92.6307 205 85.1615 205C77.6923 205 71.626 203.53 71.626 201.708C71.626 199.886 77.6829 198.406 85.1615 198.406C92.6402 198.406 98.6876 199.886 98.6876 201.708Z" fill="#E5EBF4"/>
</g>
<g style="mix-blend-mode:multiply">
<path d="M202.678 181.574H48.7729C43.3964 181.573 38.0495 180.777 32.9056 179.211L8.98145 171.906H244.83L217.247 179.581C212.504 180.906 207.602 181.576 202.678 181.574Z" fill="#E5EBF4"/>
</g>
<path d="M233.275 42.0798C228.663 41.8107 224.035 42.1295 219.503 43.0286C217.789 43.3262 216.16 43.9884 214.724 44.9705C213.288 45.9526 212.08 47.2318 211.18 48.7215C207.948 54.0633 202.953 62.5362 201.901 65.4965C201.901 65.4965 193.019 64.1112 188.005 61.0655L185.796 65.4965C185.796 65.4965 190.896 69.045 205.929 73.9694C208.657 69.7853 210.953 65.3346 212.782 60.686C212.782 60.686 212.28 64.3199 213.986 70.7624C215.341 75.8575 212.166 95.7351 212.166 95.7351L244.867 94.5586L242.185 74.7948L246.147 69.6902C246.7 68.9751 247.1 68.1536 247.321 67.277C247.543 66.4004 247.582 65.4875 247.436 64.5951C246.521 58.7111 244.644 53.0181 241.882 47.7442C241.027 46.1609 239.794 44.8145 238.292 43.8259C236.79 42.8373 235.066 42.2373 233.275 42.0798Z" fill="#D85C1C"/>
<path d="M239.057 66.2648L237.873 57.9058C237.873 57.9058 236.261 68.893 235.55 70.2403L239.057 66.2648Z" fill="#B14800"/>
<path d="M226.763 77.0053C225.095 77.584 220.811 78.9503 221.209 79.8516C221.436 80.3544 224.46 79.159 224.792 79.5669C225.123 79.9749 223.967 81.4645 222.033 82.5081C220.536 83.2956 219.493 83.1343 219.427 83.8554C219.351 84.8042 223.787 84.6713 224.924 84.529C226.015 84.3682 227.046 83.9305 227.92 83.2577C228.646 82.6093 229.324 81.9085 229.948 81.1609C230.798 80.3647 231.725 79.6559 232.716 79.0451L230.507 75.4019C230.507 75.4019 227.721 76.6732 226.763 77.0053Z" fill="#E7D1AD"/>
<path d="M222.232 36.5008L222.924 44.4708C222.924 44.4708 227.237 48.1522 230.991 43.9964L228.905 34.3564L222.232 36.5008Z" fill="#E0BD82"/>
<path d="M233.929 15.1527C235.127 16.342 236.068 17.7651 236.694 19.3335C237.32 20.902 237.618 22.5824 237.569 24.2707C237.569 30.4285 230.308 39.1196 223.645 39.1196C217.777 39.1196 213.019 33.0757 213.019 25.637C213.019 19.9442 215.863 15.1052 219.768 13.0842C222.062 11.9633 224.641 11.561 227.167 11.93C229.694 12.299 232.05 13.4221 233.929 15.1527Z" fill="#E7CB9E"/>
<path d="M219.958 28.1987C219.958 28.1987 219.901 28.4549 219.797 28.7965C219.675 29.2073 219.58 29.6256 219.512 30.0488C219.469 30.2457 219.469 30.4497 219.512 30.6466C219.552 30.8113 219.65 30.9562 219.787 31.0545L219.977 31.1873L220.157 31.2538L220.309 31.3297H220.138C219.978 31.3487 219.815 31.3292 219.664 31.2727C219.555 31.2323 219.452 31.1746 219.361 31.102C219.26 31.0125 219.179 30.9026 219.124 30.7794C219.06 30.6558 219.025 30.5198 219.019 30.3809C219.005 30.2453 219.005 30.1085 219.019 29.9729C219.091 29.5054 219.27 29.0606 219.541 28.6731C219.661 28.4989 219.801 28.3397 219.958 28.1987Z" fill="#E0B695"/>
<path d="M216.906 29.5267C216.906 30.1244 216.242 30.6083 215.418 30.6083C214.593 30.6083 213.929 30.1244 213.929 29.5267C213.929 28.929 214.593 28.4546 215.418 28.4546C216.242 28.4546 216.906 28.91 216.906 29.5267Z" fill="#E0AB82"/>
<path d="M228.204 29.5841C228.204 30.2388 227.399 30.7701 226.394 30.7701C225.389 30.7701 224.593 30.2388 224.593 29.5841C224.593 28.9295 225.399 28.3887 226.394 28.3887C227.389 28.3887 228.204 28.9105 228.204 29.5841Z" fill="#E0AB82"/>
<g style="mix-blend-mode:multiply">
<path d="M224.365 179.97C239.075 179.97 251 177.893 251 175.331C251 172.769 239.075 170.691 224.365 170.691C209.655 170.691 197.73 172.769 197.73 175.331C197.73 177.893 209.655 179.97 224.365 179.97Z" fill="#E5EBF4"/>
</g>
<path d="M243.56 166.592C243.56 166.592 245.095 166.905 244.877 169.22C244.737 171.032 244.689 172.85 244.735 174.666L244.09 174.922C243.996 173.957 243.806 173.004 243.522 172.076C243.332 172.076 242.034 174.922 240.507 175.53C238.981 176.137 235.114 177.427 234.015 176.298C232.915 175.169 235.503 173.945 236.858 173.129C238.214 172.313 243.56 166.592 243.56 166.592Z" fill="#393939"/>
<path d="M238.043 159.135C238.043 159.135 239.654 165.501 238.868 168.234C238.081 170.966 236.024 173.31 235.768 173.86C235.512 174.41 238.612 174.04 239.749 173.092C240.887 172.143 243.768 167.18 243.541 166.516C243.119 163.735 242.96 160.921 243.067 158.11L238.043 159.135Z" fill="#E7CB9E"/>
<path d="M218.034 167.266C218.034 167.266 219.522 167.788 218.982 170.055C218.441 172.323 218.11 175.435 218.11 175.435L217.437 175.596C217.468 174.644 217.408 173.691 217.257 172.75C217.067 172.693 215.475 175.378 213.873 175.814C212.271 176.251 208.186 176.925 207.238 175.663C206.29 174.401 209.02 173.528 210.498 172.902C211.977 172.276 218.034 167.266 218.034 167.266Z" fill="#393939"/>
<path d="M213.588 159.144C213.588 159.144 214.337 165.672 213.19 168.281C212.043 170.89 209.664 172.921 209.399 173.433C209.133 173.946 212.242 174.002 213.446 173.205C214.65 172.408 218.185 167.883 218.129 167.199C218.078 164.389 218.297 161.581 218.783 158.812L213.588 159.144Z" fill="#E7CB9E"/>
<path d="M212.166 95.6782C212.166 95.6782 209.399 123.412 209.019 132.682C208.678 140.851 212.489 166.165 212.489 166.165L219.124 165.596C219.124 165.596 219.901 141.326 221.768 133.242C223.2 127.074 227.455 108.573 227.455 108.573C227.455 108.573 229.654 126.116 230.384 131.961C231.427 140.272 236.963 166.004 236.963 166.004L244.745 165.663C244.745 165.663 242.678 139.694 242.792 131.04C242.915 121.903 244.887 94.4922 244.887 94.4922L212.166 95.6782Z" fill="#412D22"/>
<path d="M212.166 95.6781C212.166 95.6781 209.399 123.412 209.019 132.682C208.678 140.851 212.489 166.165 212.489 166.165L219.124 165.596C219.124 165.596 219.901 141.325 221.768 133.242C223.2 127.074 227.455 108.572 227.455 108.572C227.455 108.572 223.664 103.952 222.479 95.2891L212.166 95.6781Z" fill="#563C30"/>
<path d="M238.498 24.9628C238.498 24.9628 237.038 29.4696 229.967 25.3802C225.697 22.9271 221.789 19.8902 218.356 16.357C218.356 16.357 216.043 22.3251 212.394 24.7161C212.488 22.586 212.786 20.4699 213.285 18.397C214.043 15.9965 216.204 10.9963 223.711 10.6926C240.716 10.0095 238.498 24.9628 238.498 24.9628Z" fill="#424242"/>
<path d="M237.351 21.7083C238.471 21.0642 239.327 20.0439 239.768 18.8282C240.209 17.6125 240.205 16.2799 239.758 15.0666C238.242 10.6166 232.337 8.20667 229.332 12.2201" fill="#424242"/>
<path d="M222.839 25.3809C222.839 25.9122 223.114 26.3297 223.455 26.3297C223.796 26.3297 224.081 25.8932 224.081 25.3809C224.081 24.8686 223.796 24.4321 223.455 24.4321C223.114 24.4321 222.839 24.8496 222.839 25.3809Z" fill="#424242"/>
<path d="M216.413 25.7412C216.413 26.2726 216.697 26.69 217.057 26.69C217.418 26.69 217.702 26.2536 217.702 25.7412C217.702 25.2289 217.418 24.7925 217.057 24.7925C216.697 24.7925 216.413 25.2099 216.413 25.7412Z" fill="#424242"/>
<path d="M223.484 32.7056C223.484 32.7056 220.441 34.1477 218.015 32.9333C217.967 34.2331 221.095 36.7378 223.484 32.7056Z" fill="#E5F1FF"/>
<path d="M232.621 28.7297C231.816 31.2154 232.716 33.7012 234.64 34.261C236.564 34.8208 238.782 33.2553 239.597 30.76C240.413 28.2648 239.493 25.7885 237.569 25.2287C235.645 24.6689 233.427 26.2344 232.621 28.7297Z" fill="black"/>
<path d="M235.028 32.6011C233.785 34.2163 232.107 35.4418 230.19 36.1327C228.274 36.8237 226.2 36.9513 224.213 36.5005" stroke="black" stroke-miterlimit="10" stroke-linecap="round"/>
<path d="M224.384 35.7606C224.292 35.7438 224.198 35.7453 224.106 35.765C224.015 35.7848 223.928 35.8224 223.851 35.8757C223.774 35.929 223.708 35.9969 223.657 36.0757C223.606 36.1544 223.572 36.2424 223.555 36.3346C223.538 36.4268 223.539 36.5214 223.559 36.613C223.579 36.7047 223.617 36.7915 223.67 36.8686C223.723 36.9457 223.791 37.0115 223.87 37.0623C223.948 37.1131 224.036 37.148 224.128 37.1648C224.22 37.1811 224.315 37.1792 224.406 37.1589C224.498 37.1387 224.584 37.1006 224.661 37.0468C224.737 36.993 224.803 36.9246 224.853 36.8456C224.903 36.7665 224.937 36.6783 224.953 36.586C224.971 36.4944 224.97 36.4001 224.951 36.3087C224.932 36.2173 224.895 36.1306 224.842 36.0538C224.789 35.9769 224.721 35.9114 224.643 35.8611C224.564 35.8107 224.476 35.7766 224.384 35.7606Z" fill="black"/>
<path d="M237.797 28.094C237.797 28.094 239.844 9.31698 224.991 9.20312C221.598 9.20312 215.512 10.4461 213.74 16.3951" stroke="black" stroke-miterlimit="10" stroke-linecap="round"/>
<path d="M209.18 62.3085L137.275 22.4585C133.609 20.4283 129.489 19.3633 125.299 19.3633C121.109 19.3633 116.989 20.4283 113.323 22.4585L41.4081 62.3085C39.7987 63.1844 38.4552 64.4788 37.5193 66.0552C36.5834 67.6316 36.0898 69.4316 36.0906 71.2653V171.46C36.0893 172.802 36.3526 174.131 36.8653 175.37C37.378 176.61 38.1301 177.737 39.0784 178.685C40.0267 179.633 41.1527 180.385 42.3917 180.897C43.6308 181.409 44.9586 181.672 46.2991 181.669H204.318C205.656 181.669 206.981 181.405 208.217 180.893C209.454 180.38 210.577 179.629 211.523 178.682C212.469 177.734 213.22 176.61 213.732 175.373C214.244 174.135 214.507 172.809 214.507 171.469V71.2748C214.509 69.4385 214.015 67.6359 213.077 66.0576C212.139 64.4793 210.793 63.184 209.18 62.3085Z" fill="#B27934"/>
<path d="M68.185 16.0825H182.431C185.531 16.0825 188.504 17.3151 190.695 19.509C192.887 21.703 194.118 24.6786 194.118 27.7814V156.63H56.4978V27.7814C56.4978 24.6786 57.7291 21.703 59.9209 19.509C62.1127 17.3151 65.0854 16.0825 68.185 16.0825Z" fill="url(#paint0_linear)"/>
<g style="mix-blend-mode:multiply">
<g style="mix-blend-mode:multiply">
<path d="M176.669 36.8423H73.9587V37.6487H176.669V36.8423Z" fill="#E1E3E6"/>
</g>
<g style="mix-blend-mode:multiply">
<path d="M176.669 48.1997H73.958V49.0062H176.669V48.1997Z" fill="#E1E3E6"/>
</g>
<g style="mix-blend-mode:multiply">
<path d="M176.669 59.5659H73.958V60.3724H176.669V59.5659Z" fill="#E1E3E6"/>
</g>
<g style="mix-blend-mode:multiply">
<path d="M176.669 70.9233H73.958V71.7298H176.669V70.9233Z" fill="#E1E3E6"/>
</g>
<g style="mix-blend-mode:multiply">
<path d="M176.669 82.29H73.958V83.0965H176.669V82.29Z" fill="#E1E3E6"/>
</g>
<g style="mix-blend-mode:multiply">
<path d="M176.669 93.6475H73.958V94.4539H176.669V93.6475Z" fill="#E1E3E6"/>
</g>
<g style="mix-blend-mode:multiply">
<path d="M176.669 105.014H73.958V105.821H176.669V105.014Z" fill="#E1E3E6"/>
</g>
<g style="mix-blend-mode:multiply">
<path d="M176.669 116.372H73.958V117.178H176.669V116.372Z" fill="#E1E3E6"/>
</g>
</g>
<path d="M199.541 82.0912L124.441 157.256C124.363 157.334 124.257 157.377 124.147 157.377C124.037 157.377 123.932 157.334 123.854 157.256L48.7636 82.0912C45.4076 78.7317 40.8558 76.8443 36.1096 76.8442V171.469C36.1096 172.809 36.3732 174.135 36.8852 175.372C37.3973 176.61 38.1479 177.734 39.0941 178.682C40.0402 179.629 41.1635 180.38 42.3998 180.893C43.636 181.405 44.9611 181.669 46.2992 181.669H204.318C205.656 181.669 206.981 181.405 208.217 180.893C209.454 180.38 210.577 179.629 211.523 178.682C212.469 177.734 213.22 176.61 213.732 175.372C214.244 174.135 214.507 172.809 214.507 171.469V76.8442H212.195C207.449 76.8454 202.897 78.7326 199.541 82.0912Z" fill="#E39A3B"/>
<g style="mix-blend-mode:multiply">
<path d="M150.668 130.974L124.403 157.256C124.325 157.334 124.219 157.377 124.109 157.377C123.999 157.377 123.894 157.334 123.815 157.256L98.005 131.382L36.0999 167.883V171.479C36.1011 172.818 36.3659 174.144 36.8791 175.381C37.3923 176.618 38.1439 177.742 39.091 178.688C40.0381 179.635 41.1621 180.385 42.3988 180.896C43.6355 181.408 44.9608 181.67 46.2989 181.669H204.318C205.656 181.669 206.981 181.405 208.217 180.893C209.453 180.38 210.577 179.629 211.523 178.682C212.469 177.735 213.219 176.61 213.732 175.373C214.244 174.135 214.507 172.809 214.507 171.469V168.253L150.668 130.974Z" fill="#E7E7E6"/>
</g>
<path d="M214.507 171.469V168.433L137.285 125.689C133.619 123.659 129.498 122.594 125.309 122.594C121.119 122.594 116.998 123.659 113.332 125.689L36.1096 168.442V171.479C36.1121 174.182 37.1868 176.774 39.0974 178.685C41.0081 180.595 43.5984 181.669 46.2992 181.669H204.318C205.656 181.669 206.981 181.405 208.217 180.892C209.454 180.38 210.577 179.629 211.523 178.681C212.469 177.734 213.22 176.61 213.732 175.372C214.244 174.135 214.507 172.809 214.507 171.469Z" fill="#E39A3B"/>
<path d="M175.313 169.581C175.313 171.479 175.617 168.376 181.455 168.376C185.891 168.376 181.863 179.961 174.82 180.369C174.361 180.558 173.985 180.907 173.764 181.352C173.542 181.797 173.49 182.308 173.617 182.789C173.92 184.686 186.403 180.265 186.403 169.885C186.365 162.93 175.313 164.344 175.313 169.581Z" fill="#FEFEFE"/>
<path d="M145.427 162.693C145.427 162.693 146.242 189.668 163.209 189.668C178.555 189.668 180.271 162.693 180.271 162.693H145.427Z" fill="#FEFEFE"/>
<path d="M150.669 165.719C149.381 165.596 148.11 165.335 146.877 164.941C147.541 171.479 150.545 189.753 163.199 189.677C163.992 189.67 164.783 189.587 165.56 189.43C154.308 187.362 151.38 172.266 150.669 165.719Z" fill="#EAF4FF"/>
<path d="M180.29 162.693C180.29 164.23 172.489 165.473 162.858 165.473C153.228 165.473 145.427 164.23 145.427 162.693C145.427 161.156 153.228 159.913 162.858 159.913C172.489 159.913 180.29 161.165 180.29 162.693Z" fill="#EAF4FF"/>
<path d="M162.858 164.884C171.454 164.884 178.422 163.907 178.422 162.702C178.422 161.497 171.454 160.52 162.858 160.52C154.263 160.52 147.294 161.497 147.294 162.702C147.294 163.907 154.263 164.884 162.858 164.884Z" fill="#FEFEFE"/>
<path d="M150.792 164.078C158.8 165.153 166.916 165.153 174.924 164.078C166.916 163.003 158.8 163.003 150.792 164.078Z" fill="#606060"/>
<path d="M56.1384 46.558C40.1574 47.8199 24.6408 63.741 21.6266 66.9859C18.6124 70.2309 3.38963 86.446 2.90622 102.471C2.63134 111.827 9.07685 120.954 13.001 123.991L31.0578 101.295C31.0578 101.295 28.1384 98.3916 21.7688 96.6078C21.7688 96.6078 23.3422 88.4575 33.1432 78.2009C42.3564 68.523 51.2189 65.705 51.2189 65.705C53.3043 71.9862 56.3469 74.7567 56.3469 74.7567L78.1478 55.6191C74.8398 51.8334 65.4559 45.8274 56.1384 46.558Z" fill="#D8171C"/>
<path d="M30.8298 101.115L27.6071 98.6955C25.4839 97.0351 19.7777 100.811 14.8488 107.13C9.9199 113.45 7.6545 119.911 9.77772 121.571L13.0005 123.991L30.8298 101.115Z" fill="#A60006"/>
<path d="M25.7592 115.556C20.8114 121.894 15.1242 125.689 13.001 123.991C10.8777 122.292 13.1526 115.869 18.072 109.55C22.9914 103.231 28.7071 99.4545 30.8303 101.115C32.9535 102.775 30.6881 109.237 25.7592 115.556Z" fill="#A60006"/>
<g style="mix-blend-mode:screen">
<path style="mix-blend-mode:screen" d="M13.0006 123.991L12.7352 123.744C12.6238 123.646 12.5335 123.527 12.4698 123.393C12.3732 123.223 12.3089 123.036 12.2802 122.843C12.1333 122.315 12.0788 121.766 12.119 121.22C12.1611 120.517 12.2787 119.82 12.4698 119.142C12.6831 118.34 12.9523 117.554 13.2754 116.789C13.6213 115.932 14.0169 115.096 14.4603 114.284C14.9152 113.44 15.4081 112.586 15.9769 111.751C16.5456 110.916 17.1238 110.091 17.7494 109.265C18.375 108.44 19.0385 107.7 19.7209 106.941C20.4034 106.182 21.1048 105.508 21.8062 104.853C22.4852 104.227 23.2005 103.64 23.9484 103.098C24.6106 102.602 25.3039 102.148 26.0242 101.741C26.6263 101.397 27.2614 101.114 27.92 100.897C28.4397 100.726 28.9847 100.646 29.5314 100.66C29.7348 100.649 29.9382 100.682 30.1285 100.754C30.2752 100.781 30.4144 100.839 30.5361 100.925L30.8394 101.124L30.5171 100.973C30.3865 100.909 30.245 100.87 30.1001 100.859C29.9116 100.829 29.7198 100.829 29.5314 100.859C29.0171 100.904 28.5141 101.036 28.0432 101.248C27.4257 101.518 26.8299 101.835 26.2612 102.197C25.5952 102.627 24.9616 103.106 24.3655 103.629C23.702 104.18 23.0479 104.806 22.375 105.451C21.702 106.096 21.0479 106.817 20.3844 107.548C19.7209 108.279 19.1048 109.047 18.4887 109.854C17.8726 110.66 17.2849 111.438 16.7352 112.245C16.1854 113.051 15.6546 113.876 15.1807 114.683C14.7067 115.489 14.2328 116.286 13.901 117.055C13.5344 117.776 13.2177 118.521 12.9532 119.285C12.7301 119.921 12.559 120.575 12.4413 121.239C12.3568 121.751 12.3568 122.274 12.4413 122.786C12.4609 122.976 12.5121 123.162 12.593 123.336C12.6366 123.472 12.7076 123.598 12.8015 123.706L13.0006 123.991Z" fill="url(#paint1_linear)"/>
</g>
<path d="M78.1851 55.6383L75.4742 52.6306C73.6922 50.6096 67.3794 53.2568 61.37 58.5416C55.3605 63.8265 51.8913 69.7566 53.6922 71.825L56.4126 74.8043L78.1851 55.6383Z" fill="#A60006"/>
<path d="M70.517 68.8838C64.4981 74.1687 58.1947 76.8158 56.4128 74.7854C54.6308 72.7549 58.0715 66.8343 64.081 61.5495C70.0905 56.2646 76.4032 53.6174 78.1852 55.6384C79.9672 57.6593 76.5265 63.5894 70.517 68.8838Z" fill="#A60006"/>
<g style="mix-blend-mode:screen">
<path style="mix-blend-mode:screen" d="M56.4128 74.7854L56.1948 74.4912C56.1058 74.3745 56.0384 74.2427 55.9957 74.1022C55.9259 73.9104 55.8875 73.7086 55.882 73.5045C55.8451 72.959 55.8963 72.4112 56.0336 71.882C56.205 71.1997 56.4497 70.538 56.7635 69.9085C57.1225 69.1591 57.5343 68.4362 57.9957 67.7452C58.492 66.9679 59.0332 66.2202 59.6166 65.506C60.2327 64.7659 60.8772 64.0164 61.5787 63.2953C62.2801 62.5742 63.0289 61.8721 63.7872 61.1889C64.5455 60.5058 65.3417 59.8891 66.1568 59.2913C66.972 58.6935 67.7872 58.1338 68.6023 57.6309C69.3824 57.1374 70.1929 56.6937 71.0289 56.3025C71.7715 55.9355 72.5378 55.6185 73.3227 55.3537C73.9892 55.1217 74.6789 54.9627 75.3796 54.8793C75.923 54.8119 76.4738 54.8343 77.0099 54.9457C77.211 54.9787 77.4039 55.0495 77.5786 55.1545C77.7134 55.2085 77.8359 55.2892 77.9388 55.3917L78.2042 55.6479L77.9104 55.4391C77.7968 55.355 77.6681 55.2938 77.5312 55.2589C77.3532 55.1847 77.1643 55.1399 76.972 55.126C76.4579 55.0756 75.939 55.1109 75.4364 55.2304C74.7898 55.3914 74.1561 55.6007 73.5407 55.8566C72.7985 56.1609 72.0767 56.5127 71.3796 56.9098C70.6308 57.3178 69.8725 57.8112 69.0857 58.3235C68.299 58.8359 67.5312 59.4241 66.7445 60.0124C65.9578 60.6007 65.1995 61.2553 64.4507 61.91C63.7019 62.5647 62.972 63.2573 62.2706 63.95C61.5692 64.6426 60.9057 65.3447 60.299 66.0563C59.6924 66.7679 59.1047 67.4511 58.5929 68.1437C58.113 68.7866 57.673 69.4584 57.2753 70.1552C56.9415 70.7441 56.6501 71.356 56.4033 71.9864C56.2231 72.4729 56.1238 72.9858 56.1094 73.5045C56.0944 73.6956 56.1104 73.8878 56.1569 74.0738C56.1795 74.2159 56.2243 74.3536 56.2895 74.4818L56.4128 74.7854Z" fill="url(#paint2_linear)"/>
</g>
<path d="M5.21875 94.3782C5.21875 94.3782 15.9581 64.5381 46.0339 50.4292C46.0339 50.4102 22.0055 61.4354 5.21875 94.3782Z" fill="#FFA1A1"/>
<path d="M51.0005 64.7656C51.0005 64.7656 42.4697 65.7714 29.9199 77.1571C21.0574 85.222 16.8962 96.5034 16.8962 96.5034C18.05 96.2636 19.2365 96.2251 20.4034 96.3895C23.1732 89.362 27.3018 82.951 32.5523 77.5242C37.8029 72.0974 44.0722 67.7617 51.0005 64.7656Z" fill="#A60006"/>
<path d="M37.3888 24.9155C37.4889 25.4923 37.6347 26.0602 37.8248 26.6138C37.926 26.963 38.1005 27.2865 38.3366 27.5627C38.4113 27.6502 38.5024 27.722 38.6049 27.7741C38.7074 27.8263 38.8192 27.8576 38.9338 27.8663C39.1764 27.8601 39.4139 27.7949 39.6257 27.6765C39.8568 27.5548 40.0603 27.3867 40.2234 27.1826C40.3865 26.9785 40.5057 26.7429 40.5736 26.4905C40.7628 25.8379 40.8303 25.1561 40.7727 24.479C40.7047 23.6124 40.5394 22.7562 40.2798 21.9267C39.9732 20.9434 39.5766 19.9906 39.0949 19.0803C38.5757 18.0598 37.8902 17.133 37.0665 16.3382C36.3647 15.6637 35.5234 15.1519 34.602 14.8391C33.6838 14.5477 32.7113 14.4698 31.7584 14.6114C30.6808 14.7734 29.6408 15.1268 28.6874 15.6551C27.3176 16.3687 26.1355 17.396 25.2371 18.6533C24.3669 19.903 23.7694 21.3223 23.4836 22.8186C23.1985 24.4253 23.1985 26.0698 23.4836 27.6765C23.7887 29.4527 24.381 31.1672 25.2371 32.7527C25.8964 34.052 26.7678 35.2321 27.8153 36.2443C28.6949 37.09 29.7454 37.737 30.8959 38.1419C31.9969 38.5094 33.1667 38.623 34.3177 38.474C35.5918 38.3062 36.8232 37.9007 37.948 37.2785C38.6802 36.899 39.3864 36.4711 40.0618 35.9976C40.6111 35.605 41.1395 35.1838 41.6447 34.7357C42.0414 34.3801 42.412 33.9964 42.7537 33.5876C43.0032 33.2943 43.2223 32.9764 43.4077 32.6388C43.5828 32.3793 43.8008 32.1515 44.0523 31.9651C44.2274 31.8438 44.4288 31.7657 44.64 31.7374C44.8233 31.7199 45.0077 31.7561 45.1708 31.8418C45.3326 31.9296 45.4823 32.0381 45.6163 32.1644L46.6779 33.2935C45.4576 35.4965 43.7724 37.4068 41.7395 38.8915C40.9358 39.4858 40.0864 40.0157 39.1992 40.476C37.6248 41.3481 35.8961 41.9056 34.1092 42.1174C32.513 42.2894 30.8985 42.1245 29.3698 41.6335C27.8121 41.1029 26.382 40.253 25.1708 39.1382C23.8077 37.8903 22.6778 36.4091 21.8343 34.7641C21.1325 33.4408 20.5976 32.0352 20.2419 30.5799C19.9041 29.1689 19.7324 27.7232 19.73 26.2723C19.7269 24.8517 19.9021 23.4364 20.2514 22.0595C20.5828 20.7119 21.0895 19.4136 21.7585 18.1979C22.4161 16.9944 23.2393 15.8893 24.2039 14.915C25.185 13.9191 26.3136 13.0807 27.5499 12.4291C28.8425 11.7269 30.2589 11.2822 31.7205 11.1197C33.119 10.9639 34.5344 11.093 35.8817 11.4993C37.2548 11.9184 38.5286 12.6124 39.6257 13.5392C40.8372 14.5664 41.8327 15.8242 42.5546 17.2396C43.2535 18.5364 43.743 19.9359 44.0049 21.3859C44.2318 22.7045 44.2318 24.0523 44.0049 25.3709C43.8079 26.577 43.366 27.7298 42.7063 28.7582C42.066 29.7526 41.1816 30.5661 40.1376 31.1207C39.8365 31.2792 39.5185 31.4033 39.1897 31.4907C38.88 31.5672 38.5598 31.5929 38.2419 31.5666C37.9114 31.5297 37.5902 31.4333 37.294 31.282C36.9366 31.1183 36.6146 30.8862 36.3461 30.5988C36.1027 31.5494 35.6743 32.4425 35.0855 33.2271C34.5658 33.8793 33.9213 34.4212 33.1897 34.8211C32.6747 35.1097 32.1012 35.2784 31.512 35.3144C30.9914 35.3367 30.4726 35.2393 29.9954 35.0298C29.5022 34.8013 29.0579 34.479 28.6874 34.081C28.2657 33.6366 27.9083 33.1351 27.6258 32.5914C27.2635 31.8968 26.9866 31.1608 26.8011 30.3996C26.6044 29.6016 26.5026 28.7831 26.4978 27.9612C26.5016 27.1079 26.6033 26.2578 26.8011 25.4278C26.9959 24.5608 27.3151 23.7267 27.749 22.9514C28.2283 22.1199 28.8217 21.3598 29.512 20.6933C30.2883 19.938 31.1694 19.2989 32.1281 18.7956C32.5831 18.5584 33.0002 18.3592 33.3698 18.1979C33.7229 18.0491 34.0836 17.9193 34.4504 17.8089C34.7778 17.7175 35.1101 17.6447 35.4457 17.5907C35.7585 17.5907 36.0902 17.5053 36.4504 17.4863L37.3888 24.9155ZM33.1329 22.069C32.8877 22.1538 32.65 22.2585 32.422 22.3821C31.8791 22.6797 31.427 23.1191 31.1139 23.6536C30.7579 24.2376 30.5076 24.88 30.3746 25.5512C30.241 26.2966 30.2219 27.0581 30.3177 27.8093C30.4213 28.5948 30.6619 29.3559 31.0286 30.058C31.5594 31.0068 32.166 31.3769 32.839 31.0068C33.0498 30.8836 33.2414 30.7302 33.4077 30.5514C33.5919 30.3418 33.7307 30.0963 33.8153 29.8303C33.927 29.4934 33.9877 29.1416 33.9954 28.7866C34.0004 28.3062 33.9591 27.8264 33.8722 27.3539L33.1329 22.069Z" fill="#F1CC9D"/>
<path d="M86.3842 202.552C98.4769 202.552 108.28 192.74 108.28 180.635C108.28 168.53 98.4769 158.717 86.3842 158.717C74.2916 158.717 64.4885 168.53 64.4885 180.635C64.4885 192.74 74.2916 202.552 86.3842 202.552Z" fill="#F1CC9D"/>
<path d="M89.7777 171.583C90.7582 171.583 91.7166 171.292 92.5319 170.746C93.3471 170.201 93.9825 169.426 94.3577 168.519C94.7329 167.613 94.8311 166.615 94.6398 165.652C94.4485 164.69 93.9764 163.806 93.2831 163.112C92.5898 162.418 91.7065 161.945 90.7449 161.754C89.7832 161.562 88.7865 161.66 87.8806 162.036C86.9748 162.412 86.2006 163.048 85.6558 163.864C85.1111 164.68 84.8204 165.639 84.8204 166.621C84.8204 167.937 85.3427 169.199 86.2724 170.129C87.202 171.06 88.463 171.583 89.7777 171.583ZM87.882 194.829C86.1569 193.244 94.2896 179.648 93.2185 175.236C92.4412 172.01 79.4839 174.126 79.3512 175.074C79.3512 175.074 83.0858 174.6 83.7493 176.336C84.4128 178.073 79.3512 188.51 78.4223 192.466C77.4934 196.423 81.882 197.685 84.8204 197.685C88.2896 197.685 93.8915 195.313 93.7588 194.202C93.6261 193.092 89.6355 196.404 87.901 194.829H87.882Z" fill="#F7FBFC"/>
<path d="M210.764 6.8694V6.395C210.761 4.69807 210.086 3.0715 208.886 1.87248C207.687 0.673454 206.061 -1.8622e-06 204.365 0H197.361C195.666 -1.8622e-06 194.04 0.673454 192.84 1.87248C191.64 3.0715 190.965 4.69807 190.963 6.395V6.8694C190.963 8.56798 191.637 10.197 192.837 11.398C194.036 12.5991 195.664 13.2739 197.361 13.2739H204.365H204.621C205.232 14.2386 206.07 15.0388 207.062 15.6044C208.053 16.1701 209.168 16.4841 210.309 16.5188C209.56 16.1014 208.916 15.5203 208.424 14.8188C207.931 14.1172 207.604 13.3134 207.465 12.4674C208.465 11.9153 209.299 11.1046 209.879 10.1199C210.459 9.1352 210.765 8.01263 210.764 6.8694Z" fill="#E39A3B"/>
<path d="M198.11 6.67905C198.11 6.89109 198.047 7.09837 197.929 7.27468C197.812 7.45098 197.644 7.58839 197.449 7.66954C197.253 7.75068 197.037 7.77191 196.83 7.73054C196.622 7.68918 196.431 7.58707 196.281 7.43714C196.131 7.2872 196.029 7.09616 195.988 6.8882C195.947 6.68023 195.968 6.46467 196.049 6.26877C196.13 6.07286 196.267 5.90541 196.443 5.78761C196.62 5.6698 196.827 5.60693 197.039 5.60693C197.323 5.60693 197.595 5.71988 197.796 5.92094C197.997 6.122 198.11 6.39471 198.11 6.67905Z" fill="#FEFEFE"/>
<path d="M202.015 6.67905C202.015 6.96339 201.902 7.23608 201.701 7.43714C201.5 7.6382 201.228 7.75114 200.944 7.75114C200.659 7.75114 200.387 7.6382 200.186 7.43714C199.985 7.23608 199.872 6.96339 199.872 6.67905C199.872 6.39471 199.985 6.122 200.186 5.92094C200.387 5.71988 200.659 5.60693 200.944 5.60693C201.228 5.60693 201.5 5.71988 201.701 5.92094C201.902 6.122 202.015 6.39471 202.015 6.67905Z" fill="#FEFEFE"/>
<path d="M205.911 6.67905C205.911 6.89109 205.848 7.09837 205.73 7.27468C205.613 7.45098 205.445 7.58839 205.25 7.66954C205.054 7.75068 204.838 7.77191 204.631 7.73054C204.423 7.68918 204.232 7.58707 204.082 7.43714C203.932 7.2872 203.83 7.09616 203.789 6.8882C203.748 6.68023 203.769 6.46467 203.85 6.26877C203.931 6.07286 204.068 5.90541 204.244 5.78761C204.421 5.6698 204.628 5.60693 204.84 5.60693C205.124 5.60693 205.396 5.71988 205.597 5.92094C205.798 6.122 205.911 6.39471 205.911 6.67905Z" fill="#FEFEFE"/>
<defs>
<linearGradient id="paint0_linear" x1="125.313" y1="156.63" x2="125.313" y2="16.0825" gradientUnits="userSpaceOnUse">
<stop stop-color="#CAC7C2"/>
<stop offset="0.22" stop-color="#DEDCD9"/>
<stop offset="0.47" stop-color="#EEEDEC"/>
<stop offset="0.73" stop-color="#F8F8F7"/>
<stop offset="1" stop-color="#FBFBFB"/>
</linearGradient>
<linearGradient id="paint1_linear" x1="11.7304" y1="112.311" x2="31.1237" y2="112.311" gradientUnits="userSpaceOnUse">
<stop/>
<stop offset="0.49" stop-color="#C4171C"/>
<stop offset="1"/>
</linearGradient>
<linearGradient id="paint2_linear" x1="9537.92" y1="4658.73" x2="10081.8" y2="4658.73" gradientUnits="userSpaceOnUse">
<stop/>
<stop offset="0.49" stop-color="#C4171C"/>
<stop offset="1"/>
</linearGradient>
</defs>
</svg>
