<svg width="19" height="16" viewBox="0 0 19 16" fill="none" xmlns="http://www.w3.org/2000/svg">
<path d="M18.9936 2.13949C18.3294 2.43403 17.6149 2.63324 16.8655 2.72221C17.6306 2.26382 18.2178 1.53853 18.4949 0.672876C17.779 1.09755 16.9857 1.40563 16.1422 1.57169C15.4663 0.85192 14.5034 0.4021 13.4372 0.4021C11.3914 0.4021 9.73224 2.06129 9.73224 4.10704C9.73224 4.39743 9.76512 4.68009 9.82867 4.95142C6.74956 4.79696 4.01942 3.32206 2.19196 1.07987C1.8731 1.62695 1.69019 2.26382 1.69019 2.9427C1.69019 4.22778 2.34475 5.36228 3.33833 6.02651C2.7313 6.00744 2.15963 5.84083 1.66035 5.5626C1.66008 5.57835 1.66008 5.5941 1.66008 5.60957C1.66008 7.4047 2.9377 8.90199 4.63226 9.24212C4.32169 9.32722 3.99372 9.37225 3.65636 9.37225C3.41708 9.37225 3.18526 9.34932 2.95925 9.30622C3.43062 10.7778 4.79859 11.849 6.42021 11.8791C5.15198 12.873 3.55468 13.4651 1.8184 13.4651C1.51999 13.4651 1.22435 13.4477 0.935059 13.4132C2.57381 14.4648 4.52174 15.0779 6.6139 15.0779C13.4286 15.0779 17.1554 9.43249 17.1554 4.53613C17.1554 4.3756 17.1518 4.21562 17.1446 4.05703C17.8691 3.53481 18.4971 2.88247 18.9936 2.13949Z" fill="#412D22"/>
</svg>
