<?xml version="1.0" encoding="utf-8"?>
<!-- Generated by IcoMoon.io -->
<svg version="1.1" xmlns="http://www.w3.org/2000/svg" xmlns:xlink="http://www.w3.org/1999/xlink" width="2016" height="32" viewBox="0 0 2016 32">
<symbol id="icon-arrow" viewBox="0 0 32 32">
<path d="M21.563 14.667l-7.152-7.152 1.885-1.885 10.371 10.371-10.371 10.371-1.885-1.885 7.152-7.152h-16.229v-2.667h16.229z"></path>
</symbol>
<symbol id="icon-close" viewBox="0 0 32 32">
<path d="M16 14.115l6.6-6.6 1.885 1.885-6.6 6.6 6.6 6.6-1.885 1.885-6.6-6.6-6.6 6.6-1.885-1.885 6.6-6.6-6.6-6.6 1.885-1.885 6.6 6.6z"></path>
</symbol>
<symbol id="icon-cookie" viewBox="0 0 32 32">
<path d="M29.256 15.99c-3.644-0.044-6.587-3.005-6.587-6.659-3.655 0-6.615-2.942-6.659-6.586-1.42-0.216-2.871 0.016-4.152 0.668l-3.601 1.834c-1.296 0.661-2.35 1.715-3.010 3.011l-1.828 3.587c-0.662 1.3-0.896 2.776-0.668 4.216l0.629 3.972c0.228 1.439 0.905 2.769 1.935 3.8l2.853 2.852c1.027 1.027 2.352 1.703 3.787 1.93l3.995 0.633c1.433 0.227 2.901-0.006 4.194-0.665l3.601-1.834c1.296-0.661 2.35-1.715 3.010-3.011l1.828-3.587c0.654-1.283 0.886-2.738 0.672-4.162zM11.833 21.833c-0.92 0-1.667-0.746-1.667-1.667s0.746-1.667 1.667-1.667 1.667 0.746 1.667 1.667c0 0.92-0.746 1.667-1.667 1.667zM13.5 13.5c-0.92 0-1.667-0.746-1.667-1.667s0.746-1.667 1.667-1.667c0.92 0 1.667 0.746 1.667 1.667s-0.746 1.667-1.667 1.667zM21.833 20.166c-0.92 0-1.667-0.746-1.667-1.667s0.746-1.667 1.667-1.667c0.92 0 1.667 0.746 1.667 1.667s-0.746 1.667-1.667 1.667z"></path>
</symbol>
<symbol id="icon-facebook" viewBox="0 0 32 32">
<path d="M18.667 18h3.333l1.333-5.333h-4.667v-2.667c0-1.373 0-2.667 2.667-2.667h2v-4.48c-0.435-0.057-2.076-0.187-3.809-0.187-3.62 0-6.191 2.209-6.191 6.267v3.733h-4v5.333h4v11.333h5.333v-11.333z"></path>
</symbol>
<symbol id="icon-instagram" viewBox="0 0 32 32">
<path d="M16 2.667c3.623 0 4.075 0.013 5.496 0.080 1.42 0.067 2.387 0.289 3.237 0.62 0.88 0.339 1.621 0.797 2.363 1.537 0.678 0.667 1.203 1.473 1.537 2.363 0.329 0.849 0.553 1.817 0.62 3.237 0.063 1.421 0.080 1.873 0.080 5.496s-0.013 4.075-0.080 5.496c-0.067 1.42-0.291 2.387-0.62 3.237-0.334 0.89-0.859 1.697-1.537 2.363-0.667 0.678-1.473 1.202-2.363 1.537-0.849 0.329-1.817 0.553-3.237 0.62-1.421 0.063-1.873 0.080-5.496 0.080s-4.075-0.013-5.496-0.080c-1.42-0.067-2.387-0.291-3.237-0.62-0.89-0.334-1.697-0.859-2.363-1.537-0.678-0.666-1.203-1.473-1.537-2.363-0.331-0.849-0.553-1.817-0.62-3.237-0.063-1.421-0.080-1.873-0.080-5.496s0.013-4.075 0.080-5.496c0.067-1.421 0.289-2.387 0.62-3.237 0.334-0.89 0.858-1.697 1.537-2.363 0.666-0.678 1.473-1.203 2.363-1.537 0.851-0.331 1.816-0.553 3.237-0.62 1.421-0.063 1.873-0.080 5.496-0.080zM16 9.333c-1.768 0-3.464 0.702-4.714 1.953s-1.953 2.946-1.953 4.714c0 1.768 0.702 3.464 1.953 4.714s2.946 1.953 4.714 1.953 3.464-0.702 4.714-1.953c1.25-1.25 1.953-2.946 1.953-4.714s-0.702-3.464-1.953-4.714c-1.25-1.25-2.946-1.953-4.714-1.953zM24.667 9c0-0.442-0.176-0.866-0.488-1.178s-0.737-0.488-1.179-0.488c-0.442 0-0.866 0.176-1.179 0.488s-0.488 0.736-0.488 1.178c0 0.442 0.176 0.866 0.488 1.178s0.737 0.488 1.179 0.488c0.442 0 0.866-0.176 1.179-0.488s0.488-0.736 0.488-1.178zM16 12c1.061 0 2.078 0.421 2.828 1.172s1.172 1.768 1.172 2.828c0 1.061-0.421 2.078-1.172 2.828s-1.768 1.172-2.828 1.172c-1.061 0-2.078-0.421-2.828-1.172s-1.172-1.768-1.172-2.828c0-1.061 0.421-2.078 1.172-2.828s1.768-1.172 2.828-1.172z"></path>
</symbol>
<symbol id="icon-phone" viewBox="0 0 32 32">
<path d="M28 21.893v4.715c0 0.338-0.128 0.663-0.358 0.91s-0.545 0.397-0.882 0.421c-0.583 0.040-1.059 0.061-1.427 0.061-11.783 0-21.333-9.551-21.333-21.333 0-0.368 0.020-0.844 0.061-1.427 0.024-0.337 0.174-0.652 0.421-0.882s0.572-0.358 0.91-0.358h4.715c0.165-0 0.325 0.061 0.448 0.172s0.2 0.263 0.216 0.428c0.031 0.307 0.059 0.551 0.085 0.736 0.265 1.849 0.808 3.648 1.611 5.335 0.127 0.267 0.044 0.585-0.196 0.756l-2.877 2.056c1.759 4.099 5.026 7.366 9.125 9.125l2.053-2.872c0.084-0.117 0.206-0.201 0.346-0.238s0.288-0.023 0.418 0.039c1.687 0.801 3.485 1.343 5.333 1.607 0.185 0.027 0.429 0.056 0.733 0.085 0.164 0.017 0.317 0.094 0.427 0.217s0.172 0.282 0.171 0.447h-0.001z"></path>
</symbol>
<symbol id="icon-twitter" viewBox="0 0 32 32">
<path d="M29.549 7.541c-1.018 0.45-2.097 0.746-3.203 0.877 1.165-0.697 2.037-1.793 2.453-3.085-1.093 0.651-2.292 1.107-3.541 1.353-0.839-0.898-1.951-1.493-3.164-1.694s-2.457 0.005-3.541 0.585c-1.084 0.58-1.945 1.502-2.451 2.622s-0.627 2.376-0.345 3.572c-2.217-0.111-4.386-0.687-6.366-1.691s-3.727-2.413-5.127-4.136c-0.496 0.851-0.756 1.819-0.755 2.804 0 1.933 0.984 3.641 2.48 4.641-0.885-0.028-1.751-0.267-2.525-0.697v0.069c0 1.288 0.446 2.536 1.261 3.532s1.95 1.681 3.212 1.936c-0.822 0.223-1.684 0.256-2.52 0.096 0.356 1.108 1.049 2.078 1.983 2.772s2.062 1.079 3.226 1.101c-1.157 0.909-2.481 1.58-3.897 1.976s-2.897 0.509-4.357 0.333c2.549 1.639 5.516 2.51 8.547 2.507 10.257 0 15.867-8.497 15.867-15.867 0-0.24-0.007-0.483-0.017-0.72 1.092-0.789 2.034-1.767 2.783-2.887l-0.001-0.001z"></path>
</symbol>
<symbol id="icon-menu" viewBox="0 0 80 32">
<path d="M0 0h80v8h-80v-8zM0 24h80v8h-80v-8z"></path>
</symbol>
<symbol id="icon-bakerlab" viewBox="0 0 163 32">
<path d="M13.75 15.897c0.826 0 7.391-0.991 7.391-7.143 0-7.267-5.368-7.019-11.107-7.019h-10.034v0.33c1.817 0 2.395 2.808 2.395 5.368v17.714c0 2.808-0.619 5.285-2.395 5.285v0.372h10.034c7.143 0 13.048-0.165 13.048-7.391 0-7.061-6.648-7.515-9.332-7.515zM10.034 2.436c1.941 0 5.368 0.083 5.368 6.235 0 6.111-3.138 7.061-5.368 7.061h-1.61v-13.295h1.61zM10.034 30.101h-1.61v-13.667h1.61c2.766 0 6.978 0.206 6.978 6.772 0 6.978-3.386 6.895-6.978 6.895z"></path>
<path d="M37.351 26.55c-0.372 0.991-1.321 2.106-2.725 2.106-2.684 0-2.684-2.725-2.684-2.725 0-2.106 1.363-4.046 5.409-4.955 0 0 0 5.492 0 5.574zM44.536 28.655c-2.023 0-1.982-2.89-1.982-2.89v-6.152c0-4.872-1.486-8.258-6.895-8.258 0 0-2.147-0.165-4.005 0.826-2.271 1.197-2.808 2.312-3.221 3.014s-0.372 1.693 0.124 2.477c0.743 1.074 2.188 1.321 3.262 0.619 1.074-0.743 1.363-2.188 0.619-3.262-0.372-0.537-0.908-0.826-1.528-0.908-0.289-0.041-0.124-0.743 1.197-1.404 2.849-1.486 5.244 0.661 5.244 4.955v2.56c-7.226 1.817-10.694 2.23-10.694 6.73 0 4.212 4.748 4.212 4.748 4.212 2.932 0 5.368-1.528 5.987-3.345 0.454 3.345 4.129 3.345 4.129 3.345 2.601 0 4.501-1.61 4.831-2.932l-0.702-0.289c-0.248 0.702-1.115 0.702-1.115 0.702z"></path>
<path d="M54.377 25.806v-25.806l-7.226 1.528v0.702c1.652 0.619 2.065 1.239 2.065 2.684v20.893c0 2.106-0.083 3.84-1.652 4.294v0.702h8.506v-0.702c-1.486-0.372-1.693-2.023-1.693-4.294zM65.402 28.036c0 0-0.083 0-6.194-8.63 5.492-6.772 9.703-6.895 10.446-6.978v-0.702h-10.034v0.702c5.368-0.165-0.537 5.822-0.537 5.822l-3.881 4.212c0 0 1.074 1.652 2.312 3.468 2.766 4.129 3.138 4.872 5.987 4.872h5.822v-0.702c-0.702-0.041-2.56-0.165-3.923-2.065z"></path>
<path d="M74.963 20.191c0-3.964 1.693-8.134 4.129-8.134 2.271 0 3.964 2.932 3.964 8.134h-8.093zM79.298 11.355c-5.698 0-9.662 4.17-9.662 9.992 0 4.831 3.716 9.827 9.125 9.827 5.533 0 7.969-3.262 8.63-5.409l-0.702-0.372c-1.032 1.941-4.335 2.766-6.565 2.271-2.766-0.619-4.831-2.725-5.161-6.772h13.13c0-6.441-2.808-9.538-8.795-9.538z"></path>
<path d="M102.52 11.561c-0.991 0.413-2.684 1.032-4.872 4.459v-4.666l-7.267 1.652v0.702c1.693 0.867 2.065 1.486 2.065 2.89v9.166c0 2.147-0.041 3.84-1.652 4.335v0.702h8.547v-0.702c-1.486-0.413-1.693-2.023-1.693-4.335v-8.588c1.528-2.477 3.221-2.89 3.221-2.436 0 0.743 0.33 1.445 0.95 2.023 1.321 1.115 3.221 0.95 4.336-0.33 1.115-1.239 0.991-3.221-0.289-4.335-0.908-0.743-2.477-0.908-3.345-0.537z"></path>
<path d="M115.519 25.806v-25.806l-7.226 1.528v0.702c1.652 0.619 2.065 1.239 2.065 2.684v20.893c0 2.106-0.083 3.84-1.652 4.294v0.702h8.465v-0.702c-1.445-0.372-1.652-2.023-1.652-4.294z"></path>
<path d="M130.658 26.55c-0.372 0.991-1.321 2.106-2.725 2.106-2.684 0-2.684-2.725-2.684-2.725 0-2.106 1.363-4.046 5.409-4.955 0 0 0 5.492 0 5.574zM137.843 28.655c-2.023 0-1.982-2.89-1.982-2.89v-6.152c0-4.872-1.486-8.258-6.895-8.258 0 0-2.147-0.165-4.005 0.826-2.271 1.197-2.808 2.312-3.221 3.014s-0.372 1.693 0.124 2.477c0.743 1.074 2.188 1.321 3.262 0.619 1.074-0.743 1.363-2.188 0.619-3.262-0.372-0.537-0.908-0.826-1.528-0.908-0.289-0.041-0.124-0.743 1.197-1.404 2.849-1.486 5.244 0.661 5.244 4.955v2.56c-7.226 1.817-10.694 2.23-10.694 6.73 0 4.212 4.748 4.212 4.748 4.212 2.932 0 5.368-1.528 5.987-3.345 0.454 3.345 4.129 3.345 4.129 3.345 2.601 0 4.501-1.61 4.831-2.932l-0.702-0.289c-0.248 0.702-1.115 0.702-1.115 0.702z"></path>
<path d="M152.762 30.472c-2.354 0-4.914-1.693-4.914-6.895v-5.244c0-2.932 1.486-5.244 4.294-5.244 3.386 0 4.914 2.147 4.914 8.754 0 6.317-1.28 8.63-4.294 8.63zM154.207 11.355c-1.982 0-5.037 1.032-6.359 3.51v-14.865l-7.226 1.528v0.702c1.693 0.619 2.106 1.239 2.106 2.643v25.724c0 0.661 2.56-0.248 4.046-1.528 1.363 1.363 3.551 2.106 6.028 2.106 5.781 0 10.157-3.014 10.157-9.662 0-6.524-4.129-10.157-8.754-10.157z"></path>
</symbol>
</svg>
