<svg width="24" height="24" xmlns="http://www.w3.org/2000/svg" fill="none">

 <g>
  <title>Layer 1</title>
  <path id="svg_1" fill="#ffffff" d="m22.1618,5.65605c-0.7634,0.33769 -1.573,0.55947 -2.402,0.658c0.8738,-0.52257 1.5277,-1.34499 1.84,-2.314c-0.82,0.488 -1.719,0.83 -2.656,1.015c-0.6294,-0.67342 -1.4636,-1.12004 -2.373,-1.27042c-0.9094,-0.15038 -1.8431,0.00391 -2.6557,0.43887c-0.8127,0.43496 -1.4589,1.12623 -1.8382,1.96634c-0.3793,0.84011 -0.4703,1.78199 -0.2591,2.67921c-1.6629,-0.08335 -3.28966,-0.51548 -4.7747,-1.26834c-1.48505,-0.75286 -2.79516,-1.80961 -3.84529,-3.10166c-0.37171,0.63845 -0.56705,1.36423 -0.566,2.103c0,1.45 0.738,2.731 1.86,3.48095c-0.66399,-0.0209 -1.31337,-0.20017 -1.894,-0.52295l0,0.052c0.0002,0.96565 0.33437,1.90165 0.94585,2.64905c0.61147,0.7475 1.46263,1.2604 2.40915,1.4519c-0.61639,0.1671 -1.26269,0.1917 -1.89,0.072c0.26687,0.8313 0.78701,1.5582 1.48759,2.0792c0.70059,0.5209 1.54654,0.8096 2.41941,0.8258c-0.86752,0.6814 -1.86082,1.185 -2.92312,1.4822c-1.0623,0.2972 -2.17275,0.3821 -3.26788,0.2498c1.9117,1.2295 4.13709,1.8822 6.41,1.88c7.69299,0 11.89999,-6.373 11.89999,-11.89995c0,-0.18 -0.005,-0.362 -0.013,-0.54c0.8189,-0.59183 1.5256,-1.32498 2.087,-2.165l-0.001,-0.001z"/>
 </g>
</svg>