<svg width="24" height="24" xmlns="http://www.w3.org/2000/svg" fill="none">

 <g>
  <title>Layer 1</title>
  <path id="svg_1" fill="#ffffff" d="m21.9422,11.9926c-2.7332,-0.0332 -4.9402,-2.25348 -4.9402,-4.99444c-2.741,0 -4.961,-2.2066 -4.9946,-4.93936c-1.0648,-0.16172 -2.15346,0.01172 -3.114,0.50077l-2.70038,1.37576c-0.9721,0.49539 -1.76234,1.2859 -2.25741,2.25816l-1.37109,2.69057c-0.49654,0.97473 -0.67183,2.08164 -0.50078,3.16204l0.47188,2.9792c0.17088,1.0794 0.679,2.077 1.45155,2.85l2.13945,2.139c0.77011,0.7704 1.76436,1.2771 2.84022,1.4476l2.99646,0.4746c1.0746,0.1704 2.1758,-0.0043 3.1457,-0.4984l2.7004,-1.3754c0.972,-0.4955 1.7622,-1.2859 2.2574,-2.2581l1.3711,-2.6906c0.4906,-0.9625 0.6644,-2.0538 0.5043,-3.1214zm-13.06716,4.3819c-0.69023,0 -1.24999,-0.5597 -1.24999,-1.2499c0,-0.6903 0.55976,-1.25 1.24999,-1.25c0.69023,0 1.24996,0.5597 1.24996,1.25c0,0.6902 -0.55973,1.2499 -1.24996,1.2499zm1.24996,-6.2498c-0.6902,0 -1.24996,-0.55979 -1.24996,-1.25002c0,-0.69022 0.55976,-1.24997 1.24996,-1.24997c0.6903,0 1.25,0.55975 1.25,1.24997c0,0.69023 -0.5597,1.25002 -1.25,1.25002zm6.25,4.9999c-0.6902,0 -1.25,-0.5598 -1.25,-1.25c0,-0.6902 0.5598,-1.25 1.25,-1.25c0.6902,0 1.25,0.5598 1.25,1.25c0,0.6902 -0.5598,1.25 -1.25,1.25z"/>
 </g>
</svg>