<svg width="31" height="31" viewBox="0 0 31 31" fill="none" xmlns="http://www.w3.org/2000/svg">
<path d="M15.5 31C24.0604 31 31 24.0604 31 15.5C31 6.93959 24.0604 0 15.5 0C6.93959 0 0 6.93959 0 15.5C0 24.0604 6.93959 31 15.5 31Z" fill="white"/>
<path d="M24.7611 16.7478V23.1383H21.0562V17.1761C21.0562 15.6791 20.5213 14.6567 19.1798 14.6567C18.1561 14.6567 17.548 15.345 17.2794 16.0115C17.1819 16.2497 17.1568 16.5804 17.1568 16.9145V23.1381H13.4515C13.4515 23.1381 13.5013 13.04 13.4515 11.9948H17.157V13.5739C17.1496 13.5863 17.1391 13.5985 17.1324 13.6103H17.157V13.5739C17.6494 12.8162 18.5275 11.7331 20.4961 11.7331C22.9337 11.7331 24.7611 13.3257 24.7611 16.7478ZM9.57558 6.62329C8.30819 6.62329 7.479 7.45526 7.479 8.54834C7.479 9.61822 8.28415 10.4742 9.52695 10.4742H9.55099C10.8433 10.4742 11.6467 9.61822 11.6467 8.54834C11.6222 7.45526 10.8433 6.62329 9.57558 6.62329ZM7.69922 23.1383H11.403V11.9948H7.69922V23.1383Z" fill="#412D22"/>
</svg>
