<?xml version="1.0" ?><svg enable-background="new 0 0 192 188" id="instagram" version="1.1" viewBox="0 0 192 188" xml:space="preserve" xmlns="http://www.w3.org/2000/svg" xmlns:xlink="http://www.w3.org/1999/xlink"><g><path d="M151.1992,0H40.8008C18.3047,0,0,18.3574,0,40.9238V68v8v71.0781C0,169.6426,18.3047,188,40.8008,188   h110.3984C173.6953,188,192,169.6426,192,147.0781V76v-8V40.9238C192,18.3574,173.6953,0,151.1992,0z" fill="#535353"/><path d="M124.6956,68c-8.405-5.0442-18.1997-8-28.6956-8s-20.2905,2.9558-28.6956,8H8V40.9238   C8,22.7695,22.7148,8,40.8008,8h110.3984C169.2852,8,184,22.7695,184,40.9238V68H124.6956z" fill="#FFFFFF"/><path d="M161.6016,20h-19.2031C136.6641,20,132,24.6641,132,30.3984v19.2031C132,55.3359,136.6641,60,142.3984,60   h19.2031C167.3359,60,172,55.3359,172,49.6016V30.3984C172,24.6641,167.3359,20,161.6016,20z" fill="#535353"/><path d="M164,49.6016C164,50.9238,162.9258,52,161.6016,52h-19.2031C141.0742,52,140,50.9238,140,49.6016V30.3984   C140,29.0762,141.0742,28,142.3984,28h19.2031C162.9258,28,164,29.0762,164,30.3984V49.6016z" fill="#D8D8D8"/><path d="M184,147.0781C184,165.2305,169.2852,180,151.1992,180H40.8008C22.7148,180,8,165.2305,8,147.0781V76   h48.8828C46.4822,86.1731,40,100.3362,40,116c0,30.8789,25.1211,56,56,56s56-25.1211,56-56c0-15.6638-6.4822-29.8269-16.8828-40   H184V147.0781z" fill="#FFFFFF"/><path d="M144,116c0,26.4668-21.5312,48-48,48s-48-21.5332-48-48s21.5312-48,48-48S144,89.5332,144,116z" fill="#D8D8D8"/><path d="M60,116c0,19.8496,16.1484,36,36,36s36-16.1504,36-36s-16.1484-36-36-36S60,96.1504,60,116z" fill="#535353"/><path d="M124,116c0,15.4395-12.5625,28-28,28s-28-12.5605-28-28s12.5625-28,28-28S124,100.5605,124,116z" fill="#D8D8D8"/></g></svg>