<svg width="18" height="18" viewBox="0 0 18 18" fill="none" xmlns="http://www.w3.org/2000/svg">
<path d="M17.7612 10.749V17.1393H14.0562V11.1773C14.0562 9.68028 13.5213 8.65796 12.1798 8.65796C11.1561 8.65796 10.548 9.34623 10.2794 10.0127C10.1819 10.2508 10.1568 10.5816 10.1568 10.9156V17.1391H6.45155C6.45155 17.1391 6.50129 7.04132 6.45155 5.99607H10.157V7.57514C10.1496 7.58757 10.1391 7.59973 10.1324 7.61161H10.157V7.57514C10.6494 6.81752 11.5275 5.73441 13.4962 5.73441C15.9337 5.73441 17.7612 7.32702 17.7612 10.749ZM2.57558 0.624756C1.30819 0.624756 0.479004 1.4567 0.479004 2.54975C0.479004 3.6196 1.28415 4.47558 2.52696 4.47558H2.55099C3.84326 4.47558 4.64675 3.6196 4.64675 2.54975C4.62215 1.4567 3.84326 0.624756 2.57558 0.624756ZM0.699216 17.1393H4.40305V5.99607H0.699216V17.1393Z" fill="#412D22"/>
</svg>
