<svg width="31" height="31" viewBox="0 0 31 31" fill="none" xmlns="http://www.w3.org/2000/svg">
<path d="M15.5 31.001C24.0604 31.001 31 24.0614 31 15.501C31 6.94056 24.0604 0.000976562 15.5 0.000976562C6.93959 0.000976562 0 6.94056 0 15.501C0 24.0614 6.93959 31.001 15.5 31.001Z" fill="white"/>
<path d="M24.7612 16.7488V23.1391H21.0562V17.177C21.0562 15.68 20.5213 14.6577 19.1798 14.6577C18.1561 14.6577 17.548 15.346 17.2794 16.0124C17.1819 16.2506 17.1568 16.5813 17.1568 16.9154V23.1388H13.4516C13.4516 23.1388 13.5013 13.0411 13.4516 11.9958H17.157V13.5749C17.1496 13.5873 17.1391 13.5995 17.1324 13.6114H17.157V13.5749C17.6494 12.8173 18.5275 11.7342 20.4962 11.7342C22.9337 11.7342 24.7612 13.3268 24.7612 16.7488ZM9.57558 6.62451C8.30819 6.62451 7.479 7.45646 7.479 8.54951C7.479 9.61935 8.28415 10.4753 9.52696 10.4753H9.55099C10.8433 10.4753 11.6467 9.61935 11.6467 8.54951C11.6222 7.45646 10.8433 6.62451 9.57558 6.62451ZM7.69922 23.1391H11.403V11.9958H7.69922V23.1391Z" fill="#412D22"/>
</svg>
