<svg width="18" height="18" viewBox="0 0 18 18" fill="none" xmlns="http://www.w3.org/2000/svg">
<path d="M17.7612 10.7488V17.1391H14.0562V11.177C14.0562 9.68004 13.5213 8.65772 12.1798 8.65772C11.1561 8.65772 10.548 9.34599 10.2794 10.0124C10.1819 10.2506 10.1568 10.5813 10.1568 10.9154V17.1388H6.45155C6.45155 17.1388 6.50129 7.04108 6.45155 5.99583H10.157V7.57489C10.1496 7.58733 10.1391 7.59948 10.1324 7.61136H10.157V7.57489C10.6494 6.81727 11.5275 5.73417 13.4962 5.73417C15.9337 5.73417 17.7612 7.32677 17.7612 10.7488ZM2.57558 0.624512C1.30819 0.624512 0.479004 1.45646 0.479004 2.54951C0.479004 3.61935 1.28415 4.47533 2.52696 4.47533H2.55099C3.84326 4.47533 4.64675 3.61935 4.64675 2.54951C4.62215 1.45646 3.84326 0.624512 2.57558 0.624512ZM0.699216 17.1391H4.40305V5.99583H0.699216V17.1391Z" fill="#412D22"/>
</svg>
