<svg width="19" height="18" viewBox="0 0 19 18" fill="none" xmlns="http://www.w3.org/2000/svg">
<path d="M18.2611 10.7481V17.1386H14.5562V11.1764C14.5562 9.67932 14.0213 8.65697 12.6798 8.65697C11.6561 8.65697 11.048 9.34526 10.7794 10.0117C10.6819 10.2499 10.6568 10.5806 10.6568 10.9147V17.1383H6.95155C6.95155 17.1383 7.00128 7.04028 6.95155 5.995H10.657V7.57411C10.6496 7.58655 10.6391 7.5987 10.6324 7.61059H10.657V7.57411C11.1494 6.81647 12.0275 5.73334 13.9961 5.73334C16.4337 5.73334 18.2611 7.32599 18.2611 10.7481ZM3.07558 0.623535C1.80819 0.623535 0.979004 1.4555 0.979004 2.54859C0.979004 3.61846 1.78415 4.47447 3.02695 4.47447H3.05099C4.34326 4.47447 5.14674 3.61846 5.14674 2.54859C5.12215 1.4555 4.34326 0.623535 3.07558 0.623535ZM1.19922 17.1386H4.90304V5.995H1.19922V17.1386Z" fill="#412D22"/>
</svg>
