<svg width="31" height="31" viewBox="0 0 31 31" fill="none" xmlns="http://www.w3.org/2000/svg">
<path d="M15.5 31C24.0604 31 31 24.0604 31 15.5C31 6.93959 24.0604 0 15.5 0C6.93959 0 0 6.93959 0 15.5C0 24.0604 6.93959 31 15.5 31Z" fill="#E39A3B"/>
<path d="M25.2821 16.1243V22.5146H21.5772V16.5525C21.5772 15.0555 21.0423 14.0332 19.7008 14.0332C18.6771 14.0332 18.069 14.7215 17.8004 15.3879C17.7029 15.6261 17.6778 15.9568 17.6778 16.2909V22.5143H13.9725C13.9725 22.5143 14.0223 12.4166 13.9725 11.3713H17.678V12.9504C17.6706 12.9628 17.6601 12.975 17.6534 12.9869H17.678V12.9504C18.1704 12.1928 19.0485 11.1097 21.0171 11.1097C23.4547 11.1097 25.2821 12.7023 25.2821 16.1243ZM10.0966 6C8.82918 6 8 6.83195 8 7.925C8 8.99484 8.80514 9.85082 10.048 9.85082H10.072C11.3643 9.85082 12.1677 8.99484 12.1677 7.925C12.1432 6.83195 11.3643 6 10.0966 6ZM8.22021 22.5146H11.924V11.3713H8.22021V22.5146Z" fill="#412D22"/>
</svg>
