<svg width="18" height="18" viewBox="0 0 18 18" fill="none" xmlns="http://www.w3.org/2000/svg">
<path d="M17.7612 10.749V17.1393H14.0562V11.1772C14.0562 9.68022 13.5213 8.6579 12.1798 8.6579C11.1561 8.6579 10.548 9.34617 10.2794 10.0126C10.1819 10.2508 10.1568 10.5815 10.1568 10.9156V17.139H6.45155C6.45155 17.139 6.50129 7.04126 6.45155 5.99601H10.157V7.57508C10.1496 7.58751 10.1391 7.59967 10.1324 7.61155H10.157V7.57508C10.6494 6.81746 11.5275 5.73435 13.4962 5.73435C15.9337 5.73435 17.7612 7.32696 17.7612 10.749ZM2.57558 0.624695C1.30819 0.624695 0.479004 1.45664 0.479004 2.54969C0.479004 3.61953 1.28415 4.47552 2.52696 4.47552H2.55099C3.84326 4.47552 4.64675 3.61953 4.64675 2.54969C4.62215 1.45664 3.84326 0.624695 2.57558 0.624695ZM0.699216 17.1393H4.40305V5.99601H0.699216V17.1393Z" fill="#412D22"/>
</svg>
