<svg width="32" height="31" viewBox="0 0 32 31" fill="none" xmlns="http://www.w3.org/2000/svg">
<path d="M16 31C24.5604 31 31.5 24.0604 31.5 15.5C31.5 6.93959 24.5604 0 16 0C7.43959 0 0.5 6.93959 0.5 15.5C0.5 24.0604 7.43959 31 16 31Z" fill="white"/>
<path d="M25.2611 16.7481V23.1386H21.5562V17.1764C21.5562 15.6793 21.0213 14.657 19.6798 14.657C18.6561 14.657 18.048 15.3453 17.7794 16.0117C17.6819 16.2499 17.6568 16.5806 17.6568 16.9147V23.1383H13.9515C13.9515 23.1383 14.0013 13.0403 13.9515 11.995H17.657V13.5741C17.6496 13.5865 17.6391 13.5987 17.6324 13.6106H17.657V13.5741C18.1494 12.8165 19.0275 11.7333 20.9961 11.7333C23.4337 11.7333 25.2611 13.326 25.2611 16.7481ZM10.0756 6.62354C8.80819 6.62354 7.979 7.4555 7.979 8.54859C7.979 9.61846 8.78415 10.4745 10.027 10.4745H10.051C11.3433 10.4745 12.1467 9.61846 12.1467 8.54859C12.1222 7.4555 11.3433 6.62354 10.0756 6.62354ZM8.19922 23.1386H11.903V11.995H8.19922V23.1386Z" fill="#412D22"/>
</svg>
