<svg width="158" height="30" viewBox="0 0 158 30" fill="none" xmlns="http://www.w3.org/2000/svg">
<g clip-path="url(#clip0_13_214)">
<path d="M13.32 14.9031C14.12 14.9031 20.48 13.9741 20.48 8.20635C20.48 1.39344 15.28 1.6257 9.72 1.6257H0V1.93538C1.76 1.93538 2.32 4.56764 2.32 6.96764V23.5741C2.32 26.2063 1.72 28.5289 0 28.5289V28.8773H9.72C16.64 28.8773 22.36 28.7225 22.36 21.9483C22.36 15.3289 15.92 14.9031 13.32 14.9031ZM9.72 2.28377C11.6 2.28377 14.92 2.36119 14.92 8.12893C14.92 13.858 11.88 14.7483 9.72 14.7483H8.16V2.28377H9.72ZM9.72 28.2192H8.16V15.4063H9.72C12.4 15.4063 16.48 15.5999 16.48 21.7547C16.48 28.2967 13.2 28.2192 9.72 28.2192Z" fill="white"/>
<path d="M36.1841 24.8903C35.8241 25.8194 34.9041 26.8645 33.5441 26.8645C30.9441 26.8645 30.9441 24.3097 30.9441 24.3097C30.9441 22.3355 32.2641 20.5161 36.1841 19.6645C36.1841 19.6645 36.1841 24.8129 36.1841 24.8903ZM43.1441 26.8645C41.1841 26.8645 41.2241 24.1549 41.2241 24.1549V18.3871C41.2241 13.8194 39.7841 10.6452 34.5441 10.6452C34.5441 10.6452 32.4641 10.4903 30.6641 11.4194C28.4641 12.5419 27.9441 13.5871 27.5441 14.2452C27.1441 14.9032 27.1841 15.8323 27.6641 16.5678C28.3841 17.5742 29.7841 17.8065 30.8241 17.1484C31.8641 16.4516 32.1441 15.0968 31.4241 14.0903C31.0641 13.5871 30.5441 13.3161 29.9441 13.2387C29.6641 13.2 29.8241 12.5419 31.1041 11.9226C33.8641 10.529 36.1841 12.542 36.1841 16.5678V18.9678C29.1841 20.671 25.8241 21.0581 25.8241 25.2774C25.8241 29.2258 30.4241 29.2258 30.4241 29.2258C33.2641 29.2258 35.6241 27.7936 36.2241 26.0903C36.6641 29.2258 40.2241 29.2258 40.2241 29.2258C42.7441 29.2258 44.5841 27.7161 44.9041 26.4774L44.2241 26.2065C43.9841 26.8645 43.1441 26.8645 43.1441 26.8645Z" fill="white"/>
<path d="M52.6778 24.1936V0L45.6778 1.43226V2.09032C47.2778 2.67097 47.6778 3.25161 47.6778 4.60645V24.1936C47.6778 26.1677 47.5978 27.7936 46.0778 28.2194V28.8774H54.3178V28.2194C52.8778 27.871 52.6778 26.3226 52.6778 24.1936ZM63.3578 26.2839C63.3578 26.2839 63.2778 26.2839 57.3578 18.1936C62.6778 11.8452 66.7578 11.729 67.4778 11.6516V10.9935H57.7578V11.6516C62.9578 11.4968 57.2378 17.1097 57.2378 17.1097L53.4778 21.0581C53.4778 21.0581 54.5178 22.6065 55.7178 24.3097C58.3978 28.1806 58.7578 28.8774 61.5178 28.8774H67.1578V28.2194C66.4778 28.1806 64.6778 28.0645 63.3578 26.2839Z" fill="white"/>
<path d="M72.62 18.9291C72.62 15.213 74.26 11.3033 76.62 11.3033C78.82 11.3033 80.46 14.0517 80.46 18.9291H72.62ZM76.82 10.6453C71.3 10.6453 67.46 14.5549 67.46 20.013C67.46 24.542 71.06 29.2259 76.3 29.2259C81.66 29.2259 84.02 26.1678 84.66 24.1549L83.98 23.8066C82.98 25.6259 79.78 26.4001 77.62 25.9356C74.94 25.3549 72.94 23.3807 72.62 19.5872H85.34C85.34 13.5485 82.62 10.6453 76.82 10.6453Z" fill="white"/>
<path d="M99.3166 10.8388C98.3566 11.2259 96.7166 11.8066 94.5966 15.0195V10.6453L87.5566 12.1937V12.8517C89.1966 13.6646 89.5566 14.2453 89.5566 15.5614V24.1549C89.5566 26.1678 89.5166 27.7549 87.9566 28.2195V28.8775H96.2366V28.2195C94.7966 27.8324 94.5966 26.3227 94.5966 24.1549V16.1033C96.0766 13.7807 97.7166 13.3937 97.7166 13.8195C97.7166 14.5162 98.0366 15.1743 98.6366 15.7162C99.9166 16.7614 101.757 16.6066 102.837 15.4066C103.917 14.2453 103.797 12.3872 102.557 11.342C101.677 10.6453 100.157 10.4904 99.3166 10.8388Z" fill="white"/>
<path d="M111.909 24.1936V0L104.909 1.43226V2.09032C106.509 2.67097 106.909 3.25161 106.909 4.60645V24.1936C106.909 26.1677 106.829 27.7936 105.309 28.2194V28.8774H113.509V28.2194C112.109 27.871 111.909 26.3226 111.909 24.1936Z" fill="white"/>
<path d="M126.575 24.8903C126.215 25.8194 125.295 26.8645 123.935 26.8645C121.335 26.8645 121.335 24.3097 121.335 24.3097C121.335 22.3355 122.655 20.5161 126.575 19.6645C126.575 19.6645 126.575 24.8129 126.575 24.8903ZM133.535 26.8645C131.575 26.8645 131.615 24.1549 131.615 24.1549V18.3871C131.615 13.8194 130.175 10.6452 124.935 10.6452C124.935 10.6452 122.855 10.4903 121.055 11.4194C118.855 12.5419 118.335 13.5871 117.935 14.2452C117.535 14.9032 117.575 15.8323 118.055 16.5678C118.775 17.5742 120.175 17.8065 121.215 17.1484C122.255 16.4516 122.535 15.0968 121.815 14.0903C121.455 13.5871 120.935 13.3161 120.335 13.2387C120.055 13.2 120.215 12.5419 121.495 11.9226C124.255 10.529 126.575 12.542 126.575 16.5678V18.9678C119.575 20.671 116.215 21.0581 116.215 25.2774C116.215 29.2258 120.815 29.2258 120.815 29.2258C123.655 29.2258 126.015 27.7936 126.615 26.0903C127.055 29.2258 130.615 29.2258 130.615 29.2258C133.135 29.2258 134.975 27.7161 135.295 26.4774L134.615 26.2065C134.375 26.8645 133.535 26.8645 133.535 26.8645Z" fill="white"/>
<path d="M147.988 28.5677C145.708 28.5677 143.228 26.9806 143.228 22.1032V17.1871C143.228 14.4387 144.668 12.271 147.388 12.271C150.668 12.271 152.148 14.2839 152.148 20.4774C152.148 26.4 150.908 28.5677 147.988 28.5677ZM149.388 10.6452C147.468 10.6452 144.508 11.6129 143.228 13.9355V0L136.228 1.43226V2.09032C137.868 2.67097 138.268 3.25161 138.268 4.56774V28.6839C138.268 29.3032 140.748 28.4516 142.188 27.2516C143.508 28.529 145.628 29.2258 148.028 29.2258C153.628 29.2258 157.868 26.4 157.868 20.1677C157.868 14.0516 153.868 10.6452 149.388 10.6452Z" fill="white"/>
</g>
<defs>
<clipPath id="clip0_13_214">
<rect width="158" height="30" fill="white"/>
</clipPath>
</defs>
</svg>
