<svg width="114" height="59" viewBox="0 0 114 59" fill="none" xmlns="http://www.w3.org/2000/svg">
<path d="M38.65 49.22C39.73 49.22 40.68 48.84 41.5 48.08C42.34 47.32 42.76 46.45 42.76 45.47C42.76 44.47 42.45 43.55 41.83 42.71C41.15 43.05 40.48 43.22 39.82 43.22C38.28 43.22 37.51 42.74 37.51 41.78C37.51 41.5 37.7 41.25 38.08 41.03C38.46 40.79 39 40.67 39.7 40.67C40.42 40.67 41.2 40.88 42.04 41.3C42.84 40.44 43.24 39.47 43.24 38.39C43.24 37.05 42.65 35.99 41.47 35.21C40.31 34.41 39.06 34.01 37.72 34.01C37.44 34.01 37.23 34.02 37.09 34.04C37.07 34.62 37.02 35.55 36.94 36.83C36.82 38.75 36.76 41.68 36.76 45.62C36.76 47.14 36.65 47.9 36.43 47.9C35.57 47.9 35.02 47.78 34.78 47.54C34.54 47.3 34.42 46.61 34.42 45.47C34.42 45.19 34.47 44.04 34.57 42.02C34.69 40 34.75 38.37 34.75 37.13C34.75 35.89 34.79 34.98 34.87 34.4C33.81 34.76 33.24 35.34 33.16 36.14C33.08 36.8 32.93 37.26 32.71 37.52C32.51 37.78 32.23 37.91 31.87 37.91C31.53 37.91 31.3 37.82 31.18 37.64C31.06 37.44 31 37.24 31 37.04C31 35.3 32.35 34.1 35.05 33.44C35.39 32.08 35.93 31.4 36.67 31.4C36.97 31.4 37.12 31.96 37.12 33.08C37.64 33.02 38.28 32.99 39.04 32.99C39.82 32.99 40.71 33.14 41.71 33.44C42.71 33.72 43.58 34.23 44.32 34.97C45.06 35.69 45.43 36.5 45.43 37.4C45.43 39.08 44.62 40.59 43 41.93C44.12 42.81 44.68 43.86 44.68 45.08C44.68 46.3 44.3 47.31 43.54 48.11C42.12 49.57 40.22 50.3 37.84 50.3C36.22 50.3 35.06 50.19 34.36 49.97C34.22 49.93 34.07 49.83 33.91 49.67C33.77 49.49 33.7 49.27 33.7 49.01C33.7 48.59 34.11 48.38 34.93 48.38C35.19 48.38 35.76 48.52 36.64 48.8C37.52 49.08 38.19 49.22 38.65 49.22ZM41.2 42.05C40.6 41.55 40.03 41.3 39.49 41.3C38.97 41.3 38.71 41.41 38.71 41.63C38.71 42.09 39.2 42.32 40.18 42.32C40.54 42.32 40.88 42.23 41.2 42.05ZM54.6058 50.15C53.8258 50.15 53.2358 49.99 52.8358 49.67C52.6958 49.53 52.6258 49.18 52.6258 48.62C52.6258 48.04 52.6458 47.27 52.6858 46.31C52.1658 47.61 51.6458 48.58 51.1258 49.22C50.6258 49.84 49.9758 50.15 49.1758 50.15C48.3758 50.15 47.6758 49.78 47.0758 49.04C46.4758 48.28 46.1758 47.1 46.1758 45.5C46.1758 43.88 46.6258 42.45 47.5258 41.21C48.4458 39.97 49.6458 39.35 51.1258 39.35C51.7658 39.35 52.4858 39.77 53.2858 40.61C53.4458 40.39 53.7258 40.13 54.1258 39.83C54.5458 39.51 54.8958 39.35 55.1758 39.35C55.4758 39.35 55.6258 39.73 55.6258 40.49C55.6258 40.69 55.5658 41.08 55.4458 41.66C55.3458 42.24 55.2258 42.66 55.0858 42.92C54.9058 43.38 54.8158 45.01 54.8158 47.81C54.8158 48.35 54.8758 48.62 54.9958 48.62C55.3358 48.6 55.8058 48.18 56.4058 47.36C57.0058 46.52 57.5958 45.45 58.1758 44.15C58.7758 42.85 59.1358 42.2 59.2558 42.2C59.3958 42.2 59.4658 42.28 59.4658 42.44C59.4658 43 59.1758 43.89 58.5958 45.11C57.0158 48.47 55.6858 50.15 54.6058 50.15ZM50.9458 40.55C50.3858 40.55 49.7858 40.97 49.1458 41.81C48.5258 42.63 48.2158 43.6 48.2158 44.72C48.2158 45.84 48.3758 46.76 48.6958 47.48C49.0358 48.2 49.4758 48.56 50.0158 48.56C50.6758 48.56 51.6458 46.91 52.9258 43.61C52.9458 43.45 52.9658 43.18 52.9858 42.8C53.0258 42.4 53.0558 42.1 53.0758 41.9C52.8958 41.58 52.5758 41.28 52.1158 41C51.6758 40.7 51.2858 40.55 50.9458 40.55ZM67.3202 51.05L68.1302 50.96C68.2902 50.96 68.3702 51.04 68.3702 51.2C68.3702 51.48 68.1802 51.69 67.8002 51.83C67.4202 51.97 66.9902 52.04 66.5102 52.04C65.6102 52.04 64.8502 51.68 64.2302 50.96C63.6302 50.24 62.7902 48.91 61.7102 46.97C61.4502 46.55 61.3202 46.23 61.3202 46.01C61.3202 45.71 61.7402 45.36 62.5802 44.96C63.9402 44.26 64.6202 43.38 64.6202 42.32C64.6202 42.02 64.5102 41.77 64.2902 41.57C64.0902 41.35 63.8202 41.24 63.4802 41.24C63.0002 41.24 62.4302 41.81 61.7702 42.95C61.1102 44.07 60.6602 45.13 60.4202 46.13C60.2002 47.11 60.0902 48.17 60.0902 49.31C60.0902 49.87 59.9302 50.15 59.6102 50.15C59.1502 50.15 58.7102 50.09 58.2902 49.97C57.8702 49.83 57.6602 49.66 57.6602 49.46C57.6602 49.24 57.7402 48.29 57.9002 46.61C58.0602 44.91 58.1502 43.69 58.1702 42.95C58.2502 38.87 58.4902 35.75 58.8902 33.59C58.9502 33.41 59.2202 33.1 59.7002 32.66C60.2002 32.22 60.6002 32 60.9002 32C61.2002 32 61.3402 32.38 61.3202 33.14C61.3202 33.88 61.1602 35.48 60.8402 37.94C60.5202 40.4 60.3202 42.65 60.2402 44.69C60.6002 43.41 61.1702 42.2 61.9502 41.06C62.7502 39.92 63.5502 39.35 64.3502 39.35C65.7102 39.35 66.3902 40.01 66.3902 41.33C66.3902 42.21 66.1302 43.01 65.6102 43.73C65.0902 44.43 64.3902 45 63.5102 45.44C63.3302 45.52 63.2402 45.61 63.2402 45.71C63.2402 45.81 63.2702 45.91 63.3302 46.01C64.5902 48.23 65.6602 49.79 66.5402 50.69C66.7802 50.93 67.0402 51.05 67.3202 51.05ZM71.6034 50.15C70.4834 50.15 69.5934 49.73 68.9334 48.89C68.2734 48.03 67.9434 47.06 67.9434 45.98C67.9434 43.8 68.4034 42.15 69.3234 41.03C70.2434 39.91 71.4334 39.35 72.8934 39.35C73.5734 39.35 74.1334 39.54 74.5734 39.92C75.0134 40.28 75.2334 40.78 75.2334 41.42C75.2334 42.62 74.7234 43.63 73.7034 44.45C72.7034 45.25 71.4734 45.67 70.0134 45.71C70.0934 46.49 70.3534 47.17 70.7934 47.75C71.2534 48.31 71.7834 48.59 72.3834 48.59C72.9834 48.59 73.5234 48.45 74.0034 48.17C74.4834 47.89 74.9234 47.49 75.3234 46.97C76.1634 45.87 76.8834 44.62 77.4834 43.22C77.6434 42.86 77.7634 42.6 77.8434 42.44C77.9434 42.28 78.0434 42.2 78.1434 42.2C78.2634 42.2 78.3234 42.28 78.3234 42.44C78.3234 43.44 77.7134 44.94 76.4934 46.94C75.1734 49.08 73.5434 50.15 71.6034 50.15ZM70.0134 44.99C71.1934 44.79 72.0534 44.41 72.5934 43.85C73.1534 43.29 73.4334 42.56 73.4334 41.66C73.4334 40.76 73.1434 40.31 72.5634 40.31C71.8634 40.31 71.2734 40.8 70.7934 41.78C70.3134 42.74 70.0534 43.81 70.0134 44.99ZM79.3424 42.17L80.9924 41.99C81.1524 41.99 81.2924 42.08 81.4124 42.26C81.5324 42.44 81.5924 42.63 81.5924 42.83C81.5924 43.03 81.5224 43.71 81.3824 44.87C81.2624 46.03 81.2024 46.95 81.2024 47.63C81.2024 48.29 81.2624 48.62 81.3824 48.62C81.7224 48.6 82.1924 48.18 82.7924 47.36C83.3924 46.52 83.9824 45.45 84.5624 44.15C85.1624 42.85 85.5224 42.2 85.6424 42.2C85.7824 42.2 85.8524 42.28 85.8524 42.44C85.8524 43 85.5624 43.89 84.9824 45.11C83.4024 48.47 82.0724 50.15 80.9924 50.15C80.2124 50.15 79.6224 49.99 79.2224 49.67C79.0824 49.53 79.0124 48.66 79.0124 47.06C79.0124 45.46 79.1824 44.09 79.5224 42.95C78.3624 42.95 77.5524 42.58 77.0924 41.84C76.8524 41.46 76.7324 41.03 76.7324 40.55C76.7324 40.07 76.8324 39.65 77.0324 39.29C77.2324 38.93 77.5124 38.75 77.8724 38.75C78.2524 38.75 78.5924 38.95 78.8924 39.35C79.2124 39.73 79.3724 40.16 79.3724 40.64C79.3724 41.12 79.2324 41.6 78.9524 42.08C79.0324 42.14 79.1624 42.17 79.3424 42.17ZM86.5689 50.15C86.1289 50.15 85.7189 50.1 85.3389 50C84.9789 49.88 84.7589 49.77 84.6789 49.67C84.4789 49.43 84.3789 48.19 84.3789 45.95C84.3789 43.69 84.6289 40.63 85.1289 36.77C85.5489 33.59 86.5289 32 88.0689 32C88.4289 32 88.6889 32.2 88.8489 32.6C89.0089 32.98 89.0889 33.35 89.0889 33.71C89.0889 36.31 88.2989 39.22 86.7189 42.44C86.6589 44.1 86.6289 45.55 86.6289 46.79C86.6289 48.01 86.7389 48.62 86.9589 48.62C87.2989 48.6 87.7689 48.18 88.3689 47.36C88.9689 46.52 89.5589 45.45 90.1389 44.15C90.7389 42.85 91.0989 42.2 91.2189 42.2C91.3589 42.2 91.4289 42.28 91.4289 42.44C91.4289 43 91.1389 43.89 90.5589 45.11C88.9789 48.47 87.6489 50.15 86.5689 50.15ZM88.3389 33.98C88.3389 33.34 88.2589 33.02 88.0989 33.02C87.4989 33.02 87.0589 35.51 86.7789 40.49C87.8189 37.75 88.3389 35.58 88.3389 33.98ZM98.053 50.15C97.273 50.15 96.683 49.99 96.283 49.67C96.143 49.53 96.073 49.18 96.073 48.62C96.073 48.04 96.093 47.27 96.133 46.31C95.613 47.61 95.093 48.58 94.573 49.22C94.073 49.84 93.423 50.15 92.623 50.15C91.823 50.15 91.123 49.78 90.523 49.04C89.923 48.28 89.623 47.1 89.623 45.5C89.623 43.88 90.073 42.45 90.973 41.21C91.893 39.97 93.093 39.35 94.573 39.35C95.213 39.35 95.933 39.77 96.733 40.61C96.893 40.39 97.173 40.13 97.573 39.83C97.993 39.51 98.343 39.35 98.623 39.35C98.923 39.35 99.073 39.73 99.073 40.49C99.073 40.69 99.013 41.08 98.893 41.66C98.793 42.24 98.673 42.66 98.533 42.92C98.353 43.38 98.263 45.01 98.263 47.81C98.263 48.35 98.323 48.62 98.443 48.62C98.783 48.6 99.253 48.18 99.853 47.36C100.453 46.52 101.043 45.45 101.623 44.15C102.223 42.85 102.583 42.2 102.703 42.2C102.843 42.2 102.913 42.28 102.913 42.44C102.913 43 102.623 43.89 102.043 45.11C100.463 48.47 99.133 50.15 98.053 50.15ZM94.393 40.55C93.833 40.55 93.233 40.97 92.593 41.81C91.973 42.63 91.663 43.6 91.663 44.72C91.663 45.84 91.823 46.76 92.143 47.48C92.483 48.2 92.923 48.56 93.463 48.56C94.123 48.56 95.093 46.91 96.373 43.61C96.393 43.45 96.413 43.18 96.433 42.8C96.473 42.4 96.503 42.1 96.523 41.9C96.343 41.58 96.023 41.28 95.563 41C95.123 40.7 94.733 40.55 94.393 40.55ZM106.717 39.65C107.637 39.65 108.397 39.99 108.997 40.67C109.597 41.33 109.907 42.26 109.927 43.46C110.747 43.22 111.467 42.93 112.087 42.59C112.727 42.25 113.067 42.08 113.107 42.08C113.227 42.08 113.287 42.18 113.287 42.38C113.287 42.58 112.997 42.89 112.417 43.31C111.857 43.73 111.007 44.15 109.867 44.57C109.627 46.35 108.907 47.73 107.707 48.71C106.507 49.67 105.307 50.15 104.107 50.15C102.907 50.15 102.107 49.71 101.707 48.83C101.307 47.93 101.107 46.52 101.107 44.6C101.107 42.68 101.247 40.86 101.527 39.14C101.807 37.42 102.167 36.07 102.607 35.09C103.047 34.09 103.497 33.33 103.957 32.81C104.437 32.27 104.887 32 105.307 32C105.507 32 105.687 32.24 105.847 32.72C106.027 33.2 106.117 33.79 106.117 34.49C106.117 36.03 105.837 37.83 105.277 39.89C105.657 39.73 106.137 39.65 106.717 39.65ZM108.067 45.05C107.907 45.07 107.567 45.08 107.047 45.08C106.547 45.08 105.987 44.91 105.367 44.57C104.767 44.21 104.357 43.72 104.137 43.1C103.937 43.6 103.707 44.08 103.447 44.54C103.487 46.06 103.607 47.15 103.807 47.81C104.007 48.47 104.327 48.8 104.767 48.8C105.467 48.8 106.147 48.51 106.807 47.93C107.487 47.33 107.907 46.37 108.067 45.05ZM105.397 35.03C105.397 34.19 105.287 33.77 105.067 33.77C104.887 33.77 104.667 34.21 104.407 35.09C104.167 35.95 103.937 37.13 103.717 38.63C103.517 40.11 103.417 41.58 103.417 43.04C104.737 39.3 105.397 36.63 105.397 35.03ZM106.237 40.73C105.957 40.73 105.727 40.82 105.547 41C105.387 41.16 105.307 41.38 105.307 41.66C105.307 42.28 105.577 42.8 106.117 43.22C106.677 43.62 107.347 43.82 108.127 43.82C108.107 43 107.947 42.28 107.647 41.66C107.347 41.04 106.877 40.73 106.237 40.73Z" fill="#412D22"/>
<path d="M0 20.5C0 9.17819 9.17819 0 20.5 0C31.8217 0 40.9999 9.17819 41 20.5C41 21.1003 40.9607 21.6909 40.9102 22.2782C40.1492 21.9593 39.3143 21.7813 38.4375 21.7813C36.6365 21.7813 35.0153 22.5295 33.8513 23.7258C32.9011 23.3055 31.8558 23.0625 30.75 23.0625C26.5043 23.0625 23.0625 26.5043 23.0625 30.75C23.0625 31.8558 23.3056 32.9012 23.7258 33.8513C22.5295 35.0152 21.7813 36.6365 21.7813 38.4375C21.7813 39.3143 21.9594 40.1492 22.2783 40.9102C21.691 40.9607 21.1003 41 20.5 41C9.17819 41 0 31.8218 0 20.5Z" fill="#412D22"/>
<path d="M20.5 0C9.17819 0 0 9.84976 0 22C0 34.1502 9.17819 44 20.5 44C21.1003 44 21.691 43.9578 22.2783 43.9037C21.9594 43.0869 21.7813 42.1909 21.7813 41.25C21.7813 39.3173 22.5295 37.5773 23.7258 36.3283C23.3056 35.3086 23.0625 34.1867 23.0625 33C23.0625 28.4437 26.5043 24.75 30.75 24.75C31.8558 24.75 32.9011 25.0108 33.8513 25.4619C35.0153 24.178 36.6365 23.375 38.4375 23.375C39.3143 23.375 40.1492 23.5661 40.9102 23.9083C40.9607 23.278 41 22.6442 41 22C40.9999 9.84976 31.8217 0 20.5 0ZM6.40626 22C5.69872 22 5.12504 21.3843 5.12504 20.625C5.12504 19.8656 5.69872 19.2501 6.40626 19.2501C7.1138 19.2501 7.68748 19.8656 7.68748 20.625C7.68748 21.3843 7.1138 22 6.40626 22ZM12.8124 32.9999C11.3971 32.9999 10.2499 31.7686 10.2499 30.2499C10.2499 28.731 11.3971 27.4999 12.8124 27.4999C14.2277 27.4999 15.375 28.731 15.375 30.2499C15.375 31.7686 14.2277 32.9999 12.8124 32.9999ZM15.375 13.7499C13.9597 13.7499 12.8124 12.5186 12.8124 10.9999C12.8124 9.48106 13.9597 8.2499 15.375 8.2499C16.7903 8.2499 17.9375 9.48106 17.9375 10.9999C17.9375 12.5186 16.7903 13.7499 15.375 13.7499ZM19.2187 24.7499C18.5112 24.7499 17.9375 24.1343 17.9375 23.375C17.9375 22.6155 18.5112 22 19.2187 22C19.9262 22 20.4999 22.6155 20.4999 23.375C20.5 24.1343 19.9263 24.7499 19.2187 24.7499ZM26.9062 5.49996C27.6137 5.49996 28.1874 6.11546 28.1874 6.87493C28.1874 7.63424 27.6137 8.2499 26.9062 8.2499C26.1986 8.2499 25.625 7.63424 25.625 6.87493C25.625 6.11546 26.1986 5.49996 26.9062 5.49996ZM28.1875 19.25C26.7722 19.25 25.625 18.0187 25.625 16.5C25.625 14.9811 26.7722 13.7499 28.1875 13.7499C29.6028 13.7499 30.75 14.9811 30.75 16.5C30.7499 18.0187 29.6027 19.25 28.1875 19.25Z" fill="#E39A3B"/>
</svg>
