<svg width="158.000000" height="31.000000" viewBox="0 0 158 31" fill="none" xmlns="http://www.w3.org/2000/svg" xmlns:xlink="http://www.w3.org/1999/xlink">
	<desc>
			Created with Pixso.
	</desc>
	<defs/>
	<path id="Bakerlab" d="M52.67 0L52.67 25C52.67 27.2 52.87 28.8 54.31 29.15L54.31 29.84L46.07 29.84L46.07 29.15C47.59 28.72 47.67 27.04 47.67 25L47.67 4.76C47.67 3.36 47.27 2.76 45.67 2.15L45.67 1.47L52.67 0ZM111.9 0L111.9 25C111.9 27.2 112.1 28.8 113.5 29.15L113.5 29.84L105.3 29.84L105.3 29.15C106.82 28.72 106.9 27.04 106.9 25L106.9 4.76C106.9 3.36 106.5 2.76 104.9 2.15L104.9 1.47L111.9 0ZM143.22 14.39C144.5 12 147.46 11 149.38 11C153.86 11 157.86 14.52 157.86 20.84C157.86 27.28 153.62 30.2 148.02 30.2C145.62 30.2 143.5 29.48 142.18 28.15C140.74 29.39 138.26 30.28 138.26 29.63L138.26 4.71C138.26 3.36 137.86 2.76 136.22 2.15L136.22 1.47L143.22 0L143.22 14.39ZM20.48 8.47C20.48 14.43 14.12 15.39 13.32 15.39C15.92 15.39 22.36 15.84 22.36 22.67C22.36 29.67 16.64 29.84 9.72 29.84L0 29.84L0 29.48C1.72 29.48 2.32 27.08 2.32 24.36L2.32 7.19C2.32 4.71 1.76 2 0 2L0 1.67L9.72 1.67C9.89 1.67 10.07 1.67 10.25 1.67C15.6 1.67 20.48 1.66 20.48 8.47ZM14.92 8.39C14.92 2.43 11.6 2.36 9.72 2.36L8.16 2.36L8.16 15.24L9.72 15.24C11.88 15.24 14.92 14.32 14.92 8.39ZM41.22 24.97C41.22 25.17 41.26 27.76 43.14 27.76C43.14 27.76 43.98 27.76 44.22 27.08L44.9 27.36C44.58 28.63 42.74 30.2 40.22 30.2C40.22 30.2 36.66 30.2 36.22 26.96C35.62 28.72 33.26 30.2 30.42 30.2C30.42 30.2 25.82 30.2 25.82 26.12C25.82 21.76 29.18 21.36 36.18 19.6L36.18 17.12C36.18 12.96 33.86 10.87 31.1 12.32C30.16 12.79 29.82 13.28 29.82 13.52C29.82 13.61 29.87 13.66 29.94 13.67C30.54 13.76 31.06 14.04 31.42 14.56C31.69 14.95 31.82 15.39 31.82 15.83C31.82 16.55 31.47 17.27 30.82 17.71C29.78 18.39 28.38 18.15 27.66 17.12C27.4 16.7 27.27 16.23 27.27 15.77C27.27 15.39 27.36 15.02 27.54 14.72C27.94 14.04 28.46 12.96 30.66 11.8C32.46 10.84 34.54 11 34.54 11C39.78 11 41.22 14.28 41.22 19L41.22 24.96L41.22 24.97ZM131.61 24.97C131.61 25.17 131.65 27.76 133.53 27.76C133.53 27.76 134.37 27.76 134.61 27.08L135.29 27.36C134.97 28.63 133.13 30.2 130.61 30.2C130.61 30.2 127.05 30.2 126.61 26.96C126.01 28.72 123.65 30.2 120.81 30.2C120.81 30.2 116.21 30.2 116.21 26.12C116.21 21.76 119.57 21.36 126.57 19.6L126.57 17.12C126.57 12.96 124.25 10.87 121.49 12.32C120.55 12.79 120.21 13.28 120.21 13.52C120.21 13.61 120.26 13.66 120.33 13.67C120.93 13.76 121.45 14.04 121.81 14.56C122.08 14.95 122.21 15.39 122.21 15.83C122.21 16.55 121.86 17.27 121.21 17.71C120.17 18.39 118.77 18.15 118.05 17.12C117.79 16.7 117.66 16.23 117.66 15.77C117.66 15.39 117.75 15.02 117.93 14.72C118.33 14.04 118.85 12.96 121.05 11.8C122.85 10.84 124.93 11 124.93 11C130.17 11 131.61 14.28 131.61 19L131.61 24.96L131.61 24.97ZM67.46 20.67C67.46 15.04 71.3 11 76.82 11C82.62 11 85.34 14 85.34 20.24L72.62 20.24C72.94 24.15 74.94 26.2 77.62 26.8C79.78 27.28 82.98 26.48 83.98 24.6L84.66 24.96C84.02 27.04 81.66 30.2 76.3 30.2C71.06 30.2 67.46 25.36 67.46 20.67ZM94.59 15.52C96.71 12.2 98.35 11.6 99.31 11.2C100.15 10.84 101.67 11 102.55 11.72C103.23 12.3 103.57 13.14 103.57 13.97C103.57 14.67 103.33 15.37 102.83 15.91C101.75 17.15 99.91 17.32 98.63 16.24C98.03 15.67 97.71 15 97.71 14.28C97.71 13.84 96.07 14.24 94.59 16.63L94.59 24.96C94.59 27.2 94.79 28.76 96.23 29.15L96.23 29.84L87.95 29.84L87.95 29.15C89.51 28.67 89.55 27.04 89.55 24.96L89.55 16.08C89.55 14.72 89.19 14.12 87.55 13.28L87.55 12.6L94.59 11L94.59 15.52ZM57.35 18.79C63.27 27.15 63.35 27.15 63.35 27.15C64.67 29 66.47 29.12 67.15 29.15L67.15 29.84L61.51 29.84C58.75 29.84 58.39 29.12 55.71 25.12C54.51 23.36 53.47 21.76 53.47 21.76L57.23 17.67C57.23 17.67 59.94 14.93 59.94 13.27C59.94 12.52 59.38 11.99 57.75 12.04L57.75 11.36L67.47 11.36L67.47 12.04C66.75 12.12 62.67 12.24 57.35 18.79ZM76.62 11.67C74.26 11.67 72.62 15.72 72.62 19.56L80.46 19.56C80.46 14.52 78.82 11.67 76.62 11.67ZM143.22 22.84C143.22 27.87 145.7 29.52 147.98 29.52C150.9 29.52 152.14 27.28 152.14 21.15C152.14 14.76 150.66 12.67 147.38 12.67C144.66 12.67 143.22 14.91 143.22 17.76L143.22 22.84ZM8.16 29.15L9.72 29.15L9.84 29.15C13.27 29.16 16.48 29.16 16.48 22.48C16.48 16.12 12.4 15.91 9.72 15.91L8.16 15.91L8.16 29.15ZM33.54 27.76C34.9 27.76 35.82 26.67 36.18 25.72L36.18 20.32C32.26 21.2 30.94 23.08 30.94 25.12C30.94 25.12 30.94 27.76 33.54 27.76ZM123.93 27.76C125.29 27.76 126.21 26.67 126.57 25.72L126.57 20.32C122.65 21.2 121.33 23.08 121.33 25.12C121.33 25.12 121.33 27.76 123.93 27.76Z" fill="#FFFFFF" fill-opacity="1.000000" fill-rule="evenodd"/>
</svg>
