<svg width="76" height="76" viewBox="0 0 76 76" fill="none" xmlns="http://www.w3.org/2000/svg">
<path d="M0 37.5917C0 16.8304 16.8304 0 37.5917 0C58.3528 0 75.1832 16.8304 75.1834 37.5917C75.1834 38.6925 75.1113 39.7754 75.0188 40.8524C73.6232 40.2677 72.0922 39.9413 70.4844 39.9413C67.1819 39.9413 64.209 41.3133 62.0746 43.507C60.3322 42.7363 58.4153 42.2907 56.3875 42.2907C48.6021 42.2907 42.2907 48.6021 42.2907 56.3875C42.2907 58.4153 42.7365 60.3323 43.507 62.0746C41.3133 64.2088 39.9413 67.1819 39.9413 70.4844C39.9413 72.0922 40.2678 73.6232 40.8527 75.0188C39.7757 75.1113 38.6925 75.1834 37.5917 75.1834C16.8304 75.1834 0 58.353 0 37.5917Z" fill="#412D22"/>
<path d="M37.5917 0C16.8304 0 0 16.8304 0 37.5917C0 58.353 16.8304 75.1834 37.5917 75.1834C38.6925 75.1834 39.7757 75.1113 40.8527 75.0188C40.2678 73.6232 39.9413 72.0922 39.9413 70.4844C39.9413 67.1819 41.3133 64.2088 43.507 62.0746C42.7365 60.3323 42.2907 58.4153 42.2907 56.3875C42.2907 48.6021 48.6021 42.2907 56.3875 42.2907C58.4153 42.2907 60.3322 42.7363 62.0746 43.507C64.209 41.3133 67.1819 39.9413 70.4844 39.9413C72.0922 39.9413 73.6232 40.2677 75.0188 40.8524C75.1113 39.7754 75.1834 38.6925 75.1834 37.5917C75.1832 16.8304 58.3528 0 37.5917 0ZM11.7474 37.5917C10.45 37.5917 9.39799 36.5397 9.39799 35.2423C9.39799 33.9445 10.45 32.8928 11.7474 32.8928C13.0449 32.8928 14.0968 33.9445 14.0968 35.2423C14.0968 36.5397 13.0449 37.5917 11.7474 37.5917ZM23.4947 56.3874C20.8994 56.3874 18.7957 54.2834 18.7957 51.6884C18.7957 49.0931 20.8994 46.9894 23.4947 46.9894C26.09 46.9894 28.1937 49.0931 28.1937 51.6884C28.1937 54.2834 26.09 56.3874 23.4947 56.3874ZM28.1937 23.4947C25.5984 23.4947 23.4947 21.3907 23.4947 18.7957C23.4947 16.2004 25.5984 14.0967 28.1937 14.0967C30.789 14.0967 32.8927 16.2004 32.8927 18.7957C32.8927 21.3907 30.789 23.4947 28.1937 23.4947ZM35.2421 42.2905C33.9447 42.2905 32.8927 41.2386 32.8927 39.9411C32.8927 38.6434 33.9447 37.5917 35.2421 37.5917C36.5396 37.5917 37.5916 38.6434 37.5916 39.9411C37.5917 41.2386 36.5397 42.2905 35.2421 42.2905ZM49.339 9.39785C50.6364 9.39785 51.6884 10.4496 51.6884 11.7473C51.6884 13.0447 50.6364 14.0967 49.339 14.0967C48.0415 14.0967 46.9895 13.0447 46.9895 11.7473C46.9895 10.4496 48.0415 9.39785 49.339 9.39785ZM51.6885 32.8927C49.0932 32.8927 46.9895 30.7887 46.9895 28.1937C46.9895 25.5984 49.0932 23.4947 51.6885 23.4947C54.2838 23.4947 56.3875 25.5984 56.3875 28.1937C56.3874 30.7887 54.2837 32.8927 51.6885 32.8927Z" fill="#E39A3B"/>
</svg>
