<svg width="168.000000" height="40.000000" viewBox="0 0 168 40" fill="none" xmlns="http://www.w3.org/2000/svg" xmlns:xlink="http://www.w3.org/1999/xlink">
	<desc>
			Created with Pixso.
	</desc>
	<defs>
		<clipPath id="clip11342_1426">
			<rect id="Logo" width="168.000000" height="40.000000" fill="white" fill-opacity="0"/>
		</clipPath>
	</defs>
	<g clip-path="url(#clip11342_1426)">
		<path id="Bakerlab" d="M57.67 5L57.67 30C57.67 32.2 57.87 33.8 59.31 34.16L59.31 34.84L51.07 34.84L51.07 34.16C52.59 33.72 52.67 32.04 52.67 30L52.67 9.76C52.67 8.35 52.27 7.76 50.67 7.16L50.67 6.47L57.67 5ZM116.9 5L116.9 30C116.9 32.2 117.1 33.8 118.5 34.16L118.5 34.84L110.3 34.84L110.3 34.16C111.82 33.72 111.9 32.04 111.9 30L111.9 9.76C111.9 8.35 111.5 7.76 109.9 7.16L109.9 6.47L116.9 5ZM148.22 19.4C149.5 17 152.46 16 154.38 16C158.86 16 162.86 19.52 162.86 25.84C162.86 32.28 158.62 35.2 153.02 35.2C150.62 35.2 148.5 34.48 147.18 33.16C145.74 34.4 143.26 35.28 143.26 34.64L143.26 9.71C143.26 8.35 142.86 7.76 141.22 7.16L141.22 6.47L148.22 5L148.22 19.4ZM25.48 13.48C25.48 19.43 19.12 20.4 18.31 20.4C20.91 20.4 27.35 20.84 27.35 27.68C27.35 34.68 21.64 34.84 14.72 34.84L5 34.84L5 34.48C6.72 34.48 7.31 32.08 7.31 29.36L7.31 12.2C7.31 9.71 6.75 7 5 7L5 6.68L14.72 6.68C14.89 6.68 15.07 6.67 15.25 6.67C20.6 6.67 25.48 6.66 25.48 13.48ZM19.91 13.4C19.91 7.43 16.6 7.35 14.72 7.35L13.16 7.35L13.16 20.24L14.72 20.24C16.87 20.24 19.91 19.31 19.91 13.4ZM46.22 29.97C46.22 30.17 46.26 32.75 48.14 32.75C48.14 32.75 48.98 32.75 49.22 32.08L49.9 32.36C49.58 33.64 47.74 35.2 45.22 35.2C45.22 35.2 41.66 35.2 41.22 31.96C40.62 33.72 38.26 35.2 35.42 35.2C35.42 35.2 30.82 35.2 30.82 31.12C30.82 26.76 34.18 26.36 41.18 24.6L41.18 22.12C41.18 17.95 38.86 15.88 36.1 17.31C35.16 17.79 34.82 18.28 34.82 18.52C34.82 18.61 34.87 18.66 34.94 18.68C35.54 18.76 36.06 19.04 36.42 19.56C36.69 19.95 36.82 20.39 36.82 20.83C36.82 21.55 36.47 22.27 35.82 22.72C34.78 23.4 33.38 23.16 32.66 22.12C32.4 21.7 32.27 21.23 32.27 20.77C32.27 20.39 32.36 20.02 32.54 19.71C32.94 19.04 33.46 17.95 35.66 16.79C37.46 15.84 39.54 16 39.54 16C44.78 16 46.22 19.28 46.22 24L46.22 29.96L46.22 29.97ZM136.61 29.97C136.61 30.17 136.65 32.75 138.53 32.75C138.53 32.75 139.37 32.75 139.61 32.08L140.29 32.36C139.97 33.64 138.13 35.2 135.61 35.2C135.61 35.2 132.05 35.2 131.61 31.96C131.01 33.72 128.65 35.2 125.81 35.2C125.81 35.2 121.21 35.2 121.21 31.12C121.21 26.76 124.57 26.36 131.57 24.6L131.57 22.12C131.57 17.95 129.25 15.88 126.49 17.31C125.55 17.79 125.21 18.28 125.21 18.52C125.21 18.61 125.26 18.66 125.33 18.68C125.93 18.76 126.45 19.04 126.81 19.56C127.08 19.95 127.21 20.39 127.21 20.83C127.21 21.55 126.86 22.27 126.21 22.72C125.17 23.4 123.77 23.16 123.05 22.12C122.79 21.7 122.66 21.23 122.66 20.77C122.66 20.39 122.75 20.02 122.93 19.71C123.33 19.04 123.85 17.95 126.05 16.79C127.85 15.84 129.93 16 129.93 16C135.17 16 136.61 19.28 136.61 24L136.61 29.96L136.61 29.97ZM72.46 25.68C72.46 20.04 76.29 16 81.81 16C87.62 16 90.33 19 90.33 25.24L77.62 25.24C77.93 29.16 79.93 31.2 82.62 31.8C84.77 32.28 87.98 31.48 88.98 29.6L89.66 29.96C89.02 32.04 86.66 35.2 81.29 35.2C76.06 35.2 72.46 30.36 72.46 25.68ZM99.59 20.52C101.71 17.2 103.35 16.6 104.31 16.2C105.15 15.84 106.67 16 107.55 16.71C108.23 17.3 108.57 18.14 108.57 18.97C108.57 19.67 108.33 20.37 107.83 20.92C106.75 22.16 104.91 22.31 103.63 21.24C103.03 20.68 102.71 20 102.71 19.28C102.71 18.84 101.07 19.24 99.59 21.64L99.59 29.96C99.59 32.2 99.79 33.75 101.23 34.16L101.23 34.84L92.95 34.84L92.95 34.16C94.51 33.68 94.55 32.04 94.55 29.96L94.55 21.08C94.55 19.71 94.19 19.12 92.55 18.28L92.55 17.6L99.59 16L99.59 20.52ZM62.35 23.8C68.27 32.16 68.35 32.16 68.35 32.16C69.67 34 71.47 34.12 72.15 34.16L72.15 34.84L66.51 34.84C63.75 34.84 63.39 34.12 60.71 30.12C59.51 28.36 58.47 26.76 58.47 26.76L62.23 22.68C62.23 22.68 64.94 19.93 64.94 18.27C64.94 17.52 64.38 16.99 62.75 17.04L62.75 16.36L72.47 16.36L72.47 17.04C71.75 17.12 67.67 17.24 62.35 23.8ZM81.62 16.68C79.25 16.68 77.62 20.72 77.62 24.56L85.46 24.56C85.46 19.52 83.81 16.68 81.62 16.68ZM148.22 27.84C148.22 32.88 150.7 34.52 152.98 34.52C155.9 34.52 157.14 32.28 157.14 26.16C157.14 19.76 155.66 17.68 152.38 17.68C149.66 17.68 148.22 19.92 148.22 22.76L148.22 27.84ZM13.16 34.16L14.72 34.16L14.84 34.16C18.27 34.16 21.48 34.16 21.48 27.48C21.48 21.12 17.39 20.92 14.72 20.92L13.16 20.92L13.16 34.16ZM38.54 32.75C39.9 32.75 40.82 31.68 41.18 30.72L41.18 25.31C37.26 26.2 35.94 28.08 35.94 30.12C35.94 30.12 35.94 32.75 38.54 32.75ZM128.93 32.75C130.29 32.75 131.21 31.68 131.57 30.72L131.57 25.31C127.65 26.2 126.33 28.08 126.33 30.12C126.33 30.12 126.33 32.75 128.93 32.75Z" fill="#1C1A26" fill-opacity="1.000000" fill-rule="evenodd"/>
	</g>
</svg>
