<svg width="168" height="40" xmlns="http://www.w3.org/2000/svg" fill="none">

 <g>
  <title>Layer 1</title>
  <path id="svg_1" fill="#ffffff" d="m18.32,20.4c0.8,0 7.16,-0.96 7.16,-6.92c0,-7.04 -5.2,-6.8 -10.76,-6.8l-9.72,0l0,0.32c1.76,0 2.32,2.72 2.32,5.2l0,17.16c0,2.72 -0.6,5.12 -2.32,5.12l0,0.36l9.72,0c6.92,0 12.64,-0.16 12.64,-7.16c0,-6.84 -6.44,-7.28 -9.04,-7.28zm-3.6,-13.04c1.88,0 5.2,0.08 5.2,6.04c0,5.92 -3.04,6.84 -5.2,6.84l-1.56,0l0,-12.88l1.56,0zm0,26.8l-1.56,0l0,-13.24l1.56,0c2.68,0 6.76,0.2 6.76,6.56c0,6.76 -3.28,6.68 -6.76,6.68z"/>
  <path id="svg_2" fill="#ffffff" d="m41.1841,30.72c-0.36,0.96 -1.28,2.04 -2.64,2.04c-2.6,0 -2.6,-2.64 -2.6,-2.64c0,-2.04 1.32,-3.92 5.24,-4.8c0,0 0,5.32 0,5.4zm6.96,2.04c-1.96,0 -1.92,-2.8 -1.92,-2.8l0,-5.96c0,-4.72 -1.44,-8 -6.68,-8c0,0 -2.08,-0.16 -3.88,0.8c-2.2,1.16 -2.72,2.24 -3.12,2.92c-0.4,0.68 -0.36,1.64 0.12,2.4c0.72,1.04 2.12,1.28 3.16,0.6c1.04,-0.72 1.32,-2.12 0.6,-3.16c-0.36,-0.52 -0.88,-0.8 -1.48,-0.88c-0.28,-0.04 -0.12,-0.72 1.16,-1.36c2.76,-1.44 5.08,0.64 5.08,4.8l0,2.48c-7,1.76 -10.36,2.16 -10.36,6.52c0,4.08 4.6,4.08 4.6,4.08c2.84,0 5.2,-1.48 5.8,-3.24c0.44,3.24 4,3.24 4,3.24c2.52,0 4.36,-1.56 4.68,-2.84l-0.68,-0.28c-0.24,0.68 -1.08,0.68 -1.08,0.68z"/>
  <path id="svg_3" fill="#ffffff" d="m57.6778,30l0,-25l-7,1.48l0,0.68c1.6,0.6 2,1.2 2,2.6l0,20.24c0,2.04 -0.08,3.72 -1.6,4.16l0,0.68l8.24,0l0,-0.68c-1.44,-0.36 -1.64,-1.96 -1.64,-4.16zm10.68,2.16c0,0 -0.08,0 -6,-8.36c5.32,-6.56 9.4,-6.68 10.12,-6.76l0,-0.68l-9.72,0l0,0.68c5.2,-0.16 -0.52,5.64 -0.52,5.64l-3.76,4.08c0,0 1.04,1.6 2.24,3.36c2.68,4 3.04,4.72 5.8,4.72l5.64,0l0,-0.68c-0.68,-0.04 -2.48,-0.16 -3.8,-2z"/>
  <path id="svg_4" fill="#ffffff" d="m77.62,24.56c0,-3.84 1.64,-7.88 4,-7.88c2.2,0 3.84,2.84 3.84,7.88l-7.84,0zm4.2,-8.56c-5.52,0 -9.36,4.04 -9.36,9.68c0,4.68 3.6,9.52 8.84,9.52c5.36,0 7.72,-3.16 8.36,-5.24l-0.68,-0.36c-1,1.88 -4.2,2.68 -6.36,2.2c-2.68,-0.6 -4.68,-2.64 -5,-6.56l12.72,0c0,-6.24 -2.72,-9.24 -8.52,-9.24z"/>
  <path id="svg_5" fill="#ffffff" d="m104.317,16.2c-0.96,0.4 -2.6,1 -4.7204,4.32l0,-4.52l-7.04,1.6l0,0.68c1.64,0.84 2,1.44 2,2.8l0,8.88c0,2.08 -0.04,3.72 -1.6,4.2l0,0.68l8.2804,0l0,-0.68c-1.4404,-0.4 -1.6404,-1.96 -1.6404,-4.2l0,-8.32c1.4804,-2.4 3.1204,-2.8 3.1204,-2.36c0,0.72 0.32,1.4 0.92,1.96c1.28,1.08 3.12,0.92 4.2,-0.32c1.08,-1.2 0.96,-3.12 -0.28,-4.2c-0.88,-0.72 -2.4,-0.88 -3.24,-0.52z"/>
  <path id="svg_6" fill="#ffffff" d="m116.909,30l0,-25l-7,1.48l0,0.68c1.6,0.6 2,1.2 2,2.6l0,20.24c0,2.04 -0.08,3.72 -1.6,4.16l0,0.68l8.2,0l0,-0.68c-1.4,-0.36 -1.6,-1.96 -1.6,-4.16z"/>
  <path id="svg_7" fill="#ffffff" d="m131.575,30.72c-0.36,0.96 -1.28,2.04 -2.64,2.04c-2.6,0 -2.6,-2.64 -2.6,-2.64c0,-2.04 1.32,-3.92 5.24,-4.8c0,0 0,5.32 0,5.4zm6.96,2.04c-1.96,0 -1.92,-2.8 -1.92,-2.8l0,-5.96c0,-4.72 -1.44,-8 -6.68,-8c0,0 -2.08,-0.16 -3.88,0.8c-2.2,1.16 -2.72,2.24 -3.12,2.92c-0.4,0.68 -0.36,1.64 0.12,2.4c0.72,1.04 2.12,1.28 3.16,0.6c1.04,-0.72 1.32,-2.12 0.6,-3.16c-0.36,-0.52 -0.88,-0.8 -1.48,-0.88c-0.28,-0.04 -0.12,-0.72 1.16,-1.36c2.76,-1.44 5.08,0.64 5.08,4.8l0,2.48c-7,1.76 -10.36,2.16 -10.36,6.52c0,4.08 4.6,4.08 4.6,4.08c2.84,0 5.2,-1.48 5.8,-3.24c0.44,3.24 4,3.24 4,3.24c2.52,0 4.36,-1.56 4.68,-2.84l-0.68,-0.28c-0.24,0.68 -1.08,0.68 -1.08,0.68z"/>
  <path id="svg_8" fill="#ffffff" d="m152.988,34.52c-2.28,0 -4.76,-1.64 -4.76,-6.68l0,-5.08c0,-2.84 1.44,-5.08 4.16,-5.08c3.28,0 4.76,2.08 4.76,8.48c0,6.12 -1.24,8.36 -4.16,8.36zm1.4,-18.52c-1.92,0 -4.88,1 -6.16,3.4l0,-14.4l-7,1.48l0,0.68c1.64,0.6 2.04,1.2 2.04,2.56l0,24.92c0,0.64 2.48,-0.24 3.92,-1.48c1.32,1.32 3.44,2.04 5.84,2.04c5.6,0 9.84,-2.92 9.84,-9.36c0,-6.32 -4,-9.84 -8.48,-9.84z"/>
 </g>
</svg>