<svg width="136" height="32" viewBox="0 0 136 32" fill="none" xmlns="http://www.w3.org/2000/svg">
<path d="M14.8307 16.32C15.4783 16.32 20.6269 15.552 20.6269 10.784C20.6269 5.152 16.4174 5.344 11.9164 5.344H4.04785V5.6C5.47261 5.6 5.92595 7.776 5.92595 9.76V23.488C5.92595 25.664 5.44023 27.584 4.04785 27.584V27.872H11.9164C17.5183 27.872 22.1488 27.744 22.1488 22.144C22.1488 16.672 16.9355 16.32 14.8307 16.32ZM11.9164 5.888C13.4383 5.888 16.1259 5.952 16.1259 10.72C16.1259 15.456 13.665 16.192 11.9164 16.192H10.6536V5.888H11.9164ZM11.9164 27.328H10.6536V16.736H11.9164C14.0859 16.736 17.3888 16.896 17.3888 21.984C17.3888 27.392 14.7336 27.328 11.9164 27.328Z" fill="#1C1A26"/>
<path d="M33.3397 24.576C33.0483 25.344 32.3035 26.208 31.2026 26.208C29.0978 26.208 29.0978 24.096 29.0978 24.096C29.0978 22.464 30.1664 20.96 33.3397 20.256C33.3397 20.256 33.3397 24.512 33.3397 24.576ZM38.974 26.208C37.3873 26.208 37.4197 23.968 37.4197 23.968V19.2C37.4197 15.424 36.254 12.8 32.0121 12.8C32.0121 12.8 30.3283 12.672 28.8711 13.44C27.0902 14.368 26.6692 15.232 26.3454 15.776C26.0216 16.32 26.054 17.088 26.4426 17.696C27.0254 18.528 28.1588 18.72 29.0007 18.176C29.8426 17.6 30.0692 16.48 29.4864 15.648C29.195 15.232 28.774 15.008 28.2883 14.944C28.0616 14.912 28.1911 14.368 29.2273 13.856C31.4616 12.704 33.3397 14.368 33.3397 17.696V19.68C27.673 21.088 24.953 21.408 24.953 24.896C24.953 28.16 28.6769 28.16 28.6769 28.16C30.9759 28.16 32.8864 26.976 33.3721 25.568C33.7283 28.16 36.6102 28.16 36.6102 28.16C38.6502 28.16 40.1397 26.912 40.3988 25.888L39.8483 25.664C39.654 26.208 38.974 26.208 38.974 26.208Z" fill="#1C1A26"/>
<path d="M46.6918 24V4L41.0251 5.184V5.728C42.3204 6.208 42.6442 6.688 42.6442 7.808V24C42.6442 25.632 42.5794 26.976 41.3489 27.328V27.872H48.0194V27.328C46.8537 27.04 46.6918 25.76 46.6918 24ZM55.3375 25.728C55.3375 25.728 55.2728 25.728 50.4804 19.04C54.787 13.792 58.0899 13.696 58.6727 13.632V13.088H50.8042V13.632C55.0137 13.504 50.3832 18.144 50.3832 18.144L47.3394 21.408C47.3394 21.408 48.1813 22.688 49.1527 24.096C51.3223 27.296 51.6137 27.872 53.848 27.872H58.4137V27.328C57.8632 27.296 56.4061 27.2 55.3375 25.728Z" fill="#1C1A26"/>
<path d="M62.8355 19.648C62.8355 16.576 64.1631 13.344 66.0736 13.344C67.8545 13.344 69.1821 15.616 69.1821 19.648H62.8355ZM66.2355 12.8C61.7669 12.8 58.6583 16.032 58.6583 20.544C58.6583 24.288 61.5726 28.16 65.8145 28.16C70.1536 28.16 72.064 25.632 72.5821 23.968L72.0317 23.68C71.2221 25.184 68.6317 25.824 66.8831 25.44C64.7136 24.96 63.0945 23.328 62.8355 20.192H73.1326C73.1326 15.2 70.9307 12.8 66.2355 12.8Z" fill="#1C1A26"/>
<path d="M84.447 12.96C83.6698 13.28 82.3422 13.76 80.626 16.416V12.8L74.927 14.08V14.624C76.2546 15.296 76.546 15.776 76.546 16.864V23.968C76.546 25.632 76.5136 26.944 75.2508 27.328V27.872H81.9536V27.328C80.7879 27.008 80.626 25.76 80.626 23.968V17.312C81.8241 15.392 83.1517 15.072 83.1517 15.424C83.1517 16 83.4108 16.544 83.8965 16.992C84.9327 17.856 86.4222 17.728 87.2965 16.736C88.1708 15.776 88.0736 14.24 87.0698 13.376C86.3574 12.8 85.127 12.672 84.447 12.96Z" fill="#1C1A26"/>
<path d="M94.6406 24V4L88.974 5.184V5.728C90.2692 6.208 90.593 6.688 90.593 7.808V24C90.593 25.632 90.5283 26.976 89.2978 27.328V27.872H95.9359V27.328C94.8026 27.04 94.6406 25.76 94.6406 24Z" fill="#1C1A26"/>
<path d="M106.513 24.576C106.222 25.344 105.477 26.208 104.376 26.208C102.271 26.208 102.271 24.096 102.271 24.096C102.271 22.464 103.34 20.96 106.513 20.256C106.513 20.256 106.513 24.512 106.513 24.576ZM112.147 26.208C110.561 26.208 110.593 23.968 110.593 23.968V19.2C110.593 15.424 109.427 12.8 105.185 12.8C105.185 12.8 103.502 12.672 102.045 13.44C100.264 14.368 99.8426 15.232 99.5188 15.776C99.195 16.32 99.2274 17.088 99.6159 17.696C100.199 18.528 101.332 18.72 102.174 18.176C103.016 17.6 103.243 16.48 102.66 15.648C102.368 15.232 101.947 15.008 101.462 14.944C101.235 14.912 101.365 14.368 102.401 13.856C104.635 12.704 106.513 14.368 106.513 17.696V19.68C100.846 21.088 98.1264 21.408 98.1264 24.896C98.1264 28.16 101.85 28.16 101.85 28.16C104.149 28.16 106.06 26.976 106.545 25.568C106.902 28.16 109.784 28.16 109.784 28.16C111.824 28.16 113.313 26.912 113.572 25.888L113.022 25.664C112.827 26.208 112.147 26.208 112.147 26.208Z" fill="#1C1A26"/>
<path d="M123.848 27.616C122.002 27.616 119.995 26.304 119.995 22.272V18.208C119.995 15.936 121.16 14.144 123.362 14.144C126.018 14.144 127.216 15.808 127.216 20.928C127.216 25.824 126.212 27.616 123.848 27.616ZM124.981 12.8C123.427 12.8 121.031 13.6 119.995 15.52V4L114.328 5.184V5.728C115.656 6.208 115.979 6.688 115.979 7.776V27.712C115.979 28.224 117.987 27.52 119.153 26.528C120.221 27.584 121.938 28.16 123.88 28.16C128.414 28.16 131.846 25.824 131.846 20.672C131.846 15.616 128.608 12.8 124.981 12.8Z" fill="#1C1A26"/>
</svg>
