<svg width="41" height="44" viewBox="0 0 41 44" fill="none" xmlns="http://www.w3.org/2000/svg">
<path d="M20.5 0C9.17819 0 0 9.84976 0 22C0 34.1502 9.17819 44 20.5 44C21.1003 44 21.691 43.9578 22.2783 43.9037C21.9594 43.0869 21.7813 42.1909 21.7813 41.25C21.7813 39.3173 22.5295 37.5773 23.7258 36.3283C23.3056 35.3086 23.0625 34.1867 23.0625 33C23.0625 28.4437 26.5043 24.75 30.75 24.75C31.8558 24.75 32.9011 25.0108 33.8513 25.4619C35.0153 24.178 36.6365 23.375 38.4375 23.375C39.3143 23.375 40.1492 23.5661 40.9102 23.9083C40.9607 23.278 41 22.6442 41 22C40.9999 9.84976 31.8217 0 20.5 0ZM6.40626 22C5.69872 22 5.12504 21.3843 5.12504 20.625C5.12504 19.8656 5.69872 19.2501 6.40626 19.2501C7.1138 19.2501 7.68748 19.8656 7.68748 20.625C7.68748 21.3843 7.1138 22 6.40626 22ZM12.8124 32.9999C11.3971 32.9999 10.2499 31.7686 10.2499 30.2499C10.2499 28.731 11.3971 27.4999 12.8124 27.4999C14.2277 27.4999 15.375 28.731 15.375 30.2499C15.375 31.7686 14.2277 32.9999 12.8124 32.9999ZM15.375 13.7499C13.9597 13.7499 12.8124 12.5186 12.8124 10.9999C12.8124 9.48106 13.9597 8.2499 15.375 8.2499C16.7903 8.2499 17.9375 9.48106 17.9375 10.9999C17.9375 12.5186 16.7903 13.7499 15.375 13.7499ZM19.2187 24.7499C18.5112 24.7499 17.9375 24.1343 17.9375 23.375C17.9375 22.6155 18.5112 22 19.2187 22C19.9262 22 20.4999 22.6155 20.4999 23.375C20.5 24.1343 19.9263 24.7499 19.2187 24.7499ZM26.9062 5.49996C27.6137 5.49996 28.1874 6.11546 28.1874 6.87493C28.1874 7.63424 27.6137 8.2499 26.9062 8.2499C26.1986 8.2499 25.625 7.63424 25.625 6.87493C25.625 6.11546 26.1986 5.49996 26.9062 5.49996ZM28.1875 19.25C26.7722 19.25 25.625 18.0187 25.625 16.5C25.625 14.9811 26.7722 13.7499 28.1875 13.7499C29.6028 13.7499 30.75 14.9811 30.75 16.5C30.7499 18.0187 29.6027 19.25 28.1875 19.25Z" fill="#E39A3B"/>
</svg>
