<svg width="41" height="42" viewBox="0 0 41 42" fill="none" xmlns="http://www.w3.org/2000/svg">
<path d="M0 20.5086C0 9.18203 9.17819 0 20.5 0C31.8217 0 40.9999 9.18203 41 20.5086C41 21.1091 40.9607 21.6999 40.9102 22.2875C40.1492 21.9685 39.3143 21.7904 38.4375 21.7904C36.6365 21.7904 35.0153 22.5389 33.8513 23.7358C32.9011 23.3153 31.8558 23.0722 30.75 23.0722C26.5043 23.0722 23.0625 26.5154 23.0625 30.7629C23.0625 31.8691 23.3056 32.915 23.7258 33.8655C22.5295 35.0299 21.7813 36.6519 21.7813 38.4536C21.7813 39.3307 21.9594 40.166 22.2783 40.9273C21.691 40.9779 21.1003 41.0172 20.5 41.0172C9.17819 41.0172 0 31.8351 0 20.5086Z" fill="#412D22"/>
</svg>
