<?xml version="1.0" encoding="utf-8"?>
<!-- Generator: Adobe Illustrator 23.1.0, SVG Export Plug-In . SVG Version: 6.00 Build 0)  -->
<svg version="1.1" id="Слой_1" xmlns="http://www.w3.org/2000/svg" xmlns:xlink="http://www.w3.org/1999/xlink" x="0px" y="0px"
	 viewBox="0 0 158 31" style="enable-background:new 0 0 158 31;" xml:space="preserve">
<style type="text/css">
	.st0{fill:#FCFCFC;}
</style>
<path class="st0" d="M13.3,15.4c0.8,0,7.2-1,7.2-6.9c0-7-5.2-6.8-10.8-6.8H0V2c1.8,0,2.3,2.7,2.3,5.2v17.2c0,2.7-0.6,5.1-2.3,5.1
	v0.4h9.7c6.9,0,12.6-0.2,12.6-7.2C22.4,15.8,15.9,15.4,13.3,15.4z M9.7,2.4c1.9,0,5.2,0.1,5.2,6c0,5.9-3,6.8-5.2,6.8H8.2V2.4H9.7z
	 M9.7,29.2H8.2V15.9h1.6c2.7,0,6.8,0.2,6.8,6.6C16.5,29.2,13.2,29.2,9.7,29.2z"/>
<path class="st0" d="M36.2,25.7c-0.4,1-1.3,2-2.6,2c-2.6,0-2.6-2.6-2.6-2.6c0-2,1.3-3.9,5.2-4.8C36.2,20.3,36.2,25.6,36.2,25.7z
	 M43.1,27.8c-2,0-1.9-2.8-1.9-2.8v-6c0-4.7-1.4-8-6.7-8c0,0-2.1-0.2-3.9,0.8c-2.2,1.2-2.7,2.2-3.1,2.9c-0.4,0.7-0.4,1.6,0.1,2.4
	c0.7,1,2.1,1.3,3.2,0.6c1-0.7,1.3-2.1,0.6-3.2c-0.4-0.5-0.9-0.8-1.5-0.9c-0.3,0-0.1-0.7,1.2-1.4c2.8-1.4,5.1,0.6,5.1,4.8v2.5
	c-7,1.8-10.4,2.2-10.4,6.5c0,4.1,4.6,4.1,4.6,4.1c2.8,0,5.2-1.5,5.8-3.2c0.4,3.2,4,3.2,4,3.2c2.5,0,4.4-1.6,4.7-2.8l-0.7-0.3
	C44,27.8,43.1,27.8,43.1,27.8z"/>
<path class="st0" d="M52.7,25V0l-7,1.5v0.7c1.6,0.6,2,1.2,2,2.6V25c0,2-0.1,3.7-1.6,4.2v0.7h8.2v-0.7C52.9,28.8,52.7,27.2,52.7,25z
	 M63.4,27.2c0,0-0.1,0-6-8.4c5.3-6.6,9.4-6.7,10.1-6.8v-0.7h-9.7V12c5.2-0.2-0.5,5.6-0.5,5.6l-3.8,4.1c0,0,1,1.6,2.2,3.4
	c2.7,4,3,4.7,5.8,4.7h5.6v-0.7C66.5,29.1,64.7,29,63.4,27.2z"/>
<path class="st0" d="M72.6,19.6c0-3.8,1.6-7.9,4-7.9c2.2,0,3.8,2.8,3.8,7.9H72.6z M76.8,11c-5.5,0-9.4,4-9.4,9.7
	c0,4.7,3.6,9.5,8.8,9.5c5.4,0,7.7-3.2,8.4-5.2L84,24.6c-1,1.9-4.2,2.7-6.4,2.2c-2.7-0.6-4.7-2.6-5-6.6h12.7C85.3,14,82.6,11,76.8,11
	z"/>
<path class="st0" d="M99.3,11.2c-1,0.4-2.6,1-4.7,4.3V11l-7,1.6v0.7c1.6,0.8,2,1.4,2,2.8V25c0,2.1,0,3.7-1.6,4.2v0.7h8.3v-0.7
	c-1.4-0.4-1.6-2-1.6-4.2v-8.3c1.5-2.4,3.1-2.8,3.1-2.4c0,0.7,0.3,1.4,0.9,2c1.3,1.1,3.1,0.9,4.2-0.3c1.1-1.2,1-3.1-0.3-4.2
	C101.7,11,100.2,10.8,99.3,11.2z"/>
<path class="st0" d="M111.9,25V0l-7,1.5v0.7c1.6,0.6,2,1.2,2,2.6V25c0,2-0.1,3.7-1.6,4.2v0.7h8.2v-0.7
	C112.1,28.8,111.9,27.2,111.9,25z"/>
<path class="st0" d="M126.6,25.7c-0.4,1-1.3,2-2.6,2c-2.6,0-2.6-2.6-2.6-2.6c0-2,1.3-3.9,5.2-4.8C126.6,20.3,126.6,25.6,126.6,25.7z
	 M133.5,27.8c-2,0-1.9-2.8-1.9-2.8v-6c0-4.7-1.4-8-6.7-8c0,0-2.1-0.2-3.9,0.8c-2.2,1.2-2.7,2.2-3.1,2.9c-0.4,0.7-0.4,1.6,0.1,2.4
	c0.7,1,2.1,1.3,3.2,0.6c1-0.7,1.3-2.1,0.6-3.2c-0.4-0.5-0.9-0.8-1.5-0.9c-0.3,0-0.1-0.7,1.2-1.4c2.8-1.4,5.1,0.6,5.1,4.8v2.5
	c-7,1.8-10.4,2.2-10.4,6.5c0,4.1,4.6,4.1,4.6,4.1c2.8,0,5.2-1.5,5.8-3.2c0.4,3.2,4,3.2,4,3.2c2.5,0,4.4-1.6,4.7-2.8l-0.7-0.3
	C134.4,27.8,133.5,27.8,133.5,27.8z"/>
<path class="st0" d="M148,29.5c-2.3,0-4.8-1.6-4.8-6.7v-5.1c0-2.8,1.4-5.1,4.2-5.1c3.3,0,4.8,2.1,4.8,8.5
	C152.1,27.3,150.9,29.5,148,29.5z M149.4,11c-1.9,0-4.9,1-6.2,3.4V0l-7,1.5v0.7c1.6,0.6,2,1.2,2,2.6v24.9c0,0.6,2.5-0.2,3.9-1.5
	c1.3,1.3,3.4,2,5.8,2c5.6,0,9.8-2.9,9.8-9.4C157.9,14.5,153.9,11,149.4,11z"/>
</svg>
