<svg width="86" height="42" viewBox="0 0 86 42" fill="none" xmlns="http://www.w3.org/2000/svg">
<path d="M27.865 35.402C28.693 35.402 29.4213 35.1107 30.05 34.528C30.694 33.9453 31.016 33.2783 31.016 32.527C31.016 31.7603 30.7783 31.055 30.303 30.411C29.7817 30.6717 29.268 30.802 28.762 30.802C27.5813 30.802 26.991 30.434 26.991 29.698C26.991 29.4833 27.1367 29.2917 27.428 29.123C27.7193 28.939 28.1333 28.847 28.67 28.847C29.222 28.847 29.82 29.008 30.464 29.33C31.0773 28.6707 31.384 27.927 31.384 27.099C31.384 26.0717 30.9317 25.259 30.027 24.661C29.1377 24.0477 28.1793 23.741 27.152 23.741C26.9373 23.741 26.7763 23.7487 26.669 23.764C26.6537 24.2087 26.6153 24.9217 26.554 25.903C26.462 27.375 26.416 29.6213 26.416 32.642C26.416 33.8073 26.3317 34.39 26.163 34.39C25.5037 34.39 25.082 34.298 24.898 34.114C24.714 33.93 24.622 33.401 24.622 32.527C24.622 32.3123 24.6603 31.4307 24.737 29.882C24.829 28.3333 24.875 27.0837 24.875 26.133C24.875 25.1823 24.9057 24.4847 24.967 24.04C24.1543 24.316 23.7173 24.7607 23.656 25.374C23.5947 25.88 23.4797 26.2327 23.311 26.432C23.1577 26.6313 22.943 26.731 22.667 26.731C22.4063 26.731 22.23 26.662 22.138 26.524C22.046 26.3707 22 26.2173 22 26.064C22 24.73 23.035 23.81 25.105 23.304C25.3657 22.2613 25.7797 21.74 26.347 21.74C26.577 21.74 26.692 22.1693 26.692 23.028C27.0907 22.982 27.5813 22.959 28.164 22.959C28.762 22.959 29.4443 23.074 30.211 23.304C30.9777 23.5187 31.6447 23.9097 32.212 24.477C32.7793 25.029 33.063 25.65 33.063 26.34C33.063 27.628 32.442 28.7857 31.2 29.813C32.0587 30.4877 32.488 31.2927 32.488 32.228C32.488 33.1633 32.1967 33.9377 31.614 34.551C30.5253 35.6703 29.0687 36.23 27.244 36.23C26.002 36.23 25.1127 36.1457 24.576 35.977C24.4687 35.9463 24.3537 35.8697 24.231 35.747C24.1237 35.609 24.07 35.4403 24.07 35.241C24.07 34.919 24.3843 34.758 25.013 34.758C25.2123 34.758 25.6493 34.8653 26.324 35.08C26.9987 35.2947 27.5123 35.402 27.865 35.402ZM29.82 29.905C29.36 29.5217 28.923 29.33 28.509 29.33C28.1103 29.33 27.911 29.4143 27.911 29.583C27.911 29.9357 28.2867 30.112 29.038 30.112C29.314 30.112 29.5747 30.043 29.82 29.905ZM40.0978 36.115C39.4998 36.115 39.0474 35.9923 38.7408 35.747C38.6334 35.6397 38.5798 35.3713 38.5798 34.942C38.5798 34.4973 38.5951 33.907 38.6258 33.171C38.2271 34.1677 37.8284 34.9113 37.4298 35.402C37.0464 35.8773 36.5481 36.115 35.9348 36.115C35.3214 36.115 34.7848 35.8313 34.3248 35.264C33.8648 34.6813 33.6348 33.7767 33.6348 32.55C33.6348 31.308 33.9798 30.2117 34.6698 29.261C35.3751 28.3103 36.2951 27.835 37.4298 27.835C37.9204 27.835 38.4724 28.157 39.0858 28.801C39.2084 28.6323 39.4231 28.433 39.7298 28.203C40.0518 27.9577 40.3201 27.835 40.5348 27.835C40.7648 27.835 40.8798 28.1263 40.8798 28.709C40.8798 28.8623 40.8338 29.1613 40.7418 29.606C40.6651 30.0507 40.5731 30.3727 40.4658 30.572C40.3278 30.9247 40.2588 32.1743 40.2588 34.321C40.2588 34.735 40.3048 34.942 40.3968 34.942C40.6574 34.9267 41.0178 34.6047 41.4778 33.976C41.9378 33.332 42.3901 32.5117 42.8348 31.515C43.2948 30.5183 43.5708 30.02 43.6628 30.02C43.7701 30.02 43.8238 30.0813 43.8238 30.204C43.8238 30.6333 43.6014 31.3157 43.1568 32.251C41.9454 34.827 40.9258 36.115 40.0978 36.115ZM37.2918 28.755C36.8624 28.755 36.4024 29.077 35.9118 29.721C35.4364 30.3497 35.1988 31.0933 35.1988 31.952C35.1988 32.8107 35.3214 33.516 35.5668 34.068C35.8274 34.62 36.1648 34.896 36.5788 34.896C37.0848 34.896 37.8284 33.631 38.8098 31.101C38.8251 30.9783 38.8404 30.7713 38.8558 30.48C38.8864 30.1733 38.9094 29.9433 38.9248 29.79C38.7868 29.5447 38.5414 29.3147 38.1888 29.1C37.8514 28.87 37.5524 28.755 37.2918 28.755ZM49.8455 36.805L50.4665 36.736C50.5891 36.736 50.6505 36.7973 50.6505 36.92C50.6505 37.1347 50.5048 37.2957 50.2135 37.403C49.9221 37.5103 49.5925 37.564 49.2245 37.564C48.5345 37.564 47.9518 37.288 47.4765 36.736C47.0165 36.184 46.3725 35.1643 45.5445 33.677C45.3451 33.355 45.2455 33.1097 45.2455 32.941C45.2455 32.711 45.5675 32.4427 46.2115 32.136C47.2541 31.5993 47.7755 30.9247 47.7755 30.112C47.7755 29.882 47.6911 29.6903 47.5225 29.537C47.3691 29.3683 47.1621 29.284 46.9015 29.284C46.5335 29.284 46.0965 29.721 45.5905 30.595C45.0845 31.4537 44.7395 32.2663 44.5555 33.033C44.3868 33.7843 44.3025 34.597 44.3025 35.471C44.3025 35.9003 44.1798 36.115 43.9345 36.115C43.5818 36.115 43.2445 36.069 42.9225 35.977C42.6005 35.8697 42.4395 35.7393 42.4395 35.586C42.4395 35.4173 42.5008 34.689 42.6235 33.401C42.7461 32.0977 42.8151 31.1623 42.8305 30.595C42.8918 27.467 43.0758 25.075 43.3825 23.419C43.4285 23.281 43.6355 23.0433 44.0035 22.706C44.3868 22.3687 44.6935 22.2 44.9235 22.2C45.1535 22.2 45.2608 22.4913 45.2455 23.074C45.2455 23.6413 45.1228 24.868 44.8775 26.754C44.6321 28.64 44.4788 30.365 44.4175 31.929C44.6935 30.9477 45.1305 30.02 45.7285 29.146C46.3418 28.272 46.9551 27.835 47.5685 27.835C48.6111 27.835 49.1325 28.341 49.1325 29.353C49.1325 30.0277 48.9331 30.641 48.5345 31.193C48.1358 31.7297 47.5991 32.1667 46.9245 32.504C46.7865 32.5653 46.7175 32.6343 46.7175 32.711C46.7175 32.7877 46.7405 32.8643 46.7865 32.941C47.7525 34.643 48.5728 35.839 49.2475 36.529C49.4315 36.713 49.6308 36.805 49.8455 36.805ZM53.1292 36.115C52.2706 36.115 51.5882 35.793 51.0822 35.149C50.5762 34.4897 50.3232 33.746 50.3232 32.918C50.3232 31.2467 50.6759 29.9817 51.3812 29.123C52.0866 28.2643 52.9989 27.835 54.1182 27.835C54.6396 27.835 55.0689 27.9807 55.4062 28.272C55.7436 28.548 55.9122 28.9313 55.9122 29.422C55.9122 30.342 55.5212 31.1163 54.7392 31.745C53.9726 32.3583 53.0296 32.6803 51.9102 32.711C51.9716 33.309 52.1709 33.8303 52.5082 34.275C52.8609 34.7043 53.2672 34.919 53.7272 34.919C54.1872 34.919 54.6012 34.8117 54.9692 34.597C55.3372 34.3823 55.6746 34.0757 55.9812 33.677C56.6252 32.8337 57.1772 31.8753 57.6372 30.802C57.7599 30.526 57.8519 30.3267 57.9132 30.204C57.9899 30.0813 58.0666 30.02 58.1432 30.02C58.2352 30.02 58.2812 30.0813 58.2812 30.204C58.2812 30.9707 57.8136 32.1207 56.8782 33.654C55.8662 35.2947 54.6166 36.115 53.1292 36.115ZM51.9102 32.159C52.8149 32.0057 53.4742 31.7143 53.8882 31.285C54.3176 30.8557 54.5322 30.296 54.5322 29.606C54.5322 28.916 54.3099 28.571 53.8652 28.571C53.3286 28.571 52.8762 28.9467 52.5082 29.698C52.1402 30.434 51.9409 31.2543 51.9102 32.159ZM59.0625 29.997L60.3275 29.859C60.4502 29.859 60.5575 29.928 60.6495 30.066C60.7415 30.204 60.7875 30.3497 60.7875 30.503C60.7875 30.6563 60.7339 31.1777 60.6265 32.067C60.5345 32.9563 60.4885 33.6617 60.4885 34.183C60.4885 34.689 60.5345 34.942 60.6265 34.942C60.8872 34.9267 61.2475 34.6047 61.7075 33.976C62.1675 33.332 62.6199 32.5117 63.0645 31.515C63.5245 30.5183 63.8005 30.02 63.8925 30.02C63.9999 30.02 64.0535 30.0813 64.0535 30.204C64.0535 30.6333 63.8312 31.3157 63.3865 32.251C62.1752 34.827 61.1555 36.115 60.3275 36.115C59.7295 36.115 59.2772 35.9923 58.9705 35.747C58.8632 35.6397 58.8095 34.9727 58.8095 33.746C58.8095 32.5193 58.9399 31.469 59.2005 30.595C58.3112 30.595 57.6902 30.3113 57.3375 29.744C57.1535 29.4527 57.0615 29.123 57.0615 28.755C57.0615 28.387 57.1382 28.065 57.2915 27.789C57.4449 27.513 57.6595 27.375 57.9355 27.375C58.2269 27.375 58.4875 27.5283 58.7175 27.835C58.9629 28.1263 59.0855 28.456 59.0855 28.824C59.0855 29.192 58.9782 29.56 58.7635 29.928C58.8249 29.974 58.9245 29.997 59.0625 29.997ZM64.6028 36.115C64.2655 36.115 63.9512 36.0767 63.6598 36C63.3838 35.908 63.2152 35.8237 63.1538 35.747C63.0005 35.563 62.9238 34.6123 62.9238 32.895C62.9238 31.1623 63.1155 28.8163 63.4988 25.857C63.8208 23.419 64.5722 22.2 65.7528 22.2C66.0288 22.2 66.2282 22.3533 66.3508 22.66C66.4735 22.9513 66.5348 23.235 66.5348 23.511C66.5348 25.5043 65.9292 27.7353 64.7178 30.204C64.6718 31.4767 64.6488 32.5883 64.6488 33.539C64.6488 34.4743 64.7332 34.942 64.9018 34.942C65.1625 34.9267 65.5228 34.6047 65.9828 33.976C66.4428 33.332 66.8952 32.5117 67.3398 31.515C67.7998 30.5183 68.0758 30.02 68.1678 30.02C68.2752 30.02 68.3288 30.0813 68.3288 30.204C68.3288 30.6333 68.1065 31.3157 67.6618 32.251C66.4505 34.827 65.4308 36.115 64.6028 36.115ZM65.9598 23.718C65.9598 23.2273 65.8985 22.982 65.7758 22.982C65.3158 22.982 64.9785 24.891 64.7638 28.709C65.5612 26.6083 65.9598 24.9447 65.9598 23.718ZM73.4073 36.115C72.8093 36.115 72.357 35.9923 72.0503 35.747C71.943 35.6397 71.8893 35.3713 71.8893 34.942C71.8893 34.4973 71.9047 33.907 71.9353 33.171C71.5367 34.1677 71.138 34.9113 70.7393 35.402C70.356 35.8773 69.8577 36.115 69.2443 36.115C68.631 36.115 68.0943 35.8313 67.6343 35.264C67.1743 34.6813 66.9443 33.7767 66.9443 32.55C66.9443 31.308 67.2893 30.2117 67.9793 29.261C68.6847 28.3103 69.6047 27.835 70.7393 27.835C71.23 27.835 71.782 28.157 72.3953 28.801C72.518 28.6323 72.7327 28.433 73.0393 28.203C73.3613 27.9577 73.6297 27.835 73.8443 27.835C74.0743 27.835 74.1893 28.1263 74.1893 28.709C74.1893 28.8623 74.1433 29.1613 74.0513 29.606C73.9747 30.0507 73.8827 30.3727 73.7753 30.572C73.6373 30.9247 73.5683 32.1743 73.5683 34.321C73.5683 34.735 73.6143 34.942 73.7063 34.942C73.967 34.9267 74.3273 34.6047 74.7873 33.976C75.2473 33.332 75.6997 32.5117 76.1443 31.515C76.6043 30.5183 76.8803 30.02 76.9723 30.02C77.0797 30.02 77.1333 30.0813 77.1333 30.204C77.1333 30.6333 76.911 31.3157 76.4663 32.251C75.255 34.827 74.2353 36.115 73.4073 36.115ZM70.6013 28.755C70.172 28.755 69.712 29.077 69.2213 29.721C68.746 30.3497 68.5083 31.0933 68.5083 31.952C68.5083 32.8107 68.631 33.516 68.8763 34.068C69.137 34.62 69.4743 34.896 69.8883 34.896C70.3943 34.896 71.138 33.631 72.1193 31.101C72.1347 30.9783 72.15 30.7713 72.1653 30.48C72.196 30.1733 72.219 29.9433 72.2343 29.79C72.0963 29.5447 71.851 29.3147 71.4983 29.1C71.161 28.87 70.862 28.755 70.6013 28.755ZM80.05 28.065C80.7554 28.065 81.338 28.3257 81.798 28.847C82.258 29.353 82.4957 30.066 82.511 30.986C83.1397 30.802 83.6917 30.5797 84.167 30.319C84.6577 30.0583 84.9184 29.928 84.949 29.928C85.041 29.928 85.087 30.0047 85.087 30.158C85.087 30.3113 84.8647 30.549 84.42 30.871C83.9907 31.193 83.339 31.515 82.465 31.837C82.281 33.2017 81.729 34.2597 80.809 35.011C79.889 35.747 78.969 36.115 78.049 36.115C77.129 36.115 76.5157 35.7777 76.209 35.103C75.9024 34.413 75.749 33.332 75.749 31.86C75.749 30.388 75.8564 28.9927 76.071 27.674C76.2857 26.3553 76.5617 25.3203 76.899 24.569C77.2364 23.8023 77.5814 23.2197 77.934 22.821C78.302 22.407 78.647 22.2 78.969 22.2C79.1224 22.2 79.2604 22.384 79.383 22.752C79.521 23.12 79.59 23.5723 79.59 24.109C79.59 25.2897 79.3754 26.6697 78.946 28.249C79.2374 28.1263 79.6054 28.065 80.05 28.065ZM81.085 32.205C80.9624 32.2203 80.7017 32.228 80.303 32.228C79.9197 32.228 79.4904 32.0977 79.015 31.837C78.555 31.561 78.2407 31.1853 78.072 30.71C77.9187 31.0933 77.7424 31.4613 77.543 31.814C77.5737 32.9793 77.6657 33.815 77.819 34.321C77.9724 34.827 78.2177 35.08 78.555 35.08C79.0917 35.08 79.613 34.8577 80.119 34.413C80.6404 33.953 80.9624 33.217 81.085 32.205ZM79.038 24.523C79.038 23.879 78.9537 23.557 78.785 23.557C78.647 23.557 78.4784 23.8943 78.279 24.569C78.095 25.2283 77.9187 26.133 77.75 27.283C77.5967 28.4177 77.52 29.5447 77.52 30.664C78.532 27.7967 79.038 25.7497 79.038 24.523ZM79.682 28.893C79.4674 28.893 79.291 28.962 79.153 29.1C79.0304 29.2227 78.969 29.3913 78.969 29.606C78.969 30.0813 79.176 30.48 79.59 30.802C80.0194 31.1087 80.533 31.262 81.131 31.262C81.1157 30.6333 80.993 30.0813 80.763 29.606C80.533 29.1307 80.1727 28.893 79.682 28.893Z" fill="#412D22"/>
<path d="M0 14.9614C0 6.69847 6.39195 0 14.2768 0C22.1616 0 28.5535 6.69847 28.5536 14.9614C28.5536 15.3995 28.5262 15.8305 28.491 16.2592C27.961 16.0264 27.3796 15.8965 26.769 15.8965C25.5147 15.8965 24.3856 16.4426 23.575 17.3157C22.9133 17.009 22.1853 16.8316 21.4152 16.8316C18.4584 16.8316 16.0614 19.3435 16.0614 22.4421C16.0614 23.2491 16.2307 24.0121 16.5233 24.7055C15.6902 25.555 15.1691 26.7382 15.1691 28.0526C15.1691 28.6925 15.2931 29.3018 15.5153 29.8573C15.1062 29.8941 14.6948 29.9228 14.2768 29.9228C6.39195 29.9228 0 23.2243 0 14.9614Z" fill="#412D22"/>
<path d="M14.2768 0C6.39195 0 0 6.69847 0 14.9614C0 23.2243 6.39195 29.9228 14.2768 29.9228C14.6948 29.9228 15.1062 29.8941 15.5153 29.8573C15.2931 29.3018 15.1691 28.6925 15.1691 28.0526C15.1691 26.7382 15.6902 25.555 16.5233 24.7055C16.2307 24.0121 16.0614 23.2491 16.0614 22.4421C16.0614 19.3435 18.4584 16.8316 21.4152 16.8316C22.1853 16.8316 22.9133 17.009 23.575 17.3157C24.3856 16.4426 25.5147 15.8965 26.769 15.8965C27.3796 15.8965 27.961 16.0264 28.491 16.2592C28.5262 15.8305 28.5536 15.3995 28.5536 14.9614C28.5535 6.69847 22.1616 0 14.2768 0ZM4.4615 14.9614C3.96875 14.9614 3.56922 14.5427 3.56922 14.0263C3.56922 13.5098 3.96875 13.0913 4.4615 13.0913C4.95425 13.0913 5.35378 13.5098 5.35378 14.0263C5.35378 14.5427 4.95425 14.9614 4.4615 14.9614ZM8.92295 22.442C7.9373 22.442 7.13834 21.6047 7.13834 20.5719C7.13834 19.5389 7.9373 18.7017 8.92295 18.7017C9.90861 18.7017 10.7076 19.5389 10.7076 20.5719C10.7076 21.6047 9.90861 22.442 8.92295 22.442ZM10.7076 9.35084C9.72191 9.35084 8.92295 8.51346 8.92295 7.48065C8.92295 6.44773 9.72191 5.61046 10.7076 5.61046C11.6932 5.61046 12.4922 6.44773 12.4922 7.48065C12.4922 8.51346 11.6932 9.35084 10.7076 9.35084ZM13.3845 16.8315C12.8917 16.8315 12.4922 16.4128 12.4922 15.8965C12.4922 15.38 12.8917 14.9614 13.3845 14.9614C13.8772 14.9614 14.2767 15.38 14.2767 15.8965C14.2768 16.4128 13.8773 16.8315 13.3845 16.8315ZM18.7382 3.74032C19.231 3.74032 19.6305 4.1589 19.6305 4.67539C19.6305 5.19177 19.231 5.61046 18.7382 5.61046C18.2455 5.61046 17.846 5.19177 17.846 4.67539C17.846 4.1589 18.2455 3.74032 18.7382 3.74032ZM19.6306 13.0912C18.6449 13.0912 17.846 12.2538 17.846 11.221C17.846 10.1881 18.6449 9.35084 19.6306 9.35084C20.6162 9.35084 21.4152 10.1881 21.4152 11.221C21.4151 12.2538 20.6162 13.0912 19.6306 13.0912Z" fill="#E39A3B"/>
</svg>
