<svg width="32" height="32" viewBox="0 0 32 32" fill="none" xmlns="http://www.w3.org/2000/svg">
<circle cx="15.6152" cy="15.5" r="15.5" fill="#412D22"/>
<mask id="mask0" mask-type="alpha" maskUnits="userSpaceOnUse" x="0" y="0" width="32" height="32">
<path d="M15.6147 0C6.99106 0 0 6.99217 0 15.617C0 24.2416 6.99106 31.2343 15.6147 31.2343C24.2384 31.2343 31.23 24.2416 31.23 15.617C31.23 6.99217 24.2384 0 15.6147 0ZM15.6151 5.48541L24.8554 11.2482H6.37467L15.6151 5.48541ZM24.9706 20.4506C24.9706 21.375 24.2206 22.124 23.2965 22.124H7.93359C7.00938 22.124 6.26047 21.3749 6.26047 20.4506V11.6149C6.26047 11.5171 6.27046 11.4221 6.2867 11.3287L15.1154 16.8346C15.1262 16.8414 15.1377 16.8459 15.1489 16.8522C15.1605 16.8586 15.1724 16.8649 15.1843 16.8708C15.2466 16.903 15.3109 16.9289 15.3766 16.9459C15.3833 16.9478 15.3901 16.9486 15.3969 16.9502C15.4689 16.9671 15.5419 16.9778 15.6147 16.9778C15.6153 16.9778 15.6163 16.9778 15.6163 16.9778C15.6892 16.9778 15.7621 16.9674 15.8342 16.9502C15.841 16.9485 15.8477 16.9478 15.8545 16.9459C15.9201 16.9289 15.9841 16.903 16.0468 16.8708C16.0586 16.8649 16.0705 16.8586 16.0822 16.8522C16.0932 16.8459 16.1048 16.8414 16.1157 16.8346L24.9443 11.3287C24.9606 11.4221 24.9706 11.5169 24.9706 11.6149V20.4506Z" fill="#412D22"/>
</mask>
<g mask="url(#mask0)">
<circle cx="15.6152" cy="14.6172" r="16.5" fill="#E39A3B"/>
</g>
</svg>
