<svg width="31" height="31" viewBox="0 0 31 31" fill="none" xmlns="http://www.w3.org/2000/svg">
<path d="M22.8249 9H7.47942C7.31149 9 7.15262 9.03276 7 9.07996L15.1521 15.4091L23.3043 9.07996C23.1517 9.03276 22.9928 9 22.8249 9Z" fill="#412D22"/>
<path d="M24.3596 9.76123L15.6361 16.5272C15.5392 16.6002 15.4241 16.6364 15.3091 16.6364C15.194 16.6364 15.079 16.6002 14.982 16.5272L6.25862 9.76123C6.09687 10.0149 6 10.3138 6 10.6364V19.3637C6 20.266 6.73404 21 7.63636 21H22.9818C23.8841 21 24.6182 20.266 24.6182 19.3637V10.6364C24.6182 10.3138 24.5213 10.0149 24.3596 9.76123Z" fill="#412D22"/>
</svg>
