<svg width="19" height="12" viewBox="0 0 19 12" fill="none" xmlns="http://www.w3.org/2000/svg">
<path d="M16.8249 0H1.47942C1.31149 0 1.15262 0.0327635 1 0.0799635L9.15215 6.40909L17.3043 0.0799635C17.1517 0.0327635 16.9928 0 16.8249 0Z" fill="#412D22"/>
<path d="M18.3596 0.76123L9.63614 7.52719C9.5392 7.60018 9.42414 7.63639 9.30909 7.63639C9.19404 7.63639 9.07898 7.60018 8.98204 7.52719L0.258618 0.76123C0.0968727 1.0149 0 1.31385 0 1.63639V10.3637C0 11.266 0.734036 12 1.63636 12H16.9818C17.8841 12 18.6182 11.266 18.6182 10.3637V1.63639C18.6182 1.31385 18.5213 1.0149 18.3596 0.76123Z" fill="#412D22"/>
</svg>
