<svg width="34" height="32" viewBox="0 0 34 32" fill="none" xmlns="http://www.w3.org/2000/svg">
<circle cx="16.6152" cy="15.5" r="15.5" fill="#412D22"/>
<mask id="mask0" mask-type="alpha" maskUnits="userSpaceOnUse" x="1" y="0" width="32" height="32">
<path d="M16.6147 0C7.99106 0 1 6.99217 1 15.617C1 24.2416 7.99106 31.2343 16.6147 31.2343C25.2384 31.2343 32.23 24.2416 32.23 15.617C32.23 6.99217 25.2384 0 16.6147 0ZM16.6151 5.48541L25.8554 11.2482H7.37467L16.6151 5.48541ZM25.9706 20.4506C25.9706 21.375 25.2206 22.124 24.2965 22.124H8.93359C8.00938 22.124 7.26047 21.3749 7.26047 20.4506V11.6149C7.26047 11.5171 7.27046 11.4221 7.2867 11.3287L16.1154 16.8346C16.1262 16.8414 16.1377 16.8459 16.1489 16.8522C16.1605 16.8586 16.1724 16.8649 16.1843 16.8708C16.2466 16.903 16.3109 16.9289 16.3766 16.9459C16.3833 16.9478 16.3901 16.9486 16.3969 16.9502C16.4689 16.9671 16.5419 16.9778 16.6147 16.9778C16.6153 16.9778 16.6163 16.9778 16.6163 16.9778C16.6892 16.9778 16.7621 16.9674 16.8342 16.9502C16.841 16.9485 16.8477 16.9478 16.8545 16.9459C16.9201 16.9289 16.9841 16.903 17.0468 16.8708C17.0586 16.8649 17.0705 16.8586 17.0822 16.8522C17.0932 16.8459 17.1048 16.8414 17.1157 16.8346L25.9443 11.3287C25.9606 11.4221 25.9706 11.5169 25.9706 11.6149V20.4506Z" fill="#412D22"/>
</mask>
<g mask="url(#mask0)">
<circle cx="16.615" cy="14.6172" r="16.5" fill="#E39A3B"/>
</g>
</svg>
