<?xml version="1.0" ?><!DOCTYPE svg  PUBLIC '-//W3C//DTD SVG 1.1//EN'  'http://www.w3.org/Graphics/SVG/1.1/DTD/svg11.dtd'><svg height="100%" style="fill-rule:evenodd;clip-rule:evenodd;stroke-linejoin:round;stroke-miterlimit:2;" version="1.1" viewBox="0 0 512 512" width="100%" xml:space="preserve" xmlns="http://www.w3.org/2000/svg" xmlns:serif="http://www.serif.com/" xmlns:xlink="http://www.w3.org/1999/xlink"><g transform="matrix(2.52997,0,0,2.52997,-60.2468,-60.2468)"><g transform="matrix(1,0,0,1,70,26.1848)"><path d="M100,65.774L110,75.774L103.625,110.254L69.505,110.254L68.964,197.63L28.415,197.63L18.625,187.63C22.878,84.363 47.394,17.175 100,0L110,10L110,43.11L86.062,43.11C76.777,43.902 69.505,50.9 69.505,59.405L69.505,65.774L59.505,65.774L10,100.254L18.415,100.254L18.415,110.254L10,110.254L0,100.254" style="fill:white;stroke:black;stroke-width:4.05px;stroke-linecap:round;stroke-miterlimit:1.5;"/></g><path d="M169.555,58.627L180,69.295" style="fill:none;stroke:black;stroke-width:4.05px;stroke-linecap:round;stroke-linejoin:miter;stroke-miterlimit:5;"/><g transform="matrix(1,0,0,1,0,-11.1621)"><path d="M170,59.072L180,69.295" style="fill:none;stroke:black;stroke-width:4.05px;stroke-linecap:round;stroke-linejoin:miter;stroke-miterlimit:5;"/></g><g transform="matrix(1,0,0,1,0,-21.6284)"><path d="M170,59.072L180,69.295" style="fill:none;stroke:black;stroke-width:4.05px;stroke-linecap:round;stroke-linejoin:miter;stroke-miterlimit:5;"/></g><g transform="matrix(1,0,0,1,-13.2332,1)"><path d="M169.245,58.295L179,68.295" style="fill:none;stroke:black;stroke-width:4.05px;stroke-linecap:round;stroke-linejoin:miter;stroke-miterlimit:5;"/></g><g transform="matrix(1,0,0,1,-26.3716,1.39526)"><path d="M169.223,58.295L178.962,68.295" style="fill:none;stroke:black;stroke-width:4.05px;stroke-linecap:round;stroke-linejoin:miter;stroke-miterlimit:5;"/></g><g transform="matrix(1,0,0,1,-34.1621,6.37157)"><path d="M168.832,57.87L178.67,67.965" style="fill:none;stroke:black;stroke-width:4.05px;stroke-linecap:round;stroke-linejoin:miter;stroke-miterlimit:5;"/></g><g transform="matrix(1,0,0,1,-39,15)"><path d="M168.77,57.806L178.725,68.051" style="fill:none;stroke:black;stroke-width:4.05px;stroke-linecap:round;stroke-linejoin:miter;stroke-miterlimit:5;"/></g><g transform="matrix(1,0,0,1,-39,27.5573)"><path d="M168.505,57.534L178.505,67.8" style="fill:none;stroke:black;stroke-width:4.05px;stroke-linecap:round;stroke-linejoin:miter;stroke-miterlimit:5;"/></g><g transform="matrix(1,0,0,1,-1,42)"><path d="M169.425,58.48L179.379,68.724" style="fill:none;stroke:black;stroke-width:4.05px;stroke-linecap:round;stroke-linejoin:miter;stroke-miterlimit:5;"/></g><g transform="matrix(1,0,0,1,-2,51)"><path d="M168.867,57.905L178.821,68.15" style="fill:none;stroke:black;stroke-width:4.05px;stroke-linecap:round;stroke-linejoin:miter;stroke-miterlimit:5;"/></g><g transform="matrix(1,0,0,1,-4,60)"><path d="M169.161,58.208L179.103,68.44" style="fill:none;stroke:black;stroke-width:4.05px;stroke-linecap:round;stroke-linejoin:miter;stroke-miterlimit:5;"/></g><g transform="matrix(1,0,0,1,-6.50001,67.4221)"><path d="M170,59.072L179.722,69.017" style="fill:none;stroke:black;stroke-width:4.05px;stroke-linecap:round;stroke-linejoin:miter;stroke-miterlimit:5;"/></g><g transform="matrix(1,0,0,1,-39.5,68.4221)"><path d="M170,59.072L179.003,68.337" style="fill:none;stroke:black;stroke-width:4.05px;stroke-linecap:round;stroke-linejoin:miter;stroke-miterlimit:5;"/></g><g transform="matrix(1,0,0,1,-28.1284,68.4221)"><path d="M168.975,58.017L178.692,68.017" style="fill:none;stroke:black;stroke-width:4.05px;stroke-linecap:round;stroke-linejoin:miter;stroke-miterlimit:5;"/></g><g transform="matrix(1,0,0,1,-16.4763,68.4221)"><path d="M168.975,58.017L178.692,68.017" style="fill:none;stroke:black;stroke-width:4.05px;stroke-linecap:round;stroke-linejoin:miter;stroke-miterlimit:5;"/></g><g transform="matrix(1,0,0,1,-39.5,81.0979)"><path d="M168.777,57.814L178.848,68.178" style="fill:none;stroke:black;stroke-width:4.05px;stroke-linecap:round;stroke-linejoin:miter;stroke-miterlimit:5;"/></g><g transform="matrix(1,0,0,1,-39.5,93.6552)"><path d="M168.632,57.664L178.848,68.178" style="fill:none;stroke:black;stroke-width:4.05px;stroke-linecap:round;stroke-linejoin:miter;stroke-miterlimit:5;"/></g><g transform="matrix(1,0,0,1,-39.5,105.422)"><path d="M168.777,57.814L178.776,68.103" style="fill:none;stroke:black;stroke-width:4.05px;stroke-linecap:round;stroke-linejoin:miter;stroke-miterlimit:5;"/></g><g transform="matrix(1,0,0,1,-39.5,117.398)"><path d="M168.551,57.585L178.702,67.997" style="fill:none;stroke:black;stroke-width:4.05px;stroke-linecap:round;stroke-linejoin:miter;stroke-miterlimit:5;"/></g><g transform="matrix(1,0,0,1,-39.5,128.979)"><path d="M168.632,57.664L178.549,67.844" style="fill:none;stroke:black;stroke-width:4.05px;stroke-linecap:round;stroke-linejoin:miter;stroke-miterlimit:5;"/></g><g transform="matrix(1,0,0,1,-39.5,142.26)"><path d="M168.551,57.58L178.549,67.844" style="fill:none;stroke:black;stroke-width:4.05px;stroke-linecap:round;stroke-linejoin:miter;stroke-miterlimit:5;"/></g><g transform="matrix(1.30435,0,0,1.25349,-94.5933,137.77)"><path d="M171.395,60.523L179.062,68.414" style="fill:none;stroke:black;stroke-width:3.16px;stroke-linecap:round;stroke-linejoin:miter;stroke-miterlimit:5;"/></g><g transform="matrix(1.30435,0,0,1.25349,-103.593,138.77)"><path d="M170.775,59.87L178.518,67.847" style="fill:none;stroke:black;stroke-width:3.16px;stroke-linecap:round;stroke-linejoin:miter;stroke-miterlimit:5;"/></g><g transform="matrix(1.30435,0,0,1.25349,-113.593,138.77)"><path d="M170.767,59.87L178.518,67.847" style="fill:none;stroke:black;stroke-width:3.16px;stroke-linecap:round;stroke-linejoin:miter;stroke-miterlimit:5;"/></g><g transform="matrix(1.30435,0,0,1.25349,-124.593,138.77)"><path d="M170.767,59.87L178.518,67.847" style="fill:none;stroke:black;stroke-width:3.16px;stroke-linecap:round;stroke-linejoin:miter;stroke-miterlimit:5;"/></g><g transform="matrix(1.30435,0,0,1.25349,-140.617,52.7696)"><path d="M169.708,58.772L177.667,66.962" style="fill:none;stroke:black;stroke-width:3.16px;stroke-linecap:round;stroke-linejoin:miter;stroke-miterlimit:5;"/></g><g transform="matrix(0.893265,0,0,0.893265,11.3524,-8.27998)"><path d="M131.665,248.633L132.271,150.816L170.467,150.816L177.604,112.216L132.271,112.216L132.271,94.016L132.271,94.016L132.271,93.891C132.271,84.37 140.412,76.535 150.806,75.65L177.604,75.65L177.604,38.583L116.204,38.583C105.292,38.583 95.736,44.435 90.505,53.169C87.817,57.658 86.271,62.908 86.271,68.516L86.271,112.216L65.655,112.216L65.655,150.816L86.271,150.816L86.271,248.633L131.665,248.633Z" style="fill:white;stroke:black;stroke-width:4.53px;stroke-linecap:square;stroke-miterlimit:1.5;"/></g></g></svg>