<svg width="40" height="46" viewBox="0 0 40 46" fill="none" xmlns="http://www.w3.org/2000/svg">
<rect y="3.60889" width="40" height="40" rx="20" fill="white"/>
<path d="M15.76 25.8689C15.56 25.8689 15.39 25.8089 15.25 25.6889C15.13 25.5489 15.07 25.3789 15.07 25.1789V24.0389C15.07 23.8389 15.13 23.6789 15.25 23.5589C15.39 23.4189 15.56 23.3489 15.76 23.3489H24.76C24.96 23.3489 25.12 23.4189 25.24 23.5589C25.38 23.6789 25.45 23.8389 25.45 24.0389V25.1789C25.45 25.3789 25.38 25.5489 25.24 25.6889C25.12 25.8089 24.96 25.8689 24.76 25.8689H15.76Z" fill="#412D22"/>
</svg>
