<svg width="240" height="131" viewBox="0 0 240 131" fill="none" xmlns="http://www.w3.org/2000/svg">
<circle cx="4.07895" cy="42.6878" r="4.07895" fill="#D21925"/>
<path d="M4.67221 44.6689C4.35221 44.6689 4.07421 44.6049 3.83821 44.4769C3.60221 44.3449 3.42221 44.1689 3.29821 43.9489C3.17421 43.7289 3.11221 43.4889 3.11221 43.2289C3.11221 43.0169 3.15421 42.8169 3.23821 42.6289C3.32621 42.4369 3.42421 42.2669 3.53221 42.1189L4.67221 40.5289C4.67621 40.5249 4.68821 40.5109 4.70821 40.4869C4.72421 40.4629 4.74621 40.4449 4.77421 40.4329C4.80221 40.4169 4.83421 40.4089 4.87021 40.4089H5.18821C5.22421 40.4089 5.25221 40.4229 5.27221 40.4509C5.29621 40.4749 5.30821 40.5049 5.30821 40.5409C5.30821 40.5689 5.30021 40.5949 5.28421 40.6189L4.40821 41.8429C4.49621 41.8149 4.61021 41.8009 4.75021 41.8009C5.03821 41.8049 5.29221 41.8709 5.51221 41.9989C5.73621 42.1269 5.90821 42.2989 6.02821 42.5149C6.15221 42.7309 6.21421 42.9669 6.21421 43.2229C6.21421 43.4789 6.15221 43.7189 6.02821 43.9429C5.90821 44.1629 5.73021 44.3389 5.49421 44.4709C5.26221 44.6029 4.98821 44.6689 4.67221 44.6689ZM4.66621 44.1589C4.83821 44.1589 4.99621 44.1229 5.14021 44.0509C5.28821 43.9789 5.40421 43.8729 5.48821 43.7329C5.57621 43.5889 5.62021 43.4189 5.62021 43.2229C5.62021 43.0309 5.57621 42.8649 5.48821 42.7249C5.40421 42.5849 5.28821 42.4789 5.14021 42.4069C4.99621 42.3349 4.83821 42.2989 4.66621 42.2989C4.49821 42.2989 4.34021 42.3349 4.19221 42.4069C4.04821 42.4789 3.93221 42.5849 3.84421 42.7249C3.75621 42.8649 3.71221 43.0309 3.71221 43.2229C3.71221 43.4189 3.75621 43.5889 3.84421 43.7329C3.93221 43.8729 4.04821 43.9789 4.19221 44.0509C4.33621 44.1229 4.49421 44.1589 4.66621 44.1589Z" fill="white"/>
<circle cx="108.079" cy="33.7503" r="4.07895" fill="#D21925"/>
<path d="M107.011 35.6714C106.975 35.6714 106.945 35.6594 106.921 35.6354C106.901 35.6074 106.891 35.5754 106.891 35.5394C106.891 35.5114 106.899 35.4854 106.915 35.4614L107.833 34.1834C107.737 34.2074 107.629 34.2194 107.509 34.2194C107.225 34.2154 106.973 34.1494 106.753 34.0214C106.537 33.8934 106.371 33.7234 106.255 33.5114C106.139 33.2994 106.081 33.0734 106.081 32.8334C106.081 32.5934 106.137 32.3654 106.249 32.1494C106.365 31.9294 106.537 31.7514 106.765 31.6154C106.993 31.4794 107.269 31.4114 107.593 31.4114C107.917 31.4114 108.193 31.4774 108.421 31.6094C108.653 31.7414 108.827 31.9154 108.943 32.1314C109.059 32.3474 109.117 32.5774 109.117 32.8214C109.117 33.0374 109.079 33.2294 109.003 33.3974C108.927 33.5614 108.821 33.7414 108.685 33.9374L107.527 35.5514C107.499 35.5874 107.471 35.6174 107.443 35.6414C107.419 35.6614 107.383 35.6714 107.335 35.6714H107.011ZM107.593 33.7334C107.761 33.7334 107.915 33.6974 108.055 33.6254C108.199 33.5494 108.313 33.4434 108.397 33.3074C108.481 33.1674 108.523 33.0074 108.523 32.8274C108.523 32.6474 108.481 32.4894 108.397 32.3534C108.313 32.2134 108.199 32.1074 108.055 32.0354C107.915 31.9594 107.761 31.9214 107.593 31.9214C107.425 31.9214 107.271 31.9594 107.131 32.0354C106.991 32.1074 106.879 32.2134 106.795 32.3534C106.715 32.4894 106.675 32.6474 106.675 32.8274C106.675 33.0074 106.715 33.1674 106.795 33.3074C106.879 33.4434 106.991 33.5494 107.131 33.6254C107.271 33.6974 107.425 33.7334 107.593 33.7334Z" fill="white"/>
<circle cx="213.079" cy="46.2605" r="4.07895" fill="#D21925"/>
<path d="M237.602 53.6689C237.298 53.6689 237.036 53.6149 236.816 53.5069C236.596 53.3989 236.426 53.2569 236.306 53.0809C236.19 52.9049 236.128 52.7169 236.12 52.5169V52.5049C236.12 52.4729 236.132 52.4469 236.156 52.4269C236.18 52.4069 236.208 52.3969 236.24 52.3969H236.564C236.648 52.3969 236.702 52.4409 236.726 52.5289C236.782 52.7409 236.89 52.8989 237.05 53.0029C237.21 53.1069 237.394 53.1589 237.602 53.1589C237.87 53.1589 238.092 53.0789 238.268 52.9189C238.448 52.7549 238.538 52.5289 238.538 52.2409C238.538 51.9809 238.448 51.7709 238.268 51.6109C238.092 51.4509 237.87 51.3709 237.602 51.3709C237.458 51.3709 237.342 51.3909 237.254 51.4309C237.166 51.4669 237.078 51.5189 236.99 51.5869C236.942 51.6229 236.9 51.6509 236.864 51.6709C236.832 51.6869 236.796 51.6949 236.756 51.6949H236.444C236.408 51.6949 236.376 51.6829 236.348 51.6589C236.32 51.6309 236.308 51.5989 236.312 51.5629L236.504 49.5589C236.508 49.5109 236.522 49.4749 236.546 49.4509C236.574 49.4229 236.61 49.4089 236.654 49.4089H238.748C238.788 49.4089 238.82 49.4229 238.844 49.4509C238.872 49.4749 238.886 49.5069 238.886 49.5469V49.7809C238.886 49.8209 238.872 49.8549 238.844 49.8829C238.82 49.9069 238.788 49.9189 238.748 49.9189H237.02L236.906 51.1009C237.122 50.9649 237.382 50.8969 237.686 50.8969C237.95 50.8969 238.192 50.9509 238.412 51.0589C238.636 51.1669 238.812 51.3229 238.94 51.5269C239.072 51.7309 239.138 51.9709 239.138 52.2469C239.138 52.5429 239.072 52.7989 238.94 53.0149C238.812 53.2269 238.632 53.3889 238.4 53.5009C238.168 53.6129 237.902 53.6689 237.602 53.6689Z" fill="white"/>
<circle cx="180.079" cy="81.0422" r="4.07895" fill="#D21925"/>
<path d="M181.174 82.9633C181.134 82.9633 181.1 82.9513 181.072 82.9273C181.048 82.8993 181.036 82.8653 181.036 82.8253V81.9613H179.092C179.052 81.9613 179.018 81.9493 178.99 81.9253C178.966 81.8973 178.954 81.8633 178.954 81.8233V81.5833C178.954 81.5233 178.976 81.4633 179.02 81.4033L180.82 78.8653C180.84 78.8333 180.87 78.8093 180.91 78.7933C180.95 78.7733 180.994 78.7633 181.042 78.7633H181.474C181.514 78.7633 181.546 78.7773 181.57 78.8053C181.598 78.8293 181.612 78.8613 181.612 78.9013V81.4393H182.152C182.192 81.4393 182.226 81.4533 182.254 81.4813C182.282 81.5053 182.296 81.5373 182.296 81.5773V81.8233C182.296 81.8633 182.282 81.8973 182.254 81.9253C182.23 81.9493 182.198 81.9613 182.158 81.9613H181.612V82.8253C181.612 82.8653 181.598 82.8993 181.57 82.9273C181.546 82.9513 181.514 82.9633 181.474 82.9633H181.174ZM181.042 81.4513V79.3933L179.596 81.4513H181.042Z" fill="white"/>
<circle cx="25.0789" cy="7.68783" r="4.07895" fill="#D21925"/>
<path d="M25.1743 9.60889C25.1343 9.60889 25.1003 9.59689 25.0723 9.57289C25.0483 9.54489 25.0363 9.51089 25.0363 9.47089V8.60689H23.0923C23.0523 8.60689 23.0183 8.59489 22.9903 8.57089C22.9663 8.54289 22.9543 8.50889 22.9543 8.46889V8.22889C22.9543 8.16889 22.9763 8.10889 23.0203 8.04889L24.8203 5.51089C24.8403 5.47889 24.8703 5.45489 24.9103 5.43889C24.9503 5.41889 24.9943 5.40889 25.0423 5.40889H25.4743C25.5143 5.40889 25.5463 5.42289 25.5703 5.45089C25.5983 5.47489 25.6123 5.50689 25.6123 5.54689V8.08489H26.1523C26.1923 8.08489 26.2263 8.09889 26.2543 8.12689C26.2823 8.15089 26.2963 8.18289 26.2963 8.22289V8.46889C26.2963 8.50889 26.2823 8.54289 26.2543 8.57089C26.2303 8.59489 26.1983 8.60689 26.1583 8.60689H25.6123V9.47089C25.6123 9.51089 25.5983 9.54489 25.5703 9.57289C25.5463 9.59689 25.5143 9.60889 25.4743 9.60889H25.1743ZM25.0423 8.09689V6.03889L23.5963 8.09689H25.0423Z" fill="white"/>
<circle cx="79.0789" cy="68.9232" r="4.07895" fill="#D21925"/>
<path d="M79.1745 70.8442C79.1345 70.8442 79.1005 70.8322 79.0725 70.8082C79.0485 70.7802 79.0365 70.7462 79.0365 70.7062V69.8422H77.0925C77.0525 69.8422 77.0185 69.8302 76.9905 69.8062C76.9665 69.7782 76.9545 69.7442 76.9545 69.7042V69.4642C76.9545 69.4042 76.9765 69.3442 77.0205 69.2842L78.8205 66.7462C78.8405 66.7142 78.8705 66.6902 78.9105 66.6742C78.9505 66.6542 78.9945 66.6442 79.0425 66.6442H79.4745C79.5145 66.6442 79.5465 66.6582 79.5705 66.6862C79.5985 66.7102 79.6125 66.7422 79.6125 66.7822V69.3202H80.1525C80.1925 69.3202 80.2265 69.3342 80.2545 69.3622C80.2825 69.3862 80.2965 69.4182 80.2965 69.4582V69.7042C80.2965 69.7442 80.2825 69.7782 80.2545 69.8062C80.2305 69.8302 80.1985 69.8422 80.1585 69.8422H79.6125V70.7062C79.6125 70.7462 79.5985 70.7802 79.5705 70.8082C79.5465 70.8322 79.5145 70.8442 79.4745 70.8442H79.1745ZM79.0425 69.3322V67.2742L77.5965 69.3322H79.0425Z" fill="white"/>
<circle cx="132.079" cy="4.68783" r="4.07895" fill="#D21925"/>
<path d="M132.174 7.60889C132.134 7.60889 132.1 7.59689 132.072 7.57289C132.048 7.54489 132.036 7.51089 132.036 7.47089V6.60689H130.092C130.052 6.60689 130.018 6.59489 129.99 6.57089C129.966 6.54289 129.954 6.50889 129.954 6.46889V6.22889C129.954 6.16889 129.976 6.10889 130.02 6.04889L131.82 3.51089C131.84 3.47889 131.87 3.45489 131.91 3.43889C131.95 3.41889 131.994 3.40889 132.042 3.40889H132.474C132.514 3.40889 132.546 3.42289 132.57 3.45089C132.598 3.47489 132.612 3.50689 132.612 3.54689V6.08489H133.152C133.192 6.08489 133.226 6.09889 133.254 6.12689C133.282 6.15089 133.296 6.18289 133.296 6.22289V6.46889C133.296 6.50889 133.282 6.54289 133.254 6.57089C133.23 6.59489 133.198 6.60689 133.158 6.60689H132.612V7.47089C132.612 7.51089 132.598 7.54489 132.57 7.57289C132.546 7.59689 132.514 7.60889 132.474 7.60889H132.174ZM132.042 6.09689V4.03889L130.596 6.09689H132.042Z" fill="white"/>
<circle cx="76.0477" cy="27.6878" r="4.07895" fill="#D21925"/>
<path d="M76.1972 30.3215C75.8812 30.3215 75.6072 30.2715 75.3752 30.1715C75.1472 30.0675 74.9732 29.9335 74.8532 29.7695C74.7372 29.6055 74.6752 29.4335 74.6672 29.2535C74.6672 29.2175 74.6792 29.1895 74.7032 29.1695C74.7272 29.1455 74.7572 29.1335 74.7932 29.1335H75.0872C75.1712 29.1335 75.2272 29.1775 75.2552 29.2655C75.3072 29.4655 75.4192 29.6075 75.5912 29.6915C75.7632 29.7715 75.9652 29.8115 76.1972 29.8115C76.4812 29.8115 76.7072 29.7455 76.8752 29.6135C77.0432 29.4775 77.1272 29.2835 77.1272 29.0315C77.1272 28.5475 76.8332 28.3055 76.2452 28.3055H75.6752C75.6352 28.3055 75.6012 28.2935 75.5732 28.2695C75.5492 28.2415 75.5372 28.2075 75.5372 28.1675V28.0055C75.5372 27.9495 75.5592 27.8955 75.6032 27.8435L76.7672 26.5715H74.9972C74.9572 26.5715 74.9232 26.5595 74.8952 26.5355C74.8712 26.5075 74.8592 26.4735 74.8592 26.4335V26.2055C74.8592 26.1655 74.8712 26.1315 74.8952 26.1035C74.9232 26.0755 74.9572 26.0615 74.9972 26.0615H77.3912C77.4352 26.0615 77.4692 26.0755 77.4932 26.1035C77.5212 26.1275 77.5352 26.1615 77.5352 26.2055V26.4215C77.5352 26.4695 77.5132 26.5155 77.4692 26.5595L76.3112 27.8495L76.4072 27.8555C76.8152 27.8675 77.1372 27.9735 77.3732 28.1735C77.6092 28.3735 77.7272 28.6655 77.7272 29.0495C77.7272 29.3095 77.6612 29.5355 77.5292 29.7275C77.3972 29.9195 77.2152 30.0675 76.9832 30.1715C76.7512 30.2715 76.4892 30.3215 76.1972 30.3215Z" fill="white"/>
<circle cx="165.079" cy="46.6878" r="4.07895" fill="#D21925"/>
<path d="M163.303 49.6089C163.263 49.6089 163.229 49.5969 163.201 49.5729C163.177 49.5449 163.165 49.5109 163.165 49.4709V49.2789C163.165 49.1869 163.215 49.0989 163.315 49.0149L164.587 47.7429C164.895 47.4869 165.107 47.2789 165.223 47.1189C165.339 46.9549 165.397 46.7829 165.397 46.6029C165.397 46.3709 165.331 46.1889 165.199 46.0569C165.071 45.9249 164.883 45.8589 164.635 45.8589C164.403 45.8589 164.217 45.9289 164.077 46.0689C163.937 46.2049 163.851 46.3869 163.819 46.6149C163.811 46.6629 163.791 46.6989 163.759 46.7229C163.731 46.7429 163.699 46.7529 163.663 46.7529H163.351C163.315 46.7529 163.285 46.7429 163.261 46.7229C163.237 46.6989 163.225 46.6709 163.225 46.6389C163.233 46.4229 163.291 46.2169 163.399 46.0209C163.507 45.8209 163.665 45.6589 163.873 45.5349C164.085 45.4069 164.339 45.3429 164.635 45.3429C165.087 45.3429 165.427 45.4609 165.655 45.6969C165.887 45.9289 166.003 46.2249 166.003 46.5849C166.003 46.8369 165.939 47.0649 165.811 47.2689C165.687 47.4689 165.493 47.6849 165.229 47.9169L164.077 49.0869H165.949C165.993 49.0869 166.027 49.1009 166.051 49.1289C166.079 49.1529 166.093 49.1849 166.093 49.2249V49.4709C166.093 49.5109 166.079 49.5449 166.051 49.5729C166.023 49.5969 165.989 49.6089 165.949 49.6089H163.303Z" fill="white"/>
<circle cx="167.963" cy="125.776" r="4.07895" fill="#D21925"/>
<path d="M166.797 128.349C166.757 128.349 166.723 128.337 166.695 128.313C166.671 128.285 166.659 128.251 166.659 128.211V128.019C166.659 127.927 166.709 127.839 166.809 127.755L168.081 126.483C168.389 126.227 168.601 126.019 168.717 125.859C168.833 125.695 168.891 125.523 168.891 125.343C168.891 125.111 168.825 124.929 168.693 124.797C168.565 124.665 168.377 124.599 168.129 124.599C167.897 124.599 167.711 124.669 167.571 124.809C167.431 124.945 167.345 125.127 167.313 125.355C167.305 125.403 167.285 125.439 167.253 125.463C167.225 125.483 167.193 125.493 167.157 125.493H166.845C166.809 125.493 166.779 125.483 166.755 125.463C166.731 125.439 166.719 125.411 166.719 125.379C166.727 125.163 166.785 124.957 166.893 124.761C167.001 124.561 167.159 124.399 167.367 124.275C167.579 124.147 167.833 124.083 168.129 124.083C168.581 124.083 168.921 124.201 169.149 124.437C169.381 124.669 169.497 124.965 169.497 125.325C169.497 125.577 169.433 125.805 169.305 126.009C169.181 126.209 168.987 126.425 168.723 126.657L167.571 127.827H169.443C169.487 127.827 169.521 127.841 169.545 127.869C169.573 127.893 169.587 127.925 169.587 127.965V128.211C169.587 128.251 169.573 128.285 169.545 128.313C169.517 128.337 169.483 128.349 169.443 128.349H166.797Z" fill="white"/>
</svg>
