<svg width="740" height="431" viewBox="0 0 740 431" fill="none" xmlns="http://www.w3.org/2000/svg">
<circle cx="12.5" cy="112.5" r="12.5" fill="#D21925"/>
<path d="M12.928 119.16C12.0747 119.16 11.3333 118.989 10.704 118.648C10.0747 118.296 9.59467 117.827 9.264 117.24C8.93333 116.653 8.768 116.013 8.768 115.32C8.768 114.755 8.88 114.221 9.104 113.72C9.33867 113.208 9.6 112.755 9.888 112.36L12.928 108.12C12.9387 108.109 12.9707 108.072 13.024 108.008C13.0667 107.944 13.1253 107.896 13.2 107.864C13.2747 107.821 13.36 107.8 13.456 107.8H14.304C14.4 107.8 14.4747 107.837 14.528 107.912C14.592 107.976 14.624 108.056 14.624 108.152C14.624 108.227 14.6027 108.296 14.56 108.36L12.224 111.624C12.4587 111.549 12.7627 111.512 13.136 111.512C13.904 111.523 14.5813 111.699 15.168 112.04C15.7653 112.381 16.224 112.84 16.544 113.416C16.8747 113.992 17.04 114.621 17.04 115.304C17.04 115.987 16.8747 116.627 16.544 117.224C16.224 117.811 15.7493 118.28 15.12 118.632C14.5013 118.984 13.7707 119.16 12.928 119.16ZM12.912 117.8C13.3707 117.8 13.792 117.704 14.176 117.512C14.5707 117.32 14.88 117.037 15.104 116.664C15.3387 116.28 15.456 115.827 15.456 115.304C15.456 114.792 15.3387 114.349 15.104 113.976C14.88 113.603 14.5707 113.32 14.176 113.128C13.792 112.936 13.3707 112.84 12.912 112.84C12.464 112.84 12.0427 112.936 11.648 113.128C11.264 113.32 10.9547 113.603 10.72 113.976C10.4853 114.349 10.368 114.792 10.368 115.304C10.368 115.827 10.4853 116.28 10.72 116.664C10.9547 117.037 11.264 117.32 11.648 117.512C12.032 117.704 12.4533 117.8 12.912 117.8Z" fill="white"/>
<circle cx="389.5" cy="88.5" r="12.5" fill="#D21925"/>
<path d="M388.088 95C387.992 95 387.912 94.968 387.848 94.904C387.795 94.8293 387.768 94.744 387.768 94.648C387.768 94.5733 387.789 94.504 387.832 94.44L390.28 91.032C390.024 91.096 389.736 91.128 389.416 91.128C388.659 91.1173 387.987 90.9413 387.4 90.6C386.824 90.2587 386.381 89.8053 386.072 89.24C385.763 88.6747 385.608 88.072 385.608 87.432C385.608 86.792 385.757 86.184 386.056 85.608C386.365 85.0213 386.824 84.5467 387.432 84.184C388.04 83.8213 388.776 83.64 389.64 83.64C390.504 83.64 391.24 83.816 391.848 84.168C392.467 84.52 392.931 84.984 393.24 85.56C393.549 86.136 393.704 86.7493 393.704 87.4C393.704 87.976 393.603 88.488 393.4 88.936C393.197 89.3733 392.915 89.8533 392.552 90.376L389.464 94.68C389.389 94.776 389.315 94.856 389.24 94.92C389.176 94.9733 389.08 95 388.952 95H388.088ZM389.64 89.832C390.088 89.832 390.499 89.736 390.872 89.544C391.256 89.3413 391.56 89.0587 391.784 88.696C392.008 88.3227 392.12 87.896 392.12 87.416C392.12 86.936 392.008 86.5147 391.784 86.152C391.56 85.7787 391.256 85.496 390.872 85.304C390.499 85.1013 390.088 85 389.64 85C389.192 85 388.781 85.1013 388.408 85.304C388.035 85.496 387.736 85.7787 387.512 86.152C387.299 86.5147 387.192 86.936 387.192 87.416C387.192 87.896 387.299 88.3227 387.512 88.696C387.736 89.0587 388.035 89.3413 388.408 89.544C388.781 89.736 389.192 89.832 389.64 89.832Z" fill="white"/>
<circle cx="727.5" cy="138.5" r="12.5" fill="#D21925"/>
<path d="M727.672 145.16C726.861 145.16 726.163 145.016 725.576 144.728C724.989 144.44 724.536 144.061 724.216 143.592C723.907 143.123 723.741 142.621 723.72 142.088V142.056C723.72 141.971 723.752 141.901 723.816 141.848C723.88 141.795 723.955 141.768 724.04 141.768H724.904C725.128 141.768 725.272 141.885 725.336 142.12C725.485 142.685 725.773 143.107 726.2 143.384C726.627 143.661 727.117 143.8 727.672 143.8C728.387 143.8 728.979 143.587 729.448 143.16C729.928 142.723 730.168 142.12 730.168 141.352C730.168 140.659 729.928 140.099 729.448 139.672C728.979 139.245 728.387 139.032 727.672 139.032C727.288 139.032 726.979 139.085 726.744 139.192C726.509 139.288 726.275 139.427 726.04 139.608C725.912 139.704 725.8 139.779 725.704 139.832C725.619 139.875 725.523 139.896 725.416 139.896H724.584C724.488 139.896 724.403 139.864 724.328 139.8C724.253 139.725 724.221 139.64 724.232 139.544L724.744 134.2C724.755 134.072 724.792 133.976 724.856 133.912C724.931 133.837 725.027 133.8 725.144 133.8H730.728C730.835 133.8 730.92 133.837 730.984 133.912C731.059 133.976 731.096 134.061 731.096 134.168V134.792C731.096 134.899 731.059 134.989 730.984 135.064C730.92 135.128 730.835 135.16 730.728 135.16H726.12L725.816 138.312C726.392 137.949 727.085 137.768 727.896 137.768C728.6 137.768 729.245 137.912 729.832 138.2C730.429 138.488 730.899 138.904 731.24 139.448C731.592 139.992 731.768 140.632 731.768 141.368C731.768 142.157 731.592 142.84 731.24 143.416C730.899 143.981 730.419 144.413 729.8 144.712C729.181 145.011 728.472 145.16 727.672 145.16Z" fill="white"/>
<circle cx="622.5" cy="262.5" r="12.5" fill="#D21925"/>
<path d="M624.416 269C624.309 269 624.219 268.968 624.144 268.904C624.08 268.829 624.048 268.739 624.048 268.632V266.328H618.864C618.757 266.328 618.667 266.296 618.592 266.232C618.528 266.157 618.496 266.067 618.496 265.96V265.32C618.496 265.16 618.555 265 618.672 264.84L623.472 258.072C623.525 257.987 623.605 257.923 623.712 257.88C623.819 257.827 623.936 257.8 624.064 257.8H625.216C625.323 257.8 625.408 257.837 625.472 257.912C625.547 257.976 625.584 258.061 625.584 258.168V264.936H627.024C627.131 264.936 627.221 264.973 627.296 265.048C627.371 265.112 627.408 265.197 627.408 265.304V265.96C627.408 266.067 627.371 266.157 627.296 266.232C627.232 266.296 627.147 266.328 627.04 266.328H625.584V268.632C625.584 268.739 625.547 268.829 625.472 268.904C625.408 268.968 625.323 269 625.216 269H624.416ZM624.064 264.968V259.48L620.208 264.968H624.064Z" fill="white"/>
<circle cx="88.5" cy="17.5" r="12.5" fill="#D21925"/>
<path d="M90.416 24C90.3093 24 90.2187 23.968 90.144 23.904C90.08 23.8293 90.048 23.7387 90.048 23.632V21.328H84.864C84.7573 21.328 84.6667 21.296 84.592 21.232C84.528 21.1573 84.496 21.0667 84.496 20.96V20.32C84.496 20.16 84.5547 20 84.672 19.84L89.472 13.072C89.5253 12.9867 89.6053 12.9227 89.712 12.88C89.8187 12.8267 89.936 12.8 90.064 12.8H91.216C91.3227 12.8 91.408 12.8373 91.472 12.912C91.5467 12.976 91.584 13.0613 91.584 13.168V19.936H93.024C93.1307 19.936 93.2213 19.9733 93.296 20.048C93.3707 20.112 93.408 20.1973 93.408 20.304V20.96C93.408 21.0667 93.3707 21.1573 93.296 21.232C93.232 21.296 93.1467 21.328 93.04 21.328H91.584V23.632C91.584 23.7387 91.5467 23.8293 91.472 23.904C91.408 23.968 91.3227 24 91.216 24H90.416ZM90.064 19.968V14.48L86.208 19.968H90.064Z" fill="white"/>
<circle cx="279.5" cy="216.5" r="12.5" fill="#D21925"/>
<path d="M281.416 223C281.309 223 281.219 222.968 281.144 222.904C281.08 222.829 281.048 222.739 281.048 222.632V220.328H275.864C275.757 220.328 275.667 220.296 275.592 220.232C275.528 220.157 275.496 220.067 275.496 219.96V219.32C275.496 219.16 275.555 219 275.672 218.84L280.472 212.072C280.525 211.987 280.605 211.923 280.712 211.88C280.819 211.827 280.936 211.8 281.064 211.8H282.216C282.323 211.8 282.408 211.837 282.472 211.912C282.547 211.976 282.584 212.061 282.584 212.168V218.936H284.024C284.131 218.936 284.221 218.973 284.296 219.048C284.371 219.112 284.408 219.197 284.408 219.304V219.96C284.408 220.067 284.371 220.157 284.296 220.232C284.232 220.296 284.147 220.328 284.04 220.328H282.584V222.632C282.584 222.739 282.547 222.829 282.472 222.904C282.408 222.968 282.323 223 282.216 223H281.416ZM281.064 218.968V213.48L277.208 218.968H281.064Z" fill="white"/>
<circle cx="471.5" cy="12.5" r="12.5" fill="#D21925"/>
<path d="M473.416 19C473.309 19 473.219 18.968 473.144 18.904C473.08 18.8293 473.048 18.7387 473.048 18.632V16.328H467.864C467.757 16.328 467.667 16.296 467.592 16.232C467.528 16.1573 467.496 16.0667 467.496 15.96V15.32C467.496 15.16 467.555 15 467.672 14.84L472.472 8.072C472.525 7.98667 472.605 7.92267 472.712 7.88C472.819 7.82667 472.936 7.8 473.064 7.8H474.216C474.323 7.8 474.408 7.83733 474.472 7.912C474.547 7.976 474.584 8.06133 474.584 8.168V14.936H476.024C476.131 14.936 476.221 14.9733 476.296 15.048C476.371 15.112 476.408 15.1973 476.408 15.304V15.96C476.408 16.0667 476.371 16.1573 476.296 16.232C476.232 16.296 476.147 16.328 476.04 16.328H474.584V18.632C474.584 18.7387 474.547 18.8293 474.472 18.904C474.408 18.968 474.323 19 474.216 19H473.416ZM473.064 14.968V9.48L469.208 14.968H473.064Z" fill="white"/>
<circle cx="281.5" cy="81.5" r="12.5" fill="#D21925"/>
<path d="M281.768 88.16C280.925 88.16 280.195 88.0267 279.576 87.76C278.968 87.4827 278.504 87.1253 278.184 86.688C277.875 86.2507 277.709 85.792 277.688 85.312C277.688 85.216 277.72 85.1413 277.784 85.088C277.848 85.024 277.928 84.992 278.024 84.992H278.808C279.032 84.992 279.181 85.1093 279.256 85.344C279.395 85.8773 279.693 86.256 280.152 86.48C280.611 86.6933 281.149 86.8 281.768 86.8C282.525 86.8 283.128 86.624 283.576 86.272C284.024 85.9093 284.248 85.392 284.248 84.72C284.248 83.4293 283.464 82.784 281.896 82.784H280.376C280.269 82.784 280.179 82.752 280.104 82.688C280.04 82.6133 280.008 82.5227 280.008 82.416V81.984C280.008 81.8347 280.067 81.6907 280.184 81.552L283.288 78.16H278.568C278.461 78.16 278.371 78.128 278.296 78.064C278.232 77.9893 278.2 77.8987 278.2 77.792V77.184C278.2 77.0773 278.232 76.9867 278.296 76.912C278.371 76.8373 278.461 76.8 278.568 76.8H284.952C285.069 76.8 285.16 76.8373 285.224 76.912C285.299 76.976 285.336 77.0667 285.336 77.184V77.76C285.336 77.888 285.277 78.0107 285.16 78.128L282.072 81.568L282.328 81.584C283.416 81.616 284.275 81.8987 284.904 82.432C285.533 82.9653 285.848 83.744 285.848 84.768C285.848 85.4613 285.672 86.064 285.32 86.576C284.968 87.088 284.483 87.4827 283.864 87.76C283.245 88.0267 282.547 88.16 281.768 88.16Z" fill="white"/>
<circle cx="578.5" cy="153.5" r="12.5" fill="#D21925"/>
<path d="M575.152 160C575.045 160 574.955 159.968 574.88 159.904C574.816 159.829 574.784 159.739 574.784 159.632V159.12C574.784 158.875 574.917 158.64 575.184 158.416L578.576 155.024C579.397 154.341 579.963 153.787 580.272 153.36C580.581 152.923 580.736 152.464 580.736 151.984C580.736 151.365 580.56 150.88 580.208 150.528C579.867 150.176 579.365 150 578.704 150C578.085 150 577.589 150.187 577.216 150.56C576.843 150.923 576.613 151.408 576.528 152.016C576.507 152.144 576.453 152.24 576.368 152.304C576.293 152.357 576.208 152.384 576.112 152.384H575.28C575.184 152.384 575.104 152.357 575.04 152.304C574.976 152.24 574.944 152.165 574.944 152.08C574.965 151.504 575.12 150.955 575.408 150.432C575.696 149.899 576.117 149.467 576.672 149.136C577.237 148.795 577.915 148.624 578.704 148.624C579.909 148.624 580.816 148.939 581.424 149.568C582.043 150.187 582.352 150.976 582.352 151.936C582.352 152.608 582.181 153.216 581.84 153.76C581.509 154.293 580.992 154.869 580.288 155.488L577.216 158.608H582.208C582.325 158.608 582.416 158.645 582.48 158.72C582.555 158.784 582.592 158.869 582.592 158.976V159.632C582.592 159.739 582.555 159.829 582.48 159.904C582.405 159.968 582.315 160 582.208 160H575.152Z" fill="white"/>
<circle cx="578.5" cy="417.5" r="12.5" fill="#D21925"/>
<path d="M575.152 424C575.045 424 574.955 423.968 574.88 423.904C574.816 423.829 574.784 423.739 574.784 423.632V423.12C574.784 422.875 574.917 422.64 575.184 422.416L578.576 419.024C579.397 418.341 579.963 417.787 580.272 417.36C580.581 416.923 580.736 416.464 580.736 415.984C580.736 415.365 580.56 414.88 580.208 414.528C579.867 414.176 579.365 414 578.704 414C578.085 414 577.589 414.187 577.216 414.56C576.843 414.923 576.613 415.408 576.528 416.016C576.507 416.144 576.453 416.24 576.368 416.304C576.293 416.357 576.208 416.384 576.112 416.384H575.28C575.184 416.384 575.104 416.357 575.04 416.304C574.976 416.24 574.944 416.165 574.944 416.08C574.965 415.504 575.12 414.955 575.408 414.432C575.696 413.899 576.117 413.467 576.672 413.136C577.237 412.795 577.915 412.624 578.704 412.624C579.909 412.624 580.816 412.939 581.424 413.568C582.043 414.187 582.352 414.976 582.352 415.936C582.352 416.608 582.181 417.216 581.84 417.76C581.509 418.293 580.992 418.869 580.288 419.488L577.216 422.608H582.208C582.325 422.608 582.416 422.645 582.48 422.72C582.555 422.784 582.592 422.869 582.592 422.976V423.632C582.592 423.739 582.555 423.829 582.48 423.904C582.405 423.968 582.315 424 582.208 424H575.152Z" fill="white"/>
</svg>
