<svg width="31" height="31" viewBox="0 0 31 31" fill="none" xmlns="http://www.w3.org/2000/svg">
<path d="M24.6363 21.3447L21.8502 18.5372C21.2953 17.9803 20.3763 17.9972 19.802 18.5761L18.3984 19.99C18.3097 19.9408 18.2179 19.8893 18.1214 19.8348C17.235 19.3399 16.0218 18.6617 14.7452 17.3744C13.4648 16.0845 12.791 14.8603 12.2983 13.9666C12.2463 13.872 12.1965 13.7807 12.1474 13.694L13.0894 12.7462L13.5526 12.279C14.1277 11.6993 14.1436 10.7737 13.5899 10.2151L10.8038 7.40735C10.2502 6.84962 9.33076 6.86654 8.7556 7.4462L7.97038 8.2419L7.99184 8.26336C7.72854 8.60186 7.50852 8.99227 7.34479 9.41328C7.19386 9.81403 7.09989 10.1964 7.05693 10.5796C6.68904 13.6526 8.08275 16.461 11.8651 20.272C17.0934 25.5394 21.3068 25.1415 21.4886 25.1221C21.8844 25.0744 22.2638 24.9791 22.6494 24.8282C23.0636 24.6652 23.4508 24.4438 23.7866 24.1791L23.8037 24.1945L24.5992 23.4096C25.1732 22.8301 25.1897 21.9041 24.6363 21.3447Z" fill="#412D22"/>
</svg>
