<svg width="40" height="46" viewBox="0 0 40 46" fill="none" xmlns="http://www.w3.org/2000/svg">
<rect y="3.60889" width="40" height="40" rx="20" fill="white"/>
<path d="M19.79 32.6189C19.59 32.6189 19.42 32.5589 19.28 32.4389C19.16 32.2989 19.1 32.1289 19.1 31.9289V25.6889H12.95C12.75 25.6889 12.58 25.6289 12.44 25.5089C12.32 25.3689 12.26 25.1989 12.26 24.9989V24.0389C12.26 23.8389 12.32 23.6789 12.44 23.5589C12.58 23.4189 12.75 23.3489 12.95 23.3489H19.1V17.2889C19.1 17.0889 19.16 16.9289 19.28 16.8089C19.42 16.6689 19.59 16.5989 19.79 16.5989H20.84C21.04 16.5989 21.2 16.6689 21.32 16.8089C21.46 16.9289 21.53 17.0889 21.53 17.2889V23.3489H27.71C27.91 23.3489 28.07 23.4189 28.19 23.5589C28.33 23.6789 28.4 23.8389 28.4 24.0389V24.9989C28.4 25.1989 28.33 25.3689 28.19 25.5089C28.07 25.6289 27.91 25.6889 27.71 25.6889H21.53V31.9289C21.53 32.1289 21.46 32.2989 21.32 32.4389C21.2 32.5589 21.04 32.6189 20.84 32.6189H19.79Z" fill="#412D22"/>
</svg>
