<svg width="160" height="40" viewBox="0 0 160 40" fill="none" xmlns="http://www.w3.org/2000/svg">
<rect width="160" height="40" rx="20" fill="#E39A3B"/>
<path d="M46.5778 24.56C46.6951 24.56 46.7965 24.6027 46.8818 24.688C46.9671 24.7733 47.0098 24.8747 47.0098 24.992V25.568C47.0098 25.6853 46.9671 25.7867 46.8818 25.872C46.7965 25.9573 46.6951 26 46.5778 26H40.0658C39.9485 26 39.8471 25.9573 39.7618 25.872C39.6765 25.7867 39.6338 25.6853 39.6338 25.568V15.232C39.6338 15.1147 39.6765 15.0133 39.7618 14.928C39.8471 14.8427 39.9485 14.8 40.0658 14.8H40.7218C40.8391 14.8 40.9405 14.8427 41.0258 14.928C41.1111 15.0133 41.1538 15.1147 41.1538 15.232V24.56H46.5778ZM47.9957 21.04C48.0384 20.5493 48.1557 20.0907 48.3477 19.664C48.5397 19.2373 48.7904 18.864 49.0997 18.544C49.409 18.224 49.777 17.9733 50.2037 17.792C50.641 17.6107 51.1264 17.52 51.6597 17.52C52.2357 17.52 52.7477 17.616 53.1957 17.808C53.6544 17.9893 54.0437 18.256 54.3637 18.608C54.6837 18.96 54.929 19.3867 55.0997 19.888C55.2704 20.3893 55.3557 20.9493 55.3557 21.568V22C55.3557 22.1173 55.313 22.2187 55.2277 22.304C55.1424 22.3893 55.041 22.432 54.9237 22.432H49.4197V22.528C49.441 23.2533 49.6597 23.8133 50.0757 24.208C50.5024 24.592 51.0304 24.784 51.6597 24.784C52.2464 24.784 52.6837 24.704 52.9717 24.544C53.2704 24.3733 53.5104 24.1867 53.6917 23.984C53.777 23.8987 53.8517 23.84 53.9157 23.808C53.9797 23.776 54.0757 23.76 54.2037 23.76H54.6837C54.801 23.76 54.9077 23.8027 55.0037 23.888C55.0997 23.9733 55.137 24.0747 55.1157 24.192C55.0837 24.384 54.993 24.5973 54.8437 24.832C54.6944 25.056 54.4757 25.2693 54.1877 25.472C53.9104 25.664 53.5584 25.8293 53.1317 25.968C52.7157 26.096 52.225 26.16 51.6597 26.16C51.1264 26.16 50.6464 26.0693 50.2197 25.888C49.793 25.696 49.4197 25.44 49.0997 25.12C48.7904 24.7893 48.5397 24.4053 48.3477 23.968C48.1557 23.52 48.0384 23.0347 47.9957 22.512C47.9424 22.0213 47.9424 21.5307 47.9957 21.04ZM49.4197 21.088H53.9157V21.04C53.9157 20.3893 53.7077 19.872 53.2917 19.488C52.8864 19.0933 52.3424 18.896 51.6597 18.896C51.3504 18.896 51.0624 18.9493 50.7957 19.056C50.529 19.152 50.2944 19.296 50.0917 19.488C49.889 19.6693 49.729 19.8933 49.6117 20.16C49.4944 20.4267 49.4304 20.72 49.4197 21.04V21.088ZM56.6939 23.904C56.6939 23.4773 56.7793 23.104 56.9499 22.784C57.1206 22.464 57.3553 22.192 57.6539 21.968C57.9526 21.744 58.2993 21.5627 58.6939 21.424C59.0993 21.2853 59.5259 21.1787 59.9739 21.104L62.2299 20.736V20.528C62.2299 19.984 62.0486 19.5787 61.6859 19.312C61.3339 19.0347 60.8913 18.896 60.3579 18.896C59.8886 18.896 59.5313 18.9813 59.2859 19.152C59.0513 19.3227 58.8486 19.5253 58.6779 19.76C58.6139 19.8453 58.5446 19.904 58.4699 19.936C58.3953 19.968 58.2939 19.984 58.1659 19.984H57.6859C57.5686 19.984 57.4619 19.9413 57.3659 19.856C57.2806 19.7707 57.2433 19.6693 57.2539 19.552C57.2753 19.3173 57.3659 19.0773 57.5259 18.832C57.6966 18.5867 57.9206 18.368 58.1979 18.176C58.4859 17.984 58.8113 17.8293 59.1739 17.712C59.5473 17.584 59.9419 17.52 60.3579 17.52C60.8379 17.52 61.2806 17.5893 61.6859 17.728C62.1019 17.8667 62.4539 18.0693 62.7419 18.336C63.0406 18.6027 63.2699 18.9333 63.4299 19.328C63.6006 19.7227 63.6859 20.176 63.6859 20.688V25.568C63.6859 25.6853 63.6433 25.7867 63.5579 25.872C63.4726 25.9573 63.3713 26 63.2539 26H62.6619C62.5446 26 62.4433 25.9573 62.3579 25.872C62.2726 25.7867 62.2299 25.6853 62.2299 25.568V24.912C62.1339 25.1147 61.9846 25.296 61.7819 25.456C61.5793 25.6053 61.3446 25.7333 61.0779 25.84C60.8219 25.9467 60.5499 26.0267 60.2619 26.08C59.9846 26.1333 59.7233 26.16 59.4779 26.16C59.0619 26.16 58.6779 26.1013 58.3259 25.984C57.9846 25.8667 57.6913 25.712 57.4459 25.52C57.2113 25.3173 57.0246 25.0773 56.8859 24.8C56.7579 24.5227 56.6939 24.224 56.6939 23.904ZM59.6379 24.784C60.0219 24.784 60.3739 24.7253 60.6939 24.608C61.0139 24.4907 61.2859 24.3307 61.5099 24.128C61.7446 23.9147 61.9206 23.664 62.0379 23.376C62.1659 23.088 62.2299 22.768 62.2299 22.416V22.016L60.3419 22.32C59.6699 22.4267 59.1366 22.5973 58.7419 22.832C58.3473 23.0667 58.1499 23.3707 58.1499 23.744C58.1499 23.8613 58.1766 23.9787 58.2299 24.096C58.2833 24.2133 58.3686 24.3253 58.4859 24.432C58.6033 24.5387 58.7526 24.624 58.9339 24.688C59.1259 24.752 59.3606 24.784 59.6379 24.784ZM70.2443 17.68C70.3616 17.68 70.463 17.7227 70.5483 17.808C70.6336 17.8933 70.6763 17.9947 70.6763 18.112V18.624C70.6763 18.7413 70.6336 18.8427 70.5483 18.928C70.463 19.0133 70.3616 19.056 70.2443 19.056H69.3163C68.0896 19.056 67.4763 19.6693 67.4763 20.896V25.568C67.4763 25.6853 67.4336 25.7867 67.3483 25.872C67.263 25.9573 67.1616 26 67.0443 26H66.4523C66.335 26 66.2336 25.9573 66.1483 25.872C66.063 25.7867 66.0203 25.6853 66.0203 25.568V18.112C66.0203 17.9947 66.063 17.8933 66.1483 17.808C66.2336 17.7227 66.335 17.68 66.4523 17.68H67.0443C67.1616 17.68 67.263 17.7227 67.3483 17.808C67.4336 17.8933 67.4763 17.9947 67.4763 18.112V18.608C67.6896 18.288 67.9456 18.0533 68.2443 17.904C68.543 17.7547 68.9323 17.68 69.4123 17.68H70.2443ZM79.4592 25.568C79.4592 25.6853 79.4165 25.7867 79.3312 25.872C79.2459 25.9573 79.1445 26 79.0272 26H78.4352C78.3179 26 78.2165 25.9573 78.1312 25.872C78.0459 25.7867 78.0032 25.6853 78.0032 25.568V21.344C78.0032 20.5227 77.8059 19.9093 77.4112 19.504C77.0165 19.0987 76.4672 18.896 75.7632 18.896C75.0912 18.896 74.5472 19.0987 74.1312 19.504C73.7259 19.9093 73.5232 20.5227 73.5232 21.344V25.568C73.5232 25.6853 73.4805 25.7867 73.3952 25.872C73.3099 25.9573 73.2085 26 73.0912 26H72.4992C72.3819 26 72.2805 25.9573 72.1952 25.872C72.1099 25.7867 72.0672 25.6853 72.0672 25.568V18.112C72.0672 17.9947 72.1099 17.8933 72.1952 17.808C72.2805 17.7227 72.3819 17.68 72.4992 17.68H73.0912C73.2085 17.68 73.3099 17.7227 73.3952 17.808C73.4805 17.8933 73.5232 17.9947 73.5232 18.112V18.608C73.7259 18.3413 74.0245 18.096 74.4192 17.872C74.8245 17.6373 75.3525 17.52 76.0032 17.52C76.5045 17.52 76.9685 17.6053 77.3952 17.776C77.8219 17.936 78.1845 18.1707 78.4832 18.48C78.7925 18.7787 79.0325 19.152 79.2032 19.6C79.3739 20.048 79.4592 20.5493 79.4592 21.104V25.568ZM87.1482 18.608C87.2442 18.48 87.3562 18.352 87.4842 18.224C87.6122 18.0853 87.7562 17.968 87.9162 17.872C88.0869 17.7653 88.2842 17.68 88.5082 17.616C88.7322 17.552 88.9935 17.52 89.2922 17.52C89.9429 17.52 90.4815 17.6427 90.9082 17.888C91.3349 18.1227 91.6709 18.464 91.9162 18.912C92.0549 18.72 92.1989 18.5387 92.3482 18.368C92.5082 18.1973 92.6895 18.048 92.8922 17.92C93.1055 17.792 93.3402 17.696 93.5962 17.632C93.8629 17.5573 94.1722 17.52 94.5242 17.52C95.6015 17.52 96.3855 17.8453 96.8762 18.496C97.3669 19.136 97.6122 20.016 97.6122 21.136V25.568C97.6122 25.6853 97.5695 25.7867 97.4842 25.872C97.3989 25.9573 97.2975 26 97.1802 26H96.5882C96.4709 26 96.3695 25.9573 96.2842 25.872C96.1989 25.7867 96.1562 25.6853 96.1562 25.568V21.296C96.1562 20.4747 95.9962 19.872 95.6762 19.488C95.3562 19.0933 94.8869 18.896 94.2682 18.896C93.7029 18.896 93.2442 19.0827 92.8922 19.456C92.5509 19.8293 92.3802 20.4053 92.3802 21.184V25.568C92.3802 25.6853 92.3375 25.7867 92.2522 25.872C92.1669 25.9573 92.0655 26 91.9482 26H91.3562C91.2389 26 91.1375 25.9573 91.0522 25.872C90.9669 25.7867 90.9242 25.6853 90.9242 25.568V21.296C90.9242 20.4747 90.7642 19.872 90.4442 19.488C90.1242 19.0933 89.6549 18.896 89.0362 18.896C88.4709 18.896 88.0122 19.0827 87.6602 19.456C87.3189 19.8293 87.1482 20.4053 87.1482 21.184V25.568C87.1482 25.6853 87.1055 25.7867 87.0202 25.872C86.9349 25.9573 86.8335 26 86.7162 26H86.1242C86.0069 26 85.9055 25.9573 85.8202 25.872C85.7349 25.7867 85.6922 25.6853 85.6922 25.568V18.112C85.6922 17.9947 85.7349 17.8933 85.8202 17.808C85.9055 17.7227 86.0069 17.68 86.1242 17.68H86.7162C86.8335 17.68 86.9349 17.7227 87.0202 17.808C87.1055 17.8933 87.1482 17.9947 87.1482 18.112V18.608ZM103.335 17.52C103.911 17.52 104.423 17.6107 104.871 17.792C105.319 17.9627 105.703 18.2027 106.023 18.512C106.343 18.8213 106.593 19.2 106.775 19.648C106.967 20.0853 107.084 20.5653 107.127 21.088C107.137 21.184 107.143 21.3013 107.143 21.44C107.143 21.568 107.143 21.7067 107.143 21.856C107.143 21.9947 107.143 22.1333 107.143 22.272C107.143 22.4 107.137 22.5067 107.127 22.592C107.073 23.1253 106.956 23.6107 106.775 24.048C106.593 24.4853 106.343 24.8587 106.023 25.168C105.703 25.4773 105.319 25.7227 104.871 25.904C104.423 26.0747 103.911 26.16 103.335 26.16C102.759 26.16 102.247 26.0747 101.799 25.904C101.351 25.7227 100.967 25.4773 100.647 25.168C100.327 24.8587 100.071 24.4853 99.8786 24.048C99.6972 23.6107 99.5852 23.1253 99.5426 22.592C99.5319 22.5067 99.5212 22.4 99.5106 22.272C99.5106 22.1333 99.5106 21.9947 99.5106 21.856C99.5106 21.7067 99.5106 21.568 99.5106 21.44C99.5212 21.3013 99.5319 21.184 99.5426 21.088C99.5852 20.5653 99.6972 20.0853 99.8786 19.648C100.071 19.2 100.327 18.8213 100.647 18.512C100.967 18.2027 101.351 17.9627 101.799 17.792C102.247 17.6107 102.759 17.52 103.335 17.52ZM105.671 22.512C105.692 22.3307 105.703 22.112 105.703 21.856C105.703 21.5893 105.692 21.36 105.671 21.168C105.639 20.848 105.569 20.5493 105.463 20.272C105.356 19.9947 105.207 19.7547 105.015 19.552C104.823 19.3493 104.588 19.1893 104.311 19.072C104.033 18.9547 103.708 18.896 103.335 18.896C102.961 18.896 102.636 18.9547 102.359 19.072C102.081 19.1893 101.847 19.3493 101.655 19.552C101.463 19.7547 101.313 19.9947 101.207 20.272C101.1 20.5493 101.031 20.848 100.999 21.168C100.977 21.36 100.967 21.5893 100.967 21.856C100.967 22.112 100.977 22.3307 100.999 22.512C101.031 22.832 101.1 23.1307 101.207 23.408C101.313 23.6853 101.463 23.9253 101.655 24.128C101.847 24.3307 102.081 24.4907 102.359 24.608C102.636 24.7253 102.961 24.784 103.335 24.784C103.708 24.784 104.033 24.7253 104.311 24.608C104.588 24.4907 104.823 24.3307 105.015 24.128C105.207 23.9253 105.356 23.6853 105.463 23.408C105.569 23.1307 105.639 22.832 105.671 22.512ZM113.385 17.68C113.502 17.68 113.604 17.7227 113.689 17.808C113.774 17.8933 113.817 17.9947 113.817 18.112V18.624C113.817 18.7413 113.774 18.8427 113.689 18.928C113.604 19.0133 113.502 19.056 113.385 19.056H112.457C111.23 19.056 110.617 19.6693 110.617 20.896V25.568C110.617 25.6853 110.574 25.7867 110.489 25.872C110.404 25.9573 110.302 26 110.185 26H109.593C109.476 26 109.374 25.9573 109.289 25.872C109.204 25.7867 109.161 25.6853 109.161 25.568V18.112C109.161 17.9947 109.204 17.8933 109.289 17.808C109.374 17.7227 109.476 17.68 109.593 17.68H110.185C110.302 17.68 110.404 17.7227 110.489 17.808C110.574 17.8933 110.617 17.9947 110.617 18.112V18.608C110.83 18.288 111.086 18.0533 111.385 17.904C111.684 17.7547 112.073 17.68 112.553 17.68H113.385ZM114.652 21.04C114.695 20.5493 114.812 20.0907 115.004 19.664C115.196 19.2373 115.447 18.864 115.756 18.544C116.065 18.224 116.433 17.9733 116.86 17.792C117.297 17.6107 117.783 17.52 118.316 17.52C118.892 17.52 119.404 17.616 119.852 17.808C120.311 17.9893 120.7 18.256 121.02 18.608C121.34 18.96 121.585 19.3867 121.756 19.888C121.927 20.3893 122.012 20.9493 122.012 21.568V22C122.012 22.1173 121.969 22.2187 121.884 22.304C121.799 22.3893 121.697 22.432 121.58 22.432H116.076V22.528C116.097 23.2533 116.316 23.8133 116.732 24.208C117.159 24.592 117.687 24.784 118.316 24.784C118.903 24.784 119.34 24.704 119.628 24.544C119.927 24.3733 120.167 24.1867 120.348 23.984C120.433 23.8987 120.508 23.84 120.572 23.808C120.636 23.776 120.732 23.76 120.86 23.76H121.34C121.457 23.76 121.564 23.8027 121.66 23.888C121.756 23.9733 121.793 24.0747 121.772 24.192C121.74 24.384 121.649 24.5973 121.5 24.832C121.351 25.056 121.132 25.2693 120.844 25.472C120.567 25.664 120.215 25.8293 119.788 25.968C119.372 26.096 118.881 26.16 118.316 26.16C117.783 26.16 117.303 26.0693 116.876 25.888C116.449 25.696 116.076 25.44 115.756 25.12C115.447 24.7893 115.196 24.4053 115.004 23.968C114.812 23.52 114.695 23.0347 114.652 22.512C114.599 22.0213 114.599 21.5307 114.652 21.04ZM116.076 21.088H120.572V21.04C120.572 20.3893 120.364 19.872 119.948 19.488C119.543 19.0933 118.999 18.896 118.316 18.896C118.007 18.896 117.719 18.9493 117.452 19.056C117.185 19.152 116.951 19.296 116.748 19.488C116.545 19.6693 116.385 19.8933 116.268 20.16C116.151 20.4267 116.087 20.72 116.076 21.04V21.088Z" fill="#412D22"/>
</svg>
