<svg style="display: none;" xmlns="http://www.w3.org/2000/svg">
  <symbol id="icon-arrow-right" viewBox="0 0 24 24">
    <path d="M18.258 10.5l-8.046-8.046 2.121-2.121 11.667 11.667-11.667 11.667-2.121-2.121 8.046-8.046h-18.258v-3h18.258z"/>
  </symbol>

  <symbol id="icon-cookie" viewBox="0 0 24 24">
  <path d="M21.942 11.993c-2.733-0.033-4.94-2.253-4.94-4.994-2.741 0-4.961-2.207-4.995-4.939-1.065-0.162-2.153 0.012-3.114 0.501l-2.7 1.376c-0.972 0.495-1.762 1.286-2.257 2.258l-1.371 2.691c-0.497 0.975-0.672 2.082-0.501 3.162l0.472 2.979c0.171 1.079 0.679 2.077 1.452 2.85l2.139 2.139c0.77 0.77 1.764 1.277 2.84 1.448l2.996 0.475c1.075 0.17 2.176-0.004 3.146-0.498l2.7-1.375c0.972-0.495 1.762-1.286 2.257-2.258l1.371-2.691c0.491-0.963 0.664-2.054 0.504-3.121zM8.875 16.374c-0.69 0-1.25-0.56-1.25-1.25s0.56-1.25 1.25-1.25 1.25 0.56 1.25 1.25c0 0.69-0.56 1.25-1.25 1.25zM10.125 10.125c-0.69 0-1.25-0.56-1.25-1.25s0.56-1.25 1.25-1.25c0.69 0 1.25 0.56 1.25 1.25s-0.56 1.25-1.25 1.25zM16.375 15.125c-0.69 0-1.25-0.56-1.25-1.25s0.56-1.25 1.25-1.25c0.69 0 1.25 0.56 1.25 1.25s-0.56 1.25-1.25 1.25z"></path>
  </symbol>

  <symbol id="icon-instagram" viewBox="0 0 24 24">
    <path d="M12 2c2.717 0 3.056 0.010 4.122 0.060 1.065 0.050 1.79 0.217 2.428 0.465 0.66 0.254 1.216 0.598 1.772 1.153 0.509 0.5 0.902 1.105 1.153 1.772 0.247 0.637 0.415 1.363 0.465 2.428 0.047 1.066 0.060 1.405 0.060 4.122s-0.010 3.056-0.060 4.122c-0.050 1.065-0.218 1.79-0.465 2.428-0.25 0.668-0.644 1.273-1.153 1.772-0.5 0.508-1.105 0.902-1.772 1.153-0.637 0.247-1.363 0.415-2.428 0.465-1.066 0.047-1.405 0.060-4.122 0.060s-3.056-0.010-4.122-0.060c-1.065-0.050-1.79-0.218-2.428-0.465-0.668-0.25-1.272-0.644-1.772-1.153-0.509-0.5-0.902-1.104-1.153-1.772-0.248-0.637-0.415-1.363-0.465-2.428-0.047-1.066-0.060-1.405-0.060-4.122s0.010-3.056 0.060-4.122c0.050-1.066 0.217-1.79 0.465-2.428 0.25-0.668 0.644-1.273 1.153-1.772 0.5-0.509 1.104-0.902 1.772-1.153 0.638-0.248 1.362-0.415 2.428-0.465 1.066-0.047 1.405-0.060 4.122-0.060zM12 7c-1.326 0-2.598 0.527-3.536 1.464s-1.464 2.209-1.464 3.536c0 1.326 0.527 2.598 1.464 3.536s2.209 1.464 3.536 1.464 2.598-0.527 3.535-1.464c0.938-0.938 1.464-2.209 1.464-3.536s-0.527-2.598-1.464-3.536c-0.938-0.938-2.209-1.464-3.536-1.464zM18.5 6.75c0-0.332-0.132-0.649-0.366-0.884s-0.552-0.366-0.884-0.366c-0.331 0-0.649 0.132-0.884 0.366s-0.366 0.552-0.366 0.884c0 0.332 0.132 0.649 0.366 0.884s0.552 0.366 0.884 0.366c0.331 0 0.649-0.132 0.884-0.366s0.366-0.552 0.366-0.884zM12 9c0.796 0 1.559 0.316 2.121 0.879s0.879 1.326 0.879 2.121c0 0.796-0.316 1.559-0.879 2.121s-1.326 0.879-2.121 0.879c-0.796 0-1.559-0.316-2.121-0.879s-0.879-1.326-0.879-2.121c0-0.796 0.316-1.559 0.879-2.121s1.326-0.879 2.121-0.879z"></path>
  </symbol>

  <symbol id="icon-facebook" viewBox="0 0 24 24">
  <path d="M14 13.5h2.5l1-4h-3.5v-2c0-1.030 0-2 2-2h1.5v-3.36c-0.326-0.043-1.557-0.14-2.857-0.14-2.715 0-4.643 1.657-4.643 4.7v2.8h-3v4h3v8.5h4v-8.5z"></path>
  </symbol>

  <symbol id="icon-twitter" viewBox="0 0 24 24">
  <path d="M22.162 5.656c-0.763 0.338-1.573 0.559-2.402 0.658 0.874-0.523 1.528-1.345 1.84-2.314-0.82 0.488-1.719 0.83-2.656 1.015-0.629-0.673-1.464-1.12-2.373-1.27s-1.843 0.004-2.656 0.439c-0.813 0.435-1.459 1.126-1.838 1.966s-0.47 1.782-0.259 2.679c-1.663-0.083-3.29-0.515-4.775-1.268s-2.795-1.81-3.845-3.102c-0.372 0.638-0.567 1.364-0.566 2.103 0 1.45 0.738 2.731 1.86 3.481-0.664-0.021-1.313-0.2-1.894-0.523v0.052c0 0.966 0.334 1.902 0.946 2.649s1.463 1.26 2.409 1.452c-0.616 0.167-1.263 0.192-1.89 0.072 0.267 0.831 0.787 1.558 1.488 2.079s1.547 0.81 2.419 0.826c-0.868 0.681-1.861 1.185-2.923 1.482s-2.173 0.382-3.268 0.25c1.912 1.23 4.137 1.882 6.41 1.88 7.693 0 11.9-6.373 11.9-11.9 0-0.18-0.005-0.362-0.013-0.54 0.819-0.592 1.526-1.325 2.087-2.165l-0.001-0.001z"></path>
  </symbol>
</svg>
