<?xml version="1.0" encoding="utf-8"?><svg xmlns="http://www.w3.org/2000/svg" xmlns:xlink="http://www.w3.org/1999/xlink"><symbol viewBox="0 0 24 24" id="arrow-icon" xmlns="http://www.w3.org/2000/svg"><path d="m16.172 11-5.364-5.364 1.414-1.414L20 12l-7.778 7.778-1.414-1.414L16.172 13H4v-2h12.172Z"/></symbol><symbol viewBox="0 0 24 24" id="cookie-icon" xmlns="http://www.w3.org/2000/svg"><path d="M21.942 11.993a4.997 4.997 0 0 1-4.94-4.995 4.997 4.997 0 0 1-4.995-4.94 5.155 5.155 0 0 0-3.114.502l-2.7 1.375a5.165 5.165 0 0 0-2.257 2.258L2.565 8.884a5.181 5.181 0 0 0-.501 3.162l.472 2.98a5.177 5.177 0 0 0 1.451 2.85l2.14 2.138a5.157 5.157 0 0 0 2.84 1.448l2.996.474a5.153 5.153 0 0 0 3.146-.498l2.7-1.375a5.167 5.167 0 0 0 2.258-2.258l1.37-2.691a5.18 5.18 0 0 0 .505-3.121ZM8.875 16.375a1.25 1.25 0 1 1 0-2.5 1.25 1.25 0 0 1 0 2.5Zm1.25-6.25a1.25 1.25 0 1 1 0-2.5 1.25 1.25 0 0 1 0 2.5Zm6.25 5a1.25 1.25 0 1 1 0-2.5 1.25 1.25 0 0 1 0 2.5Z"/></symbol><symbol viewBox="0 0 24 24" id="facebook-icon" xmlns="http://www.w3.org/2000/svg"><path d="M14 13.5h2.5l1-4H14v-2c0-1.03 0-2 2-2h1.5V2.14c-.326-.043-1.557-.14-2.857-.14C11.928 2 10 3.657 10 6.7v2.8H7v4h3V22h4v-8.5Z"/></symbol><symbol viewBox="0 0 24 24" id="instagram-icon" xmlns="http://www.w3.org/2000/svg"><path d="M12 2c2.717 0 3.056.01 4.122.06 1.065.05 1.79.217 2.428.465.66.254 1.216.598 1.772 1.153.509.5.902 1.105 1.153 1.772.247.637.415 1.363.465 2.428.047 1.066.06 1.405.06 4.122 0 2.717-.01 3.056-.06 4.122-.05 1.065-.218 1.79-.465 2.428a4.883 4.883 0 0 1-1.153 1.772c-.5.508-1.105.902-1.772 1.153-.637.247-1.363.415-2.428.465-1.066.047-1.405.06-4.122.06-2.717 0-3.056-.01-4.122-.06-1.065-.05-1.79-.218-2.428-.465a4.89 4.89 0 0 1-1.772-1.153 4.904 4.904 0 0 1-1.153-1.772c-.248-.637-.415-1.363-.465-2.428C2.013 15.056 2 14.717 2 12c0-2.717.01-3.056.06-4.122.05-1.066.217-1.79.465-2.428a4.88 4.88 0 0 1 1.153-1.772A4.897 4.897 0 0 1 5.45 2.525c.638-.248 1.362-.415 2.428-.465C8.944 2.013 9.283 2 12 2Zm0 5a5 5 0 1 0 0 10 5 5 0 0 0 0-10Zm6.5-.25a1.25 1.25 0 1 0-2.5 0 1.25 1.25 0 0 0 2.5 0ZM12 9a3 3 0 1 1 0 6 3 3 0 0 1 0-6Z"/></symbol><symbol viewBox="0 0 168 40" id="logo" xmlns="http://www.w3.org/2000/svg"><path d="M18.32 20.4c.8 0 7.16-.96 7.16-6.92 0-7.04-5.2-6.8-10.76-6.8H5V7c1.76 0 2.32 2.72 2.32 5.2v17.16c0 2.72-.6 5.12-2.32 5.12v.36h9.72c6.92 0 12.64-.16 12.64-7.16 0-6.84-6.44-7.28-9.04-7.28Zm-3.6-13.04c1.88 0 5.2.08 5.2 6.04 0 5.92-3.04 6.84-5.2 6.84h-1.56V7.36h1.56Zm0 26.8h-1.56V20.92h1.56c2.68 0 6.76.2 6.76 6.56 0 6.76-3.28 6.68-6.76 6.68ZM41.184 30.72c-.36.96-1.28 2.04-2.64 2.04-2.6 0-2.6-2.64-2.6-2.64 0-2.04 1.32-3.92 5.24-4.8v5.4Zm6.96 2.04c-1.96 0-1.92-2.8-1.92-2.8V24c0-4.72-1.44-8-6.68-8 0 0-2.08-.16-3.88.8-2.2 1.16-2.72 2.24-3.12 2.92-.4.68-.36 1.64.12 2.4.72 1.04 2.12 1.28 3.16.6 1.04-.72 1.32-2.12.6-3.16-.36-.52-.88-.8-1.48-.88-.28-.04-.12-.72 1.16-1.36 2.76-1.44 5.08.64 5.08 4.8v2.48c-7 1.76-10.36 2.16-10.36 6.52 0 4.08 4.6 4.08 4.6 4.08 2.84 0 5.2-1.48 5.8-3.24.44 3.24 4 3.24 4 3.24 2.52 0 4.36-1.56 4.68-2.84l-.68-.28c-.24.68-1.08.68-1.08.68ZM57.678 30V5l-7 1.48v.68c1.6.6 2 1.2 2 2.6V30c0 2.04-.08 3.72-1.6 4.16v.68h8.24v-.68c-1.44-.36-1.64-1.96-1.64-4.16Zm10.68 2.16s-.08 0-6-8.36c5.32-6.56 9.4-6.68 10.12-6.76v-.68h-9.72v.68c5.2-.16-.52 5.64-.52 5.64l-3.76 4.08s1.04 1.6 2.24 3.36c2.68 4 3.04 4.72 5.8 4.72h5.64v-.68c-.68-.04-2.48-.16-3.8-2ZM77.62 24.56c0-3.84 1.64-7.88 4-7.88 2.2 0 3.84 2.84 3.84 7.88h-7.84Zm4.2-8.56c-5.52 0-9.36 4.04-9.36 9.68 0 4.68 3.6 9.52 8.84 9.52 5.36 0 7.72-3.16 8.36-5.24l-.68-.36c-1 1.88-4.2 2.68-6.36 2.2-2.68-.6-4.68-2.64-5-6.56h12.72c0-6.24-2.72-9.24-8.52-9.24ZM104.317 16.2c-.96.4-2.6 1-4.72 4.32V16l-7.04 1.6v.68c1.64.84 2 1.44 2 2.8v8.88c0 2.08-.04 3.72-1.6 4.2v.68h8.28v-.68c-1.44-.4-1.64-1.96-1.64-4.2v-8.32c1.48-2.4 3.12-2.8 3.12-2.36 0 .72.32 1.4.92 1.96 1.28 1.08 3.12.92 4.2-.32 1.08-1.2.96-3.12-.28-4.2-.88-.72-2.4-.88-3.24-.52ZM116.909 30V5l-7 1.48v.68c1.6.6 2 1.2 2 2.6V30c0 2.04-.08 3.72-1.6 4.16v.68h8.2v-.68c-1.4-.36-1.6-1.96-1.6-4.16ZM131.575 30.72c-.36.96-1.28 2.04-2.64 2.04-2.6 0-2.6-2.64-2.6-2.64 0-2.04 1.32-3.92 5.24-4.8v5.4Zm6.96 2.04c-1.96 0-1.92-2.8-1.92-2.8V24c0-4.72-1.44-8-6.68-8 0 0-2.08-.16-3.88.8-2.2 1.16-2.72 2.24-3.12 2.92-.4.68-.36 1.64.12 2.4.72 1.04 2.12 1.28 3.16.6 1.04-.72 1.32-2.12.6-3.16-.36-.52-.88-.8-1.48-.88-.28-.04-.12-.72 1.16-1.36 2.76-1.44 5.08.64 5.08 4.8v2.48c-7 1.76-10.36 2.16-10.36 6.52 0 4.08 4.6 4.08 4.6 4.08 2.84 0 5.2-1.48 5.8-3.24.44 3.24 4 3.24 4 3.24 2.52 0 4.36-1.56 4.68-2.84l-.68-.28c-.24.68-1.08.68-1.08.68ZM152.988 34.52c-2.28 0-4.76-1.64-4.76-6.68v-5.08c0-2.84 1.44-5.08 4.16-5.08 3.28 0 4.76 2.08 4.76 8.48 0 6.12-1.24 8.36-4.16 8.36Zm1.4-18.52c-1.92 0-4.88 1-6.16 3.4V5l-7 1.48v.68c1.64.6 2.04 1.2 2.04 2.56v24.92c0 .64 2.48-.24 3.92-1.48 1.32 1.32 3.44 2.04 5.84 2.04 5.6 0 9.84-2.92 9.84-9.36 0-6.32-4-9.84-8.48-9.84Z"/></symbol><symbol viewBox="0 0 24 24" id="phone-icon" xmlns="http://www.w3.org/2000/svg"><path d="M21 16.42v3.536a1 1 0 0 1-.93.998c-.437.03-.794.046-1.07.046-8.837 0-16-7.163-16-16 0-.276.015-.633.046-1.07A1 1 0 0 1 4.044 3H7.58a.5.5 0 0 1 .498.45c.023.23.044.413.064.552A13.9 13.9 0 0 0 9.35 8.003c.095.2.033.439-.147.567l-2.158 1.542a13.047 13.047 0 0 0 6.844 6.844l1.54-2.154a.462.462 0 0 1 .573-.149 13.9 13.9 0 0 0 4 1.205c.139.02.322.042.55.064a.5.5 0 0 1 .449.498H21Z"/></symbol><symbol viewBox="0 0 24 24" id="twitter-icon" xmlns="http://www.w3.org/2000/svg"><path d="M22.162 5.656a8.383 8.383 0 0 1-2.402.658A4.196 4.196 0 0 0 21.6 4c-.82.488-1.72.83-2.656 1.015a4.182 4.182 0 0 0-7.126 3.814 11.874 11.874 0 0 1-8.62-4.37 4.168 4.168 0 0 0-.566 2.103c0 1.45.738 2.731 1.86 3.481a4.168 4.168 0 0 1-1.894-.523v.052a4.185 4.185 0 0 0 3.355 4.101 4.209 4.209 0 0 1-1.89.072A4.185 4.185 0 0 0 7.97 16.65a8.393 8.393 0 0 1-6.191 1.732 11.829 11.829 0 0 0 6.41 1.88c7.693 0 11.9-6.373 11.9-11.9 0-.18-.005-.362-.013-.54a8.495 8.495 0 0 0 2.087-2.165l-.001-.001Z"/></symbol></svg>