<svg width="31" height="31" viewBox="0 0 31 31" fill="none" xmlns="http://www.w3.org/2000/svg">
<path d="M15.5 31C24.0604 31 31 24.0604 31 15.5C31 6.93959 24.0604 0 15.5 0C6.93959 0 0 6.93959 0 15.5C0 24.0604 6.93959 31 15.5 31Z" fill="white"/>
<path d="M24.9936 11.1388C24.3294 11.4333 23.6149 11.6326 22.8655 11.7215C23.6306 11.2631 24.2178 10.5378 24.4949 9.67215C23.779 10.0968 22.9857 10.4049 22.1422 10.571C21.4663 9.8512 20.5034 9.40137 19.4372 9.40137C17.3914 9.40137 15.7322 11.0606 15.7322 13.1064C15.7322 13.3968 15.7651 13.6794 15.8287 13.9508C12.7496 13.7963 10.0194 12.3214 8.19196 10.0791C7.8731 10.6262 7.69019 11.2631 7.69019 11.942C7.69019 13.2271 8.34475 14.3616 9.33834 15.0259C8.7313 15.0068 8.15963 14.8402 7.66035 14.562C7.66008 14.5777 7.66008 14.5935 7.66008 14.6089C7.66008 16.4041 8.9377 17.9014 10.6323 18.2416C10.3217 18.3267 9.99372 18.3717 9.65636 18.3717C9.41708 18.3717 9.18526 18.3488 8.95925 18.3057C9.43062 19.7773 10.7986 20.8485 12.4202 20.8786C11.152 21.8725 9.55468 22.4646 7.8184 22.4646C7.51999 22.4646 7.22435 22.4472 6.93506 22.4127C8.57381 23.4643 10.5217 24.0775 12.6139 24.0775C19.4286 24.0775 23.1554 18.4319 23.1554 13.5355C23.1554 13.3749 23.1518 13.215 23.1446 13.0564C23.8691 12.5341 24.4971 11.8818 24.9936 11.1388Z" fill="#412D22"/>
</svg>
