<svg width="22" height="18" viewBox="0 0 22 18" fill="none" xmlns="http://www.w3.org/2000/svg">
<path d="M21.1623 2.65605C20.3989 2.99374 19.5893 3.21552 18.7603 3.31405C19.634 2.79148 20.288 1.96906 20.6003 1.00005C19.7803 1.48805 18.8813 1.83005 17.9443 2.01505C17.3149 1.34163 16.4807 0.895012 15.5713 0.744633C14.6618 0.594255 13.7282 0.74854 12.9156 1.1835C12.1029 1.61846 11.4567 2.30973 11.0774 3.14984C10.6981 3.98995 10.607 4.93183 10.8183 5.82905C9.15541 5.7457 7.52863 5.31357 6.04358 4.56071C4.55854 3.80785 3.24842 2.7511 2.1983 1.45905C1.82659 2.0975 1.63125 2.82328 1.6323 3.56205C1.6323 5.01205 2.3703 6.29305 3.4923 7.04305C2.82831 7.02215 2.17893 6.84283 1.5983 6.52005V6.57205C1.5985 7.53775 1.93267 8.47366 2.54414 9.22111C3.15562 9.96855 4.00678 10.4815 4.9533 10.673C4.33691 10.8401 3.6906 10.8647 3.0633 10.745C3.33016 11.5763 3.8503 12.3032 4.55089 12.8242C5.25147 13.3451 6.09742 13.6338 6.9703 13.65C6.10278 14.3314 5.10947 14.835 4.04718 15.1322C2.98488 15.4294 1.87442 15.5143 0.779297 15.382C2.69099 16.6115 4.91639 17.2642 7.1893 17.262C14.8823 17.262 19.0893 10.889 19.0893 5.36205C19.0893 5.18205 19.0843 5.00005 19.0763 4.82205C19.8952 4.23022 20.6019 3.49707 21.1633 2.65705L21.1623 2.65605Z" fill="#F9512E"/>
</svg>
