<svg width="22" height="18" viewBox="0 0 22 18" fill="none" xmlns="http://www.w3.org/2000/svg">
<path d="M21.1618 2.65593C20.3984 2.99362 19.5888 3.2154 18.7598 3.31393C19.6336 2.79136 20.2875 1.96894 20.5998 0.999927C19.7798 1.48793 18.8808 1.82993 17.9438 2.01493C17.3144 1.34151 16.4802 0.89489 15.5708 0.744511C14.6614 0.594133 13.7277 0.748418 12.9151 1.18338C12.1024 1.61834 11.4562 2.30961 11.0769 3.14972C10.6976 3.98983 10.6066 4.93171 10.8178 5.82893C9.15492 5.74558 7.52814 5.31345 6.0431 4.56059C4.55805 3.80773 3.24794 2.75097 2.19781 1.45893C1.8261 2.09738 1.63076 2.82315 1.63181 3.56193C1.63181 5.01193 2.36981 6.29293 3.49181 7.04293C2.82782 7.02202 2.17844 6.84271 1.59781 6.51993V6.57193C1.59801 7.53763 1.93218 8.47354 2.54366 9.22099C3.15513 9.96843 4.00629 10.4814 4.95281 10.6729C4.33642 10.84 3.69012 10.8646 3.06281 10.7449C3.32968 11.5762 3.84982 12.3031 4.5504 12.824C5.25099 13.3449 6.09694 13.6337 6.96981 13.6499C6.10229 14.3313 5.10899 14.8349 4.04669 15.1321C2.98439 15.4293 1.87394 15.5142 0.778809 15.3819C2.69051 16.6114 4.9159 17.264 7.18881 17.2619C14.8818 17.2619 19.0888 10.8889 19.0888 5.36193C19.0888 5.18193 19.0838 4.99993 19.0758 4.82193C19.8947 4.23009 20.6014 3.49695 21.1628 2.65693L21.1618 2.65593Z" fill="#F9512E"/>
</svg>
