<svg width="19" height="16" viewBox="0 0 19 16" fill="none" xmlns="http://www.w3.org/2000/svg">
<path d="M18.9936 2.13928C18.3294 2.43382 17.6149 2.63304 16.8655 2.72201C17.6306 2.26362 18.2178 1.53831 18.4949 0.672637C17.779 1.09732 16.9857 1.40541 16.1422 1.57147C15.4663 0.851685 14.5034 0.401855 13.4372 0.401855C11.3914 0.401855 9.73225 2.06108 9.73225 4.10687C9.73225 4.39727 9.76513 4.67993 9.82868 4.95126C6.74956 4.79681 4.01942 3.32188 2.19196 1.07964C1.8731 1.62673 1.69019 2.26362 1.69019 2.9425C1.69019 4.22761 2.34475 5.36213 3.33834 6.02638C2.7313 6.00731 2.15963 5.8407 1.66035 5.56246C1.66008 5.57821 1.66008 5.59395 1.66008 5.60943C1.66008 7.4046 2.9377 8.90191 4.63226 9.24205C4.3217 9.32715 3.99372 9.37218 3.65636 9.37218C3.41708 9.37218 3.18526 9.34925 2.95925 9.30615C3.43062 10.7778 4.79859 11.849 6.42021 11.8791C5.15198 12.873 3.55468 13.4651 1.8184 13.4651C1.51999 13.4651 1.22435 13.4477 0.935059 13.4132C2.57381 14.4648 4.52174 15.0779 6.6139 15.0779C13.4286 15.0779 17.1554 9.43242 17.1554 4.53597C17.1554 4.37544 17.1518 4.21546 17.1446 4.05685C17.8691 3.53463 18.4971 2.88227 18.9936 2.13928Z" fill="#412D22"/>
</svg>
