<svg width="31" height="31" viewBox="0 0 31 31" fill="none" xmlns="http://www.w3.org/2000/svg">
<path d="M15.5 31.0005C24.0604 31.0005 31 24.0609 31 15.5005C31 6.94007 24.0604 0.000488281 15.5 0.000488281C6.93959 0.000488281 0 6.94007 0 15.5005C0 24.0609 6.93959 31.0005 15.5 31.0005Z" fill="white"/>
<path d="M24.9936 11.1393C24.3294 11.4338 23.6149 11.633 22.8655 11.722C23.6306 11.2636 24.2178 10.5383 24.4949 9.67264C23.779 10.0973 22.9857 10.4054 22.1422 10.5715C21.4663 9.85168 20.5034 9.40186 19.4372 9.40186C17.3914 9.40186 15.7322 11.0611 15.7322 13.1069C15.7322 13.3973 15.7651 13.6799 15.8287 13.9513C12.7496 13.7968 10.0194 12.3219 8.19196 10.0796C7.8731 10.6267 7.69019 11.2636 7.69019 11.9425C7.69019 13.2276 8.34475 14.3621 9.33834 15.0264C8.7313 15.0073 8.15963 14.8407 7.66035 14.5625C7.66008 14.5782 7.66008 14.594 7.66008 14.6094C7.66008 16.4046 8.9377 17.9019 10.6323 18.242C10.3217 18.3271 9.99372 18.3722 9.65636 18.3722C9.41708 18.3722 9.18526 18.3493 8.95925 18.3061C9.43062 19.7778 10.7986 20.849 12.4202 20.8791C11.152 21.873 9.55468 22.4651 7.8184 22.4651C7.51999 22.4651 7.22435 22.4477 6.93506 22.4132C8.57381 23.4648 10.5217 24.0779 12.6139 24.0779C19.4286 24.0779 23.1554 18.4324 23.1554 13.536C23.1554 13.3754 23.1518 13.2155 23.1446 13.0569C23.8691 12.5346 24.4971 11.8823 24.9936 11.1393Z" fill="#412D22"/>
</svg>
