<svg width="31" height="31" viewBox="0 0 31 31" fill="none" xmlns="http://www.w3.org/2000/svg">
<path d="M15.5 31C24.0604 31 31 24.0604 31 15.5C31 6.93959 24.0604 0 15.5 0C6.93959 0 0 6.93959 0 15.5C0 24.0604 6.93959 31 15.5 31Z" fill="#E39A3B"/>
<path d="M25.0586 10.7374C24.3943 11.0319 23.6798 11.2311 22.9305 11.3201C23.6956 10.8617 24.2827 10.1364 24.5598 9.27078C23.8439 9.69545 23.0507 10.0035 22.2071 10.1696C21.5313 9.44982 20.5684 9 19.5021 9C17.4564 9 15.7972 10.6592 15.7972 12.7049C15.7972 12.9953 15.8301 13.278 15.8936 13.5493C12.8145 13.3949 10.0844 11.92 8.2569 9.67777C7.93805 10.2248 7.75513 10.8617 7.75513 11.5406C7.75513 12.8257 8.40969 13.9602 9.40328 14.6244C8.79624 14.6053 8.22457 14.4387 7.72529 14.1605C7.72502 14.1762 7.72502 14.192 7.72502 14.2075C7.72502 16.0026 9.00264 17.4999 10.6972 17.84C10.3866 17.9251 10.0587 17.9702 9.7213 17.9702C9.48202 17.9702 9.2502 17.9472 9.02419 17.9041C9.49556 19.3757 10.8635 20.4469 12.4852 20.477C11.2169 21.4709 9.61962 22.063 7.88334 22.063C7.58493 22.063 7.28929 22.0456 7 22.0111C8.63875 23.0627 10.5867 23.6758 12.6788 23.6758C19.4936 23.6758 23.2203 18.0304 23.2203 13.134C23.2203 12.9735 23.2167 12.8135 23.2095 12.6549C23.934 12.1327 24.562 11.4804 25.0586 10.7374Z" fill="#412D22"/>
</svg>
