<svg width="31" height="31" viewBox="0 0 31 31" fill="none" xmlns="http://www.w3.org/2000/svg">
<path d="M15.5 31C24.0604 31 31 24.0604 31 15.5C31 6.93959 24.0604 0 15.5 0C6.93959 0 0 6.93959 0 15.5C0 24.0604 6.93959 31 15.5 31Z" fill="white"/>
<path d="M24.9936 11.1397C24.3294 11.4343 23.6149 11.6335 22.8655 11.7225C23.6306 11.2641 24.2178 10.5388 24.4949 9.67312C23.779 10.0978 22.9857 10.4059 22.1422 10.5719C21.4663 9.85216 20.5034 9.40234 19.4372 9.40234C17.3914 9.40234 15.7322 11.0615 15.7322 13.1073C15.7322 13.3977 15.7651 13.6803 15.8287 13.9517C12.7496 13.7972 10.0194 12.3223 8.19196 10.0801C7.8731 10.6272 7.69019 11.2641 7.69019 11.9429C7.69019 13.228 8.34475 14.3625 9.33833 15.0268C8.7313 15.0077 8.15963 14.8411 7.66035 14.5628C7.66008 14.5786 7.66008 14.5943 7.66008 14.6098C7.66008 16.4049 8.9377 17.9022 10.6323 18.2424C10.3217 18.3275 9.99372 18.3725 9.65636 18.3725C9.41708 18.3725 9.18526 18.3496 8.95925 18.3065C9.43062 19.778 10.7986 20.8493 12.4202 20.8794C11.152 21.8732 9.55468 22.4654 7.8184 22.4654C7.51999 22.4654 7.22435 22.448 6.93506 22.4134C8.57381 23.465 10.5217 24.0781 12.6139 24.0781C19.4286 24.0781 23.1554 18.4327 23.1554 13.5364C23.1554 13.3758 23.1518 13.2159 23.1446 13.0573C23.8691 12.5351 24.4971 11.8827 24.9936 11.1397Z" fill="#412D22"/>
</svg>
