<svg width="41" height="42" viewBox="0 0 41 42" fill="none" xmlns="http://www.w3.org/2000/svg">
<path d="M20.5 0C9.17819 0 0 9.18203 0 20.5086C0 31.8351 9.17819 41.0172 20.5 41.0172C21.1003 41.0172 21.691 40.9779 22.2783 40.9273C21.9594 40.166 21.7813 39.3307 21.7813 38.4536C21.7813 36.6519 22.5295 35.0299 23.7258 33.8655C23.3056 32.915 23.0625 31.8691 23.0625 30.7629C23.0625 26.5154 26.5043 23.0722 30.75 23.0722C31.8558 23.0722 32.9011 23.3153 33.8513 23.7358C35.0153 22.5389 36.6365 21.7904 38.4375 21.7904C39.3143 21.7904 40.1492 21.9685 40.9102 22.2875C40.9607 21.6999 41 21.1091 41 20.5086C40.9999 9.18203 31.8217 0 20.5 0ZM6.40626 20.5086C5.69872 20.5086 5.12504 19.9347 5.12504 19.2268C5.12504 18.5188 5.69872 17.9451 6.40626 17.9451C7.1138 17.9451 7.68748 18.5188 7.68748 19.2268C7.68748 19.9347 7.1138 20.5086 6.40626 20.5086ZM12.8124 30.7628C11.3971 30.7628 10.2499 29.6149 10.2499 28.1992C10.2499 26.7833 11.3971 25.6356 12.8124 25.6356C14.2277 25.6356 15.375 26.7833 15.375 28.1992C15.375 29.6149 14.2277 30.7628 12.8124 30.7628ZM15.375 12.8178C13.9597 12.8178 12.8124 11.67 12.8124 10.2542C12.8124 8.83832 13.9597 7.69062 15.375 7.69062C16.7903 7.69062 17.9375 8.83832 17.9375 10.2542C17.9375 11.67 16.7903 12.8178 15.375 12.8178ZM19.2187 23.0721C18.5112 23.0721 17.9375 22.4982 17.9375 21.7903C17.9375 21.0824 18.5112 20.5086 19.2187 20.5086C19.9262 20.5086 20.4999 21.0824 20.4999 21.7903C20.5 22.4982 19.9263 23.0721 19.2187 23.0721ZM26.9062 5.12711C27.6137 5.12711 28.1874 5.70088 28.1874 6.40887C28.1874 7.1167 27.6137 7.69062 26.9062 7.69062C26.1986 7.69062 25.625 7.1167 25.625 6.40887C25.625 5.70088 26.1986 5.12711 26.9062 5.12711ZM28.1875 17.945C26.7722 17.945 25.625 16.7971 25.625 15.3814C25.625 13.9655 26.7722 12.8178 28.1875 12.8178C29.6028 12.8178 30.75 13.9655 30.75 15.3814C30.7499 16.7971 29.6027 17.945 28.1875 17.945Z" fill="#E39A3B"/>
</svg>
