<svg width="29" height="30" viewBox="0 0 29 30" fill="none" xmlns="http://www.w3.org/2000/svg">
<path d="M0 14.9614C0 6.69847 6.39195 0 14.2768 0C22.1616 0 28.5535 6.69847 28.5536 14.9614C28.5536 15.3995 28.5262 15.8305 28.491 16.2592C27.961 16.0264 27.3796 15.8965 26.769 15.8965C25.5147 15.8965 24.3856 16.4426 23.575 17.3157C22.9133 17.009 22.1853 16.8316 21.4152 16.8316C18.4584 16.8316 16.0614 19.3435 16.0614 22.4421C16.0614 23.2491 16.2307 24.0121 16.5233 24.7055C15.6902 25.555 15.1691 26.7382 15.1691 28.0526C15.1691 28.6925 15.2931 29.3018 15.5153 29.8573C15.1062 29.8941 14.6948 29.9228 14.2768 29.9228C6.39195 29.9228 0 23.2243 0 14.9614Z" fill="#412D22"/>
</svg>
