<svg width="29" height="30" viewBox="0 0 29 30" fill="none" xmlns="http://www.w3.org/2000/svg">
<path d="M14.2768 0C6.39195 0 0 6.69847 0 14.9614C0 23.2243 6.39195 29.9228 14.2768 29.9228C14.6948 29.9228 15.1062 29.8941 15.5153 29.8573C15.2931 29.3018 15.1691 28.6925 15.1691 28.0526C15.1691 26.7382 15.6902 25.555 16.5233 24.7055C16.2307 24.0121 16.0614 23.2491 16.0614 22.4421C16.0614 19.3435 18.4584 16.8316 21.4152 16.8316C22.1853 16.8316 22.9133 17.009 23.575 17.3157C24.3856 16.4426 25.5147 15.8965 26.769 15.8965C27.3796 15.8965 27.961 16.0264 28.491 16.2592C28.5262 15.8305 28.5536 15.3995 28.5536 14.9614C28.5535 6.69847 22.1616 0 14.2768 0ZM4.4615 14.9614C3.96875 14.9614 3.56922 14.5427 3.56922 14.0263C3.56922 13.5098 3.96875 13.0913 4.4615 13.0913C4.95425 13.0913 5.35378 13.5098 5.35378 14.0263C5.35378 14.5427 4.95425 14.9614 4.4615 14.9614ZM8.92295 22.442C7.9373 22.442 7.13834 21.6047 7.13834 20.5719C7.13834 19.5389 7.9373 18.7017 8.92295 18.7017C9.90861 18.7017 10.7076 19.5389 10.7076 20.5719C10.7076 21.6047 9.90861 22.442 8.92295 22.442ZM10.7076 9.35084C9.72191 9.35084 8.92295 8.51346 8.92295 7.48065C8.92295 6.44773 9.72191 5.61046 10.7076 5.61046C11.6932 5.61046 12.4922 6.44773 12.4922 7.48065C12.4922 8.51346 11.6932 9.35084 10.7076 9.35084ZM13.3845 16.8315C12.8917 16.8315 12.4922 16.4128 12.4922 15.8965C12.4922 15.38 12.8917 14.9614 13.3845 14.9614C13.8772 14.9614 14.2767 15.38 14.2767 15.8965C14.2768 16.4128 13.8773 16.8315 13.3845 16.8315ZM18.7382 3.74032C19.231 3.74032 19.6305 4.1589 19.6305 4.67539C19.6305 5.19177 19.231 5.61046 18.7382 5.61046C18.2455 5.61046 17.846 5.19177 17.846 4.67539C17.846 4.1589 18.2455 3.74032 18.7382 3.74032ZM19.6306 13.0912C18.6449 13.0912 17.846 12.2538 17.846 11.221C17.846 10.1881 18.6449 9.35084 19.6306 9.35084C20.6162 9.35084 21.4152 10.1881 21.4152 11.221C21.4151 12.2538 20.6162 13.0912 19.6306 13.0912Z" fill="#E39A3B"/>
</svg>
