<svg width="15" height="21" viewBox="0 0 15 21" fill="none" xmlns="http://www.w3.org/2000/svg">
<path d="M7.24325 0C3.2493 0 0 3.27385 0 7.29794C0 12.292 6.482 19.6235 6.75798 19.9331C7.0172 20.224 7.46978 20.2235 7.72853 19.9331C8.0045 19.6235 14.4865 12.292 14.4865 7.29794C14.4864 3.27385 11.2372 0 7.24325 0ZM7.24325 10.9697C5.2338 10.9697 3.59903 9.32258 3.59903 7.29794C3.59903 5.2733 5.23384 3.62618 7.24325 3.62618C9.25267 3.62618 10.8874 5.27334 10.8874 7.29798C10.8874 9.32262 9.25267 10.9697 7.24325 10.9697Z" fill="#412D22"/>
</svg>
