<svg width="512" height="417" viewBox="0 0 512 417" fill="none" xmlns="http://www.w3.org/2000/svg">
<path d="M14.9206 238.481C0.772226 247.919 -7.25738 294.604 20.1128 295.55C38.9708 296.206 46.4021 279.203 39.4148 273.934C21.6183 260.656 0.810833 307.341 21.6183 316.779C31.4044 321.237 41.345 314.135 52.0576 305.489C68.4449 292.269 86.6466 275.44 108.902 290.84" stroke="#D8171C" stroke-width="2" stroke-miterlimit="10"/>
<g style="mix-blend-mode:multiply">
<path d="M357.955 383.844C357.955 387.549 345.621 390.56 330.411 390.56C315.201 390.56 302.848 387.549 302.848 383.844C302.848 380.138 315.182 377.147 330.411 377.147C345.64 377.147 357.955 380.138 357.955 383.844Z" fill="#E5EBF4"/>
</g>
<g style="mix-blend-mode:multiply">
<path d="M200.856 410.284C200.856 413.989 188.522 416.981 173.312 416.981C158.102 416.981 145.749 413.989 145.749 410.284C145.749 406.578 158.083 403.568 173.312 403.568C188.542 403.568 200.856 406.578 200.856 410.284Z" fill="#E5EBF4"/>
</g>
<g style="mix-blend-mode:multiply">
<path d="M412.618 369.331H99.2123C88.2638 369.329 77.3757 367.71 66.9008 364.525L18.1826 349.665H498.454L442.285 365.278C432.627 367.972 422.646 369.335 412.618 369.331Z" fill="#E5EBF4"/>
</g>
<path d="M474.925 85.5924C465.532 85.0449 456.108 85.6934 446.879 87.5223C443.39 88.1276 440.072 89.4746 437.148 91.4722C434.225 93.4699 431.764 96.0717 429.932 99.1019C423.35 109.967 413.178 127.202 411.035 133.223C411.035 133.223 392.95 130.405 382.739 124.21L378.241 133.223C378.241 133.223 388.626 140.441 419.239 150.457C424.794 141.947 429.469 132.894 433.194 123.438C433.194 123.438 432.171 130.83 435.645 143.934C438.406 154.298 431.94 194.73 431.94 194.73L498.531 192.337L493.069 152.136L501.137 141.753C502.263 140.299 503.077 138.628 503.529 136.845C503.98 135.062 504.06 133.205 503.762 131.39C501.898 119.421 498.077 107.841 492.451 97.1141C490.711 93.8935 488.2 91.155 485.141 89.1441C482.082 87.1332 478.572 85.9128 474.925 85.5924Z" fill="#D85C1C"/>
<path d="M486.699 134.786L484.286 117.784C484.286 117.784 481.005 140.132 479.557 142.873L486.699 134.786Z" fill="#B14800"/>
<path d="M461.664 156.633C458.267 157.81 449.543 160.589 450.353 162.423C450.817 163.446 456.974 161.014 457.65 161.844C458.325 162.674 455.97 165.704 452.033 167.827C448.983 169.429 446.86 169.1 446.725 170.567C446.57 172.497 455.604 172.227 457.92 171.937C460.14 171.61 462.24 170.72 464.019 169.351C465.499 168.033 466.879 166.607 468.15 165.086C469.88 163.467 471.768 162.025 473.786 160.782L469.289 153.372C469.289 153.372 463.614 155.958 461.664 156.633Z" fill="#E7D1AD"/>
<path d="M452.438 74.2444L453.847 90.4558C453.847 90.4558 462.629 97.944 470.273 89.4909L466.027 69.8828L452.438 74.2444Z" fill="#E0BD82"/>
<path d="M476.257 30.821C478.696 33.2403 480.613 36.1348 481.888 39.3251C483.163 42.5154 483.769 45.9335 483.669 49.3676C483.669 61.8929 468.883 79.571 455.314 79.571C443.366 79.571 433.677 67.2774 433.677 52.1467C433.677 40.5672 439.467 30.7245 447.42 26.6138C452.092 24.3336 457.343 23.5154 462.488 24.266C467.632 25.0166 472.431 27.301 476.257 30.821Z" fill="#E7CB9E"/>
<path d="M447.805 57.3575C447.805 57.3575 447.69 57.8786 447.477 58.5733C447.229 59.409 447.035 60.2599 446.898 61.1208C446.81 61.5213 446.81 61.9362 446.898 62.3367C446.979 62.6718 447.177 62.9665 447.458 63.1666L447.844 63.4367L448.211 63.5719L448.52 63.7263H448.172C447.846 63.765 447.515 63.7253 447.207 63.6105C446.984 63.5282 446.776 63.4109 446.589 63.2631C446.384 63.0811 446.219 62.8574 446.107 62.6069C445.978 62.3555 445.905 62.0788 445.895 61.7963C445.866 61.5205 445.866 61.2423 445.895 60.9664C446.041 60.0154 446.404 59.1107 446.956 58.3224C447.2 57.9682 447.485 57.6442 447.805 57.3575Z" fill="#E0B695"/>
<path d="M441.59 60.0594C441.59 61.2753 440.239 62.2595 438.56 62.2595C436.881 62.2595 435.53 61.2753 435.53 60.0594C435.53 58.8435 436.881 57.8786 438.56 57.8786C440.239 57.8786 441.59 58.8049 441.59 60.0594Z" fill="#E0AB82"/>
<path d="M464.598 60.1752C464.598 61.5069 462.958 62.5876 460.912 62.5876C458.866 62.5876 457.244 61.5069 457.244 60.1752C457.244 58.8435 458.885 57.7435 460.912 57.7435C462.938 57.7435 464.598 58.8049 464.598 60.1752Z" fill="#E0AB82"/>
<g style="mix-blend-mode:multiply">
<path d="M456.781 366.069C486.736 366.069 511.019 361.844 511.019 356.632C511.019 351.42 486.736 347.194 456.781 347.194C426.826 347.194 402.542 351.42 402.542 356.632C402.542 361.844 426.826 366.069 456.781 366.069Z" fill="#E5EBF4"/>
</g>
<path d="M495.867 338.857C495.867 338.857 498.994 339.494 498.55 344.203C498.265 347.888 498.168 351.586 498.261 355.281L496.948 355.802C496.756 353.838 496.368 351.899 495.79 350.012C495.404 350.012 492.76 355.802 489.652 357.037C486.545 358.272 478.669 360.897 476.43 358.6C474.191 356.304 479.461 353.814 482.221 352.154C484.981 350.495 495.867 338.857 495.867 338.857Z" fill="#393939"/>
<path d="M484.634 323.688C484.634 323.688 487.915 336.638 486.313 342.196C484.711 347.754 480.522 352.521 480.001 353.64C479.48 354.76 485.792 354.007 488.108 352.077C490.424 350.147 496.292 340.054 495.829 338.703C494.97 333.046 494.647 327.321 494.864 321.604L484.634 323.688Z" fill="#E7CB9E"/>
<path d="M443.887 340.227C443.887 340.227 446.918 341.289 445.818 345.901C444.717 350.514 444.042 356.844 444.042 356.844L442.671 357.172C442.735 355.235 442.613 353.296 442.305 351.382C441.919 351.267 438.676 356.728 435.414 357.616C432.152 358.504 423.833 359.874 421.902 357.307C419.972 354.74 425.531 352.965 428.542 351.691C431.553 350.417 443.887 340.227 443.887 340.227Z" fill="#393939"/>
<path d="M434.835 323.707C434.835 323.707 436.36 336.985 434.024 342.292C431.689 347.6 426.844 351.73 426.303 352.772C425.763 353.814 432.094 353.93 434.545 352.309C436.997 350.688 444.196 341.482 444.08 340.092C443.978 334.376 444.424 328.663 445.412 323.032L434.835 323.707Z" fill="#E7CB9E"/>
<path d="M431.939 194.614C431.939 194.614 426.303 251.026 425.531 269.881C424.836 286.498 432.596 337.989 432.596 337.989L446.107 336.831C446.107 336.831 447.69 287.463 451.492 271.02C454.407 258.475 463.073 220.842 463.073 220.842C463.073 220.842 467.551 256.526 469.038 268.415C471.161 285.321 482.433 337.661 482.433 337.661L498.28 336.966C498.28 336.966 494.072 284.144 494.304 266.543C494.555 247.957 498.57 192.202 498.57 192.202L431.939 194.614Z" fill="#412D22"/>
<path d="M431.939 194.614C431.939 194.614 426.303 251.026 425.531 269.881C424.836 286.498 432.596 337.989 432.596 337.989L446.107 336.831C446.107 336.831 447.69 287.463 451.492 271.02C454.407 258.476 463.073 220.842 463.073 220.842C463.073 220.842 455.353 211.443 452.94 193.823L431.939 194.614Z" fill="#563C30"/>
<path d="M485.56 50.7765C485.56 50.7765 482.588 59.9437 468.188 51.6257C459.492 46.636 451.534 40.4587 444.543 33.2721C444.543 33.2721 439.834 45.4113 432.403 50.2747C432.595 45.9421 433.202 41.6379 434.217 37.4214C435.761 32.5387 440.162 22.3679 455.449 21.7504C490.077 20.3608 485.56 50.7765 485.56 50.7765Z" fill="#424242"/>
<path d="M483.225 44.1568C485.506 42.8467 487.25 40.7714 488.147 38.2986C489.045 35.8259 489.038 33.1153 488.127 30.6473C485.039 21.5959 473.014 16.6939 466.895 24.8575" fill="#424242"/>
<path d="M453.673 51.6256C453.673 52.7064 454.233 53.5555 454.928 53.5555C455.623 53.5555 456.202 52.6678 456.202 51.6256C456.202 50.5834 455.623 49.6957 454.928 49.6957C454.233 49.6957 453.673 50.5448 453.673 51.6256Z" fill="#424242"/>
<path d="M440.586 52.359C440.586 53.4398 441.165 54.2889 441.899 54.2889C442.632 54.2889 443.211 53.4012 443.211 52.359C443.211 51.3168 442.632 50.4291 441.899 50.4291C441.165 50.4291 440.586 51.2782 440.586 52.359Z" fill="#424242"/>
<path d="M454.986 66.5247C454.986 66.5247 448.79 69.4582 443.848 66.9879C443.752 69.6319 450.122 74.7269 454.986 66.5247Z" fill="#E5F1FF"/>
<path d="M473.593 58.4383C471.952 63.4947 473.786 68.5511 477.704 69.6898C481.623 70.8284 486.139 67.644 487.799 62.5683C489.459 57.4926 487.587 52.4555 483.669 51.3168C479.75 50.1782 475.234 53.3626 473.593 58.4383Z" fill="black"/>
<path d="M478.496 66.3124C475.964 69.598 472.546 72.0908 468.643 73.4963C464.741 74.9018 460.517 75.1614 456.472 74.2444" stroke="black" stroke-miterlimit="10" stroke-linecap="round"/>
<path d="M456.82 72.7391C456.632 72.7049 456.44 72.7079 456.253 72.7481C456.067 72.7883 455.89 72.8647 455.733 72.9731C455.577 73.0816 455.443 73.2198 455.339 73.38C455.236 73.5402 455.165 73.7191 455.131 73.9067C455.097 74.0942 455.1 74.2867 455.14 74.4731C455.18 74.6594 455.256 74.836 455.365 74.9929C455.473 75.1497 455.612 75.2836 455.772 75.387C455.932 75.4903 456.111 75.5612 456.299 75.5954C456.486 75.6287 456.678 75.6246 456.864 75.5834C457.05 75.5422 457.227 75.4647 457.383 75.3554C457.539 75.246 457.671 75.1069 457.774 74.9461C457.876 74.7852 457.945 74.6058 457.978 74.4181C458.014 74.2317 458.013 74.0399 457.974 73.854C457.935 73.6681 457.859 73.4918 457.751 73.3354C457.643 73.1791 457.506 73.0458 457.346 72.9434C457.186 72.841 457.007 72.7715 456.82 72.7391Z" fill="black"/>
<path d="M484.132 57.1453C484.132 57.1453 488.301 18.9519 458.055 18.7203C451.145 18.7203 438.753 21.2485 435.144 33.3492" stroke="black" stroke-miterlimit="10" stroke-linecap="round"/>
<path d="M425.859 126.738L279.435 45.6814C271.97 41.552 263.578 39.3857 255.047 39.3857C246.515 39.3857 238.124 41.552 230.659 45.6814L84.2147 126.738C80.9373 128.52 78.2015 131.153 76.2957 134.359C74.3899 137.566 73.3847 141.227 73.3862 144.957V348.758C73.3837 351.487 73.9198 354.19 74.9638 356.712C76.0079 359.234 77.5393 361.525 79.4705 363.454C81.4016 365.383 83.6944 366.912 86.2176 367.954C88.7408 368.995 91.4447 369.529 94.1745 369.524H415.957C418.682 369.524 421.38 368.987 423.898 367.944C426.415 366.902 428.703 365.374 430.63 363.447C432.556 361.521 434.085 359.234 435.127 356.716C436.17 354.199 436.707 351.501 436.707 348.777V144.976C436.71 141.241 435.704 137.575 433.794 134.364C431.885 131.154 429.143 128.519 425.859 126.738Z" fill="#B27934"/>
<path d="M138.743 32.7123H371.389C377.701 32.7123 383.755 35.2194 388.218 39.682C392.681 44.1447 395.188 50.1973 395.188 56.5084V318.593H114.943V56.5084C114.943 50.1973 117.451 44.1447 121.914 39.682C126.377 35.2194 132.431 32.7123 138.743 32.7123Z" fill="url(#paint0_linear)"/>
<g style="mix-blend-mode:multiply">
<g style="mix-blend-mode:multiply">
<path d="M359.654 74.9392H150.498V76.5796H359.654V74.9392Z" fill="#E1E3E6"/>
</g>
<g style="mix-blend-mode:multiply">
<path d="M359.654 98.0405H150.498V99.6809H359.654V98.0405Z" fill="#E1E3E6"/>
</g>
<g style="mix-blend-mode:multiply">
<path d="M359.654 121.161H150.498V122.801H359.654V121.161Z" fill="#E1E3E6"/>
</g>
<g style="mix-blend-mode:multiply">
<path d="M359.654 144.262H150.498V145.903H359.654V144.262Z" fill="#E1E3E6"/>
</g>
<g style="mix-blend-mode:multiply">
<path d="M359.654 167.383H150.498V169.023H359.654V167.383Z" fill="#E1E3E6"/>
</g>
<g style="mix-blend-mode:multiply">
<path d="M359.654 190.484H150.498V192.125H359.654V190.484Z" fill="#E1E3E6"/>
</g>
<g style="mix-blend-mode:multiply">
<path d="M359.654 213.605H150.498V215.245H359.654V213.605Z" fill="#E1E3E6"/>
</g>
<g style="mix-blend-mode:multiply">
<path d="M359.654 236.706H150.498V238.346H359.654V236.706Z" fill="#E1E3E6"/>
</g>
</g>
<path d="M406.229 166.978L253.3 319.867C253.141 320.025 252.926 320.113 252.701 320.113C252.477 320.113 252.262 320.025 252.103 319.867L99.1929 166.978C92.3588 160.144 83.0898 156.305 73.4248 156.305V348.777C73.4248 351.501 73.9615 354.199 75.0042 356.716C76.047 359.234 77.5754 361.521 79.5022 363.447C81.429 365.374 83.7164 366.902 86.2339 367.944C88.7513 368.987 91.4495 369.524 94.1744 369.524H415.957C418.682 369.524 421.38 368.987 423.898 367.944C426.415 366.902 428.703 365.374 430.63 363.447C432.556 361.521 434.085 359.234 435.127 356.716C436.17 354.199 436.707 351.501 436.707 348.777V156.305H431.997C422.333 156.307 413.064 160.146 406.229 166.978Z" fill="#E39A3B"/>
<g style="mix-blend-mode:multiply">
<path d="M306.708 266.408L253.223 319.867C253.063 320.025 252.848 320.113 252.624 320.113C252.4 320.113 252.185 320.025 252.026 319.867L199.467 267.237L73.4055 341.482V348.796C73.4081 351.521 73.9473 354.218 74.9924 356.734C76.0375 359.25 77.568 361.536 79.4966 363.461C81.4252 365.386 83.714 366.912 86.2324 367.952C88.7508 368.992 91.4496 369.526 94.1744 369.524H415.957C418.682 369.524 421.38 368.987 423.898 367.944C426.415 366.902 428.703 365.374 430.63 363.447C432.556 361.521 434.085 359.234 435.127 356.716C436.17 354.199 436.707 351.501 436.707 348.777V342.234L306.708 266.408Z" fill="#E7E7E6"/>
</g>
<path d="M436.707 348.777V342.601L279.454 255.658C271.989 251.528 263.597 249.362 255.066 249.362C246.534 249.362 238.143 251.528 230.678 255.658L73.4248 342.62V348.796C73.4299 354.295 75.6183 359.567 79.509 363.454C83.3998 367.341 88.6746 369.524 94.1744 369.524H415.957C418.682 369.524 421.38 368.987 423.898 367.944C426.415 366.902 428.703 365.374 430.63 363.447C432.556 361.521 434.085 359.234 435.127 356.716C436.17 354.199 436.707 351.501 436.707 348.777Z" fill="#E39A3B"/>
<path d="M356.893 344.936C356.893 348.796 357.511 342.485 369.401 342.485C378.434 342.485 370.231 366.05 355.89 366.88C354.953 367.263 354.189 367.974 353.738 368.879C353.287 369.784 353.18 370.823 353.438 371.801C354.056 375.661 379.477 366.667 379.477 345.554C379.399 331.408 356.893 334.283 356.893 344.936Z" fill="#FEFEFE"/>
<path d="M296.034 330.925C296.034 330.925 297.694 385.793 332.245 385.793C363.495 385.793 366.988 330.925 366.988 330.925H296.034Z" fill="#FEFEFE"/>
<path d="M306.708 337.082C304.086 336.831 301.497 336.3 298.988 335.499C300.339 348.796 306.457 385.967 332.225 385.812C333.84 385.798 335.449 385.63 337.032 385.311C314.12 381.103 308.156 350.398 306.708 337.082Z" fill="#EAF4FF"/>
<path d="M367.027 330.925C367.027 334.052 351.141 336.58 331.531 336.58C311.92 336.58 296.034 334.052 296.034 330.925C296.034 327.799 311.92 325.27 331.531 325.27C351.141 325.27 367.027 327.818 367.027 330.925Z" fill="#EAF4FF"/>
<path d="M331.53 335.383C349.034 335.383 363.224 333.396 363.224 330.944C363.224 328.493 349.034 326.506 331.53 326.506C314.026 326.506 299.837 328.493 299.837 330.944C299.837 333.396 314.026 335.383 331.53 335.383Z" fill="#FEFEFE"/>
<path d="M306.959 333.743C323.267 335.93 339.794 335.93 356.102 333.743C339.794 331.556 323.267 331.556 306.959 333.743Z" fill="#606060"/>
<path d="M114.21 94.7017C81.6667 97.2685 50.0694 129.653 43.9314 136.253C37.7934 142.853 6.79446 175.836 5.81006 208.432C5.2503 227.462 18.3757 246.027 26.3667 252.203L63.1369 206.039C63.1369 206.039 57.1919 200.134 44.221 196.506C44.221 196.506 47.4251 179.927 67.3833 159.065C86.1449 139.38 104.192 133.648 104.192 133.648C108.439 146.424 114.634 152.059 114.634 152.059L159.029 113.133C152.293 105.432 133.184 93.2157 114.21 94.7017Z" fill="#D8171C"/>
<path d="M62.6736 205.673L56.1109 200.751C51.7873 197.374 40.1675 205.055 30.1304 217.908C20.0934 230.762 15.4802 243.905 19.8039 247.282L26.3666 252.203L62.6736 205.673Z" fill="#A60006"/>
<path d="M52.3472 235.046C42.2716 247.938 30.6904 255.658 26.3668 252.203C22.0431 248.749 26.6756 235.683 36.6933 222.83C46.711 209.976 58.3501 202.295 62.6738 205.673C66.9974 209.05 62.3842 222.193 52.3472 235.046Z" fill="#A60006"/>
<g style="mix-blend-mode:screen">
<path style="mix-blend-mode:screen" d="M26.3667 252.203L25.8262 251.702C25.5994 251.503 25.4155 251.26 25.2858 250.987C25.0891 250.641 24.9581 250.262 24.8997 249.868C24.6007 248.795 24.4896 247.679 24.5715 246.568C24.6571 245.137 24.8966 243.72 25.2858 242.341C25.7201 240.71 26.2683 239.11 26.9264 237.555C27.6306 235.811 28.4363 234.11 29.3391 232.46C30.2656 230.742 31.2693 229.005 32.4275 227.307C33.5856 225.609 34.763 223.93 36.0369 222.251C37.3108 220.572 38.662 219.066 40.0518 217.522C41.4415 215.978 42.8698 214.608 44.2981 213.277C45.6808 212.002 47.1375 210.81 48.6604 209.706C50.0088 208.697 51.4207 207.775 52.8875 206.946C54.1135 206.246 55.4068 205.67 56.7479 205.229C57.8063 204.882 58.916 204.719 60.0293 204.746C60.4436 204.726 60.8577 204.791 61.2453 204.939C61.5441 204.993 61.8275 205.111 62.0753 205.287L62.6929 205.692L62.0366 205.383C61.7706 205.253 61.4825 205.175 61.1874 205.152C60.8037 205.091 60.413 205.091 60.0293 205.152C58.9821 205.244 57.9578 205.512 56.9989 205.943C55.7414 206.492 54.5282 207.137 53.3701 207.873C52.0139 208.749 50.7237 209.723 49.5097 210.787C48.1586 211.906 46.8267 213.18 45.4563 214.492C44.0858 215.805 42.754 217.272 41.4029 218.758C40.0517 220.244 38.7971 221.807 37.5425 223.447C36.2878 225.088 35.0912 226.67 33.9716 228.311C32.8521 229.951 31.7712 231.63 30.8061 233.271C29.841 234.911 28.8759 236.532 28.2003 238.095C27.4538 239.561 26.8089 241.077 26.2701 242.631C25.8159 243.926 25.4674 245.255 25.2279 246.606C25.0558 247.648 25.0558 248.711 25.2279 249.752C25.2676 250.14 25.372 250.518 25.5366 250.872C25.6256 251.149 25.7701 251.405 25.9613 251.624L26.3667 252.203Z" fill="url(#paint1_linear)"/>
</g>
<path d="M159.106 113.171L153.586 107.053C149.957 102.942 137.102 108.327 124.865 119.077C112.627 129.826 105.563 141.888 109.23 146.096L114.77 152.156L159.106 113.171Z" fill="#A60006"/>
<path d="M143.491 140.113C131.234 150.863 118.398 156.247 114.77 152.117C111.141 147.987 118.147 135.944 130.385 125.195C142.622 114.445 155.477 109.06 159.106 113.171C162.735 117.282 155.728 129.344 143.491 140.113Z" fill="#A60006"/>
<g style="mix-blend-mode:screen">
<path style="mix-blend-mode:screen" d="M114.77 152.117L114.326 151.519C114.144 151.281 114.007 151.013 113.92 150.728C113.778 150.337 113.7 149.927 113.689 149.512C113.614 148.402 113.718 147.288 113.998 146.211C114.347 144.824 114.845 143.478 115.484 142.197C116.215 140.673 117.053 139.202 117.993 137.797C119.004 136.216 120.106 134.695 121.294 133.242C122.548 131.737 123.861 130.212 125.289 128.746C126.718 127.279 128.242 125.851 129.786 124.461C131.331 123.072 132.952 121.817 134.612 120.601C136.272 119.385 137.932 118.247 139.592 117.224C141.18 116.22 142.831 115.318 144.533 114.522C146.046 113.775 147.606 113.131 149.204 112.592C150.561 112.12 151.966 111.797 153.393 111.627C154.499 111.49 155.621 111.536 156.713 111.762C157.122 111.829 157.515 111.973 157.871 112.187C158.145 112.297 158.395 112.461 158.604 112.669L159.145 113.19L158.546 112.766C158.315 112.595 158.053 112.47 157.774 112.399C157.412 112.248 157.027 112.157 156.636 112.129C155.589 112.026 154.532 112.098 153.509 112.341C152.192 112.669 150.901 113.094 149.648 113.615C148.137 114.234 146.667 114.949 145.247 115.757C143.723 116.587 142.178 117.591 140.576 118.633C138.974 119.675 137.411 120.871 135.809 122.068C134.207 123.265 132.663 124.596 131.138 125.928C129.613 127.26 128.127 128.668 126.698 130.077C125.27 131.486 123.919 132.914 122.683 134.362C121.448 135.809 120.251 137.199 119.209 138.608C118.232 139.915 117.336 141.282 116.526 142.699C115.846 143.897 115.253 145.142 114.75 146.424C114.383 147.413 114.181 148.457 114.152 149.512C114.121 149.9 114.154 150.291 114.248 150.67C114.295 150.959 114.386 151.239 114.519 151.499L114.77 152.117Z" fill="url(#paint2_linear)"/>
</g>
<path d="M10.5198 191.97C10.5198 191.97 32.3889 131.274 93.634 102.576C93.634 102.537 44.7035 124.963 10.5198 191.97Z" fill="#FFA1A1"/>
<path d="M103.748 131.737C103.748 131.737 86.3762 133.783 60.8204 156.942C42.7731 173.346 34.2996 196.293 34.2996 196.293C36.6491 195.806 39.0651 195.727 41.4413 196.062C47.0816 181.767 55.489 168.727 66.181 157.689C76.8731 146.65 89.6395 137.831 103.748 131.737Z" fill="#A60006"/>
<path d="M76.0304 50.68C76.2344 51.8532 76.5313 53.0084 76.9184 54.1346C77.1244 54.8448 77.4797 55.5028 77.9606 56.0645C78.1126 56.2425 78.2983 56.3887 78.507 56.4947C78.7157 56.6007 78.9433 56.6643 79.1767 56.6821C79.6707 56.6695 80.1543 56.537 80.5857 56.2961C81.0563 56.0486 81.4706 55.7065 81.8028 55.2914C82.1349 54.8763 82.3777 54.397 82.5159 53.8837C82.9012 52.5563 83.0386 51.1694 82.9212 49.7922C82.7829 48.0295 82.4462 46.288 81.9176 44.6007C81.2932 42.6007 80.4855 40.6625 79.5048 38.8109C78.4475 36.7352 77.0515 34.8502 75.3742 33.2334C73.9452 31.8614 72.2318 30.8204 70.3557 30.1841C68.4858 29.5913 66.5054 29.4329 64.5651 29.7209C62.3706 30.0505 60.2527 30.7694 58.3113 31.8439C55.5219 33.2955 53.1147 35.3851 51.2854 37.9425C49.5132 40.4845 48.2964 43.3713 47.7145 46.4149C47.134 49.683 47.134 53.0279 47.7145 56.2961C48.3358 59.9089 49.5419 63.3964 51.2854 66.6212C52.6279 69.2643 54.4024 71.6646 56.5355 73.7234C58.3266 75.4435 60.4657 76.7597 62.8086 77.5832C65.0507 78.3308 67.4327 78.5617 69.7766 78.2587C72.3712 77.9175 74.8788 77.0927 77.1692 75.827C78.6603 75.0551 80.0983 74.1847 81.4736 73.2216C82.5923 72.4231 83.6683 71.5663 84.6971 70.6548C85.5048 69.9314 86.2595 69.151 86.9553 68.3195C87.4635 67.723 87.9097 67.0763 88.2872 66.3896C88.6438 65.8617 89.0876 65.3984 89.5997 65.0194C89.9563 64.7725 90.3665 64.6137 90.7965 64.5562C91.1698 64.5205 91.5454 64.5942 91.8774 64.7685C92.2068 64.9472 92.5118 65.1677 92.7846 65.4247L94.9464 67.7213C92.4615 72.2023 89.0297 76.088 84.89 79.1079C83.2534 80.3168 81.5237 81.3945 79.7171 82.3309C76.5111 84.1047 72.9907 85.2387 69.352 85.6696C66.1015 86.0194 62.8139 85.6841 59.701 84.6854C56.5289 83.606 53.6168 81.8773 51.1502 79.6097C48.3745 77.0714 46.0737 74.0586 44.3559 70.7127C42.9267 68.0209 41.8375 65.162 41.1132 62.2017C40.4255 59.3316 40.0756 56.3911 40.0709 53.4398C40.0645 50.5503 40.4212 47.6715 41.1325 44.8709C41.8075 42.1297 42.8393 39.4889 44.2015 37.0161C45.5406 34.5681 47.2169 32.3203 49.1814 30.3385C51.1792 28.3129 53.4774 26.6074 55.995 25.2821C58.6271 23.8537 61.5114 22.9493 64.4879 22.6188C67.3356 22.3018 70.2179 22.5644 72.9614 23.3908C75.7577 24.2433 78.3516 25.6549 80.5857 27.5401C83.0526 29.6295 85.0799 32.1879 86.55 35.0669C87.9732 37.7048 88.9699 40.5512 89.5032 43.5007C89.9653 46.1828 89.9653 48.9242 89.5032 51.6064C89.1021 54.0596 88.2021 56.4045 86.8589 58.4962C85.555 60.519 83.754 62.1736 81.6281 63.3018C81.0149 63.6242 80.3674 63.8766 79.6979 64.0544C79.0671 64.21 78.4152 64.2621 77.7677 64.2088C77.0946 64.1338 76.4407 63.9376 75.8375 63.6298C75.1096 63.2969 74.4539 62.8249 73.9073 62.2403C73.4116 64.1738 72.5392 65.9905 71.3401 67.5862C70.2818 68.9129 68.9694 70.0152 67.4797 70.8285C66.4309 71.4157 65.2631 71.7587 64.0633 71.832C63.0031 71.8773 61.9467 71.6793 60.9749 71.2531C59.9705 70.7882 59.0659 70.1327 58.3113 69.3231C57.4525 68.4191 56.7249 67.3992 56.1494 66.2931C55.4118 64.8803 54.8479 63.3834 54.4702 61.835C54.0697 60.2118 53.8623 58.5469 53.8525 56.8751C53.8602 55.1394 54.0674 53.4104 54.4702 51.7222C54.8667 49.9587 55.5169 48.262 56.4004 46.685C57.3764 44.9937 58.5849 43.4475 59.9905 42.0918C61.5713 40.5556 63.3656 39.2556 65.3179 38.2319C66.2444 37.7495 67.0936 37.3442 67.8464 37.0161C68.5653 36.7135 69.2999 36.4494 70.0469 36.2248C70.7136 36.039 71.3902 35.8908 72.0736 35.781C72.7105 35.781 73.3861 35.6073 74.1196 35.5687L76.0304 50.68ZM67.3639 44.8902C66.8647 45.0625 66.3805 45.2755 65.9162 45.5271C64.8108 46.1324 63.8902 47.0262 63.2526 48.1132C62.5275 49.3013 62.0179 50.6079 61.747 51.9731C61.4751 53.4894 61.436 55.0382 61.6312 56.5663C61.8422 58.1639 62.3321 59.7121 63.0788 61.1402C64.1597 63.0702 65.3951 63.8228 66.7655 63.0702C67.1947 62.8195 67.5849 62.5074 67.9236 62.1438C68.2986 61.7174 68.5812 61.218 68.7536 60.677C68.9811 59.9917 69.1047 59.2761 69.1204 58.5541C69.1304 57.5769 69.0464 56.601 68.8694 55.6399L67.3639 44.8902Z" fill="#F1CC9D"/>
<path d="M175.803 412.001C200.428 412.001 220.39 392.042 220.39 367.42C220.39 342.798 200.428 322.839 175.803 322.839C151.178 322.839 131.215 342.798 131.215 367.42C131.215 392.042 151.178 412.001 175.803 412.001Z" fill="#F1CC9D"/>
<path d="M182.712 349.009C184.709 349.009 186.661 348.417 188.321 347.307C189.981 346.198 191.275 344.622 192.039 342.778C192.803 340.933 193.003 338.904 192.613 336.946C192.224 334.988 191.262 333.189 189.851 331.778C188.439 330.366 186.64 329.405 184.682 329.015C182.724 328.626 180.694 328.826 178.849 329.59C177.005 330.354 175.428 331.647 174.319 333.307C173.21 334.967 172.618 336.919 172.618 338.915C172.618 341.592 173.681 344.159 175.574 346.052C177.467 347.945 180.035 349.009 182.712 349.009ZM178.852 396.292C175.339 393.069 191.9 365.413 189.719 356.439C188.136 349.877 161.751 354.181 161.48 356.111C161.48 356.111 169.085 355.146 170.436 358.677C171.788 362.209 161.48 383.438 159.589 391.486C157.697 399.534 166.634 402.101 172.618 402.101C179.682 402.101 191.089 397.276 190.819 395.018C190.549 392.76 182.423 399.495 178.891 396.292H178.852Z" fill="#F7FBFC"/>
<path d="M429.083 13.9727V13.0077C429.078 9.5561 427.703 6.24758 425.26 3.80871C422.817 1.36984 419.506 -3.7878e-06 416.054 0H401.79C398.338 -3.7878e-06 395.027 1.36984 392.584 3.80871C390.141 6.24758 388.766 9.5561 388.761 13.0077V13.9727C388.761 17.4277 390.134 20.7411 392.577 23.1842C395.02 25.6272 398.334 26.9997 401.79 26.9997H416.054H416.575C417.819 28.962 419.526 30.5896 421.545 31.7402C423.563 32.8908 425.833 33.5294 428.156 33.6001C426.633 32.7511 425.321 31.5691 424.318 30.1421C423.315 28.7152 422.648 27.0802 422.366 25.3593C424.402 24.2363 426.1 22.5873 427.281 20.5844C428.463 18.5814 429.085 16.2981 429.083 13.9727Z" fill="#E39A3B"/>
<path d="M403.315 13.5868C403.315 14.0181 403.187 14.4397 402.947 14.7984C402.707 15.157 402.367 15.4365 401.968 15.6016C401.57 15.7666 401.131 15.8098 400.708 15.7257C400.285 15.6415 399.896 15.4338 399.591 15.1288C399.286 14.8238 399.078 14.4353 398.994 14.0122C398.91 13.5892 398.953 13.1507 399.118 12.7522C399.284 12.3537 399.563 12.0131 399.922 11.7735C400.28 11.5338 400.702 11.4059 401.133 11.4059C401.712 11.4059 402.267 11.6357 402.676 12.0447C403.085 12.4537 403.315 13.0084 403.315 13.5868Z" fill="#FEFEFE"/>
<path d="M411.267 13.5868C411.267 14.1652 411.037 14.7199 410.628 15.1288C410.219 15.5378 409.664 15.7676 409.086 15.7676C408.507 15.7676 407.952 15.5378 407.543 15.1288C407.134 14.7199 406.905 14.1652 406.905 13.5868C406.905 13.0084 407.134 12.4537 407.543 12.0447C407.952 11.6357 408.507 11.4059 409.086 11.4059C409.664 11.4059 410.219 11.6357 410.628 12.0447C411.037 12.4537 411.267 13.0084 411.267 13.5868Z" fill="#FEFEFE"/>
<path d="M419.2 13.5868C419.2 14.0181 419.072 14.4397 418.833 14.7984C418.593 15.157 418.252 15.4365 417.854 15.6016C417.455 15.7666 417.017 15.8098 416.594 15.7257C416.17 15.6415 415.782 15.4338 415.477 15.1288C415.172 14.8238 414.964 14.4353 414.88 14.0122C414.796 13.5892 414.839 13.1507 415.004 12.7522C415.169 12.3537 415.449 12.0131 415.807 11.7735C416.166 11.5338 416.588 11.4059 417.019 11.4059C417.598 11.4059 418.152 11.6357 418.561 12.0447C418.97 12.4537 419.2 13.0084 419.2 13.5868Z" fill="#FEFEFE"/>
<defs>
<linearGradient id="paint0_linear" x1="255.076" y1="318.593" x2="255.076" y2="32.7123" gradientUnits="userSpaceOnUse">
<stop stop-color="#CAC7C2"/>
<stop offset="0.22" stop-color="#DEDCD9"/>
<stop offset="0.47" stop-color="#EEEDEC"/>
<stop offset="0.73" stop-color="#F8F8F7"/>
<stop offset="1" stop-color="#FBFBFB"/>
</linearGradient>
<linearGradient id="paint1_linear" x1="23.7802" y1="228.446" x2="63.272" y2="228.446" gradientUnits="userSpaceOnUse">
<stop/>
<stop offset="0.49" stop-color="#C4171C"/>
<stop offset="1"/>
</linearGradient>
<linearGradient id="paint2_linear" x1="19422.5" y1="9476.1" x2="20530" y2="9476.1" gradientUnits="userSpaceOnUse">
<stop/>
<stop offset="0.49" stop-color="#C4171C"/>
<stop offset="1"/>
</linearGradient>
</defs>
</svg>
