<svg width="31" height="31" viewBox="0 0 31 31" fill="none" xmlns="http://www.w3.org/2000/svg">
<path d="M15.2433 6C11.2493 6 8 9.27385 8 13.2979C8 18.292 14.482 25.6235 14.758 25.9331C15.0172 26.224 15.4698 26.2235 15.7285 25.9331C16.0045 25.6235 22.4865 18.292 22.4865 13.2979C22.4864 9.27385 19.2372 6 15.2433 6ZM15.2433 16.9697C13.2338 16.9697 11.599 15.3226 11.599 13.2979C11.599 11.2733 13.2338 9.62618 15.2433 9.62618C17.2527 9.62618 18.8874 11.2733 18.8874 13.298C18.8874 15.3226 17.2527 16.9697 15.2433 16.9697Z" fill="#412D22"/>
</svg>
