<svg width="128" height="25" viewBox="0 0 128 25" fill="none" xmlns="http://www.w3.org/2000/svg">
<path d="M10.8307 12.32C11.4783 12.32 16.6269 11.552 16.6269 6.784C16.6269 1.152 12.4174 1.344 7.91642 1.344H0.0478516V1.6C1.47261 1.6 1.92595 3.776 1.92595 5.76V19.488C1.92595 21.664 1.44023 23.584 0.0478516 23.584V23.872H7.91642C13.5183 23.872 18.1488 23.744 18.1488 18.144C18.1488 12.672 12.9355 12.32 10.8307 12.32ZM7.91642 1.888C9.43833 1.888 12.1259 1.952 12.1259 6.72C12.1259 11.456 9.66499 12.192 7.91642 12.192H6.65357V1.888H7.91642ZM7.91642 23.328H6.65357V12.736H7.91642C10.0859 12.736 13.3888 12.896 13.3888 17.984C13.3888 23.392 10.7336 23.328 7.91642 23.328Z" fill="#1C1A26"/>
<path d="M29.3397 20.576C29.0483 21.344 28.3035 22.208 27.2026 22.208C25.0978 22.208 25.0978 20.096 25.0978 20.096C25.0978 18.464 26.1664 16.96 29.3397 16.256C29.3397 16.256 29.3397 20.512 29.3397 20.576ZM34.974 22.208C33.3873 22.208 33.4197 19.968 33.4197 19.968V15.2C33.4197 11.424 32.254 8.8 28.0121 8.8C28.0121 8.8 26.3283 8.672 24.8711 9.44C23.0902 10.368 22.6692 11.232 22.3454 11.776C22.0216 12.32 22.054 13.088 22.4426 13.696C23.0254 14.528 24.1588 14.72 25.0007 14.176C25.8426 13.6 26.0692 12.48 25.4864 11.648C25.195 11.232 24.774 11.008 24.2883 10.944C24.0616 10.912 24.1911 10.368 25.2273 9.856C27.4616 8.704 29.3397 10.368 29.3397 13.696V15.68C23.673 17.088 20.953 17.408 20.953 20.896C20.953 24.16 24.6769 24.16 24.6769 24.16C26.9759 24.16 28.8864 22.976 29.3721 21.568C29.7283 24.16 32.6102 24.16 32.6102 24.16C34.6502 24.16 36.1397 22.912 36.3988 21.888L35.8483 21.664C35.654 22.208 34.974 22.208 34.974 22.208Z" fill="#1C1A26"/>
<path d="M42.6918 20V0L37.0251 1.184V1.728C38.3204 2.208 38.6442 2.688 38.6442 3.808V20C38.6442 21.632 38.5794 22.976 37.3489 23.328V23.872H44.0194V23.328C42.8537 23.04 42.6918 21.76 42.6918 20ZM51.3375 21.728C51.3375 21.728 51.2728 21.728 46.4804 15.04C50.787 9.792 54.0899 9.696 54.6727 9.632V9.088H46.8042V9.632C51.0137 9.504 46.3832 14.144 46.3832 14.144L43.3394 17.408C43.3394 17.408 44.1813 18.688 45.1527 20.096C47.3223 23.296 47.6137 23.872 49.848 23.872H54.4137V23.328C53.8632 23.296 52.4061 23.2 51.3375 21.728Z" fill="#1C1A26"/>
<path d="M58.8355 15.648C58.8355 12.576 60.1631 9.344 62.0736 9.344C63.8545 9.344 65.1821 11.616 65.1821 15.648H58.8355ZM62.2355 8.8C57.7669 8.8 54.6583 12.032 54.6583 16.544C54.6583 20.288 57.5726 24.16 61.8145 24.16C66.1536 24.16 68.064 21.632 68.5821 19.968L68.0317 19.68C67.2221 21.184 64.6317 21.824 62.8831 21.44C60.7136 20.96 59.0945 19.328 58.8355 16.192H69.1326C69.1326 11.2 66.9307 8.8 62.2355 8.8Z" fill="#1C1A26"/>
<path d="M80.447 8.96C79.6698 9.28 78.3422 9.76 76.626 12.416V8.8L70.927 10.08V10.624C72.2546 11.296 72.546 11.776 72.546 12.864V19.968C72.546 21.632 72.5136 22.944 71.2508 23.328V23.872H77.9536V23.328C76.7879 23.008 76.626 21.76 76.626 19.968V13.312C77.8241 11.392 79.1517 11.072 79.1517 11.424C79.1517 12 79.4108 12.544 79.8965 12.992C80.9327 13.856 82.4222 13.728 83.2965 12.736C84.1708 11.776 84.0736 10.24 83.0698 9.376C82.3574 8.8 81.127 8.672 80.447 8.96Z" fill="#1C1A26"/>
<path d="M90.6406 20V0L84.974 1.184V1.728C86.2692 2.208 86.593 2.688 86.593 3.808V20C86.593 21.632 86.5283 22.976 85.2978 23.328V23.872H91.9359V23.328C90.8026 23.04 90.6406 21.76 90.6406 20Z" fill="#1C1A26"/>
<path d="M102.513 20.576C102.222 21.344 101.477 22.208 100.376 22.208C98.2712 22.208 98.2712 20.096 98.2712 20.096C98.2712 18.464 99.3397 16.96 102.513 16.256C102.513 16.256 102.513 20.512 102.513 20.576ZM108.147 22.208C106.561 22.208 106.593 19.968 106.593 19.968V15.2C106.593 11.424 105.427 8.8 101.185 8.8C101.185 8.8 99.5016 8.672 98.0445 9.44C96.2635 10.368 95.8426 11.232 95.5188 11.776C95.195 12.32 95.2274 13.088 95.6159 13.696C96.1988 14.528 97.3321 14.72 98.174 14.176C99.0159 13.6 99.2426 12.48 98.6597 11.648C98.3683 11.232 97.9474 11.008 97.4616 10.944C97.235 10.912 97.3645 10.368 98.4007 9.856C100.635 8.704 102.513 10.368 102.513 13.696V15.68C96.8464 17.088 94.1264 17.408 94.1264 20.896C94.1264 24.16 97.8502 24.16 97.8502 24.16C100.149 24.16 102.06 22.976 102.545 21.568C102.902 24.16 105.784 24.16 105.784 24.16C107.824 24.16 109.313 22.912 109.572 21.888L109.022 21.664C108.827 22.208 108.147 22.208 108.147 22.208Z" fill="#1C1A26"/>
<path d="M119.848 23.616C118.002 23.616 115.995 22.304 115.995 18.272V14.208C115.995 11.936 117.16 10.144 119.362 10.144C122.018 10.144 123.216 11.808 123.216 16.928C123.216 21.824 122.212 23.616 119.848 23.616ZM120.981 8.8C119.427 8.8 117.031 9.6 115.995 11.52V0L110.328 1.184V1.728C111.656 2.208 111.979 2.688 111.979 3.776V23.712C111.979 24.224 113.987 23.52 115.153 22.528C116.221 23.584 117.938 24.16 119.88 24.16C124.414 24.16 127.846 21.824 127.846 16.672C127.846 11.616 124.608 8.8 120.981 8.8Z" fill="#1C1A26"/>
</svg>
