<svg width="136" height="32" viewBox="0 0 136 32" fill="none" xmlns="http://www.w3.org/2000/svg">
<path d="M21 20.42V23.956C21.0001 24.2092 20.9042 24.453 20.7316 24.6382C20.559 24.8234 20.3226 24.9363 20.07 24.954C19.633 24.984 19.276 25 19 25C10.163 25 3 17.837 3 9C3 8.724 3.015 8.367 3.046 7.93C3.06372 7.67744 3.17658 7.44101 3.3618 7.26841C3.54703 7.09581 3.79082 6.99989 4.044 7H7.58C7.70404 6.99987 7.8237 7.04586 7.91573 7.12902C8.00776 7.21218 8.0656 7.32658 8.078 7.45C8.101 7.68 8.122 7.863 8.142 8.002C8.34073 9.38892 8.748 10.7378 9.35 12.003C9.445 12.203 9.383 12.442 9.203 12.57L7.045 14.112C8.36445 17.1865 10.8145 19.6365 13.889 20.956L15.429 18.802C15.4919 18.714 15.5838 18.6509 15.6885 18.6237C15.7932 18.5964 15.9042 18.6068 16.002 18.653C17.267 19.2539 18.6156 19.6601 20.002 19.858C20.141 19.878 20.324 19.9 20.552 19.922C20.6752 19.9346 20.7894 19.9926 20.8724 20.0846C20.9553 20.1766 21.0012 20.2961 21.001 20.42H21Z" fill="#F9512E"/>
<path d="M38.9432 14.1477C38.5455 11.6591 36.5966 10.2045 34.1364 10.2045C31.125 10.2045 28.9034 12.4602 28.9034 16.1818C28.9034 19.9034 31.1136 22.1591 34.1364 22.1591C36.6932 22.1591 38.5625 20.5568 38.9432 18.2557L37.1705 18.25C36.8693 19.7386 35.6193 20.5568 34.1477 20.5568C32.1534 20.5568 30.6477 19.0284 30.6477 16.1818C30.6477 13.358 32.1477 11.8068 34.1534 11.8068C35.6364 11.8068 36.8807 12.642 37.1705 14.1477H38.9432ZM51.472 16.1818C51.472 12.4602 49.2447 10.2045 46.2334 10.2045C43.2106 10.2045 40.989 12.4602 40.989 16.1818C40.989 19.8977 43.2106 22.1591 46.2334 22.1591C49.2447 22.1591 51.472 19.9034 51.472 16.1818ZM49.7334 16.1818C49.7334 19.017 48.2334 20.5568 46.2334 20.5568C44.2277 20.5568 42.7334 19.017 42.7334 16.1818C42.7334 13.3466 44.2277 11.8068 46.2334 11.8068C48.2334 11.8068 49.7334 13.3466 49.7334 16.1818ZM63.373 10.3636H61.6343V18.9091H61.5264L55.6059 10.3636H53.9809V22H55.7366V13.4659H55.8445L61.7593 22H63.373V10.3636ZM65.6802 11.875H69.3052V22H71.0552V11.875H74.6859V10.3636H65.6802V11.875ZM76.5882 22L77.6564 18.9205H82.2019L83.2644 22H85.128L80.9405 10.3636H78.9121L74.7246 22H76.5882ZM78.1678 17.4432L79.8837 12.4773H79.9746L81.6905 17.4432H78.1678ZM96.2463 14.1477C95.8486 11.6591 93.8997 10.2045 91.4395 10.2045C88.4281 10.2045 86.2065 12.4602 86.2065 16.1818C86.2065 19.9034 88.4168 22.1591 91.4395 22.1591C93.9963 22.1591 95.8656 20.5568 96.2463 18.2557L94.4736 18.25C94.1724 19.7386 92.9224 20.5568 91.4509 20.5568C89.4565 20.5568 87.9509 19.0284 87.9509 16.1818C87.9509 13.358 89.4509 11.8068 91.4565 11.8068C92.9395 11.8068 94.1838 12.642 94.4736 14.1477H96.2463ZM98.0933 11.875H101.718V22H103.468V11.875H107.099V10.3636H98.0933V11.875ZM121.446 10.3636V17.875C121.446 19.4545 120.355 20.5909 118.583 20.5909C116.816 20.5909 115.719 19.4545 115.719 17.875V10.3636H113.963V18.017C113.963 20.4602 115.793 22.1932 118.583 22.1932C121.372 22.1932 123.208 20.4602 123.208 18.017V10.3636H121.446ZM132.427 13.4205H134.12C134.069 11.5568 132.421 10.2045 130.058 10.2045C127.722 10.2045 125.933 11.5398 125.933 13.5455C125.933 15.1648 127.092 16.1136 128.961 16.6193L130.336 16.9943C131.58 17.3239 132.541 17.733 132.541 18.767C132.541 19.9034 131.455 20.6534 129.961 20.6534C128.609 20.6534 127.484 20.0511 127.381 18.7841H125.62C125.734 20.892 127.364 22.1932 129.972 22.1932C132.705 22.1932 134.279 20.7557 134.279 18.7841C134.279 16.6875 132.41 15.875 130.933 15.5114L129.796 15.2159C128.887 14.983 127.677 14.5568 127.683 13.4432C127.683 12.4545 128.586 11.7216 130.018 11.7216C131.353 11.7216 132.302 12.3466 132.427 13.4205Z" fill="#F9512E"/>
</svg>
