<?xml version="1.0" encoding="utf-8"?>
<!-- Generator: Adobe Illustrator 25.4.0, SVG Export Plug-In . SVG Version: 6.00 Build 0)  -->
<svg version="1.1" id="Слой_1" xmlns="http://www.w3.org/2000/svg" xmlns:xlink="http://www.w3.org/1999/xlink" x="0px" y="0px"
	 viewBox="0 0 20 20" style="enable-background:new 0 0 20 20;" xml:space="preserve">
<style type="text/css">
	.st0{fill:#FFFFFF;}
</style>
<path class="st0" d="M19.9,10C17.2,10,15,7.7,15,5c-2.7,0-5-2.2-5-4.9c-1.1-0.2-2.2,0-3.1,0.5L4.2,1.9c-1,0.5-1.8,1.3-2.3,2.3
	L0.6,6.9C0.1,7.9-0.1,9,0.1,10l0.5,3c0.2,1.1,0.7,2.1,1.5,2.9L4.1,18c0.8,0.8,1.8,1.3,2.8,1.4l3,0.5c1.1,0.2,2.2,0,3.1-0.5l2.7-1.4
	c1-0.5,1.8-1.3,2.3-2.3l1.4-2.7C19.9,12.2,20.1,11.1,19.9,10z M6.9,14.4c-0.7,0-1.2-0.6-1.2-1.2c0-0.7,0.6-1.2,1.2-1.2
	s1.2,0.6,1.2,1.2C8.1,13.8,7.6,14.4,6.9,14.4z M8.1,8.1c-0.7,0-1.2-0.6-1.2-1.2c0-0.7,0.6-1.2,1.2-1.2c0.7,0,1.2,0.6,1.2,1.2
	C9.4,7.6,8.8,8.1,8.1,8.1z M14.4,13.1c-0.7,0-1.2-0.6-1.2-1.2c0-0.7,0.6-1.2,1.2-1.2s1.2,0.6,1.2,1.2C15.6,12.6,15.1,13.1,14.4,13.1
	z"/>
</svg>
