<svg version="1.1" xmlns="http://www.w3.org/2000/svg" xmlns:xlink="http://www.w3.org/1999/xlink" width="50.000000pt" height="50.000000pt" viewBox="0,0,256,256"><g fill="#000000" fill-rule="nonzero" stroke="none" stroke-width="1" stroke-linecap="butt" stroke-linejoin="miter" stroke-miterlimit="10" stroke-dasharray="" stroke-dashoffset="0" font-family="none" font-weight="none" font-size="none" text-anchor="none" style="mix-blend-mode: normal"><g transform="translate(0.56822,-0.0633) scale(5.12,5.12)"><g transform="translate(0,50) scale(0.1,-0.1)"><path d="M152,453c-67,-32 -122,-123 -122,-198c0,-115 110,-225 225,-225c77,0 167,56 200,125c9,20 15,39 12,41c-2,2 -26,-5 -52,-17c-151,-67 -303,85 -236,236c11,26 21,49 21,51c0,8 -15,3 -48,-13zM150,396c-51,-136 110,-297 246,-246c37,15 39,8 7,-30c-53,-63 -145,-86 -221,-54c-142,59 -175,242 -62,337c38,32 45,30 30,-7z"></path></g></g></g></svg>