<svg width="24" height="24" viewBox="0 0 24 24" fill="none" xmlns="http://www.w3.org/2000/svg">
<path d="M22.1623 5.65605C21.3989 5.99374 20.5893 6.21552 19.7603 6.31405C20.634 5.79148 21.288 4.96906 21.6003 4.00005C20.7803 4.48805 19.8813 4.83005 18.9443 5.01505C18.3149 4.34163 17.4807 3.89501 16.5713 3.74463C15.6618 3.59425 14.7282 3.74854 13.9156 4.1835C13.1029 4.61846 12.4567 5.30973 12.0774 6.14984C11.6981 6.98995 11.607 7.93183 11.8183 8.82905C10.1554 8.7457 8.52863 8.31357 7.04358 7.56071C5.55854 6.80785 4.24842 5.7511 3.1983 4.45905C2.82659 5.0975 2.63125 5.82328 2.6323 6.56205C2.6323 8.01205 3.3703 9.29305 4.4923 10.043C3.82831 10.0221 3.17893 9.84283 2.5983 9.52005V9.57205C2.5985 10.5377 2.93267 11.4737 3.54414 12.2211C4.15562 12.9686 5.00678 13.4815 5.9533 13.673C5.33691 13.8401 4.6906 13.8647 4.0633 13.745C4.33016 14.5763 4.8503 15.3032 5.55089 15.8242C6.25147 16.3451 7.09742 16.6338 7.9703 16.65C7.10278 17.3314 6.10947 17.835 5.04718 18.1322C3.98488 18.4294 2.87442 18.5143 1.7793 18.382C3.69099 19.6115 5.91639 20.2642 8.1893 20.262C15.8823 20.262 20.0893 13.889 20.0893 8.36205C20.0893 8.18205 20.0843 8.00005 20.0763 7.82205C20.8952 7.23022 21.6019 6.49707 22.1633 5.65705L22.1623 5.65605Z" fill="#fff"/>
</svg>
