<svg width="24" height="24" viewBox="0 0 24 24" fill="none" xmlns="http://www.w3.org/2000/svg">
<path d="M21.9422 11.9926C19.209 11.9594 17.002 9.73912 17.002 6.99816C14.261 6.99816 12.041 4.79156 12.0074 2.0588C10.9426 1.89708 9.85394 2.07052 8.8934 2.55957L6.19302 3.93533C5.22092 4.43072 4.43068 5.22123 3.93561 6.19349L2.56452 8.88406C2.06798 9.85879 1.89269 10.9657 2.06374 12.0461L2.53562 15.0253C2.7065 16.1047 3.21462 17.1023 3.98717 17.8753L6.12662 20.0143C6.89673 20.7847 7.89098 21.2914 8.96684 21.4619L11.9633 21.9365C13.0379 22.1069 14.1391 21.9322 15.109 21.4381L17.8094 20.0627C18.7814 19.5672 19.5716 18.7768 20.0668 17.8046L21.4379 15.114C21.9285 14.1515 22.1023 13.0602 21.9422 11.9926ZM8.87504 16.3745C8.18481 16.3745 7.62505 15.8148 7.62505 15.1246C7.62505 14.4343 8.18481 13.8746 8.87504 13.8746C9.56527 13.8746 10.125 14.4343 10.125 15.1246C10.125 15.8148 9.56527 16.3745 8.87504 16.3745ZM10.125 10.1247C9.4348 10.1247 8.87504 9.56491 8.87504 8.87468C8.87504 8.18446 9.4348 7.62471 10.125 7.62471C10.8153 7.62471 11.375 8.18446 11.375 8.87468C11.375 9.56491 10.8153 10.1247 10.125 10.1247ZM16.375 15.1246C15.6848 15.1246 15.125 14.5648 15.125 13.8746C15.125 13.1844 15.6848 12.6246 16.375 12.6246C17.0652 12.6246 17.625 13.1844 17.625 13.8746C17.625 14.5648 17.0652 15.1246 16.375 15.1246Z" fill="#B3341A"/>
</svg>
