<svg width="24.000000" height="24.000000" viewBox="0 0 24 24" fill="none" xmlns="http://www.w3.org/2000/svg" xmlns:xlink="http://www.w3.org/1999/xlink">
	<desc>
			Created with Pixso.
	</desc>
	<defs>
		<clipPath id="clip11342_1659">
			<rect id="Icon-twitter" width="24.000000" height="24.000000" fill="white" fill-opacity="0"/>
		</clipPath>
	</defs>
	<rect id="Icon-twitter" width="24.000000" height="24.000000" fill="#FFFFFF" fill-opacity="0"/>
	<g clip-path="url(#clip11342_1659)">
		<path id="Vector" d="M22.162 5.65601C21.3986 5.99365 20.5889 6.21533 19.76 6.31396C20.6337 5.79126 21.2877 4.96899 21.6 4C20.78 4.48804 19.881 4.82983 18.944 5.01489C18.3146 4.34155 17.4803 3.89478 16.5709 3.74463C15.6616 3.59424 14.7279 3.74854 13.9153 4.18335C13.1026 4.61841 12.4564 5.30957 12.0771 6.14966C11.6978 6.98975 11.6068 7.93164 11.818 8.82886C10.1551 8.74561 8.52832 8.31348 7.04327 7.56055C5.55823 6.80762 4.24811 5.75098 3.198 4.45898C2.82629 5.09741 2.63092 5.82324 2.63202 6.56201C2.63202 8.01196 3.37 9.29297 4.492 10.043C3.828 10.022 3.17865 9.84277 2.59796 9.52002L2.59796 9.57202C2.59821 10.5376 2.93237 11.4736 3.54382 12.2209C4.15533 12.9685 5.00647 13.4814 5.953 13.6729C5.33661 13.8398 4.69031 13.8645 4.06299 13.7449C4.32983 14.5762 4.84998 15.3032 5.5506 15.824C6.25116 16.345 7.09711 16.6338 7.96997 16.6499C7.10248 17.3313 6.10919 17.835 5.04688 18.1321C3.98456 18.4292 2.87415 18.5142 1.77899 18.3818C3.69067 19.6113 5.91608 20.2642 8.18896 20.262C15.882 20.262 20.089 13.8889 20.089 8.36182C20.089 8.18188 20.084 8 20.076 7.82202C20.8948 7.22998 21.6016 6.49683 22.163 5.65698L22.162 5.65601Z" fill="#F9512E" fill-opacity="1.000000" fill-rule="nonzero"/>
	</g>
</svg>
