<svg version="1.1" xmlns="http://www.w3.org/2000/svg" xmlns:xlink="http://www.w3.org/1999/xlink" width="24" height="24" viewBox="0,0,256,256"><g fill="#ffffff" fill-rule="nonzero" stroke="none" stroke-width="1" stroke-linecap="butt" stroke-linejoin="miter" stroke-miterlimit="10" stroke-dasharray="" stroke-dashoffset="0" font-family="none" font-weight="none" font-size="none" text-anchor="none" style="mix-blend-mode: normal"><g transform="translate(0.30939,0.26464) scale(10.66667,10.66667)"><path d="M22.162,5.65593c-0.7634,0.33769 -1.573,0.55947 -2.402,0.658c0.8737,-0.52257 1.5277,-1.34499 1.84,-2.314c-0.82,0.488 -1.719,0.83 -2.656,1.015c-0.6294,-0.67342 -1.4636,-1.12004 -2.3731,-1.27042c-0.9094,-0.15038 -1.843,0.00391 -2.6556,0.43887c-0.8127,0.43496 -1.4589,1.12623 -1.8382,1.96634c-0.3793,0.84011 -0.4704,1.78199 -0.2591,2.67921c-1.6629,-0.08335 -3.28968,-0.51548 -4.77472,-1.26834c-1.48505,-0.75286 -2.79516,-1.80962 -3.84529,-3.10166c-0.37171,0.63845 -0.56704,1.36422 -0.566,2.103c0,1.45 0.738,2.731 1.86,3.48097c-0.66399,-0.0209 -1.31337,-0.20019 -1.894,-0.52297v0.052c0.0002,0.96567 0.33437,1.90157 0.94585,2.64907c0.61148,0.7474 1.46263,1.2604 2.40915,1.4519c-0.61638,0.1671 -1.26269,0.1917 -1.89,0.072c0.26687,0.8313 0.78701,1.5582 1.48759,2.0791c0.70059,0.5209 1.54654,0.8097 2.41941,0.8259c-0.86752,0.6814 -1.86082,1.185 -2.92312,1.4822c-1.06229,0.2972 -2.17275,0.3821 -3.26788,0.2498c1.9117,1.2295 4.1371,1.8821 6.41,1.88c7.69301,0 11.90001,-6.373 11.90001,-11.89997c0,-0.18 -0.005,-0.362 -0.013,-0.54c0.8189,-0.59184 1.5256,-1.32498 2.087,-2.165z"></path></g></g></svg>