<svg version="1.1" xmlns="http://www.w3.org/2000/svg" xmlns:xlink="http://www.w3.org/1999/xlink" width="20" height="20" viewBox="0,0,256,256"><g fill="#ffffff" fill-rule="nonzero" stroke="none" stroke-width="1" stroke-linecap="butt" stroke-linejoin="miter" stroke-miterlimit="10" stroke-dasharray="" stroke-dashoffset="0" font-family="none" font-weight="none" font-size="none" text-anchor="none" style="mix-blend-mode: normal"><g transform="scale(12.8,12.8)"><path d="M10,0c2.717,0 3.056,0.01 4.122,0.06c1.065,0.05 1.79,0.217 2.428,0.465c0.66,0.254 1.216,0.598 1.772,1.153c0.5085,0.4999 0.902,1.10459 1.153,1.772c0.247,0.637 0.415,1.363 0.465,2.428c0.047,1.066 0.06,1.405 0.06,4.122c0,2.717 -0.01,3.056 -0.06,4.122c-0.05,1.065 -0.218,1.79 -0.465,2.428c-0.2503,0.6678 -0.6439,1.2726 -1.153,1.772c-0.5,0.5083 -1.1047,0.9018 -1.772,1.153c-0.637,0.247 -1.363,0.415 -2.428,0.465c-1.066,0.047 -1.405,0.06 -4.122,0.06c-2.717,0 -3.056,-0.01 -4.122,-0.06c-1.065,-0.05 -1.79,-0.218 -2.428,-0.465c-0.66767,-0.2505 -1.27247,-0.6441 -1.772,-1.153c-0.50859,-0.4998 -0.90207,-1.1045 -1.153,-1.772c-0.248,-0.637 -0.415,-1.363 -0.465,-2.428c-0.047,-1.066 -0.06,-1.405 -0.06,-4.122c0,-2.717 0.01,-3.056 0.06,-4.122c0.05,-1.066 0.217,-1.79 0.465,-2.428c0.25024,-0.66782 0.6438,-1.27268 1.153,-1.772c0.49967,-0.50877 1.10443,-0.90227 1.772,-1.153c0.638,-0.248 1.362,-0.415 2.428,-0.465c1.066,-0.047 1.405,-0.06 4.122,-0.06zM10,5c-1.32608,0 -2.59785,0.52678 -3.53553,1.46447c-0.93769,0.93768 -1.46447,2.20945 -1.46447,3.53553c0,1.3261 0.52678,2.5979 1.46447,3.5355c0.93768,0.9377 2.20945,1.4645 3.53553,1.4645c1.3261,0 2.5979,-0.5268 3.5355,-1.4645c0.9377,-0.9376 1.4645,-2.2094 1.4645,-3.5355c0,-1.32608 -0.5268,-2.59785 -1.4645,-3.53553c-0.9376,-0.93769 -2.2094,-1.46447 -3.5355,-1.46447zM16.5,4.75c0,-0.33152 -0.1317,-0.64946 -0.3661,-0.88388c-0.2344,-0.23442 -0.5524,-0.36612 -0.8839,-0.36612c-0.3315,0 -0.6495,0.1317 -0.8839,0.36612c-0.2344,0.23442 -0.3661,0.55236 -0.3661,0.88388c0,0.33152 0.1317,0.64946 0.3661,0.88388c0.2344,0.23442 0.5524,0.36612 0.8839,0.36612c0.3315,0 0.6495,-0.1317 0.8839,-0.36612c0.2344,-0.23442 0.3661,-0.55236 0.3661,-0.88388zM10,7c0.7956,0 1.5587,0.31607 2.1213,0.87868c0.5626,0.56261 0.8787,1.32567 0.8787,2.12132c0,0.7956 -0.3161,1.5587 -0.8787,2.1213c-0.5626,0.5626 -1.3257,0.8787 -2.1213,0.8787c-0.79565,0 -1.55871,-0.3161 -2.12132,-0.8787c-0.56261,-0.5626 -0.87868,-1.3257 -0.87868,-2.1213c0,-0.79565 0.31607,-1.55871 0.87868,-2.12132c0.56261,-0.56261 1.32567,-0.87868 2.12132,-0.87868z"></path></g></g></svg>