<svg width="104" height="13" viewBox="0 0 104 13" fill="none" xmlns="http://www.w3.org/2000/svg">
<path d="M0.278409 12H7.30682V10.4886H2.03409V0.363636H0.278409V12ZM9.62966 12H16.9933V10.4886H11.3853V6.92614H16.5444V5.42045H11.3853V1.875H16.9251V0.363636H9.62966V12ZM20.5732 12L21.6414 8.92045H26.1869L27.2494 12H29.113L24.9255 0.363636H22.8971L18.7096 12H20.5732ZM22.1528 7.44318L23.8687 2.47727H23.9596L25.6755 7.44318H22.1528ZM31.1134 12H32.8691V7.59659H35.2555C35.2952 7.59659 35.3293 7.59659 35.3691 7.59659L37.7327 12H39.7327L37.1532 7.28977C38.5793 6.76136 39.2895 5.57386 39.2895 4.01136C39.2895 1.86932 37.96 0.363636 35.2611 0.363636H31.1134V12ZM32.8691 6.08523V1.86932H35.0736C36.8066 1.86932 37.5225 2.69318 37.5225 4.01136C37.5225 5.32386 36.8066 6.08523 35.0964 6.08523H32.8691ZM51.138 0.363636H49.3993V8.90909H49.2914L43.3709 0.363636H41.7459V12H43.5016V3.46591H43.6095L49.5243 12H51.138V0.363636ZM58.5734 0.363636V12H60.2439V3.57386H60.3518L63.7836 11.983H65.17L68.6018 3.57955H68.7098V12H70.3802V0.363636H68.2495L64.545 9.40909H64.4086L60.7041 0.363636H58.5734ZM83.3607 6.18182C83.3607 2.46023 81.1335 0.204545 78.1221 0.204545C75.0994 0.204545 72.8778 2.46023 72.8778 6.18182C72.8778 9.89773 75.0994 12.1591 78.1221 12.1591C81.1335 12.1591 83.3607 9.90341 83.3607 6.18182ZM81.6221 6.18182C81.6221 9.01705 80.1221 10.5568 78.1221 10.5568C76.1164 10.5568 74.6221 9.01705 74.6221 6.18182C74.6221 3.34659 76.1164 1.80682 78.1221 1.80682C80.1221 1.80682 81.6221 3.34659 81.6221 6.18182ZM85.8697 12H87.6253V7.59659H90.0117C90.0515 7.59659 90.0856 7.59659 90.1253 7.59659L92.489 12H94.489L91.9094 7.28977C93.3356 6.76136 94.0458 5.57386 94.0458 4.01136C94.0458 1.86932 92.7162 0.363636 90.0174 0.363636H85.8697V12ZM87.6253 6.08523V1.86932H89.8299C91.5628 1.86932 92.2787 2.69318 92.2787 4.01136C92.2787 5.32386 91.5628 6.08523 89.8526 6.08523H87.6253ZM96.5022 12H103.866V10.4886H98.2578V6.92614H103.417V5.42045H98.2578V1.875H103.798V0.363636H96.5022V12Z" fill="#F9512E"/>
</svg>
