<svg version="1.1" xmlns="http://www.w3.org/2000/svg" xmlns:xlink="http://www.w3.org/1999/xlink" width="50.000000pt" height="50.000000pt" viewBox="0,0,256,256"><g fill="#000000" fill-rule="nonzero" stroke="none" stroke-width="1" stroke-linecap="butt" stroke-linejoin="miter" stroke-miterlimit="10" stroke-dasharray="" stroke-dashoffset="0" font-family="none" font-weight="none" font-size="none" text-anchor="none" style="mix-blend-mode: normal"><g transform="scale(5.12,5.12)"><g transform="translate(0,50) scale(0.1,-0.1)"><path d="M240,420c0,-22 5,-40 10,-40c6,0 10,18 10,40c0,22 -4,40 -10,40c-5,0 -10,-18 -10,-40z"></path><path d="M100,392c0,-14 49,-56 57,-49c3,4 -4,18 -17,32c-24,25 -40,32 -40,17z"></path><path d="M360,375c-13,-14 -20,-28 -17,-32c8,-7 57,35 57,49c0,15 -16,8 -40,-17z"></path><path d="M198,333c-46,-29 -60,-81 -34,-132c47,-90 186,-50 186,55c0,16 -12,38 -34,60c-38,38 -75,44 -118,17zM305,305c33,-32 33,-78 0,-110c-49,-50 -135,-15 -135,55c0,19 9,40 25,55c15,16 36,25 55,25c19,0 40,-9 55,-25z"></path><path d="M40,250c0,-5 18,-10 40,-10c22,0 40,5 40,10c0,6 -18,10 -40,10c-22,0 -40,-4 -40,-10z"></path><path d="M380,250c0,-5 18,-10 40,-10c22,0 40,5 40,10c0,6 -18,10 -40,10c-22,0 -40,-4 -40,-10z"></path><path d="M120,135c-13,-14 -20,-28 -17,-32c8,-7 57,35 57,49c0,15 -16,8 -40,-17z"></path><path d="M340,152c0,-14 49,-56 57,-49c3,4 -4,18 -17,32c-24,25 -40,32 -40,17z"></path><path d="M240,80c0,-22 5,-40 10,-40c6,0 10,18 10,40c0,22 -4,40 -10,40c-5,0 -10,-18 -10,-40z"></path></g></g></g></svg>