<svg width="41" height="42" xmlns="http://www.w3.org/2000/svg">

 <g>
  <title>Layer 1</title>
  <path id="svg_1" fill="#E39A3B" d="m20.5,0c-11.32181,0 -20.5,9.18203 -20.5,20.5086c0,11.3265 9.17819,20.5086 20.5,20.5086c0.6003,0 1.191,-0.0393 1.7783,-0.0899c-0.3189,-0.7613 -0.497,-1.5966 -0.497,-2.4737c0,-1.8017 0.7482,-3.4237 1.9445,-4.5881c-0.4202,-0.9505 -0.6633,-1.9964 -0.6633,-3.1026c0,-4.2475 3.4418,-7.6907 7.6875,-7.6907c1.1058,0 2.1511,0.2431 3.1013,0.6636c1.164,-1.1969 2.7852,-1.9454 4.5862,-1.9454c0.8768,0 1.7117,0.1781 2.4727,0.4971c0.0505,-0.5876 0.0898,-1.1784 0.0898,-1.7789c-0.0001,-11.32657 -9.1783,-20.5086 -20.5,-20.5086zm-14.09374,20.5086c-0.70754,0 -1.28122,-0.5739 -1.28122,-1.2818c0,-0.708 0.57368,-1.2817 1.28122,-1.2817c0.70754,0 1.28122,0.5737 1.28122,1.2817c0,0.7079 -0.57368,1.2818 -1.28122,1.2818zm6.40614,10.2542c-1.4153,0 -2.5625,-1.1479 -2.5625,-2.5636c0,-1.4159 1.1472,-2.5636 2.5625,-2.5636c1.4153,0 2.5626,1.1477 2.5626,2.5636c0,1.4157 -1.1473,2.5636 -2.5626,2.5636zm2.5626,-17.945c-1.4153,0 -2.5626,-1.1478 -2.5626,-2.5636c0,-1.41588 1.1473,-2.56358 2.5626,-2.56358c1.4153,0 2.5625,1.1477 2.5625,2.56358c0,1.4158 -1.1472,2.5636 -2.5625,2.5636zm3.8437,10.2543c-0.7075,0 -1.2812,-0.5739 -1.2812,-1.2818c0,-0.7079 0.5737,-1.2817 1.2812,-1.2817c0.7075,0 1.2812,0.5738 1.2812,1.2817c0.0001,0.7079 -0.5736,1.2818 -1.2812,1.2818zm7.6875,-17.94499c0.7075,0 1.2812,0.57377 1.2812,1.28176c0,0.70783 -0.5737,1.28175 -1.2812,1.28175c-0.7076,0 -1.2812,-0.57392 -1.2812,-1.28175c0,-0.70799 0.5736,-1.28176 1.2812,-1.28176zm1.2813,12.81789c-1.4153,0 -2.5625,-1.1479 -2.5625,-2.5636c0,-1.4159 1.1472,-2.5636 2.5625,-2.5636c1.4153,0 2.5625,1.1477 2.5625,2.5636c-0.0001,1.4157 -1.1473,2.5636 -2.5625,2.5636z"/>
  <ellipse ry="0.9255" rx="0.86335" id="svg_5" cy="19.1726" cx="6.42124" opacity="undefined" fill-opacity="null" stroke-opacity="null" stroke-dasharray="null" stroke-width="null" stroke="#412d22" fill="#412d22"/>
  <ellipse ry="0.9255" rx="0.86335" id="svg_6" cy="21.75538" cx="19.13647" opacity="undefined" fill-opacity="null" stroke-opacity="null" stroke-dasharray="null" stroke-width="null" stroke="#412d22" fill="#412d22"/>
  <ellipse ry="0.9255" rx="0.86335" id="svg_7" cy="6.39115" cx="26.95104" opacity="undefined" fill-opacity="null" stroke-opacity="null" stroke-dasharray="null" stroke-width="null" stroke="#412d22" fill="#412d22"/>
  <ellipse ry="2.15066" rx="2.12163" id="svg_8" cy="10.26532" cx="15.36164" opacity="undefined" fill-opacity="null" stroke-opacity="null" stroke-dasharray="null" stroke-width="null" stroke="#412d22" fill="#412d22"/>
  <ellipse ry="2.15066" rx="2.12163" id="svg_9" cy="15.43088" cx="28.1431" opacity="undefined" fill-opacity="null" stroke-opacity="null" stroke-dasharray="null" stroke-width="null" stroke="#412d22" fill="#412d22"/>
  <ellipse ry="2.15066" rx="2.12163" id="svg_10" cy="28.21234" cx="12.77886" opacity="undefined" fill-opacity="null" stroke-opacity="null" stroke-dasharray="null" stroke-width="null" stroke="#412d22" fill="#412d22"/>
 </g>
</svg>