<svg version="1.1" xmlns="http://www.w3.org/2000/svg" xmlns:xlink="http://www.w3.org/1999/xlink" width="18" height="18" viewBox="0,0,256,256"><g fill="#b2341a" fill-rule="nonzero" stroke="none" stroke-width="1" stroke-linecap="butt" stroke-linejoin="miter" stroke-miterlimit="10" stroke-dasharray="" stroke-dashoffset="0" font-family="none" font-weight="none" font-size="none" text-anchor="none" style="mix-blend-mode: normal"><g transform="translate(-0.00712,0) scale(14.22222,14.22222)"><path d="M18,13.42v3.536c0.0001,0.2532 -0.0958,0.497 -0.2684,0.6822c-0.1726,0.1852 -0.409,0.2981 -0.6616,0.3158c-0.437,0.03 -0.794,0.046 -1.07,0.046c-8.837,0 -16,-7.163 -16,-16c0,-0.276 0.015,-0.633 0.046,-1.07c0.01772,-0.25256 0.13058,-0.48899 0.3158,-0.66159c0.18522,-0.1726 0.42902,-0.26852 0.6822,-0.26841h3.536c0.12404,-0.00013 0.2437,0.04586 0.33573,0.12902c0.09203,0.08316 0.14987,0.19756 0.16227,0.32098c0.023,0.23 0.044,0.413 0.064,0.552c0.19873,1.38692 0.606,2.73583 1.208,4.001c0.095,0.2 0.033,0.439 -0.147,0.567l-2.158,1.542c1.31945,3.0745 3.76955,5.5245 6.844,6.844l1.54,-2.154c0.0629,-0.088 0.1548,-0.1511 0.2595,-0.1783c0.1047,-0.0273 0.2157,-0.0169 0.3135,0.0293c1.265,0.6009 2.6136,1.0071 4,1.205c0.139,0.02 0.322,0.042 0.55,0.064c0.1232,0.0126 0.2374,0.0706 0.3204,0.1626c0.0829,0.092 0.1288,0.2115 0.1286,0.3354z"></path></g></g></svg>