<svg aria-hidden="true" style="position: absolute; width: 0; height: 0; overflow: hidden;" version="1.1" xmlns="http://www.w3.org/2000/svg" xmlns:xlink="http://www.w3.org/1999/xlink">
<defs>
<symbol id="icon-header-logo" viewBox="0 0 136 32">
<path d="M14.831 16.32c0.648 0 5.796-0.768 5.796-5.536 0-5.632-4.209-5.44-8.71-5.44h-7.869v0.256c1.425 0 1.878 2.176 1.878 4.16v13.728c0 2.176-0.486 4.096-1.878 4.096v0.288h7.869c5.602 0 10.232-0.128 10.232-5.728 0-5.472-5.213-5.824-7.318-5.824zM11.916 5.888c1.522 0 4.21 0.064 4.21 4.832 0 4.736-2.461 5.472-4.21 5.472h-1.263v-10.304h1.263zM11.916 27.328h-1.263v-10.592h1.263c2.169 0 5.472 0.16 5.472 5.248 0 5.408-2.655 5.344-5.472 5.344z"></path>
<path d="M33.34 24.576c-0.291 0.768-1.036 1.632-2.137 1.632-2.105 0-2.105-2.112-2.105-2.112 0-1.632 1.069-3.136 4.242-3.84 0 0 0 4.256 0 4.32zM38.974 26.208c-1.587 0-1.554-2.24-1.554-2.24v-4.768c0-3.776-1.166-6.4-5.408-6.4 0 0-1.684-0.128-3.141 0.64-1.781 0.928-2.202 1.792-2.526 2.336s-0.291 1.312 0.097 1.92c0.583 0.832 1.716 1.024 2.558 0.48 0.842-0.576 1.069-1.696 0.486-2.528-0.291-0.416-0.712-0.64-1.198-0.704-0.227-0.032-0.097-0.576 0.939-1.088 2.234-1.152 4.112 0.512 4.112 3.84v1.984c-5.667 1.408-8.387 1.728-8.387 5.216 0 3.264 3.724 3.264 3.724 3.264 2.299 0 4.209-1.184 4.695-2.592 0.356 2.592 3.238 2.592 3.238 2.592 2.040 0 3.529-1.248 3.789-2.272l-0.55-0.224c-0.194 0.544-0.874 0.544-0.874 0.544z"></path>
<path d="M46.692 24v-20l-5.667 1.184v0.544c1.295 0.48 1.619 0.96 1.619 2.080v16.192c0 1.632-0.065 2.976-1.295 3.328v0.544h6.67v-0.544c-1.166-0.288-1.328-1.568-1.328-3.328zM55.337 25.728c0 0-0.065 0-4.857-6.688 4.307-5.248 7.609-5.344 8.192-5.408v-0.544h-7.868v0.544c4.209-0.128-0.421 4.512-0.421 4.512l-3.044 3.264c0 0 0.842 1.28 1.813 2.688 2.17 3.2 2.461 3.776 4.695 3.776h4.566v-0.544c-0.55-0.032-2.008-0.128-3.076-1.6z"></path>
<path d="M62.836 19.648c0-3.072 1.328-6.304 3.238-6.304 1.781 0 3.109 2.272 3.109 6.304h-6.347zM66.236 12.8c-4.469 0-7.577 3.232-7.577 7.744 0 3.744 2.914 7.616 7.156 7.616 4.339 0 6.249-2.528 6.768-4.192l-0.55-0.288c-0.81 1.504-3.4 2.144-5.149 1.76-2.169-0.48-3.789-2.112-4.048-5.248h10.297c0-4.992-2.202-7.392-6.897-7.392z"></path>
<path d="M84.447 12.96c-0.777 0.32-2.105 0.8-3.821 3.456v-3.616l-5.699 1.28v0.544c1.328 0.672 1.619 1.152 1.619 2.24v7.104c0 1.664-0.032 2.976-1.295 3.36v0.544h6.703v-0.544c-1.166-0.32-1.328-1.568-1.328-3.36v-6.656c1.198-1.92 2.526-2.24 2.526-1.888 0 0.576 0.259 1.12 0.745 1.568 1.036 0.864 2.526 0.736 3.4-0.256 0.874-0.96 0.777-2.496-0.227-3.36-0.712-0.576-1.943-0.704-2.623-0.416z"></path>
<path d="M94.641 24v-20l-5.667 1.184v0.544c1.295 0.48 1.619 0.96 1.619 2.080v16.192c0 1.632-0.065 2.976-1.295 3.328v0.544h6.638v-0.544c-1.133-0.288-1.295-1.568-1.295-3.328z"></path>
<path d="M106.513 24.576c-0.291 0.768-1.036 1.632-2.137 1.632-2.105 0-2.105-2.112-2.105-2.112 0-1.632 1.069-3.136 4.242-3.84 0 0 0 4.256 0 4.32zM112.147 26.208c-1.586 0-1.554-2.24-1.554-2.24v-4.768c0-3.776-1.166-6.4-5.408-6.4 0 0-1.683-0.128-3.14 0.64-1.781 0.928-2.202 1.792-2.526 2.336s-0.291 1.312 0.097 1.92c0.583 0.832 1.716 1.024 2.558 0.48 0.842-0.576 1.069-1.696 0.486-2.528-0.292-0.416-0.713-0.64-1.198-0.704-0.227-0.032-0.097-0.576 0.939-1.088 2.234-1.152 4.112 0.512 4.112 3.84v1.984c-5.667 1.408-8.387 1.728-8.387 5.216 0 3.264 3.724 3.264 3.724 3.264 2.299 0 4.21-1.184 4.695-2.592 0.357 2.592 3.239 2.592 3.239 2.592 2.040 0 3.529-1.248 3.788-2.272l-0.55-0.224c-0.195 0.544-0.875 0.544-0.875 0.544z"></path>
<path d="M123.848 27.616c-1.846 0-3.853-1.312-3.853-5.344v-4.064c0-2.272 1.165-4.064 3.367-4.064 2.656 0 3.854 1.664 3.854 6.784 0 4.896-1.004 6.688-3.368 6.688zM124.981 12.8c-1.554 0-3.95 0.8-4.986 2.72v-11.52l-5.667 1.184v0.544c1.328 0.48 1.651 0.96 1.651 2.048v19.936c0 0.512 2.008-0.192 3.174-1.184 1.068 1.056 2.785 1.632 4.727 1.632 4.534 0 7.966-2.336 7.966-7.488 0-5.056-3.238-7.872-6.865-7.872z"></path>
</symbol>
<symbol id="icon-arrow" viewBox="0 0 32 32">
<path d="M21.563 14.667l-7.152-7.152 1.885-1.885 10.371 10.371-10.371 10.371-1.885-1.885 7.152-7.152h-16.229v-2.667h16.229z"></path>
</symbol>
<symbol id="icon-close" viewBox="0 0 32 32">
<path d="M16 14.115l6.6-6.6 1.885 1.885-6.6 6.6 6.6 6.6-1.885 1.885-6.6-6.6-6.6 6.6-1.885-1.885 6.6-6.6-6.6-6.6 1.885-1.885 6.6 6.6z"></path>
</symbol>
<symbol id="icon-cookie" viewBox="0 0 32 32">
<path d="M29.256 15.99c-3.644-0.044-6.587-3.005-6.587-6.659-3.655 0-6.615-2.942-6.659-6.586-1.42-0.216-2.871 0.016-4.152 0.668l-3.601 1.834c-1.296 0.661-2.35 1.715-3.010 3.011l-1.828 3.587c-0.662 1.3-0.896 2.776-0.668 4.216l0.629 3.972c0.228 1.439 0.905 2.769 1.935 3.8l2.853 2.852c1.027 1.027 2.352 1.703 3.787 1.93l3.995 0.633c1.433 0.227 2.901-0.006 4.194-0.665l3.601-1.834c1.296-0.661 2.35-1.715 3.010-3.011l1.828-3.587c0.654-1.283 0.886-2.738 0.672-4.162zM11.833 21.833c-0.92 0-1.667-0.746-1.667-1.667s0.746-1.667 1.667-1.667 1.667 0.746 1.667 1.667c0 0.92-0.746 1.667-1.667 1.667zM13.5 13.5c-0.92 0-1.667-0.746-1.667-1.667s0.746-1.667 1.667-1.667c0.92 0 1.667 0.746 1.667 1.667s-0.746 1.667-1.667 1.667zM21.833 20.166c-0.92 0-1.667-0.746-1.667-1.667s0.746-1.667 1.667-1.667c0.92 0 1.667 0.746 1.667 1.667s-0.746 1.667-1.667 1.667z"></path>
</symbol>
<symbol id="icon-facebook" viewBox="0 0 32 32">
<path d="M18.667 18h3.333l1.333-5.333h-4.667v-2.667c0-1.373 0-2.667 2.667-2.667h2v-4.48c-0.435-0.057-2.076-0.187-3.809-0.187-3.62 0-6.191 2.209-6.191 6.267v3.733h-4v5.333h4v11.333h5.333v-11.333z"></path>
</symbol>
<symbol id="icon-instagram" viewBox="0 0 32 32">
<path d="M16 2.667c3.623 0 4.075 0.013 5.496 0.080 1.42 0.067 2.387 0.289 3.237 0.62 0.88 0.339 1.621 0.797 2.363 1.537 0.678 0.667 1.203 1.473 1.537 2.363 0.329 0.849 0.553 1.817 0.62 3.237 0.063 1.421 0.080 1.873 0.080 5.496s-0.013 4.075-0.080 5.496c-0.067 1.42-0.291 2.387-0.62 3.237-0.334 0.89-0.859 1.697-1.537 2.363-0.667 0.678-1.473 1.202-2.363 1.537-0.849 0.329-1.817 0.553-3.237 0.62-1.421 0.063-1.873 0.080-5.496 0.080s-4.075-0.013-5.496-0.080c-1.42-0.067-2.387-0.291-3.237-0.62-0.89-0.334-1.697-0.859-2.363-1.537-0.678-0.666-1.203-1.473-1.537-2.363-0.331-0.849-0.553-1.817-0.62-3.237-0.063-1.421-0.080-1.873-0.080-5.496s0.013-4.075 0.080-5.496c0.067-1.421 0.289-2.387 0.62-3.237 0.334-0.89 0.858-1.697 1.537-2.363 0.666-0.678 1.473-1.203 2.363-1.537 0.851-0.331 1.816-0.553 3.237-0.62 1.421-0.063 1.873-0.080 5.496-0.080zM16 9.333c-1.768 0-3.464 0.702-4.714 1.953s-1.953 2.946-1.953 4.714c0 1.768 0.702 3.464 1.953 4.714s2.946 1.953 4.714 1.953 3.464-0.702 4.714-1.953c1.25-1.25 1.953-2.946 1.953-4.714s-0.702-3.464-1.953-4.714c-1.25-1.25-2.946-1.953-4.714-1.953zM24.667 9c0-0.442-0.176-0.866-0.488-1.178s-0.737-0.488-1.179-0.488c-0.442 0-0.866 0.176-1.179 0.488s-0.488 0.736-0.488 1.178c0 0.442 0.176 0.866 0.488 1.178s0.737 0.488 1.179 0.488c0.442 0 0.866-0.176 1.179-0.488s0.488-0.736 0.488-1.178zM16 12c1.061 0 2.078 0.421 2.828 1.172s1.172 1.768 1.172 2.828c0 1.061-0.421 2.078-1.172 2.828s-1.768 1.172-2.828 1.172c-1.061 0-2.078-0.421-2.828-1.172s-1.172-1.768-1.172-2.828c0-1.061 0.421-2.078 1.172-2.828s1.768-1.172 2.828-1.172z"></path>
</symbol>
<symbol id="icon-menu" viewBox="0 0 32 32">
<path d="M2.667 10.667h26.667v2.667h-26.667v-2.667zM2.667 18.667h26.667v2.667h-26.667v-2.667z"></path>
</symbol>
<symbol id="icon-phone" viewBox="0 0 32 32">
<path d="M28 21.893v4.715c0 0.338-0.128 0.663-0.358 0.91s-0.545 0.397-0.882 0.421c-0.583 0.040-1.059 0.061-1.427 0.061-11.783 0-21.333-9.551-21.333-21.333 0-0.368 0.020-0.844 0.061-1.427 0.024-0.337 0.174-0.652 0.421-0.882s0.572-0.358 0.91-0.358h4.715c0.165-0 0.325 0.061 0.448 0.172s0.2 0.263 0.216 0.428c0.031 0.307 0.059 0.551 0.085 0.736 0.265 1.849 0.808 3.648 1.611 5.335 0.127 0.267 0.044 0.585-0.196 0.756l-2.877 2.056c1.759 4.099 5.026 7.366 9.125 9.125l2.053-2.872c0.084-0.117 0.206-0.201 0.346-0.238s0.288-0.023 0.418 0.039c1.687 0.801 3.485 1.343 5.333 1.607 0.185 0.027 0.429 0.056 0.733 0.085 0.164 0.017 0.317 0.094 0.427 0.217s0.172 0.282 0.171 0.447h-0.001z"></path>
</symbol>
<symbol id="icon-twitter" viewBox="0 0 32 32">
<path d="M29.549 7.541c-1.018 0.45-2.097 0.746-3.203 0.877 1.165-0.697 2.037-1.793 2.453-3.085-1.093 0.651-2.292 1.107-3.541 1.353-0.839-0.898-1.951-1.493-3.164-1.694s-2.457 0.005-3.541 0.585c-1.084 0.58-1.945 1.502-2.451 2.622s-0.627 2.376-0.345 3.572c-2.217-0.111-4.386-0.687-6.366-1.691s-3.727-2.413-5.127-4.136c-0.496 0.851-0.756 1.819-0.755 2.804 0 1.933 0.984 3.641 2.48 4.641-0.885-0.028-1.751-0.267-2.525-0.697v0.069c0 1.288 0.446 2.536 1.261 3.532s1.95 1.681 3.212 1.936c-0.822 0.223-1.684 0.256-2.52 0.096 0.356 1.108 1.049 2.078 1.983 2.772s2.062 1.079 3.226 1.101c-1.157 0.909-2.481 1.58-3.897 1.976s-2.897 0.509-4.357 0.333c2.549 1.639 5.516 2.51 8.547 2.507 10.257 0 15.867-8.497 15.867-15.867 0-0.24-0.007-0.483-0.017-0.72 1.092-0.789 2.034-1.767 2.783-2.887l-0.001-0.001z"></path>
</symbol>
</defs>
</svg>
