<svg width="41" height="41" viewBox="0 0 41 41" fill="none" xmlns="http://www.w3.org/2000/svg">
<path d="M20.5 0C9.17819 0 0 9.17819 0 20.5C0 31.8218 9.17819 41 20.5 41C21.1003 41 21.691 40.9607 22.2783 40.9102C21.9594 40.1492 21.7813 39.3143 21.7813 38.4375C21.7813 36.6365 22.5295 35.0152 23.7258 33.8513C23.3056 32.9012 23.0625 31.8558 23.0625 30.75C23.0625 26.5043 26.5043 23.0625 30.75 23.0625C31.8558 23.0625 32.9011 23.3055 33.8513 23.7258C35.0153 22.5295 36.6365 21.7813 38.4375 21.7813C39.3143 21.7813 40.1492 21.9593 40.9102 22.2782C40.9607 21.6909 41 21.1003 41 20.5C40.9999 9.17819 31.8217 0 20.5 0ZM6.40626 20.5C5.69872 20.5 5.12504 19.9263 5.12504 19.2188C5.12504 18.5111 5.69872 17.9376 6.40626 17.9376C7.1138 17.9376 7.68748 18.5111 7.68748 19.2188C7.68748 19.9263 7.1138 20.5 6.40626 20.5ZM12.8124 30.7499C11.3971 30.7499 10.2499 29.6026 10.2499 28.1874C10.2499 26.7721 11.3971 25.6249 12.8124 25.6249C14.2277 25.6249 15.375 26.7721 15.375 28.1874C15.375 29.6026 14.2277 30.7499 12.8124 30.7499ZM15.375 12.8124C13.9597 12.8124 12.8124 11.6651 12.8124 10.2499C12.8124 8.83463 13.9597 7.68741 15.375 7.68741C16.7903 7.68741 17.9375 8.83463 17.9375 10.2499C17.9375 11.6651 16.7903 12.8124 15.375 12.8124ZM19.2187 23.0624C18.5112 23.0624 17.9375 22.4888 17.9375 21.7812C17.9375 21.0735 18.5112 20.5 19.2187 20.5C19.9262 20.5 20.4999 21.0735 20.4999 21.7812C20.5 22.4888 19.9263 23.0624 19.2187 23.0624ZM26.9062 5.12496C27.6137 5.12496 28.1874 5.6985 28.1874 6.40619C28.1874 7.11372 27.6137 7.68741 26.9062 7.68741C26.1986 7.68741 25.625 7.11372 25.625 6.40619C25.625 5.6985 26.1986 5.12496 26.9062 5.12496ZM28.1875 17.9375C26.7722 17.9375 25.625 16.7901 25.625 15.375C25.625 13.9597 26.7722 12.8124 28.1875 12.8124C29.6028 12.8124 30.75 13.9597 30.75 15.375C30.7499 16.7901 29.6027 17.9375 28.1875 17.9375Z" fill="#E39A3B"/>
</svg>
