<svg xmlns="http://www.w3.org/2000/svg" width="22" height="18" fill="none" viewBox="0 0 22 18"><path fill="#fff" d="M21.162 2.656a8.4 8.4 0 0 1-2.402.658A4.2 4.2 0 0 0 20.6 1c-.82.488-1.719.83-2.656 1.015a4.182 4.182 0 0 0-7.126 3.814 11.87 11.87 0 0 1-8.62-4.37 4.17 4.17 0 0 0-.566 2.103c0 1.45.738 2.731 1.86 3.481a4.2 4.2 0 0 1-1.894-.523v.052a4.185 4.185 0 0 0 3.355 4.101 4.2 4.2 0 0 1-1.89.072A4.185 4.185 0 0 0 6.97 13.65 8.4 8.4 0 0 1 .78 15.382a11.83 11.83 0 0 0 6.41 1.88c7.693 0 11.9-6.373 11.9-11.9q0-.271-.013-.54a8.5 8.5 0 0 0 2.087-2.165Z"/></svg>