<svg width="21" height="20" fill="none" xmlns="http://www.w3.org/2000/svg"><path d="M20.442 9.993a4.997 4.997 0 0 1-4.94-4.995 4.997 4.997 0 0 1-4.995-4.94A5.155 5.155 0 0 0 7.393.56l-2.7 1.375a5.165 5.165 0 0 0-2.257 2.258L1.065 6.884a5.181 5.181 0 0 0-.501 3.162l.472 2.98a5.177 5.177 0 0 0 1.451 2.85l2.14 2.138a5.157 5.157 0 0 0 2.84 1.448l2.996.474a5.153 5.153 0 0 0 3.146-.498l2.7-1.375a5.167 5.167 0 0 0 2.258-2.258l1.37-2.691a5.18 5.18 0 0 0 .505-3.121ZM7.375 14.374a1.25 1.25 0 1 1 0-2.5 1.25 1.25 0 0 1 0 2.5Zm1.25-6.25a1.25 1.25 0 1 1 0-2.5 1.25 1.25 0 0 1 0 2.5Zm6.25 5a1.25 1.25 0 1 1 0-2.5 1.25 1.25 0 0 1 0 2.5Z" fill="#fff"/></svg>