<svg xmlns="http://www.w3.org/2000/svg" width="24" height="24" fill="none"><path fill="#F9512E" d="M12 2c2.717 0 3.056.01 4.122.06s1.79.217 2.428.465c.66.254 1.216.598 1.772 1.153.509.5.902 1.105 1.153 1.772.247.637.415 1.363.465 2.428.047 1.066.06 1.405.06 4.122s-.01 3.056-.06 4.122-.218 1.79-.465 2.428a4.9 4.9 0 0 1-1.153 1.772c-.5.508-1.105.902-1.772 1.153-.637.247-1.363.415-2.428.465-1.066.047-1.405.06-4.122.06s-3.056-.01-4.122-.06-1.79-.218-2.428-.465a4.9 4.9 0 0 1-1.772-1.153 4.9 4.9 0 0 1-1.153-1.772c-.248-.637-.415-1.363-.465-2.428C2.013 15.056 2 14.717 2 12s.01-3.056.06-4.122.217-1.79.465-2.428a4.9 4.9 0 0 1 1.153-1.772A4.9 4.9 0 0 1 5.45 2.525c.638-.248 1.362-.415 2.428-.465C8.944 2.013 9.283 2 12 2m0 5a5 5 0 1 0 0 10 5 5 0 0 0 0-10m6.5-.25a1.25 1.25 0 1 0-2.5 0 1.25 1.25 0 0 0 2.5 0M12 9a3 3 0 1 1 0 6 3 3 0 0 1 0-6"/></svg>