<svg xmlns="http://www.w3.org/2000/svg" width="21" height="20" fill="none"><path fill="#fff" d="M20.442 9.993a4.997 4.997 0 0 1-4.94-4.995 4.997 4.997 0 0 1-4.995-4.94A5.16 5.16 0 0 0 7.393.56l-2.7 1.375a5.17 5.17 0 0 0-2.257 2.258L1.065 6.884a5.2 5.2 0 0 0-.501 3.162l.472 2.98a5.18 5.18 0 0 0 1.451 2.85l2.14 2.138a5.16 5.16 0 0 0 2.84 1.448l2.996.474a5.15 5.15 0 0 0 3.146-.498l2.7-1.375a5.17 5.17 0 0 0 2.258-2.258l1.37-2.691a5.2 5.2 0 0 0 .505-3.121M7.375 14.374a1.25 1.25 0 1 1 0-2.5 1.25 1.25 0 0 1 0 2.5m1.25-6.25a1.25 1.25 0 1 1 0-2.5 1.25 1.25 0 0 1 0 2.5m6.25 5a1.25 1.25 0 1 1 0-2.5 1.25 1.25 0 0 1 0 2.5"/></svg>