<svg width="136" height="32" fill="none" xmlns="http://www.w3.org/2000/svg"><path d="M14.83 16.32c.648 0 5.797-.768 5.797-5.536 0-5.632-4.21-5.44-8.71-5.44h-7.87V5.6c1.425 0 1.879 2.176 1.879 4.16v13.728c0 2.176-.486 4.096-1.878 4.096v.288h7.868c5.602 0 10.233-.128 10.233-5.728 0-5.472-5.214-5.824-7.319-5.824ZM11.917 5.888c1.522 0 4.21.064 4.21 4.832 0 4.736-2.461 5.472-4.21 5.472h-1.263V5.888h1.263Zm0 21.44h-1.263V16.736h1.263c2.17 0 5.473.16 5.473 5.248 0 5.408-2.656 5.344-5.473 5.344ZM33.34 24.576c-.292.768-1.037 1.632-2.138 1.632-2.104 0-2.104-2.112-2.104-2.112 0-1.632 1.068-3.136 4.242-3.84v4.32Zm5.634 1.632c-1.587 0-1.554-2.24-1.554-2.24V19.2c0-3.776-1.166-6.4-5.408-6.4 0 0-1.684-.128-3.141.64-1.781.928-2.202 1.792-2.526 2.336-.324.544-.291 1.312.097 1.92.583.832 1.716 1.024 2.558.48.842-.576 1.069-1.696.486-2.528-.291-.416-.712-.64-1.198-.704-.227-.032-.097-.576.94-1.088 2.233-1.152 4.111.512 4.111 3.84v1.984c-5.666 1.408-8.386 1.728-8.386 5.216 0 3.264 3.724 3.264 3.724 3.264 2.299 0 4.21-1.184 4.695-2.592.356 2.592 3.238 2.592 3.238 2.592 2.04 0 3.53-1.248 3.788-2.272l-.55-.224c-.194.544-.874.544-.874.544ZM46.692 24V4l-5.667 1.184v.544c1.295.48 1.619.96 1.619 2.08V24c0 1.632-.065 2.976-1.295 3.328v.544h6.67v-.544c-1.166-.288-1.327-1.568-1.327-3.328Zm8.645 1.728s-.065 0-4.857-6.688c4.307-5.248 7.61-5.344 8.193-5.408v-.544h-7.87v.544c4.21-.128-.42 4.512-.42 4.512l-3.044 3.264s.842 1.28 1.814 2.688c2.169 3.2 2.46 3.776 4.695 3.776h4.566v-.544c-.551-.032-2.008-.128-3.077-1.6ZM62.835 19.648c0-3.072 1.328-6.304 3.238-6.304 1.781 0 3.109 2.272 3.109 6.304h-6.347Zm3.4-6.848c-4.468 0-7.577 3.232-7.577 7.744 0 3.744 2.914 7.616 7.156 7.616 4.34 0 6.25-2.528 6.768-4.192l-.55-.288c-.81 1.504-3.4 2.144-5.15 1.76-2.169-.48-3.788-2.112-4.047-5.248h10.297c0-4.992-2.202-7.392-6.897-7.392ZM84.447 12.96c-.777.32-2.105.8-3.821 3.456V12.8l-5.7 1.28v.544c1.328.672 1.62 1.152 1.62 2.24v7.104c0 1.664-.033 2.976-1.296 3.36v.544h6.703v-.544c-1.165-.32-1.327-1.568-1.327-3.36v-6.656c1.198-1.92 2.525-2.24 2.525-1.888 0 .576.26 1.12.745 1.568a2.43 2.43 0 0 0 3.4-.256c.874-.96.777-2.496-.226-3.36-.713-.576-1.943-.704-2.623-.416ZM94.64 24V4l-5.666 1.184v.544c1.295.48 1.619.96 1.619 2.08V24c0 1.632-.065 2.976-1.296 3.328v.544h6.639v-.544C94.802 27.04 94.64 25.76 94.64 24ZM106.513 24.576c-.292.768-1.036 1.632-2.137 1.632-2.105 0-2.105-2.112-2.105-2.112 0-1.632 1.068-3.136 4.242-3.84v4.32Zm5.634 1.632c-1.587 0-1.554-2.24-1.554-2.24V19.2c0-3.776-1.166-6.4-5.408-6.4 0 0-1.684-.128-3.141.64-1.781.928-2.202 1.792-2.525 2.336-.324.544-.292 1.312.097 1.92.583.832 1.716 1.024 2.558.48.842-.576 1.068-1.696.485-2.528-.291-.416-.712-.64-1.198-.704-.226-.032-.097-.576.939-1.088 2.235-1.152 4.113.512 4.113 3.84v1.984c-5.667 1.408-8.387 1.728-8.387 5.216 0 3.264 3.724 3.264 3.724 3.264 2.299 0 4.21-1.184 4.695-2.592.356 2.592 3.238 2.592 3.238 2.592 2.04 0 3.53-1.248 3.789-2.272l-.551-.224c-.194.544-.874.544-.874.544ZM123.848 27.616c-1.846 0-3.854-1.312-3.854-5.344v-4.064c0-2.272 1.166-4.064 3.368-4.064 2.655 0 3.853 1.664 3.853 6.784 0 4.896-1.003 6.688-3.367 6.688Zm1.133-14.816c-1.554 0-3.95.8-4.987 2.72V4l-5.666 1.184v.544c1.327.48 1.651.96 1.651 2.048v19.936c0 .512 2.008-.192 3.174-1.184 1.068 1.056 2.784 1.632 4.727 1.632 4.533 0 7.966-2.336 7.966-7.488 0-5.056-3.238-7.872-6.865-7.872Z" fill="#1C1A26"/></svg>