<svg width="168.000000" height="40.000000" viewBox="0 0 168 40" fill="none" xmlns="http://www.w3.org/2000/svg" xmlns:xlink="http://www.w3.org/1999/xlink">
	<desc>
			Created with Pixso.
	</desc>
	<defs>
		<clipPath id="clip11342_1204">
			<rect id="Logo" width="168.000000" height="40.000000" fill="white" fill-opacity="0"></rect>
		</clipPath>
	</defs>
	<g clip-path="url('#clip11342_1204')">
		<path id="Bakerlab" d="M57.6777 5L57.6777 30C57.6777 32.2 57.8779 33.8 59.3179 34.16L59.3179 34.84L51.0779 34.84L51.0779 34.16C52.5979 33.72 52.6777 32.04 52.6777 30L52.6777 9.76001C52.6777 8.35999 52.2778 7.76001 50.6777 7.16003L50.6777 6.47998L57.6777 5ZM116.909 5L116.909 30C116.909 32.2 117.109 33.8 118.509 34.16L118.509 34.84L110.309 34.84L110.309 34.16C111.829 33.72 111.909 32.04 111.909 30L111.909 9.76001C111.909 8.35999 111.509 7.76001 109.909 7.16003L109.909 6.47998L116.909 5ZM148.229 19.4C149.509 17 152.469 16 154.388 16C158.868 16 162.868 19.52 162.868 25.84C162.868 32.28 158.628 35.2 153.028 35.2C150.628 35.2 148.509 34.48 147.188 33.16C145.749 34.4 143.269 35.28 143.269 34.64L143.269 9.71997C143.269 8.35999 142.868 7.76001 141.229 7.16003L141.229 6.47998L148.229 5L148.229 19.4ZM25.48 13.48C25.48 19.4399 19.1201 20.4 18.3201 20.4C20.9199 20.4 27.3601 20.84 27.3601 27.6801C27.3601 34.6801 21.6399 34.84 14.72 34.84L5 34.84L5 34.48C6.71997 34.48 7.32007 32.08 7.32007 29.36L7.32007 12.2C7.32007 9.71997 6.76001 7 5 7L5 6.68005L14.72 6.68005C14.8979 6.68005 15.0757 6.67981 15.2527 6.67957C20.6077 6.67212 25.48 6.66541 25.48 13.48ZM19.9199 13.4C19.9199 7.43994 16.6001 7.35999 14.72 7.35999L13.1599 7.35999L13.1599 20.24L14.72 20.24C16.8799 20.24 19.9199 19.3199 19.9199 13.4ZM46.2241 29.9725C46.2241 30.1753 46.261 32.76 48.144 32.76C48.144 32.76 48.9841 32.76 49.2241 32.08L49.9041 32.36C49.584 33.64 47.7441 35.2 45.2241 35.2C45.2241 35.2 41.6641 35.2 41.2241 31.96C40.624 33.72 38.2642 35.2 35.4241 35.2C35.4241 35.2 30.824 35.2 30.824 31.12C30.824 26.76 34.1841 26.36 41.1841 24.6L41.1841 22.12C41.1841 17.96 38.864 15.88 36.104 17.3199C35.1624 17.7909 34.8269 18.2834 34.8269 18.5267C34.8269 18.6141 34.8701 18.6694 34.9441 18.6801C35.5439 18.76 36.064 19.04 36.4241 19.5601C36.6956 19.9521 36.825 20.3955 36.825 20.8342C36.825 21.5591 36.4719 22.2715 35.824 22.72C34.7842 23.4 33.384 23.16 32.6641 22.12C32.4023 21.7054 32.2712 21.2314 32.2712 20.7758C32.2712 20.396 32.3623 20.0291 32.5439 19.72C32.9441 19.04 33.4641 17.96 35.6641 16.8C37.4641 15.84 39.5439 16 39.5439 16C44.7842 16 46.2241 19.28 46.2241 24L46.2241 29.96L46.2241 29.9725ZM136.615 29.9725C136.615 30.1753 136.652 32.76 138.535 32.76C138.535 32.76 139.375 32.76 139.615 32.08L140.295 32.36C139.975 33.64 138.135 35.2 135.615 35.2C135.615 35.2 132.055 35.2 131.615 31.96C131.015 33.72 128.655 35.2 125.815 35.2C125.815 35.2 121.215 35.2 121.215 31.12C121.215 26.76 124.575 26.36 131.575 24.6L131.575 22.12C131.575 17.96 129.255 15.88 126.495 17.3199C125.553 17.7909 125.218 18.2834 125.218 18.5267C125.218 18.6141 125.261 18.6694 125.335 18.6801C125.935 18.76 126.455 19.04 126.815 19.5601C127.086 19.9521 127.216 20.3955 127.216 20.8342C127.216 21.5591 126.863 22.2715 126.215 22.72C125.175 23.4 123.775 23.16 123.055 22.12C122.793 21.7054 122.662 21.2314 122.662 20.7758C122.662 20.396 122.753 20.0291 122.935 19.72C123.335 19.04 123.855 17.96 126.055 16.8C127.855 15.84 129.935 16 129.935 16C135.175 16 136.615 19.28 136.615 24L136.615 29.96L136.615 29.9725ZM72.46 25.6801C72.46 20.04 76.3 16 81.8201 16C87.6201 16 90.3401 19 90.3401 25.24L77.6201 25.24C77.9399 29.16 79.9399 31.2 82.6201 31.8C84.78 32.28 87.98 31.48 88.98 29.6L89.6599 29.96C89.02 32.04 86.6599 35.2 81.3 35.2C76.0601 35.2 72.46 30.36 72.46 25.6801ZM99.5967 20.52C101.717 17.2 103.356 16.6 104.317 16.2C105.156 15.84 106.677 16 107.557 16.72C108.23 17.3065 108.573 18.1406 108.573 18.9728C108.573 19.673 108.33 20.3717 107.837 20.92C106.757 22.16 104.917 22.3199 103.636 21.24C103.037 20.6801 102.717 20 102.717 19.28C102.717 18.84 101.077 19.24 99.5967 21.64L99.5967 29.96C99.5967 32.2 99.7966 33.76 101.237 34.16L101.237 34.84L92.9565 34.84L92.9565 34.16C94.5166 33.6801 94.5566 32.04 94.5566 29.96L94.5566 21.08C94.5566 19.72 94.1965 19.12 92.5566 18.28L92.5566 17.6L99.5967 16L99.5967 20.52ZM62.3579 23.8C68.2778 32.16 68.3579 32.16 68.3579 32.16C69.6777 34 71.4778 34.12 72.1577 34.16L72.1577 34.84L66.5178 34.84C63.7578 34.84 63.3977 34.12 60.7178 30.12C59.5178 28.36 58.4778 26.76 58.4778 26.76L62.2378 22.6801C62.2378 22.6801 64.9414 19.9386 64.9414 18.2772C64.9414 17.522 64.3828 16.99 62.7578 17.04L62.7578 16.36L72.4778 16.36L72.4778 17.04C71.7578 17.12 67.6777 17.24 62.3579 23.8ZM81.6201 16.6801C79.26 16.6801 77.6201 20.72 77.6201 24.5601L85.46 24.5601C85.46 19.52 83.8201 16.6801 81.6201 16.6801ZM148.229 27.84C148.229 32.88 150.708 34.52 152.989 34.52C155.908 34.52 157.148 32.28 157.148 26.16C157.148 19.76 155.668 17.6801 152.388 17.6801C149.668 17.6801 148.229 19.92 148.229 22.76L148.229 27.84ZM13.1599 34.16L14.72 34.16L14.8408 34.16C18.2754 34.1609 21.48 34.1617 21.48 27.48C21.48 21.12 17.3999 20.92 14.72 20.92L13.1599 20.92L13.1599 34.16ZM38.5439 32.76C39.9041 32.76 40.824 31.6801 41.1841 30.72L41.1841 25.3199C37.2642 26.2 35.9441 28.08 35.9441 30.12C35.9441 30.12 35.9441 32.76 38.5439 32.76ZM128.935 32.76C130.295 32.76 131.215 31.6801 131.575 30.72L131.575 25.3199C127.655 26.2 126.335 28.08 126.335 30.12C126.335 30.12 126.335 32.76 128.935 32.76Z" fill="#FFFFFF" fill-opacity="1.000000" fill-rule="evenodd"></path>
	</g>
</svg>
