<svg width="168" height="40" fill="none" xmlns="http://www.w3.org/2000/svg"><path d="M18.32 20.4c.8 0 7.16-.96 7.16-6.92 0-7.04-5.2-6.8-10.76-6.8H5V7c1.76 0 2.32 2.72 2.32 5.2v17.16c0 2.72-.6 5.12-2.32 5.12v.36h9.72c6.92 0 12.64-.16 12.64-7.16 0-6.84-6.44-7.28-9.04-7.28Zm-3.6-13.04c1.88 0 5.2.08 5.2 6.04 0 5.92-3.04 6.84-5.2 6.84h-1.56V7.36h1.56Zm0 26.8h-1.56V20.92h1.56c2.68 0 6.76.2 6.76 6.56 0 6.76-3.28 6.68-6.76 6.68ZM41.184 30.72c-.36.96-1.28 2.04-2.64 2.04-2.6 0-2.6-2.64-2.6-2.64 0-2.04 1.32-3.92 5.24-4.8v5.4Zm6.96 2.04c-1.96 0-1.92-2.8-1.92-2.8V24c0-4.72-1.44-8-6.68-8 0 0-2.08-.16-3.88.8-2.2 1.16-2.72 2.24-3.12 2.92-.4.68-.36 1.64.12 2.4.72 1.04 2.12 1.28 3.16.6 1.04-.72 1.32-2.12.6-3.16-.36-.52-.88-.8-1.48-.88-.28-.04-.12-.72 1.16-1.36 2.76-1.44 5.08.64 5.08 4.8v2.48c-7 1.76-10.36 2.16-10.36 6.52 0 4.08 4.6 4.08 4.6 4.08 2.84 0 5.2-1.48 5.8-3.24.44 3.24 4 3.24 4 3.24 2.52 0 4.36-1.56 4.68-2.84l-.68-.28c-.24.68-1.08.68-1.08.68ZM57.678 30V5l-7 1.48v.68c1.6.6 2 1.2 2 2.6V30c0 2.04-.08 3.72-1.6 4.16v.68h8.24v-.68c-1.44-.36-1.64-1.96-1.64-4.16Zm10.68 2.16s-.08 0-6-8.36c5.32-6.56 9.4-6.68 10.12-6.76v-.68h-9.72v.68c5.2-.16-.52 5.64-.52 5.64l-3.76 4.08s1.04 1.6 2.24 3.36c2.68 4 3.04 4.72 5.8 4.72h5.64v-.68c-.68-.04-2.48-.16-3.8-2ZM77.62 24.56c0-3.84 1.64-7.88 4-7.88 2.2 0 3.84 2.84 3.84 7.88h-7.84Zm4.2-8.56c-5.52 0-9.36 4.04-9.36 9.68 0 4.68 3.6 9.52 8.84 9.52 5.36 0 7.72-3.16 8.36-5.24l-.68-.36c-1 1.88-4.2 2.68-6.36 2.2-2.68-.6-4.68-2.64-5-6.56h12.72c0-6.24-2.72-9.24-8.52-9.24ZM104.317 16.2c-.96.4-2.6 1-4.72 4.32V16l-7.04 1.6v.68c1.64.84 2 1.44 2 2.8v8.88c0 2.08-.04 3.72-1.6 4.2v.68h8.28v-.68c-1.44-.4-1.64-1.96-1.64-4.2v-8.32c1.48-2.4 3.12-2.8 3.12-2.36 0 .72.32 1.4.92 1.96 1.28 1.08 3.12.92 4.2-.32 1.08-1.2.96-3.12-.28-4.2-.88-.72-2.4-.88-3.24-.52ZM116.909 30V5l-7 1.48v.68c1.6.6 2 1.2 2 2.6V30c0 2.04-.08 3.72-1.6 4.16v.68h8.2v-.68c-1.4-.36-1.6-1.96-1.6-4.16ZM131.575 30.72c-.36.96-1.28 2.04-2.64 2.04-2.6 0-2.6-2.64-2.6-2.64 0-2.04 1.32-3.92 5.24-4.8v5.4Zm6.96 2.04c-1.96 0-1.92-2.8-1.92-2.8V24c0-4.72-1.44-8-6.68-8 0 0-2.08-.16-3.88.8-2.2 1.16-2.72 2.24-3.12 2.92-.4.68-.36 1.64.12 2.4.72 1.04 2.12 1.28 3.16.6 1.04-.72 1.32-2.12.6-3.16-.36-.52-.88-.8-1.48-.88-.28-.04-.12-.72 1.16-1.36 2.76-1.44 5.08.64 5.08 4.8v2.48c-7 1.76-10.36 2.16-10.36 6.52 0 4.08 4.6 4.08 4.6 4.08 2.84 0 5.2-1.48 5.8-3.24.44 3.24 4 3.24 4 3.24 2.52 0 4.36-1.56 4.68-2.84l-.68-.28c-.24.68-1.08.68-1.08.68ZM152.988 34.52c-2.28 0-4.76-1.64-4.76-6.68v-5.08c0-2.84 1.44-5.08 4.16-5.08 3.28 0 4.76 2.08 4.76 8.48 0 6.12-1.24 8.36-4.16 8.36Zm1.4-18.52c-1.92 0-4.88 1-6.16 3.4V5l-7 1.48v.68c1.64.6 2.04 1.2 2.04 2.56v24.92c0 .64 2.48-.24 3.92-1.48 1.32 1.32 3.44 2.04 5.84 2.04 5.6 0 9.84-2.92 9.84-9.36 0-6.32-4-9.84-8.48-9.84Z" fill="#fff"/></svg>