<svg width="168" height="40" fill="none" xmlns="http://www.w3.org/2000/svg"><defs><clipPath id="clip11342_1204"><path id="Logo" fill="#fff" fill-opacity="0" d="M0 0h168v40H0z"/></clipPath></defs><g clip-path="url('#clip11342_1204')"><path id="Bakerlab" d="M57.678 5v25c0 2.2.2 3.8 1.64 4.16v.68h-8.24v-.68c1.52-.44 1.6-2.12 1.6-4.16V9.76c0-1.4-.4-2-2-2.6v-.68l7-1.48Zm59.231 0v25c0 2.2.2 3.8 1.6 4.16v.68h-8.2v-.68c1.52-.44 1.6-2.12 1.6-4.16V9.76c0-1.4-.4-2-2-2.6v-.68l7-1.48Zm31.32 14.4c1.28-2.4 4.24-3.4 6.159-3.4 4.48 0 8.48 3.52 8.48 9.84 0 6.44-4.24 9.36-9.84 9.36-2.4 0-4.519-.72-5.84-2.04-1.439 1.24-3.919 2.12-3.919 1.48V9.72c0-1.36-.401-1.96-2.04-2.56v-.68l7-1.48v14.4ZM25.48 13.48c0 5.96-6.36 6.92-7.16 6.92 2.6 0 9.04.44 9.04 7.28 0 7-5.72 7.16-12.64 7.16H5v-.36c1.72 0 2.32-2.4 2.32-5.12V12.2C7.32 9.72 6.76 7 5 7v-.32h10.253c5.355-.008 10.227-.015 10.227 6.8Zm-5.56-.08c0-5.96-3.32-6.04-5.2-6.04h-1.56v12.88h1.56c2.16 0 5.2-.92 5.2-6.84Zm26.304 16.572c0 .203.037 2.788 1.92 2.788 0 0 .84 0 1.08-.68l.68.28c-.32 1.28-2.16 2.84-4.68 2.84 0 0-3.56 0-4-3.24-.6 1.76-2.96 3.24-5.8 3.24 0 0-4.6 0-4.6-4.08 0-4.36 3.36-4.76 10.36-6.52v-2.48c0-4.16-2.32-6.24-5.08-4.8-.942.47-1.277.963-1.277 1.207 0 .087.043.142.117.153.6.08 1.12.36 1.48.88.272.392.401.835.401 1.274 0 .725-.353 1.438-1.001 1.886-1.04.68-2.44.44-3.16-.6a2.536 2.536 0 0 1-.393-1.344c0-.38.091-.747.273-1.056.4-.68.92-1.76 3.12-2.92 1.8-.96 3.88-.8 3.88-.8 5.24 0 6.68 3.28 6.68 8V29.972Zm90.391 0c0 .203.037 2.788 1.92 2.788 0 0 .84 0 1.08-.68l.68.28c-.32 1.28-2.16 2.84-4.68 2.84 0 0-3.56 0-4-3.24-.6 1.76-2.96 3.24-5.8 3.24 0 0-4.6 0-4.6-4.08 0-4.36 3.36-4.76 10.36-6.52v-2.48c0-4.16-2.32-6.24-5.08-4.8-.942.47-1.277.963-1.277 1.207 0 .087.043.142.117.153.6.08 1.12.36 1.48.88.271.392.401.835.401 1.274 0 .725-.353 1.438-1.001 1.886-1.04.68-2.44.44-3.16-.6a2.535 2.535 0 0 1-.393-1.344c0-.38.091-.747.273-1.056.4-.68.92-1.76 3.12-2.92 1.8-.96 3.88-.8 3.88-.8 5.24 0 6.68 3.28 6.68 8V29.972ZM72.46 25.68c0-5.64 3.84-9.68 9.36-9.68 5.8 0 8.52 3 8.52 9.24H77.62c.32 3.92 2.32 5.96 5 6.56 2.16.48 5.36-.32 6.36-2.2l.68.36c-.64 2.08-3 5.24-8.36 5.24-5.24 0-8.84-4.84-8.84-9.52Zm27.137-5.16c2.12-3.32 3.759-3.92 4.72-4.32.839-.36 2.36-.2 3.24.52a2.983 2.983 0 0 1 1.016 2.253c0 .7-.243 1.399-.736 1.947a2.978 2.978 0 0 1-4.201.32c-.599-.56-.919-1.24-.919-1.96 0-.44-1.64-.04-3.12 2.36v8.32c0 2.24.2 3.8 1.64 4.2v.68h-8.28v-.68c1.56-.48 1.6-2.12 1.6-4.2v-8.88c0-1.36-.36-1.96-2-2.8v-.68l7.04-1.6v4.52Zm-37.24 3.28c5.92 8.36 6 8.36 6 8.36 1.32 1.84 3.12 1.96 3.8 2v.68h-5.64c-2.76 0-3.12-.72-5.8-4.72-1.2-1.76-2.24-3.36-2.24-3.36l3.76-4.08s2.704-2.741 2.704-4.403c0-.755-.558-1.287-2.183-1.237v-.68h9.72v.68c-.72.08-4.8.2-10.12 6.76Zm19.263-7.12c-2.36 0-4 4.04-4 7.88h7.84c0-5.04-1.64-7.88-3.84-7.88Zm66.609 11.16c0 5.04 2.479 6.68 4.76 6.68 2.919 0 4.159-2.24 4.159-8.36 0-6.4-1.48-8.48-4.76-8.48-2.72 0-4.159 2.24-4.159 5.08v5.08Zm-135.07 6.32h1.681c3.435 0 6.64.002 6.64-6.68 0-6.36-4.08-6.56-6.76-6.56h-1.56v13.24Zm25.385-1.4c1.36 0 2.28-1.08 2.64-2.04v-5.4c-3.92.88-5.24 2.76-5.24 4.8 0 0 0 2.64 2.6 2.64Zm90.391 0c1.36 0 2.28-1.08 2.64-2.04v-5.4c-3.92.88-5.24 2.76-5.24 4.8 0 0 0 2.64 2.6 2.64Z" fill="#FFF" fill-opacity="1" fill-rule="evenodd"/></g></svg>