<svg width="136" height="32" viewBox="0 0 136 32" fill="none" xmlns="http://www.w3.org/2000/svg">
<path d="M14.8305 16.32C15.4781 16.32 20.6267 15.552 20.6267 10.784C20.6267 5.152 16.4171 5.344 11.9162 5.344H4.04761V5.6C5.47237 5.6 5.9257 7.776 5.9257 9.76V23.488C5.9257 25.664 5.43999 27.584 4.04761 27.584V27.872H11.9162C17.5181 27.872 22.1486 27.744 22.1486 22.144C22.1486 16.672 16.9352 16.32 14.8305 16.32ZM11.9162 5.888C13.4381 5.888 16.1257 5.952 16.1257 10.72C16.1257 15.456 13.6648 16.192 11.9162 16.192H10.6533V5.888H11.9162ZM11.9162 27.328H10.6533V16.736H11.9162C14.0857 16.736 17.3886 16.896 17.3886 21.984C17.3886 27.392 14.7333 27.328 11.9162 27.328Z" fill="#1C1A26"></path>
<path d="M33.3395 24.576C33.048 25.344 32.3033 26.208 31.2023 26.208C29.0976 26.208 29.0976 24.096 29.0976 24.096C29.0976 22.464 30.1661 20.96 33.3395 20.256C33.3395 20.256 33.3395 24.512 33.3395 24.576ZM38.9738 26.208C37.3871 26.208 37.4195 23.968 37.4195 23.968V19.2C37.4195 15.424 36.2538 12.8 32.0119 12.8C32.0119 12.8 30.328 12.672 28.8709 13.44C27.0899 14.368 26.669 15.232 26.3452 15.776C26.0214 16.32 26.0538 17.088 26.4423 17.696C27.0252 18.528 28.1585 18.72 29.0004 18.176C29.8423 17.6 30.069 16.48 29.4861 15.648C29.1947 15.232 28.7738 15.008 28.288 14.944C28.0614 14.912 28.1909 14.368 29.2271 13.856C31.4614 12.704 33.3395 14.368 33.3395 17.696V19.68C27.6728 21.088 24.9528 21.408 24.9528 24.896C24.9528 28.16 28.6766 28.16 28.6766 28.16C30.9757 28.16 32.8861 26.976 33.3719 25.568C33.728 28.16 36.6099 28.16 36.6099 28.16C38.6499 28.16 40.1395 26.912 40.3985 25.888L39.848 25.664C39.6538 26.208 38.9738 26.208 38.9738 26.208Z" fill="#1C1A26"></path>
<path d="M46.6916 24V4L41.0249 5.184V5.728C42.3201 6.208 42.6439 6.688 42.6439 7.808V24C42.6439 25.632 42.5792 26.976 41.3487 27.328V27.872H48.0192V27.328C46.8535 27.04 46.6916 25.76 46.6916 24ZM55.3373 25.728C55.3373 25.728 55.2725 25.728 50.4801 19.04C54.7868 13.792 58.0896 13.696 58.6725 13.632V13.088H50.8039V13.632C55.0135 13.504 50.383 18.144 50.383 18.144L47.3392 21.408C47.3392 21.408 48.1811 22.688 49.1525 24.096C51.322 27.296 51.6135 27.872 53.8477 27.872H58.4135V27.328C57.863 27.296 56.4058 27.2 55.3373 25.728Z" fill="#1C1A26"></path>
<path d="M62.8352 19.648C62.8352 16.576 64.1628 13.344 66.0733 13.344C67.8543 13.344 69.1819 15.616 69.1819 19.648H62.8352ZM66.2352 12.8C61.7667 12.8 58.6581 16.032 58.6581 20.544C58.6581 24.288 61.5724 28.16 65.8143 28.16C70.1533 28.16 72.0638 25.632 72.5819 23.968L72.0314 23.68C71.2219 25.184 68.6314 25.824 66.8828 25.44C64.7133 24.96 63.0943 23.328 62.8352 20.192H73.1324C73.1324 15.2 70.9305 12.8 66.2352 12.8Z" fill="#1C1A26"></path>
<path d="M84.4467 12.96C83.6696 13.28 82.342 13.76 80.6258 16.416V12.8L74.9267 14.08V14.624C76.2543 15.296 76.5458 15.776 76.5458 16.864V23.968C76.5458 25.632 76.5134 26.944 75.2505 27.328V27.872H81.9534V27.328C80.7877 27.008 80.6258 25.76 80.6258 23.968V17.312C81.8239 15.392 83.1515 15.072 83.1515 15.424C83.1515 16 83.4105 16.544 83.8962 16.992C84.9324 17.856 86.422 17.728 87.2963 16.736C88.1705 15.776 88.0734 14.24 87.0696 13.376C86.3572 12.8 85.1267 12.672 84.4467 12.96Z" fill="#1C1A26"></path>
<path d="M94.6404 24V4L88.9737 5.184V5.728C90.269 6.208 90.5928 6.688 90.5928 7.808V24C90.5928 25.632 90.528 26.976 89.2975 27.328V27.872H95.9356V27.328C94.8023 27.04 94.6404 25.76 94.6404 24Z" fill="#1C1A26"></path>
<path d="M106.513 24.576C106.221 25.344 105.477 26.208 104.376 26.208C102.271 26.208 102.271 24.096 102.271 24.096C102.271 22.464 103.339 20.96 106.513 20.256C106.513 20.256 106.513 24.512 106.513 24.576ZM112.147 26.208C110.56 26.208 110.593 23.968 110.593 23.968V19.2C110.593 15.424 109.427 12.8 105.185 12.8C105.185 12.8 103.501 12.672 102.044 13.44C100.263 14.368 99.8424 15.232 99.5185 15.776C99.1947 16.32 99.2271 17.088 99.6157 17.696C100.199 18.528 101.332 18.72 102.174 18.176C103.016 17.6 103.242 16.48 102.659 15.648C102.368 15.232 101.947 15.008 101.461 14.944C101.235 14.912 101.364 14.368 102.4 13.856C104.635 12.704 106.513 14.368 106.513 17.696V19.68C100.846 21.088 98.1262 21.408 98.1262 24.896C98.1262 28.16 101.85 28.16 101.85 28.16C104.149 28.16 106.06 26.976 106.545 25.568C106.901 28.16 109.783 28.16 109.783 28.16C111.823 28.16 113.313 26.912 113.572 25.888L113.021 25.664C112.827 26.208 112.147 26.208 112.147 26.208Z" fill="#1C1A26"></path>
<path d="M123.848 27.616C122.002 27.616 119.994 26.304 119.994 22.272V18.208C119.994 15.936 121.16 14.144 123.362 14.144C126.017 14.144 127.215 15.808 127.215 20.928C127.215 25.824 126.212 27.616 123.848 27.616ZM124.981 12.8C123.427 12.8 121.031 13.6 119.994 15.52V4L114.328 5.184V5.728C115.655 6.208 115.979 6.688 115.979 7.776V27.712C115.979 28.224 117.987 27.52 119.153 26.528C120.221 27.584 121.937 28.16 123.88 28.16C128.413 28.16 131.846 25.824 131.846 20.672C131.846 15.616 128.608 12.8 124.981 12.8Z" fill="#1C1A26"></path>
</svg>
