<svg width="19" height="19" viewBox="0 0 19 19" fill="none" xmlns="http://www.w3.org/2000/svg">
<path d="M17.6363 14.3447L14.8502 11.5372C14.2953 10.9803 13.3763 10.9972 12.802 11.5761L11.3984 12.99C11.3097 12.9408 11.2179 12.8893 11.1214 12.8348C10.235 12.3399 9.0218 11.6617 7.74517 10.3744C6.46477 9.08453 5.79098 7.8603 5.29833 6.96663C5.24635 6.87195 5.19654 6.78067 5.14735 6.69398L6.08941 5.74621L6.55257 5.27899C7.12772 4.69933 7.14358 3.77365 6.58993 3.21514L3.80382 0.407349C3.25017 -0.150377 2.33076 -0.133457 1.7556 0.446202L0.970378 1.2419L0.991836 1.26336C0.72854 1.60186 0.508521 1.99227 0.344791 2.41328C0.193862 2.81403 0.0998943 3.19645 0.0569273 3.57965C-0.310962 6.65257 1.08275 9.46099 4.86509 13.272C10.0934 18.5394 14.3068 18.1415 14.4886 18.1221C14.8844 18.0744 15.2638 17.9791 15.6494 17.8282C16.0636 17.6652 16.4508 17.4438 16.7866 17.1791L16.8037 17.1945L17.5992 16.4096C18.1732 15.8301 18.1897 14.9041 17.6363 14.3447Z" fill="#412D22"/>
</svg>
