<svg width="42" height="43" viewBox="0 0 42 43" fill="none" xmlns="http://www.w3.org/2000/svg">
<path d="M23.1398 21.3196C23.9398 21.3196 30.2998 20.3596 30.2998 14.3996C30.2998 7.35961 25.0998 7.59961 19.5398 7.59961H9.81982V7.91961C11.5798 7.91961 12.1398 10.6396 12.1398 13.1196V30.2796C12.1398 32.9996 11.5398 35.3996 9.81982 35.3996V35.7596H19.5398C26.4598 35.7596 32.1798 35.5996 32.1798 28.5996C32.1798 21.7596 25.7398 21.3196 23.1398 21.3196ZM19.5398 8.27961C21.4198 8.27961 24.7398 8.35961 24.7398 14.3196C24.7398 20.2396 21.6998 21.1596 19.5398 21.1596H17.9798V8.27961H19.5398ZM19.5398 35.0796H17.9798V21.8396H19.5398C22.2198 21.8396 26.2998 22.0396 26.2998 28.3996C26.2998 35.1596 23.0198 35.0796 19.5398 35.0796Z" fill="#1C1A26"/>
</svg>
