<?xml version="1.0" standalone="no"?>
<!DOCTYPE svg PUBLIC "-//W3C//DTD SVG 20010904//EN"
 "http://www.w3.org/TR/2001/REC-SVG-20010904/DTD/svg10.dtd">
<svg version="1.0" xmlns="http://www.w3.org/2000/svg"
 width="586.000000pt" height="586.000000pt" viewBox="0 0 586.000000 586.000000"
 preserveAspectRatio="xMidYMid meet">
<metadata>
Created by potrace 1.14, written by Peter Selinger 2001-2017
</metadata>
<g transform="translate(0.000000,586.000000) scale(0.100000,-0.100000)"
fill="#000000" stroke="none">
<path d="M3366 4963 c-8 -9 -57 -15 -96 -13 -50 3 -110 1 -145 -4 -51 -9 -180
-4 -237 8 -9 2 -19 -3 -22 -11 -3 -8 -10 -11 -16 -8 -5 3 -10 2 -10 -4 0 -5
-8 -10 -17 -9 -10 0 -30 -3 -45 -6 -15 -4 -58 1 -95 10 -37 8 -100 16 -140 18
-68 2 -71 1 -67 -20 3 -16 -3 -25 -26 -34 -17 -7 -30 -17 -30 -22 0 -5 -4 -7
-9 -3 -5 3 -12 1 -15 -4 -3 -5 -22 -8 -41 -7 -19 1 -35 -3 -35 -8 0 -5 -3 -6
-6 -3 -4 3 -16 1 -27 -5 -11 -6 -34 -12 -51 -14 -28 -2 -68 -17 -164 -61 -32
-14 -94 -52 -118 -72 -21 -17 -103 -51 -126 -52 -13 0 -32 -4 -43 -8 -11 -5
-25 -5 -31 0 -7 6 -20 1 -34 -11 -13 -11 -28 -20 -35 -20 -19 0 -62 -54 -59
-75 4 -24 -16 -49 -41 -53 -11 -2 -24 -5 -30 -5 -5 -1 -18 -10 -29 -19 -10
-10 -23 -15 -28 -12 -4 3 -8 1 -8 -4 0 -5 -11 -14 -25 -20 -14 -7 -28 -19 -32
-28 -8 -22 -67 -82 -84 -86 -8 -2 -20 -11 -27 -21 -7 -9 -18 -14 -24 -11 -6 4
-8 2 -4 -4 3 -6 -2 -15 -11 -21 -10 -6 -14 -11 -10 -11 4 0 -3 -11 -16 -25
-13 -14 -31 -48 -41 -75 -10 -28 -22 -50 -28 -50 -5 0 -7 -4 -3 -9 3 -6 -3
-24 -14 -42 -11 -18 -18 -36 -15 -41 3 -4 1 -8 -4 -8 -5 0 -17 -19 -28 -42
-10 -24 -21 -45 -24 -48 -8 -7 -41 -79 -38 -82 2 -2 -7 -17 -20 -35 -12 -17
-22 -36 -22 -42 0 -6 -4 -11 -10 -11 -5 0 -13 -12 -16 -27 -6 -26 -42 -101
-54 -113 -3 -3 -7 -12 -8 -20 -12 -52 -54 -205 -58 -212 -3 -4 0 -8 6 -8 7 0
9 -11 5 -32 -7 -31 -9 -137 -5 -203 2 -34 -8 -93 -20 -115 -5 -9 -4 -23 1 -33
6 -9 6 -17 2 -17 -7 0 -13 -47 -16 -147 -1 -24 -6 -43 -10 -43 -5 0 -5 -6 0
-12 12 -20 14 -36 19 -128 2 -47 7 -103 10 -125 4 -22 7 -48 7 -57 1 -10 4
-18 8 -18 4 0 8 -16 8 -35 3 -59 4 -65 14 -65 6 0 8 -3 4 -6 -3 -3 3 -23 14
-42 10 -20 19 -45 19 -54 0 -10 3 -17 8 -16 11 4 53 -28 45 -35 -3 -4 -1 -7 5
-7 7 0 12 -7 12 -15 0 -8 5 -15 10 -15 6 0 10 -7 10 -15 0 -8 4 -14 8 -12 13
3 112 -102 116 -124 2 -8 6 -21 9 -29 6 -16 20 -70 21 -83 1 -4 8 -12 16 -17
8 -5 12 -10 7 -10 -4 0 2 -16 13 -37 10 -20 17 -40 14 -45 -3 -4 -1 -8 3 -8 5
0 14 -15 21 -34 7 -18 22 -45 35 -58 55 -61 88 -109 81 -120 -4 -6 -3 -8 3 -5
5 3 20 -15 34 -41 13 -26 31 -54 40 -62 20 -19 50 -86 41 -94 -3 -3 1 -6 10
-6 8 0 32 -20 54 -44 21 -24 57 -54 80 -67 51 -30 86 -59 100 -84 9 -15 23
-20 65 -22 59 -2 180 -31 190 -46 3 -5 9 -8 13 -7 17 5 86 -13 96 -25 6 -7 33
-19 60 -25 28 -7 47 -16 44 -21 -3 -5 -2 -9 3 -8 13 3 63 -12 63 -20 0 -3 10
-7 23 -8 12 0 45 -11 72 -24 56 -26 64 -28 119 -34 21 -3 42 -7 46 -10 13 -8
90 -19 103 -15 19 6 33 5 39 -5 5 -7 8 -7 8 0 0 7 41 10 113 9 61 -1 112 -2
112 -3 0 -18 246 -15 330 3 84 19 136 27 192 29 22 1 39 5 36 10 -2 4 -1 7 4
8 4 0 17 2 28 4 11 3 35 5 53 7 17 1 32 5 32 9 0 4 7 10 16 13 8 3 12 2 9 -4
-10 -16 99 33 124 56 13 12 41 30 62 41 21 10 39 22 39 27 0 18 153 157 166
152 8 -3 13 -2 11 2 -1 4 1 9 6 12 4 3 37 33 73 67 67 65 117 89 143 69 11 -8
13 -8 8 0 -8 14 34 44 61 44 11 0 25 7 32 15 7 8 16 15 21 15 5 0 18 8 28 17
45 42 79 68 85 65 4 -1 17 8 29 22 64 69 87 96 87 101 0 7 29 42 63 76 15 16
27 31 27 34 0 2 13 17 28 32 16 16 38 47 50 71 12 23 31 60 43 82 11 22 17 40
13 40 -3 0 -1 7 6 15 7 8 9 15 4 15 -4 0 -3 5 4 12 7 7 12 20 12 30 0 10 5 18
12 18 6 0 9 3 5 6 -5 5 6 35 68 179 9 22 18 54 19 70 2 17 6 48 11 70 4 22 8
48 9 58 0 9 4 17 8 17 4 0 3 11 -2 25 -6 16 -6 26 1 31 8 5 8 9 0 13 -14 9
-20 121 -6 121 5 0 3 5 -5 10 -8 5 -11 10 -7 10 4 0 3 9 -3 19 -6 12 -6 22 -1
25 15 10 -2 141 -20 152 -5 3 -9 41 -9 85 0 87 -9 112 -49 144 -14 11 -34 28
-44 38 -11 11 -35 19 -60 20 -40 2 -71 22 -61 39 3 5 0 8 -6 8 -6 0 -8 5 -5
10 11 18 -24 23 -40 6 -9 -9 -25 -16 -36 -16 -11 0 -22 -6 -25 -13 -3 -8 -11
-14 -19 -14 -8 0 -13 2 -10 5 7 8 -15 42 -28 42 -6 0 -21 -11 -32 -25 -15 -17
-28 -22 -43 -18 -12 3 -22 9 -22 14 0 5 -7 9 -15 9 -8 0 -23 8 -33 18 -10 9
-25 18 -32 20 -23 5 -175 83 -181 93 -3 5 -19 12 -35 15 -44 8 -107 39 -128
63 -11 11 -16 21 -12 21 4 0 0 7 -8 16 -9 8 -16 24 -16 33 0 10 -6 24 -14 31
-17 13 -11 35 16 64 10 11 18 29 18 40 0 17 2 18 10 6 7 -11 10 -11 10 -2 0
24 -21 52 -39 52 -23 0 -37 18 -39 48 0 13 -9 30 -19 38 -17 13 -17 13 0 14 9
0 17 5 17 11 0 5 6 7 13 3 6 -4 1 4 -12 19 -13 14 -31 24 -42 22 -11 -2 -20 4
-24 16 -4 10 -13 19 -20 19 -11 0 -14 13 -12 50 1 32 -2 51 -10 55 -7 2 -13
11 -13 20 0 8 -4 15 -9 15 -10 0 -24 36 -24 63 1 15 -5 18 -23 14 -28 -5 -43
11 -23 23 20 13 23 68 5 86 -18 18 -21 34 -5 34 5 0 8 4 4 9 -3 6 2 14 11 19
9 5 15 12 15 15 -3 21 0 27 13 27 18 0 26 12 32 45 3 15 0 25 -8 25 -9 0 -9 3
0 12 7 7 12 23 12 38 0 17 3 21 9 12 6 -10 12 -7 25 13 9 14 14 30 11 35 -3 5
4 15 15 23 11 7 17 16 14 19 -3 3 7 8 21 12 16 4 25 13 25 26 0 10 4 21 9 25
10 6 -1 53 -20 89 -8 14 -8 16 3 10 7 -4 5 1 -4 12 -9 10 -21 31 -27 47 -6 15
-17 27 -26 27 -8 0 -15 5 -15 10 0 6 -6 10 -14 10 -22 0 -56 33 -59 57 -4 29
-5 30 -53 36 -23 4 -61 15 -85 25 -43 19 -96 37 -141 49 -33 8 -125 12 -132 6z"/>
</g>
</svg>
