<?xml version="1.0" standalone="no"?>
<!DOCTYPE svg PUBLIC "-//W3C//DTD SVG 20010904//EN"
 "http://www.w3.org/TR/2001/REC-SVG-20010904/DTD/svg10.dtd">
<svg version="1.0" xmlns="http://www.w3.org/2000/svg"
 width="672.000000pt" height="672.000000pt" viewBox="0 0 672.000000 672.000000"
 preserveAspectRatio="xMidYMid meet">
<metadata>
Created by potrace 1.14, written by Peter Selinger 2001-2017
</metadata>
<g transform="translate(0.000000,672.000000) scale(0.100000,-0.100000)"
fill="#000000" stroke="none">
<path d="M3168 6664 c-2 -2 -41 -6 -85 -8 -45 -3 -92 -8 -105 -10 -13 -3 -48
-8 -78 -12 -58 -6 -79 -10 -120 -18 -14 -3 -41 -9 -60 -12 -19 -4 -42 -8 -50
-10 -16 -3 -135 -32 -160 -39 -14 -4 -112 -32 -135 -39 -5 -2 -23 -8 -38 -14
-16 -7 -33 -12 -38 -12 -15 0 -261 -100 -286 -116 -13 -8 -23 -12 -23 -9 0 6
-185 -90 -282 -146 -118 -69 -310 -200 -385 -264 -7 -5 -18 -14 -25 -20 -95
-73 -314 -283 -414 -397 -121 -137 -275 -354 -376 -529 -64 -111 -167 -321
-194 -394 -10 -27 -23 -53 -28 -57 -6 -4 -8 -8 -4 -8 3 0 -13 -56 -38 -125
-24 -69 -46 -135 -48 -147 -7 -34 -14 -59 -25 -95 -5 -17 -7 -34 -3 -37 3 -3
0 -6 -7 -6 -7 0 -10 -4 -7 -9 3 -4 1 -23 -4 -42 -14 -49 -58 -321 -67 -414
-15 -153 -8 -578 11 -720 2 -16 7 -52 11 -80 3 -27 8 -58 11 -68 3 -11 7 -29
9 -40 2 -19 15 -87 30 -152 9 -40 44 -171 55 -205 6 -19 13 -42 15 -50 2 -8
18 -53 35 -100 17 -47 35 -96 39 -110 20 -61 139 -310 194 -405 41 -71 177
-286 187 -295 3 -3 31 -40 63 -82 135 -182 400 -456 548 -568 18 -14 54 -42
81 -63 305 -239 730 -450 1123 -558 70 -19 197 -49 225 -53 8 -2 29 -6 45 -9
17 -4 44 -9 60 -11 17 -2 48 -7 70 -11 22 -3 58 -8 80 -10 22 -2 72 -7 110
-12 83 -9 533 -10 556 -1 15 6 15 11 -2 64 -11 32 -22 69 -24 81 -3 13 -7 35
-11 50 -3 15 -8 31 -11 37 -4 5 -7 69 -9 142 -2 118 11 224 39 319 22 72 42
125 49 125 4 0 8 6 8 14 0 39 111 202 199 293 14 15 14 18 -19 108 -34 91 -55
180 -66 280 -5 38 -5 222 0 255 8 61 19 119 33 175 8 33 16 65 18 70 2 12 7
24 47 122 61 149 206 347 324 443 94 75 113 89 209 144 56 32 200 95 235 101
8 2 16 4 18 5 1 2 5 3 10 5 34 9 61 15 82 19 14 3 47 9 74 14 50 10 332 8 376
-2 14 -3 41 -9 60 -12 19 -3 42 -8 50 -11 19 -8 18 -7 60 -17 19 -5 40 -11 45
-15 6 -4 29 -13 52 -21 41 -13 44 -12 70 15 35 35 130 108 163 125 14 7 27 16
30 19 12 15 171 84 220 96 123 30 171 37 265 38 108 2 260 -12 260 -23 0 -1 9
-3 20 -5 11 -1 48 -12 83 -23 34 -11 64 -17 66 -13 12 22 14 421 2 546 -16
177 -27 260 -57 405 -11 52 -24 109 -29 125 -5 17 -11 41 -14 55 -2 14 -15 57
-27 95 -13 39 -23 72 -24 75 -3 13 -27 87 -36 108 -5 12 -13 32 -18 45 -72
180 -164 374 -216 457 -14 22 -25 42 -25 44 0 3 -11 22 -25 43 -37 56 -41 62
-87 133 -23 36 -44 67 -47 70 -4 3 -33 41 -66 85 -143 193 -344 397 -565 575
-24 19 -48 40 -54 45 -36 34 -277 191 -411 267 -51 29 -237 119 -300 144 -33
14 -73 31 -90 38 -68 30 -291 102 -375 121 -8 1 -33 8 -55 13 -22 6 -51 13
-65 16 -14 3 -47 10 -75 15 -27 6 -66 13 -85 16 -19 2 -46 7 -59 10 -14 2 -54
7 -90 11 -36 3 -86 8 -111 11 -54 6 -487 13 -492 7z"/>
</g>
</svg>
