<svg width="24.000000" height="24.000000" viewBox="0 0 24 24" fill="none" xmlns="http://www.w3.org/2000/svg" xmlns:xlink="http://www.w3.org/1999/xlink">
	<desc>
			Created with Pixso.
	</desc>
	<defs>
		<clipPath id="clip11342_1599">
			<rect id="Icon-instagram" width="24.000000" height="24.000000" fill="white" fill-opacity="0"/>
		</clipPath>
	</defs>
	<rect id="Icon-instagram" width="24.000000" height="24.000000" fill="#FFFFFF" fill-opacity="0"/>
	<g clip-path="url(#clip11342_1599)">
		<path id="Vector" d="M12 2C14.7168 2 15.0562 2.01001 16.1221 2.06006C17.187 2.10999 17.9121 2.27698 18.5498 2.52502C19.21 2.77905 19.7661 3.12305 20.3218 3.67798C20.8306 4.17786 21.2241 4.78259 21.4751 5.44995C21.7222 6.08704 21.8901 6.81299 21.9399 7.87805C21.9868 8.94397 22 9.28296 22 12C22 14.717 21.9902 15.056 21.9399 16.1219C21.8901 17.187 21.7222 17.912 21.4751 18.55C21.2246 19.2178 20.8311 19.8226 20.3218 20.322C19.8218 20.8303 19.2173 21.2238 18.5498 21.475C17.9131 21.722 17.187 21.89 16.1221 21.9399C15.0562 21.9871 14.7168 22 12 22C9.2832 22 8.94385 21.99 7.87793 21.9399C6.81299 21.89 6.08789 21.722 5.4502 21.475C4.78223 21.2245 4.17773 20.8309 3.67822 20.322C3.16943 19.8221 2.77588 19.2175 2.5249 18.55C2.27686 17.913 2.10986 17.187 2.06006 16.1219C2.01318 15.056 2 14.717 2 12C2 9.28296 2.00977 8.94397 2.06006 7.87805C2.10986 6.81201 2.27686 6.08801 2.5249 5.44995C2.77539 4.78223 3.16895 4.17737 3.67822 3.67798C4.17773 3.16919 4.78223 2.77576 5.4502 2.52502C6.08789 2.27698 6.81201 2.10999 7.87793 2.06006C8.94385 2.01294 9.2832 2 12 2ZM12 7C10.6738 7 9.40234 7.52673 8.46436 8.46448C7.52686 9.4021 7 10.674 7 12C7 13.326 7.52686 14.5979 8.46436 15.5355C9.40234 16.4733 10.6738 17 12 17C13.3262 17 14.5977 16.4733 15.5356 15.5355C16.4731 14.5979 17 13.326 17 12C17 10.674 16.4731 9.4021 15.5356 8.46448C14.5977 7.52673 13.3262 7 12 7ZM18.5 6.75C18.5 6.41846 18.3682 6.10059 18.1338 5.86609C17.8994 5.63171 17.5815 5.5 17.25 5.5C16.9185 5.5 16.6006 5.63171 16.3662 5.86609C16.1318 6.10059 16 6.41846 16 6.75C16 7.08154 16.1318 7.39941 16.3662 7.63391C16.6006 7.86829 16.9185 8 17.25 8C17.5815 8 17.8994 7.86829 18.1338 7.63391C18.3682 7.39941 18.5 7.08154 18.5 6.75ZM12 9C12.7954 9 13.5586 9.31604 14.1211 9.87866C14.6841 10.4413 15 11.2043 15 12C15 12.7957 14.6841 13.5587 14.1211 14.1213C13.5586 14.684 12.7954 15 12 15C11.2046 15 10.4414 14.684 9.87891 14.1213C9.31592 13.5587 9 12.7957 9 12C9 11.2043 9.31592 10.4413 9.87891 9.87866C10.4414 9.31604 11.2046 9 12 9Z" fill="#F9512E" fill-opacity="1.000000" fill-rule="nonzero"/>
	</g>
</svg>
