<svg width="19" height="16" viewBox="0 0 19 16" fill="none" xmlns="http://www.w3.org/2000/svg">
<path d="M18.9936 2.13973C18.3294 2.43427 17.6149 2.63348 16.8655 2.72245C17.6306 2.26407 18.2178 1.53877 18.4949 0.67312C17.779 1.0978 16.9857 1.40587 16.1422 1.57193C15.4663 0.852164 14.5034 0.402344 13.4372 0.402344C11.3914 0.402344 9.73224 2.06154 9.73224 4.10728C9.73224 4.39767 9.76512 4.68033 9.82867 4.95166C6.74956 4.79721 4.01942 3.32231 2.19196 1.08011C1.8731 1.62719 1.69019 2.26407 1.69019 2.94294C1.69019 4.22802 2.34475 5.36252 3.33833 6.02675C2.7313 6.00769 2.15963 5.84108 1.66035 5.56284C1.66008 5.57859 1.66008 5.59434 1.66008 5.60981C1.66008 7.40495 2.9377 8.90223 4.63226 9.24236C4.32169 9.32746 3.99372 9.3725 3.65636 9.3725C3.41708 9.3725 3.18526 9.34956 2.95925 9.30646C3.43062 10.778 4.79859 11.8493 6.42021 11.8794C5.15198 12.8732 3.55468 13.4654 1.8184 13.4654C1.51999 13.4654 1.22435 13.448 0.935059 13.4134C2.57381 14.465 4.52174 15.0781 6.6139 15.0781C13.4286 15.0781 17.1554 9.43273 17.1554 4.53638C17.1554 4.37585 17.1518 4.21587 17.1446 4.05727C17.8691 3.53506 18.4971 2.88271 18.9936 2.13973Z" fill="#412D22"/>
</svg>
