<svg width="24.000000" height="24.000000" viewBox="0 0 24 24" fill="none" xmlns="http://www.w3.org/2000/svg" xmlns:xlink="http://www.w3.org/1999/xlink">
	<desc>
			Created with Pixso.
	</desc>
	<defs>
		<clipPath id="clip11342_1600">
			<rect id="Icon-twitter" width="24.000000" height="24.000000" fill="white" fill-opacity="0"/>
		</clipPath>
	</defs>
	<rect id="Icon-twitter" width="24.000000" height="24.000000" fill="#FFFFFF" fill-opacity="0"/>
	<g clip-path="url(#clip11342_1600)">
		<path id="Vector" d="M22.1616 5.65588C21.3984 5.99365 20.5889 6.21545 19.7598 6.31396C20.6338 5.79138 21.2876 4.96899 21.5996 3.99988C20.7798 4.48792 19.8809 4.82996 18.9438 5.01489C18.3145 4.34155 17.48 3.8949 16.5708 3.74451C15.6611 3.59412 14.7275 3.74841 13.915 4.18335C13.1025 4.61829 12.4561 5.30957 12.0771 6.14966C11.6978 6.98987 11.6064 7.93176 11.8179 8.82898C10.1548 8.74561 8.52832 8.31348 7.04297 7.56055C5.55811 6.80774 4.24805 5.75098 3.19775 4.45898C2.82617 5.09741 2.63086 5.82312 2.63184 6.56189C2.63184 8.01196 3.36963 9.29297 4.4917 10.043C3.82764 10.022 3.17822 9.84265 2.59766 9.5199L2.59766 9.5719C2.59814 10.5376 2.93213 11.4735 3.54346 12.2209C4.15527 12.9684 5.00635 13.4814 5.95264 13.673C5.33643 13.84 4.68994 13.8646 4.06299 13.7449C4.32959 14.5762 4.84961 15.3031 5.55029 15.8241C6.25098 16.345 7.09717 16.6337 7.96973 16.6499C7.10205 17.3313 6.10889 17.835 5.04688 18.1321C3.98438 18.4293 2.87402 18.5142 1.77881 18.382C3.69043 19.6113 5.91602 20.264 8.18896 20.262C15.8818 20.262 20.0889 13.8889 20.0889 8.36194C20.0889 8.18188 20.084 7.99988 20.0757 7.8219C20.8945 7.2301 21.6016 6.49695 22.1626 5.65698L22.1616 5.65588Z" fill="#F9512E" fill-opacity="1.000000" fill-rule="nonzero"/>
	</g>
</svg>
