<svg width="20" height="20" xmlns="http://www.w3.org/2000/svg" fill="none">

 <g>
  <title>Layer 1</title>
  <path stroke="null" id="svg_1" fill="#412D22" d="m19.70559,2.66853c-0.71613,0.38426 -1.48648,0.64417 -2.29447,0.76024c0.82491,-0.59802 1.45802,-1.54428 1.75678,-2.67364c-0.77187,0.55404 -1.62718,0.95598 -2.53663,1.17263c-0.72874,-0.93904 -1.76692,-1.52589 -2.91647,-1.52589c-2.20573,0 -3.99459,2.16465 -3.99459,4.83362c0,0.37886 0.03545,0.74762 0.10397,1.10161c-3.31984,-0.2015 -6.26341,-2.12572 -8.23373,-5.05098c-0.34379,0.71374 -0.541,1.54464 -0.541,2.43032c0,1.67658 0.70573,3.15669 1.777,4.02328c-0.6545,-0.02488 -1.27086,-0.24224 -1.80917,-0.60524c-0.00029,0.02055 -0.00029,0.04108 -0.00029,0.06128c0,2.34201 1.3775,4.29543 3.20454,4.73918c-0.33484,0.11102 -0.68846,0.16977 -1.05219,0.16977c-0.25799,0 -0.50793,-0.02991 -0.75161,-0.08614c0.50822,1.91994 1.98313,3.31745 3.73153,3.35672c-1.36738,1.29666 -3.08955,2.06912 -4.96156,2.06912c-0.32174,0 -0.64049,-0.0227 -0.9524,-0.06771c1.76686,1.37194 3.86708,2.1718 6.12279,2.1718c7.34745,0 11.3656,-7.36519 11.3656,-13.75319c0,-0.20943 -0.00388,-0.41814 -0.01164,-0.62507c0.78114,-0.6813 1.45823,-1.53238 1.99355,-2.5017z"/>
 </g>
</svg>